<?xml version="1.0" encoding="utf-8"?>
<!-- Generator: Adobe Illustrator 22.1.0, SVG Export Plug-In . SVG Version: 6.00 Build 0)  -->
<svg version="1.1" id="Layer_1" xmlns="http://www.w3.org/2000/svg" xmlns:xlink="http://www.w3.org/1999/xlink" x="0px" y="0px"
	 viewBox="0 0 25.9 32.8" style="enable-background:new 0 0 25.9 32.8;" xml:space="preserve">
<style type="text/css">
	.st0{fill:#FFFFFF;}
	.st1{fill:#F6F6F7;stroke:#0363F7;stroke-width:2;stroke-linejoin:round;stroke-miterlimit:10;}
	.st2{fill:none;stroke:#0363F7;stroke-width:2;stroke-linejoin:round;stroke-miterlimit:10;}
	.st3{fill:none;stroke:#0363F7;stroke-width:2;stroke-linecap:round;stroke-linejoin:round;stroke-miterlimit:10;}
	.st4{fill:#FFFFFF;stroke:#0363F7;stroke-width:2;stroke-linejoin:round;stroke-miterlimit:10;}
	.st5{fill:#FFFFFF;stroke:#0363F7;stroke-width:2;stroke-linecap:round;stroke-linejoin:round;stroke-miterlimit:10;}
	.st6{fill:none;}
	.st7{fill:#FFFFFF;stroke:#0363F7;stroke-width:1.7808;stroke-linejoin:round;stroke-miterlimit:10;}
	.st8{fill-rule:evenodd;clip-rule:evenodd;fill:#FFFFFF;stroke:#0363F7;stroke-width:2;stroke-miterlimit:10;}
	.st9{fill-rule:evenodd;clip-rule:evenodd;fill:#FFFFFF;}
	.st10{fill:#FFFFFF;stroke:#FFFFFF;stroke-width:4;stroke-linecap:round;stroke-linejoin:round;stroke-miterlimit:10;}
	.st11{fill:#0363F7;}
	.st12{fill-rule:evenodd;clip-rule:evenodd;fill:#0363F7;}
	.st13{fill:none;stroke:#0363F7;stroke-width:2.0471;stroke-miterlimit:10;}
	.st14{fill:none;stroke:#0363F7;stroke-width:2.0471;stroke-linecap:round;stroke-linejoin:round;stroke-miterlimit:10;}
	.st15{clip-path:url(#SVGID_2_);fill:#FFFFFF;}
	.st16{fill:none;stroke:#0363F7;stroke-width:2;stroke-linecap:square;stroke-miterlimit:10;}
	.st17{fill:none;stroke:#0363F7;stroke-width:3.1645;stroke-linecap:round;stroke-linejoin:round;stroke-miterlimit:10;}
	.st18{fill:none;stroke:#0363F7;stroke-width:2.4443;stroke-linecap:round;stroke-linejoin:round;stroke-miterlimit:10;}
	.st19{fill:none;stroke:#0363F7;stroke-width:2.4059;stroke-miterlimit:10;}
	.st20{fill:#0263F7;}
</style>
<g>
	<path class="st20" d="M23.2,14.1V10c0-6-3.8-10-9.5-10h-1.4C6.6,0,2.8,4,2.8,10v4.2C0.8,14.2,0,15,0,17v12.9c0,2,0.8,2.8,2.8,2.8
		h20.2c2,0,2.8-0.8,2.8-2.8V17C25.9,15,25.2,14.2,23.2,14.1z M19.4,14.1H6.6V10c0-3.9,2.1-6.2,5.7-6.2h1.4c3.6,0,5.7,2.3,5.7,6.2
		V14.1z"/>
	<path class="st0" d="M15.4,20.8c-0.3-0.3-0.6-0.5-1-0.7s-0.7-0.2-1.1-0.2c-0.5,0-0.9,0.1-1.1,0.4c-0.3,0.2-0.4,0.6-0.4,1
		c0,0.4,0.1,0.6,0.4,0.9c0.2,0.2,0.5,0.4,0.9,0.6s0.7,0.4,1.2,0.6s0.8,0.4,1.2,0.7c0.4,0.3,0.7,0.6,0.9,1c0.2,0.4,0.4,0.9,0.4,1.5
		c0,0.8-0.2,1.6-0.7,2.1c-0.5,0.6-1.1,0.9-2,1.1v1.8h-1.4v-1.8c-0.5-0.1-1.1-0.2-1.6-0.4c-0.5-0.2-1-0.5-1.4-0.9l0.9-1.4
		c0.4,0.3,0.8,0.6,1.3,0.8c0.4,0.2,0.9,0.3,1.4,0.3c0.6,0,1-0.1,1.3-0.4c0.3-0.3,0.4-0.6,0.4-1.1c0-0.4-0.1-0.7-0.4-1
		c-0.2-0.3-0.5-0.5-0.9-0.7c-0.4-0.2-0.7-0.4-1.2-0.6c-0.4-0.2-0.8-0.4-1.2-0.7s-0.7-0.6-0.9-1c-0.2-0.4-0.4-0.8-0.4-1.4
		c0-0.8,0.2-1.5,0.7-2.1c0.5-0.5,1.1-0.9,1.9-1v-1.8h1.4v1.8c0.6,0.1,1,0.2,1.5,0.5c0.4,0.3,0.8,0.5,1.1,0.9L15.4,20.8z"/>
</g>
</svg>
