<?xml version="1.0" encoding="utf-8"?>
<!-- Generator: Adobe Illustrator 22.1.0, SVG Export Plug-In . SVG Version: 6.00 Build 0)  -->
<svg version="1.1" id="Layer_1" xmlns="http://www.w3.org/2000/svg" xmlns:xlink="http://www.w3.org/1999/xlink" x="0px" y="0px"
	 viewBox="0 0 47.1 47.1" style="enable-background:new 0 0 47.1 47.1;" xml:space="preserve">
<style type="text/css">
	.st0{fill:#FFFFFF;}
	.st1{fill:#F6F6F7;stroke:#0363F7;stroke-width:2;stroke-linejoin:round;stroke-miterlimit:10;}
	.st2{fill:none;stroke:#0363F7;stroke-width:2;stroke-linejoin:round;stroke-miterlimit:10;}
	.st3{fill:none;stroke:#0363F7;stroke-width:2;stroke-linecap:round;stroke-linejoin:round;stroke-miterlimit:10;}
	.st4{fill:#FFFFFF;stroke:#0363F7;stroke-width:2;stroke-linejoin:round;stroke-miterlimit:10;}
	.st5{fill:#FFFFFF;stroke:#0363F7;stroke-width:2;stroke-linecap:round;stroke-linejoin:round;stroke-miterlimit:10;}
	.st6{fill:none;}
	.st7{fill:#FFFFFF;stroke:#0363F7;stroke-width:1.7808;stroke-linejoin:round;stroke-miterlimit:10;}
	.st8{fill-rule:evenodd;clip-rule:evenodd;fill:#FFFFFF;stroke:#0363F7;stroke-width:2;stroke-miterlimit:10;}
	.st9{fill-rule:evenodd;clip-rule:evenodd;fill:#FFFFFF;}
	.st10{fill:#FFFFFF;stroke:#FFFFFF;stroke-width:4;stroke-linecap:round;stroke-linejoin:round;stroke-miterlimit:10;}
	.st11{fill:#0363F7;}
	.st12{fill-rule:evenodd;clip-rule:evenodd;fill:#0363F7;}
	.st13{fill:none;stroke:#0363F7;stroke-width:2.0471;stroke-miterlimit:10;}
	.st14{fill:none;stroke:#0363F7;stroke-width:2.0471;stroke-linecap:round;stroke-linejoin:round;stroke-miterlimit:10;}
	.st15{clip-path:url(#SVGID_2_);fill:#FFFFFF;}
	.st16{fill:none;stroke:#0363F7;stroke-width:2;stroke-linecap:square;stroke-miterlimit:10;}
	.st17{fill:none;stroke:#0363F7;stroke-width:3.1645;stroke-linecap:round;stroke-linejoin:round;stroke-miterlimit:10;}
	.st18{fill:none;stroke:#0363F7;stroke-width:2.4443;stroke-linecap:round;stroke-linejoin:round;stroke-miterlimit:10;}
	.st19{fill:none;stroke:#0363F7;stroke-width:2.4059;stroke-miterlimit:10;}
	.st20{fill:#0263F7;}
</style>
<g>
	<g>
		<path class="st20" d="M47.1,23.5C47.1,10.5,36.5,0,23.5,0S0,10.5,0,23.5s10.5,23.5,23.5,23.5S47.1,36.5,47.1,23.5z M1.6,23.5
			c0-12.1,9.8-21.9,21.9-21.9s21.9,9.8,21.9,21.9s-9.8,21.9-21.9,21.9S1.6,35.7,1.6,23.5z"/>
		<path class="st20" d="M26.5,19.4c-0.5-0.4-0.9-0.7-1.3-1c-0.4-0.2-0.9-0.3-1.5-0.3c-0.7,0-1.2,0.2-1.6,0.5
			c-0.4,0.3-0.6,0.8-0.6,1.5c0,0.5,0.2,0.9,0.5,1.2c0.3,0.3,0.7,0.6,1.2,0.9c0.5,0.3,1,0.5,1.6,0.8s1.1,0.6,1.6,1s0.9,0.8,1.2,1.4
			c0.3,0.5,0.5,1.2,0.5,2.1c0,1.2-0.3,2.2-1,3c-0.7,0.8-1.6,1.3-2.8,1.5v2.5h-2v-2.5c-0.8-0.1-1.5-0.3-2.3-0.6
			c-0.8-0.3-1.4-0.7-2-1.3l1.3-1.9c0.6,0.5,1.2,0.8,1.7,1.1c0.6,0.3,1.2,0.4,1.9,0.4c0.8,0,1.4-0.2,1.8-0.6c0.4-0.4,0.6-0.9,0.6-1.6
			c0-0.5-0.2-1-0.5-1.4c-0.3-0.4-0.7-0.7-1.2-1c-0.5-0.3-1-0.6-1.6-0.8c-0.6-0.3-1.1-0.6-1.6-1s-0.9-0.8-1.2-1.3
			c-0.3-0.5-0.5-1.2-0.5-1.9c0-1.1,0.3-2.1,1-2.9s1.5-1.2,2.7-1.4v-2.5h2v2.5c0.8,0.1,1.5,0.3,2,0.7c0.6,0.4,1.1,0.8,1.5,1.2
			L26.5,19.4z"/>
	</g>
</g>
</svg>
