<?xml version="1.0" encoding="utf-8"?>
<!-- Generator: Adobe Illustrator 22.1.0, SVG Export Plug-In . SVG Version: 6.00 Build 0)  -->
<svg version="1.1" id="Layer_1" xmlns="http://www.w3.org/2000/svg" xmlns:xlink="http://www.w3.org/1999/xlink" x="0px" y="0px"
	 viewBox="0 0 49.9 29.2" style="enable-background:new 0 0 49.9 29.2;" xml:space="preserve">
<style type="text/css">
	.st0{fill:#FFFFFF;}
	.st1{fill:#F6F6F7;stroke:#0363F7;stroke-width:2;stroke-linejoin:round;stroke-miterlimit:10;}
	.st2{fill:none;stroke:#0363F7;stroke-width:2;stroke-linejoin:round;stroke-miterlimit:10;}
	.st3{fill:none;stroke:#0363F7;stroke-width:2;stroke-linecap:round;stroke-linejoin:round;stroke-miterlimit:10;}
	.st4{fill:#FFFFFF;stroke:#0363F7;stroke-width:2;stroke-linejoin:round;stroke-miterlimit:10;}
	.st5{fill:#FFFFFF;stroke:#0363F7;stroke-width:2;stroke-linecap:round;stroke-linejoin:round;stroke-miterlimit:10;}
	.st6{fill:none;}
	.st7{fill:#FFFFFF;stroke:#0363F7;stroke-width:1.7808;stroke-linejoin:round;stroke-miterlimit:10;}
	.st8{fill-rule:evenodd;clip-rule:evenodd;fill:#FFFFFF;stroke:#0363F7;stroke-width:2;stroke-miterlimit:10;}
	.st9{fill-rule:evenodd;clip-rule:evenodd;fill:#FFFFFF;}
	.st10{fill:#FFFFFF;stroke:#FFFFFF;stroke-width:4;stroke-linecap:round;stroke-linejoin:round;stroke-miterlimit:10;}
	.st11{fill:#0363F7;}
	.st12{fill-rule:evenodd;clip-rule:evenodd;fill:#0363F7;}
	.st13{fill:none;stroke:#0363F7;stroke-width:2.0471;stroke-miterlimit:10;}
	.st14{fill:none;stroke:#0363F7;stroke-width:2.0471;stroke-linecap:round;stroke-linejoin:round;stroke-miterlimit:10;}
	.st15{clip-path:url(#SVGID_2_);fill:#FFFFFF;}
	.st16{fill:none;stroke:#0363F7;stroke-width:2;stroke-linecap:square;stroke-miterlimit:10;}
	.st17{fill:none;stroke:#0363F7;stroke-width:3.1645;stroke-linecap:round;stroke-linejoin:round;stroke-miterlimit:10;}
	.st18{fill:none;stroke:#0363F7;stroke-width:2.4443;stroke-linecap:round;stroke-linejoin:round;stroke-miterlimit:10;}
	.st19{fill:none;stroke:#0363F7;stroke-width:2.4059;stroke-miterlimit:10;}
	.st20{fill:#0263F7;}
</style>
<g>
	<path class="st20" d="M49.9,15.8c0-0.2-0.1-0.5-0.2-0.6c-1.9-2.5-3.8-5-5.7-7.5C43,6.4,43,6.3,41.8,6.3l0,0H37c0-0.2,0-3.6,0-5.2
		C37,0.4,36.7,0,35.8,0c-8.5,0-16.9,0-25.3,0C9.7,0,9.3,0.4,9.3,1.3c0,1,0,1.5,0,2.6l0,0c0,0.6,0.5,1,1,1s1-0.5,1-1
		c0-0.7,0-0.9,0-1.7c7.8,0,15.6,0,23.5,0c0,6.8,0,20.3,0,20.3H23.6c-0.8-1.2-2.1-2-3.7-2c-1.6,0-2.9,0.8-3.7,2h-4.9c0,0,0-0.9,0-1.7
		c0-0.6-0.5-1-1-1c-0.6,0-1,0.5-1,1c0,1,0,1.5,0,2.6c0,0.9,0.4,1.3,1.3,1.3h5.1c0,0.1,0,0.2,0,0.3c0,2.4,2,4.4,4.4,4.4
		s4.4-2,4.4-4.4c0-0.1,0-0.2,0-0.3H38c0,0.1,0,0.2,0,0.3c0,2.4,2,4.4,4.4,4.4c2.4,0,4.4-2,4.4-4.4c0-0.1,0-0.2,0-0.3h2
		c0.7,0,1.1-0.4,1.1-1.1C49.9,20.9,49.9,18.4,49.9,15.8z M20,26.9c-1.1,0-2.1-0.9-2.1-2.1s0.9-2.1,2.1-2.1c1.1,0,2.1,0.9,2.1,2.1
		S21.1,26.9,20,26.9z M37,8.5h4.5c0.2,0,0.4,0.1,0.4,0.2c1.5,2,4.6,6.1,4.6,6.1H37V8.5z M42.4,26.9c-1.1,0-2.1-0.9-2.1-2.1
		s0.9-2.1,2.1-2.1c1.1,0,2.1,0.9,2.1,2.1S43.6,26.9,42.4,26.9z M47.7,22.4h-1.6c-0.8-1.2-2.1-2-3.7-2c-1.6,0-2.9,0.8-3.7,2h-1.6
		v-5.5h10.6V22.4z"/>
	<path class="st20" d="M15,8.6H1.1C0.5,8.6,0,8.1,0,7.5s0.5-1.1,1.1-1.1H15c0.6,0,1.1,0.5,1.1,1.1S15.6,8.6,15,8.6z"/>
	<path class="st20" d="M15,13.5H3.8c-0.6,0-1.1-0.5-1.1-1.1s0.5-1.1,1.1-1.1H15c0.6,0,1.1,0.5,1.1,1.1S15.6,13.5,15,13.5z"/>
	<path class="st20" d="M15,18.3H5.8c-0.6,0-1.1-0.5-1.1-1.1c0-0.6,0.5-1.1,1.1-1.1H15c0.6,0,1.1,0.5,1.1,1.1
		C16.1,17.7,15.6,18.3,15,18.3z"/>
</g>
</svg>
