<?xml version="1.0" encoding="utf-8"?>
<!-- Generator: Adobe Illustrator 22.1.0, SVG Export Plug-In . SVG Version: 6.00 Build 0)  -->
<svg version="1.1" id="Layer_1" xmlns="http://www.w3.org/2000/svg" xmlns:xlink="http://www.w3.org/1999/xlink" x="0px" y="0px"
	 viewBox="0 0 34.9 24.6" style="enable-background:new 0 0 34.9 24.6;" xml:space="preserve">
<style type="text/css">
	.st0{fill:#FFFFFF;}
	.st1{fill:#F6F6F7;stroke:#0363F7;stroke-width:2;stroke-linejoin:round;stroke-miterlimit:10;}
	.st2{fill:none;stroke:#0363F7;stroke-width:2;stroke-linejoin:round;stroke-miterlimit:10;}
	.st3{fill:none;stroke:#0363F7;stroke-width:2;stroke-linecap:round;stroke-linejoin:round;stroke-miterlimit:10;}
	.st4{fill:#FFFFFF;stroke:#0363F7;stroke-width:2;stroke-linejoin:round;stroke-miterlimit:10;}
	.st5{fill:#FFFFFF;stroke:#0363F7;stroke-width:2;stroke-linecap:round;stroke-linejoin:round;stroke-miterlimit:10;}
	.st6{fill:none;}
	.st7{fill:#FFFFFF;stroke:#0363F7;stroke-width:1.7808;stroke-linejoin:round;stroke-miterlimit:10;}
	.st8{fill-rule:evenodd;clip-rule:evenodd;fill:#FFFFFF;stroke:#0363F7;stroke-width:2;stroke-miterlimit:10;}
	.st9{fill-rule:evenodd;clip-rule:evenodd;fill:#FFFFFF;}
	.st10{fill:#FFFFFF;stroke:#FFFFFF;stroke-width:4;stroke-linecap:round;stroke-linejoin:round;stroke-miterlimit:10;}
	.st11{fill:#0363F7;}
	.st12{fill-rule:evenodd;clip-rule:evenodd;fill:#0363F7;}
	.st13{fill:none;stroke:#0363F7;stroke-width:2.0471;stroke-miterlimit:10;}
	.st14{fill:none;stroke:#0363F7;stroke-width:2.0471;stroke-linecap:round;stroke-linejoin:round;stroke-miterlimit:10;}
	.st15{clip-path:url(#SVGID_2_);fill:#FFFFFF;}
	.st16{fill:none;stroke:#0363F7;stroke-width:2;stroke-linecap:square;stroke-miterlimit:10;}
	.st17{fill:none;stroke:#0363F7;stroke-width:3.1645;stroke-linecap:round;stroke-linejoin:round;stroke-miterlimit:10;}
	.st18{fill:none;stroke:#0363F7;stroke-width:2.4443;stroke-linecap:round;stroke-linejoin:round;stroke-miterlimit:10;}
	.st19{fill:none;stroke:#0363F7;stroke-width:2.4059;stroke-miterlimit:10;}
	.st20{fill:#0263F7;}
</style>
<g>
	<path class="st20" d="M34.3,1.3L20.9,13.9c-1,0.9-2.2,1.4-3.5,1.4c-1.3,0-2.5-0.5-3.5-1.4L0.6,1.3C0.2,1.9,0,2.6,0,3.3v17.4
		c0,2.1,1.7,3.9,3.9,3.9H31c2.1,0,3.9-1.7,3.9-3.9V3.3C34.9,2.6,34.6,1.9,34.3,1.3z"/>
	<path class="st20" d="M19.6,13.1L32.9,0.5C32.3,0.2,31.7,0,31,0H3.9C3.2,0,2.5,0.2,2,0.5l13.3,12.6C16.4,14.2,18.4,14.2,19.6,13.1z
		"/>
</g>
</svg>
