<?xml version="1.0" encoding="utf-8"?>
<!-- Generator: Adobe Illustrator 22.1.0, SVG Export Plug-In . SVG Version: 6.00 Build 0)  -->
<svg version="1.1" id="Layer_1" xmlns="http://www.w3.org/2000/svg" xmlns:xlink="http://www.w3.org/1999/xlink" x="0px" y="0px"
	 viewBox="0 0 37.6 37.7" style="enable-background:new 0 0 37.6 37.7;" xml:space="preserve">
<style type="text/css">
	.st0{fill:#FFFFFF;}
	.st1{fill:#F6F6F7;stroke:#0363F7;stroke-width:2;stroke-linejoin:round;stroke-miterlimit:10;}
	.st2{fill:none;stroke:#0363F7;stroke-width:2;stroke-linejoin:round;stroke-miterlimit:10;}
	.st3{fill:none;stroke:#0363F7;stroke-width:2;stroke-linecap:round;stroke-linejoin:round;stroke-miterlimit:10;}
	.st4{fill:#FFFFFF;stroke:#0363F7;stroke-width:2;stroke-linejoin:round;stroke-miterlimit:10;}
	.st5{fill:#FFFFFF;stroke:#0363F7;stroke-width:2;stroke-linecap:round;stroke-linejoin:round;stroke-miterlimit:10;}
	.st6{fill:none;}
	.st7{fill:#FFFFFF;stroke:#0363F7;stroke-width:1.7808;stroke-linejoin:round;stroke-miterlimit:10;}
	.st8{fill-rule:evenodd;clip-rule:evenodd;fill:#FFFFFF;stroke:#0363F7;stroke-width:2;stroke-miterlimit:10;}
	.st9{fill-rule:evenodd;clip-rule:evenodd;fill:#FFFFFF;}
	.st10{fill:#FFFFFF;stroke:#FFFFFF;stroke-width:4;stroke-linecap:round;stroke-linejoin:round;stroke-miterlimit:10;}
	.st11{fill:#0363F7;}
	.st12{fill-rule:evenodd;clip-rule:evenodd;fill:#0363F7;}
	.st13{fill:none;stroke:#0363F7;stroke-width:2.0471;stroke-miterlimit:10;}
	.st14{fill:none;stroke:#0363F7;stroke-width:2.0471;stroke-linecap:round;stroke-linejoin:round;stroke-miterlimit:10;}
	.st15{clip-path:url(#SVGID_2_);fill:#FFFFFF;}
	.st16{fill:none;stroke:#0363F7;stroke-width:2;stroke-linecap:square;stroke-miterlimit:10;}
	.st17{fill:none;stroke:#0363F7;stroke-width:3.1645;stroke-linecap:round;stroke-linejoin:round;stroke-miterlimit:10;}
	.st18{fill:none;stroke:#0363F7;stroke-width:2.4443;stroke-linecap:round;stroke-linejoin:round;stroke-miterlimit:10;}
	.st19{fill:none;stroke:#0363F7;stroke-width:2.4059;stroke-miterlimit:10;}
	.st20{fill:#0263F7;}
</style>
<g>
	<path class="st20" d="M33.2,28.2l-7.1-3.6c-1-0.5-2.2-0.2-2.9,0.6l-2.6,3.3c-2.5-1.3-4.4-2.7-6.7-4.9c-2.4-2.4-3.6-4.3-4.9-6.8
		l3.3-2.6c0.9-0.7,1.1-1.9,0.6-2.9l-3.6-7C8.8,3.1,7.2,2.7,6,3.5l-4.5,3C0.5,7.2-0.1,8.4,0,9.6c0.1,1.3,0.2,2.9,0.6,4
		c1.3,5,4.4,10.2,8.9,14.6c4.4,4.4,9.6,7.5,14.6,8.9c1.1,0.3,2.7,0.4,4,0.6c1.3,0.1,2.5-0.5,3.2-1.6l2.9-4.6
		C34.9,30.4,34.4,28.8,33.2,28.2z"/>
	<path class="st20" d="M19,14.8c0.9,0.2,1.7,0.7,2.4,1.4c0.7,0.7,1.2,1.5,1.4,2.4c0.2,0.7,0.9,1.2,1.6,1.1h0.2c1,0,1.8-1,1.5-2
		c-0.4-1.4-1.1-2.8-2.3-3.9c-1.1-1.1-2.5-1.9-3.9-2.3c-1-0.3-2,0.5-2,1.5v0.2C17.8,13.9,18.2,14.6,19,14.8z"/>
	<path class="st20" d="M19.4,9.1c2.2,0.4,4.3,1.4,5.9,3.1c1.7,1.7,2.7,3.8,3.1,5.9c0.2,0.8,0.9,1.4,1.7,1.3h0.1c1,0,1.7-1,1.5-1.9
		c-0.5-2.9-1.9-5.6-4-7.8c-2.2-2.2-4.9-3.6-7.8-4c-1-0.2-1.9,0.6-1.9,1.5v0.1C18,8.2,18.6,8.9,19.4,9.1z"/>
	<path class="st20" d="M37.6,17.3C37,13.1,35.1,9,31.8,5.8S24.5,0.6,20.3,0c-1-0.1-1.8,0.6-1.9,1.5v0.2c0,0.9,0.6,1.6,1.4,1.7
		c3.5,0.5,6.9,2.1,9.6,4.8s4.3,6.1,4.8,9.6c0.1,0.8,0.8,1.5,1.7,1.4h0.2C37,19.2,37.7,18.3,37.6,17.3z"/>
</g>
</svg>
