<!-- Generated by IcoMoon.io -->
<svg version="1.1" xmlns="http://www.w3.org/2000/svg" width="40" height="40" viewBox="0 0 40 40">
<title>youtube-with-circle</title>
<g id="icomoon-ignore">
</g>
<path fill="#000" d="M23.206 19.666l-4.492-2.096c-0.392-0.182-0.714 0.022-0.714 0.456v3.948c0 0.434 0.322 0.638 0.714 0.456l4.49-2.096c0.394-0.184 0.394-0.484 0.002-0.668zM20 0.8c-10.604 0-19.2 8.596-19.2 19.2s8.596 19.2 19.2 19.2 19.2-8.596 19.2-19.2-8.596-19.2-19.2-19.2zM20 27.8c-9.828 0-10-0.886-10-7.8s0.172-7.8 10-7.8 10 0.886 10 7.8-0.172 7.8-10 7.8z"></path>
</svg>
