<svg viewBox="0 0 200 200" xmlns="http://www.w3.org/2000/svg" role="img">
<title>10K</title>
<g id="Fills1">
	<path style="fill:#ABC0DE;" d="M188,71.5c-0.2-0.3-0.5-0.6-0.8-0.8c-2.2-2.1-4.9-3.4-7.3-5.1c-0.8-0.6-2.2-0.2-2.7,0.6
		c-0.9,1.3-1.9,2.6-2.8,4c-2.8,4.4-5.8,8.7-8.3,13.3c-1.8,3.3-3.8,6.5-5.8,9.7c-1.7,2.6-3.6,5.1-5.5,7.7c-0.3,0.5-0.6,0.9-0.5,1.4
		c-0.9-0.1-1.7-0.5-2.5-0.4c-2.4,0.2-4.8,0.1-7.2,0.2c-0.5,0-0.7-0.2-0.7-0.7c0-2.8-0.1-5.6-0.1-8.5c0-3.9-0.1-7.9-0.2-11.8
		c-0.1-3.8,0.1-7.6-0.2-11.4c-0.2-2.6-0.4-9.6-0.8-12.2c-0.1-0.8-0.2-1.5,0.3-2.2c0,0,0-0.2,0-0.3c-1.1-0.7-2.2-1.6-3.6-1.5
		c-2.6,0.3-5.2,0.2-7.8,0.4c-0.9,0.1-1.7,0.4-2.5,0.8c0.1,0.4,0.2,0.8,0.2,1.2c-0.2,2.6,0.1,9.4,0.2,12c0.1,1.8,0,3.5-0.1,5.3
		c-0.1,3-0.1,5.9-0.2,8.9c-0.1,2.9-0.1,5.8-0.2,8.7c-0.1,1.9-0.2,3.8-0.3,5.7c-0.1,1.8-0.1,3.6-0.1,5.3c0,0.6-0.1,1.2-0.1,1.8
		c-0.1,4.6-0.2,9.3-0.3,13.9c-0.1,3-0.3,6-0.4,9c-0.1,4.4-0.3,8.7-0.4,13.1c0,3.3,0.1,6.7,0.2,10c0,1.7,0.1,3.5,0.3,5.2
		c0.1,1.3,1.4,2.8,2.6,2.9c0.6,0,1.3-1,1.9-1c2-0.1,4.1-0.3,6.1,0c0.9,0.2,1.9,0,2.8-0.1c0.7-0.1,1.2,0.6,1.5-0.1
		c0.1-0.3,0.2-0.7,0.5-0.9c0.7-0.6,0.6-1.3,0.6-2c0-0.5-0.1-1-0.1-1.6c0-2.6,0.1-5.1,0.1-7.7c0-4.6,0-9.3,0-13.9
		c0-1.1,0-2.2-0.1-3.4c0-1.1-0.1-2.2-0.1-3.3c0-2.6,0-5.2,0-7.8c0-0.4,0.1-0.7,0.1-1.2c1.1,0.1,2.2,0.2,3.2,0.1
		c1.9-0.1,3.8-0.2,5.7-0.3c0.8,0,1.4,0.2,1.7,1c0.3,0.9,0.6,1.8,1,2.7c1.7,3.8,3.4,7.5,4.6,11.4c0.8,2.6,1.8,5,2.7,7.6
		c0.5,1.5,0.9,3,1.5,4.4c1.5,3.8,3.1,7.6,4.7,11.4c0.2,0.4,0.3,0.9,0.3,1.4c0.1,0.6,0.3,1,0.8,1.3c0.4,0.2,0.7,0.4,1,0.4
		c0,0.2,0,0.4,0.1,0.7c0.1,0.2,0.9,1.1,1,1.3c0.9,0,1.6-0.3,2.3-0.8c2.9-2,6-3.5,9.1-5c1.1-0.5,1.2-0.7,0.8-1.9
		c-0.1-0.2-0.2-0.5-0.3-0.7c-0.9-1.9-1.8-3.8-2.7-5.7c-0.9-1.8-1.7-3.7-2.5-5.6c-0.7-1.5-1.5-2.9-2.1-4.5c-1.8-4.2-3.9-8.2-5.4-12.5
		c-0.1-0.2-0.2-0.4-0.3-0.6c-1.1-2.7-2.2-5.4-3.3-8c-0.5-1.3-0.8-2.7-1.8-3.7c-0.8-0.8-0.6-1.6-0.2-2.5c0.1-0.3,0.3-0.6,0.5-0.9
		c1.2-1.8,2.3-3.5,3.5-5.3c1.8-2.6,3.7-5.1,5.5-7.7c2.1-3.1,4.1-6.2,6.1-9.3c1.8-2.8,3.4-5.7,5.1-8.6c0.1-0.1,0.2-0.3,0.2-0.5
		c0.1-0.6,0.5-1.1,1-1.4C188.4,72.5,188.4,72.2,188,71.5z"/>
	<path style="fill:#ABC0DE;" d="M14.8,64.3c-1,0.8-1.7,1.3-2.4,1.9c-0.8,0.7-1.6,1.2-2.6,1.3c-0.6,0.1-1.1,0-1.5-0.7
		c-1.5-2.9-3.1-5.7-4.7-8.6c-0.2-0.5-0.2-0.8,0.2-1.1c2.4-2.3,5-4.3,7.4-6.5c0.8-0.7,1.6-1.4,2.4-2c0.3-0.3,0.8-0.7,1.1-0.6
		c1.3,0.1,2.4-0.6,3.7-0.7c1.2-0.1,2.3-0.2,3.5,0c1,0.2,2.1,0.2,3.1-0.1c0.9-0.3,1.7-0.1,2.3,0.7c0.1,0.1,0.2,0.2,0.2,0.3
		c-0.2,0.8,0.5,1.3,0.8,2c0.3,0.7,0.6,1.5,0.6,2.2c0,1.6-0.1,3.2-0.1,4.8c0,0.2,0,0.3,0,0.5c-0.1,3.2-0.2,6.3-0.2,9.5
		c-0.1,2.7-0.1,5.5-0.1,8.2c0,0.8-0.1,1.6-0.2,2.5c-0.1,1.4-0.1,2.8-0.1,4.2c0,1.2,0,2.4,0,3.6c0,1.3,0,2.5,0,3.8c0,2-0.1,4-0.1,6
		c-0.1,5.6-0.1,11.1-0.1,16.7c0,2.1,0.1,4.2,0.2,6.2c0,1.7,0.1,3.5,0.1,5.2c0,2.3-0.1,4.6-0.1,6.9c0,2.6,0.3,5.2,0.2,7.8
		c-0.1,3.1-0.3,6.1-0.5,9.2c-0.1,2.3-0.2,4.7-0.4,7c-0.1,1.1-0.5,0.7-1.5,1c-0.7,0.1-1.4,0.3-2,0.2c-1.9-0.3-3.9-0.3-5.8-0.2
		c-1.2,0.1-2-0.5-2.9-1c-0.3-0.1-0.6,0.6-0.2,0.1c0.4-0.4,0.2-1-0.2-1.4c-0.5-0.5-0.6-1.1-0.6-1.8c0-2.4,0-4.8,0.1-7.2
		c0-2.2,0-4.3,0-6.5c0-3.6,0.1-7.1,0-10.7c0-1.6-0.2-3.1-0.2-4.7c-0.1-3.5-0.1-6.9-0.2-10.4c0-1.2-0.1-2.4-0.1-3.6
		c0-0.8,0.2-1.6,0.2-2.3c0-1.9,0-3.8,0.1-5.7c0.1-3.7,0.3-7.4,0.4-11.1c0.1-2.4,0.1-4.9,0.1-7.3c0.1-4.1,0.1-8.3,0.2-12.4
		C14.7,67.7,14.8,66.2,14.8,64.3z"/>
	<path style="fill:#ABC0DE;" d="M117.6,107.5c0-1-0.2-1.9-0.1-2.9c0.2-3,0-5.9-0.2-8.9c-0.1-1-0.3-2-0.4-3.1
		c-0.2-1.9-0.4-3.8-0.7-5.7c-0.7-4.3-2-8.5-3.5-12.5c-1.5-4-3.2-8-5.4-11.7c-1.9-3.2-4.6-5.9-7.2-8.5c-0.1-0.1-0.3-0.2-0.4-0.3
		c-1.3-0.8-2.6-1.6-3.8-2.5c-0.3-0.2-0.7-0.4-1-0.5c-1.4-0.5-2.8-0.9-4.2-1.4c-3.7-1.1-7.6-1.4-11.5-1.4c-0.8,0-1.7,0.1-2.5,0.3
		c-1.9,0.4-3.9,0.9-5.8,1.6c-4.1,1.3-7.6,3.6-11,6.2c0,0-0.1,0.1-0.1,0.1c-1.1,1.1-2.3,2.3-3.4,3.4c-1,1.1-2,2.2-3.1,3.2
		c-2.6,2.4-4.7,5.2-6.5,8.2c-3,4.9-5.2,10.2-6.4,15.9c-0.9,3.9-1.5,7.8-1.4,11.9c0.1,4.1,0.3,8.1,0.4,12.2c0,1.1,0.2,2.2,0.4,3.2
		c0.4,3.1,0.6,6.1,1.1,9.2c0.8,4.4,1.7,8.7,3.2,12.9c0.7,1.8,1.3,3.6,2.4,5.2c1.2,1.8,2.6,3.5,3.9,5.2c0.9,1.2,1.8,2.4,3,3.3
		c2.2,1.8,4.5,3.5,6.9,5.1c3.3,2.2,7,2.5,10.9,3.5c2.5,0.6,5.1,0.7,7.6,0.4c0.4-0.1,0.9-0.1,1.3-0.1c2.9-0.1,5.7,0.5,8.4-0.7
		c0.6-0.2,1.1-0.5,1.7-0.7c1.7-0.7,3.4-1.3,5.1-2c1.7-0.8,3.3-1.7,4.8-2.8c2.9-2.3,5.5-4.9,7.6-8c1.6-2.3,3.2-4.7,4.2-7.3
		c0.4-1,0.6-2.1,1.1-3.1c2-4.9,3.5-9.9,4-15.2c0.4-3.8,0.6-7.7,0.8-11.6C117.7,107.5,117.6,107.5,117.6,107.5z M104.5,113.3
		c-0.3,1.3-0.1,2.8-0.2,4.2c0,0.6-0.1,1.1-0.1,1.7c-0.3,2.5-1,4.9-1.7,7.3c-0.8,2.5-1.6,4.8-2.5,7.2c-0.4,1.1-1.1,2.1-1.7,3.1
		c-0.9,1.6-2.3,2.8-3.5,4.2c-0.5,0.5-1.1,0.8-1.7,1.2c-1.1,0.8-2.3,1.5-3.5,2.3c-0.2,0.1-0.4,0.3-0.7,0.4c-2.9,0.9-5.7,1.1-8.9,0.9
		c-0.6,0-1.3,0-2,0c-0.3,0-0.7,0-1,0c-2.5,0.2-4.8-0.6-7-1.5c-1.1-0.5-2.3,0.2-3.4-0.4c-1.2-0.7-2.4-1.4-3.5-2.3
		c-3.7-3.1-6.2-7.1-8.3-11.4c-1.1-2.3-1.4-4.7-1.7-7.2c-0.2-1.7-0.3-3.4-0.6-5c-0.2-1.5-0.5-2.9-0.6-4.4c-0.1-1.3-0.1-2.6-0.2-3.9
		c-0.3-4.2,0.4-8.4,1.1-12.5c0.5-3.3,1-6.5,1.8-9.7c0.4-1.7,1.1-3.3,1.9-4.8c1-2,2.1-3.9,3.2-5.8c0.7-1.3,1.5-2.5,2.4-3.7
		c2-3,4.7-5.3,7.8-7.1c3.7-2.2,7.7-4.4,12-4.5c0.7,0,1.3,0,2-0.1c2.4-0.1,4.4,0.5,6.2,2.2c1.3,1.2,2.7,2.4,3.9,3.9
		c0.6,0.8,1.4,2.3,2,3.2c1.1,1.5,2,3.1,2.8,4.8c1.6,3.4,2.9,6.9,3.8,10.6c0.7,3,1.3,6.1,1.6,9.2c0.2,1.7,0.2,3.4,0.3,5.1
		c0.1,1.7,0.1,3.4,0.2,5.1c0,0.5,0,0.9,0,1.4c0,0.7-0.1,1.4,0,2.1C104.7,110.4,104.8,111.8,104.5,113.3z"/>
</g>
<g id="Fills2">
	<path style="fill:#ABC0DE;" d="M190.2,69.3c-0.2-0.3-0.5-0.6-0.8-0.8c-2.2-2.1-4.9-3.4-7.3-5.1c-0.8-0.6-2.2-0.2-2.7,0.6
		c-0.9,1.3-1.9,2.6-2.8,4c-2.8,4.4-5.8,8.7-8.3,13.3c-1.8,3.3-3.8,6.5-5.8,9.7c-1.7,2.6-3.6,5.1-5.5,7.7c-0.3,0.5-0.6,0.9-0.5,1.4
		c-0.9-0.1-1.7-0.5-2.5-0.4c-2.4,0.2-4.8,0.1-7.2,0.2c-0.5,0-0.7-0.2-0.7-0.7c0-2.8-0.1-5.6-0.1-8.5c0-3.9-1.1-7.9-1.2-11.8
		c-0.1-3.8,0.1-7.6-0.2-11.4c-0.2-2.6,0.6-9.6,0.2-12.2c-0.1-0.8-0.2-1.5,0.3-2.2c0,0,0-0.2,0-0.3c-1.1-0.7-2.2-1.6-3.6-1.5
		c-2.6,0.3-5.2,0.2-7.8,0.4c-0.9,0.1-1.7,0.4-2.5,0.8c0.1,0.4,0.2,0.8,0.2,1.2c-0.2,2.6-0.9,9.4-0.8,12c0.1,1.8,0,3.5-0.1,5.3
		c-0.1,3-0.1,5.9-0.2,8.9c-0.1,2.9-0.1,5.8-0.2,8.7c-0.1,1.9-0.2,3.8-0.3,5.7c-0.1,1.8-0.1,3.6-0.1,5.3c0,0.6-0.1,1.2-0.1,1.8
		c-0.1,4.6-0.2,9.3-0.3,13.9c-0.1,3,0.7,6,0.6,9c-0.1,4.4-0.3,8.7-0.4,13.1c0,3.3,0.1,6.7,0.2,10c0,1.7,0.1,3.5,0.3,5.2
		c0.1,1.3,1.4,2.8,2.6,2.9c0.6,0,1.3,0,1.9,0c2-0.1,4.1-0.3,6.1,0c0.9,0.2,1.9,0,2.8-0.1c0.7-0.1,1.2-0.4,1.5-1.1
		c0.1-0.3,0.2-0.7,0.5-0.9c0.7-0.6,0.6-1.3,0.6-2c0-0.5-0.1-1-0.1-1.6c0-2.6,0.1-5.1,0.1-7.7c0-4.6,0-9.3,0-13.9
		c0-1.1,0-2.2-0.1-3.4c0-1.1-0.1-2.2-0.1-3.3c0-2.6,0-5.2,0-7.8c0-0.4,0.1-0.7,0.1-1.2c1.1,0.1,2.2,0.2,3.2,0.1
		c1.9-0.1,3.8-0.2,5.7-0.3c0.8,0,1.4,0.2,1.7,1c0.3,0.9,0.6,1.8,1,2.7c1.7,3.8,3.4,7.5,4.6,11.4c0.8,2.6,1.8,5,2.7,7.6
		c0.5,1.5,0.9,3,1.5,4.4c1.5,3.8,3.1,7.6,4.7,11.4c0.2,0.4,0.3,0.9,0.3,1.4c0.1,0.6,0.3,1,0.8,1.3c0.4,0.2,0.7,0.4,1,0.4
		c0,0.2,0,0.4,0.1,0.7c0.1,0.2,0.9,1.1,1,1.3c0.9,0,1.6-0.3,2.3-0.8c2.9-2,6-3.5,9.1-5c1.1-0.5,1.2-0.7,0.8-1.9
		c-0.1-0.2-0.2-0.5-0.3-0.7c-0.9-1.9-1.8-3.8-2.7-5.7c-0.9-1.8-1.7-3.7-2.5-5.6c-0.7-1.5-1.5-2.9-2.1-4.5c-1.8-4.2-3.9-8.2-5.4-12.5
		c-0.1-0.2-0.2-0.4-0.3-0.6c-1.1-2.7-2.2-5.4-3.3-8c-0.5-1.3-0.8-2.7-1.8-3.7c-0.8-0.8-0.6-1.6-0.2-2.5c0.1-0.3,0.3-0.6,0.5-0.9
		c1.2-1.8,2.3-3.5,3.5-5.3c1.8-2.6,3.7-5.1,5.5-7.7c2.1-3.1,4.1-6.2,6.1-9.3c1.8-2.8,3.4-5.7,5.1-8.6c0.1-0.1,0.2-0.3,0.2-0.5
		c0.1-0.6,0.5-1.1,1-1.4C190.6,70.3,190.7,70,190.2,69.3z"/>
	<path style="fill:#ABC0DE;" d="M17.1,62c-1,0.8-1.7,1.3-2.4,1.9c-0.8,0.7-1.6,1.2-2.6,1.3c-0.6,0.1-1.1,0-1.5-0.7
		C9,61.7,7.4,58.8,5.9,56c-0.2-0.5-0.2-0.8,0.2-1.1c2.4-2.3,5-4.3,7.4-6.5c0.8-0.7,1.6-1.4,2.4-2c0.3-0.3,0.8-0.7,1.1-0.6
		c1.3,0.1,2.4-0.6,3.7-0.7c1.2-0.1,2.3-0.2,3.5,0c1,0.2,2.1,0.2,3.1-0.1c0.9-0.3,1.7-0.1,2.3,0.7c-2-2.6-0.3,2.9,0.2,0.3
		c-0.2,0.8-0.5,1.3-0.2,2c0.3,0.7,0.6,1.5,0.6,2.2c0,1.6-0.1,3.2-0.1,4.8c0,0.2,0,0.3,0,0.5c-0.1,3.2-0.2,6.3-0.2,9.5
		c-0.1,2.7-0.1,5.5-0.1,8.2c0,0.8-0.1,1.6-0.2,2.5c-0.1,1.4-0.1,2.8-0.1,4.2c0,1.2,0,2.4,0,3.6c0,1.3,0,2.5,0,3.8c0,2-0.1,4-0.1,6
		c-0.1,5.6-0.1,11.1-0.1,16.7c0,2.1,0.1,4.2,0.2,6.2c0,1.7,0.1,3.5,0.1,5.2c0,2.3-0.1,4.6-0.1,6.9c0,2.6,0.3,5.2,0.2,7.8
		c-0.1,3.1-0.3,6.1-0.5,9.2c-0.1,2.3,0.8,4.7,0.6,7c-0.1,1.1-0.5,1.7-1.5,2c-0.7,0.1-1.4,0.3-2,0.2c-1.9-0.3-3.9-0.3-5.8-0.2
		c-1.2,0.1-2-0.5-2.9-1c-0.3-0.1-0.6-0.4-0.2-0.9c0.4-0.4,0.2-1-0.2-1.4c-0.5-0.5-0.6-1.1-0.6-1.8c0-2.4,0-4.8,0.1-7.2
		c0-2.2,0-4.3,0-6.5c0-3.6,0.1-7.1,0-10.7c0-1.6-0.2-3.1-0.2-4.7c-0.1-3.5-0.1-6.9-0.2-10.4c0-1.2-0.1-2.4-0.1-3.6
		c0-0.8,0.2-1.6,0.2-2.3c0-1.9,0-3.8,0.1-5.7c0.1-3.7,0.3-7.4,0.4-11.1c0.1-2.4,0.1-4.9,0.1-7.3c0.1-4.1,0.1-8.3,0.2-12.4
		C16.9,65.5,17,63.9,17.1,62z"/>
	<path style="fill:#ABC0DE;" d="M118.8,105.5c-0.1-1-0.2-2-0.1-2.9c0.2-3,0-6-0.2-9c-0.1-1-0.3-2.1-0.4-3.1
		c-0.2-1.9,0.6-3.9,0.3-5.8c-0.7-4.4-2-8.6-3.6-12.8c-1.6-4.1-3.3-8.1-5.5-11.9c-2-3.3-4.7-6-7.4-8.7c-0.1-0.1-0.3-0.2-0.4-0.3
		c-1.3-0.8-2.6-1.7-3.9-2.5c-0.3-0.2-0.7-0.4-1.1-0.6c-1.4-0.5-2.8-1-4.3-1.4c-3.8-1.1-7.7-1.5-11.7-1.4c-0.8,0-1.7,0.1-2.5,0.3
		c-2,0.4-3.9,1-5.9,1.6c-4.2,1.4-7.8,3.7-11.2,6.4c0,0-0.1,0.1-0.1,0.1c-1.2,1.2-2.3,2.3-3.5,3.5c-1.1,1.1-2,2.2-3.1,3.2
		c-2.6,2.5-4.8,5.3-6.7,8.4c-3.1,5-5.3,10.4-6.6,16.2c-0.9,4-2.6,8-2.5,12.1c0.1,4.2,0.3,8.3,0.5,12.5c0,1.1,0.2,2.2,0.4,3.3
		c0.4,3.1,0.6,6.3,1.2,9.3c0.8,4.4,2.7,8.9,4.3,13.1c0.7,1.8,1.3,3.7,2.4,5.3c1.2,1.8,2.6,3.6,4,5.3c0.9,1.2,1.9,2.4,3,3.3
		c2.3,1.8,4.6,3.6,7.1,5.2c3.4,2.2,7.2,3.6,11.1,4.6c2.6,0.6,5.2,0.7,7.8,0.4c0.4-0.1,0.9-0.1,1.3-0.1c2.9-0.1,5.8-0.5,8.6-1.7
		c0.6-0.3,1.1-0.5,1.7-0.7c1.7-0.7,3.5-1.3,5.2-2.1c1.7-0.8,3.4-1.7,4.9-2.9c3-2.4,5.6-5,7.7-8.2c1.6-2.4,3.3-4.7,4.3-7.5
		c0.4-1,0.7-2.1,1.1-3.1c2.1-5,2.5-10.1,3.1-15.5c0.4-3.9,0.6-7.9,0.8-11.8C118.9,105.5,118.8,105.5,118.8,105.5z M106.4,111.4
		c-0.3,1.3-0.1,2.8-0.2,4.2c0,0.6-0.1,1.1-0.1,1.7c-0.3,2.6-1,5-1.8,7.5c-0.8,2.5-1.7,4.9-2.6,7.4c-0.4,1.1-1.1,2.1-1.7,3.1
		c-0.9,1.7-2.3,2.9-3.6,4.2c-0.5,0.5-1.1,0.9-1.7,1.3c-1.2,0.8-2.3,1.6-3.5,2.4c-0.2,0.1-0.4,0.3-0.7,0.4c-2.9,0.9-5.8,2.1-9,2
		c-0.7,0-1.3,0-2,0c-0.4,0-0.7,0-1.1,0c-2.5,0.2-4.9-0.6-7.2-1.5c-1.1-0.5-2.3-0.8-3.4-1.4c-1.2-0.7-2.5-1.4-3.5-2.3
		c-3.8-3.1-6.3-7.2-8.4-11.6c-1.1-2.3-1.7-1.1-2-3.6c-0.2-1.7-0.9-7.1-1.1-8.8c-0.2-1.5-0.5-3-0.6-4.5c-0.1-1.3-0.1-2.7-0.2-4
		c-0.3-4.3,1.2-8.6,1.9-12.8c0.5-3.3,1.1-6.6,1.8-9.9c0.4-1.7,1.1-3.4,1.9-4.9c1-2,2.2-4,3.3-5.9c0.8-1.3,1.6-2.6,2.4-3.8
		c2.1-3.1,4.8-5.4,8-7.3c3.8-2.2,7.9-3.4,12.2-3.5c0.7,0,1.3-0.1,2-0.1c2.4-0.1,4.5,0.6,6.3,2.2c1.4,1.3,2.8,2.5,3.9,3.9
		c0.6,0.8,1.5,1.4,2.1,2.2c1.2,1.5,2,3.2,2.8,4.9c1.6,3.5,3,7.1,3.9,10.8c0.8,3.1,1.3,6.2,1.7,9.4c0.2,1.7,0.2,3.4,0.3,5.2
		c0.1,1.7,0.1,3.4,0.2,5.2c0,0.5,0,1,0,1.4c0,0.7-0.1,1.4,0,2.1C106.6,108.4,106.8,109.8,106.4,111.4z"/>
</g>
<g id="Fills3">
	<path style="fill:#ABC0DE;" d="M188,69.3c-0.2-0.3-0.5-0.6-0.8-0.8c-2.2-2.1-4.9-3.4-7.3-5.1c-0.8-0.6-2.2-0.2-2.7,0.6
		c-0.9,1.3-1.9,2.6-2.8,4c-2.8,4.4-5.8,8.7-8.3,13.3c-1.8,3.3-3.8,6.5-5.8,9.7c-1.7,2.6-3.6,5.1-5.5,7.7c-0.3,0.5-0.6,0.9-0.5,1.4
		c-0.9-0.1-1.7-0.5-2.5-0.4c-2.4,0.2-4.8,0.1-7.2,0.2c-0.5,0-0.7-0.2-0.7-0.7c0-2.8-0.1-5.6-0.1-8.5c0-3.9-0.1-7.9-0.2-11.8
		c-0.1-3.8,0.1-7.6-0.2-11.4c-0.2-2.6-0.4-9.6-0.8-12.2c-0.1-0.8-0.2-1.5,0.3-2.2c0,0,0-0.2,0-0.3c-1.1-0.7-2.2-1.6-3.6-1.5
		c-2.6,0.3-5.2,0.2-7.8,0.4c-0.9,0.1-1.7,0.4-2.5,0.8c0.1,0.4,0.2,0.8,0.2,1.2c-0.2,2.6,0.1,9.4,0.2,12c0.1,1.8,0,3.5-0.1,5.3
		c-0.1,3-0.1,5.9-0.2,8.9c-0.1,2.9-0.1,5.8-0.2,8.7c-0.1,1.9,0.5,4-0.3,5.7c-2.7,6.4-1.9,6.8-0.1,5.3c0.5-0.4-0.1,1.2-0.1,1.8
		c-0.1,4.6-0.2,9.3-0.3,13.9c-0.1,3-0.3,6-0.4,9c-0.1,4.4-0.3,8.7-0.4,13.1c0,3.3,0.1,6.7,0.2,10c0,1.7,0.1,3.5,0.3,5.2
		c0.1,1.3,1.4,2.8,2.6,2.9c0.6,0,1.3,0,1.9,0c2-0.1,4.1-0.3,6.1,0c0.9,0.2,1.9,0,2.8-0.1c0.7-0.1,1.2-0.4,1.5-1.1
		c0.1-0.3,0.2-0.7,0.5-0.9c0.7-0.6,0.6-1.3,0.6-2c0-0.5-0.1-1-0.1-1.6c0-2.6,0.1-5.1,0.1-7.7c0-4.6,0-9.3,0-13.9
		c0-1.1,0-2.2-0.1-3.4c0-1.1-0.1-2.2-0.1-3.3c0-2.6,0-5.2,0-7.8c0-0.4,0.1-0.7,0.1-1.2c1.1,0.1,2.2,0.2,3.2,0.1
		c1.9-0.1,3.8-0.2,5.7-0.3c0.8,0,1.4,0.2,1.7,1c0.3,0.9,0.6,1.8,1,2.7c1.7,3.8,3.4,7.5,4.6,11.4c0.8,2.6,1.8,5,2.7,7.6
		c0.5,1.5,0.9,3,1.5,4.4c1.5,3.8,3.1,7.6,4.7,11.4c0.2,0.4,0.3,0.9,0.3,1.4c0.1,0.6,0.3,1,0.8,1.3c0.4,0.2,0.7,0.4,1,0.4
		c0,0.2,0,0.4,0.1,0.7c0.1,0.2,0.9,1.1,1,1.3c0.9,0,1.6-0.3,2.3-0.8c2.9-2,6-3.5,9.1-5c1.1-0.5,1.2-0.7,0.8-1.9
		c-0.1-0.2-0.2-0.5-0.3-0.7c-0.9-1.9-1.8-3.8-2.7-5.7c-0.9-1.8-1.7-3.7-2.5-5.6c-0.7-1.5-1.5-2.9-2.1-4.5c-1.8-4.2-3.9-8.2-5.4-12.5
		c-0.1-0.2-0.2-0.4-0.3-0.6c-1.1-2.7-2.2-5.4-3.3-8c-0.5-1.3-0.8-2.7-1.8-3.7c-0.8-0.8-0.6-1.6-0.2-2.5c0.1-0.3,0.3-0.6,0.5-0.9
		c1.2-1.8,2.3-3.5,3.5-5.3c1.8-2.6,3.7-5.1,5.5-7.7c2.1-3.1,4.1-6.2,6.1-9.3c1.8-2.8,3.4-5.7,5.1-8.6c0.1-0.1,0.2-0.3,0.2-0.5
		c0.1-0.6,0.5-1.1,1-1.4C188.4,70.3,188.4,70,188,69.3z"/>
	<path style="fill:#ABC0DE;" d="M14.8,62c-1,0.8-1.7,1.3-2.4,1.9c-0.8,0.7-1.6,1.2-2.6,1.3c-0.6,0.1-1.1,0-1.5-0.7
		c-1.5-2.9-3.1-5.7-4.7-8.6c-0.2-0.5-0.2-0.8,0.2-1.1c2.4-2.3,5-4.3,7.4-6.5c0.8-0.7,1.6-1.4,2.4-2c0.3-0.3,0.8-0.7,1.1-0.6
		c1.3,0.1,2.4-0.6,3.7-0.7c1.2-0.1,2.3-0.2,3.5,0c1,0.2,2.1,0.2,3.1-0.1c0.9-0.3,1.7-0.1,2.3,0.7c0.1,0.1,0.2,0.2,0.2,0.3
		c-0.2,0.8,0.5,1.3,0.8,2c0.3,0.7,0.6,1.5,0.6,2.2c0,1.6-0.1,3.2-0.1,4.8c0,0.2,0,0.3,0,0.5c-0.1,3.2-0.2,6.3-0.2,9.5
		c-0.1,2.7-0.1,5.5-0.1,8.2c0,0.8-0.1,1.6-0.2,2.5c-0.1,1.4-0.1,2.8-0.1,4.2c0,1.2,0,2.4,0,3.6c0,1.3,0,2.5,0,3.8c0,2-0.1,4-0.1,6
		c-0.1,5.6-0.1,11.1-0.1,16.7c0,2.1,0.1,4.2,0.2,6.2c0,1.7,0.1,3.5,0.1,5.2c0,2.3-0.1,4.6-0.1,6.9c0,2.6,0.3,5.2,0.2,7.8
		c-0.1,3.1-0.3,6.1-0.5,9.2c-0.1,2.3-0.2,4.7-0.4,7c-0.1,1.1-0.5,1.7-1.5,2c-0.7,0.1-1.4,0.3-2,0.2c-1.9-0.3-3.9-0.3-5.8-0.2
		c-1.2,0.1-2-0.5-2.9-1c-0.3-0.1-0.6-0.4-0.2-0.9c0.4-0.4,0.2-1-0.2-1.4c-0.5-0.5-0.6-1.1-0.6-1.8c0-2.4,0-4.8,0.1-7.2
		c0-2.2,0-4.3,0-6.5c0-3.6,0.1-7.1,0-10.7c0-1.6-0.2-3.1-0.2-4.7c-0.1-3.5-0.1-6.9-0.2-10.4c0-1.2-0.1-2.4-0.1-3.6
		c0-0.8,0.2-1.6,0.2-2.3c0-1.9,0-3.8,0.1-5.7c0.1-3.7,0.3-7.4,0.4-11.1c0.1-2.4,0.1-4.9,0.1-7.3c0.1-4.1,0.1-8.3,0.2-12.4
		C14.7,65.5,14.8,63.9,14.8,62z"/>
	<path style="fill:#ABC0DE;" d="M117.6,105.3c0-1-0.2-1.9-0.1-2.9c0.2-3,0-5.9-0.2-8.9c-0.1-1-0.3-2-0.4-3.1
		c-0.2-1.9-0.4-3.8-0.7-5.7c-0.7-4.3-2-8.5-3.5-12.5c-1.5-4-3.2-8-5.4-11.7c-1.9-3.2-4.6-5.9-7.2-8.5c-0.1-0.1-0.3-0.2-0.4-0.3
		c-1.3-0.8-2.6-1.6-3.8-2.5c-0.3-0.2-0.7-0.4-1-0.5c-1.4-0.5-2.8-0.9-4.2-1.4c-3.7-1.1-7.6-1.4-11.5-1.4c-0.8,0-1.7,0.1-2.5,0.3
		c-1.9,0.4-3.9,0.9-5.8,1.6c-4.1,1.3-7.6,3.6-11,6.2c0,0-0.1,0.1-0.1,0.1c-1.1,1.1-2.3,2.3-3.4,3.4c-1,1.1-2,2.2-3.1,3.2
		c-2.6,2.4-4.7,5.2-6.5,8.2c-3,4.9-5.2,10.2-6.4,15.9c-0.9,3.9-1.5,7.8-1.4,11.9c0.1,4.1,0.3,8.1,0.4,12.2c0,1.1,0.2,2.2,0.4,3.2
		c0.4,3.1,0.6,6.1,1.1,9.2c0.8,4.4,1.7,8.7,3.2,12.9c0.7,1.8,1.3,3.6,2.4,5.2c1.2,1.8,2.6,3.5,3.9,5.2c0.9,1.2,1.8,2.4,3,3.3
		c2.2,1.8,4.5,3.5,6.9,5.1c3.3,2.2,7,3.5,10.9,4.5c2.5,0.6,5.1,0.7,7.6,0.4c0.4-0.1,0.9-0.1,1.3-0.1c2.9-0.1,5.7-0.5,8.4-1.7
		c0.6-0.2,1.1-0.5,1.7-0.7c1.7-0.7,3.4-1.3,5.1-2c1.7-0.8,3.3-1.7,4.8-2.8c2.9-2.3,5.5-4.9,7.6-8c1.6-2.3,3.2-4.7,4.2-7.3
		c0.4-1,0.6-2.1,1.1-3.1c2-4.9,3.5-9.9,4-15.2c0.4-3.8,0.6-7.7,0.8-11.6C117.7,105.3,117.6,105.3,117.6,105.3z M104.5,111
		c-0.3,1.3-0.1,2.8-0.2,4.2c0,0.6-0.1,1.1-0.1,1.7c-0.3,2.5-1,4.9-1.7,7.3c-0.8,2.5-1.6,4.8-2.5,7.2c-0.4,1.1-1.1,2.1-1.7,3.1
		c-0.9,1.6-2.3,2.8-3.5,4.2c-0.5,0.5-1.1,0.8-1.7,1.2c-1.1,0.8-2.3,1.5-3.5,2.3c-0.2,0.1-0.4,0.3-0.7,0.4c-2.9,0.9-5.7,2.1-8.9,1.9
		c-0.6,0-1.3,0-2,0c-0.3,0-0.7,0-1,0c-2.5,0.2-4.8-0.6-7-1.5c-1.1-0.5-2.3-0.8-3.4-1.4c-1.2-0.7-2.4-1.4-3.5-2.3
		c-3.7-3.1-6.2-7.1-8.3-11.4c-1.6-3.3-1.4-4.6-1.7-7.2c-0.2-1.7-0.3-3.4-0.6-5c-0.2-1.5-0.5-2.9-0.6-4.4c-0.1-1.3-0.1-2.6-0.2-3.9
		c-0.3-4.2,0.4-8.4,1.1-12.5c0.5-3.3,1-6.5,1.8-9.7c0.4-1.7,1.1-3.3,1.9-4.8c1-2,2.1-3.9,3.2-5.8c0.7-1.3,1.5-2.5,2.4-3.7
		c2-3,4.7-5.3,7.8-7.1c3.7-2.2,7.7-3.4,12-3.5c0.7,0,1.3,0,2-0.1c2.4-0.1,4.4,0.5,6.2,2.2c1.3,1.2,2.7,2.4,3.9,3.9
		c0.6,0.8,1.4,1.3,2,2.2c1.1,1.5,2,3.1,2.8,4.8c1.6,3.4,2.9,6.9,3.8,10.6c0.7,3,1.3,6.1,1.6,9.2c0.2,1.7,0.2,3.4,0.3,5.1
		c0.1,1.7,0.1,3.4,0.2,5.1c0,0.5,0,0.9,0,1.4c0,0.7-0.1,1.4,0,2.1C104.7,108.1,104.8,109.6,104.5,111z"/>
</g>
<g id="Lines">
	<path style="fill:#162B54;" d="M154.6,102c-0.2-0.6,0.2-1,0.5-1.4c2-2.6,4-5.2,5.8-7.9c2.1-3.3,4.3-6.6,6.1-10
		c2.6-4.8,5.7-9.2,8.7-13.7c0.9-1.4,1.9-2.8,2.9-4.2c0.6-0.8,2-1.2,2.9-0.6c2.5,1.8,5.3,3.1,7.6,5.3c0.3,0.3,0.6,0.5,0.8,0.9
		c0.5,0.7,0.4,1-0.3,1.6c-0.5,0.4-0.9,0.8-1,1.5c0,0.2-0.2,0.3-0.2,0.5c-1.8,2.9-3.5,5.9-5.4,8.8c-2.1,3.2-4.2,6.4-6.4,9.6
		c-1.9,2.7-3.8,5.3-5.7,7.9c-1.3,1.8-2.5,3.6-3.7,5.4c-0.2,0.3-0.4,0.6-0.5,0.9c-0.4,0.9-0.6,1.7,0.2,2.6c1,1,1.4,2.5,1.9,3.8
		c1.2,2.8,2.3,5.5,3.5,8.3c0.1,0.2,0.2,0.4,0.3,0.6c1.6,4.4,3.8,8.6,5.7,12.9c0.7,1.6,1.5,3.1,2.2,4.6c0.9,1.9,1.7,3.8,2.6,5.7
		c0.9,2,1.9,3.9,2.9,5.9c0.1,0.2,0.2,0.5,0.3,0.7c0.4,1.2,0.3,1.4-0.9,1.9c-3.3,1.6-6.5,3.1-9.5,5.1c-0.7,0.5-1.5,0.8-2.4,0.8
		c-0.1-0.2-1-1.1-1.1-1.3c-0.6-1.1,0.5-1.5,1.6-2.1c2.5-1.3,5-2.6,7.5-4c0.2-0.1,0.3-0.2,0.5-0.2c0.5-0.2,0.5-0.5,0.3-1
		c-0.6-1.3-1.2-2.5-1.8-3.8c-1.2-2.5-2.3-5-3.5-7.6c-0.4-0.9-0.8-1.7-1.2-2.5c-1.5-3.2-2.9-6.3-4.3-9.5c-1.3-2.9-2.6-5.9-3.8-8.9
		c-0.8-2-1.5-4-2.3-6c-0.5-1.2-0.9-2.4-1.5-3.6c-0.3-0.6-0.3-1.1-0.2-1.6c0.1-0.3,0.3-0.5,0.3-0.7c0.3-2.4,1.6-4.3,2.9-6.3
		c1.6-2.3,3.3-4.6,5-6.9c1.8-2.4,3.6-4.8,5.3-7.3c1.8-2.6,3.6-5.2,5.3-7.9c1.4-2.2,2.7-4.5,4.1-6.8c0.3-0.5,0.2-0.8-0.2-1.1
		c-0.4-0.3-0.7-0.5-1.1-0.8c-1.5-1-3-2-4.6-3c-0.4,0.6-0.7,1.2-1,1.8c-0.8,1.4-1.6,2.9-2.5,4.3c-0.8,1.3-1.6,2.5-2.4,3.7
		c-1.9,3.4-4.2,6.5-6.2,9.8c-2.1,3.5-4.3,7-6.6,10.5c-0.8,1.3-1.9,2.5-2.8,3.8c-0.4,0.6-0.9,1.1-1.3,1.7c-0.5,0.6-1,1.3-1.9,1.1
		c-0.1,0-0.3,0-0.4,0.1c-1.3,0.9-2.8,0.9-4.3,0.9c-2,0-4,0-6,0c-0.8,0-1.5-0.1-2.2-0.6c-0.3-0.2-0.7-0.2-1-0.3
		c-0.8-0.2-1.3-0.7-1.4-1.5c-0.1-1.5-0.3-3-0.3-4.6c-0.1-2.6,0-5.3-0.1-7.9c0-1.1-0.1-2.2-0.1-3.4c0-4.8,0.1-9.7,0.1-14.5
		c0-2.5,0-5,0-7.5c0-1.4,0-7.3-0.1-8.6c0-0.9-0.1-1-1-1c-0.8,0-1.5,0.2-2.3,0.2c-1.7,0-3.5,0-5.2,0c-0.6,0-1.3-0.2-1.9-0.3
		c0,0.1-0.1,0.2,0,0.2c1.4,1.3,1.3,7.6,1.6,9.2c0.5,3.4,0.2,6.8,0,10.2c-0.2,3.2,0.1,6.4,0.2,9.7c0.1,2.6-0.1,5.2-0.2,7.8
		c-0.1,1.8-0.4,3.5-0.3,5.3c0.1,1.7-0.1,3.5-0.1,5.2c0,2.6,0,5.1-0.1,7.7c-0.2,4.6-0.4,9.1-0.6,13.7c0,0.3-0.1,0.6-0.1,0.9
		c-0.1,7.1-0.2,14.2-0.3,21.4c0,3.1,0.2,6.2,0.3,9.3c0,0.1,0,0.2,0,0.3c0.1,1.3,0.1,1.2,1.3,1.2c1.6-0.1,3.2-0.1,4.8-0.1
		c0.5,0,1,0.1,1.5,0.1c0.6,0,1.3,0,1.9,0c0.6-0.1,0.8-0.4,0.8-1c-0.3-4-0.4-8-0.4-12.1c0-1.5,0.2-2.9,0.2-4.4c0-1.7,0-3.5,0-5.2
		c0-1.6,0-3.2,0-4.8c0-3.5,0-7,0.1-10.5c0-1,0.1-2.1,0.2-3.1c0-0.5,0-1.1,0-1.6c0-0.3,0.1-0.6,0.2-0.9c0.2-0.4,0.5-0.7,1-0.3
		c0.4,0.3,0.9,0.3,1.2,0c0.4-0.3,0.9-0.3,1.4-0.3c1.4,0.1,2.9,0.1,4.3,0c1,0,2-0.2,3.1-0.2c0.5,0,1.1,0.4,1.6,0.4
		c0.5,0,1-0.3,1.6-0.2c0.8,0.1,1.4,0.5,1.8,1.2c0.8,1.6,1.7,3.2,2.4,4.8c1.6,3.4,3.1,6.7,4.6,10.2c0.9,2.1,1.5,4.2,2.3,6.3
		c0.9,2.4,1.7,4.8,2.6,7.2c1.4,3.6,2.7,7.2,4.1,10.8c0.3,0.7,0.6,1.5,0.9,2.2c0.2,0.6,0.1,1-0.5,1.4c-0.3,0.1-0.5,0.4-0.6,0.7
		c-0.4,0.7-0.6,0.7-1.3,0.3c-0.5-0.3-0.8-0.7-0.8-1.3c-0.1-0.5-0.1-1-0.3-1.4c-1.6-3.9-3.3-7.8-4.9-11.8c-0.6-1.5-1-3.1-1.6-4.6
		c-0.9-2.6-2-5.2-2.9-7.8c-1.3-4.1-3.1-7.9-4.9-11.8c-0.4-0.9-0.8-1.8-1.1-2.7c-0.3-0.9-0.9-1.1-1.8-1.1c-2,0.1-4,0.3-6,0.3
		c-1.1,0-2.1-0.1-3.3-0.1c0,0.4-0.1,0.8-0.1,1.2c0,2.7,0,5.4,0,8c0,1.1,0.1,2.2,0.1,3.4c0,1.2,0.1,2.3,0.1,3.5c0,4.8,0,9.6,0,14.3
		c0,2.6,0,5.3-0.1,7.9c0,0.5,0.1,1.1,0.1,1.6c0,0.8,0.1,1.5-0.6,2.1c-0.3,0.2-0.4,0.6-0.5,0.9c-0.3,0.7-0.8,1-1.5,1.1
		c-1,0.1-1.9,0.3-2.9,0.1c-2.1-0.4-4.3-0.1-6.4-0.1c-0.7,0-1.3,0-2,0c-1.2-0.1-2.6-1.6-2.7-3c-0.1-1.8-0.2-3.6-0.3-5.4
		c-0.1-3.4-0.2-6.9-0.2-10.3c0-4.5,0.2-9,0.4-13.5c0.1-3.1,0.3-6.2,0.4-9.3c0.1-4.8,0.2-9.6,0.3-14.4c0-0.6,0.1-1.2,0.1-1.9
		c0-1.8,0.1-3.7,0.1-5.5c0.1-2,0.2-3.9,0.3-5.9c0.1-3,0.1-6,0.2-9c0.1-3,0.1-6.1,0.2-9.1c0-1.8,0.2-3.6,0.1-5.5
		c-0.1-2.6-0.5-9.7-0.2-12.4c0-0.4-0.1-0.8-0.2-1.2c0.8-0.4,1.6-0.7,2.6-0.8c2.7-0.3,5.4-0.2,8.2-0.4c1.6-0.2,2.7,0.8,3.8,1.5
		c0,0.2,0.1,0.3,0,0.3c-0.5,0.7-0.5,1.4-0.3,2.3c0.5,2.7,0.6,9.9,0.8,12.6c0.4,3.9,0.1,7.9,0.2,11.8c0.1,4.1,0.1,8.1,0.2,12.2
		c0,2.9,0.1,5.8,0.1,8.7c0,0.5,0.2,0.7,0.7,0.7c2.5-0.1,5,0,7.5-0.2C152.8,101.5,153.6,101.8,154.6,102z"/>
	<path style="fill:#162B54;" d="M118.8,105.2c-0.3,4-0.4,8-0.8,11.9c-0.5,5.4-2,10.6-4.1,15.7c-0.4,1-0.7,2.1-1.1,3.2
		c-1,2.7-2.7,5.1-4.4,7.5c-2.2,3.2-4.8,5.9-7.8,8.3c-1.5,1.2-3.2,2.1-5,2.9c-1.7,0.8-3.5,1.4-5.2,2.1c-0.6,0.2-1.2,0.5-1.7,0.7
		c-2.8,1.2-5.7,1.6-8.6,1.7c-0.4,0-0.9,0.1-1.3,0.1c-2.6,0.4-5.3,0.3-7.9-0.4c-4-1-7.8-2.4-11.3-4.6c-2.5-1.6-4.9-3.4-7.2-5.2
		c-1.2-0.9-2.1-2.2-3.1-3.4c-1.4-1.7-2.8-3.5-4-5.4c-1.1-1.6-1.8-3.5-2.5-5.4c-1.6-4.3-2.5-8.8-3.3-13.3c-0.5-3.1-0.8-6.3-1.2-9.5
		c-0.1-1.1-0.3-2.2-0.4-3.3c-0.2-4.2-0.3-8.4-0.5-12.6c-0.1-4.1,0.6-8.2,1.5-12.2c1.3-5.8,3.5-11.3,6.6-16.3
		c1.9-3.1,4.1-5.9,6.7-8.5c1.1-1.1,2.1-2.2,3.2-3.3c1.2-1.2,2.3-2.3,3.5-3.5c0,0,0.1-0.1,0.1-0.1c3.5-2.7,7.1-5.1,11.4-6.4
		c2-0.6,3.9-1.2,5.9-1.6c0.8-0.2,1.7-0.3,2.5-0.3c4-0.1,8,0.3,11.8,1.4c1.5,0.4,2.9,0.9,4.3,1.4c0.4,0.1,0.7,0.3,1.1,0.6
		c1.3,0.8,2.6,1.7,4,2.5c0.2,0.1,0.3,0.2,0.4,0.3c2.7,2.7,5.5,5.4,7.5,8.8c2.3,3.8,4,7.9,5.6,12.1c1.6,4.2,2.9,8.5,3.6,12.9
		c0.3,1.9,0.4,3.9,0.7,5.9c0.1,1.1,0.4,2.1,0.4,3.2c0.2,3,0.4,6.1,0.2,9.1c-0.1,1,0.1,2,0.1,3C118.7,105.2,118.7,105.2,118.8,105.2z
		 M114.9,106C114.8,106,114.8,106,114.9,106c-0.1-1.2,0-2.4-0.1-3.6c-0.1-2.7-0.2-5.4-0.3-8.2c-0.1-3.3-0.4-6.6-1.2-9.8
		c-0.9-3.9-1.5-7.9-3-11.7c-0.7-1.7-1.3-3.5-2.1-5.2c-1.1-2.5-2.4-5-3.8-7.4c-1.3-2.5-3.2-4.5-5.1-6.5c-1.3-1.3-3-2.1-4.5-3.1
		c-1.1-0.7-2.2-1.3-3.5-1.8c-3.7-1.3-7.6-1.8-11.5-2c-1.3-0.1-2.5,0.1-3.7,0.5c-0.3,0.1-0.5,0.2-0.8,0.2c-2.7,0.2-5,1.7-7.3,2.8
		c-1.4,0.7-2.7,1.6-3.9,2.5c-1.5,1-3,2-4.3,3.2c-3.9,3.5-7.4,7.5-10.5,11.9c-1.3,1.9-2.4,4-3.4,6.1c-0.9,1.9-1.6,3.9-2.3,5.9
		c-0.5,1.3-0.8,2.6-1.1,4c-0.3,1.2-0.3,2.5-0.7,3.7c-0.8,2.4-1.1,4.8-1.2,7.3c-0.2,3.2-0.1,6.4,0.1,9.7c0.1,3.1,0.4,6.2,0.7,9.2
		c0.3,3,0.6,6,1.1,8.9c0.3,2,0.8,3.9,1.3,5.9c0.6,2.5,1,5.2,2.3,7.5c0.9,1.7,1.9,3.2,3.2,4.7c0.9,1,1.8,1.9,2.6,2.9
		c1.7,2.1,3.6,4,5.7,5.7c3.5,2.6,7.2,4.7,11.4,6.3c3,1.1,6.1,1.4,9.2,1.6c0.6,0,1.3-0.1,1.9-0.2c3.1-0.5,6-1.4,8.9-2.6
		c3.6-1.5,7.1-3.2,10.3-5.4c0.3-0.2,0.6-0.4,0.9-0.6c1.1-1,2.2-2,3.2-3.1c1-1.1,1.9-2.4,2.8-3.6c0.5-0.6,0.9-1.3,1.3-2
		c0.2-0.3,0.5-0.6,0.7-1c1.1-2,2.3-4,2.9-6.3c0.6-2.6,1.6-5.1,2.2-7.7c0.6-2.4,1-4.9,1.3-7.4c0.3-2.4,0.4-4.8,0.5-7.2
		C114.9,108.7,114.9,107.3,114.9,106z"/>
	<path style="fill:#162B54;" d="M15.5,63.5c-1,0.8-1.8,1.4-2.5,2c-0.8,0.7-1.6,1.2-2.7,1.4c-0.7,0.1-1.1,0-1.5-0.8
		c-1.6-3-3.2-5.9-4.8-8.8c-0.3-0.5-0.2-0.8,0.2-1.2c2.4-2.4,5.1-4.4,7.6-6.8c0.8-0.7,1.6-1.4,2.4-2.1c0.3-0.3,0.8-0.7,1.1-0.6
		c1.4,0.2,2.5-0.6,3.8-0.8c1.2-0.1,2.4-0.2,3.6,0c1.1,0.2,2.1,0.2,3.2-0.1c0.9-0.3,1.8-0.1,2.4,0.7c0.1,0.1,0.2,0.2,0.2,0.3
		c-0.2,0.9,0.6,1.4,0.8,2c0.3,0.7,0.6,1.5,0.6,2.3c0,1.6-0.1,3.3-0.2,5c0,0.2,0,0.4,0,0.5c-0.1,3.3-0.2,6.5-0.3,9.8
		c-0.1,2.8-0.1,5.6-0.1,8.5c0,0.8-0.1,1.7-0.2,2.5c-0.1,1.4-0.1,2.9-0.1,4.3c0,1.3,0,2.5,0,3.8c0,1.3,0,2.6,0,3.9
		c0,2.1-0.1,4.1-0.1,6.2c-0.1,5.7-0.1,11.5-0.1,17.2c0,2.1,0.1,4.3,0.2,6.4c0,1.8,0.1,3.6,0.1,5.3c0,2.4-0.1,4.7-0.1,7.1
		c0,2.7,0.3,5.4,0.2,8c-0.1,3.2-0.3,6.3-0.5,9.5c-0.1,2.4-0.2,4.8-0.4,7.2c-0.1,1.1-0.5,1.8-1.5,2c-0.7,0.1-1.4,0.3-2.1,0.2
		c-2-0.3-4-0.3-6-0.2c-1.2,0.1-2-0.5-3-1c-0.3-0.1-0.6-0.5-0.2-1c0.4-0.4,0.2-1.1-0.2-1.5c-0.5-0.5-0.6-1.2-0.6-1.9
		c0-2.5,0.1-4.9,0.1-7.4c0-2.2,0-4.5,0-6.7c0-3.7,0.1-7.3,0-11c0-1.6-0.2-3.2-0.2-4.8c-0.1-3.6-0.1-7.2-0.2-10.7
		c0-1.3-0.1-2.5-0.1-3.8c0-0.8,0.2-1.6,0.2-2.4c0-2,0-3.9,0.1-5.9c0.1-3.8,0.3-7.6,0.4-11.4c0.1-2.5,0.1-5,0.1-7.5
		c0.1-4.3,0.1-8.5,0.2-12.8C15.4,67,15.5,65.4,15.5,63.5z M25.2,155.7c0-0.5,0.1-0.8,0.1-1.1c0.1-4.2,0.2-8.3,0.3-12.5
		c0.1-2.4,0.2-4.7,0.2-7.1c0-2.8-0.1-5.6-0.1-8.3c0-3.7-0.1-7.3-0.1-11c0-4.4-0.1-8.8,0-13.2c0-2.3,0.2-4.7,0.2-7
		c0-1.4-0.2-2.8-0.1-4.2c0.1-3.4,0.3-6.8,0.4-10.2c0.1-3,0.2-5.9,0.3-8.9c0-1.9,0-3.8,0.1-5.6c0.1-3.5,0.3-7,0.5-10.5
		c0.1-2.3,0.2-4.6,0.3-6.8c0-0.3-0.1-0.6-0.1-0.8c-0.9,0-1.7,0-2.5,0c-1.3,0-2.6-0.1-3.9-0.1c-1,0-2.1,0.1-3.1,0
		c-0.7-0.1-1.1,0-1.4,0.6c-0.2,0.3-0.5,0.5-0.8,0.7c-2,1.7-4,3.3-6,5c-0.9,0.8-1.9,1.5-2.9,2.2c1.4,2.4,2.9,4.7,4.3,7.1
		c0.3-0.2,0.6-0.4,0.8-0.6c1-0.7,1.9-1.5,2.9-2.2c1-0.7,1.6-0.6,2.3,0.3c0.3,0.4,0.5,1,1.2,1c0.1,0,0.2,0.3,0.3,0.4
		c0.1,0.9,0.2,1.8,0.2,2.7c0,3,0.1,6.1,0.1,9.1c0,1.3,0.1,2.7,0.1,4c0,2.5-0.1,4.9-0.1,7.4c-0.1,3-0.2,5.9-0.3,8.9
		c-0.1,3.6-0.1,7.2-0.2,10.7c0,2.5-0.1,5-0.1,7.5c0,3,0.2,6.1,0.2,9.1c0,3.3,0.4,6.5,0.2,9.8c-0.2,2.6,0,5.3,0,7.9
		c0,3-0.1,6.1-0.1,9.1c0,1.7-0.1,3.5,0,5.2c0,1.1,0.1,1.1,1.2,1.1c1.1,0,2.2,0,3.4,0.1C23.6,155.6,24.4,155.6,25.2,155.7z"/>
	<path style="fill:#162B54;" d="M108.3,100.7c0,3.4,0,6.8,0,10.2c0,1.4-0.3,2.8-0.4,4.3c-0.1,3.5-0.9,6.9-2,10.3c-0.7,2-1.4,4-2.4,6
		c-0.7,1.4-1.4,2.9-2.1,4.4c-1,2.1-2.5,3.7-4.2,5.2c-0.7,0.6-1.2,1.3-2,1.8c-1.2,0.8-2.5,1.6-3.9,2.2c-2.7,1.2-5.5,2.2-8.4,2.8
		c-1.6,0.3-3.3,0.3-4.9,0.2c-4.2-0.2-8.3-1.2-12.1-3.1c-2-1-4.1-1.9-5.8-3.3c-2.4-1.9-4.5-4-5.9-6.9c-0.9-1.9-1.9-3.7-2.7-5.7
		c-1.2-3.2-2.2-6.5-2.4-10c-0.1-2.2-0.5-4.4-0.7-6.7c-0.1-1.3-0.2-2.7-0.2-4c-0.1-2.5-0.2-5.1-0.1-7.6c0.2-2.7,0.6-5.4,1-8.1
		c0.6-3.3,1.3-6.6,1.9-9.9c0.5-2.3,1.5-4.3,2.6-6.3c2-3.7,4.3-7.4,7.2-10.5c1.4-1.5,2.9-2.9,4.6-4.1c1.9-1.4,3.9-2.5,6-3.6
		c2.4-1.2,4.9-2,7.6-2.2c3.3-0.2,6.5,0,9.7,1c1.7,0.5,3.2,1.3,4.3,2.6c1.6,1.8,3.3,3.5,4.9,5.4c1.4,1.7,2.4,3.7,3.4,5.8
		c0.5,1,1,2,1.4,3c1.8,3.8,3.2,7.7,4,11.8c0.6,2.8,1,5.7,1.3,8.6C108.3,96.4,108.3,98.6,108.3,100.7
		C108.3,100.7,108.3,100.7,108.3,100.7z M77.9,145.7c0.7,0,1.3,0,2,0c3.2,0.2,6.2-1,9.1-2c0.2-0.1,0.5-0.3,0.7-0.4
		c1.2-0.8,2.4-1.6,3.6-2.4c0.6-0.4,1.2-0.8,1.7-1.3c1.3-1.4,2.7-2.6,3.6-4.3c0.6-1,1.3-2,1.7-3.2c0.9-2.5,1.9-4.9,2.6-7.5
		c0.8-2.5,1.5-5,1.8-7.6c0.1-0.6,0.1-1.2,0.1-1.7c0.1-1.4-0.1-2.9,0.2-4.3c0.4-1.5,0.2-3,0.2-4.5c0-0.7,0-1.4,0-2.1c0-0.5,0-1,0-1.5
		c-0.1-1.7-0.1-3.5-0.2-5.2c-0.1-1.7-0.1-3.5-0.3-5.2c-0.3-3.2-0.9-6.4-1.7-9.5c-0.9-3.8-2.3-7.4-4-10.9c-0.8-1.7-1.7-3.4-2.9-5
		c-0.6-0.8-1.5-1.4-2.1-2.2c-1.2-1.5-2.6-2.7-4-4c-1.8-1.7-4-2.4-6.4-2.3c-0.7,0-1.3,0.1-2,0.1c-4.4,0.1-8.6,1.3-12.4,3.6
		c-3.2,1.9-6,4.3-8.1,7.4c-0.9,1.3-1.7,2.5-2.4,3.8c-1.2,2-2.3,3.9-3.3,6c-0.8,1.6-1.5,3.3-1.9,5c-0.8,3.3-1.3,6.7-1.8,10
		c-0.7,4.3-1.4,8.6-1.1,12.9c0.1,1.3,0,2.7,0.2,4c0.2,1.5,0.5,3,0.7,4.5c0.2,1.7,0.4,3.5,0.6,5.2c0.3,2.5,0.7,5,1.8,7.4
		c2.1,4.5,4.7,8.6,8.5,11.7c1.1,0.9,2.3,1.7,3.6,2.3c1.1,0.6,2.3,1,3.5,1.4c2.3,1,4.7,1.7,7.3,1.6C77.2,145.7,77.5,145.7,77.9,145.7
		z"/>
</g>
</svg>
