<svg viewBox="0 0 200 200" xmlns="http://www.w3.org/2000/svg" role="img">
<title>Half Marathon</title>
<g id="Fills1">
	<path style="fill:#ABC0DE;" d="M113.2,68.7c-0.3-0.1-0.5-0.2-0.6-0.2c-2,0-4-1-6.1-1.1c-1.2,0-2.4-0.1-3.6-0.2
		c-1.1-0.1-2.2-0.1-3.3-0.1C96.4,67,93.2,67,90,67.2c-2,0.1-4,0-6.1,0c-1.7,0-3.3,0.1-5,0.1c-1.6,0-3.2,0-4.9,0.1
		c-1,0.1-1.5-0.7-2.3-1.1c-0.6-0.3-0.6,0.1-0.7-0.4C71.1,65.3,71,64.6,71,64c-0.1-1.8-0.1-3.6-0.1-5.5c0-1.3,0-2.5-0.1-3.8
		c0-0.2,0-0.3,0-0.5c0.1-1.3,0.7-2.4,1.9-1.8c0.1,0,0.1,0.1,0.3,0.1c0.4-0.7,1-0.1,1.9,0c1.9,0,3.7-0.1,5.6-0.2
		c0.7,0,1.5-0.1,2.2-0.1c3.4-0.1,6.8-0.2,10.2-0.3c3.4-0.1,6.9,0,10.3-0.1c2.5,0,5.1-0.2,7.6-0.3c2.7-0.1,5.5-0.1,8.2-0.2
		c2.6,0,5.3,0,7.9-0.1c1.5,0,3-0.1,4.5-0.2c1,0,1.9,0,2.9,0.1c1.3,0.1,2.1,0.8,2.1,2.1c0.1,2.3,0.1,4.5,0.1,6.8c0,1.6,0,3.2-0.1,4.9
		c0,0.9-0.1,1.9-0.1,2.8c0,0.6-0.3,1-0.7,1.4c-1.5,1.5-3.2,2.7-5,3.8c-0.6,0.4-1.2,0.7-1.7,1.1c-1.6,1.5-3.5,2.6-5.3,3.8
		c-3.4,2.2-6.7,4.6-10.1,6.8c-2.1,1.4-4.2,2.7-6.3,4.1c-0.4,0.2-0.7,0.5-1.2,0.9c0.5,0.1,0.8,0.2,1.1,0.1c2-0.3,4,0,6,0.1
		c0.9,0.1,1.8,0.4,2.7,0.6c4.3,1.1,8.1,3.3,11.8,5.8c0.2,0.2,0.5,0.3,0.7,0.5c1.5,0.9,2.5,2.2,3.4,3.7c0.3,0.4,0.6,0.9,0.9,1.3
		c1.4,1.6,2.5,3.4,3.3,5.3c0.7,1.7,1.4,3.4,2.1,5.2c0.4,1,0.5,2,0.7,3.1c0.8,3.5,0.9,7.1,0.7,10.6c-0.1,1.3-0.2,2.6-0.3,3.9
		c-0.1,0.6-0.3,1.3-0.5,1.9c-0.4,1.3-0.9,2.6-1.4,3.9c-0.4,1-0.8,1.9-1.4,2.8c-1.1,1.7-2.2,3.4-3.4,5c-1.8,2.4-4,4.5-6.3,6.4
		c-1.5,1.2-3.2,2.3-4.8,3.3c-2,1.3-4,2.5-6.2,3.4c-3,1.2-5,1.4-8.3,1.6c-2.4,0.1-4.7,0.4-7.1,0.3c-1.7,0-3.5-0.1-5.1-0.7
		c-1.2-0.4-2.5-0.4-3.7-0.8c-2.1-0.6-4.3-1.2-6.4-2c-1.5-0.6-3.9-0.6-5.3-1.4c-1-0.6-2-1.4-3-2c-0.3-0.2-0.7-0.3-0.9-0.6
		c-1.6-1.9-3.7-3.1-5.2-5.1c-0.8-1-1.8-1.8-2.5-2.9c-0.8-1.1-1.7-2.2-2.4-3.3c-0.4-0.5-0.6-1.1-0.8-1.7c-0.6-1.3-1.6-2.4-1.7-4
		c0-0.2-0.2-0.3-0.3-0.5c-0.8-1.2-0.5-2.1,0.7-2.8c0.3-0.2,0.7-0.3,0.9-0.6c1-1,2.3-1.6,3.5-2.2c0.3-0.2,0.6-0.4,0.9-0.6
		c0.6-0.3,1.1-0.7,1.7-0.9c0.3-0.1,0.7-0.2,1.1-0.1c1.3,0.5,2.5,1,3,2.4c1.2,2.9,2.9,5.4,4.8,7.9c0.6,0.7,1.2,1.4,1.9,2
		c0.8,0.8,1.6,1.5,2.4,2.2c1.5,1.4,3.3,2.3,5.2,3.1c0.7,0.3,1.3,0.6,2,0.9c0.4,0.2,0.8,0.3,1.1,0.4c0.2,0,0.3,0,0.5,0.1
		c2.5,0.9,5,0.6,7.6,0.8c1.5,0.1,2.9-0.1,4.4-0.1c2.1,0,4-0.5,5.9-1.4c3.1-1.5,6-3.3,8.3-5.8c2.1-2.2,4-4.5,5.5-7.1
		c1-1.7,1.5-3.3,1.6-5.2c0-1,0.2-1.9,0.3-2.9c0.4-3.9-0.2-7.7-1.8-11.3c-0.6-1.4-1.6-2.7-2.5-4c-0.2-0.3-0.6-0.6-0.9-0.8
		c-1.2-0.8-2.5-1.6-3.8-2.4c-3.1-2.1-6.5-4.6-10.2-5.2c-1.6-0.3-3.3-0.6-4.9-0.8c-2.6-0.4-5.2-0.4-7.7,0.1c-1.5,0.3-2.9,1-4.4,1.3
		c-1.3,0.3-2.5,1.1-3.9,1.3c-1.2,0.1-2.2,0.9-3-0.1c-1.1-1.2-2.1-2.3-3-3.6c-0.6-0.8-1.2-1.6-1.8-2.4c-0.5-0.8-0.6-1.7,0.4-2.1
		c0.7-0.3,1.2-1,1.8-1.4c1.5-1.1,2.9-2.3,4.5-3.2c3.3-2,6.5-4.3,9.6-6.6c1.5-1.1,3.1-2.2,4.6-3.3c0.9-0.6,1.7-1.3,2.6-2
		c2.4-1.7,4.9-3.4,7.4-5.1C109.9,71.1,111.5,69.9,113.2,68.7z"/>
	<path style="fill:#ABC0DE;" d="M43.7,68.4c-0.5-0.1-0.7,0.3-1,0.5c-0.6,0.5-1.2,1.1-1.9,1.6c-0.3,0.2-0.5,0.4-0.8,0.5
		c-1.4,0.6-1.9,0.4-2.6-0.9c-1-1.9-2-3.9-3-5.9c-0.4-0.8-0.8-1.5-1.2-2.3c-0.2-0.4-0.1-0.7,0.2-1c2.2-2.3,4.7-4.3,7-6.5
		c0.7-0.7,1.5-1.4,2.3-2.1c0.3-0.3,0.7-0.6,1-0.6c1.4,0.2,2.6-0.8,4-0.7c1.4,0.1,2.8,0.2,4.2,0.3c1,0.1,2,0.1,2.9,0.2
		c0.9,0.1,0.9,0.1,1,1c0,0.2,0.1,0.5,0.2,0.6c0.8,0.9,1,2,1,3.2c0,3.2-0.1,6.4-0.2,9.5c-0.1,3.9-0.2,7.8-0.3,11.7
		c0,1.5-0.2,3.1-0.2,4.6c0,1.5,0,2.9,0,4.4c0,0.8-0.1,1.6-0.1,2.4c0,1.2,0,2.4-0.1,3.7c0,1.4-0.1,2.9-0.1,4.3
		c0,5.4,0.1,10.9-0.1,16.3c-0.1,3.8,0.2,7.6,0.2,11.4c0,2.7-0.1,5.5-0.1,8.2c0,1.3,0.2,2.5,0.2,3.8c-0.1,4.2-0.2,8.4-0.3,12.6
		c-0.1,2.6-0.3,5.2-0.5,7.8c0,0.6,0.1,1.4-0.5,1.7c-0.7,0.5-1.6,0.9-2.5,0.8c-0.5-0.1-1-0.2-1.6-0.2c-1.5-0.1-2.9-0.2-4.4-0.1
		c-1.1,0.1-1.8-0.6-2.7-1c-0.2-0.1-0.4-0.4-0.2-0.7c0.5-0.5,0.2-1.1-0.1-1.5c-0.4-0.5-0.5-1.1-0.5-1.7c0-2.4,0-4.8,0.1-7.2
		c0-1.5,0-3,0-4.5c0-1.8,0.1-3.6,0-5.4c-0.2-4.1,0.1-8.2-0.2-12.2c-0.2-3.3-0.1-6.5-0.2-9.8c0-0.6-0.1-1.1-0.1-1.7
		c0-0.6-0.1-1.2,0-1.8c0.1-2.1,0.2-4.2,0.2-6.2c0.1-4.3,0.3-8.7,0.4-13c0.1-3,0.1-6,0.1-9.1c0.1-3.4,0.1-6.8,0.2-10.2
		C43.6,71.5,43.7,70,43.7,68.4z"/>
	<path style="fill:#ABC0DE;" d="M171.3,67.8c-0.9,0.7-1.6,1.3-2.2,1.9c-0.7,0.7-1.5,1.2-2.6,1.3c-0.6,0-1,0-1.3-0.6
		c-1.1-2.2-2.2-4.3-3.3-6.4c-0.4-0.7-0.7-1.5-1.1-2.2c-0.3-0.5-0.2-0.8,0.2-1.2c2.9-2.9,6-5.6,9-8.4c0.3-0.3,0.6-0.6,1-0.7
		c0.5-0.1,1.2,0.1,1.6-0.2c0.5-0.4,1.1-0.3,1.6-0.5c0.5-0.2,1.1-0.2,1.7-0.2c0.3,0,0.6,0,0.9,0c1.7,0.1,3.5,0.3,5.2,0.4
		c0.9,0.1,1,0.2,1.2,1.1c0.1,0.3,0.2,0.6,0.3,0.9c0.6,0.7,0.9,1.6,0.9,2.5c0,1.6,0,3.2,0,4.8c0,1.1,0,2.3,0,3.4
		c-0.1,2.6-0.2,5.1-0.3,7.7c0,2,0,4-0.1,6c0,1.3-0.2,2.6-0.2,3.9c-0.1,1.4-0.1,2.9-0.1,4.3c0,1,0,2,0,3c0,1.1,0,2.2-0.1,3.3
		c0,1.8-0.1,3.6-0.1,5.4c0,5.3,0,10.5,0,15.8c0,2.5,0,5,0,7.5c0,2.2,0.1,4.3,0.1,6.5c0,2.4,0.1,4.7,0.1,7.1c0,2.4,0.1,4.9,0.1,7.3
		c0,2.2-0.2,4.3-0.3,6.5c-0.1,1.4-0.3,2.8-0.2,4.1c0.1,1.8-0.2,3.6-0.3,5.3c0,0.8-0.3,1.3-1.1,1.5c-0.7,0.3-1.4,0.5-2.1,0.3
		c-1.9-0.4-3.7-0.3-5.6-0.2c-1.1,0.1-1.8-0.6-2.7-1c-0.3-0.2-0.4-0.5-0.1-0.8c0.3-0.4,0.2-0.9,0-1.2c-0.9-0.9-0.7-2.1-0.7-3.1
		c0-2,0.1-4,0.1-6c0-4.3-0.1-8.7-0.1-13c0-2.1,0.1-4.2,0-6.4c-0.1-3.6-0.3-7.2-0.4-10.8c-0.1-1.7-0.2-3.4-0.1-5.1
		c0.3-4,0.1-7.9,0.3-11.9c0.1-4.2,0.2-8.5,0.3-12.7c0.1-3.8,0.1-7.6,0.2-11.4C171.1,73.1,171.2,70.6,171.3,67.8z"/>
	<path style="fill:#ABC0DE;" d="M162.7,145.8c-0.1,1.2-0.3,2.3-0.4,3.4c-0.1,1.1-1,1.8-1.5,2.7c-0.9,1.5-2.3,2.4-3.8,3.3
		c-1.8,1-3.6,1.6-5.6,1c-1.2-0.4-2.5-0.7-3.5-1.4c-1.7-1.3-3.6-2.6-4.6-4.6c-0.5-1.1-0.7-2.3-1-3.5c-0.5-2.1,0-4.1,0.8-6.1
		c0.2-0.6,0.7-1.1,1.2-1.5c0.9-0.8,1.8-1.6,2.8-2.4c1.5-1.2,3.2-1.6,5.1-1.6c2.2,0.1,4.1,0.6,5.8,1.9c0.8,0.6,1.6,1.4,2.3,2.2
		c1,1.3,1.8,2.7,2.1,4.4C162.5,144.3,162.6,145.1,162.7,145.8z"/>
	<path style="fill:#FCBA25;" d="M142.8-8.5C144-7,156.1,4.6,157.2,8.2s-1.7,9.1-4.5,8.9c-2.8-0.3-6.1,0.1-6.1,0.1
		s-16.3-16-14.8-16.6C133.3,0,142.8-8.5,142.8-8.5z"/>
	<path style="fill:#FCBA25;" d="M186.5,169.3c6.9,2.2,25.2,2.8,25.8,4.7c0.6,1.9,1.9,14.8-6,14.5c-7.9-0.3-18.6-4.4-19.5-5.4
		C185.9,182.2,186.5,169.3,186.5,169.3z"/>
	<path style="fill:#FCBA25;" d="M52.3,187.8c6.3-3.9-0.4-5.3,3.3-7.7s15.6-10.4,17.7-6.4s3.8,17.6-0.9,18.6
		c-4.7,1-15.4,2.5-16.7,0.9C54.4,191.4,52.3,187.8,52.3,187.8z"/>
	<path style="fill:#FCBA25;" d="M-74.1,83.8c21.9,1.6-3-0.2,18.9,1.1c18.2,1.1,13.5,5.2,31.6,6.9c13.5,1.3,27.1-1.2,40.4-3.6
		c-3.5,3.5-3.4,6.9-6.9,10.4c4.2,1.4,5,2.9,9.2,4.4c-4.2,3.1-6.7,5.7-11.3,8.2c4.8,0.8,7.6,1.8,12.4,2.5c-4.9,3.6-9.4,8-14.9,10.7
		c4.1,1.9,7.4,2.6,11.5,4.5c-17.3,5.2-35.8,3.9-53.8,2.5c-12-1-30.6-0.1-32.6-5.4c-1.5-4.1-5.2-25.4-5.8-27.8
		C-75.7,95.8-74.1,83.8-74.1,83.8z"/>
</g>
<g id="Fills2">
	<path style="fill:#ABC0DE;" d="M115.2,66.6c-0.3-0.1-0.5-0.2-0.6-0.2c-2,0-4-0.1-6.1-0.1c-1.2,0-2.4-0.1-3.6-0.2
		c-1.1-0.1-2.2-0.1-3.3-0.1c-3.2-0.1-6.4-0.1-9.6,0.1c-2,0.1-4,0-6.1,0c-1.7,0-3.3,0.1-5,0.1c-1.6,0-3.2,0-4.9,0.1
		c-1,0.1-1.5-0.7-2.3-1.1c-0.6-0.3-0.6-0.8-0.7-1.3c-0.1-0.6-0.1-1.2-0.1-1.8c-0.1-1.8-0.1-3.6-0.1-5.5c0-1.3-1.1-1.3-1.1-2.6
		c0-0.2,0-0.3,0-0.5c0-1.4,0-1.1,1.2-1.6c0.5,0,1.7-0.6,2.2-0.3c0.4-0.7,2.7,0,3.5,0c1.9,0,2.1,0,4-0.1c0.7,0,1.5-0.1,2.2-0.1
		c3.4-0.1,6.8-0.2,10.2-0.3c3.4-0.1,6.9,0,10.3-0.1c2.5,0,5.1-0.2,7.6-0.3c2.7-0.1,5.5-0.1,8.2-0.2c2.6,0,5.3,0,7.9-0.1
		c1.5,0,3-0.1,4.5-0.2c1,0,1.9,0,2.9,0.1c1.3,0.1,2.1,0.8,2.1,2.1c0.1,2.3-0.3,3.4-0.3,5.7c0,1.6,0,3.2-0.1,4.9
		c0,0.9-0.1,1.9-0.1,2.8c0,0.6-0.3,1-0.7,1.4c-1.5,1.5-3.2,2.7-5,3.8c-0.6,0.4-1.2,0.7-1.7,1.1c-1.6,1.5-3.5,2.6-5.3,3.8
		c-3.4,2.2-6.7,4.6-10.1,6.8c-2.1,1.4-4.2,2.7-6.3,4.1c-0.4,0.2-0.7,0.5-1.2,0.9c0.5,0.1,0.8,0.2,1.1,0.1c2-0.3,4,0,6,0.1
		c0.9,0.1,1.8,0.4,2.7,0.6c4.3,1.1,8.1,3.3,11.8,5.8c0.2,0.2,0.5,0.3,0.7,0.5c1.5,0.9,2.5,2.2,3.4,3.7c0.3,0.4,0.6,0.9,0.9,1.3
		c1.4,1.6,2.5,3.4,3.3,5.3c0.7,1.7,1.4,3.4,2.1,5.2c0.4,1,0.5,2,0.7,3.1c0.8,3.5,0.9,7.1,0.7,10.6c-0.1,1.3-0.2,2.6-0.3,3.9
		c-0.1,0.6-0.3,1.3-0.5,1.9c-0.4,1.3-0.9,2.6-1.4,3.9c-0.4,1-0.8,1.9-1.4,2.8c-1.1,1.7-2.2,3.4-3.4,5c-1.8,2.4-4,4.5-6.3,6.4
		c-1.5,1.2-3.2,2.3-4.8,3.3c-2,1.3-4,2.5-6.2,3.4c-3,1.2-6,2.4-9.3,2.6c-2.4,0.1-4.7,0.4-7.1,0.3c-1.7,0-3.5-0.1-5.1-0.7
		c-1.2-0.4-2.5-0.4-3.7-0.8c-2.1-0.6-4.3-1.2-6.4-2c-1.5-0.6-2.9-1.6-4.3-2.4c-1-0.6-2-1.4-3-2c-0.3-0.2-0.7-0.3-0.9-0.6
		c-1.6-1.9-3.7-3.1-5.2-5.1c-0.8-1-1.8-1.8-2.5-2.9c-0.8-1.1-1.7-2.2-2.4-3.3c-0.4-0.5-0.6-1.1-0.8-1.7c-0.6-1.3-1.6-2.4-1.7-4
		c0-0.2-0.2-0.3-0.3-0.5c-0.8-1.2-0.5-2.1,0.7-2.8c0.3-0.2,0.7-0.3,0.9-0.6c1-1,2.3-1.6,3.5-2.2c0.3-0.2,0.6-0.4,0.9-0.6
		c0.6-0.3,1.1-0.7,1.7-0.9c0.3-0.1,0.7-0.2,1.1-0.1c1.3,0.5,2.5,1,3,2.4c1.2,2.9,2.9,5.4,4.8,7.9c0.6,0.7,1.2,1.4,1.9,2
		c0.8,0.8,1.6,1.5,2.4,2.2c1.5,1.4,3.3,2.3,5.2,3.1c0.7,0.3,1.3,0.6,2,0.9c0.4,0.2,0.8,0.3,1.1,0.4c0.2,0,0.3,0,0.5,0.1
		c2.5,0.9,5,0.6,7.6,0.8c1.5,0.1,2.9-0.1,4.4-0.1c2.1,0,4-0.5,5.9-1.4c3.1-1.5,6-3.3,8.3-5.8c2.1-2.2,4-4.5,5.5-7.1
		c1-1.7,1.5-3.3,1.6-5.2c0-1,0.2-1.9,0.3-2.9c0.4-3.9-0.2-7.7-1.8-11.3c-0.6-1.4-1.6-2.7-2.5-4c-0.2-0.3-0.6-0.6-0.9-0.8
		c-1.2-0.8-2.5-1.6-3.8-2.4c-3.1-2.1-6.5-3.6-10.2-4.2c-1.6-0.3-3.3-0.6-4.9-0.8c-2.6-0.4-5.2-0.4-7.7,0.1c-1.5,0.3-2.9,1-4.4,1.3
		c-1.3,0.3-2.5,1.1-3.9,1.3c-1.2,0.1-2.2-0.1-3-1.1c-1.1-1.2-2.1-2.3-3-3.6c-0.6-0.8-1.2-1.6-1.8-2.4C79,93.1,79,92.2,80,91.8
		c0.7-0.3,1.2-1,1.8-1.4c1.5-1.1,2.9-2.3,4.5-3.2c3.3-2,6.5-4.3,9.6-6.6c1.5-1.1,3.1-2.2,4.6-3.3c0.9-0.6,1.7-1.3,2.6-2
		c2.4-1.7,4.9-3.4,7.4-5.1C112,69,113.5,67.9,115.2,66.6z"/>
	<path style="fill:#ABC0DE;" d="M44.8,66.3c-0.5-0.1,0.3,0.3,0,0.5c-0.6,0.5-1.2,1.1-1.9,1.6c-0.3,0.2-0.5,0.4-0.8,0.5
		c-1.4,0.6-1.9,0.4-2.6-0.9c-1-1.9-2-3.9-3-5.9c-0.4-0.8-0.8-1.5-1.2-2.3c-0.2-0.4-0.1-0.7,0.2-1c2.2-2.3,5.2-3.4,7.5-5.7
		c0.7-0.7,1.5-1.4,2.3-2.1c0.3-0.3,0.7-0.6,1-0.6c1.4,0.2,2.6-0.8,4-0.7c1.4,0.1,2.8,0.2,4.2,0.3c1,0.1,2,0.1,2.9,0.2
		c0.9,0.1-0.1,0.1,0,1c0,0.2,0.1,0.5,0.2,0.6c0.8,0.9,1,2,1,3.2c0,3.2-0.6,5.5-0.7,8.7c-0.1,3.9-0.2,7.8-0.3,11.7
		c0,1.5-0.2,3.1-0.2,4.6c0,1.5,0,2.9,0,4.4c0,0.8-0.1,1.6-0.1,2.4c0,1.2,0,2.4-0.1,3.7c0,1.4-0.1,2.9-0.1,4.3
		c0,5.4,0.1,10.9-0.1,16.3c-0.1,3.8,0.2,7.6,0.2,11.4c0,2.7-0.1,5.5-0.1,8.2c0,1.3,0.2,2.5,0.2,3.8c-0.1,4.2-0.2,8.4-0.3,12.6
		c-0.1,2.6,0.7,5.2,0.5,7.8c0.1-1.3-2.7,3.2-0.5,1.7c-0.7,0.5-1.6,0.9-2.5,0.8c-0.5-0.1-1-0.2-1.6-0.2c-1.5-0.1-2.9-0.2-4.4-0.1
		c-1.1,0.1-1.8-0.6-2.7-1c-0.2-0.1-0.4-0.4-0.2-0.7c0.5-0.5-0.8-1.1-1.1-1.5c-0.4-0.5-0.5-1.1-0.5-1.7c0-2.4,0-4.8,0.1-7.2
		c0-1.5,0-3,0-4.5c0-1.8,0.1-3.6,0-5.4c-0.2-4.1,0.1-8.2-0.2-12.2c-0.2-3.3,0.9-6.5,0.8-9.8c0-0.6-0.1-1.1-0.1-1.7
		c0-0.6-0.1-1.2,0-1.8c0.1-2.1,0.2-4.2,0.2-6.2c0.1-4.3-0.7-8.7-0.6-13c0.1-3,0.1-6,0.1-9.1c0.1-3.4,0.1-6.8,0.2-10.2
		C44.7,69.5,44.8,67.9,44.8,66.3z"/>
	<path style="fill:#ABC0DE;" d="M173.4,65.7c-0.9,0.7-1.6,1.3-2.2,1.9c-0.7,0.7-1.5,1.2-2.6,1.3c-0.6,0-1,0-1.3-0.6
		c-1.1-2.2-2.2-4.3-3.3-6.4c-0.4-0.7-0.7-1.5-1.1-2.2c-0.3-0.5-0.2-0.8,0.2-1.2c2.9-2.9,6-5.6,9-8.4c0.3-0.3,0.6-0.6,1-0.7
		c0.5-0.1,1.2,0.1,1.6-0.2c0.5-0.4,1.1-0.3,1.6-0.5c0.5-0.2,1.1-0.2,1.7-0.2c0.3,0,0.6,0,0.9,0c1.7,0.1,2.4,2.3,4.2,2.4
		c0.9,0.1,1,0.2,1.2,1.1c0.1,0.3,0.2,0.6,0.3,0.9c0.6,0.7,0.9,1.6,0.9,2.5c0,1.6,0,3.2,0,4.8c0,1.1,0,2.3,0,3.4
		c-0.1,2.6-0.2,5.1-0.3,7.7c0,2,0,4-0.1,6c0,1.3-0.2,2.6-0.2,3.9c-0.1,1.4-0.1,2.9-0.1,4.3c0,1,0,2,0,3c0,1.1,0,2.2-0.1,3.3
		c0,1.8-0.1,3.6-0.1,5.4c0,5.3,0,10.5,0,15.8c0,2.5,0,5,0,7.5c0,2.2,0.1,4.3,0.1,6.5c0,2.4,0.1,4.7,0.1,7.1c0,2.4,0.1,4.9,0.1,7.3
		c0,2.2-0.2,4.3-0.3,6.5c-0.1,1.4-0.3,2.8-0.2,4.1c0.1,1.8-0.2,3.6-0.3,5.3c0,0.8-0.3,1.3-1.1,1.5c-0.7,0.3-1.4,0.5-2.1,0.3
		c-1.9-0.4-2.7-2.3-4.6-2.2c-1.1,0.1-1.8-0.6-2.7-1c-0.3-0.2-0.4-0.5-0.1-0.8c0.3-0.4,0.2-0.9,0-1.2c-0.9-0.9-0.7-2.1-0.7-3.1
		c0-2,0.1-4,0.1-6c0-4.3-0.1-8.7-0.1-13c0-2.1,0.1-4.2,0-6.4c-0.1-3.6-0.3-7.2-0.4-10.8c-0.1-1.7-0.2-3.4-0.1-5.1
		c0.3-4,0.1-7.9,0.3-11.9c0.1-4.2,0.2-8.5,0.3-12.7c0.1-3.8,0.1-7.6,0.2-11.4C173.2,71,173.3,68.5,173.4,65.7z"/>
	<path style="fill:#ABC0DE;" d="M164.8,143.7c-0.1,1.2-0.3,2.3-0.4,3.4c-0.1,1.1-1,1.8-1.5,2.7c-0.9,1.5-2.3,2.4-3.8,3.3
		c-1.8,1-3.6,1.6-5.6,1c-1.2-0.4-2.5-0.7-3.5-1.4c-1.7-1.3-3.6-2.6-4.6-4.6c-0.5-1.1-0.7-2.3-1-3.5c-0.5-2.1,0-4.1,0.8-6.1
		c0.2-0.6,0.7-1.1,1.2-1.5c0.9-0.8,1.8-1.6,2.8-2.4c1.5-1.2,3.2-1.6,5.1-1.6c2.2,0.1,4.1,0.6,5.8,1.9c0.8,0.6,1.6,1.4,2.3,2.2
		c1,1.3,1.8,2.7,2.1,4.4C164.6,142.2,164.7,143,164.8,143.7z"/>
	<path style="fill:#FCBA25;" d="M141.6-9.6c1.6,1.2,15.9,10.2,17.8,13.5c1.9,3.3,0.3,9.3-2.5,9.6s-8.4,3.9-8.4,3.9
		s-16.8-15-15.6-15.9S141.6-9.6,141.6-9.6z"/>
	<path style="fill:#FCBA25;" d="M188.4,167.4c6.9,2.2,25.2,2.8,25.8,4.7c0.6,1.9,1.9,14.8-6,14.5c-7.9-0.3-18.6-4.4-19.5-5.4
		S188.4,167.4,188.4,167.4z"/>
	<path style="fill:#FCBA25;" d="M53.8,187.1c5.8-4.6,0-6.4,3.7-8.9s15.6-10.4,17.7-6.4c1.7,3.2,1.4,16.7-0.9,17.4
		c-4.6,1.5-15,4.3-16.5,2.8C56.2,190.5,53.8,187.1,53.8,187.1z"/>
	<path style="fill:#FCBA25;" d="M-72,81.7c21.9,1.6-3-0.2,18.9,1.1c18.2,1.1,13.5,5.2,31.6,6.9C-8,90.9,5.6,88.5,19,86.1
		C15.5,89.5,12,93,8.5,96.5c4.2,1.4,8.5,2.9,12.7,4.3c-4.2,3.1-8.7,5.9-13.2,8.5c4.8,0.8,9.6,1.5,14.3,2.3
		c-4.9,3.6-10.2,6.8-15.6,9.6c4.1,1.9,8.2,3.8,12.3,5.6c-17.3,5.2-35.9,5.1-53.8,2.5c-11.6-1.7-28.6-3.6-32.6-5.4
		c-3.9-1.8-5.2-25.4-5.8-27.8C-73.6,93.7-72,81.7-72,81.7z"/>
</g>
<g id="Fills3">
	<path style="fill:#ABC0DE;" d="M113.2,66.6c-0.3-0.1-0.5-0.2-0.6-0.2c-2,0-4-0.1-6.1-0.1c-1.2,0-2.4-0.1-3.6-0.2
		c-1.1-0.1-2.2-0.1-3.3-0.1c-3.2-0.1-6.4-0.1-9.6,0.1c-2,0.1-4,0-6.1,0c-1.7,0-3.3,0.1-5,0.1c-1.6,0-3.2,0-4.9,0.1
		c-1,0.1-1.5-0.7-2.3-1.1c-0.6-0.3-0.6-0.8-0.7-1.3C71.1,63.2,71,62.6,71,62c-0.1-1.8-0.1-3.6-0.1-5.5c0-1.3,0-2.5-0.1-3.8
		c0-0.2,0-0.3,0-0.5c0.1-1.3,0.7-1.6,1.9-0.9c0.1,0,0.1,0.1,0.3,0.1c0.4-0.7,1-0.9,1.9-0.9c1.9,0,3.7-0.1,5.6-0.2
		c0.7,0,1.5-0.1,2.2-0.1c3.4-0.1,6.8-0.2,10.2-0.3c3.4-0.1,6.9,0,10.3-0.1c2.5,0,5.1-0.2,7.6-0.3c2.7-0.1,5.5-0.1,8.2-0.2
		c2.6,0,5.3,0,7.9-0.1c1.5,0,3-0.1,4.5-0.2c1,0,1.9,0,2.9,0.1c1.3,0.1,2.1,0.8,2.1,2.1c0.1,2.3,0.1,4.5,0.1,6.8c0,1.6,0,3.2-0.1,4.9
		c0,0.9-0.1,1.9-0.1,2.8c0,0.6-0.3,1-0.7,1.4c-1.5,1.5-3.2,2.7-5,3.8c-0.6,0.4-1.2,0.7-1.7,1.1c-1.6,1.5-3.5,2.6-5.3,3.8
		c-3.4,2.2-6.7,4.6-10.1,6.8c-2.1,1.4-4.2,2.7-6.3,4.1c-0.4,0.2-0.7,0.5-1.2,0.9c0.5,0.1,0.8,0.2,1.1,0.1c2-0.3,4,0,6,0.1
		c0.9,0.1,1.8,0.4,2.7,0.6c4.3,1.1,8.1,3.3,11.8,5.8c0.2,0.2,0.5,0.3,0.7,0.5c1.5,0.9,2.5,2.2,3.4,3.7c0.3,0.4,0.6,0.9,0.9,1.3
		c1.4,1.6,2.5,3.4,3.3,5.3c0.7,1.7,1.4,3.4,2.1,5.2c0.4,1,0.5,2,0.7,3.1c0.8,3.5,0.9,7.1,0.7,10.6c-0.1,1.3-0.2,2.6-0.3,3.9
		c-0.1,0.6-0.3,1.3-0.5,1.9c-0.4,1.3-0.9,2.6-1.4,3.9c-0.4,1-0.8,1.9-1.4,2.8c-1.1,1.7-2.2,3.4-3.4,5c-1.8,2.4-4,4.5-6.3,6.4
		c-1.5,1.2-3.2,2.3-4.8,3.3c-2,1.3-4,2.5-6.2,3.4c-3,1.2-6,2.4-9.3,2.6c-2.4,0.1-4.7,0.4-7.1,0.3c-1.7,0-3.5-0.1-5.1-0.7
		c-1.2-0.4-2.5-0.4-3.7-0.8c-2.1-0.6-4.3-1.2-6.4-2c-1.5-0.6-2.9-1.6-4.3-2.4c-1-0.6-2-1.4-3-2c-0.3-0.2-0.7-0.3-0.9-0.6
		c-1.6-1.9-3.7-3.1-5.2-5.1c-0.8-1-1.8-1.8-2.5-2.9c-0.8-1.1-1.7-2.2-2.4-3.3c-0.4-0.5-0.6-1.1-0.8-1.7c-0.6-1.3-1.6-2.4-1.7-4
		c0-0.2-0.2-0.3-0.3-0.5c-0.8-1.2-0.5-2.1,0.7-2.8c0.3-0.2,0.7-0.3,0.9-0.6c1-1,2.3-1.6,3.5-2.2c0.3-0.2,0.6-0.4,0.9-0.6
		c0.6-0.3,1.1-0.7,1.7-0.9c0.3-0.1,0.7-0.2,1.1-0.1c1.3,0.5,2.5,1,3,2.4c1.2,2.9,2.9,5.4,4.8,7.9c0.6,0.7,1.2,1.4,1.9,2
		c0.8,0.8,1.6,1.5,2.4,2.2c1.5,1.4,3.3,2.3,5.2,3.1c0.7,0.3,1.3,0.6,2,0.9c0.4,0.2,0.8,0.3,1.1,0.4c0.2,0,0.3,0,0.5,0.1
		c2.5,0.9,5,0.6,7.6,0.8c1.5,0.1,2.9-0.1,4.4-0.1c2.1,0,4-0.5,5.9-1.4c3.1-1.5,6-3.3,8.3-5.8c2.1-2.2,4-4.5,5.5-7.1
		c1-1.7,1.5-3.3,1.6-5.2c0-1,0.2-1.9,0.3-2.9c0.4-3.9-0.2-7.7-1.8-11.3c-0.6-1.4-1.6-2.7-2.5-4c-0.2-0.3-0.6-0.6-0.9-0.8
		c-1.2-0.8-2.5-1.6-3.8-2.4c-3.1-2.1-6.5-3.6-10.2-4.2c-1.6-0.3-3.3-0.6-4.9-0.8c-2.6-0.4-5.2-0.4-7.7,0.1c-1.5,0.3-2.9,1-4.4,1.3
		c-1.3,0.3-2.5,1.1-3.9,1.3c-1.2,0.1-2.2-0.1-3-1.1c-1.1-1.2-2.1-2.3-3-3.6c-0.6-0.8-1.2-1.6-1.8-2.4c-0.5-0.8-0.6-1.7,0.4-2.1
		c0.7-0.3,1.2-1,1.8-1.4c1.5-1.1,2.9-2.3,4.5-3.2c3.3-2,6.5-4.3,9.6-6.6c1.5-1.1,3.1-2.2,4.6-3.3c0.9-0.6,1.7-1.3,2.6-2
		c2.4-1.7,4.9-3.4,7.4-5.1C109.9,69,111.5,67.9,113.2,66.6z"/>
	<path style="fill:#ABC0DE;" d="M43.7,66.3c-0.5-0.1-0.7,0.3-1,0.5c-0.6,0.5-1.2,1.1-1.9,1.6c-0.3,0.2-0.5,0.4-0.8,0.5
		c-1.4,0.6-1.9,0.4-2.6-0.9c-1-1.9-2-3.9-3-5.9c-0.4-0.8-0.8-1.5-1.2-2.3c-0.2-0.4-0.1-0.7,0.2-1c2.2-2.3,4.7-4.3,7-6.5
		c0.7-0.7,1.5-1.4,2.3-2.1c0.3-0.3,0.7-0.6,1-0.6c1.4,0.2,2.6-0.8,4-0.7c1.4,0.1,2.8,0.2,4.2,0.3c1,0.1,2,0.1,2.9,0.2
		c0.9,0.1,0.9,0.1,1,1c0,0.2,0.1,0.5,0.2,0.6c0.8,0.9,1,2,1,3.2c0,3.2-0.1,6.4-0.2,9.5c-0.1,3.9-0.2,7.8-0.3,11.7
		c0,1.5-0.2,3.1-0.2,4.6c0,1.5,0,2.9,0,4.4c0,0.8-0.1,1.6-0.1,2.4c0,1.2,0,2.4-0.1,3.7c0,1.4-0.1,2.9-0.1,4.3
		c0,5.4,0.1,10.9-0.1,16.3c-0.1,3.8,0.2,7.6,0.2,11.4c0,2.7-0.1,5.5-0.1,8.2c0,1.3,0.2,2.5,0.2,3.8c-0.1,4.2-0.2,8.4-0.3,12.6
		c-0.1,2.6-0.3,5.2-0.5,7.8c0,0.6,0.1,1.4-0.5,1.7c-0.7,0.5-1.6,0.9-2.5,0.8c-0.5-0.1-1-0.2-1.6-0.2c-1.5-0.1-2.9-0.2-4.4-0.1
		c-1.1,0.1-1.8-0.6-2.7-1c-0.2-0.1-0.4-0.4-0.2-0.7c0.5-0.5,0.2-1.1-0.1-1.5c-0.4-0.5-0.5-1.1-0.5-1.7c0-2.4,0-4.8,0.1-7.2
		c0-1.5,0-3,0-4.5c0-1.8,0.1-3.6,0-5.4c-0.2-4.1,0.1-8.2-0.2-12.2c-0.2-3.3-0.1-6.5-0.2-9.8c0-0.6-0.1-1.1-0.1-1.7
		c0-0.6-0.1-1.2,0-1.8c0.1-2.1,0.2-4.2,0.2-6.2c0.1-4.3,0.3-8.7,0.4-13c0.1-3,0.1-6,0.1-9.1c0.1-3.4,0.1-6.8,0.2-10.2
		C43.6,69.5,43.7,67.9,43.7,66.3z"/>
	<path style="fill:#ABC0DE;" d="M171.3,65.7c-0.9,0.7-1.6,1.3-2.2,1.9c-0.7,0.7-1.5,1.2-2.6,1.3c-0.6,0-1,0-1.3-0.6
		c-1.1-2.2-2.2-4.3-3.3-6.4c-0.4-0.7-0.7-1.5-1.1-2.2c-0.3-0.5-0.2-0.8,0.2-1.2c2.9-2.9,6-5.6,9-8.4c0.3-0.3,0.6-0.6,1-0.7
		c0.5-0.1,1.2,0.1,1.6-0.2c0.5-0.4,1.1-0.3,1.6-0.5c0.5-0.2,1.1-0.2,1.7-0.2c0.3,0,0.6,0,0.9,0c1.7,0.1,3.5,0.3,5.2,0.4
		c0.9,0.1,1,0.2,1.2,1.1c0.1,0.3,0.2,0.6,0.3,0.9c0.6,0.7,0.9,1.6,0.9,2.5c0,1.6,0,3.2,0,4.8c0,1.1,0,2.3,0,3.4
		c-0.1,2.6-0.2,5.1-0.3,7.7c0,2,0,4-0.1,6c0,1.3-0.2,2.6-0.2,3.9c-0.1,1.4-0.1,2.9-0.1,4.3c0,1,0,2,0,3c0,1.1,0,2.2-0.1,3.3
		c0,1.8-0.1,3.6-0.1,5.4c0,5.3,0,10.5,0,15.8c0,2.5,0,5,0,7.5c0,2.2,0.1,4.3,0.1,6.5c0,2.4,0.1,4.7,0.1,7.1c0,2.4,0.1,4.9,0.1,7.3
		c0,2.2-0.2,4.3-0.3,6.5c-0.1,1.4-0.3,2.8-0.2,4.1c0.1,1.8-0.2,3.6-0.3,5.3c0,0.8-0.3,1.3-1.1,1.5c-0.7,0.3-1.4,0.5-2.1,0.3
		c-1.9-0.4-3.7-0.3-5.6-0.2c-1.1,0.1-1.8-0.6-2.7-1c-0.3-0.2-0.4-0.5-0.1-0.8c0.3-0.4,0.2-0.9,0-1.2c-0.9-0.9-0.7-2.1-0.7-3.1
		c0-2,0.1-4,0.1-6c0-4.3-0.1-8.7-0.1-13c0-2.1,0.1-4.2,0-6.4c-0.1-3.6-0.3-7.2-0.4-10.8c-0.1-1.7-0.2-3.4-0.1-5.1
		c0.3-4,0.1-7.9,0.3-11.9c0.1-4.2,0.2-8.5,0.3-12.7c0.1-3.8,0.1-7.6,0.2-11.4C171.1,71,171.2,68.5,171.3,65.7z"/>
	<path style="fill:#ABC0DE;" d="M162.7,143.7c-0.1,1.2-0.3,2.3-0.4,3.4c-0.1,1.1-1,1.8-1.5,2.7c-0.9,1.5-2.3,2.4-3.8,3.3
		c-1.8,1-3.6,1.6-5.6,1c-1.2-0.4-2.5-0.7-3.5-1.4c-1.7-1.3-3.6-2.6-4.6-4.6c-0.5-1.1-0.7-2.3-1-3.5c-0.5-2.1,0-4.1,0.8-6.1
		c0.2-0.6,0.7-1.1,1.2-1.5c0.9-0.8,1.8-1.6,2.8-2.4c1.5-1.2,3.2-1.6,5.1-1.6c2.2,0.1,4.1,0.6,5.8,1.9c0.8,0.6,1.6,1.4,2.3,2.2
		c1,1.3,1.8,2.7,2.1,4.4C162.5,142.2,162.6,143,162.7,143.7z"/>
	<path style="fill:#FCBA25;" d="M139.8-9.6c1.6,1.2,15.9,10.2,17.8,13.5c1.9,3.3,0.3,9.3-2.5,9.6c-2.8,0.3-8.4,3.9-8.4,3.9
		S129.8,2.3,131,1.4S139.8-9.6,139.8-9.6z"/>
	<path style="fill:#FCBA25;" d="M186.5,167.4c6.9,2.2,25.2,2.8,25.8,4.7c0.6,1.9,1.9,14.8-6,14.5c-7.9-0.3-18.6-4.4-19.5-5.4
		S186.5,167.4,186.5,167.4z"/>
	<path style="fill:#FCBA25;" d="M51.9,187.1c5.8-4.6,0-6.4,3.7-8.9s15.6-10.4,17.7-6.4s3.7,15.9-0.9,17.4c-4.6,1.5-15,4.3-16.5,2.8
		C54.4,190.5,51.9,187.1,51.9,187.1z"/>
	<path style="fill:#FCBA25;" d="M-74.1,81.7c21.9,1.6-3-0.2,18.9,1.1C-37,84-41.7,88-23.6,89.7c13.5,1.3,29.3-0.2,42.7-2.7
		c-3.5,3.5-6,6.3-9.4,9.8c4.2,1.4,5.3,2.6,9.6,4c-4.2,3.1-8.7,5.9-13.2,8.5c4.8,0.8,9.6,1.5,14.3,2.3c-4.9,3.6-10.2,6.8-15.6,9.6
		c4.1,1.9,8.2,3.8,12.3,5.6c-17.3,5.2-35.9,5.1-53.8,2.5c-11.6-1.7-29.3-5.8-33.3-7.7c-3.9-1.8-4.5-23.2-5.1-25.5
		C-75.7,93.7-74.1,81.7-74.1,81.7z"/>
</g>
<g id="Lines">
	<path style="fill:#162B54;" d="M113.6,66.5c-0.3-0.1-0.5-0.2-0.6-0.2c-2,0-4.1-0.1-6.1-0.1c-1.2,0-2.4-0.1-3.7-0.2
		c-1.1-0.1-2.2-0.1-3.3-0.1c-3.2-0.1-6.4-0.1-9.7,0.1c-2,0.1-4.1,0-6.1,0c-1.7,0-3.3,0.1-5,0.1c-1.6,0-3.3,0-4.9,0.1
		c-1,0.1-1.6-0.7-2.3-1.2c-0.6-0.3-0.6-0.9-0.7-1.4c-0.1-0.6-0.1-1.2-0.1-1.8C71,60,71,58.1,70.9,56.3c0-1.3,0-2.5-0.1-3.8
		c0-0.2,0-0.3,0-0.5c0.1-1.3,0.7-1.6,1.9-1c0.1,0,0.2,0.1,0.3,0.1c0.4-0.7,1-0.9,1.9-0.9c1.9,0,3.7-0.1,5.6-0.2
		c0.7,0,1.5-0.1,2.2-0.1c3.4-0.1,6.9-0.2,10.3-0.3c3.5-0.1,6.9,0,10.4-0.1c2.6,0,5.1-0.2,7.7-0.3c2.8-0.1,5.5-0.1,8.3-0.2
		c2.7,0,5.3,0,8-0.1c1.5,0,3-0.1,4.5-0.2c1,0,2,0,2.9,0.1c1.4,0.1,2.1,0.8,2.2,2.1c0.1,2.3,0.1,4.6,0.1,6.9c0,1.6,0,3.3-0.1,4.9
		c0,0.9-0.1,1.9-0.1,2.8c0,0.6-0.3,1-0.7,1.4c-1.5,1.6-3.2,2.8-5,3.9c-0.6,0.4-1.2,0.7-1.7,1.1c-1.7,1.5-3.5,2.6-5.4,3.8
		c-3.4,2.2-6.7,4.6-10.1,6.9c-2.1,1.4-4.2,2.8-6.4,4.2c-0.4,0.2-0.7,0.5-1.2,0.9c0.5,0.1,0.8,0.2,1.1,0.1c2-0.3,4.1,0,6.1,0.1
		c0.9,0.1,1.8,0.4,2.7,0.6c4.4,1.1,8.2,3.3,11.9,5.9c0.2,0.2,0.5,0.3,0.7,0.5c1.5,0.9,2.5,2.2,3.4,3.7c0.3,0.5,0.6,0.9,0.9,1.3
		c1.4,1.6,2.5,3.4,3.3,5.4c0.7,1.7,1.4,3.5,2.1,5.2c0.4,1,0.5,2.1,0.8,3.1c0.8,3.5,0.9,7.1,0.7,10.7c-0.1,1.3-0.2,2.6-0.4,3.9
		c-0.1,0.6-0.3,1.3-0.5,1.9c-0.4,1.3-0.9,2.6-1.4,3.9c-0.4,1-0.9,2-1.4,2.8c-1.1,1.7-2.3,3.4-3.5,5c-1.8,2.5-4,4.5-6.4,6.4
		c-1.5,1.2-3.2,2.3-4.8,3.3c-2,1.3-4,2.5-6.2,3.4c-3,1.2-6.1,2.4-9.4,2.6c-2.4,0.1-4.8,0.4-7.2,0.3c-1.7,0-3.5-0.1-5.2-0.7
		c-1.2-0.4-2.5-0.5-3.7-0.8c-2.2-0.6-4.3-1.2-6.4-2c-1.5-0.6-2.9-1.6-4.4-2.4c-1-0.6-2-1.4-3-2c-0.3-0.2-0.7-0.3-0.9-0.6
		c-1.6-1.9-3.7-3.2-5.2-5.1c-0.8-1-1.8-1.8-2.5-2.9c-0.8-1.1-1.7-2.2-2.5-3.3c-0.4-0.5-0.6-1.2-0.8-1.7c-0.6-1.3-1.7-2.4-1.7-4
		c0-0.2-0.2-0.3-0.3-0.5c-0.8-1.2-0.5-2.1,0.7-2.8c0.3-0.2,0.7-0.4,0.9-0.6c1-1,2.3-1.6,3.5-2.2c0.3-0.2,0.6-0.4,0.9-0.6
		c0.6-0.3,1.1-0.7,1.7-0.9c0.3-0.1,0.8-0.2,1.1-0.1c1.3,0.5,2.5,1,3.1,2.4c1.2,2.9,2.9,5.5,4.8,7.9c0.6,0.7,1.3,1.4,1.9,2.1
		c0.8,0.8,1.6,1.5,2.4,2.3c1.5,1.4,3.3,2.4,5.2,3.1c0.7,0.3,1.3,0.6,2,0.9c0.4,0.2,0.8,0.3,1.1,0.4c0.2,0,0.3,0,0.5,0.1
		c2.5,0.9,5.1,0.6,7.6,0.8c1.5,0.1,2.9-0.1,4.4-0.1c2.1,0,4-0.5,5.9-1.4c3.1-1.5,6-3.3,8.4-5.9c2.1-2.2,4-4.5,5.6-7.1
		c1-1.7,1.5-3.4,1.6-5.3c0-1,0.2-2,0.3-2.9c0.4-3.9-0.2-7.8-1.8-11.4c-0.6-1.4-1.6-2.7-2.5-4c-0.2-0.3-0.6-0.6-0.9-0.8
		c-1.3-0.8-2.5-1.6-3.8-2.5c-3.2-2.1-6.6-3.6-10.3-4.2c-1.7-0.3-3.3-0.6-5-0.8c-2.6-0.4-5.2-0.4-7.8,0.1c-1.5,0.3-2.9,1-4.4,1.4
		c-1.3,0.4-2.5,1.1-3.9,1.3c-1.2,0.1-2.2-0.1-3.1-1.1c-1.1-1.2-2.1-2.4-3-3.7c-0.6-0.8-1.2-1.6-1.8-2.4C77,93.2,77,92.3,78,91.9
		c0.7-0.3,1.2-1,1.8-1.4c1.5-1.1,3-2.3,4.6-3.3c3.4-2,6.5-4.4,9.7-6.7c1.6-1.1,3.1-2.2,4.7-3.3c0.9-0.6,1.7-1.3,2.6-2
		c2.5-1.7,5-3.4,7.4-5.2C110.3,68.9,111.8,67.7,113.6,66.5z M64.7,131.2c0.3,0.3,0.4,0.5,0.6,0.7c0.5,0.5,1.1,0.9,1.1,1.7
		c0,0.1,0.1,0.3,0.2,0.4c0.6,1.1,1.2,2.2,1.9,3.2c2,2.8,4.1,5.5,6.7,7.8c1.8,1.6,3.7,3,5.6,4.4c1.9,1.4,3.9,2.3,6.1,3
		c2,0.6,4,1.2,6,1.7c3.1,0.8,6.2,1.3,9.4,1.1c0.4,0,0.8-0.1,1.2-0.2c0.5-0.1,1-0.3,1.5-0.3c4.1-0.1,8-1.4,11.6-3.1
		c1.9-0.8,3.6-2,5.3-3c2.9-1.7,5.3-3.9,7.6-6.3c1.5-1.6,2.6-3.6,3.8-5.4c0.2-0.4,0.4-0.8,0.5-1.2c0.1-1.3,0.5-2.6,0.9-3.8
		c0.4-1.2,0.8-2.5,1.1-3.8c0.6-2.9,0.6-5.9,0.6-8.8c-0.1-3.6-0.7-7.2-2.1-10.6c-0.4-1-0.9-1.9-1.2-2.9c-0.7-1.8-1.7-3.3-3.2-4.6
		c-0.7-0.5-1.3-1.1-1.9-1.7c-0.6-0.6-1.1-1.3-1.8-1.8c-2-1.3-4.1-2.6-6.2-3.9c-0.6-0.4-1.2-0.7-1.8-1c-1.7-0.8-3.4-1.3-5.2-1.8
		c-2.8-0.7-5.6-0.8-8.4-0.5c-1,0.1-2,0.2-3,0.2c-0.2,0-0.6-0.2-0.7-0.3c-0.1-0.1,0.1-0.4,0.2-0.6c0.1-0.1,0.2-0.3,0.3-0.3
		c0.9-0.4,1.5-1.1,1.9-2c0.1-0.2,0.3-0.4,0.4-0.6c1.6-1.7,3.3-3.2,5.2-4.6c2-1.3,3.9-2.7,5.8-4c3.1-2.2,6.2-4.3,9.4-6.5
		c1.1-0.7,2.2-1.3,3.3-2.1c1.7-1.2,3.3-2.5,5-3.7c0.2-0.2,0.7-0.3,0.9-0.3c0.8,0.4,1.2-0.1,1.6-0.7c-0.5-0.8-0.7-1.7-0.6-2.7
		c0.1-3.1,0.2-6.2,0.3-9.3c0-0.7,0-0.8-0.7-0.8c-1.1,0-2.2-0.1-3.3,0c-4.2,0.2-8.5,0.5-12.7,0.3c-2.6-0.1-5.2,0.1-7.8,0.2
		c-0.7,0-1.3,0-2,0.1c-3.1,0.4-6.1,0.3-9.2,0.2c-2.9-0.1-5.9,0-8.8,0.1c-2.4,0-4.8,0.1-7.2,0.1c-2.3,0-4.6-0.2-6.8-0.2
		c-0.8,0-1.7,0-2.7,0c0,3.7,0.2,7.3,0.5,11c1-0.1,1.8-0.3,2.7-0.4c4.3-0.5,8.7-0.5,13.1-0.7c1.4-0.1,2.8,0,4.2,0c3.8,0,7.6,0,11.4,0
		c0.9,0,1.8,0.1,2.7,0.1c2.2,0,4.5,0.1,6.7,0.1c0.4,0,0.9,0.1,1.3,0.2c0.2,0,0.4,0.2,0.5,0.4c0.3,0.6,0.1,1.3-0.5,1.8
		c-0.3,0.3-0.5,0.6-0.7,0.8c0.9,1.3,0.8,1.9-0.1,3c-0.8,0.9-1.7,1.6-2.7,2.3c-1.7,1.2-3.4,2.3-5,3.5c-4.8,3.3-9.7,6.7-14.5,10.1
		c-3.4,2.4-6.9,4.6-10.4,6.6c-0.5,0.3-1,0.7-1.5,1.1c-0.6,0.5-0.6,0.6-0.1,1.2c1.3,1.9,2.7,3.8,4.1,5.8c0.9-0.6,1.6-1.3,2.5-1.7
		c1.8-0.8,3.6-1.5,5.5-2c3.6-1,7.4-1,11.1-0.4c2.9,0.5,5.8,1.1,8.6,1.8c1.6,0.4,3.1,1,4.5,1.8c1.4,0.9,2.9,1.8,4.3,2.8
		c0.6,0.4,1.1,0.8,1.5,1.4c1,1.4,2,2.8,2.9,4.2c2.4,3.7,3.6,7.8,3.7,12.1c0,1.7,0,3.4-0.4,5.1c-0.4,1.5-0.7,3.1-1.2,4.6
		c-0.6,2-1.5,3.9-2.9,5.5c-1.3,1.5-2.8,3-4.1,4.6c-1.6,2-3.6,3.4-5.5,5c-0.2,0.1-0.4,0.2-0.5,0.3c-1.8,0.7-3.6,1.5-5.4,2.2
		c-1.1,0.5-2.1,0.8-3.3,1c-2.8,0.4-5.5,0.4-8.3,0.2c-5-0.4-9.6-1.7-14-4c-0.6-0.3-1.2-0.8-1.8-1.3c-2.2-1.9-4.1-4.1-6-6.3
		c-0.4-0.5-0.6-1.1-1-1.5c-0.8-0.9-1.5-1.8-2.1-2.8c-0.5-0.9-0.9-1.8-1.4-2.7c-0.4-0.8-0.6-1.8-1.4-2.5
		C68.6,128.7,66.4,129.5,64.7,131.2z"/>
	<path style="fill:#162B54;" d="M43.7,67.3c-0.5-0.1-0.7,0.3-1,0.5c-0.6,0.5-1.2,1.1-1.9,1.6c-0.3,0.2-0.5,0.4-0.8,0.5
		c-1.4,0.6-1.9,0.4-2.6-0.9c-1-1.9-2-3.9-3-5.9c-0.4-0.8-0.8-1.5-1.2-2.3c-0.2-0.4-0.1-0.7,0.2-1c2.2-2.3,4.7-4.3,7-6.5
		c0.7-0.7,1.5-1.4,2.3-2.1c0.3-0.3,0.7-0.6,1-0.6c1.4,0.2,2.6-0.8,4-0.7c1.4,0.1,2.8,0.2,4.2,0.3c1,0.1,2,0.1,2.9,0.2
		c0.9,0.1,0.9,0.1,1,1c0,0.2,0.1,0.5,0.2,0.6c0.8,0.9,1,2,1,3.2c0,3.2-0.1,6.4-0.2,9.5c-0.1,3.9-0.2,7.8-0.3,11.7
		c0,1.5-0.2,3.1-0.2,4.6c0,1.5,0,2.9,0,4.4c0,0.8-0.1,1.6-0.1,2.4c0,1.2,0,2.4-0.1,3.7c0,1.4-0.1,2.9-0.1,4.3
		c0,5.4,0.1,10.9-0.1,16.3c-0.1,3.8,0.2,7.6,0.2,11.4c0,2.7-0.1,5.5-0.1,8.2c0,1.3,0.2,2.5,0.2,3.8c-0.1,4.2-0.2,8.4-0.3,12.6
		c-0.1,2.6-0.3,5.2-0.5,7.8c0,0.6,0.1,1.4-0.5,1.7c-0.7,0.5-1.6,0.9-2.5,0.8c-0.5-0.1-1-0.2-1.6-0.2c-1.5-0.1-2.9-0.2-4.4-0.1
		c-1.1,0.1-1.8-0.6-2.7-1c-0.2-0.1-0.4-0.4-0.2-0.7c0.5-0.5,0.2-1.1-0.1-1.5c-0.4-0.5-0.5-1.1-0.5-1.7c0-2.4,0-4.8,0.1-7.2
		c0-1.5,0-3,0-4.5c0-1.8,0.1-3.6,0-5.4c-0.2-4.1,0.1-8.2-0.2-12.2c-0.2-3.3-0.1-6.5-0.2-9.8c0-0.6-0.1-1.1-0.1-1.7
		c0-0.6-0.1-1.2,0-1.8c0.1-2.1,0.2-4.2,0.2-6.2c0.1-4.3,0.3-8.7,0.4-13c0.1-3,0.1-6,0.1-9.1c0.1-3.4,0.1-6.8,0.2-10.2
		C43.6,70.5,43.6,68.9,43.7,67.3z M52.6,155.7c0-0.5,0-0.8,0-1.2c0.1-4,0.2-8,0.3-12c0.1-2.3,0.2-4.6,0.2-6.9c0-2.7-0.1-5.4-0.1-8.1
		c0-3.5-0.1-6.9-0.1-10.4c0-4.2-0.1-8.5,0-12.7c0-2.4,0.1-4.8,0.2-7.2c0-1.1-0.2-2.2-0.1-3.3c0.1-3.3,0.3-6.6,0.4-9.9
		c0.1-2.8,0.2-5.6,0.3-8.4c0-1.8,0-3.6,0.1-5.4c0.1-3.7,0.3-7.4,0.4-11.1c0-0.3,0.1-0.6,0.1-0.9c0.1-1.7,0.2-3.3,0.2-5
		c0-0.6,0-0.6-0.7-0.6c-0.7,0-1.4,0-2.1,0c-1.3,0-2.5,0-3.8,0c-0.4,0-0.7,0-1.1,0c-0.6,0-1.2-0.3-1.7-0.1c-0.5,0.2-0.8,0.8-1.2,1.2
		c0,0-0.1,0-0.1,0.1c-1.8,1.6-3.7,3.2-5.5,4.8c-0.9,0.7-1.8,1.4-2.7,2.2c1.3,2.2,2.6,4.5,4,6.8c0.3-0.2,0.6-0.4,0.8-0.6
		c0.9-0.7,1.7-1.4,2.6-2.1c0.9-0.6,1.5-0.6,2.1,0.4c0.1,0.2,0.3,0.6,0.5,0.7c0.9,0.2,0.8,0.9,0.8,1.5c0,0.7,0.1,1.3,0.1,2
		c0,2.2,0,4.5,0,6.7c0,1.8,0.2,3.7,0.2,5.5c0,2.5-0.1,5-0.1,7.5c-0.1,2.7-0.2,5.4-0.3,8.1c-0.1,3.5-0.1,7-0.2,10.5
		c0,2.3-0.1,4.6-0.1,6.8c0.1,4.5,0.2,9.1,0.4,13.6c0,0.9,0.2,1.9,0.1,2.8c-0.1,1.8-0.2,3.5-0.1,5.2c0.1,3.1,0.1,6.1,0.1,9.2
		c0,2.2-0.1,4.4-0.2,6.6c0,0.9,0,1.9,0,2.8c0,0.7,0.1,0.8,0.8,0.8c1,0,2,0,2.9,0C50.8,155.5,51.6,155.6,52.6,155.7z"/>
	<path style="fill:#162B54;" d="M171.3,66.9c-0.9,0.7-1.6,1.3-2.2,1.9c-0.7,0.7-1.5,1.2-2.6,1.3c-0.6,0-1,0-1.3-0.6
		c-1.1-2.2-2.2-4.3-3.3-6.4c-0.4-0.7-0.7-1.5-1.1-2.2c-0.3-0.5-0.2-0.8,0.2-1.2c2.9-2.9,6-5.6,9-8.4c0.3-0.3,0.6-0.6,1-0.7
		c0.5-0.1,1.2,0.1,1.6-0.2c0.5-0.4,1.1-0.3,1.6-0.5c0.5-0.2,1.1-0.2,1.7-0.2c0.3,0,0.6,0,0.9,0c1.7,0.1,3.5,0.3,5.2,0.4
		c0.9,0.1,1,0.2,1.2,1.1c0.1,0.3,0.2,0.6,0.3,0.9c0.6,0.7,0.9,1.6,0.9,2.5c0,1.6,0,3.2,0,4.8c0,1.1,0,2.3,0,3.4
		c-0.1,2.6-0.2,5.1-0.3,7.7c0,2,0,4-0.1,6c0,1.3-0.2,2.6-0.2,3.9c-0.1,1.4-0.1,2.9-0.1,4.3c0,1,0,2,0,3c0,1.1,0,2.2-0.1,3.3
		c0,1.8-0.1,3.6-0.1,5.4c0,5.3,0,10.5,0,15.8c0,2.5,0,5,0,7.5c0,2.2,0.1,4.3,0.1,6.5c0,2.4,0.1,4.7,0.1,7.1c0,2.4,0.1,4.9,0.1,7.3
		c0,2.2-0.2,4.3-0.3,6.5c-0.1,1.4-0.3,2.8-0.2,4.1c0.1,1.8-0.2,3.6-0.3,5.3c0,0.8-0.3,1.3-1.1,1.5c-0.7,0.3-1.4,0.5-2.1,0.3
		c-1.9-0.4-3.7-0.3-5.6-0.2c-1.1,0.1-1.8-0.6-2.7-1c-0.3-0.2-0.4-0.5-0.1-0.8c0.3-0.4,0.2-0.9,0-1.2c-0.9-0.9-0.7-2.1-0.7-3.1
		c0-2,0.1-4,0.1-6c0-4.3-0.1-8.7-0.1-13c0-2.1,0.1-4.2,0-6.4c-0.1-3.6-0.3-7.2-0.4-10.8c-0.1-1.7-0.2-3.4-0.1-5.1
		c0.3-4,0.1-7.9,0.3-11.9c0.1-4.2,0.2-8.5,0.3-12.7c0.1-3.8,0.1-7.6,0.2-11.4C171.1,72.2,171.2,69.7,171.3,66.9z M167,67.4
		c0.3-0.3,0.6-0.4,0.8-0.6c0.9-0.7,1.7-1.4,2.6-2.1c0.9-0.7,1.5-0.6,2.1,0.3c0.2,0.3,0.3,0.7,0.6,0.8c0.8,0.2,0.7,0.7,0.7,1.3
		c0.1,3.7,0.2,7.3,0.2,11c0,2.3,0,4.7-0.1,7c-0.1,3.7-0.2,7.4-0.3,11.1c-0.1,4.7-0.2,9.5-0.2,14.2c0,2.7,0,5.5,0.1,8.2
		c0.1,3,0.2,6,0.3,8.9c0,1.1,0.2,2.2,0.1,3.3c0,1.5-0.1,3.1-0.1,4.6c0,3.1,0.1,6.2,0.1,9.3c0,3.2-0.1,6.5-0.1,9.7c0,1,0,1,1,1
		c1.6,0,3.1,0.1,4.7,0.1c0.7,0,0.7,0,0.7-0.6c0-1.5,0-3.1,0-4.6c0-1.7,0.1-3.4,0.1-5.1c0.1-3.1,0.3-6.1,0.3-9.2
		c0-2.2-0.1-4.3-0.1-6.5c0-2.5,0.1-4.9,0-7.4c-0.1-5.7-0.2-11.4-0.2-17.1c0-4.2,0.1-8.4,0.1-12.6c0-1.3,0.1-2.5,0.1-3.8
		c0-0.9,0-1.7,0-2.6c0-1.4,0.1-2.9,0.2-4.3c0.1-1.3,0.1-2.5,0.2-3.8c0.1-1.3,0.2-2.7,0.2-4c0.1-2.8,0.2-5.5,0.2-8.3
		c0-1.6,0.1-3.3,0.1-4.9c0-0.8,0.1-1.5,0.1-2.3c0.1-1.8,0.2-3.5,0.3-5.3c0-0.6-0.1-0.7-0.7-0.7c-2.3,0-4.6,0-6.8,0
		c-0.6,0-1.3-0.3-1.8-0.1c-0.5,0.2-0.9,0.9-1.4,1.3c-0.8,0.8-1.7,1.5-2.6,2.3c-0.8,0.7-1.6,1.5-2.5,2.2c-1,0.9-2.1,1.7-3.1,2.5
		C164.4,62.8,165.7,65,167,67.4z"/>
	<path style="fill:#162B54;" d="M162.6,146c-0.1,1.2-0.3,2.3-0.4,3.4c-0.1,1.1-1,1.8-1.5,2.7c-0.9,1.5-2.3,2.4-3.8,3.3
		c-1.8,1-3.6,1.6-5.6,1c-1.2-0.4-2.5-0.7-3.5-1.4c-1.7-1.3-3.6-2.6-4.6-4.6c-0.5-1.1-0.7-2.3-1-3.5c-0.5-2.1,0-4.1,0.8-6.1
		c0.2-0.6,0.7-1.1,1.2-1.5c0.9-0.8,1.8-1.6,2.8-2.4c1.5-1.2,3.2-1.6,5.1-1.6c2.2,0.1,4.1,0.6,5.8,1.9c0.8,0.6,1.6,1.4,2.3,2.2
		c1,1.3,1.8,2.7,2.1,4.4C162.4,144.5,162.5,145.3,162.6,146z M144.3,145c0,0.3,0,0.7,0.1,1c0.3,1.3,0.5,2.6,1.5,3.7
		c1.2,1.1,2.3,2.1,4,2.4c0.3,0,0.5,0.2,0.8,0.3c1.1,0.4,2.1,0.6,3.2,0.2c0.6-0.2,1.3-0.4,1.9-0.5c0.5-0.1,0.8-0.3,1.1-0.8
		c0.5-0.8,1-1.6,1.5-2.4c0.9-1.6,1.2-3.4,0.5-5.2c-0.3-0.7-0.6-1.3-0.8-2c-0.5-1.7-1.8-2.6-3.3-3.3c-3.1-0.5-6.1-0.6-8.4,2.1
		c-0.1,0.1-0.2,0.2-0.3,0.2C144.7,141.8,144.4,143.3,144.3,145z"/>
	<path style="fill:#162C54;" d="M-74.9,127.8c12.3,1.6,24.4,4.7,36.4,7.5c9.4,2.2,18.7,4.1,28.3,2.6c10.2-1.6,20.4-3.5,29.7-8.2
		c0.8-0.4,1.3-1.2,2-1.8c-0.8-0.4-1.6-0.8-2.5-1c-3.6-1-7.2-2-11.4-3.2c5.6-3.7,10.1-6.7,14.6-9.7c-0.2-0.4-0.4-0.7-0.6-1.1
		c-4.1-0.2-8.1-0.5-12.7-0.7c5.1-4.1,9.4-7.6,13.8-11.1c-5-1.2-9.8,0.5-14.4-2.7c1-0.4,1.4-0.6,1.9-0.8c4.5-1.8,8-4.8,9.9-9.4
		c0.3-0.6,0.1-1.6-0.3-2.3c-0.2-0.3-1.2-0.4-1.7-0.3c-3.8,1.2-7.5,3.2-11.4,3.7c-8,1.1-16.2,2.4-24.2,2.1
		c-8.6-0.3-17.2-2.2-25.7-3.8c-7.6-1.4-14.9-4.1-22.5-5c0,0,1.9,2,2.7,3s5.3,0.7,5.3,0.7c15.5,3.5,30.5,9.2,46.7,7.3
		c7.3-0.8,14.5-1.9,21.7-2.8c1.7-0.2,3.3-0.6,5.5-1.1c-0.5,0.9-0.6,1.5-0.9,1.6c-2.9,1.6-5.8,3.1-8.7,4.6c-0.7,0.4-1.6,1-1.8,1.6
		c-0.1,0.6,0.5,1.6,1.1,2.1c0.8,0.7,1.7,1.3,2.7,1.5c2.2,0.7,4.5,1.1,7.8,1.9c-3.8,2.5-7,4.7-10.1,6.8c-0.5,0.4-1.3,0.9-1.3,1.3
		c0,0.6,0.5,1.5,1.1,1.7c1.5,0.7,3,1.1,4.6,1.5c1.4,0.3,2.8,0.5,4.2,0.7c-2.9,2.4-6,4-9.1,5.6c-0.9,0.5-1.7,1-2.6,1.5
		c0.6,0.7,1.1,1.6,1.9,2.1c2.5,1.5,5.1,2.8,8.1,4.5c-1.1,0.7-1.4,0.9-1.8,1.1c-10,4-20.6,6.1-31.2,5.6c-8.5-0.4-17-2.4-25.5-4.1
		c-5.1-1-10.1-2.9-15.2-3.9c0,0-4-1.8-6.6-2C-69.9,125.2-74.9,127.8-74.9,127.8z"/>
	<path style="fill:#162C54;" d="M147.8-5.4c-1.6-2.2-4.9-8.5-8.1-8.7c-1.1,0-1.4,0.3-2,1.2c-0.8,1.2-1.1,2.8-1.8,4.1
		c-0.7,1.3-1.8,2.3-2.5,3.6c-1.4,2.6-0.9,5.2,1.8,6.5c0,0,0.1,0,0.1,0c-0.4,0.5-0.5,1.3,0.1,1.8c4.8,4.1,6.7,10.7,12.4,13.9
		c0.6,0.3,1.2,0.2,1.7-0.3c2.9-3.4,6.5-5.9,10.6-7.7c0.8-0.4,0.9-1.6,0.2-2.1C155.4,3.5,151.3-0.5,147.8-5.4z M148.4,14.5
		c-4.9-3.3-7-9.4-11.5-13.3c-0.1-0.1-0.2-0.1-0.3-0.2c0.4-0.6,0.4-1.6-0.5-2c-2.4-1.2,1.9-6.5,2.5-7.8c0.1-0.2,1.1-3,0.8-2.9
		c1.2-0.5,5.9,6.9,6.6,7.8c3.2,4.5,7,8.3,11.4,11.6C154,9.4,151,11.7,148.4,14.5z"/>
	<path style="fill:#162C54;" d="M215.7,169.8c-4.3,0.4-8.7,0.4-13-0.2c-2.3-0.4-4.6-0.9-6.9-1.6c-1.2-0.4-2.8-1.3-4.1-1.3
		c-4.7-0.1-6.1,9.6-7,13c-0.4,1.6,2,2.5,2.4,0.9c0.7-2.9,1.5-6.6,3-9.2c1.5-2.5,2.3-1.7,4.7-1c1.4,0.4,2.9,0.8,4.3,1.1
		c4.8,1.1,9.7,1.3,14.6,1c-1.8,3.9-3.7,7.8-5.5,11.7c-5-1.7-10.1-3.2-15.3-4.3c-1.6-0.4-1.8,2.2-0.2,2.6c5.4,1.2,10.6,2.7,15.8,4.6
		c0.7,0.2,1.4-0.1,1.7-0.8c2.3-4.9,4.6-9.8,7-14.7C217.6,170.6,216.6,169.7,215.7,169.8z"/>
	<path style="fill:#162C54;" d="M75.9,176.4c-0.2-2.4-0.2-5.1-2-6.9c-0.3-0.3-0.9-0.4-1.3-0.3c-3.5,1-6.3,4.4-9.7,5.8
		c-3.6,1.4-6.3,4.3-9.9,5.6c-0.7,0.2-1.1,1-0.8,1.7c1.6,4.2,3,8.5,4.1,12.8c0.4,1.7,3,0.8,2.5-0.9c-1.1-4-2.3-7.8-3.7-11.7
		c1.3-0.6,2.4-1.4,3.5-2.2c2.4-1.7,4.8-2.5,7.4-3.7c1.6-0.7,3-1.8,4.4-2.9c3.2-2.5,2.7,0.5,2.9,3.4c0.1,1.8,0.6,3.4,0.9,5.2
		c0.2,1.3,0.9,0.8,0.2,1.8c-0.6,0.8-3.6,1.8-4.6,2.3c-3.2,1.4-6.7,2-8.9,5c-1,1.4,1,3.2,2,1.8c2.1-2.9,6.4-3.5,9.5-5.1
		c1.5-0.8,4.9-1.8,5.3-3.8c0.1-0.6-0.2-0.9-0.2-1.4C77.1,180.8,76.1,178.7,75.9,176.4z"/>
</g>
</svg>
