<svg version="1.1" viewBox="0 0 997.5 795" xmlns="http://www.w3.org/2000/svg" >
<g>
	<path fill-rule="evenodd" clip-rule="evenodd" fill="none" stroke="#FFFFFF" stroke-miterlimit="10" d="M237.8,479.9
		c-23.7-26.6-27.8-74.8,5.4-104.2c33.2-29.4,60.2-40.1,60.2-40.1s13.6-4.3,17.9-21.7c4.3-17.4,21.2-65.1,66.7-75.4
		s63.3-21.7,185.7,3.3s171.2,79.8,178.3,109c7.1,29.3,26.5,105.2-55.4,131.3s-78.1,0-173.6,43.4s-74.5,36.5-135.4,38.3
		S261.5,506.6,237.8,479.9z"/>
	<path fill-rule="evenodd" clip-rule="evenodd" fill="none" stroke="#FFFFFF" stroke-miterlimit="10" d="M425.5,325.8
		c0,0,51.9-2.7,125.3,15.7S655.4,371,665,378.2c9.7,7.2,19.3,21.3-19.8,24.9c-39.1,3.6-127.2,11.7-156.1,26.1
		c-28.9,14.4-62.1,44.6-81.5,44.4c-19.5-0.2-76.5-3.9-71.6-29.1c4.9-25.3,56.4-32.7,76-38.5c19.5-5.8,90.6-11.2,109.6-16.6
		s43.7-17.4-18.8-43.9C502.7,345.4,463.3,328.2,425.5,325.8z"/>
	<path fill-rule="evenodd" clip-rule="evenodd" fill="none" stroke="#FFFFFF" stroke-miterlimit="10" d="M436.9,367.6
		c0,0-46.1-8.7-52.1-32c-6-23.3,11.4-42.7,57-39.5c45.6,3.2,114.5,2.6,162.2,19.4c47.7,16.8,98.7,32.6,97.1,72.2
		s-55.9,44.9-55.9,44.9s-91.7,8.3-116.1,23c-24.4,14.6-103.1,52.6-124.2,54.8c-21.2,2.2-50.2-2.2-78-22.8
		c-27.8-20.6-46.6-52-24.5-73.6C310.5,405.9,388.1,371.4,436.9,367.6z"/>
	<path fill-rule="evenodd" clip-rule="evenodd" fill="none" stroke="#FFFFFF" stroke-miterlimit="10" d="M353.4,348.1
		c0,0-97.1,32-96.6,78.7c0.5,46.7,22.8,73,92.2,108.2c69.3,35.2,147.7-48.5,238.8-66.9c91.1-18.4,145.4-5.4,143.8-79.2
		s-77.6-87.4-98.7-95s-128-43.9-195.3-35.2S334.9,298.7,353.4,348.1z"/>
	<path fill-rule="evenodd" clip-rule="evenodd" fill="none" stroke="#FFFFFF" stroke-miterlimit="10" d="M253.1,536.3
		c-19.8-17.2-72.3-58.5-60.9-130.4c5.4-34.3,58.1-70.3,72.7-79c14.6-8.7,17.2-10.2,23.6-30.8c13.4-43.5,52.8-73,52.8-73
		c13.1-10.7,58.5-19.7,79.4-22.1s73.5,1.1,73.5,1.1c84.4,3.8,198.8,29.3,251.4,76c52.6,46.7,54.3,130.2,46.1,165
		c-8.1,34.8-40.7,49.9-90.6,67.7c-49.9,17.9-123.7,26.1-159,37.1c-35.3,11-43.7,17.2-96.2,43.7S272.9,553.5,253.1,536.3z"/>
	<path fill-rule="evenodd" clip-rule="evenodd" fill="none" stroke="#FFFFFF" stroke-miterlimit="10" d="M209,539
		c-49.9-33.8-50.4-119.3-50.4-119.3c9.4-83.9,88-117.2,97.9-128.7c9.9-11.5,42.2-111.6,151-117.5c108.8-5.8,197.7,14.1,197.7,14.1
		s108.7,22.7,159.2,69.6c50.5,46.8,67.5,71.7,64.2,143.1S789.5,533,689.7,552.8s-60.8-1.7-156.2,38.1c0,0-106.3,58.4-182.4,23.9
		S258.9,572.8,209,539z"/>
	<path fill-rule="evenodd" clip-rule="evenodd" fill="none" stroke="#FFFFFF" stroke-miterlimit="10" d="M189.8,557.7
		c-57.8-48.9-69.2-162.4-37.7-216.1s51.8-57.8,62.5-68.7c10.7-10.8,52.7-71.2,99.3-106.6s126.1-22.7,242-13.3s208.5,67.9,208.5,67.9
		c66,35.6,91.9,100,94.6,163c2.7,62.9-26,106.9-50.5,142.7c-24.4,35.8-88.4,52.1-130,58.2c-41.6,6.1-85.1,19.1-85.1,19.1
		c-17.2,0.7-81.6,58-196.6,44.5S247.6,606.6,189.8,557.7z"/>
	<path fill-rule="evenodd" clip-rule="evenodd" fill="none" stroke="#FFFFFF" stroke-miterlimit="10" d="M132.7,541.9
		c-62.7-93.3-47.7-126.7-35.9-164s81.1-117.1,81.1-117.1s81.7-142.2,251.3-151.2c204.3-10.8,389.2,101.5,411.2,136.4
		c0,0,40.8,49.5,46.8,116.7c6,67.1,18.3,171.9-119.7,228.2c-15.9,6.5-141.2,45.4-157.8,48.1s-87.3,51-151.3,47.9
		c-64-3.1-180.8-19.7-233.6-57.3S132.7,541.9,132.7,541.9z"/>
	<path fill-rule="evenodd" clip-rule="evenodd" fill="none" stroke="#FFFFFF" stroke-miterlimit="10" d="M116.6,574.1
		c-40.3-61.7-59.4-131.6-50.2-192.9s57.3-102,71.2-124.8c13.9-22.8,43.9-77.9,120.8-128.9S439.3,74.9,545.8,83
		s256.4,37.3,349.3,205.6c27.2,49.4,24.9,127.1,24.9,127.1c-9.4,118.8-68.5,156.3-68.5,156.3c-133.8,77.9-205,101.2-242.1,111.9
		c-37.1,10.7-120.8,69.4-249.3,31.8C231.6,678,156.8,635.8,116.6,574.1z"/>
	<path fill-rule="evenodd" clip-rule="evenodd" fill="none" stroke="#FFFFFF" stroke-miterlimit="10" d="M82.7,287.4
		c-2.2,3.7-34.8,35.2-45.6,93.8s12.7,150.4,66.1,220.5c0,0,77.8,84.3,209.9,131.8c132,47.4,187.5,22.8,245.7,11.2
		s209-87.7,312.6-167.8c164.6-127.4,48.3-295,45.8-300.3c-5.7-12.1-62.4-158.4-260.6-207.3s-377.8-30-450,45.2
		S82.7,287.4,82.7,287.4z"/>
	<path fill-rule="evenodd" clip-rule="evenodd" fill="none" stroke="#FFFFFF" stroke-miterlimit="10" d="M59.6,240.5
		c0,0-36.6,57.2-46.9,108.7s-17.9,79.8-8.1,127.5s69.9,136.8,78,149S227.1,754.5,375.7,784s217.1-18.4,287.3-32.7
		s217.5-150.8,249.4-174.6c164.2-122,47.5-295.2,44.6-300.3c-20-35.4-84.5-148.2-140.6-182.3S547.3-11.4,414.7,3.5
		s-254.9,90.7-302,160.6S59.6,240.5,59.6,240.5z"/>
</g>
</svg>
