<svg viewBox="0 0 400 171" xmlns="http://www.w3.org/2000/svg" role="image">
<g id="Fills1">
	<path style="fill-rule:evenodd;clip-rule:evenodd;fill:#d8e7ff;" d="M129,112c-8.8,0-16-10-26.8-4.9c-10.8,5.1-22,6.3-26.9,6.3
		c-3.3,0-8.9,0-16.9,0c2.2,4.3,5.7,4.3,7.4,6.5c2.5,3.3,0.6,6-7.4,5.1C50,124,15.8,128.8,19,132c3,3,64.1,9.7,78.5,9.7
		c14.4,0,59.1-3.7,74.5-3.7s83.1,7,90.9,7c7.8,0,89.8-12.4,98.1-11c6,1,7-7,6-14c-0.9-6.6-10.9-4.5,3-13c-24.1,0-38.7,0.1-51.6,0.1
		c-19.3,0-45.6,3-45.6,3s-36.4,0-62.7-3c-19.7,6.3-47.9,9.1-51.4,9.1C151.3,116.1,137.8,112,129,112z"/>
</g>
<g id="Fills2">
	<path style="fill-rule:evenodd;clip-rule:evenodd;fill:#d8e7ff;" d="M128.4,112.5c-8.8-0.1-15.2-12.6-27.4-6.5c-10,5-23.1,7-28,7
		c-3.3,0-8,0.1-16,0c2.2,4.3,4.3,6,7,6c4.1,0,1.8,5.8-6.6,5.8c-8.4-0.1-40.9,4.5-38.4,8.2c2,3,62.6,8.9,77,9
		c14.4,0.1,40.9-4.1,56.3-4c15.4,0.1,108,6.9,115.7,7s82.3-8.5,90.3-11s10.7-6,7.7-15c-1-3-3.4-7.2,3-12c-4,3-24-4-47-1
		c-19.1,2.5-49,4-49,4s-33.7,1.2-60-2c-19.8,6.1-51.7,8.8-55.1,8.8C150.4,116.8,137.2,112.6,128.4,112.5z"/>
</g>
<g id="Fills3">
	<path style="fill-rule:evenodd;clip-rule:evenodd;fill:#d8e7ff;" d="M128.1,111.6c-8.8,0.1-16.3-9.9-27.1-4.7
		c-10.8,5.2-21.9,6.5-26.9,6.5c-3.3,0-8.9,0.1-16.9,0.1c2.2,4.3,6.1,4.1,7.4,6.4c1.3,2.1,1.1,4.5-7.3,5.2
		c-8.3,0.7-44.9,4.5-41.4,7.9c1,1,66.3,8.7,80.7,8.6c14.4-0.1,44-2.4,59.3-2.6s100.2,5.1,108,5s84.6-11,93-11c8,0,9.9-4,9-14
		c-0.2-1.7-8-3.6,4-12c-10-2-32.2-1.1-45-1c-19.3,0.2-55,4-55,4s-36.6-3.9-63-1c-19,2.1-43,8-49,7
		C150.6,114.8,137,111.5,128.1,111.6z"/>
</g>
<g id="Lines">
	<path style="fill:#002955;" d="M352.4,79.6c1.3-1.5,2.4-3,3.3-4.8c2.3-4.4,4.5-8.7,5.1-13.7c0.4-3.1,0.6-6.2-0.3-9.3
		c-1.2-4-2.8-7.9-5.3-11.3c-0.6-0.8-1.3-1.5-2.1-2c-1.7-1-3.4-2-5.2-2.9c-1.9-0.9-3.8-1.8-5.7-2.5c-4.4-1.4-8.9-2.6-13.3-4
		c-5.8-1.8-11.5-3.7-17.4-5.5c-3.4-1-6.9-1.9-10.5-2.5c-4.9-0.8-9.8-1.2-14.8-1.7c-8.3-0.9-16.5-2-24.7-3.5
		c-6.3-1.1-12.5-2.6-18.9-3c-4.1-0.3-8.2-0.9-12.3-1.3c-2.7-0.3-5.4-0.4-8-0.6c-2.7-0.3-5.3-0.6-8-0.9c-1.3-0.2-2.6-0.2-3.9-0.4
		c-3.1-0.6-6.1-1.3-9.2-1.8c-6.3-1-12.6-1.1-18.9-0.8c-4.1,0.2-8.3,0.4-12.4,0.7c-3.1,0.2-6.2,0.4-9.3,0.9
		c-4.5,0.8-8.9,1.8-13.3,2.7c-2.7,0.5-5.4,0.9-8.1,1.5c-3.3,0.7-6.3,2.4-9.2,4.2c-2.6,1.6-5.3,3.3-7.8,5.1c-2.6,1.8-5,3.8-7.4,5.8
		c-1.5,1.2-2.8,2.7-4.3,4c-2.9,2.7-5.7,5.4-7.8,8.8c-1.1,1.7-2.1,3.5-3.1,5.3c-0.4,0.7-0.8,1.5-1.2,2.2c-0.4,0.8-0.9,1.6-1.3,2.5
		c-0.2,0.5-0.5,1-0.6,1.5c-0.2,0.8-0.1,1.8-0.3,2.6c-1.1,3.7-1.3,7.5-1,11.3c0.3,3.7,0.6,7.5-0.1,11.2c-0.2,1.1-0.1,2.1,0.4,3.1
		c0.7,1.8,1.3,3.6,2,5.4c0.5,1.3,1.1,2.6,1.7,4.1c0.3-0.7,0.5-1.1,0.7-1.4c0.9-1.3,1.5-2.6,0.6-4.1c-0.2-0.3-0.1-0.7-0.1-1
		c-0.1-2.1,0-4.2-0.2-6.3c-0.3-3.6-0.6-7.2-1-10.7c-0.2-2.5-0.5-5-0.8-7.5c-0.1-1.1-0.3-2.3-0.2-3.3c0.2-1,0.8-2,1.3-2.9
		c0.1-0.2,0.6-0.3,0.9-0.2c0.2,0,0.3,0.4,0.4,0.6c0.1,0.8,0.2,1.6,0.2,2.4c0.2,2.3,0.4,4.6,0.6,7c0.4,3.9,0.9,7.9,1.3,11.8
		c0.3,3.7,0.3,7.5-0.3,11.1c-0.2,1-0.8,1.9-1.1,2.9c-0.5,2-0.2,4,0.1,6c0.1,0.3,0.4,0.6,0.6,0.8c1.6,1.6,3.2,3.2,4.9,4.7
		c0.8,0.7,1.6,1.3,2.9,1.1c1.8-0.4,3.7-0.5,5.5-0.8c0.3,0,0.7,0.1,1,0.1c-0.4,0.4-0.8,0.5-1.3,0.6c-1.5,0.4-3.1,0.7-4.6,1.1
		c-0.3,0.1-0.7,0.4-0.6,0.6c0.1,0.8,1.7,1.8,2.5,1.7c2.7-0.5,5.5-1,8.2-1.4c1.2-0.2,2.4,0.1,3.6,0.2c0,0.1,0,0.3,0,0.4
		c-3.3,0.7-6.6,1.5-9.9,2.2c0,0.1,0,0.2,0,0.3c1.1,0.6,2,1.7,3.5,1.5c1.9-0.3,3.8-0.8,5.8-1c1.1-0.1,2.3,0,3.4,0c0,0.1,0,0.2,0,0.3
		c-2.6,0.5-5.1,1.1-7.7,1.6c0,0.1,0,0.3,0,0.4c0.6,0.3,1.2,0.7,1.9,0.8c3.1,0.6,6.2,1.2,9.3,1.7c5.8,1,11.7,1.2,17.5,1.4
		c1.4,0,2.9-0.1,4.3-0.1c2,0,4,0.3,6,0.1c4.9-0.4,9.9-0.9,14.8-1.5c4-0.5,8-1.1,11.9-2c5.3-1.3,10.6-3.1,15.8-4.7
		c0.8-0.2,1.7-0.4,2.5-0.6c2.8-0.8,5.4-2.2,8.4-2.2c1.4,0,2.7-0.5,4.1-0.9c1.2-0.3,2.3-0.8,3.5-1c2-0.5,4.2-0.7,6.1-1.8
		c0.3-0.2,0.7-0.2,1.3-0.3c-0.9,1-1.5,1.7-2.2,2.4c-0.1,0.1-0.2,0.3-0.3,0.5c0.2,0.1,0.4,0.2,0.6,0.1c1.3-0.2,2.5-0.7,3.9-0.7
		c2.3-0.1,4.5-1.1,6.7-1.6c0.3-0.1,0.7,0.1,1,0.1c-0.3,0.2-0.5,0.5-0.8,0.6c-2.2,0.9-4.5,1.8-6.7,2.7c-0.9,0.4-1.8,0.8-2.7,1.2
		c0,0.1,0.1,0.2,0.1,0.4c2.3-0.5,4.6-0.9,6.9-1.4c3-0.7,5.9-1.5,8.9-2.2c0.2,0,0.4,0,0.6,0c-0.1,0.2-0.2,0.4-0.4,0.5
		c-0.5,0.3-0.9,0.7-1.5,0.8c-2.7,0.9-5.3,1.7-8,2.5c-0.3,0.1-0.5,0.2-0.8,0.3c1.2,0.3,2.3,0.3,3.5,0.5c1.7,0.3,3.2,0.1,4.8-0.5
		c1.4-0.5,2.8-1.5,4.5-1c-1.5,0.7-2.9,1.3-4.3,2c2.5,1.2,4.7,0.4,6.9-0.5c0.9-0.4,1.8-0.9,3.1-0.3c-0.8,0.3-1.4,0.5-2,0.8
		c-0.5,0.2-1.1,0.5-1.6,0.7c0,0.1,0.1,0.3,0.1,0.4c3.2,0.2,6.4,0.5,9.6,0.6c3.1,0.2,6.1,0.2,9.2,0.4c1,0,1.5-0.2,1.5-1.4
		c0-1.2,0.1-2.5,0.2-3.7c0.1-3.2,0.2-6.5-0.9-9.6c-0.7-2-1.4-4-2.1-6c-0.9-2.4-1.9-4.8-2.6-7.3c-0.6-2.2-0.9-4.4-1.3-6.7
		c-0.1-0.6-0.3-1.2-0.4-1.8c-0.2,0.1-0.3,0.1-0.4,0.2c-0.1,0.2-0.3,0.3-0.4,0.5c-2.1,2.8-4.6,5.2-7.5,7.1c-1.7,1.1-3.6,1.6-5.6,1.6
		c-0.4,0-0.9-0.2-1.3-0.5c-0.4-0.2-0.5-0.4-0.7,0.2c-0.4,2-1.5,3.5-3.2,4.6c-1.5,1-3.6,0.5-4.6-0.9c-0.7-1-0.5-2-0.5-3.1
		c-0.1-1.9,0.2-3.7,0.7-5.5c0.6-2.2,0.9-4.4,1.3-6.7c0.1-0.8,0.1-1.7,0.2-2.8c-0.4,0.4-0.6,0.6-0.7,0.8c-0.9,1.4-1.8,2.9-2.9,4.2
		c-2.1,2.4-4.2,4.8-6.5,7.1c-1.1,1.1-1.8,0.7-2-0.9c0,0-0.1-0.1-0.2-0.1c-0.1,0.1-0.2,0.2-0.2,0.4c-0.5,1.5-0.7,3.1-1.4,4.5
		c-0.7,1.4-1.8,2.7-3,3.8c-1.2,1.1-2.9,0.9-3.9,0c-0.7-0.7-0.9-2.9-0.3-3.9c0.1-0.2,0.5-0.3,0.6-0.3c0.6,0.2,0.7-0.2,0.7-0.7
		c0-0.5,0.1-1,0.1-1.5c0.2-1.6,0.5-3.3,0.6-4.9c0.1-1.4-0.1-2.8-0.1-4.2c-0.1-2.1,0.1-4.3-0.3-6.4c-0.6-3.1-1.5-6.2-2.3-9.3
		c-0.6-2.3-1.2-4.6-1-7.1c0.1-1.1-0.3-2.2-0.5-3.4c-0.1,0-0.2,0-0.3,0c-0.6,1.4-1.8,2-3.2,2.3c-0.4,0.1-0.9,0.2-1.2,0.5
		c-5.7,4.3-8.4,10.4-9.9,17.2c-0.5,2.1-0.9,4.2-1.3,6.2c-0.1,0.7-0.4,1.4-1.3,0.3c0,0.6,0,1,0,1.4c0.3,2.7,0.6,5.3,1.1,8
		c0.1,0.5,0.6,1,0.9,1.5c0.4-0.4,0.8-0.8,1-1.2c0.2-0.4,0.4-0.8,0.4-1.3c0.1-0.9,0.1-1.9,0.2-2.9c0.7-7.4,2.6-14.5,6-21.2
		c0.9-1.8,2.2-3.5,3.5-5c0.8-0.9,2-1.3,3-1.9c0.3-0.1,0.8,0.2,1.2,0.3c-0.2,0.4-0.2,1-0.5,1.3c-3,2.6-4.3,6.2-5.7,9.7
		c-0.2,0.4-0.1,1.1,0.2,1.4c1.2,1.9,2.6,3.7,3.8,5.6c1.7,2.7,3.3,5.5,4.9,8.3c0.2,0.4,0.2,0.9,0.3,1.3c-0.8-0.7-1.5-1.3-2-2.1
		c-1.1-1.9-2-4-3.5-5.7c-1.6-1.8-3-3.7-4.4-5.6c-0.4-0.6-0.7-0.4-0.9,0.2c-0.2,0.7-0.5,1.4-0.6,2.1c-0.1,0.3,0.1,0.6,0.3,0.8
		c0.5,0.7,1,1.3,1.6,1.9c3.3,3.8,5.7,8.2,8.2,12.5c0.1,0.2-0.1,0.6-0.1,1c-0.3,0-0.7,0-0.8-0.1c-1-1-2.1-2-3-3.1
		c-1.5-2-2.9-4.1-4.4-6.1c-0.6-0.9-1.4-1.7-2.1-2.5c-0.4-0.4-0.7-0.5-0.8,0.1c-0.4,1.6-0.8,3.2-1.2,4.9c-0.6,2.5-1,5.1-1.7,7.5
		c-0.4,1.5-1.2,3-3.1,3.4c-0.3,0.1-0.6,0.7-0.6,1c-0.1,1.3-0.7,2.3-1.5,3.1c-1.1,1.2-2.6,1.3-4,0.3c-0.2-0.2-0.5-0.3-0.8-0.4
		c-1.2-0.2-2-1.3-2.1-2.5c-0.3-2.9-0.5-5.8-0.9-8.6c-0.5-3.5-1.3-7.1-1.8-10.6c-0.8-5.9-1.6-11.9-2.3-17.8c-0.1-1.1,0-2,0.9-2.8
		c0.6-0.6,1.3-1.1,1.9-1.8c1.1-1.2,2.4-1.6,3.5-1.2c1.6,0.6,2.6,1.9,2.7,3.5c0.1,2.2,0.1,4.4,0.4,6.6c0.3,2.6,0.9,5.1,1.4,7.6
		c0.2,1.1,0.4,2.1,0.6,3.2c0.1,0,0.1,0,0.2,0c1.1-3.5,2.2-7.1,3.3-10.6c-0.2-0.2-0.5-0.4-0.9-0.7c-1.3-1.2-1.9-3.2-3.9-3.9
		c-0.2-0.1-0.4-0.5-0.4-0.7c0.2-0.5,0.4-1.2,0.7-1.3c0.4-0.1,1.2,0.1,1.5,0.5c1.3,1.5,2.5,3.2,3.7,4.7c0.9-1.1,1.7-2.3,2.7-3.5
		c2-2.3,4.6-3.8,7.2-5.3c1-0.6,2.2-0.9,3.5-1.4c0.1-0.3,0.2-1,0.5-1.5c0.8-1.6,2.6-1.7,3.7-0.3c1.1,1.3,2.4,2.4,3.2,3.9
		c0.1,0.1,0.3,0.2,0.4,0.3c0.9,0.7,1.9,1.3,2.8,2c3.1,2.5,6.2,5,9.3,7.5c0.5,0.4,0.9,0.3,1.2-0.2c0.3-0.6,0.6-1.3,1.1-1.7
		c0.7-0.7,0.6-1.3,0.4-2.2c-0.3-1.7-1.2-3.4-0.6-5.3c0.3-0.8,0.6-1.3,1.5-1.4c1.1-0.1,2.1,0.2,3,0.8c0.4,0.3,0.6,0.3,0.8-0.3
		c0.5-1.3,1.2-1.3,2-0.2c2,2.7,2.5,5.9,2.9,9c0.5,3.5,0.5,7,0.5,10.5c0,4.4-0.3,8.9-1.7,13.1c-0.3,0.8-0.5,1.6-0.8,2.5
		c1-0.1,1.8-0.1,2.6-0.3c0.5-0.1,1-0.3,1.4-0.6c4.7-3.1,7.7-7.7,10.9-12.2c0.1-0.2,0.1-0.5,0.2-0.7c0.3-1.7,0.6-3.4,0.8-5.1
		c0.1-0.6,0.2-1.3,0.3-1.9c-0.1,0-0.2,0-0.3-0.1c-0.2,0.7-0.3,1.5-0.7,2.1c-1.2,1.8-2.4,3.7-3.8,5.3c-1.7,2-3.6,3.8-5.4,5.7
		c-0.6,0.6-1.3,1-2.1,1.4c-0.4,0.2-1.1,0.3-0.9-0.6c0.3-0.9,0.7-1.9,1.3-2.7c1-1.3,2.3-2.5,3.4-3.8c1.9-2.4,3.9-4.8,5.7-7.2
		c0.7-0.9,0.8-1.9,0.1-3.2c-1.9-3.6-5-6.4-6.1-10.4c0-0.1-0.2-0.2-0.3-0.3c-0.8-0.4-1-1.1-0.7-1.7c0.2-0.5,0.7-1,1.2-1.1
		c1.2-0.2,2.5-0.3,3.7-0.2c0.5,0,1.1,0.4,1.4,0.8c1.3,1.3,2.5,2.7,3.7,4.1c1.1,1.5,2.6,2.9,2.7,5c0.7-1,1.2-2,1.9-2.8
		c1.4-1.4,2.9-2.7,4.3-4c0,0,0.1-0.1,0.2-0.1c1.4-0.1,2.8-0.3,4.3-0.3c0.5,0,0.7,0,0.7-0.6c0-0.8,0.1-1.6,0.2-2.4
		c0.4-2.1,3-3.1,4.8-2c1.1,0.7,1,1.7,1.4,2.6c1.9,3.9,2.5,8.1,2.6,12.3c0.1,3.5-0.3,7.1-0.7,10.6c-0.5,4.7-1.9,9-4.8,12.7
		c-0.2,0.2-0.2,0.8,0,1.1c0.6,1,1.4,2,2,3c0.2,0.4,0.1,0.9,0,1.4c0,0.6-0.3,1.2-0.2,1.7c0.6,2.2,1.2,4.4,2,6.6
		c1.1,3,2.2,5.9,3.4,8.8c1.2,2.7,0.7,5.4,0.2,8.1c-0.1,0.3-0.2,0.6-0.4,0.8c-1.8,1.5-3.1,3.7-5.6,4.4c-0.1,0-0.2,0.2-0.3,0.3
		c-0.6,0.6-1.3,1.1-1.9,1.7c-0.2,0.3-0.3,1-0.1,1.2c1.2,1.5,2.5,2.8,3.8,4.2c1.4,1.5,2.9,2.9,4.2,4.4c1.7,2,3.5,3.7,5.7,5.1
		c2.5,1.6,5.2,2.5,8.1,3c3,0.6,6.1,0.5,9.2,0.3c3.8-0.2,7.4-1,10.9-2.3c2-0.7,4.1-1.4,6.2-1.7c3.6-0.5,7.2-0.6,10.8-1
		c3.2-0.4,6.1,0.6,8.8,2.1c2.2,1.2,4.2,2.7,6.3,4c1.6,1,3.3,1.9,5,2.9c2.6,1.7,5.1,3.6,7.7,5.2c1.2,0.7,2.5,1.3,3.8,1.6
		c1.8,0.4,3.7,0.4,5.5,0.8c2.5,0.7,4.9,1.5,7.3,2.4c1.2,0.4,2.2,1.3,3.4,1.6c1.5,0.4,2.2,2.1,3.9,1.9c0,0,0.2,0.2,0.2,0.2
		c-0.1,0.9-0.1,1.9-0.3,2.8c0,0.2-0.4,0.4-0.5,0.4c-0.2,0-0.4-0.3-0.4-0.5c-0.1-0.6-0.1-1.2-0.3-1.8c-0.1-0.3-0.3-0.6-0.5-0.7
		c-4.5-0.9-9.1-1.5-13.4-3.3c-0.3-0.1-0.8-0.1-0.9,0.1c-0.2,0.4-0.2,0.9-0.2,1.3c0.1,0.2,0.5,0.4,0.8,0.5c0.5,0.1,1.1,0.1,1.6,0.2
		c1,0.2,1.9,0.5,2.9,0.8c2.2,0.7,4.5,1.4,6.7,2.1c0.8,0.3,1.6,0.7,2.4,1.1c0.3,0.2,0.5,0.5,0.7,0.8c-0.3,0.1-0.6,0.3-0.9,0.4
		c-0.3,0.1-0.6,0-0.8,0c-3.2-0.4-6.4-0.7-9.4-2.2c-0.7-0.3-1.7-1.2-2.5,0c-0.1,0.1-0.5,0-0.8,0c-0.3,0-0.6-0.2-0.9-0.2
		c-1.9,0.1-3.8-0.1-5.6-1c-0.3-0.2-0.7-0.2-1.1-0.3c-1.7-0.6-3.4-1-5-1.9c-1.9-1.1-3.6-2.5-5.3-3.8c-2.5-1.9-4.8-4-7.4-5.9
		c-0.9-0.7-2.1-1.2-3.2-1.3c-2.3-0.2-4.7-0.1-7.1-0.1c-4.2,0.1-8.3,0.4-12.4,1.3c-3.2,0.7-6.4,1.3-9.6,1.7c-5.9,0.7-11.8,1-17.8,0.8
		c-3-0.1-5.7-0.9-8.3-2.2c-2-1-3.8-2.1-5.8-3.2c-2.3-1.3-4.4-2.6-6-4.9c-0.9-1.3-1.8-2.5-2.8-3.6c-1.6-1.9-3.2-3.7-4.8-5.5
		c-0.4-0.5-0.8-1.4-1.3-1.4c-0.6-0.1-1.4,0.4-2,0.7c-0.1,0-0.1,0.1-0.2,0.1c-1.9,1-3.7,2.1-5.6,3c-1.4,0.6-2.6,1.5-3.6,2.6
		c-0.8,0.9-1.7,1.7-2.6,2.5c-3.1,2.6-6.2,5.3-9.4,7.9c-0.7,0.6-1.4,1.3-2.2,1.6c-2.6,1.3-5.3,2.5-8,3.6c-3.2,1.4-6.7,2-10.2,2.3
		c-2.4,0.2-4.9,0.5-7.3,0.9c-4.5,0.8-8.9,1.6-13.5,1.4c-2.1-0.1-4.2,0.3-6.2,1.2c-2.1,1-4.2,1.9-6.3,2.9c-5.6,2.5-11.3,5.1-16.9,7.6
		c-3.8,1.7-7.6,3.3-11.7,4.1c-1.4,0.3-2.8,0.2-4.1,0.5c-1.4,0.3-2.7-0.1-3.9-0.8c-0.3-0.2-0.6-0.3-0.9-0.2c-0.7,0.1-1.4,0.3-2,0.4
		c-2.6,0.4-5.3,0.8-8,1.1c-0.9,0.1-1.8-0.2-2.4,0.7c-0.1,0.2-0.5,0.3-0.8,0.4c-2.6,0.6-5.2-0.8-5.9-3.4c-0.2-0.8,0-2,0.5-2.6
		c0.4-0.5,1.6-0.2,2.4-0.3c0.4,0,0.8,0.2,1.2,0.1c2.5-0.2,4.9-0.5,7.4-0.8c0.5-0.1,1.2-0.2,1.3-0.5c0.6-1.2,1.7-1.3,2.8-1.6
		c0.3-0.1,0.7-0.3,1-0.5c0.5-0.3,1-0.8,1.5-1c1.2-0.5,2.5-0.9,3.8-1.2c3.4-0.8,6.9-1.3,10-3c1.5-0.8,3.1-1.5,4.7-2.1
		c4.1-1.5,7.6-4.1,11.1-6.4c2.8-1.8,5.6-3.3,8.8-4.2c1.3-0.4,2.5-0.8,3.8-1.1c2.2-0.6,4.4-1.4,6.6-1.6c5.6-0.5,11.2-0.6,16.8-1
		c2.4-0.1,4.9-0.2,7.3-0.8c2.5-0.6,5-1.8,7.4-2.8c1.2-0.5,2.5-1.1,3.6-1.9c1.5-1.1,2.7-2.4,4.1-3.6c3.3-2.6,6.5-5.2,9.9-7.5
		c2.3-1.6,4.9-2.8,7.4-4c1.8-0.9,3.7-1.6,5.5-2.4c0.4-0.2,0.8-0.5,1.3-0.8c-0.4-0.1-0.6-0.3-0.7-0.3c-2.6-0.2-5.3-0.3-7.9-0.5
		c-2.7-0.2-5.3-0.6-8-0.9c-5.7-0.6-11.3-1.1-17-1.7c-4.9-0.5-9.9-1.1-14.8-0.4c-3.1,0.5-6.2,0.8-9.3,1.3c-1.9,0.3-3.8,0.8-5.6,1.1
		c-2.5,0.4-5.1,0.6-7.6,1.2c-5.9,1.3-11.8,3-17.8,3.6c-4.9,0.5-9.8,1.4-14.8,1.7c-5.2,0.3-10.4,0.2-15.6,0.1c-2.9,0-5.7-0.2-8.6-0.5
		c-3.6-0.4-7.3-0.9-10.9-1.4c-5.7-0.8-11-2.9-15.6-6.3c-1-0.7-2-1.4-2.9-2.2c-1-1-1.9-2.1-3-3.1c-1-0.9-2.2-1.7-3.2-2.7
		c-1.5-1.4-3.1-2.9-4.5-4.5c-2.1-2.4-3.5-5.4-4.6-8.4c-0.5-1.3-0.3-2.9-0.5-4.3c0-0.4-0.2-0.9-0.5-1c-1.2-0.7-1.8-1.7-1.8-3.1
		c0-0.4,0-0.8,0-1.3c0-2.8,0.2-5.6-0.1-8.4c-0.7-6.5,0-12.7,2.3-18.8c0.7-1.9,1.5-3.8,2.4-5.6c0.6-1.3,1.5-2.4,2.3-3.6
		c0.4-0.6,0.8-1.1,1.2-1.7c0.8-1.4,1.4-2.9,2.4-4.1c1.6-1.9,3.5-3.5,5.1-5.4c3.5-3.8,7.5-7.1,11.7-10c3.7-2.6,7.5-5.1,11.4-7.4
		c2.4-1.4,5.1-2.5,8.1-2.6c1.7-0.1,3.4-0.4,5.1-0.7c0.7-0.1,1.4-0.7,2.1-0.9c2.2-0.6,4.5-1.2,6.8-1.8c2.6-0.7,5.2-1.5,7.8-2
		c3.1-0.6,6.2-0.9,9.3-1.1c4.6-0.4,9.1-0.7,13.7-0.8c4.2,0,8.4,0.2,12.5,0.5c2.6,0.2,5.1,0.7,7.7,1.1c2.2,0.4,4.4,0.9,6.7,1.3
		c1.8,0.3,3.5,0.2,5.3,0.5c2.3,0.3,4.6,0.8,6.9,1c3.3,0.3,6.7,0.4,10,0.7c4.9,0.4,9.9,0.9,14.8,1.5c2.2,0.3,4.3,0.9,6.5,1.3
		c4.3,0.8,8.7,1.5,13,2.2c3,0.5,6.1,0.8,9.1,1.2c4,0.5,8.1,1.2,12.1,1.5c6,0.5,12,1.1,17.8,2.5c5,1.2,9.8,2.9,14.7,4.4
		c4.3,1.3,8.7,2.8,13,4.2c1.1,0.4,2.1,0.9,3.2,1.2c4.4,1,8.6,2.5,12.5,4.8c2.7,1.6,5.5,3.2,7.6,5.6c1.9,2.1,3.9,4.1,5,6.7
		c0.4,1,0.9,2,1.3,3.1c1.2,2.8,2.1,5.7,2,8.8c-0.1,3.4-0.4,6.8-1.4,10.1c-0.8,2.7-1.7,5.3-3.1,7.8c-0.9,1.6-2.1,3.1-3.1,4.7
		c-2,3.2-4.6,5.9-7.6,8.2c-3.5,2.7-7.2,5.2-11.3,7c-3.3,1.5-6.4,3.2-9.5,4.9c-2.4,1.3-4.8,2.8-7.2,4.2c-3.2,1.9-6.5,3.4-10,4.5
		c-1.3,0.4-2.7,0.6-4.1,0.7c-2.1,0.2-4.2,0.3-6.3,0.5c-3.3,0.3-6.5,0.5-9.8,0.8c-0.7,0-1-0.5-0.7-1.1c0.3-0.6,0.7-1.1,0.8-1.7
		c0.2-0.9,0.8-1,1.6-0.9c0.4,0,0.9-0.1,1.2-0.3c1.7-1.3,3.3-2.7,5-4c0.7-0.5,1.6-0.7,2.4-1c0.1,0.1,0.1,0.2,0.2,0.3
		c-0.7,0.7-1.3,1.5-2,2.1c-0.7,0.6-1.5,1.2-2.3,1.8c-0.1,0.1-0.2,0.3-0.3,0.5c0.2,0.1,0.4,0.2,0.5,0.2c0.6,0,1.3,0,1.8-0.3
		c0.9-0.4,1.8-1.1,2.6-1.6c0.5-0.3,1-0.6,1.5-1c1.7-1.4,3.4-2.8,5.2-4.2c-1.6,3.4-4.6,5.2-7.4,7.3c1.6,0.1,3.1-0.1,4.4-1.2
		c1-0.8,2.1-1.6,3.2-2.3c2.3-1.5,4.6-3,6.8-4.5c1-0.7,1.8-1.4,2.7-2.2c0.1,0.1,0.1,0.1,0.2,0.2c-3.2,3.9-7.5,6.5-11.7,9.3
		c0.4,0,0.8,0,1.1-0.1c1.6-0.6,3.3-1,4.8-1.8c2.5-1.3,4.8-2.8,7.2-4.2c2.5-1.5,4.9-3.3,7.6-4.4c3-1.2,4.3-3.2,5-6
		c0.1-0.4,0.3-0.9,0.4-1.3c0.1,0,0.1,0,0.2,0.1c-0.4,1.7-0.9,3.4-1.3,5.2c2.1-0.3,3.1-1.8,3.8-3.4c0.7-1.6,1.3-3.3,2-5.2
		c0,0.7,0,1.2-0.1,1.6c-0.5,1.4-1.1,2.8-1.6,4.3c-0.1,0.2-0.1,0.4-0.1,0.7c0.2,0,0.5,0,0.7,0c0.7-0.3,1.4-0.5,2-1
		c0.5-0.4,1.2-1.1,1.2-1.7c0.1-2.4,2.1-3.9,2.1-6.2c0.1,0,0.3,0.1,0.4,0.1c-0.2,1.4-0.4,2.7-0.6,4.2c0.3-0.4,0.5-0.8,0.8-1.2
		c0.1,0.4,0.1,0.5,0.1,0.6c0,0.1-0.1,0.3,0,0.4c0,0.1,0.1,0.3,0.2,0.4c0.1-0.1,0.3-0.1,0.4-0.3c1-1.6,2.2-3.2,2.4-5.2
		c0.1-0.8,0.3-1.6,0.4-2.4c0.1,0,0.2,0,0.4,0.1c0.3,2.5-1.2,4.7-1.6,7.1c2.5-2,5.6-3.3,6.2-7c0,0.4,0.1,0.9,0.1,1.6
		C351.5,80.5,352,80.1,352.4,79.6z M150.5,160.5c-1.5-0.2-2.9,0.3-4.4,0.4c-2.2,0.1-4.5,0.3-6.7,0.5c-0.4,0-1,0.2-1,0.4
		c-0.2,0.6-0.3,1.3,0,1.8c0.6,1.1,3.3,2,4.3,1.4c1.8-1.2,3.9-1,5.8-1.2c2.2-0.3,4.5-0.6,6.7-0.8c0.4,0,0.9,0.3,1.4,0.4
		c0.6,0.1,1.4,1.1,1.8-0.2c0-0.1,0.3-0.1,0.5-0.2c5.6-2.1,11.3-4.1,16.9-6.5c6.7-2.8,13.3-5.9,19.8-9c4.7-2.2,9.6-2.9,14.7-3
		c4-0.1,8-0.9,12-1.4c2.5-0.3,5-0.4,7.5-0.7c1.5-0.2,3.1-0.5,4.6-0.9c2.1-0.7,4.1-1.5,6-2.5c1.6-0.8,3-1.9,4.3-3.1
		c3.1-3,6.7-5.6,9.9-8.5c1.9-1.8,4-3.1,6.5-3.9c0.8-0.3,1.5-0.8,2.2-1.1c1-0.5,2-0.9,3-1.4c0.3-0.1,0.7-0.2,1-0.3
		c1.7-0.8,1.7-0.8,1.1-2.6c-0.3-0.9-0.5-1.9-0.7-2.8c-0.1-0.6-0.3-0.8-0.9-0.4c-3,1.6-6.1,3-9.1,4.7c-1.9,1.1-3.7,2.6-5.5,4
		c-2.1,1.6-4.1,3.2-6.1,4.9c-1.2,0.9-2.4,1.9-3.4,2.9c-2,1.9-4.7,2.7-7.1,3.9c-2.8,1.3-5.7,1.5-8.7,1.8c-3.4,0.3-6.8,0.6-10.2,1
		c-3.1,0.3-6.1,0.8-9.2,1c-2.3,0.1-4.6,0.4-6.9,0.8c-2.9,0.5-5.5,1.7-8.2,2.8c-0.8,0.3-1.5,0.8-2.3,1c-2.1,0.6-3.8,1.9-5.5,3.1
		c-0.4,0.3-0.9,0.6-1.4,0.9c-1.9,1.2-3.9,2.3-5.8,3.5c-0.1,0.1-0.2,0.1-0.3,0.2c-3.1,0.7-5.1,3.2-7.8,4.5c-1.5,0.7-3.2,1.1-4.8,1.4
		c-2.3,0.4-4.6,0.7-6.8,1c-1.3,0.2-2.7,0.4-4,0.7c-0.6,0.1-0.4,0.4,0,0.6c0.1,0.1,0.2,0.2,0.4,0.3
		C152.8,159.8,151.6,160.6,150.5,160.5z M368.8,146.1c-2.6-1.1-5.2-2.3-7.8-3.4c-3.4-1.5-6.5-3.5-9.4-5.9c-0.3-0.3-0.4-0.8-0.7-1.2
		c-0.2-0.3-0.5-0.7-0.8-0.9c-3.9-2.7-8.3-3.6-13-2.7c-5.5,1.1-10.9,2.5-16.3,4.1c-5,1.5-10.2,2.1-15.5,1.7c-3.3-0.3-6.5-0.7-9.6-2
		c-3.8-1.5-7.3-3.7-10-6.8c-2.6-2.9-5.2-5.9-7.8-8.8c-2-2.3-3.4-4.8-3.2-8c0.2-4,0.2-8.1,0.3-12.1c0.1-2.9-0.8-5.5-1.7-8.2
		c-1.5-4.3-3-8.6-4.4-12.9c-0.7-2.1-1.3-4.2-1.7-6.4c-0.4-1.9-0.3-3.9-0.6-5.9c-0.4-3.2,0.1-6.2,1.5-9.1c0.5-0.9,0.7-2,1.1-3
		c0.6-1.4,1.2-2.8,2.4-3.9c0.7-0.6,1.2-1.5,1.8-2.2c0.6-0.7,1.2-1.3,1.7-1.9c0.1-0.1,0.2-0.3,0.3-0.5c-0.2-0.1-0.4-0.2-0.5-0.2
		c-0.7,0-1.5,0.1-2.2,0.1c-1.8,0-2.8,1.3-3.7,2.6c-0.7,1.1-1.3,2.3-1.9,3.5c-1.9,3.7-3.2,7.6-3.1,11.8c0.1,2.8,0.5,5.7,0.8,8.5
		c0.1,0.8,0.2,1.7,0.3,2.5c0.5,3.2,1.9,6.1,3.3,9c0.9,1.8,1.5,3.7,2.2,5.6c1,2.7,1.1,5.5,1.1,8.3c0,2.7-0.4,5.4-0.7,8.1
		c-0.5,4.2-0.1,8.3,1.8,12.1c0.3,0.7,0.5,1.4,0.7,2.1c0.4,2,1.5,3.5,2.8,5c1.4,1.6,2.7,3.3,4.2,4.8c2.8,2.8,5.9,5.2,9.6,6.6
		c3,1.1,6.1,2,9.2,2.8c2.9,0.7,6,1.1,9,1.4c1.9,0.1,3.8-0.3,5.7-0.5c3.2-0.5,6.3-1,9.5-1.6c3.3-0.6,6.6-1.5,9.9-2.1
		c3.6-0.6,7.2-0.9,10.8,0.1c2.9,0.7,5.3,2.5,7.7,4.2c2.8,1.9,5.5,4,8.3,6c1.3,0.9,2.6,1.7,4,2.3c2,0.9,4.2,1.7,6.3,2.5
		c0.1,0,0.5-0.2,0.5-0.3c-0.2-1.5,0.1-2.7,1.6-3.8C371.3,147,370,146.7,368.8,146.1z M274.2,69.5c-1.1-2.6-2.2-5.2-3.3-7.8
		c-0.1-0.3-0.3-0.5-0.6-0.9c-0.2,0.4-0.4,0.6-0.4,0.8c0.2,2.6,0.3,5.2,0.8,7.8c0.4,2.1,1.6,4,1.9,6.1c0.5,3.4,2.4,6.2,3.4,9.4
		c0.8,2.5,1.7,4.9,2.5,7.4c0.3,0.8,0.2,1.7,0.5,2.6c0.4,1.3,1,2.6,1.5,3.8c0.5,1.2,0.9,2.5,1.3,3.7c0.1,0.3-0.1,0.8-0.2,1.1
		c-0.3,0.6-0.7,1.2-1.1,1.6c-1.6,1.4-2,3.2-1.8,5.2c0.1,0.7-0.1,1.5-0.1,2.2c0,0.5,0.2,0.8,0.7,0.4c1.8-1.4,3.7-2.7,5.1-4.6
		c1.6-2.2,1.8-4.6,1.1-7.1c-0.7-2.6-1.6-5.1-2.5-7.6c-1.4-3.5-2.2-7-2.7-10.7c0-0.4-0.2-0.9-0.5-1c-1.5-0.8-2-2.2-2.6-3.5
		c-0.3-0.7-0.6-0.9-1.4-1c-0.8-0.1-1.7-0.5-2.3-0.9c-0.7-0.5-0.1-1.1,0.3-1.2c1.9-0.6,2-2.5,3.1-3.8
		C275.1,71.7,274.7,70.6,274.2,69.5z M190.2,55.5c0.3,2.2,0.5,4.4,0.8,6.6c0.1,0.8,0.1,1.6,0.3,2.4c0.6,3.3,1.4,6.5,2,9.8
		c0.6,3.5,1.1,7,0.8,10.6c-0.1,0.9,0.3,1.6,1.2,1.8c0.9,0.2,1.2-0.4,1.6-1.1c1.6-2.4,0.8-5,0.5-7.5c-0.4-3.7-1.2-7.3-1.8-10.9
		c-0.6-3.3-1.3-6.6-1.7-10c-0.2-2.2,0.1-4.4,0.1-6.6c0-0.4-0.2-0.9-0.4-1.3c-0.6-0.9-1.2-1.7-1.8-2.6c-0.4-0.6-0.8-0.5-1.2,0
		c-0.5,0.7-0.9,1.4-1.3,1.9C189.6,51,189.9,53.2,190.2,55.5z M239,79.4c-0.4,0.9,0.2,1.3,0.8,1.7c0.7,0.4,1.4,0.4,1.7-0.4
		c0.8-1.9,1.8-3.8,2.2-5.8c1.2-5.7,1.6-11.5,1.6-17.4c0-3.2-0.9-6.3-1.8-9.4c-0.2-0.7-0.3-1.4-0.4-2.1c-0.1-0.6-0.3-0.8-0.9-0.4
		c-0.3,0.2-0.8,0.3-1.1,0.4c-0.7,0.1-1,0.4-0.7,1.2c0.5,1.7,1.2,3.4,1.5,5.1c0.5,2.5,0.7,5,1,7.5c-0.1,0-0.2,0-0.3,0
		C242.6,66.6,241.6,73.2,239,79.4z M225.1,69c0.6-6-0.3-11.8-2.5-17.4c-1-2.5-1.5-5.3-2.1-7.9c-0.2-0.7-0.4-1.1-1.1-1.3
		c-0.2-0.1-0.4-0.3-0.7-0.5c-0.2-0.2-0.5-0.3-0.7-0.5c-0.1,0.3-0.3,0.6-0.2,0.9c0.3,1.5,0.5,3.1,0.9,4.6c1,3.7,2.3,7.2,3.2,10.9
		c1,3.9,1.3,7.9,0.9,11.8c-0.3,3-0.8,6.1-1.3,9.1c-0.2,1-0.5,1.9-0.8,2.9c-0.1,0.3-0.1,0.5-0.2,0.8c0.3,0,0.6,0.1,0.9,0
		c1-0.3,2.6-2.3,2.7-3.4c0.1-0.6,0.1-1.2,0.1-2.2C224.5,74.4,224.8,71.7,225.1,69z M278.3,43.7c-0.2,0.4-0.5,0.7-0.7,1
		c-0.1,0.1-0.3,0.2-0.3,0.4c-0.7,2.9-2.6,5.1-3.9,7.7c-0.7,1.3-1.2,2.8-1.7,4.3c-0.1,0.3,0,0.7,0.2,1c1.6,2.6,2.9,5.3,3.6,8.3
		c0.2,0.8,0.7,1.6,1.2,2.3c1-4.3,1.7-8.6,1.7-13c0-4.3,1-8.6,0.6-13c-0.1,0-0.2,0-0.3-0.1C278.5,43,278.4,43.4,278.3,43.7z
		 M282.3,44.4c0-0.4-0.2-0.8-0.2-1.1c0.1-1.4-0.7-2.2-1.9-2.7c-0.2-0.1-0.7-0.1-0.8,0c-0.2,0.5-0.5,1.1-0.4,1.5
		c0.3,1.1,0.9,2.1,1.1,3.1c0.9,4.4,1.2,8.9,0.8,13.4c-0.2,2.8-0.7,5.7-1.2,8.5c-0.5,2.7-1.3,5.4-2,8.1c-0.1,0.3,0,0.6,0,0.9
		c0.3-0.2,0.6-0.3,0.7-0.6c1.4-4,3.3-7.9,3.5-12.3c0.1-1.6,0.6-3.1,0.8-4.7c0.2-1.3,0.3-2.6,0.4-3.9c0.1,0,0.1,0,0.2,0
		C283.2,51.3,282.7,47.8,282.3,44.4z M231.7,70.8c2.2-2.7,4.3-5.5,6.5-8.2c1.7-2.2,1.4-4.5,1.1-7.3c-1.1,1.7-2.1,3.1-3.1,4.5
		c-2.3,3.5-4.4,7.2-7.6,10c-0.3,0.3-0.6,0.7-0.6,1.2c-0.3,1.4-0.5,2.9-0.7,4.3c0.1,0.1,0.2,0.2,0.3,0.2
		C229,74,230.4,72.4,231.7,70.8z M226.8,52.9c0.1,0.3,0.5,0.4,0.8,0.6c2.1,0.9,3.7,2.4,4.9,4.2c0.6,0.8,0.8,0.8,1.3,0
		c1.1-1.5,1.1-1.9-0.4-3.1c-2.4-2-4.9-3.9-7.3-5.9c-0.3-0.2-0.6-0.4-1.1-0.8C225.6,49.8,226.2,51.4,226.8,52.9z M263.6,53.8
		c0.4-0.9,0.1-1.5-0.6-2.2c-1.6-1.8-3-3.9-4.5-5.8c-0.1-0.2-0.3-0.4-0.4-0.6c-0.6-1.4-1.6-1.8-3-1.3c-0.2,0.1-0.4,0.2-0.6,0.3
		c0.1,0.2,0.2,0.4,0.3,0.6c1.4,1.5,2.7,3.1,4.1,4.6c1.6,1.7,2.5,3.7,3.4,5.7c0.1,0.2,0.2,0.3,0.3,0.6
		C263,54.8,263.4,54.3,263.6,53.8z M228.8,65.3c0.8-1.1,1.6-2.2,2.3-3.2c1.3-2,1.2-2.1-0.5-3.8c-0.9-0.9-1.9-1.7-3-2.8
		C228,58.8,228.4,62,228.8,65.3z M373,152.4c0.2-0.3,0.4-0.6,0.5-0.9c0-0.1-0.3-0.3-0.4-0.5c-0.2,0.2-0.4,0.5-0.6,0.8
		C372.7,152,372.9,152.2,373,152.4z"/>
	<path style="fill:#002955;" d="M341.5,44.9c1,0.4,2.2,0.6,3,1.3c2.9,2.6,5.4,5.4,5.3,9.7c0,0.2,0.1,0.5,0.2,0.7
		c0.6,2.7,0.3,5.4-0.9,7.9c-0.2,0.4-0.9,0.7-1.4,0.8c-0.2,0-0.7-0.7-0.8-1.1c-0.1-0.7-0.4-1.1-1.2-1c-0.3,0-0.6,0-0.9-0.1
		c-0.9-0.3-1.6-0.1-2.1,0.7c-0.4,0.6-0.9,1.2-1.3,1.9c-0.1,0.2,0,0.8,0.2,0.9c1.9,0.9,1.9,0.9,3.8-0.4c0.1-0.1,0.2-0.1,0.3-0.2
		c0.2-0.1,0.4-0.1,0.6-0.2c0,0.2,0.1,0.5,0,0.7c-0.3,0.8-0.7,1.5,0,2.3c0.1,0.1,0.1,0.5-0.1,0.7c-0.4,0.5-0.8,1.1-1.4,1.6
		c-1,0.9-2.1,1.7-3.2,2.5c-1.8,1.3-3.6,2.4-5.8,2.9c-1.9,0.4-3.7,1.2-5.2,2.6c-1,0.9-2.2,1.8-3.3,2.5c-2.3,1.5-5.1,1.6-7.7,2
		c-0.7,0.1-1.4-0.4-2.2-0.6c-0.1,0-0.2-0.5-0.1-0.5c0.9-0.7,1.7-1.6,2.7-1.9c3.3-1,5.9-3.2,8.3-5.6c-0.9,0.4-1.7,0.8-2.6,1.3
		c-0.1-0.1-0.1-0.2-0.2-0.3c0.5-0.4,1-0.9,1.6-1.3c-0.9-0.3-1.6-0.6-2.4-0.9c0-0.1,0.1-0.2,0.1-0.3c0.5,0.1,1,0.1,1.5,0.3
		c1.6,0.4,2,0.3,2.9-1.2c0.1-0.2,0-0.6,0.1-0.9c-0.2,0.1-0.5,0.2-0.7,0.3c-0.1,0.1-0.2,0.1-0.5,0.3c0.2-1-0.3-1.2-1-1.3
		c-1.1-0.3-2.1-0.7-3.2-0.9c-0.3-0.1-0.9,0-1.1,0.3c-0.7,0.8-1.3,1.8-2,2.7c-0.1,0.1-0.1,0.4-0.1,0.6c0.2,0,0.4,0.1,0.6,0
		c0.3,0,0.6-0.1,1-0.2c0.1,0.1,0.1,0.3,0.2,0.4c-0.9,0.6-1.8,1.3-2.8,2c-0.6-2.7,1-4.6,1.6-6.6c-6.4,4.8-12.8,9.6-19.2,14.4
		c3.1,2.3,6.7,2.9,10.6,2.5c0.3,0,0.6,0.2,0.9,0.3c-0.3,0.2-0.5,0.5-0.8,0.6c-0.8,0.2-1.6,0.3-2.5,0.4c-1.2,0.2-2.4,0.4-3.6,0.4
		c-3.5,0-6.2-2.1-8.6-4.2c-1.4-1.3-2.8-2.5-4.7-3c-0.4-0.1-0.8-0.2-1.1-0.3c-0.4-0.2-1-0.5-1.1-0.8c-0.1-1.1-0.9-1.2-1.7-1.5
		c-1-0.3-1.9-0.7-2.9-1c-0.3-0.1-0.6-0.2-0.8-0.1c-1.5,0.4-2.3-0.7-3.4-1.3c-0.3-0.2-0.5-0.9,0.2-0.9c0.8-0.1,1.6,0.1,2.4,0.2
		c0.4,0,0.9,0.4,1.1,0.2c0.8-0.5,1.6-0.1,2.4,0c0.7,0.1,1.5,0.2,2-0.2c0.7-0.5,1.3-1.3,1.6-2.1c1.1-2.8,2.1-5.6,3.1-8.4
		c0.1-0.3,0.2-0.7,0.3-0.7c0.9-0.1,0.6-0.6,0.5-1.1c-0.1-1-0.2-1.9-0.2-2.9c0-0.7-0.1-1.4,0.1-2c0.6-1.5,0.4-3,0-4.4
		c-0.2-0.7-0.7-1.4-0.7-2.2c0-1.8-1-3-1.9-4.3c-0.6-0.8-1.3-1.7-2.1-2.1c-1.1-0.5-2.4-0.4-3.6-0.6c-0.9-0.1-1.6,0-2.4-0.8
		c-0.7-0.8-0.7-1.5-0.4-2.2c0.1-0.3,0.7-0.7,1-0.7c1.4,0.2,2.6,0.9,4.2,0.8c2.9-0.2,5.3-1.2,7.5-2.9c0.4-0.3,0.8-0.6,1.3-0.9
		c1.3-0.7,2.7-1.2,4.1-1.5c0.9-0.2,1.9-0.5,2.8-0.4c2.4,0.2,4.8,0.6,7.3,0.9c0.6,0.1,1.2,0.1,1.8,0.2c0.8,0.1,1.6,0.3,2.4,0.4
		c1.5,0,2.9,0,4.4,0c0.9,0,1.8-0.1,2.6-0.2c0.2,0,0.4-0.1,0.7-0.1c0,0.1,0.1,0.2,0.1,0.3c-0.7,0.3-1.4,0.7-2.2,0.9
		c-0.5,0.2-0.7,0.3-0.3,0.8c0.7,1.1,1.9,1.4,3.1,0.8c1.5-0.7,3-1.5,4.5-2.2c0.3-0.1,0.6-0.2,0.8-0.3c0,0.1,0.1,0.2,0.1,0.4
		c-1.7,1.1-3.4,2.2-5.1,3.3c-0.3,0.2-0.9,0.5-0.3,0.9c1.5,0.9,3,1.8,4.8,1.5c1.6-0.3,3.1-1,4.6-1.6c0.4-0.1,0.7-0.3,1-0.4
		c0,0.1,0.1,0.2,0.1,0.3c-1.1,0.7-2.3,1.5-3.7,2.4c2.1,0.4,3.8,0.9,5.6,1c1.6,0.1,3.2-0.3,4.5-1.4c0.1-0.1,0.2,0,0.5,0
		c-0.8,0.7-1.5,1.3-2.2,2C341,44.7,341.2,44.8,341.5,44.9z M332.7,61.7c0.3-0.4,0.3-0.8-0.3-0.9c-1.7-0.4-3.3-0.9-5-1.2
		c-0.4-0.1-1,0.6-1.2,1.1c-0.3,0.7-0.3,1.5-0.5,2.2c-0.1,0.5,0,0.8,0.5,0.9c1.1,0.2,2.3,0.4,3.4,0.5c0.5,0,1-0.4,1.6-0.6
		c0,0.3,0,0.9,0.1,1c0.8,0.2,1.7,0.7,2.5-0.1c0.7-0.8,1.3-1.6,1.9-2.5c0.1-0.1-0.2-0.5-0.4-0.6c-1-0.4-1.8,0.1-2.5,0.8
		c-0.5,0.5-1.1,0.9-1.6,1.4C331.7,63,332.2,62.4,332.7,61.7z M321.7,55.7c0.2,1-0.5,2.3-2.8,5.8c-1.2,1.8-2.5,3.3-4.1,4.7
		c-1.6,1.4-3,3-4.3,4.7c2.7-1.9,5-4.1,7.2-6.5c0.1,0,0.2,0.1,0.3,0.1c-0.4,0.8-0.7,1.6-1.3,2.3c-1.7,1.9-3.4,3.8-5.2,5.6
		c-1.3,1.3-2.6,2.5-4,3.7c-1.6,1.4-3.3,2.7-4.9,4c-0.3,0.2-0.5,0.4-0.7,0.7c0.1,0.1,0.1,0.1,0.2,0.2c1.1-0.8,2.3-1.5,3.4-2.3
		c3-2.1,5.9-4.2,8.9-6.4c1.8-1.3,3.5-2.6,5.3-3.9c0.9-0.7,1.8-1.3,2.7-2c0.3-0.3,0.6-0.7,0.8-1.1c0.6-1.6,1.2-3.1,1.7-4.7
		c0.8-2.2,1.3-2.9,3.8-2.4c1.7,0.4,3.3,0.8,5,1.2c0.4,0.1,0.9-0.1,1.3-0.2c0.2-0.1,0.4-0.5,0.6-0.7c-0.3-0.1-0.5-0.2-0.8-0.4
		c-0.8-0.3-1.5-0.6-2.3-1c0-0.1,0-0.2,0-0.3c0.8,0,1.5,0.1,2.3,0.2c1,0.1,2.1,0.5,2.8-0.7c0.1-0.2,0.3-0.4,0.4-0.6
		c-0.2-0.1-0.5-0.3-0.7-0.4c-1.3-0.3-2.7-0.6-4-0.8c-1-0.2-1.2-0.6-0.9-1.4c1.7,0.3,3.4,0.5,5,0.9c1.8,0.5,2.7-0.5,3.6-1.9
		c-2.1-0.7-4.1-1.3-6.2-2c-1.1-0.3-2.2-0.4-3.2-0.8c-0.6-0.3-0.9-1.2-1.3-1.8c0.3-0.5,1.2,0.6,1.2-0.5c0-0.1,3.4,1.3,3.6,1.5
		c0.1,0.1,0.3,0.3,0.4,0.2c0.9-0.2,1.1-0.2,1.5,0.7c0.1,0.1,0.3,0.2,0.4,0.2c1.2,0.3,2.4,0.6,3.6,1c1.1,0.4,2.1,0.9,3.1,1.3
		c0.3,0.1,0.6,0.1,1,0.2c0-0.3,0-0.7-0.2-0.9c-0.6-0.7-1.1-1.5-1.9-1.9c-0.6-0.4-1.5-0.2-2.2-0.4c-3-0.9-6-1.9-9-2.8
		c-1.2-0.3-2.5-0.2-3.7-0.3c-0.3,0-0.7-0.1-0.8-0.2c-1.9-1.9-3.7-3.8-5.6-5.7c-0.7-0.7-1.4-1.6-2.2-2c-0.9-0.3-2-0.1-3-0.1
		c-1.6,0.1-3.1,0.3-4.7,0.3c-1,0.1-2,0-3,0.1c-0.1,0-0.4,0.4-0.3,0.5c0.1,1.7,0.4,3.3,0.4,5c0,3.4,0,6.8,0,10.2c0,1,0,1.9,0,2.9
		c0.1,0.1,0.2,0.2,0.3,0.2c0.1-0.2,0.1-0.4,0.2-0.5c2.4-2.4,2.1-5.5,2.2-8.5c0.1-1.7,0-3.5,0-5.2c0.1,0,0.3,0,0.4,0
		c0,2.4,0.1,4.9,0.1,7.3c0,0.6,0.2,1.2,0.3,1.7c0.3-0.5,0.7-0.9,1-1.4c0.8-1.4,1.6-2.9,2.6-4.2c-0.1,0.2-0.1,0.5-0.2,0.7
		c-1.2,2.2-2.4,4.4-3.6,6.6c-0.8,1.5-0.7,3.2-0.7,4.8c0.1,0,0.2,0.1,0.3,0.1c0.6-0.9,1.3-1.7,1.9-2.6c0.7-1,1.2-2.1,1.8-3.1
		c0.9-1.3,1.9-2.5,3-3.7c-0.3,0.7-0.5,1.5-0.9,2.1c-0.9,1.8-1.9,3.5-2.8,5.3c-0.3,0.5-0.4,1-0.6,1.6c-0.4,2.2-1.7,4-2.9,5.8
		c-0.1,0.1-0.2,0.2-0.3,0.3c-0.7,2.4-2.9,3.7-3.8,6.3C313.1,66.6,317.3,61.2,321.7,55.7z M306.5,60c-0.1-1.1,0.5-2.3,0.6-3.4
		c0.2-3.9,0.3-7.8,0.5-11.7c0.1-1.9,0.2-3.7,0.4-5.6c0-0.6-0.1-0.9-0.8-1c-2.3-0.3-4.5-0.2-6.4,1.5c-0.5,0.5-1.4,0.6-2.2,0.8
		c-1.1,0.4-2.2,0.6-3.2,1.1c-0.8,0.4-0.8,0.9-0.2,1.6c1.8,2.1,3.2,4.5,4.1,7.1c0.4,1,0.5,2.2,0.7,3.3c0.1,0.5,0.1,1.1,0.2,1.6
		c0.1,0,0.2,0,0.3,0c0.4-2.9,0.8-5.8,1.2-8.6c0.1,0.4,0.3,1,0.3,1.6c-0.1,2.9-0.2,5.8-0.4,8.7c-0.1,1.8-0.2,3.7-0.4,5.5
		c-0.2,2-0.5,4-0.8,6c0,0.3,0,0.6-0.1,1c0.1,0,0.2,0.1,0.3,0.1c0.5-0.9,1.2-1.7,1.6-2.6c0.6-1.4,0.9-2.8,0.7-4.3
		c-0.1-0.6,0.3-1.2,0.3-1.8c-0.2-2.5,0.3-5,0.6-7.4c0.2-2.1,0.4-4.2,0.7-6.3c0.1-0.7,0.2-1.4,0.5-2c0,6.1,0,12.2,0,18.4
		C305.7,62.5,306.8,61.7,306.5,60z M331.6,67.4c0.8-1.1,0.7-1.2-0.7-1.4c-1.8-0.2-3.5-0.5-5.2-0.9c-0.8-0.2-0.9,0.2-1,0.8
		c0,0.3-0.1,0.8-0.3,1c-0.8,0.8-0.7,1.3,0.4,1.5c1.5,0.3,3,0.6,4.6,0.9C330.4,69.1,331,68.2,331.6,67.4z M340.6,65.5
		c0.6-0.7,1.1-1.4,1.7-2.1c0.3-0.4,0.2-0.7-0.3-0.8c-1-0.2-2.1-0.3-3.1-0.5c-0.2,0-0.6,0.1-0.7,0.3c-0.6,0.8-1.2,1.6-1.8,2.4
		c-0.4,0.5-0.2,0.7,0.3,0.8c1,0.1,2,0.3,3.2,0.4C340,65.9,340.4,65.8,340.6,65.5z M336.6,70.3c0.6-0.7,1.2-1.4,1.8-2.1
		c0.5-0.6,0.2-0.9-0.4-1c-0.9-0.2-1.9-0.3-2.9-0.5c-0.2,0-0.5,0.1-0.6,0.2c-0.6,0.7-1.2,1.5-1.8,2.3c-0.3,0.3-0.4,0.7,0.3,0.8
		c1,0.2,2,0.4,3.1,0.6C336.2,70.5,336.4,70.5,336.6,70.3z M339.8,70.4c0.3-0.3,0.7-0.4,1.1-0.5c0.3-0.1,0.7-0.1,0.9-0.3
		c0.4-0.4,0.7-1,1-1.4c-0.4-0.2-0.9-0.3-1.3-0.5c-1.2-0.4-2,0-2.7,1c-0.5,0.7-1.1,1.3-1.7,2C338.2,71.4,339,71.3,339.8,70.4z
		 M298.6,67.4c-0.1,0.5-0.3,1.1-0.6,1.5c-1.1,1.3-0.8,2.8-1.1,4.3c0,0.1,0.1,0.3,0.1,0.3c0.2,0,0.3-0.1,0.4-0.2
		c0.7-0.7,1.4-1.3,1.5-2.4c0.3-2.4,0.7-4.8,1-7.2c-0.2,0-0.3-0.1-0.5-0.1C299.2,65,298.9,66.2,298.6,67.4z M331.4,71.3
		c-0.1,0-0.3,0.2-0.5,0.3c-0.6,0.6-1.1,1.2-1.6,1.8c-0.1,0.1-0.2,0.3-0.3,0.5c0.2,0.1,0.5,0.3,0.6,0.3c1.9-0.5,4-0.3,5.5-2.4
		C333.8,71.6,332.6,71.5,331.4,71.3z M340.1,61.1c0.9,0.2,1.8,0.4,2.7,0.6c0.6,0.1,1.8-1.1,1.7-1.6c0-0.1-0.2-0.2-0.3-0.3
		c-1.1-0.2-2.1-0.5-3.2-0.4c-0.6,0-1.1,0.7-1.8,1.2C339.7,60.9,339.9,61,340.1,61.1z M344.4,53.4c0-0.1,0-0.3-0.1-0.4
		c-0.5-0.5-3-0.4-3.4,0.1c-0.9,1.1-0.8,1.5,0.6,1.8c0.3,0.1,0.7,0.1,1,0.1C343.1,55.1,344.4,54,344.4,53.4z M310.5,57.8
		c-1,1.9-2.8,3.4-2.9,6.1C309.4,62,310.8,60.3,310.5,57.8z M342.1,57.5c0.2,0.2,0.5,0.4,0.7,0.5c0.6,0.3,1.2,0.5,1.7,0.7
		c0.5,0.2,1,0.2,1.1-0.4c0.1-0.5,0.1-1.2-0.6-1.3c-0.6-0.2-1.2-0.2-2.1-0.4C342.8,56.8,342.4,57.1,342.1,57.5z M347,62.2
		c-0.4-0.7-0.8-1.4-1.2-2.1c-0.5,0.6-1,1.3-1.5,1.9c0.6,0.3,1.1,0.5,1.8,0.9C346.5,62.5,347,62.2,347,62.2z M339.5,57.3
		c0.3-0.1,0.5-0.6,0.8-0.9c0,0-0.3-0.3-0.4-0.3c-0.4,0-0.9,0-1.3,0.2c-0.3,0.1-0.4,0.6-0.7,1.1C338.5,57.4,339,57.5,339.5,57.3z
		 M337.6,59.3c0-0.1-0.1-0.4-0.2-0.5c-0.5-0.3-1.8,0.3-1.8,0.9c0,0.2,0.4,0.4,0.8,0.8C337,60,337.3,59.6,337.6,59.3z M344.4,55
		c0.4,0.2,0.7,0.4,1.1,0.6c0.1-0.4,0.3-0.8,0.4-1.2c0-0.2-0.1-0.5-0.2-0.8c-0.1,0-0.2,0-0.3,0C345.1,54,344.7,54.5,344.4,55z
		 M294.3,75.8c0,0.1,0.2,0.3,0.2,0.3c0.2-0.1,0.6-0.2,0.7-0.3c0.2-0.6,0.2-1.3,0.3-1.9c-0.1,0-0.2-0.1-0.3-0.1
		C294.9,74.5,294.6,75.1,294.3,75.8z M296.6,77.6c0.5-0.7,0.9-1.4,1.4-2.1c-0.1-0.1-0.1-0.1-0.2-0.2C297.2,76,296.3,76.4,296.6,77.6
		z M335.6,72.9c0.3-0.1,0.6-0.3,0.9-0.5c-0.1-0.1-0.2-0.3-0.2-0.3c-0.4,0.1-0.7,0.2-1,0.3c-0.1,0.1-0.2,0.3-0.4,0.6
		C335.2,72.9,335.4,72.9,335.6,72.9z M298.1,78.8c-0.1-0.1-0.1-0.2-0.2-0.2c-0.5,0.4-0.9,0.8-1.4,1.2c0.1,0.1,0.2,0.2,0.2,0.3
		C297.2,79.6,297.7,79.2,298.1,78.8z"/>
	<path style="fill:#002955;" d="M216,19.5c0.9,0.1,1.8,0.2,2.8,0.2c2.9,0,5.8,0,8.6,0.1c4.5,0.1,9.1,0.5,13.5,1.6
		c4.8,1.1,9.6,2.4,14.4,3.6c2.8,0.7,5.7,1.3,8.6,0.7c2.3-0.5,4.6-1,6.8-1.5c0.1,0,0.2-0.1,0.3-0.1c-0.6-0.8-1.5-0.9-3-0.7
		c-3,0.3-6,0.8-9,0.1c-4.3-1-8.7-2.1-13-3.1c-5.3-1.2-10.6-2-16.1-2.1c-2.8-0.1-5.6,0.2-8.5,0.3c-1.8,0.1-3.6,0.3-5.4,0.5
		C216,19.1,216,19.3,216,19.5z"/>
	<path style="fill:#002955;" d="M174.4,48c-0.7,1.1-1.5,2.2-2.1,3.3c-0.5,0.9-0.7,1.8-1.1,2.7c-1.3,3-1.6,6.1-1.7,9.3
		c-0.2,3.9-0.1,7.8,0.2,11.6c0.2,2.3,0.9,4.5,1.4,6.7c0.6,2.2,1.3,4.5,1.9,6.7c0.1,0,0.2,0,0.3,0c0-0.3,0.2-0.7,0.1-1
		c-1.4-6.9-1.5-13.9-1.6-20.9c-0.1-4.7,0.4-9.4,1.6-14c0.2-0.9,0.6-1.8,0.9-2.7c0.2-0.5,0.3-1,0.5-1.6
		C174.6,48.2,174.5,48.1,174.4,48z"/>
	<path style="fill:#002955;" d="M148.9,24.4c-0.7,0-1.5,0.1-2.3,0.1c0.9-1,7.1-1.7,14.5-1.7c-0.8-1.1-1.9-1.1-2.9-1.3
		c-4.1-0.7-8,0.1-11.9,1.5c-0.7,0.2-1.5,0.6-1.7,1.5c-0.1,0.3-0.6,0.5-1,0.7c-4.7,1.8-9,4.4-13.1,7.2c-0.8,0.6-1.5,1.3-2.2,2.2
		c7-3.2,13.5-7.4,20.7-9.9C149,24.6,148.9,24.5,148.9,24.4z"/>
	<path style="fill:#002955;" d="M182.4,15.9c-1.3-0.5-2.5-1-3.8-1.5c-1.7-0.7-3.4-1.3-5.2-2c-0.3-0.1-0.6,0-0.9,0.1
		c0.2,0.2,0.4,0.6,0.6,0.7c2.6,1.1,5.2,2.1,7.9,3.2c2.4,1,4.8,2.1,7.2,3.1c0.3,0.1,0.8,0.9,1-0.2c0.6,0.1,1.3,0.1,1.9,0.3
		c0.8,0.3,1.5,0.8,2.3,1.2c0.4,0.2,1,0.2,1.4,0.3c0-0.1,0.1-0.2,0.1-0.3c-0.2-0.2-0.4-0.4-0.6-0.5c-2.2-1.3-4.4-2.5-6.5-3.8
		c-1.8-1.1-3.6-2.4-5.4-3.6c-0.3-0.2-0.7-0.1-1.1-0.1c-0.4-0.1-0.8-0.2-1.2-0.3c-0.6-0.2-1.1-0.5-1.6-0.7c-0.3-0.1-0.6,0.1-1,0.2
		c0.2,0.2,0.3,0.5,0.6,0.7c1.4,1,2.9,1.9,4.3,2.8C182.5,15.6,182.4,15.8,182.4,15.9z"/>
	<path style="fill:#002955;" d="M235.1,33.8c-7.3-2.1-14.8-2.8-22.4-2.6c-3.1,0.1-6.2,0.7-9.3,1.3c0.1,0.1,0.3,0.1,0.4,0.1
		c3.1,0.2,6.1,0.4,9.2,0.5c4.3,0.1,8.6,0.1,12.9,0.2c2.8,0.1,5.6,0.5,8.3,0.7c0.3,0,0.5,0,0.8,0C235.1,34,235.1,33.9,235.1,33.8z"/>
	<path style="fill:#002955;" d="M154.2,103c-2.8-1-5.7-1.8-8.3-3c-2.7-1.3-5.4-2.7-7.8-4.7c-3.3-2.8-6.7-5.6-10-8.4
		c-0.1,0-0.1-0.1-0.1-0.1c-0.4-0.1-0.8-0.2-1.2-0.3c0.2,0.4,0.2,0.8,0.5,1.1c2,2,4,4.2,6.2,6c2.7,2.2,5.3,4.5,8.5,5.9
		c3.4,1.5,6.7,3,10.4,3.7c0.6,0.1,1.2,0.1,1.8,0.1C154.2,103.2,154.2,103.1,154.2,103z"/>
	<path style="fill:#002955;" d="M221.1,93.7c12.4-1.3,24.8-2.6,37.1-3.9c0,0,0-0.1,0-0.1c-0.3,0-0.6-0.1-0.9-0.1
		c-3.3,0-6.7-0.1-10,0.1c-3.6,0.2-7.1,0.7-10.7,1.1c-2.9,0.3-5.8,0.6-8.7,1.1c-2.3,0.4-4.6,1.1-6.9,1.7
		C221.1,93.7,221.1,93.7,221.1,93.7z"/>
	<path style="fill:#002955;" d="M330.8,106.2c0.6,0.2,0.9,0.3,1.3,0.4c0,0.1,0,0.2,0,0.2c-2.3,0-4.7,0-7,0
		c5.2,1.5,10.4,0.5,15.6,0.4c-0.6-0.1-1.2-0.3-1.9-0.4c6.8-0.2,13.6-0.3,20.3-0.8c0-0.1,0-0.3,0-0.4c-0.4-0.1-0.9-0.2-1.3-0.2
		c-1.9,0.1-3.7,0.3-5.6,0.3c-0.8,0-1.6-0.3-2.4-0.5c-0.5-0.1-1.1-0.2-1.6-0.2c-3.3,0-6.7,0-10,0.2c-2.1,0.1-4.1,0.4-6.2,0.6
		C331.6,105.7,331.3,106,330.8,106.2z"/>
	<path style="fill:#002955;" d="M337.3,112.4c-0.5-0.1-0.9-0.1-1.4-0.2c-1.9,0-3.8-0.1-5.8-0.5c-2.3-0.4-4.8-0.4-7.1-0.5
		c-1.8-0.1-3.7,0-5.5,0.1c-1,0-1.9,0-2.9,0.4c-1,0.4-2.3,0-3.5-0.1c-0.9-0.1-1.7-0.2-2.6-0.4c0,0.1,0,0.2-0.1,0.3
		c1.2,0.2,2.5,0.6,3.7,0.7c4.2,0.2,8.5,0.4,12.7,0.5c1.7,0.1,3.5,0.2,5.2,0.2c2.4,0,4.8-0.2,7.2-0.2
		C337.2,112.7,337.3,112.5,337.3,112.4z"/>
	<path style="fill:#002955;" d="M314.9,109.7c1.3,0.2,2.5,0.5,3.8,0.5c3.9,0.1,7.7,0,11.6,0c3.2,0,6.5-0.2,9.7-0.3
		c0.6,0,1.2,0.1,1.9,0.1c0-0.1,0-0.2,0-0.3c-0.8-0.1-1.6-0.3-2.4-0.3c-2.5-0.2-5-0.6-7.6-0.7c-3.3-0.1-6.7,0.1-10,0.2
		c-0.5,0-1.1,0.3-1.6,0.3c-1.8,0-3.6,0-5.4,0C314.9,109.4,314.9,109.6,314.9,109.7z"/>
	<path style="fill:#002955;" d="M164.3,78.1c1.2-11,0.3-22-0.8-33c0.2,11,0.3,22,0.5,33.1C164.1,78.1,164.2,78.1,164.3,78.1z"/>
	<path style="fill:#002955;" d="M158.8,80c0-9.5,0-19,0-28.5c-0.2,0-0.3,0-0.5,0C158.4,61,157.2,70.6,158.8,80z"/>
	<path style="fill:#002955;" d="M171.1,37.6c0.1-2.9-2.8-10.6-4.5-12c-0.4,0.9-0.1,1.8,0.2,2.7c0.7,2.1,1.3,4.3,1.9,6.4
		C169.1,35.9,169.7,37.1,171.1,37.6z"/>
	<path style="fill:#002955;" d="M195.4,12.5c0.2,0.4,0.3,0.6,0.5,0.7c1.2,1.1,2.4,2.1,3.9,2.6c1.5,0.5,2.9,1.1,4.4,1.7
		c0.8,0.4,1.5,0.9,2.2,1.3c0.2,0.1,0.4,0,0.7,0.1c-0.1-0.2-0.1-0.5-0.2-0.7c0-0.1-0.2-0.2-0.3-0.3c-2.3-1.5-4.4-3.5-7.1-4.5
		c-1.1-0.4-2.1-0.8-3.2-1.1C196.1,12.3,195.8,12.4,195.4,12.5z"/>
	<path style="fill:#002955;" d="M279.8,35.9c-0.9-1.3-2-1.8-3-1.3c-0.6,0.3-1.1,0.8-1.2,1.5c-0.1,0.6,0.3,0.8,0.9,0.7
		C277.6,36.4,278.7,36.2,279.8,35.9z"/>
	<path style="fill:#002955;" d="M155.9,74.2c0-7.5,0-15-2.2-22.3c0.1,0.6,0.2,1.2,0.3,1.8c0.2,1.6,0.4,3.2,0.5,4.7
		c0.2,3,0.2,6.1,0.4,9.2c0.1,2.2,0.4,4.5,0.6,6.7C155.7,74.2,155.8,74.2,155.9,74.2z"/>
	<path style="fill:#002955;" d="M200.9,20.2c-1-2.4-13.1-9-15.4-8.4c2.6,1.4,5.2,2.7,7.8,4.1c2.5,1.4,5,3,7.5,4.6
		C200.8,20.4,200.8,20.3,200.9,20.2z"/>
	<path style="fill:#002955;" d="M251.2,45c-0.2-0.7-0.5-1.5-0.7-2.2c-0.3-1.3-0.1-1.7,1-2.3c0.2-0.1,0.5-0.2,0.7-0.4
		c0.6-0.4,0.5-0.9-0.1-1c-1-0.1-2-0.7-3.1-0.1c-1,0.7-1.5,1.6-1,2.7c0.5,1,1.1,2,1.8,2.9c0.2,0.3,0.7,0.4,1.1,0.6
		C251.1,45.2,251.2,45.1,251.2,45z"/>
	<path style="fill:#002955;" d="M174.4,94.5c-1.6,1.5-3,2.8-4.5,4c-1.5,1.1-3.1,2.1-4.7,3.1C168.3,102.4,174.1,98.2,174.4,94.5z"/>
	<path style="fill:#002955;" d="M121.6,76.6c-0.5-2.9-1.6-11.7-3.2-13.7C118.1,64.4,120.5,75.2,121.6,76.6z"/>
	<path style="fill:#002955;" d="M183.5,38.4c1.5-0.7,2.8-1.5,4.3-2c1.5-0.5,3.1-0.7,4.6-1.1c0.3-0.1,0.5-0.2,0.8-0.3
		c-0.2-0.1-0.5-0.4-0.7-0.4c-2.6-0.3-5.1,0.2-7.4,1.6C184.3,36.8,183.5,37.2,183.5,38.4z"/>
	<path style="fill:#002955;" d="M303.5,28.2c-3.5-1.9-7.3-2.4-11.3-1.1c0.5,0.1,1,0.4,1.5,0.4c1.7,0.1,3.3-0.1,5,0.1
		c1.2,0.1,2.3,0.5,3.5,0.7c0.4,0.1,0.8,0.2,1.2,0.3C303.4,28.4,303.5,28.3,303.5,28.2z"/>
	<path style="fill:#002955;" d="M274,22.5c1.6,0.8,3.3,1.7,4.9,2.5c0.7,0.3,1.3,0.6,2,0.8c0.3,0.1,0.7,0.2,1,0.1
		c0.2,0,0.4-0.3,0.4-0.5c0-0.1-0.2-0.3-0.4-0.4c-0.7-0.2-1.3-0.4-2-0.6c-1.6-0.6-3.2-1.3-4.8-1.9c-0.3-0.1-0.6-0.2-1-0.3
		C274.1,22.2,274.1,22.4,274,22.5z"/>
	<path style="fill:#002955;" d="M90,113.8c6.6-0.1,13.2-0.2,19.8-0.3c0.2,0,0.5-0.1,0.7-0.3c-6.8-0.7-13.7-0.8-20.5,0.1
		C90,113.4,90,113.6,90,113.8z"/>
	<path style="fill:#002955;" d="M101.8,111.9c-5.4-0.5-10.8-0.5-16.2-0.3c0,0.1,0,0.2,0,0.3C91,111.9,96.4,111.9,101.8,111.9z"/>
	<path style="fill:#002955;" d="M118.7,117.2c-4.3,0.1-8.6,0.2-12.9,0.3c0,0.1,0,0.1,0,0.2c4.3,0,8.6,0,12.9,0
		C118.7,117.5,118.7,117.4,118.7,117.2z"/>
	<path style="fill:#002955;" d="M92.2,115.2c5.3,0,10.7,0,15.9,0C106.8,114.6,100.1,114.6,92.2,115.2z"/>
	<path style="fill:#002955;" d="M161.3,66.6c-0.7,2.4,0.4,4.7,0.4,7c0-2.3,0-4.7,0-7C161.6,66.6,161.5,66.6,161.3,66.6z"/>
	<path style="fill:#002955;" d="M280,22.6c2.6,1,5.1,2,7.7,2.9c0.1-0.1,0.1-0.3,0.2-0.4c-2.6-1-5.1-1.9-7.7-2.9
		C280.1,22.4,280.1,22.5,280,22.6z"/>
	<path style="fill:#002955;" d="M198.4,92.5c-1.7,0.3-3.1,0.7-4.5,0.8c-1.4,0.1-2.8,0-4.1,0C190.8,94.2,197.1,93.7,198.4,92.5z"/>
	<path style="fill:#002955;" d="M256.6,134c0.9,0.3,1.8,0.8,2.7,0.9c5.4,0.4,10.9,0.7,16.3,1c0.3,0,0.7-0.2,1-0.3
		c-0.4-0.2-0.7-0.5-1.1-0.5c-2-0.3-3.9-0.6-5.9-0.8c-3.5-0.4-7.1-0.7-10.6-0.9c-0.8-0.1-1.6,0.2-2.4,0.3
		C256.6,133.8,256.6,133.9,256.6,134z"/>
	<path style="fill:#002955;" d="M260.8,132.1c4.6,1.5,9.3,1.1,14,0.8C270.2,131.9,265.5,131.4,260.8,132.1z"/>
	<path style="fill:#002955;" d="M263.3,130.3c2.3,0.2,4.4,0.3,6.6,0.4C269,129.7,265.2,129.4,263.3,130.3z"/>
	<path style="fill:#002955;" d="M290.5,28.6c0.6,0.5,3.3,0.6,4.7,0.1C294.4,28.3,294.4,28.3,290.5,28.6z"/>
	<path style="fill:#002955;" d="M157.7,42c0.1,1.2,0.3,2.4,0.4,3.6c0.1,0,0.2,0,0.2,0c-0.1-1.2-0.1-2.4-0.2-3.6
		C158,42,157.8,42,157.7,42z"/>
	<path style="fill:#002955;" d="M158,161.4c-0.3-0.4-0.5-0.7-0.7-1c-0.2,0.4-0.6,0.7-0.6,1.1c0,0.2,0.4,0.5,0.6,0.8
		C157.5,162,157.7,161.7,158,161.4z"/>
</g>
</svg>
