<svg viewBox="0 0 650 130" xmlns="http://www.w3.org/2000/svg" role="presentation">
<title>Connect</title>
<g id="Fills1">
	<g>
		<path style="fill:#FDBB25;" d="M590,100.4c2.2-3.9-0.8-8.6,3.3-11.9c6.6,4,15.8,11.4,23.6,19.4c-5.8,5.6-13.3,10.2-19.1,15.6
			c-1.1,1.1-2.1,1.2-3.5,1.7c-0.1-0.1-0.7-10.3-0.9-11c-3.7-0.1-10.4-0.3-14.1-0.3c-7.8,0-15.5,0.4-23.3,0.1
			c-8.4-0.4-16.9-0.6-24.9-3.8c-5.7-2.2-10.8-5.2-15.2-9.6c-4.6-4.5-9-9.2-12.7-14.5c-1.1-1.6-0.6-1.9-2.4-3.8c-2,3.3-2.9,8-4.1,11
			c-2.8,6.6-9.2,10.6-15,13.9c-8.7,5-20.5,7-30.4,8c-6,0.6-11.9,1.6-17.9,2c-5.6,0.4-11.2,0.1-16.8,0.3c-3.2,0.1-6.3,0.6-9.5,0.7
			c-6.6,0.1-13.1,0.1-19.7,0c-1.7,0,0.6-0.5-1-0.7c-0.7-1.8-0.5-3.3-0.8-4.8c-0.2-1.2-0.1-5.8,0.4-6.8c0.9-1.7-1.2-4.4,1.4-5.1
			c1.8-0.4-0.3-0.2,1.5-0.1c10.7,0.5,21.4,1.5,32,0.1c5.8-0.7,11.7-0.6,17.6-0.8c5.7-0.2,11.6,0.2,17.2-0.8
			c8.7-1.6,19.7-7.2,24.7-15c2.8-4.3,1.9-9.1,4.2-13.7c0.7-1.3,0.8-2.7-0.3-4.1c-4.3-5.2-8.4-10.5-13-15.8
			c-11.2-13.1-11.2-12-24.7-19.5c-3.6-2-7.7-2.6-11.6-2.9c-11.2-1.1-22.4-1.8-33.6-2.4c-2.6-0.2-5.3,0.4-8,0.6
			c-0.7,0.1-1.3,0.1-2,0.2c-7.3,0.3-6.4-0.4-6.3-8.5c0-1.6,0.3-4.2,0.4-5.8c0.3-3.5,0.2-5.4,3.7-5.3c10,0.2,20.1,0.6,30.1,0.8
			c4.3,0.1,8.5-0.2,12.7,1.1c0.3,0.1,0.6,0.2,0.8,0.1c4.7-1.4,8.9-0.2,13.1,1.3c4.9,1.8,9.4,6.5,13.1,10.3c2.3,2.4,4.6,4.9,7.1,7.1
			c7.9,6.8,14,15.3,21.3,22.7c2.5,2.5,2.9,2.6,4.1,3.8c0.8-1,3.6,0.2,4-0.7c2.2-3.9,4.4-8.9,7.7-14c4.7-7.1,8.4-15.1,16.7-18.1
			c2.4-0.8,4.8-1.9,6.8-3.4c2.3-1.8,4.9-2.2,7.5-2.4c4.9-0.5,9.8-1,14.8-1c5.4,0,10.8-0.6,16.3,0.3c2.8,0.5,5.9-0.3,8.8-0.3
			c4.8,0.1,9.6,0.5,14.4,0.7c1.9,0.1,3.7-0.1,6.1-0.1c0.4-3,1.8-5.9,2.2-8.8c1.3-1.1,1.7-1.1,3-0.1c6.2,5,12.5,10,18.7,15
			c0.3,0.2,0.4,0.7,0.6,0.9c-2.2,4.9-11.9,13.1-19.4,16.7c-0.8-0.5-3.7-7.6-4.2-9.2c-10.3,1.4-20.6,0.3-30.8,0.1
			c-8.6-0.2-17.2-0.3-25.7,0.4c-11.8,1.1-18.9,7.9-24.3,18.8c-2.7,5.4-6.2,9.7-8.7,15.1c-1,2.1-0.5,3.8,0.8,5.6
			c6,8,11.9,15.6,20.3,21c2.6,1.7,4.7,2.5,9.1,4.2c2.6,1,5.5,1.3,8.1,2.2c8.6,2.7,17.5,2,26.3,2.6
			C577.5,100.1,583.7,100.2,590,100.4z"/>
	</g>
</g>
<g id="Fills2">
	<path style="fill:#FDBB25;" d="M386.1,19.2c-0.7-5.3-2.1-13.5,2.3-12.7s37.3,0.3,46,1.3s14.3,2,26.7,15
		c12.3,13,29.3,32.3,32.7,31.3c3.3-1,9.7-13,10.7-16.7c1-3.7,13-21,28-21s61.8-0.8,62.7-1.4c1-0.6,0.1-10.3,2.2-8.8
		c2.1,1.5,18.1,12.2,19.8,14.2c1.7,2,5.3,2.3-3.3,10.3c-5,4.6-11.3,7.9-13.5,8.1c-2.2,0.2-4.2-7.8-4.2-7.8s-33-0.7-41-1
		s-22.3,1.3-26.3,3.7s-15,15.3-18.3,21c-3.3,5.7-4,10.3-2.3,14c1.7,3.7,10.7,16.3,14.7,19c4,2.7,31,13,45.7,13.3
		c14.7,0.3,21.3,2.3,21.7-0.8c0.3-3.2,2.7-14.6,3.3-11.9c0.7,2.7,28,18,24.7,20.4c-3.3,2.3-23.9,19.3-23.6,16.3c0.3-3,1.3-10-4.4-10
		c-5.7,0-47.3,1.7-56.7-3.7s-26.8-20.7-29.9-25.4c-3.1-4.6,0.3-2-6.4,5.4c-6.7,7.3-9.3,15.3-20.3,18s-40.3,7.3-56.7,8
		c-16.3,0.7-35.7,2.7-35.7-0.3s1.7-11.7,2.3-14.3c0.7-2.7,5.7-2,8.7-2s50.7-0.3,57.7-1c7-0.7,18-3.7,22.3-10
		c4.3-6.3,9.3-11,9.7-17.7c0.3-6.7-3.3-10-8.7-16s-15.7-20.7-25.7-24c-10-3.3-18.3-5-26.3-5.3c-8-0.3-36-0.3-37-0.7
		s-1.7-4.7-1.7-4.7L386.1,19.2z"/>
</g>
<g id="Fills3">
	<path style="fill:#FDBB25;" d="M385.5,18.2c-0.4-7.3,2.1-11.6,4.2-11.1c2.1,0.5,41.4,0.1,48.1,0.8c6.7,0.7,18,7.3,24.7,15
		s24.3,28.3,27.7,30c3.3,1.7,7,1.3,10.7-7c3.7-8.3,11.3-22,21.7-26.3s19.7-3.3,32.7-3c13,0.3,40-1.4,40-1.4c2-6.3,1.3-8.6,5-6.9
		c3.7,1.7,17.6,8.3,18.9,13.2s0.1,5.8-4.9,8.2s-11.6,11.6-13.8,9.5c-2.2-2.1-4.2-9.2-4.2-9.2s-41.4,0.4-53.4,1.4
		c-12,1-15.3-1.3-18.7,5.7c-3.3,7-15.9,22.2-17.5,27.4s0.5,3.6,4.5,9.2c4,5.7,14.3,20.3,28,22c13.7,1.7,38,5.7,43.7,5.3
		c5.7-0.3,9,0.3,8.3-4c-0.7-4.3,1.7-8.3,4.3-6.7c2.7,1.7,23.3,18,22.7,18.7c-0.7,0.7-23.8,17.3-24.6,15.8
		c-0.8-1.5,1.9-10.8-1.1-10.5c-3,0.3-47.7-1-51.7-1s-17.3-4.3-21.7-10c-4.3-5.7-14.7-16.7-16.3-18.7c-1.7,1-5,7.3-7,12
		s-11.7,9.3-19,13c-7.3,3.7-29.7,6.3-34,6.7c-4.3,0.3-39,1.3-43.7,2.3c-4.7,1-12.8,1.8-13.5-1.2c-0.8-3.5-0.5-13.5-0.2-14.8
		s9.3-3.3,11.3-3s46,1,48.7,0.7c2.7-0.3,20.3,0.3,25.7-3.7c5.3-4,10.7-11.3,13.7-17.3s1.3-13.3-1-16c-2.3-2.7-30.3-31.7-30.3-31.7
		s-28.3-6-35.3-6s-19.3,1.3-22.7,1.3s-10.7-0.3-10.3-1.7C385.4,23.9,385.5,18.2,385.5,18.2z"/>
</g>
<g id="Lines">
	<g>
		<g>
			<g>
				<path style="fill:#002955;" d="M595.1,97.5c1.6-3.9-0.3-8.4,2.9-11.7c-1.5,0.4-2.9,0.8-4.4,1.2c3.5,2.1,6.9,4.5,10.1,7.1
					c3,2.5,7.9,5.7,9.9,9.1c2,3.3-4,7.3-6.4,9.7c-3.2,3.2-6.5,7.7-10.9,9c0.8,0,1.7-0.1,2.5-0.1c-2.9-3.2-2.3-6.8-2.9-10.7
					c0-0.3-0.7-0.4-0.9-0.4c-17.5-0.3-36.4,2.7-53.6-1.3c-8.2-1.9-15.5-6.1-21.5-11.9c-5.8-5.6-10.5-12.1-16.2-17.7
					c-0.9-0.9-4.1,0.5-4.6,1.5c-4.2,7.3-7.1,15-14.1,20c-8.2,6-17.8,8.6-27.7,10c-18.3,2.6-36.8,3.9-55.3,4.3
					c-3.8,0.1-12.2,1.7-14.7-1.7c-1.7-2.3-1.6-8.3,0.6-10c1.4-1.1,4.7-0.4,6.4-0.4c2,0,3.9-0.1,5.9-0.2c4.5-0.2,8.9-0.6,13.4-1.1
					c10.1-1.2,20.1-2.2,30.3-2.5c7.1-0.2,13.9-0.6,20.7-2.8c5.7-1.9,11.1-4.8,15.1-9.3c2.2-2.5,3.9-5.4,5.4-8.4
					c1.6-3,4.7-7.5,4.9-10.9c0.2-2.9-2.9-5.3-4.6-7.3c-3.2-3.8-6.3-7.6-9.7-11.3c-5.4-6-11.7-11.1-18.6-15.3
					c-6.9-4.3-12.8-6.2-20.9-6.8c-9.6-0.7-19.1-1.1-28.7-1.5c-3.7-0.1-7,0.1-10.7,0.5c-2.3,0.3-6.3,1.3-8.2-0.3
					c-1.6-1.3-1.5-4.2-1.6-6c0-2.1-0.2-4.6,0.4-6.5c0.9-3,3.4-3.2,6.4-3.2c10,0.1,20,0.2,30,0.2c2.8,0,5.4,0.5,8.2,0.9
					c2.5,0.3,4.2-0.6,7.1,0c4.4,0.9,9.3,2.9,13.2,5.3c3.8,2.3,6.6,5.4,9.7,8.4c3.3,3.2,6.8,6,10.1,9.3c6.6,6.7,12.5,13.9,19.6,20.1
					c0.9,0.8,3.8-0.4,4.4-1.2c5.6-7.2,8.1-16.3,14.2-23.4c3.2-3.8,7-6.8,11.6-8.8c4.2-1.8,8.6-5.1,13-5.9c9.7-2,20.7-1.9,30.5-1.3
					c5,0.3,10.1-0.5,15.1-0.3c4.8,0.2,9.4,0.3,14.2,0c0.8,0,3.7-0.4,3.9-1.6c0.2-1.3,0.1-6.7,0.6-7.2c0.1-0.1,4.7,3.6,5.6,4.3
					c2.2,1.7,4.4,3.4,6.6,5.1c1.4,1.1,6.9,4.3,6.7,6.3c-0.2,2.7-5.5,6.7-7.3,8.4c-3.5,3.1-7.2,6-11.4,8.2c1.2-0.2,2.4-0.4,3.7-0.6
					c-3.5-2.4-2.4-6.4-3.2-10c-0.1-0.5-1.1-0.4-1.4-0.3c-16.4,2.2-33.1,0.1-49.6,1.1c-10.8,0.6-21.5,2.8-29.5,10.8
					c-4.2,4.2-6.6,9.4-8.9,14.7c-1.5,3.6-3.2,7.2-4.6,10.8c-1.3,3.3-0.6,5.1,1.6,7.9c8,10.3,18.1,19.7,30.9,23.5
					c17.1,5.1,35.3,3.9,53,4.1c1.1,0,5.4-2.2,3-2.2c-17.6-0.2-35.9,1-52.9-4.3c-7.4-2.3-13.7-6.6-19.3-11.9
					c-2.8-2.6-5.4-5.4-7.9-8.4c-1.3-1.5-3.4-3.6-4.1-5.6c-0.7-2.3,0.7-4.6,1.6-6.7c3-7,5.4-14.7,10.3-20.6c5.2-6.2,12.1-8.9,20-9.7
					c18.1-1.8,36.5,1,54.5-1.4c-0.5-0.1-0.9-0.2-1.4-0.3c1,4-0.2,7.7,3.6,10.4c0.9,0.6,2.9-0.2,3.7-0.6c5.4-2.9,10.4-6.7,14.7-11
					c1.9-1.9,3.9-3.9,5.2-6.2c1.5-2.6,0.3-3-2-4.8c-3.6-2.8-7.3-5.6-10.9-8.5c-2.3-1.8-5-4.9-7.9-5.3c-1.6-0.3-4.3,0.5-5.6,1.6
					c-2.1,1.9-1.6,6.8-2,9.6c1.3-0.5,2.6-1.1,3.9-1.6c-11.5,0.6-23.2,0-34.8-0.1c-9.9-0.1-21.7-0.3-31.2,2.7
					c-4.4,1.4-8.1,4.4-12.3,6.2c-3.7,1.6-7,3.8-10,6.5c-3.4,3.1-6.1,6.7-8.5,10.6c-3.3,5.3-5.4,11.6-9.2,16.6
					c1.5-0.4,2.9-0.8,4.4-1.2c-6.9-6-12.7-12.9-19-19.5c-3.2-3.3-6.7-6.1-10.1-9.3c-3.3-3.2-6.3-6.5-10.3-9
					c-6.2-3.7-13.2-5.9-20.3-5.8c-4.7,0.1-9.4-0.6-14.1-0.6c-5.3,0-10.7-0.1-16-0.2c-6-0.1-15.4-2-20.7,1.8c-4,2.8-4.3,11.8-2.6,16
					c1.6,4,6.8,3.1,10.3,2.8c10.1-1,20.1-0.4,30.3,0.2c5.5,0.3,11.1,0.3,16.5,1.3c5.2,1,9.8,3.8,14.2,6.6c8,5.1,14.7,11.4,20.8,18.6
					c1.6,1.9,3.2,3.8,4.8,5.7c1.4,1.6,5,4.8,5.4,6.9c0.7,3.5-3.9,10.4-5.6,13.4c-5.8,10.5-15.5,14.9-27.2,15.5
					c-10.5,0.5-20.8,0.6-31.2,2c-5,0.7-10,1.3-15,1.6c-5.5,0.4-11.2-0.2-16.6,0.4c-5.8,0.5-8.1,3.7-8.2,9.6c0,2.6,1,5.7,3.2,6.7
					c4,1.6,10.3,0.4,14.4,0.3c11.3-0.2,22.6-1,33.9-1.6c10.4-0.6,21.4-2.1,31.6-4.4c8.5-1.9,16.6-5.1,23.6-10.1
					c7.9-5.5,11-13.4,15.6-21.6c-1.5,0.5-3.1,1-4.6,1.5c6.9,6.8,12.3,15,20,21.1c7.3,5.8,16.3,8.9,25.5,9.9c9.8,1,19.7,0.7,29.5,0.3
					c2.9-0.1,5.8-0.2,8.6-0.2c1.7,0,5.9-0.7,7.4,0.1c2,1.1,1.3,4.2,1.7,6.1c0.4,2,1.2,3.2,2.5,4.7c0.4,0.5,2,0,2.5-0.1
					c9.6-3,16.2-12.7,23.2-19.7c0.2-0.2,0.3-0.5,0-0.7c-6.8-6.7-13.7-13.2-22-18c-1.2-0.7-3.5,0.3-4.4,1.2
					c-3.6,3.6-1.5,7.9-3.3,12.2C590,99.4,594.5,98.8,595.1,97.5z"/>
			</g>
		</g>
	</g>
	<g>
		<path style="fill:#002955;" d="M50.4,26.8c0.4,2.3,0.4,4.5,0,6.6c-0.4,2.3-1.4,3.9-3.3,3.9h-0.6c-2.3-0.4-1.6-6.4-1.8-8.2
			c-0.2-1.6-0.6-3.3-1-5.1c-0.8-3.3-2.9-7-7-7h-1c-5.5,0.8-10.1,8-12.9,12.5l-0.8,1c-5.1,9-8.6,18.9-10.5,28.9
			c-0.6,2.7-1,5.5-1.4,8.2c-1.4,7.8-2.1,15.6-1.2,23.6c0.6,5.1,2.3,9.9,5.1,14.2c1.8,2.9,4.9,4.7,8.4,4.9c1.6,0,3.3-0.6,4.7-1.8
			c6.8-5.3,10.1-11.1,14-18.3c0.8-1.8,2.5-5.1,4.3-5.1c0.6,0,1.2,0.2,1.6,0.6c0.6,0.8,0.8,1.8,0.6,2.9c-1,5.1-5.3,8.8-7.6,14
			c-3.3,5.1-8.2,11.9-14,14c-2.3,0.8-4.7,1.2-7.2,1.2c-3.1,0-6.4-1.4-8.4-3.9c-3.7-4.5-6.2-9.6-7-15.4C2.4,93.5,2,88.8,2,83.8
			c0.4-4.5,0.4-9,1-13.3L3.8,66c1.2-7.8,3.3-15.4,6.4-23l0.6-1.4c2.3-7,5.3-13.5,9.2-19.7c4.1-6.2,11.5-12.3,18.1-12.3
			c2.5,0,4.7,0.8,6.4,2.5c3.1,3.3,5.1,7.4,5.7,11.9C50,25.3,50.2,26.2,50.4,26.8"/>
		<path style="fill:#002955;" d="M107.9,68.6c-0.2,1.8-0.4,3.9-0.8,6.2c-2.7,15.2-10.3,35.3-25,42.1c-2.5,1-5.1,1.6-7.8,1.8
			c-1.6,0-3.3-0.4-4.9-1c-6.4-2.7-10.1-9-11.9-15.6c-1.8-6.2-4.1-11.7-4.1-18.7c-0.2-7,0.4-13.8,1.6-20.7c0.8-4.3,1.8-8.8,3.1-13.1
			c2.7-9.4,7.6-18.1,13.3-26.7c4.9-7.2,13.5-12.5,21.6-12.5h1c6.6,0.4,9.2,4.3,11.7,9.4c2.7,5.7,2.5,11.7,3.1,17.9
			c1.2,9.4,0.2,19.3-1,29.4L107.9,68.6z M99.2,22.9c-0.6-1.4-1.2-3.1-2.3-4.3c-1-1.6-3.1-2.5-4.9-2.5c-5.7,0-13.1,7.2-16.8,11.1
			C68,36,63.5,46.5,61.9,57.6c-1,7.2-1.6,14.2-1.4,21.3c-0.6,7.4,0.6,15,3.1,21.8c1,3.1,3.1,6,5.7,8.2c1.8,1.4,4.3,2.5,6.8,2.5
			c3.1,0,5.7-1,8.2-3.1c4.3-3.1,7.6-7.6,9.4-12.5c3.9-9.9,6.8-20.1,8.8-30.6C105,50.4,104.6,35.4,99.2,22.9"/>
		<path style="fill:#002955;" d="M130.2,24.1c-0.4,0-0.8,0.6-1.2,2.1c-1.2,3.5-2.5,7-3.1,10.7c-0.6,2.1-0.8,3.7-1,5.5l-1.6,10.1
			c-1.2,6.8-3.1,13.1-4.1,20.1l-0.4,2.5c-0.4,2.3-0.6,4.5-1,6.6c-1.4,8.8-3.5,17.2-6,26.3c-0.8,2.7-3.1,10.9-5.5,10.9
			c-0.8,0-1.4-0.6-1.6-1c-0.4-0.8-0.4-1.6-0.2-2.5c0.6-2.7,2.7-6.4,3.1-8.2c1.2-3.9,2.3-8,2.9-12.1c1-5.3,1.6-10.9,2.7-16.2l0.8-3.9
			c2.3-13.1,5.7-26.9,8.4-40.2l0.6-3.5c1.2-7,3.7-20.7,9.6-20.7c3.5,0,4.7,9,5.5,12.1c1.6,5.7,1.8,11.9,2.9,18.1
			c1.8,13.1,4.9,26.3,9,39l3.5,11.1c1,3.3,1.8,7.2,3.7,10.1c0.2,0.4,0.4,0.6,0.8,0.6c0.4,0,0.8-1,1-1.4c0.4-2.1,1-4.1,1-5.7
			c1-6.6,2.9-13.1,3.9-19.3c1-6.6,2.9-13.1,4.1-19.5c0.8-4.1,1.2-8,1.8-11.7l0.6-3.1c1-5.1,1-4.3,2.3-9.4c0.6-1.4,1-3.1,1.2-4.7
			l0.2-0.8c0.2-0.6,0-1,0.2-2.1c0.2-0.8,0.4-1.6,0.8-2.5c0.8-2.1,2.5-5.1,4.5-5.1c0.4,0,0.4,0.2,1,0.2c1,0.4,1.2,2.1,1,3.9
			s-1,3.9-1.2,5.1c-2.1,8.8-2.9,11.7-4.7,20.9c-2.9,13.1-5.1,25.9-7.2,39c-0.8,4.9-1.6,9.4-2.9,14.4c-0.8,3.3-1.4,8.8-4.3,11.7
			c-0.4,0.4-1,0.6-1.6,0.6c-1.2,0-2.9-1.6-3.7-2.5c-2.7-2.7-4.1-7-5.7-10.5c-4.5-10.7-8-21.6-10.7-33c-1.4-6.4-2.5-13.1-3.5-19.7
			c-0.6-3.1-0.8-6.4-1.2-9.6c-0.2-2.9-1-5.5-1.8-8.2C131.5,26.2,131.1,24.1,130.2,24.1"/>
		<path style="fill:#002955;" d="M191.6,40.3c-3.9,17.9-6.6,35.5-9.9,53.6c-0.8,4.1-1.6,8.2-2.7,12.1l-1.2,6.2
			c-0.2,1-0.2,2.1-0.4,3.1c0,0.6-0.2,1-0.4,1.4c-0.4,1-2.1,1.8-3.3,1.8c-0.6,0-1-0.2-1.2-0.8c-0.2-1-0.2-1.8,0-2.9
			c0.2-1.2,0.6-2.7,1-4.1l4.3-25.2c0.6-3.1,1.2-6.2,1.6-9.2c3.3-18.9,7-37.6,10.9-56.4c0.4-1.6,1-5.1,2.9-6.2c0.4-0.2,0.8-0.2,1-0.2
			c2.7,0,3.9,4.3,4.3,6.2c0.8,5.3,1.4,11.1,1.8,16.4c1.2,16.4,4.3,32.4,9,48.2c1.6,5.7,3.3,11.5,5.1,17.2c0.4,1,0.8,3.3,2.3,3.9
			c0.6-1.4,0.8-2.9,1-4.3c1.6-10.1,3.3-20.3,5.1-30.6l1.2-7.6c2.7-14,5.3-28.3,8.4-42.5c0.2-1.4,0.6-2.9,1-4.3
			c0.2-0.8,0.4-1.4,0.6-2.3c0.2-1,0.8-3.1,2.1-3.5c0.4-0.2,0.8-0.2,1.2-0.4c0.8,0,1.4,0.2,2.1,0.8c0.8,1,1,2.1,0.6,3.1l-0.2,1
			c-4.9,20.3-8.8,41.1-12.5,61.4l-0.6,3.1c-1.4,9-2.7,17.9-4.1,26.9l-0.4,2.1c-0.2,1.4-0.6,3.1-1.2,4.5c-1,1.6-2.1,2.7-3.1,2.7
			c-1-0.2-1.6-0.6-2.3-1c-1.2-1.2-2.3-2.9-2.9-4.3c-6-12.1-10.1-24.8-12.7-38c-2.3-10.1-3.3-20.7-4.9-31.2c-0.2-2.9-0.8-5.7-1.2-8.6
			C192.8,34.8,192.2,37.6,191.6,40.3"/>
		<path style="fill:#002955;" d="M254,18.1c-0.6,2.3-1,4.7-1.2,7c-0.6,2.9-1,5.3-1,8.2c-0.2,1.8-0.2,3.1-0.4,4.3
			c-0.2,1-0.8,3.1-0.6,2.9c-0.4,1-0.8,2.1-1,3.1c-0.2,0.6-0.4,1-0.4,1.4c0,0.4,0,1,0,1.2l-0.6,3.1c-0.2,2.1-0.4,2.7-0.6,3.7
			c0,0.4,1,0.4,1.8,0.4c1,0.2,1.8,0.2,2.9,0.2c2.1,0,4.1-0.4,7-0.4c1,0,2.5,0.2,2.9,1c0.2,0.4,0.4,1,0.2,1.2c-0.2,1.2-1,2.5-2.5,3.1
			c-0.8,0.2-1.2,0.2-2.1,0.4c-1,0-1.6-0.2-2.7-0.2c-0.8,0-1.4,0-2.3-0.2c-0.8,0-1.2-0.2-2.1-0.2s-1.2,0.2-2.1,0.2
			c-0.8,0.2-1.4,0.2-2.3,0.4c-0.6,2.7-1.4,7.2-2.3,11.9c-0.6,3.3-1,6.4-1.2,8.2c-0.2,1.4-0.4,2.9-0.6,4.3c-0.4,2.1-0.6,3.7-1,5.5
			c-0.6,2.9-0.8,5.5-1,8.4l-0.4,1.8c-0.6,2.9-1,6.2-1.6,9l-0.4,2.3c1.4-0.2,3.1-0.2,5.1-0.2c2.1,0,3.5,0,5.1-0.2l9.2-0.4
			c1,0,2.3-0.2,3.5-0.2c1.2,0,2.9,0.2,3.3,1c0.4,0.6,0.4,1,0.4,1.6c-0.2,1-0.8,1.6-1.4,2.1c-1,0.8-2.5,1-3.7,1l-9,0.6h-7.8
			c-2.3,0.2-4.1,0.2-6.2,0.2c-1.2,0-2.3,0.2-3.5,0.2c-0.4,0-0.6,0.2-1,0.2c-0.4,0-1-0.2-1.2-0.4c-0.4-0.4-0.2-1-0.2-1.8
			c0.2-0.8,0.6-2.1,0.6-2.7l0.8-5.3c2.1-11.7,4.9-25.2,7.2-37.6c1-5.1,1.6-10.1,2.3-14.8c1-8.8,1.2-13.1,2.5-20.1
			c0.4-1.6,0.8-3.3,1-5.1c0.8-3.9,2.1-7.6,2.7-11.1c0.4-2.1,2.1-3.5,4.1-3.7c3.3-0.8,6.8-1,10.1-1c1.4,0,3.1,0,5.1,0.2
			c2.5,0.2,3.7,1.2,3.3,2.7c-0.2,1.2-1.6,2.1-4.9,2.3c-0.6,0.2-1.2,0.2-1.8,0.2c-1.6,0-2.9-0.4-4.9-0.4c-1,0.4-1.8,0.6-2.9,0.6
			C256.1,17.5,255,17.7,254,18.1"/>
		<path style="fill:#002955;" d="M316.6,25.9c-3.5,0-5.3-6.8-7.8-8c-0.6-0.4-1-0.4-1.6-0.4c-2.9,0-5.7,3.1-7.8,5.1
			c-3.1,3.5-5.3,7.4-7.2,11.7c-2.9,6-5.1,12.3-7.4,18.7c-0.8,2.9-1.4,5.5-1.8,8.4c-1,5.7-1.2,11.7-1.2,17.4c0,2.5-0.2,5.1,0,7.2
			c0.2,5.1,1,10.3,2.9,15.2c1.2,3.1,2.9,7,6.2,8.8c1,0.4,1.8,0.8,2.9,0.8c1,0,2.3-0.4,3.3-1c7.2-3.3,9-13.5,11.7-19.5
			c0.6-1.4,2.1-5.1,4.1-5.1c2.5,0,2.9,2.1,2.3,5.1c-1.2,4.9-3.1,9.6-5.3,14c-1.4,3.1-3.3,6.4-5.5,9c-2.1,2.9-5.1,4.9-8.6,5.1
			c-0.8,0.2-1.6,0.2-2.5,0.2c-11.7,0-16-13.3-17.7-23.2c-0.6-3.9-0.8-7.8-0.8-11.7c0.2-6.4,1-12.7,1.8-18.9
			c0.6-3.3,1.2-7.2,2.3-10.5c0.6-2.9,1.2-5.5,2.3-8.4c1-3.3,2.5-7,3.7-10.1c1.8-5.1,4.5-9.6,7.8-14c3.1-4.1,6.8-7.6,11.1-10.7
			c1.2-0.8,2.9-1,4.5-1c4.7,0,8.6,4.3,10.5,8c0,0.4,0.4,0.4,0.4,0.8l0.2,0.2c0.8,1.4,1,3.1,1,4.9c-0.2,1-0.8,1.6-1.6,2.1
			C317.2,25.9,316.8,25.9,316.6,25.9"/>
		<path style="fill:#002955;" d="M333.9,17.1c-1.4,0-3.1,0.2-4.7,0.4c-0.4,0-1.2,0.2-2.5,0.2c-2.5,0-4.9-0.4-4.7-2.1
			c0.2-0.8,0.8-1.2,1.2-1.8c1-1,2.9-1.6,4.3-1.4h3.1c1.2,0,2.3-0.2,3.5-0.2c3.3,0,6.4,0.4,9.9,0.4c1,0,2.3,0,3.3-0.2
			c6.2-0.4,11.7-1,17.9-1c1,0,2.7-0.2,3.9-0.2c1.2,0,3.1,0.2,3.7,1c0.4,0.4,0.4,1,0.4,1.4c-0.6,3.5-14.6,3.3-16.2,3.5
			c-1.2,0-2.9,0.2-4.1,0.4c-2.5,0-2.7,1-2.9,2.7c-0.2,1-0.4,1.6-0.6,2.5c-1.4,8.8-3.1,18.7-4.9,29.1c-1.8,10.3-3.7,20.7-5.1,29.4
			l-4.7,26.3c-0.2,0.6-0.4,1-0.4,1.8c-0.2,0.6-0.2,1.2-0.4,2.1c-0.2,1.8-1,3.7-2.5,5.1c-0.6,0.4-1,0.6-1,0.6c-1.2,0-1.6-2.1-1.6-3.5
			c0.2-4.1,0.6-8.2,1.2-12.1c1-5.7,2.3-11.5,3.3-17.2c2.1-11.5,5.1-29.4,7-40.8c1-6.4,2.3-12.5,3.5-19.1l0.6-3.3
			c0.2-1.2,0.4-2.5,0.4-3.7C341.3,17.3,337.6,16.9,333.9,17.1"/>
	</g>
</g>
</svg>
