<svg viewBox="0 0 650 130" xmlns="http://www.w3.org/2000/svg" role="presentation">
<title>Cushion</title>
<g id="Fills1">
	<g>
		<path style="fill:#049ED2;" d="M613.5,107.3l9.5-8.4c-0.1-0.2-11.6-8.4-16.3-11.7c-2.9-2-12.8-8.3-14.5-1.6
			c-0.6,2.2,0.9,6.3,0.1,8.1c-0.7,1.4-1.4,1.2-3.5,1.6c-7.1,1.3-15,0.8-20.3,1c2.9-10.6,0.5-47.4-7.2-53.7
			c-5.1-4.2-8.9-7.8-15.5-8.8c-6.5-1-16.7-0.1-21.9,4.3c-1.9-8.5-5.9-15.2-12.8-20.8c-2.8-2.3-5.9-4.9-9.2-6.5
			c-4.2-2.1-8.9-2.1-13.6-2.3c-15.2-0.6-30.4,11-36.3,24.7c-4.4-7.5-15-11.7-23.3-13.3c-9.3-1.8-18.7-0.3-26.7,4.5
			c-19.6,11.8-21.7,54.6-14,72.8c-6.3,0.4-10.5,0.9-16.8,1.1c-3.5,0.1-7.1-0.3-10.7-0.3c-2.2,0-7.6,0.4-9.7-0.3l-1.1,5.5
			c0.1,1.7-0.6,5.9,0.3,7.2c1.3,1.9,6,2.8,7.8,2.6c5.4-0.5,10.1-1.2,15.5-1.2c7.3,0,14.3,0.7,21.5,1c3,0.1,6.1-0.3,9.1-0.3
			c2.3,0.1,3.4,0.8,5.4-0.7c2-1.5,4.4-5.8,3.7-8.1c-0.5-1.8-1.4-2.1-2.7-3.6c-8.2-9.3-13.1-39.3-8.7-50.9
			c4.3-11.5,20.1-18.8,31.8-12c5.8,3.4,8.6,9.1,12.8,14c5.7,6.5,10.7,2.2,14.4-3.9c3-4.9,5.5-10,9.6-14.1c2.2-2.1,4.5-3.9,7.2-5.1
			c3.3-1.5,7.6-3.9,11.3-4.1c10.3-0.4,19.9,9.5,22.6,21.6c1.3,5.5,3.6,17.5,11.5,11.5c3.1-2.3,5.3-5.4,9-6.9
			c3.2-1.4,8.3-0.9,11.6-0.2c7.1,1.3,10.8,7.6,12.9,14.5c1.9,6-1.6,32.2-3.5,37.9c-3.3,9.7,6.5,7.5,12.3,7.3c4.7-0.1,9.2,0.3,14-0.3
			c2.9-0.3,11.7-2.7,13.5-0.2c1.8,2.5-0.3,7.8,2.1,10.1c3.2,3,7-0.8,9.2-3C607.2,113.3,610.2,110.3,613.5,107.3"/>
	</g>
</g>
<g id="Fills2">
	<path style="fill:#049ED2;" d="M348.7,107.2c0-5-1.7-10.3,4-9.7c5.7,0.7,34,0.3,34,0.3c-2.7-6.3-4-37.3-2.3-43s7.7-26.7,14.7-30
		s17.7-8.7,25.3-5.7s25.3,7,27.7,12.7c3-6.3,22-24,30-24.3s29,6,34.7,16.3c5.7,10.3,7,14.2,7,14.2c4-3.6,21-6.6,26.6-2.2
		s16.3,7.7,17.7,24.7c1.3,17,0.3,35.7,0.3,35.7c8,0.9,18-1.3,20.3-1c2.4,0.3,2.7-6.1,2.7-7.7s-1-8.3,4-5.7c5,2.7,27.5,17,27.5,17
		c-3.5,4.3-20.2,18.6-22.9,20c-2.7,1.3-7.7-0.7-7.3-4.7c0.3-4-1.3-6-9-5.7c-7.7,0.3-27.7,1-29.3,0.7c-1-1.7,1.3-6.7,1-11.3
		c-0.3-4.7,2.7-32,0.7-34.3c-2-2.3-8-17-18-14.3c-10,2.7-17.7,13-21,9.3c-3.3-3.7-7.7-27.7-17.3-31.3c-9.7-3.7-26,1.3-29.5,6.1
		c-3.5,4.9-12.5,22.5-17.5,21.2s-15-15.7-22-18s-25,0.3-26.7,5.7c-1.7,5.3-6,23.3-5,31s12,27.3,12,30.7c0,3.3-0.1,9.7-7.2,8.8
		c-7.1-0.8-28.1-1.8-32.4-0.2s-16.7,1-20-0.7C348.1,110.2,348.7,107.2,348.7,107.2z"/>
</g>
<g id="Fills3">
	<path style="fill:#049ED2;" d="M348.7,107.2c1.3-5.3-0.7-10.3,7.7-9.7s31.5-0.2,31.5-0.2c-0.5-9.5-5.8-16.8-4.5-23.5
		c1.3-6.7,7.7-39.7,9.7-42.7s12.7-11.3,20-12c7.3-0.7,29,5.3,34.3,9s3,6.3,9.7-2.3c6.7-8.7,22-19.7,28.7-19.3
		c6.7,0.3,25.7,6.3,31,17.3c5.3,11,7,14.2,7,14.2c7.3-3.6,16.5-7.4,21.9-4.3c5.4,3.1,16.7,6.1,19.4,13.8c2.7,7.7,6.3,11,5.3,24.7
		s-2.7,20.7-1.3,23c1.3,2.3,22,2.3,22.7,0c0.7-2.3-1.7-8.3,0.3-10.7s9.7-2.1,14.5,2.6c4.8,4.7,14.8,11.7,14.8,11.7
		c-2.7,4.3-21,21-23.7,21.7c-2.7,0.7-5.1-11.2-5.1-11.2s-8.9-0.8-19.3-0.1c-10.3,0.7-19,0-19,0c1-8,3-12.3,1.7-20
		c-1.3-7.7,3.3-15.3,0.7-21.7c-2.7-6.3-6.3-18.7-15.3-18.7s-19.7,9-22,9.7s-4.7-10-9-17.3c-4.3-7.3-11.7-18-18.3-17.3
		c-6.7,0.7-21.7,5.3-24,11.7c-2.3,6.3-12.3,20.3-15.3,19s-14.3-15-18.3-16.3c-4-1.3-10-5.3-16-3.7s-15,11-16.8,14.8
		c-1.8,3.8-1.8,26.2-0.8,31.2s10.7,20.7,10.3,23.3c-0.3,2.7-0.3,8.3-5.7,9c-5.3,0.7-26.3-1.3-30.3-1c-4,0.3-18.7,0.7-21,0.7
		C351.7,112.5,348.7,107.2,348.7,107.2z"/>
</g>
<g id="Lines">
	<g>
		<g>
			<g>
				<path style="fill:#002955;" d="M346.5,103.7c0.2,4.7-0.3,11.4,6.1,12.1c2,0.2,4.2-0.4,6.2-0.5c2.7-0.2,5.4,0,8,0.1
					c6.3,0.3,12.6,0.1,19,0.4c6,0.3,11.9-0.2,17.9-0.1c3.3,0,7,0.9,8.9-2.6c3.6-6.6-4.1-11.5-6.6-16.6c-3.6-7.5-5.3-16.1-6.2-24.3
					c-0.8-6.8-1.4-14.8,1.4-21.2c3.5-8.1,12.4-14,21.1-14.5c5.3-0.3,10.4,1.6,13.9,5.7c2.9,3.4,4.8,7.4,7.9,10.6
					c6.1,6.5,11.6,3,15.7-3.7c2.9-4.8,5.2-10,9.2-14.1c3.5-3.6,8-6,12.6-7.9c11.2-4.8,22.5,1.9,25.3,13.4c1.4,5.6,2,11.4,5.9,16
					c5.1,6,9.5,0.9,14-3c7.9-6.9,25.3-4.4,27.8,7.2c1.3,6.1-0.4,13.4-1.3,19.5c-0.9,6-2,11.9-3.4,17.8c-1.1,4.7,0.2,9.8,5.3,11.4
					c3.2,1,6.8,0.4,10.1,0.1c5.4-0.4,10.9,0.1,16.3-0.8c2.4-0.4,9.1-2.9,10.9-1.1c0.6,0.6,0.2,4.5,0.5,5.6c0.3,1.2,0.9,2.2,1.6,3.1
					c2,2.8,4.7,3.8,7.8,2c4.9-2.9,8.9-8.6,12.9-12.5c0.9-0.9-2.2-4.7-2.8-4.1c-3.7,3.6-7.1,7.6-10.9,11c-1.1,1-4.4,3.8-5.9,2.1
					c-0.8-0.9-0.1-4.1-0.4-5.4c-1.4-6-5.7-6.8-11.1-5.9c-8.3,1.4-16.6,1.6-25.1,2.1c-1.3,0.1-2.6,0.1-3.8,0
					c-2.2-0.2-2.9-0.1-2.8-2.3c0.1-2.2,1.2-4.8,1.7-7c1.4-6.8,2.5-13.7,3.2-20.6c0.5-5,1.2-10.4-0.8-15.1c-2.6-6.1-7.5-11.9-14-13.9
					c-3.7-1.2-8.2-1.6-12-0.9c-4.4,0.8-7,4.2-10.3,6.9c-3.7,3.2-7.1,3.5-8.8-1.7c-1.1-3.3-1.3-6.7-2.3-10
					c-1.9-6.1-5.6-11.9-10.7-15.7c-6.5-4.8-14.1-5.2-21.3-1.8c-4.1,1.9-8,4-11.1,7.3c-3.7,3.8-6,8.5-8.6,13
					c-2.1,3.6-5.2,9.1-10.1,8.5c-4.8-0.5-8.7-9.7-11.7-13.1c-4.8-5.3-11.3-7.8-18.5-6.6c-7.5,1.3-14.6,6.2-18.3,13
					c-3,5.6-3,12.3-2.6,18.5c0.5,8.6,2.1,17.3,4.9,25.4c1.2,3.4,2.6,6.7,4.4,9.7c1.6,2.6,5.2,5.2,4.5,8.4c-0.9,4.2-4.2,4.1-7.7,4
					c-2.8-0.1-5.6,0.3-8.5,0.4c-6.8,0.2-13.6-0.6-20.4-0.6c-6.3,0-12.8-0.8-19-0.1c-1.8,0.2-3.8,0.8-5.6,0.3
					c0.2,0.3,0.4,0.6,0.5,0.9c-0.1-0.9-0.1-1.8,0-2.7c0-1,0.1-1.9,0-2.9C349.5,105.7,346.5,102.3,346.5,103.7L346.5,103.7z"/>
			</g>
		</g>
		<g>
			<g>
				<path style="fill:#002955;" d="M616,104.9c3.1-2.9,6.2-5.8,9.3-8.6c0.7-0.6,0.5-1.7-0.2-2.2c-5.8-4.6-12.9-7.6-19.1-11.7
					c-0.9,0.9-1.9,1.9-2.8,2.8c0,0,0.1,0,0.1,0.1c1.2,0.7,2.9,0.5,3.8-0.7c0,0,0,0,0,0c0.3-0.4,0.1-1-0.1-1.4
					c-2.4-3.9-9.8-8.1-14.3-5.6c-4.1,2.3-2.5,6.3-2.7,10c-0.2,2.5-0.6,2.6-3.3,3.2c-1.7,0.4-3.5,0.5-5.2,0.6
					c-4.1,0.3-8.3,0.3-12.4,0.5c1,0.7,2,1.4,3,2c1.8-7.7,1.3-16.1,0.5-23.9c-0.9-8.4-2.4-17.3-6.4-24.8
					c-8.2-15.6-33.4-20.9-47.2-9.9c1.5,0.3,3,0.6,4.5,0.9c-2.1-8.1-6.2-15-12.6-20.4c-3.3-2.8-7-5.7-11-7.6c-4.4-2-9.2-2.3-14-2.4
					c-17.1-0.2-32.5,10.9-39.2,26.5c1.5,0,3.1,0,4.6,0.1c-14.7-22-51.5-19.2-64.5,2.8c-10.3,17.4-12.3,45.5-1,62.9
					c0.6-0.8,1.2-1.6,1.8-2.5c-6.3,0.3-12.6-0.7-18.9-0.4c-5.3,0.2-11.9,2-17.1,0.8c-2.7-0.6-4.9,2.6-1.7,3.3
					c5.2,1.1,11,0.1,16.2-0.3c7.5-0.6,14.9,0.6,22.4,0.2c1.2-0.1,2.6-1.2,1.8-2.5c-9.8-15-8.5-38.1-1.8-54.1
					c4.1-9.8,10.7-16.7,20.9-20.1c12.7-4.3,29.7-0.4,37.4,11.2c0.9,1.3,3.9,1.7,4.6,0.1c5.8-13.4,18.7-24.3,33.7-24.4
					c4.5,0,9.2,0.1,13.3,2.3c3.3,1.8,6.4,4.2,9.2,6.7c5.6,4.9,9,11,10.9,18.2c0.5,1.9,3.3,1.9,4.5,0.9c7.4-5.9,20.1-5.6,27.9-1.1
					c7,4.1,10.8,8.8,13.2,16.4c3.9,12.4,5.8,27.7,2.8,40.4c-0.4,1.5,2,2.1,3,2c5.9-0.3,11.8-0.2,17.6-1.1c2.9-0.5,6.5-0.6,7.3-4
					c0.6-2.6-2.3-10.5,2.3-9.6c1.2,0.2,2.6,1.4,3.5,2.2c0.4,0.3,0.8,0.8,1.2,1c1.1,0.5-0.8,0.9,0.4-0.8c1.3-0.2,2.5-0.5,3.8-0.7
					c0,0-0.1,0-0.1-0.1c-2.2-1.2-5.6,1-2.8,2.8c5.7,3.7,13.4,7.3,18.1,11c-0.1-0.7-0.1-1.5-0.2-2.2c-3.1,2.9-6.2,5.8-9.3,8.6
					C609.8,104.5,614.4,106.4,616,104.9L616,104.9z"/>
			</g>
		</g>
	</g>
	<g>
		<path style="fill:#002955;" d="M52.9,25.2c0.4,2.2,0.4,4.4,0,6.6s-1.6,3.8-3.6,3.8h-0.6c-2.2-0.4-1.6-6.2-1.8-8
			c-0.2-1.6-0.6-3.2-1-4.8c-0.8-3.4-2.8-7-7-7h-1c-5.8,0.8-10.8,7.8-13.5,12.4l-0.6,1.2c-5.4,8.8-9.2,18.3-11.4,28.3
			c-0.6,2.6-1.2,5.4-1.8,8c-1.8,7.6-2.4,15.5-1.8,23.1c0.4,5,2.2,9.8,4.8,13.9c2,3,5.2,4.8,8.6,4.8c1.8,0,3.6-0.6,5-1.8
			c7-5.4,10.6-10.8,14.7-17.9c0.8-1.8,2.6-5.2,4.6-5.2c0.6,0,1.2,0.2,1.8,0.6c0.6,0.8,0.8,1.8,0.6,2.8c-1,5-5.6,8.8-8.2,13.9
			c-3.6,5-8.8,11.8-14.9,13.9c-2.4,0.8-4.8,1.2-7.4,1.4c-3.2,0-6.4-1.4-8.6-3.8c-3.8-4.2-6.2-9.6-7-15.1c-1-4.8-1.4-9.6-1.2-14.3
			c0.4-4.4,0.6-8.8,1.2-13.3l0.8-4.4c1.4-7.8,3.8-15.5,7-22.7l0.6-1.4c2.6-7,6-13.3,10.2-19.5c4.4-6,12.2-12.2,19.1-12.2
			c2.4,0,4.8,0.8,6.6,2.6c3,3.2,5,7.4,5.8,11.8C52.5,23.8,52.7,24.6,52.9,25.2"/>
		<path style="fill:#002955;" d="M69.2,60.8c-1.4,8-2.8,16.1-3.8,24.1c0,0.2,0,0.6,0,0.8c-0.8,6.6-1.6,15.1,2.4,20.1
			c1.8,2.2,4.6,3.6,7.4,3.4c3.8,0,7.4-1.6,10.2-4.2c6.2-5.4,9.2-13.9,10.6-20.9c1.2-6.4,2.8-12.5,4.2-18.9l0.6-3.2
			c1.4-6.6,4-20.5,5.2-26.7c0.8-4.8,1.4-9.4,2.4-14.3c0.8-3.8,2-7.8,3.4-11.4c0.6-1.4,2.2-3.6,3.6-3.6c0.4,0,1,0.2,1.2,0.6
			c1,0.8,0.6,3.2,0.2,5.4c-0.4,2.2-1,4.4-1.2,5.6c-0.2,1.6-0.4,3.2-0.8,4.8c-0.6,3.2-1.4,6.6-2.2,9.8c-2,9.4-5.4,26.1-7.2,35.5
			c-1.8,8.2-4.2,16.3-7,23.9c-0.4,0.8-0.6,1.8-0.8,2.6c-2,5-4.6,9.8-8,13.9c-1.2,1.4-2.6,2.6-4.2,3.6c-2.8,1.6-6.2,2.4-9.4,2.6
			c-5.4-0.2-10.6-2.8-13.7-7c-4-4.8-3.2-12-2.8-18.1c0-0.4,0-0.8,0-1.2c1-12.2,4.6-31.9,7.2-44c1.4-7,3.4-13.9,5-20.9l0.6-2.8
			c0.4-2,1.2-4,2.2-5.8c1.2-1.4,2-1.8,2.8-1.8c1.8,0,2.4,3.2,2,5l-0.2,1c-0.8,3.6-2.2,7.4-3,11.2c-0.4,2.4-1.2,4.8-1.6,7.2
			C72.8,42.7,70.2,55.3,69.2,60.8"/>
		<path style="fill:#002955;" d="M164.2,15.4c-2.8-1.2-5.8-1.6-9-1.6c-1.8,0-3.6,0.2-5.4,0.8c-3,1.6-5.4,4.2-7,7.2
			c-0.6,1-1,2.2-1.2,3.4c-0.2,1-0.2,2-0.2,3c0,4.2,1,8.6,2.8,12.4c2.8,6.2,3.6,15.5,5.4,21.7c1.6,5.8,1.6,11.6,0.4,17.3
			c-0.6,2.4-1.2,4.8-2,7.2c-3.8,10-13.5,23.9-25.9,25.7c-1.2,0.2-2.4,0.2-3.4,0.2c-8.4,0-21.5-2.6-20.5-7.8c0.2-0.8,0.6-1.4,1-2
			c0.4-0.6,1.2-0.8,1.8-0.8c2,0.2,4,1,5.6,2.2c3.2,2,6.8,3.2,10.6,3.2c4.4,0,8.6-1.6,11.6-4.6c5-4.8,10.4-11.4,12-17.7l1-4.6
			c0.8-3.8,1.4-7.8,1.4-11.8c0-5.4-0.4-12.9-2-17.7c-1.2-3.2-2.6-6.4-3.6-9.6c-1.6-3.2-2.4-6.6-3-10.2c-0.2-2,0-3.8,0.4-5.8
			c1.2-5.8,4.8-11,10-13.9c4-2.4,8.8-3.6,13.3-3.6c1.8,0,3.6,0.2,5.2,0.6c2.6,0.4,10.4,6.4,9.4,10.6c-0.2,1.2-1.2,2-3,2.8
			c-0.2,0.2-0.6,0.4-0.8,0.2c-0.2,0-0.4,0-0.4-0.2c-2.2-0.8-2.6-6-4.6-7.2 M193.3,114c-3.2,0-2.6-2.2-2.2-4.2l0.2-1
			c1.4-8.8,1.6-16.7,3.2-25.9l0.2-1.4c-2.6-0.2-5-0.4-7.6-0.4c-7.8,0-15.9,1-23.3,1h-1.4l-5,23.9c-0.4,1.2-0.6,2.4-1,3.6
			c-0.2,1.2-0.6,2.4-0.8,3.6c-0.6,1.2-1.8,1.8-3.2,1.8h-0.8c-1.6-0.2-2-1.4-1.8-3.2l0.6-3c3.6-16.1,3.4-12.5,6.6-28.3
			c2.4-11.6,4.8-27.7,7.6-41.2c0.6-3.2,1.4-6.2,2-8.8c0-0.2,0.6-1,1-1.4c0.4-0.8,1.2-1.8,2.2-1.8c0.2,0,2.6,0.4,2.6,1.4
			c0,0.6-0.2,1.4-0.2,2c-0.2,1-0.4,1.8-0.6,2.6l-0.8,4.2c-2.2,10.6-4.4,25.3-6.2,34.5l-0.4,2c-0.2,0.8-0.2,1.6-0.4,2.4
			c10.2,0,21.3-0.6,31.7-1.4c0.8,0,1-1.4,1.2-1.8c0.2-0.8,0.2-2,0.4-2.6c1.4-7.4,4.6-24.3,7.4-37.8c1.4-6.6,2.6-12.2,3.6-15.5
			l0.4-1.8c0.2-1.4,0.8-2.6,1.6-3.6c0.8-0.4,1.6-0.8,2.4-0.8c0.6,0,1,0.2,1.4,0.2c1,0.2,1.2,1.4,1,2.4c0,0.8-0.2,1.6-0.4,2.6
			c-1.4,7.2-4.6,21.7-7.4,35.1c-1.8,8.8-3.4,17.1-4.2,21.7c-2,12.7-0.8,11-3.4,23.7l-2.6,12.7c-0.2,0.8-0.2,1.4-0.2,2.2
			c0,1.2-1,2.4-2.4,2.4H193.3z"/>
		<path style="fill:#002955;" d="M219.2,60.8c1.2-6.4,2.8-12.7,4.6-19.3l7-26.1c0.4-2.2,1-4.4,2-6.4c0.4-0.8,0.8-0.8,1.2-0.8h1.8
			c1.2,0,2,1,2,2c0,0.2,0,0.4-0.2,0.6l-0.4,2.4c-2.8,13.5-6.8,26.7-9.8,40.2c-1,4.2-2,8.6-2.8,12.7L222,78.8
			c-2,10-4.2,20.1-6.4,29.9c-0.2,1.2-0.6,2.4-1.4,3.4c-0.8,1.6-2.4,2.6-4.2,2.6h-1c-2-0.2-2-1.4-2-3v-0.2l1-3.6l9.2-36.9L219.2,60.8
			z M277.8,74c-1.2,6.2-3,12.2-5.2,17.9c-2.4,6-4.8,13.3-10.8,17.7c-3.2,2.4-7,3.6-10.8,3.6c-4.8,0-9.4-2.2-12.4-6
			c-7.4-10-8.8-23.3-8-36.3c0.2-4.2,0.8-8.2,1.6-12.2l0.6-2.8c1-4.6,2.2-9.2,3.6-13.7c0.6-2.4,1.4-4.8,2.4-7.2
			c0-0.2,0.2-0.4,0.2-0.6c1-2.4,2-4.6,3.2-7c1.4-2.4,3-5,4.6-7.2c2.4-3.2,5.2-6,8.6-8.2c2.4-1.4,5-2.4,7.8-2.6
			c1.2,0,2.2,0.2,3.4,0.6c4.6,2,7.2,6.4,9,11c2,5.2,3.2,10.6,3.8,15.9c1,8.8,1.2,17.7,0.2,26.3C279.2,67,278.6,70.4,277.8,74
			 M296.3,37.5c-4.4,17.5-4.4,17.9-8,35.3l-3.4,16.3c-1.4,5.8-2.2,12-4.8,17.7c-5,11.2-15.7,17.3-27.7,18.5
			c-1.4,0.2-2.8,0.2-4.2,0.2c-2.6,0-5.2-0.4-7.8-1c-2.8-0.6-5.2-1.8-7.6-3.2c-1-0.4-1.6-1.6-1.4-2.6c1-2.2,2.2-4.2,4-4.2
			c0.6,0,1.2,0.2,1.6,0.4c4.2,2.2,8.8,3.4,13.3,3.4h1c5.4,0,10.6-0.2,15.1-3.8c5.2-4.2,9-9.6,11.2-15.7c1-3.2,1.8-6.6,2.4-10
			c1.8-8.8,3.8-20.3,4.6-23.7l1.8-9.4c3.8-18.5,4.4-19.9,9.2-38.2c0.4-1.6,1-5.4,3-6c0.4-0.2,0.8-0.2,1.2-0.4c2.6,0,4,4.2,4.2,6
			c0.6,5.4,1.2,11,1.6,16.3c1,16.1,3.8,32.1,8.4,47.6c1.8,5.6,2.8,14.3,4.4,20.1c0.2,1,0.8,3.4,2.4,3.8l0.2-1.2l0.6-3
			c2.6-12.7,5.6-28.3,8.2-40.8c3-14.1,3.2-12.5,6.4-26.3c0.2-1.4,0.8-2.8,1.2-4c0-0.2,0.2-0.2,0.2-0.8l0.4-1.8c0.4-1,0.8-3,2.2-3.6
			c0.4-0.2,1-0.2,1.4-0.2c0.8,0,1.4,0.2,2,0.8c0.8,0.6,1,1.6,0.8,2.6c0,0.4-0.4,0.8-0.4,1.4c-5.6,20.3-6.6,24.5-11,44.8l-0.8,4.2
			c-1.8,9.2-3.8,20.1-5.4,28.5c-0.2,0.6-0.2,1.4-0.2,2c-0.4,1.6-1,3-1.6,4.4c-1,1.6-2,2.4-3,2.4s-1.8-0.4-2.4-1
			c-1.2-1.2-2.2-2.8-2.8-4.4c-5.6-10.6-8.6-24.5-11.2-36.9l-0.6-3.6c-2-10.2-3-20.5-4.4-30.9c-0.2-2.8-0.6-5.6-1.2-8.2
			c-1.2,2.8-2,5.6-2.6,8.6 M273.8,60.6c0.4-2.8,0.6-5.8,0.4-8.6c0-6.8-1-13.5-2.6-20.1c-0.8-3.6-2-7-3.6-10.4l-0.2-0.4
			c-1-2.4-2.2-5-5.8-5.4c-3.6,0-6.8,3.6-8.8,6.2c-6.4,8-11,17.3-13.1,27.1c-1.2,3.4-2.2,6.8-3,10.4l-0.2,1.4
			c-0.6,5-0.6,9.8-0.2,14.7c0.2,4.8,0.8,9.6,1.8,14.3c0.6,2.6,1.4,5.2,2.4,7.6c1.2,2.8,3.2,5.4,5.6,7.2c1.6,1.2,3.6,2,5.6,2
			c2.8-0.2,5.6-1.6,7.6-3.6c4.4-4.4,7.4-9.8,8.8-15.7c1.2-4.2,2.4-8.8,3.2-12.9l0.8-3.6c0.6-3,1-6,1.6-9.2
			C274,60.8,274,60.4,273.8,60.6"/>
	</g>
</g>
</svg>
