<svg viewBox="0 0 200 200" xmlns="http://www.w3.org/2000/svg" role="image">
<title>Health</title>
<g id="Fills1">
	<g>
		<path style="fill:#ABC0DE;" d="M101.8,68.5c0.5-0.6,0.7-1.8,1.1-2.4c2-3.2,4-4.5,5.9-7.8c2.9-5.1,5.6-7.6,10.4-10.7
			c1.2-0.8,2.7-1.1,4.1-1.5c1.6-0.5,3.1-0.9,4.7-1.3c9-2,16.8-0.3,22.8,7.2c0.8,1,1.5,1.2,2,2.4c1.5,3.6,2.8,7.3,4.2,11
			c0.2,0.6,0.4,1.3,0.4,1.9c0,6.2-0.3,12.4-3.9,17.9c-0.5,0.8-1,1.8-1.1,2.7c-0.2,3.6-2.2,6.4-3.8,9.5c-8.8,17-20.2,32.4-32.3,47.2
			c-3.6,4.4-7.7,8.4-10.9,13.2c-1.3,1.8-0.1,3-5.1,3c-4.8-5.3-9.8-10.6-14.7-16c-0.1-0.1-0.2-0.2-0.3-0.4c-4.9-6.5-9.9-13-14.8-19.5
			c-1.4-1.8-2.8-3.6-4.2-5.4c-1.8-2.3-3.7-4.6-5.5-6.9c-0.8-1-1.5-2.2-2.5-3c-5.3-4.8-8.4-11.1-11.8-17.2c-0.9-1.6-1.7-3.2-2.3-4.8
			c-0.6-1.5-1.2-3-1.5-4.6c-0.6-3.7-0.9-7.4-1.4-11.2c-0.8-6,0.3-12.2,3.2-17.2c0.6-1.1,2-1.6,2.9-2.5c3.8-3.7,8.5-5.4,13.5-6.5
			c1.7-0.4,4.2-1.4,5.8-1c4.9,1.2,10.2,1.1,14.5,3.8c2,1.3,6.5,4.3,8.2,6c2.2,2.2,4.4,5.1,6.6,7.3C98,63.8,99.4,66.2,101.8,68.5z"/>
		<path style="fill:#FFFFFF;" d="M134.9,57.3c4.8,4,6.6,10.6,4.1,16.4c-0.8,1.9,2,3.6,2.9,1.7c3.1-7.1,1.4-13.2-4.6-18.2
			C135.6,55.8,133.2,55.9,134.9,57.3L134.9,57.3z"/>
	</g>
</g>
<g id="Fills2">
	<g>
		<path style="fill:#ABC0DE;" d="M102.4,66.1c0.5-0.6,1-1.2,1.4-1.8c2-3.2,4-4.5,5.8-7.8c2.8-5.1,5.5-7.6,10.2-10.7
			c1.2-0.8,2.6-1.1,4-1.5c1.5-0.5,3.1-0.9,4.6-1.3c8.9-2,18.2,2,24.1,9.5c0.8,1,1.5,1.2,2,2.4c1.5,3.6,1.2,5,2.5,8.6
			c0.2,0.6,0.4,1.3,0.4,1.9c0,6.2-0.3,12.4-3.9,17.9c-0.5,0.8-1,1.8-1.1,2.7c-0.2,3.6-2.2,6.4-3.7,9.5c-8.7,17-20,32.4-31.9,47.2
			c-3.6,4.4-7.6,8.4-10.8,13.2c0.6,1.5,0.9,0.2-5,1.8c-4.8-5.3-9.7-9.4-14.6-14.8c-0.1-0.1-0.2-0.2-0.3-0.4
			c-4.9-6.5-11.5-13-16.4-19.5c-1.4-1.8-2.8-3.6-4.2-5.4c-1.8-2.3-3.6-4.6-5.5-6.9c-0.8-1-1.5-2.2-2.4-3c-5.2-4.8-6.5-11.1-9.8-17.2
			c-0.8-1.6-1.6-3.2-2.3-4.8c-0.6-1.5-1.2-3-1.5-4.6c-0.6-3.7-0.9-7.4-1.4-11.2c-0.8-6,0.3-14,3.1-19.1c0.6-1.1,2-1.6,2.9-2.5
			c3.7-3.7,8.4-3.6,13.3-4.7c1.7-0.4,3.6-0.6,5.3-0.2c4.8,1.2,9.7,2.4,14,5.1c2,1.3,7.5,2.6,9.2,4.3c2.1,2.2,4.1,4.6,6.2,6.8
			C99,62,100,63.7,102.4,66.1z"/>
		<path style="fill:#FFFFFF;" d="M135.4,55.5c4.7,4,6.5,10.6,4,16.4c-0.8,1.9,2,3.6,2.8,1.7c3-7.1,1.4-13.2-4.6-18.2
			C136.1,54,133.8,54.1,135.4,55.5L135.4,55.5z"/>
	</g>
</g>
<g id="Fills3">
	<g>
		<path style="fill:#ABC0DE;" d="M102,66.8c0.5-0.6,1.7-2.6,2.1-3.3c1.9-3.2,4-4.5,5.8-7.8c2.8-5.1,5.5-7.6,10.2-10.7
			c1.2-0.8,2.6-1.1,4-1.5c1.5-0.5,3.1-0.9,4.6-1.3c8.8-2,16.5-0.3,22.4,7.2c0.8,1,1.5,1.2,2,2.4c1.5,3.6,2.8,7.3,4.1,11
			c0.2,0.6,0.4,1.3,0.4,1.9c0,6.2-0.3,12.4-3.8,17.9c-0.5,0.8-1,1.8-1.1,2.7c-0.2,3.6-2.2,6.4-3.7,9.5c-8.7,17-19.9,32.4-31.7,47.2
			c-3.5,4.4-7.5,8.4-10.7,13.2c-1.2,1.8,0.1,2.4-3.6,3.6c-4.8-5.3-11-11.2-15.8-16.6c-0.1-0.1-0.2-0.2-0.3-0.4
			c-4.8-6.5-9.7-13-14.6-19.5c-1.4-1.8-2.8-3.6-4.2-5.4c-1.8-2.3-3.6-4.6-5.4-6.9c-0.8-1-1.5-2.2-2.4-3c-5.2-4.8-8.3-11.1-11.5-17.2
			c-0.8-1.6-0.9-0.3-1.5-1.9c-0.6-1.5-4-5.4-4.2-7c-0.6-3.7,0-9.9-0.4-13.6c-0.8-6,1.4-10.3,4.2-15.4c0.6-1.1,2-1.6,2.9-2.5
			c3.7-3.7,8.3-5.4,13.2-6.5c1.7-0.4,3.6-0.6,5.2-0.2c4.8,1.2,9.7,2.4,14,5.1c2,1.3,7.5,2.6,9.2,4.3c2.1,2.2,4.1,4.6,6.2,6.8
			C99.3,61.2,99.7,64.4,102,66.8z"/>
		<path style="fill:#FFFFFF;" d="M135.3,55.5c4.7,4,6.5,10.6,4,16.4c-0.8,1.9,2,3.6,2.8,1.7c3-7.1,1.4-13.2-4.5-18.2
			C136,54,133.7,54.1,135.3,55.5L135.3,55.5z"/>
	</g>
</g>
<g id="Lines">
	<path style="fill:#162B54;" d="M117.9,58.2c0.5,0.4,0.9,0.5,0.7,1.2c-0.1,0.5-0.3,0.8-0.9,0.8c-1.7-0.1-3.3-0.1-5-0.2
		c-0.3,0-0.6-0.3-0.9-0.5c0.2-0.3,0.4-0.5,0.6-0.8c0.1-0.1,0.4-0.3,0.5-0.3C114.6,58.3,116.2,58.2,117.9,58.2z"/>
	<path style="fill:#162B54;" d="M122.8,55.2c0,0-0.2,0.3-0.4,0.3c-1.8,0-3.7,0.1-5.5,0c-0.3,0-0.5-0.2-0.3-0.6
		c0.3-0.6,0.7-1.1,1.4-1.1c0.9-0.1,1.8-0.2,2.7-0.3c0.8-0.2,1.4,0,2,0.5C123.1,54.4,123.2,54.6,122.8,55.2z"/>
	<path style="fill:#162B54;" d="M123.4,50.8c-0.3-0.2-0.5-0.2-0.7-0.3c0.2-0.2,0.3-0.4,0.5-0.5c1.1-1.2,2.5-0.8,3.9-0.5
		c0.2,0,0.4,0.2,0.5,0.4c0.2,0.3,0.3,0.7,0.3,1c0,0.5-0.4,0.6-0.9,0.6C125.8,51.2,124.5,51,123.4,50.8z"/>
	<path style="fill:#162B54;" d="M113.6,63.3c0,0.7-0.6,0.9-1.3,0.9c-1.2,0-2.3-0.1-3.5-0.1c-0.5,0-0.5-0.3-0.2-0.6
		c0.8-1.1,3.4-1.7,4.6-1.1C113.6,62.5,114,62.7,113.6,63.3z"/>
	<path style="fill:#162B54;" d="M156.2,86.7c-0.4,3.1-1.6,5.9-2.8,8.7c-0.6,1.3-1.1,2.7-1.7,4c-0.4,0.8-0.7,1.6-1.2,2.3
		c-1.5,2.2-3.1,4.4-4.7,6.5c-1.6,2-3.3,3.9-4.9,5.8c-0.5,0.6-0.8,1.3-1.4,1.8c-1.9,1.8-3.3,3.8-4.7,6c-0.2,0.3-0.4,0.5-0.6,0.8
		c-2.3,2.8-4.5,5.7-7,8.4c-1.7,1.9-2.8,4.2-4.4,6.2c-1.3,1.7-2.5,3.5-3.8,5.2c-1.9,2.4-4,4.8-6,7.2c-0.2,0.3-0.4,0.5-0.6,0.8
		c-1.3,1.9-2.7,3.9-4,5.8c-0.7,1-1.2,2.1-1.9,3.1c-0.4,0.6-1,1.2-1.5,1.8c-0.6,0.7-1.2,1.4-1.7,2.1c-0.4,0.5-0.7,0.6-1.4,0.5
		c-1.7-0.3-2.8-1.3-3.8-2.5c-0.4-0.5-1.1-0.7-1.5-1.2c-1.7-2.1-3.3-4.3-4.9-6.5c-0.5-0.7-4.7-4.5-5.3-5.9c-0.3-0.7-1-1.3-1.5-2
		c-0.3-0.4-1.9-2.1-2.3-2.5c-1.6-2-3.2-4.1-4.7-6.2c-1.2-1.6-2.1-3.4-3.3-5.1c-1.1-1.6-2.3-3.2-3.4-4.8c-1-1.4-1.9-2.9-3-4.2
		c-0.9-1.1-2-2-2.9-3c-0.8-0.9-1.6-1.9-2.4-2.9c-1-1.2-2-2.5-3-3.7c-1.3-1.6-2.8-3.1-4-4.7c-1.2-1.6-2.3-3.3-3.4-5
		c-0.7-1-4.5-7.4-5.2-8.3C45.4,92.7,44.3,90,44,87c-0.2-1.2-0.7-2.4-1-3.6c-0.5-2-1-4-1.2-6.1c-0.1-1.9,0.2-3.9,0.4-5.9
		c0.1-1.4,0.5-2.7,0.6-4.1c0.2-3.3,1.3-6.4,2.9-9.3c1.1-2,2.3-4,4-5.6c0.5-0.4,0.8-1.1,1.2-1.6c1-1.5,2.4-2.6,4-3.5
		c1.1-0.6,2-1.7,3.4-1.7c2.2-2,5.2-2,7.9-2.8c1.4-0.4,2.9-0.9,4.3-0.8c3.4,0.3,6.8,0.8,9.8,2.7c0.6,0.4,1.3,0.5,2,0.8
		c1.3,0.6,2.6,1.1,3.8,1.7c2.3,1.2,4.6,2.5,6.8,3.7c1.7,1,8.7,8.4,9.3,8.8c0.6,0.4,0.9,0.2,1.3-0.4c1.3-2.2,2.5-4.4,4-6.5
		c1.2-1.6,2.6-2.9,4-4.3c1-1,2.2-1.9,3.4-2.7c2.3-1.7,4.8-2.9,7.7-3.1c0.7,0,1.3-0.4,2-0.4c2.1-0.1,4.1,0,6.2-0.1
		c2.4-0.2,4.5,0.6,6.7,1.3c0.3,0.1,0.6,0.1,0.8,0.3c1.7,1.5,4.1,2.1,5.5,4.1c0.6,0.8,1.5,1.5,2.4,2c2.5,1.5,4.1,3.9,6.1,5.9
		c0.1,0.1,0.2,0.3,0.4,0.4c1.7,2.6,2.4,3.2,2.9,5.3c0.7,2.7,1.6,5.4,2.4,8.2c0.3,1,0.4,2.1,0.3,3.1c-0.3,3-0.7,6-1.1,9
		C157,82,156.4,85.1,156.2,86.7z M153.5,84.5c0.9-2.9,2-5.9,1.6-9c-0.4-3-0.6-6.1-1-9.2c-0.2-1.9-1.6-3.7-2-5.5
		c-0.2-0.9-1.7-1.9-2.3-2.6c-1.6-1.9-3.4-3.7-5.1-5.5c-0.6-0.6-1.2-1.1-1.8-1.6c-2.5-2-4.7-4.4-8-5.2c-0.3-0.1-0.5-0.2-0.8-0.4
		c-0.5-0.3-1-0.5-1.6-0.3c-0.4,0.1-0.7,0-1.1,0c-0.6,0-1.3-0.2-1.9,0c-1.6,0.6-4.7,0.4-6.3,0.5c-2.4,0.1-5.6,1.7-5.7,1.8
		c-1.3,1.1-2.6,2.3-3.9,3.3c-1,0.8-2,2.7-3,3.5c-1.9,1.5-7.2,8.9-7.4,9.7c0,0.2-0.5,0.5-0.7,0.5c-0.2,0-0.4-0.3-0.5-0.6
		c-0.2-0.3-2.9-4-3.2-4.3c-1.2-1.2-2.4-2.4-3.6-3.7c-0.3-0.3-0.5-0.6-0.8-0.8c-1.5-1-3-2-4.5-3.1c-2.4-1.7-5-3-7.8-3.8
		c-0.5-0.1-7.1-3.8-7.7-3.8c-1,0-2,0-3,0c-1,0-2-0.2-3,0C66.7,45,65,45.5,63.3,46c-1.5,0.5-3,1.1-4.4,1.7c-0.2,0.1-0.5,0.4-0.6,0.6
		c-0.6,1.1-1.8,1.6-2.8,2.1c-0.8,0.4-1.6,0.9-2.1,1.6c-1.5,1.8-3,3.7-4.3,5.7c-0.7,1.1-1.4,2.3-1.7,3.6c-0.5,2-0.7,4.1-1,6.1
		c0,0.3-0.1,0.6-0.1,0.9c0.1,3,0.1,5.9,0.2,8.9c0.1,1.8,0.3,3.6,0.5,5.4c0.2,1.5,0.6,2.9,1,4.3c0.4,1.3,0.6,2.7,1.4,3.7
		c1.4,1.8,6.2,11.3,8.4,13.6c1.6,1.7,2.9,3.7,4.4,5.5c0.9,1.2,2,2.2,2.9,3.4c1.2,1.6,2.3,3.2,3.5,4.8c1.2,1.6,2.5,3.2,3.7,4.8
		c0.3,0.4,0.5,0.9,0.9,1.3c1.9,1.9,3.7,3.9,4.5,6.6c0.1,0.3,0.3,0.6,0.5,0.9c2.1,3.9,5.3,7,7.9,10.4c1.7,2.2,3.3,4.6,4.8,7
		c0.8,1.2,1.4,2.6,2.3,3.8c1.9,2.5,3.9,5,5.8,7.6c0.5,0.6,1.4,0.9,2.1,1.4c0.4-0.5,0.8-1.1,1.1-1.6c0.2-0.2,0.2-0.5,0.3-0.8
		c0.7-1.7,3-3.6,4.3-5c0.1-0.2,0.1-0.5,0.2-0.7c0.2-0.4,0.5-0.8,0.7-1.2c0.8-1,1.6-2,2.3-3.1c2.1-2.9,4.2-5.9,6.3-8.8
		c1.4-1.8,2.9-3.5,4.3-5.3c1.6-2.1,3-4.4,4.6-6.5c2.3-2.9,4.8-5.8,7.1-8.7c1.9-2.3,3.7-4.8,5.6-7.1c3.5-4.4,7-8.9,10.4-13.4
		c2.1-2.8,3.3-6,4.6-9.2C153.6,88.5,152.9,86.5,153.5,84.5z"/>
	<path style="fill:#162B54;" d="M71.3,112.1c-2-0.5-3.6-1.5-5.3-2.3c-0.1,0-0.2-0.1-0.2-0.2c-0.1-0.1-0.2-0.2-0.3-0.3
		c0.2,0,0.3,0,0.5,0.1c0.7,0.2,1.3,0.4,2,0.6c0.6,0.2,1.1,0.2,1.4-0.1c0.1-0.1,0.4-0.1,0.7,0c0.9,0.3,1.8,0.5,2.7,0.8
		c0.6,0.2,1.2,0.4,1.8,0.6c0.5,0.2,1,0.4,1.4,0.6c0.5,0.3,0.9,0.6,0.6,0.9c-0.3,0.3-0.6,0.5-1.4,0.2
		C73.9,112.8,72.6,112.5,71.3,112.1z"/>
	<path style="fill:#162B54;" d="M53.6,76c-0.8-0.3-1.5-0.6-2.3-0.9c-1-0.4-1.7-1-2.2-1.9C49,73,49,72.9,48.9,72.7
		c0.2,0,0.4-0.1,0.5-0.1c1,0.2,2.1,0.5,3.1,0.8c0.3,0.1,0.7,0.2,0.9,0.4c1.1,0.9,2.2,1.7,3.5,2.2c0.2,0.1,0.3,0.4,0.4,0.7
		c-0.2,0.1-0.5,0.2-0.7,0.2C55.7,76.6,54.6,76.3,53.6,76C53.6,76,53.6,76,53.6,76z"/>
	<path style="fill:#162B54;" d="M55.7,89.5c-1.1-0.5-2.4-1.1-3.7-1.7c-0.2-0.1-0.4-0.2-0.6-0.4c-0.2-0.2-0.3-0.5-0.4-0.7
		c0.3-0.1,0.7-0.3,0.9-0.2c1.5,0.6,3.1,0.5,4.5,1.4c0.6,0.4,1.4,0.6,2.1,1c0.3,0.2,0.8,0.6,0.8,0.8c-0.1,0.6-0.7,0.5-1.2,0.4
		C57.2,89.9,56.6,89.7,55.7,89.5z"/>
	<path style="fill:#162B54;" d="M53.7,68.9c-1.5-1-3-1.9-4.4-2.9c-0.2-0.1-0.3-0.4-0.4-0.7c0.3-0.1,0.6-0.2,0.9-0.1
		c1.6,0.7,3.1,1.4,4.7,2.1c0.6,0.3,1.2,0.5,1.9,0.6c0.4,0.1,0.8,0.2,0.8,0.6c0,0.6-0.4,0.8-0.9,0.7c-0.8-0.1-1.6-0.3-2.4-0.5
		C53.7,68.8,53.7,68.9,53.7,68.9z"/>
	<path style="fill:#162B54;" d="M64.4,104c-1.7-0.5-3.5-1.1-4.8-2.4c-0.3-0.3-0.5-0.5-0.7-0.9c-0.1-0.1-0.1-0.3-0.1-0.5
		c0.2,0.1,0.4,0.1,0.5,0.2c0.7,0.9,1.7,1.2,2.7,1.4c1.9,0.5,3.8,1,5.7,1.5c0.4,0.1,0.4,0.3,0.2,0.6c-0.5,0.5-1.1,0.8-1.8,0.6
		C65.5,104.3,65,104.2,64.4,104z"/>
	<path style="fill:#162B54;" d="M54.2,83.5c-1.6-0.4-2.7-1.4-3.8-2.5c-0.1-0.2-0.1-0.5-0.2-0.7c0.3,0,0.5,0,0.8,0.1
		c1.5,0.8,3,1.7,4.7,2c0.3,0.1,0.6,0.1,0.8,0.3c0.3,0.3,0.4,0.7,0.6,1.1c-0.3,0.1-0.6,0.2-0.9,0.2C55.5,83.8,54.9,83.6,54.2,83.5z"
		/>
	<path style="fill:#162B54;" d="M71.7,116c0.4,0.1,0.6,0.1,0.7,0.2c2.8,1.7,6,2.1,9.1,2.9c0.2,0.1,0.4,0.2,0.7,0.3
		c-0.2,0.2-0.4,0.3-0.6,0.5c-0.4,0.6-0.8,0.5-1.4,0.4c-2.9-0.6-5.4-2.3-8-3.6C72.1,116.5,72,116.4,71.7,116z"/>
	<path style="fill:#162B54;" d="M95.8,145.3c0.9,0.5,1.7,0.9,2.5,1.4c0.2,0.1,0.4,0.6,0.3,0.8c-0.1,0.2-0.5,0.3-0.8,0.4
		c-0.2,0-0.5-0.1-0.7-0.2c-1.5-0.7-3-1.4-4.5-2.1c-0.1-0.1-0.2-0.3-0.3-0.4c0.1,0,0.3,0,0.4,0C93.8,145.2,94.8,145.2,95.8,145.3z"/>
	<path style="fill:#162B54;" d="M57.9,55.3c-0.4-0.2-1-0.5-1.5-0.8c-0.1-0.1-0.2-0.4-0.1-0.6c0-0.1,0.3-0.2,0.5-0.2
		c1.3,0.2,2.6,0.4,3.9,0.8c0.3,0.1,0.7,0.6,0.7,0.9c0,0.5-0.6,0.6-1,0.5C59.6,55.7,58.8,55.5,57.9,55.3z"/>
	<path style="fill:#162B54;" d="M54.8,59.1c0.9,0.4,1.7,0.8,2.6,1.2c0.1,0.1,0.2,0.3,0.3,0.5c-0.2,0.1-0.3,0.2-0.5,0.2
		c-0.3,0.1-0.7,0.2-1,0.1c-1.2-0.5-2.5-1-3.7-1.6c-0.2-0.1-0.2-0.5-0.3-0.8c0.3,0,0.6-0.1,0.8,0c0.6,0.2,1.2,0.4,1.7,0.7
		C54.8,59.2,54.8,59.2,54.8,59.1z"/>
	<path style="fill:#162B54;" d="M82,125.9c-1.4-0.7-3-1.6-4.6-2.5c-0.2-0.1-0.2-0.4-0.3-0.5c0.2,0,0.5-0.1,0.7,0
		c1.2,0.6,2.3,1.2,3.5,1.7c0.7,0.3,1.5,0.3,2.2,0.5c0.3,0.1,0.5,0.3,0.7,0.5c-0.3,0.2-0.5,0.6-0.8,0.7C83,126.2,82.6,126,82,125.9z"
		/>
	<path style="fill:#162B54;" d="M91.1,141.9c-1.2-0.5-2.3-1-3.3-1.4c-0.1-0.1-0.3-0.1-0.4-0.2c-0.1-0.2-0.2-0.4-0.2-0.6
		c0.2,0,0.5-0.2,0.6-0.1c0.6,0.3,1.2,0.6,1.8,0.9c0.9,0.5,1.9,0.7,2.9,0.6c0.3,0,0.8,0.2,0.8,0.3c0,0.5-0.2,1-0.8,0.9
		C91.9,142.1,91.4,142,91.1,141.9z"/>
	<path style="fill:#162B54;" d="M63.9,52c-0.5-0.2-1-0.3-1.5-0.5c-0.2-0.1-0.3-0.3-0.4-0.5c0.2-0.1,0.3-0.3,0.5-0.3
		c1.1,0.1,2.2,0.3,3.3,0.4c0.5,0.1,0.9,0.4,0.7,1c-0.2,0.7-0.7,0.5-1.2,0.4C64.8,52.4,64.4,52.2,63.9,52C63.9,52,63.9,52,63.9,52z"
		/>
	<path style="fill:#162B54;" d="M80.2,127.8c1.6,0.7,3.2,1.5,4.8,2.1c0.8,0.3,1.7,0.4,2.5,0.6c0.2,0.1,0.4,0.2,0.7,0.3
		c-0.3,0.2-0.5,0.5-0.8,0.7c-0.2,0.1-0.5-0.1-0.7-0.2c-1.5-0.7-2.9-1.4-4.4-2.1c-0.8-0.4-1.5-0.8-2.2-1.2
		C80.1,128,80.2,127.9,80.2,127.8z"/>
</g>
</svg>
