<svg viewBox="0 0 337.9 213.4" xmlns="http://www.w3.org/2000/svg" role="image">
<title>Lab Equipment</title>
<g id="Fills1">
	<g>
		<path style="fill:#d8e7ff;" d="M197.5,173.1c-1.5-1-3.4-1.2-5.1-1.8c-6.7-2.5-6.8-9.4-10.5-15.5c-2.1-3.5-7.1-8.1-10.9-6.5
			l-0.5,1.3l-0.2,0.2c-4.2,2.2-6.7,2.8-11.1,0.8c2.1,7.6,2.4,16-1.2,22.9c-3.3-4.2-10.3-2.8-14.1,0.9c-1.8,1.7-3.5,4-6,4
			c-2.4-0.1-4.7-2.3-6.8-1.2c-1.9,1-1.5,4.1,0.2,5.4c1.7,1.3,4,1.5,6.1,1.7c6.2,0.7,12.3,3,17.5,6.5c0.8,0.6,1.7,1.2,2,2.2
			c0.7,2.4-0.7,5,1.1,6.7c7.2-0.1,14-0.5,18.2-6.4c1.2-1.6,1.9-3.6,3.4-5.1c4-4.1,0.2-7.4,5.8-6.2l3.1-5.5c0.1-1.3,6.8-2.8,8.5-2.8
			C198.6,174.7,197.5,173.1,197.5,173.1z"/>
	</g>
	<g>
		<path style="fill:#d8e7ff;" d="M183.9,9.8c-0.6-1,0.1-1.8-1-2.6c-13.1,12.2-7.5,3.6-20.6,15.8c2.7,2.1,2.9,6.4,0.8,9.1
			c-1.2,1.6-2.2,2.5-3.2,4.2c-0.9,1.6-1.9,3.8-1.8,5.7c0.4,5.9-2.4,11.5-5.2,16.8c0.7,2.9,1.3,5.8,2,8.7c3.4-0.2,7.6-2.2,8.1-5.5
			c11.6,13.6,13.6,20.4,15.6,20.2c0.8-0.1,6.8,0.4,7.6,0.1c1.4-0.6,2.1-3.5,1.2-4.8c-5.2-7.2-12.5-13.1-19-19.2
			c-1.3-1.2-2.3-2.6-2.2-4.3c0.1-1.3,1.6-1.8,2.2-2.9c3.4-5.9-0.2-12.7,2.6-18.9c0.8-1.8,1.3-4.6,2.6-6.1
			c9.8-11.4,0.4-2.8,10.2-14.2L183.9,9.8z"/>
	</g>
	<g>
		<path style="fill:#d8e7ff;" d="M319,184.2c2.3,0.9,10.1-1.9,11.4-7c0.4-1.4,0.5-3.5,0.6-5.1c0.2-2.9,0.3-6.3-1.1-8.9
			c-1.4-2.5-3.1-5.5-5.8-6.5c-1.8-0.6-3.8-0.5-5.7-0.3c-5.3,0.4-10.5,0.9-15.8,1.3c0.7,4.5,4.7,7.7,8.2,10.6c3.5,3,7.9,6.9,7.3,11.5
			c-0.2,1.6-0.1,1.6,0.1,3.2L319,184.2z"/>
	</g>
	<path style="fill:#d8e7ff;" d="M27.5,170.9c0.6,0.2,1,0.4,1.3,0.4c2.6,0.1,5.2,0.7,7.6,1.7c2.6,1,5.2,1.9,7.8,2.9
		c1.9,0.7,3.9,1.1,5.9,1.3c1.3,0.1,2.7,0.3,4,0.2c2.6-0.1,5.2-0.4,7.8-1.1c4.3-1.2,8.6-2.3,13-2.7c2.8-0.3,5.5,0,8.1,0.6
		c1.1,0.3,2.1,0.9,3.1,1.4c2.1,1.1,3.6,2.9,5.1,4.7c2.2,2.7,5.3,4.9,7.7,7.5c1.4,1.6,0.8,3.7,0.2,5.5c-0.2,0.5-0.5,0.9-0.9,1.3
		c-0.6,0.6-1.2,1.1-1.8,1.6c-0.4,0.3-0.8,0.4-1.3,0.2c-0.3-0.1-0.6,0-0.9-0.1c-0.9-0.3-1.8,0.1-2.7,0.1c-2.4,0.1-4.9,0.2-7.3,0.2
		c-2.4,0.1-4.8,0.1-7.1,0.1c-1.7,0-3.4,0-5.1-0.1c-3.1-0.1-6.2-0.1-9.3-0.2c-2.7-0.1-5.3-0.2-8-0.3c-2.8,0-5.7,0.1-8.5,0.1
		c-2.5,0-5-0.1-7.6-0.1c-3-0.1-6-0.1-9-0.2c-2.2,0-4.5-0.1-6.7-0.2c-1.7-0.1-3.5-0.1-5.2-0.2c-2-0.2-4,0.6-5.8-0.3
		c-0.7-0.3-1.3-0.8-1.7-1.5c-0.5-0.9-1.1-1.7-1.2-2.8c0-0.8,0-1.5,0.3-2.2c0.4-1.1,0.8-3.1,1.6-3.9c1.2-1.4,2.5-2.9,3.7-4.4
		c1-1.2,2.2-2.3,3.1-3.6c1-1.5,2.4-2.6,3.8-3.6C23.4,171.8,25.5,171.1,27.5,170.9z"/>
	<g>
		<path style="fill:#d8e7ff;" d="M258.9,196.9l-1.1,2.6c-11.4-4-20.1-12.4-24.4-23.7c-0.1-0.2-0.2-1.6-0.2-1.8c0-1,0.7-1.3,1.7-0.9
			s1.6,1.3,2.3,2c1.8,1.7,4.3,2.4,6.7,2c1.2-0.2,2.5-0.7,3.7-0.4c1.6,0.5,3.7,2.4,4.2,4c1.7,6.1,1.4,12.1,6.2,16.1H258.9z"/>
	</g>
	<path style="fill:#0363F7;" d="M158.5,102c1.8,0,3.5,0.1,7.9,2.4c4.4,2.3,17.4,7.4,17,8.2s-7,1.9-12.2,2.4
		c-5.2,0.6-20.1,3.7-20.8,3.9c-0.8,0.2-6.3-2.8-7.5-5s-0.3-2.8,0.6-3.2c0.8-0.4,17.4,0.1,20.3-0.4c2.9-0.4,7-0.7,5.4-1.8
		c-1.7-1.1-10.8-3.8-11.2-5S158.5,102,158.5,102z"/>
	<g>
		<path style="fill:#0363F7;" d="M127.7,131.3c-2.9-0.2-5.9-1-8.5-1.8c-4.3-1.3-4.9-2-6.7-4.9c-1.7-2.7-2.7-5.6-3.1-8.6
			c-0.2-1.3-0.7-2.9-2.6-3.4c-1.6,4.9-2.4,9.6-0.4,14.4c0.2,1.3,0.4,2.5,0.7,3.8c0.3,1.2,0.7,2.5,1.9,3.5c2.1,1.8,5.2,1.9,8.7,2.2
			c10.2,0.8,23.1,1.6,33.4,1.3c16.1-0.4,43.8,1.1,59.2-3.6c13.9-4.3,13.8-11,14.4-11.9C212.7,136.6,152,132.8,127.7,131.3z"/>
	</g>
</g>
<g id="Fills2">
	<g>
		<path style="fill:#d8e7ff;" d="M198.5,173.1c-1.5-1-3.4-1.2-5.1-1.8c-6.7-2.5-8.8-10.6-12.4-16.7c-2.1-3.5-6.1-6.9-9.9-5.3
			l-0.2,0.9l-0.5,0.7c-4.2,2.2-6.3,3.5-10.6,1.5c2.1,7.6-0.6,14.6-1.1,22.5c-3.3-4.2-10-3-13.8,0.7c-1.8,1.7-3.5,4-6,4
			c-2.4-0.1-4.7-2.3-6.8-1.2c-1.9,1-1.5,4.1,0.2,5.4c1.7,1.3,4,1.5,6.1,1.7c6.2,0.7,12.3,3,17.5,6.5c0.8,0.6,1.7,1.2,2,2.2
			c0.7,2.4-2.3,5.3-0.5,7c7.2-0.1,15.6-0.8,19.8-6.7c1.2-1.6,1.9-3.6,3.4-5.1c4-4.1-1.1-6.9,4.4-5.7l3.2-6.3
			c0.1-1.3,8.1-2.5,9.7-2.5C199.6,174.7,198.5,173.1,198.5,173.1z"/>
	</g>
	<g>
		<path style="fill:#d8e7ff;" d="M183.7,10.2c0.7-1.2-0.1-2.5-1.2-3.3c-13.1,12.2-6.9,3.6-20,15.8c2.7,2.1,3.2,6.4,1.1,9.1
			c-1.2,1.6-3.1,2.6-4.1,4.4c-0.9,1.6-0.8,3.5-0.9,5.3c-0.2,5.9-2.2,12.3-5,17.5c0,4.1,1.5,5.9,2.4,8.2c3.4-0.2,6.4-2.9,7-6.2
			c11.6,13.6,11.7,19.6,16.5,21c1,0.3,7.1,0.3,7.8,0c1.4-0.6,0.7-2.7-0.2-3.9c-5.2-7.2-11.1-14-17.7-20.1c-1.3-1.2-2.7-2.6-2.6-4.4
			c0.1-1.3,1-2.3,1.6-3.4c3.4-5.9-0.3-13.8,2.5-20c0.8-1.8,2.1-3.3,3.4-4.8c9.8-11.4,0.6-2.5,10.4-13.9L183.7,10.2z"/>
	</g>
	<g>
		<path style="fill:#d8e7ff;" d="M318.4,184.8c5.1-1.3,8.9-3.2,12-7.4c1.1-1.4,0.2-3.8,0.3-5.4c0.2-2.9,0.4-5.9-0.3-8.7
			c-0.7-2.8-2.6-5.5-5.3-6.5c-1.8-0.6-3.8-0.5-5.7-0.3c-5.3,0.4-10.5,0.9-15.8,1.3c0.7,4.5,4.7,7.7,8.2,10.6c3.5,3,7.1,6.9,6.5,11.5
			c-0.3,2.3-0.2,1.8,0.1,4.1L318.4,184.8z"/>
	</g>
	<path style="fill:#d8e7ff;" d="M27.5,170.8c0.6,0.2,1,0.4,1.3,0.4c2.6,0.1,5.2,0.7,7.6,1.7c2.6,1,5.2,1.9,7.8,2.9
		c1.9,0.7,3.9,1.1,5.9,1.3c1.3,0.1,2.7,0.3,4,0.2c2.6-0.1,7.4-0.3,10-1c4.3-1.2,6.4-2.3,10.8-2.7c2.8-0.3,5.5,0,8.1,0.6
		c1.1,0.3,2.1,0.9,3.1,1.4c2.1,1.1,3.6,2.9,5.1,4.7c2.2,2.7,4.6,5.2,7,7.8c1.4,1.6,1.5,3.3,0.8,5.2c-0.2,0.5-0.5,0.9-0.9,1.3
		c-0.6,0.6-1.2,1.1-1.8,1.6c-0.4,0.3-0.8,0.4-1.3,0.2c-0.3-0.1-0.6,0-0.9-0.1c-0.9-0.3-1.8,0.1-2.7,0.1c-2.4,0.1-4.9,0.2-7.3,0.2
		c-2.4,0.1-3.9,0.7-6.3,0.7c-1.7,0-4.3-0.6-6-0.7c-3.1-0.1-6.2-0.1-9.3-0.2c-2.7-0.1-5.3-0.2-8-0.3c-2.5,0.1-2.4,0.9-8.5,0.1
		c-2.5,0-4.9,0.4-7.4,0.4c-3-0.1-6.2-0.6-9.2-0.7c-2.2,0-4.5-0.1-6.7-0.2c-1.7-0.1-3.5-0.1-5.2-0.2c-2-0.2-4-0.4-5.8-1.3
		c-0.7-0.3-1.3-0.8-1.7-1.5c-0.5-0.9-1.1-1.7-1.2-2.8c0-0.8,0-1.5,0.3-2.2c0.4-1.1,0.8-2.1,1.6-2.9c1.2-1.4,3.6-3.7,4.9-5.1
		c1-1.2,1-1.6,1.9-2.9c1-1.5,2.4-2.6,3.8-3.6C23.4,171.6,25.5,171,27.5,170.8z"/>
	<g>
		<path style="fill:#d8e7ff;" d="M258.8,197.5l-1.3,1.7c-12.1-2.5-20.6-12.6-24.8-23.9c-0.1-0.2,0.8-0.8,0.8-1c0-1,1.4-1.5,2.3-1.2
			s1.6,1.3,2.3,2c1.8,1.7,4.3,2.4,6.7,2c1.2-0.2,2.5-0.7,3.7-0.4c1.6,0.5,2.3,2.3,2.7,3.8C253,186.6,253.9,193.5,258.8,197.5"/>
	</g>
	<path style="fill:#0363F7;" d="M158.4,102.5c1.8,0,4.6-0.4,9,1.9c4.4,2.3,17.4,7.4,17,8.2s-7,1.9-12.2,2.4
		c-5.2,0.6-20.1,3.7-20.8,3.9c-0.8,0.2-6.3-2.8-7.5-5s-0.3-2.8,0.6-3.2c0.8-0.4,17.4,0.1,20.3-0.4c2.9-0.4,7-0.7,5.4-1.8
		c-1.7-1.1-11.2-4.1-11.6-5.3S158.4,102.5,158.4,102.5z"/>
	<g>
		<path style="fill:#0363F7;" d="M128.7,131.3c-2.9-0.2-5.9-1-8.5-1.8c-4.3-1.3-6.7-2.7-8.5-5.7c-1.7-2.7-2.8-4.2-2.5-7.1
			c0.2-1.9,0.5-3.4-2.2-4.8c-3,6.9-2.3,9.8-0.4,14.6c0.2,1.3,0.4,2.5,0.7,3.8c0.3,1.2,0.7,2.5,1.9,3.5c2.1,1.8,5.6,2.8,9.1,3
			c10.2,0.8,22.2,0.5,32.5,0.8c16.1,0.4,45,2.6,60.5-3.5c13.6-5.3,13.8-11,14.4-11.9C205.6,137.1,153,132.8,128.7,131.3z"/>
	</g>
</g>
<g id="Fills3">
	<g>
		<path style="fill:#d8e7ff;" d="M198.9,173.5c-1.5-1-3.4-1.2-5.1-1.9c-6.7-2.4-10.8-15.3-12.4-16.7c-3-2.8-6.8-7.6-10.6-6l-0.2,1.1
			l-0.7,1.3c-5.2,2.2-6.4,2.7-10.8,0.7c2.9,7.5,1,14.7-1,22.6c-3.3-4.2-7.5-2.7-12.2-1.3c-1.3,0.4-4,6-6.5,5.9
			c-2.4-0.1-8.2-2.4-9.3,0.5c-0.8,2,1,2.8,2.6,4.2c1.7,1.3,4,1.5,6.1,1.7c6.2,0.7,12.3,3,17.5,6.5c0.8,0.6,1.7,1.2,2,2.2
			c0.7,2.4-2.3,5.1-0.5,6.8c7.2-0.1,14.6-1,18.8-6.9c1.2-1.6,2.9-2.2,3.8-4.1c2.2-4.8-0.6-8.3,4.9-7.1l3.3-6.4
			c0.2-1.3,6.6-1.8,8.2-1.8C198.6,174.9,198.9,173.5,198.9,173.5z"/>
	</g>
	<g>
		<path style="fill:#d8e7ff;" d="M184.2,10.7c0.7-1.2,0.1-1.5-1.2-3.4c-10.8,8.9-7.3,3.7-20.5,15.9c2.7,2.1,2.2,6,0.2,8.7
			c-1.2,1.6-1.9,3.1-3.1,4.8c-1,1.5,0,4-0.2,5.8c-0.6,5.9-2.7,11.2-5.6,16.4c-0.1,3-1.4,7.9,3.8,8.5c3.1-2,4.6-2.2,6.5-5.4
			c10.6,13.6,13,21.3,17,20c1.2-0.4,5.9,0.3,6.6,0c1.4-0.6,1.3-1.7,0.4-2.9c-5.2-7.2-11.1-14-17.6-20.1c-1.3-1.2-3.1-3.6-3-5.3
			c0.1-1.3,1.2-2.3,1.8-3.4c3.4-5.9-1.6-15,2.5-20.5c1.2-1.6,2.1-3.1,3.3-4.6c9.8-11.4-1.1-1.6,8.8-13L184.2,10.7z"/>
	</g>
	<g>
		<path style="fill:#d8e7ff;" d="M318.4,184.9c-0.2-1.6-0.9-2.1-0.6-3.7c0.6-4.5-1.6-8.6-5.1-11.5c-3.5-3-8.8-6.6-9.5-11.2
			c6.9-1.5,13.5-1.2,18.8-1.6c1.9-0.2,2.3,0.4,4.1,1c2.7,1,4.4,3.9,5.1,6.7c0.7,2.8,0.5,5.8,0.3,8.7c-0.1,1.6,0.2,3.5-0.8,4.8
			c-3.9,4.7-6.9,5.6-11.9,6.9L318.4,184.9z"/>
	</g>
	<path style="fill:#d8e7ff;" d="M28.4,171.5c0.6,0.2,1,0.4,1.3,0.4c2.6,0.1,5.2,0.7,7.6,1.7c2.6,1,5.2,1.9,7.8,2.9
		c1.9,0.7,3.9,1.1,5.9,1.3c1.3,0.1,2.7,0.3,4,0.2c2.6-0.1,6.4-1.3,8.9-2c4.3-1.2,7.4-1.3,11.9-1.7c2.8-0.2,5.5,0,8.1,0.7
		c1.1,0.3,2.1,0.9,3.1,1.4c2.1,1.1,3.6,2.9,5.1,4.7c2.2,2.7,4.6,5.2,7,7.8c1.4,1.6,1.5,2.1,0.8,3.9c-0.2,0.5-1.1,1.5-1.5,1.9
		c-0.6,0.6-0.3,0.7-0.9,1.2c-0.4,0.3-0.8,0.4-1.3,0.2c-0.3-0.1-0.6,0-0.9-0.1c-0.9-0.3-3.1,0.6-4,0.7c-2.4,0.1-4.3,0-6.8,0
		c-2.4,0-4.3,0.7-6.6,0.7c-1.7,0-3.4-0.1-5.1-0.1c-3.1-0.1-6.2-0.1-9.3-0.2c-2.7-0.1-4.6-0.6-7.3-0.6c-2.8,0-6.3,0.4-9.2,0.4
		c-2.5,0-5-0.1-7.6-0.2c-3-0.1-6-0.1-9-0.2c-2.2-0.1-4.5-0.1-6.7-0.2c-1.7-0.1-3.5-0.1-5.2-0.2c-2-0.2-4-0.4-5.8-1.3
		c-0.7-0.3-1.3-0.8-1.7-1.5c-0.5-0.9-1.1-1.7-1.2-2.8c0-0.8,0-1.5,0.3-2.2c0.4-1.1,0.1-1.6,0.8-2.4c1.2-1.4,2.4-3,3.7-4.4
		c1-1.2,3.2-3.9,4.1-5.2c1-1.5,2.3-1.4,3.7-2.5C24.2,172.4,26.4,171.7,28.4,171.5z"/>
	<g>
		<path style="fill:#d8e7ff;" d="M258.5,197.5l-1.1,1.8c-11.4-4-20-12.7-24.2-24c-0.1-0.2-0.2-0.5-0.2-0.8c0-1,1.4-1.5,2.3-1.2
			c1,0.4,3,2.2,3.7,2.9c1.8,1.7,5.3,0.5,7.6,1.1c1.3,0.4,1.6,0.2,2.8,0.5c1.6,0.5,2.3,2.3,2.7,3.9c1.7,6.1,0.9,10.9,5.7,14.9
			L258.5,197.5z"/>
	</g>
	<path style="fill:#0363F7;" d="M158.6,102.2c1.8,0,5.4,0.9,9.8,3.2c4.4,2.3,15.5,6.4,15.1,7.2s-5.4,2.3-10.6,2.8
		c-5.2,0.5-21.4,4-22.1,4.2s-5.6-2.4-6.8-4.6s-1.7-3.5-0.9-3.9c0.8-0.4,18-0.2,20.9-0.6c2.9-0.4,7-0.7,5.4-1.7
		c-1.7-1.1-9.6-3.1-10-4.3C159,103.3,158.6,102.2,158.6,102.2z"/>
	<g>
		<path style="fill:#0363F7;" d="M139.4,132.2c-2.9-0.2-15.6-1-18.2-1.8c-4.3-1.4-6.7-2.8-8.5-5.7c-1.6-2.7-2.1-5.8-3.1-8.6
			c-0.6-1.5-0.7-3-2.4-3.5c-1.6,4.9-2.4,10.3-0.5,15.1c0.2,1.3,0.9,3,1.2,4.2c0.3,1.2,1.1,1.8,2.2,2.8c2.1,1.8,5.9,2.4,9.4,2.6
			c10.2,0.8,21.4,1.1,31.7,0.8c16.1-0.4,43.6,1.1,59-3.6c13.9-4.2,14.5-11.5,15.1-12.4C206.6,134.6,163.6,133.8,139.4,132.2z"/>
	</g>
</g>
<g id="Shoe">
	<path style="fill:#162B54;" d="M48.2,117.7c0.7-0.5,2.2-0.6,3,0C50.7,118.1,49,118.2,48.2,117.7z M57.5,102.6
		c-0.1,1.1-0.4,2.3-0.4,3.4c-0.1,2.8-0.2,5.7-0.2,8.5c0,2.8,0,5.5,0,8.3c0,2,0.1,3.9,0.2,5.9c0.1,1.2,0.3,2.4,1,3.4
		c0.8,1.2,1.5,2.3,2.3,3.5c0.8,1.3,1.7,2.5,2.5,3.8c0.6,1,1.1,2,1.7,3c0.7,1.1,1.4,2.2,2,3.3c1.6,2.8,3.2,5.6,5.1,8.2
		c1.6,2.2,2.9,4.5,4.5,6.7c2,2.7,3.9,5.4,6.1,8c3.4,4,6.9,7.9,10.3,11.9c1.9,2.2,3.8,4.5,5.8,6.7c1,1.1,1.3,2.4,1.2,3.8
		c-0.1,0.7-0.3,1.3-0.4,1.9c-0.2,1-0.6,1.9-1.5,2.4c-0.3,0.2-0.5,0.6-0.8,0.8c-0.5,0.4-1.1,0.9-1.7,1.2c-1,0.5-2.1,0.7-3.2,0.7
		c-1.2,0-2.4-0.1-3.7-0.1c-3.5,0-7.1-0.1-10.6-0.1c-3.4,0-6.9-0.1-10.3-0.2c-3.6-0.1-7.2-0.1-10.8-0.1c-3.3,0-6.5-0.1-9.8-0.1
		c-2.7,0-5.3-0.1-8-0.1c-2.9-0.1-5.9-0.1-8.8-0.2c-2.6,0-5.2-0.1-7.8-0.1c-3.2,0-6.4,0-9.6,0c-0.9,0-1.9-0.1-2.8-0.2
		c-1.4-0.2-2.5-0.9-3.3-2c-1.8-2.1-2-4.5-1.2-7.1c0.5-1.8,1.4-3.4,2.6-4.9c1-1.3,2.1-2.6,3.1-3.9c1.3-1.7,2.7-3.3,4.1-4.9
		c1.8-2.1,3.6-4.1,5.3-6.2c1.6-1.9,3.1-3.8,4.7-5.7c2.7-3.4,5.5-6.7,8.2-10.1c1-1.3,2-2.7,3-4c1.4-2.1,2.8-4.2,4.2-6.3
		c1.4-2.1,2.9-4.3,4.3-6.5c0.5-0.8,1-1.7,1.2-2.7c0.3-1.2,0.3-2.6,0.4-3.8c0.2-3.1,0.4-6.2,0.5-9.3c0.1-1.5,0.2-2.9,0.2-4.4
		c0-2.6-0.1-5.2-0.2-7.7c-0.1-1.6-0.3-3.1-0.6-4.7c0-0.2-0.2-0.4-0.3-0.5c-0.2,0.3-0.4,0.6-0.4,0.9c0,2.4,0,4.8,0,7.2
		c0,1.6,0,3.3-0.1,4.9c0,1.7-0.1,3.4-0.2,5.1c-0.1,1.4-0.1,2.8-0.2,4.2c-0.1,2.2-0.2,4.3-0.3,6.5c0,0.6-0.1,1.1-0.4,1.6
		c-1.1,1.8-2.2,3.6-3.4,5.3c-1.7,2.6-3.6,5.1-5.4,7.6c-1.5,2.1-3,4.2-4.6,6.2c-3.5,4.4-7.1,8.6-10.7,12.9c-2.7,3.3-5.5,6.5-8.2,9.8
		c-2.1,2.5-4.1,5-6,7.5c-1.8,2.4-3.1,5-2.9,8c0,0.6,0.1,1.2,0.1,1.8c0.1,1.8,0.8,3.3,2.1,4.6c1,0.9,2.7,2,4.1,2
		c3.6,0.1,7.1,0.1,10.7,0.2c5.5,0.1,10.9,0.2,16.4,0.3c1.4,0,2.8,0,4.2,0.1c4.6,0.1,9.2,0.1,13.8,0.2c3.2,0,6.3,0.1,9.5,0.1
		c4.7,0.1,9.3,0.1,14,0.2c3.4,0.1,6.7,0.2,10.1,0.2c2.2,0,5.5,0.2,7.7-0.2c3.5-0.5,5.1-4,5.1-4c0.7-1.3,0.9-1.5,1.1-3.1
		c0.1-0.9,0.3-1.4,0-3c-0.7-1.2-1.3-2.9-2.5-3.8c-0.2-0.1-3.2-3.3-4.5-4.8c-2.2-2.5-4.4-4.9-6.6-7.4c-2-2.3-4-4.7-5.9-7.1
		c-1.3-1.5-2.5-3.1-3.7-4.7c-1.4-2-2.7-4-4.1-6c-1.2-1.8-2.3-3.6-3.5-5.5c-0.7-1.1-1.4-2.3-2.1-3.5c-0.9-1.6-1.8-3.1-2.8-4.7
		c-1.2-1.9-2.3-4-3.7-5.7c-1.3-1.7-2.5-3.3-3.4-5.3c-0.2-0.5-0.5-1.1-0.5-1.7c-0.1-2.4-0.2-4.7-0.3-7.1c-0.1-2.5-0.1-5-0.1-7.5
		c0-2.6,0-5.1,0-7.7c0-1.5,0-2.9,0-4.4c0-0.8,1-1.3,1.7-1.6c0.2-0.1,0.4-0.1,0.6-0.2c2.6-0.8,2.6-4,1.7-5.6
		c-0.3-0.6-0.8-0.9-1.3-1.3c-1.1-0.8-2.3-1.2-3.6-1.3c-1.1,0-2.3-0.1-3.4-0.1c-2,0-4,0-6,0c-1.6,0-3.4-0.5-4.7,0.7
		c0,0-0.4,0.2-0.5,0.3c-1.5,1.1-2,3.1-1.5,4.5c0.7,2.1,2.2,3.2,4.4,3.6c0.6,0.1,0.9-0.1,1.1-0.9c-0.1,0-0.2-0.1-0.3-0.2
		c-0.3-0.1-0.7-0.1-1-0.1c-2.2-0.1-3.1-1.7-3.2-3.3c-0.1-1.1,0.8-2.3,1.7-2.9c0.9-0.5,1.8-0.4,2.7-0.4c3.3,0,6.6,0.1,10,0.2
		c0.9,0,1.9,0.3,2.8,0.5c0.8,0.2,1.2,0.8,1.5,1.5c0.3,0.9,0.4,1.8,0,2.8c-0.3,0.8-0.5,0.6-1,0.9c-0.5,0.3-1.5,0.5-1.9,0.8
		c-2.3-0.1-4.5-0.1-6.7-0.1c-0.5,0-0.9,0-1.4,0c-0.6,0.1-0.7,0.2-0.6,0.9c2.8,0,5.7,0,8.5,0C57.5,101.7,57.5,102.1,57.5,102.6z
		 M65.3,152.8c-1-0.5-1.7-1.3-2.3-2.2c-1.4-2.2-2.8-4.4-4.1-6.6c-0.4-0.6-0.8-1.3-1.2-1.9c-1.1-1.8-2.2-3.7-3.2-5.5
		c-0.8-1.3-1-2.8-0.9-4.3c0-0.5,0.1-1,0.8-1.2c0.1,0.2,0.3,0.4,0.4,0.7c0.2,0.6,0.4,1.2,0.5,1.8c0.1,0.9,0.5,1.8,0.9,2.5
		c2.8,4.6,5.8,9,9,13.4c0.1,0.1,0.2,0.2,0.3,0.3c0-0.3,0-0.6-0.2-0.8c-0.8-1.3-1.6-2.6-2.3-4c-1.6-2.9-3.5-5.6-5.3-8.3
		c-0.9-1.2-1.6-2.6-1.9-4c-0.1-0.6-0.4-1.1-0.6-1.7c-0.4-0.7-0.9-0.8-1.5-0.4c-0.6,0.4-0.7,1-0.8,1.6c-0.2,2,0.3,3.7,1.3,5.4
		c1.4,2.3,2.8,4.5,4.2,6.8c1.3,2.2,2.7,4.4,4,6.5c0.7,1.1,1.5,2,2.7,2.6c0.7,0.4,1.3,0.3,2-0.1c0.1-0.9,0.1-1.7-0.5-2.3
		c-0.6,0.5,0.2,1.3-0.5,1.8C65.7,152.9,65.4,152.9,65.3,152.8z M55.3,172.3c0.6,0.6,0.5,1.3-0.3,1.7c-0.3,0.2-0.7,0.2-1,0.3
		c-1,0.2-1.9,0.1-2.9-0.2c-1.1-0.3-2.2-0.2-3.3,0.1c-0.2,0-0.3,0.2-0.5,0.3c0.3,0.2,0.5,0.1,0.7,0.1c1.1,0,2.2-0.1,3.3,0.3
		c1.1,0.3,2.3,0.3,3.4,0c1.6-0.5,2.1-2,1.1-3.4c-0.2-0.3-0.4-0.5-0.6-0.7c-0.4-0.5-0.5-0.8-0.2-1.4c0.2-0.5,0.5-1,0.8-1.5
		c0.7-1.3-0.7-3.5-2.1-3.4c-1.2,0.1-2.2,0.4-3.1,1.1c-0.7,0.6-1.3,1.3-1.8,2c-2.2,2.8-1.8,2.5-5,3.4c-1.2,0.4-2.2,1-3,1.8
		c-0.3,0.3-0.3,0.6,0.1,0.9c0.1-0.1,0.3-0.2,0.4-0.3c0.7-0.7,1.6-1,2.6-1.2c1.5-0.2,2.7-1,3.9-2c0.4-0.3,0.7-0.7,1-1.1
		c0.5-0.7,0.9-1.4,1.5-2c0.8-0.9,1.8-1.5,3.1-1.5c1.5,0,2.1,0.9,1.3,2.2c-0.5,0.8-0.7,1.7-0.8,2.8C54.4,171.3,54.8,171.8,55.3,172.3
		z M29.1,168.2c0.7-0.7,1.5-1.3,2.2-2c0.9-0.9,1.7-2,2.6-2.9c0.3-0.3,0.9-0.5,1.4-0.6c0.6-0.1,0.9,0.2,1.1,0.9c0.2,0.9-0.2,1.7-1,2
		c-1.2,0.6-2.3,1.6-3.8,1.6c-0.4,0-0.8,0.3-1,1c0.5,0,0.9,0.2,1.2,0.1c1.8-0.6,3.6-0.9,5-2.3c0.4-0.4,0.9-0.8,1-1.4
		c0.2-1.6-1-3-2.7-2.8c-1,0.1-2,0.5-2.6,1.3c-1.2,1.5-2.5,3-3.7,4.5c-0.1,0.1,0,0.3-0.1,0.5C29,168.2,29,168.2,29.1,168.2z
		 M33.7,156.5c0.6-0.7,1.1-1.4,1.6-2.1c1.5-2.3,3-4.6,4.5-6.9c0.3-0.4,0.5-0.9,0.4-1.4c-1.1,0.9-6.7,9.1-7.5,11.3
		C33.1,157.1,33.4,156.8,33.7,156.5z M43.9,77.8c-1.1,0.2-2,1.1-2.2,2.5c-0.1,0.3-0.1,0.7,0,1c0.3,1.3,2,2.4,3.2,2.3
		c0.1,0,0.2,0,0.3-0.1c1.2-0.4,1.9-1.3,2.2-2.5c0.3-1.1-0.4-2-1.2-2.7c-0.1-0.1-0.3-0.1-0.7-0.3c0.3,0.6,0.5,1,0.7,1.4
		c0.6,1,0.4,1.9-0.3,2.8c-0.6,0.7-1.2,0.8-2.2,0.5c-0.9-0.3-1.5-1.1-1.4-1.9c0.1-0.5,0.3-1.1,0.5-1.6c0.3-0.6,0.8-0.9,1.5-0.8
		c0.1,0,0.3,0,0.6,0C44.7,77.9,44.4,77.8,43.9,77.8z M36.4,170.1c0.3-0.3,0.7-0.6,1.1-0.8c0.5-0.4,1.1-0.3,1.3,0.2
		c0.2,0.4,0.1,0.7-0.5,1c-0.4,0.2-0.8,0.3-1.1,0.8c0.4,0.1,0.8,0.2,1.1,0.2c1,0,2-1,1.8-1.9c-0.2-1.2-1.5-1.8-2.6-1.4
		c-0.9,0.3-1.5,1.1-2.1,1.9C35.8,170.4,36.1,170.3,36.4,170.1z M36.3,155.3c1.3-0.7,2.1-2,2.9-3.1c0.5-0.7,1.3-1.4,1.1-2.5
		C38.7,151.3,37.3,153.2,36.3,155.3z M56.9,84.5c-0.6-0.1-1.1-0.6-1.2-1.3c-0.1-0.5,0.1-0.9,0.7-1.2c0.5-0.3,1-0.3,1.4,0.1
		c0.6,0.5,0.7,0.9,0.6,1.5c0,0.1-0.1,0.3-0.1,0.5C59,83.5,59,83,58.3,82c-0.6-0.9-1.5-1-2.5-0.3c-0.8,0.6-0.9,1.5-0.3,2.4
		c0.5,0.9,1.3,1,2.4,0.4C57.5,84.6,57.2,84.6,56.9,84.5z M51.9,102.5c-1.6-0.4-4.1-0.5-4.7-0.2c-0.1,0-0.1,0.2-0.1,0.3
		C48.5,102.8,51.2,102.8,51.9,102.5z M44.6,96.5c-0.1-0.5,0.2-1.1-0.2-1.6c-0.9,0.9-0.6,2.3,0.6,3.2C44.9,97.6,44.8,97.1,44.6,96.5z
		 M52.6,112.5c-0.7-0.2-4.1-0.7-4.8,0C48.9,113,52.2,113.1,52.6,112.5z M49.3,107.4c0.3,0,0.6-0.1,0.7-0.5c-0.7,0-1.4,0.1-2.2,0.1
		C48.3,107.5,48.8,107.4,49.3,107.4z M78.9,187.5c1,0.2,1.3,0,1.8-0.8c0.3-0.4,0.5-0.9,0.8-1.4c-1,0-1.2,0.9-1.7,1.4
		c-0.3,0.1-0.7,0.1-1.1,0.3c-0.4,0.2-0.9,0.4-1.3,0.7c-0.6,0.5-0.5,1.1,0.1,1.5c0.8,0.5,1.7,0.7,2.6,0.5c0.6-0.2,1.1-0.4,1.7-0.6
		c0.4-0.1,0.6-0.4,0.7-0.8c-0.9,0.3-1.7,0.7-2.5,0.9c-1.1,0.2-2.2-0.3-2.3-0.9c0.1-0.2,0.3-0.4,0.5-0.7
		C78.5,187.4,78.7,187.4,78.9,187.5z M80.1,180c0.1,0.9-0.5,1.2-1.2,1.4c-0.3-0.3-0.5-0.5-0.7-0.7c-0.2-1.1,0.6-1.1,1.2-1.3
		c-0.5-0.6-1-0.7-1.4-0.1c-0.8,0.9-0.6,1.9,0.4,2.7c0.4,0.3,0.9,0.4,1.3,0.1c0.4-0.3,0.8-0.6,1.2-1C80.7,180.2,80.7,180.2,80.1,180z
		 M28.3,185.3c-0.6-0.9-0.7-1-1.7-0.7c-0.8,0.2-1,0.5-1,1.2c0,0.7,0.5,1.3,1.1,1.4c0.2,0,0.5,0,0.7,0c0.9,0,1,0,1.4-1
		C28.6,185.8,28.5,185.5,28.3,185.3z M26.5,185.1c0.3,0,0.6,0,1,0c-0.1,0.4,0.6,0.7,0.2,1.2c-1.4,0.2-1.7,0-1.4-1.1
		C26.5,185.1,26.5,185.1,26.5,185.1z M19.6,185.2c-0.6,0.3-0.7,0.7-0.8,1.2c-0.1,0.9,0.9,1.7,1.7,1.4c0.3-0.1,0.5-0.5,0.6-0.7
		c0.1-0.2,0-0.5-0.4-0.6c-0.1,0.2-0.3,0.4-0.4,0.6c-0.3,0-0.6,0-0.8,0C18.9,186.5,19.7,185.9,19.6,185.2z M24.8,178.8
		c0.4-0.2,0.6-0.6,0.4-1.1c-0.7,0.6-0.7,0.6-1.5,0.1c0.2-0.4,0.3-0.8,0.6-1.3c-0.7,0.3-1,0.8-1.1,1.4
		C23.8,178.7,24.3,179,24.8,178.8z M84.2,186.7c-0.3-0.7-0.8-1.1-1.7-1.3c0.5,0.6,0.9,1.1,1.2,1.6c-0.2,0.4-0.4,0.7-0.6,1
		C84,187.9,84.5,187.4,84.2,186.7z M148.9,191.7c-3.4-1.6-6.9-2.3-10.2-3.5C139.7,189.5,147,192,148.9,191.7z M138.9,187
		c1.5,1.1,7.1,2.8,8.7,2.6C145.7,188.6,139.8,186.9,138.9,187z M142.2,191.2c-2.7-1-5.2-1.9-7.9-2.2
		C135.1,189.7,141.1,191.4,142.2,191.2z M187.5,103.2c0-0.4,0.1-10.8,0.1-11.2c0-1.2-0.1-7.4-0.1-8.6c0-0.4-0.1-0.8-0.2-1.3
		c0-0.1-0.1-0.3-0.2-0.4c-0.1,0.2-0.1,0.4-0.1,0.6c-0.1,0.7-0.4,1.4-0.4,2.2c0,0.7,0,17.2,0,17.9L187.5,103.2z M177.1,102l-1.4-0.5
		c0,0.1,0,0.1,0,0.2C176.1,101.7,176.5,101.8,177.1,102L177.1,102z M194.3,137.1c-0.3,0-0.6,0.1-0.9,0.1c-0.7,0.1-3.5,0.7-4.3,0.8
		c-0.4,0.1-5.7,1.3-5.8,1.3c-0.2-0.1-1.8,0.4-2.3,0.6c-0.8,0.2-1.7,0.5-2.5,0.7c-0.5,0.1-1.1,0.1-1.6,0.3c-0.6,0.2-1.1,0.3-1.7,0.4
		c-0.4,0.1-0.8,0.2-1.2,0.3c-0.4,0.1-0.8,0.2-1.2,0.3c-0.4,0.1-0.9,0.1-1.2,0.3c-0.5,0.2-0.9,0.4-1.5,0.4c-0.1,0-0.3,0-0.4,0.1
		c-0.4,0.1-0.8,0.5-0.7,0.9c0.2,0.6,0,1.1,0,1.7c0,0.2,0,0.5-0.1,0.7c-0.2,0.3-0.2,0.7-0.2,1.1c0,0.5-0.1,1-0.1,1.5
		c0.1,0.5,0.1,1,0.2,1.4c0,0.1,0.1,0.2,0.2,0.3c0.2-0.1,0.3-0.2,0.4-0.3c0.2-1.9,0.3-3.8-0.2-5.7c1.7-0.4,3.4-0.8,5.1-1.1
		c0.7-0.2,1.3-0.3,2-0.5c1.2-0.3,2.5-0.6,3.7-0.9c2.1-0.5,4.3-1.1,6.4-1.6c0.4-0.1,0.7-0.2,1.1-0.2c1.2-0.2,2.3-0.4,3.5-0.6
		c1.1-0.2,2.3-0.4,3.4-0.6c1.3-0.2,2.6-0.4,3.9-0.6c0.8-0.1,1.6-0.4,2.5-0.5c1-0.2,2.1-0.4,3.2-0.6c0.7-0.1,1.3-0.2,1.9-0.4
		c0.8-0.3,1.7-0.3,2.6-0.4c1.2-0.2,2.3-0.4,3.5-0.7c0.5-0.1,1-0.3,1.5-0.5c0.3-0.1,0.5-0.3,0.6-0.6c-0.3-0.2-0.5-0.3-0.8-0.2
		c-0.4,0.1-0.8,0.1-1.1,0.1c-0.7,0.1-1.5,0.2-2.2,0.3c-0.8,0.1-1.6,0.2-2.4,0.3c-0.2,0-0.4,0-0.6,0c-0.7,0.1-1.4,0.3-2.1,0.4
		c-0.9,0.2-1.8,0.4-2.8,0.5c-0.8,0.2-1.7,0.3-2.5,0.5c-1.2,0.3-2.5,0.5-3.7,0.7C195.4,136.9,194.8,137,194.3,137.1z M167.9,142.9
		c-0.5-0.2-1-0.3-1.5-0.4c-0.8-0.2-1.6-0.4-2.4-0.7c-1.1-0.3-2.2-0.7-3.3-1c-1-0.3-2-0.6-3-0.8c-1.2-0.3-2.4-0.7-3.7-1
		c-0.8-0.2-1.7-0.4-2.5-0.7c-1-0.4-2-0.8-3.1-1.1c-0.3,0.4-0.3,1.1-1,1.1c0.9,0.2,1.7,0.5,2.5,0.8c1.1,0.4,2.1,0.8,3.2,1.1
		c0.6,0.1,1.2,0.3,1.8,0.4c1.2,0.4,2.5,0.7,3.7,1.1c1.4,0.4,2.8,0.8,4.2,1.2c1.5,0.4,2.9,0.8,4.4,1.3c0.4,0.1,0.6-0.1,0.9-0.3
		c0.1-0.1,0.2-0.3,0.1-0.4C168.4,143.3,168.2,143,167.9,142.9z M166,10.8c-0.2-0.2-0.2-0.4-0.1-0.6c0.3-0.7,0.9-1.2,1.5-1.7
		c0.8-0.7,1.6-1.3,2.4-2c0.8-0.7,1.7-1.4,2.5-2.1c0.2-0.1,0.4-0.3,0.6-0.3c0.6-0.1,1.1-0.4,1.6-0.6c0.4-0.2,0.8-0.2,1.3-0.3
		c0.8-0.1,1.5,0.2,2.2,0.3c0.5,0.1,1,0.4,1.5,0.6c0.7,0.2,1.1,0.8,1.8,1.1c0,0,0.1,0.1,0.1,0.1c0.5,0.6,1.1,1.2,1.5,1.9
		c0.2,0.4,0.5,0.8,0.7,1.2c0.5,1,0.6,2.1,0.5,3.2c0,0.4-1.4,1.7-1.8,2.1c-1.4,1.5-2.8,2.9-4.2,4.3c-0.2,0.2-1,0.9-1.1,1.2
		c-0.1,0.5-0.4,0.9-0.7,1.3c-0.3,0.4-1.6,1.3-2,1.5c0-0.7,0.2-0.6,0.2-1.2c-0.1,0,1.1-2.7,0.8-3.7c-0.1-0.5-0.2-1.1-0.4-1.6
		c-0.1-0.3-0.3-0.6-0.5-0.9c-0.9-1-1.9-1.8-3.1-2.4c-0.5-0.3-2-0.5-2.1-0.5C168.6,11.2,166.3,10.6,166,10.8z M168.4,9.7l0,0.1
		c0.2,0,0.4,0,0.6,0.1c0.2,0,0.5,0,0.7,0c0.5,0.1,1,0.3,1.4,0.5c0.6,0.3,1.2,0.6,1.8,0.9c0.6,0.3,1.1,0.7,1.6,1.1
		c0.6,0.5,1,1.1,1.5,1.6c0.4,0.4,0.6,0.9,0.7,1.4c0.1,0.3,0.1,0.6,0.2,0.9c0.4-0.2,0.6-0.4,0.8-0.7c1-1.1,2-2.2,3-3.3
		c0.3-0.3,0.7-0.7,1-1c0.1-0.1,0.2-0.2,0.2-0.4c0.3-1,0-2-0.5-2.9c-0.2-0.5-0.6-0.9-0.9-1.4c-0.1-0.2-0.3-0.4-0.5-0.6
		c-0.5-0.4-1-0.7-1.6-1c-0.3-0.2-0.6-0.2-0.9-0.3c-0.5-0.1-1-0.2-1.4-0.3c-0.6-0.1-1.3-0.2-1.9-0.2c-0.3,0-1.3,0.8-1.6,1.1
		c-0.5,0.5-1,1-1.5,1.5c-0.6,0.7-1.2,1.3-2,1.8C169.1,9.1,168.8,9.4,168.4,9.7z M187.1,199.7c-0.1,0-0.2,0-0.3,0.1
		c-0.8,0.1-1.6,0.2-2.4,0.5c-1,0.3-2.1,0.4-3.1,0.6c-0.9,0.2-1.8,0.4-2.7,0.6c-1.1,0.3-2.2,0.5-3.3,0.6c-1.8,0.2-3.6,0.3-5.4,0.8
		c-0.7,0.2-1.4,0.2-2.1,0.3c-0.6,0.1-1.3,0.2-2,0.3c-0.1,0.4-0.1,0.9-0.2,1.3c-0.2,0.7-0.3,1.3-0.6,2c-0.2,0.3-0.9,1.3-1.1,1.4
		c-0.3,0.1-0.7,0.2-1,0.2c-0.7-0.1-1.4-0.3-2-0.7c-0.2-0.1-0.3-0.3-0.5-0.5c-0.1-0.1-0.2-0.3-0.4-0.4c-0.4-0.4-0.6-0.8-0.7-1.3
		c-0.1-0.8-0.2-1.6-0.3-2.4c0-0.3-0.1-0.6-0.2-0.9c-0.1,0-0.3-0.1-0.5-0.2c-0.8-0.3-1.5-0.6-2.3-0.9c-0.9-0.3-1.8-0.7-2.8-0.9
		c-0.7-0.1-1.3-0.4-2-0.7c-1.1-0.4-2.2-0.8-3.3-1.2c-2.6-0.9-5.1-2-7.5-3.1c-1-0.4-2-0.7-2.9-1.2c-1-0.4-1.9-1-2.9-1.4
		c-0.8-0.4-1.6-0.8-2.4-1.1c-0.7-0.3-1.4-0.5-2.1-0.8c-1.1-0.5-2.3-0.9-3.3-1.5c-0.4-0.2-0.8-0.4-1.2-0.6c-0.7-0.4-1.6-0.6-2.3-1
		c-0.3-0.1-0.6-0.3-0.8-0.4c-0.2-0.1-0.4-0.2-0.7-0.3c-0.2,0.7-0.2,1.1-0.4,1.8c-0.1,0.2-0.2,0.8-0.3,1.1c-0.1,0.3-0.2,0.6-0.5,0.8
		c-0.6,0.5-4.4-1.8-4.5-2c-0.4-0.9-0.6-1.8-0.7-2.7c0-0.5,0.1-0.9,0.2-1.4c-0.4-0.2-0.9-0.4-1.3-0.6c-0.5-0.2-1.9-1.1-2.1-1.2
		c-0.1-1.5-0.3-2.9-0.1-4.3c0.2-1-0.1-3.7,0.2-4.1c0.1-0.3,0.9-0.4,1.2-0.3c0.1,0.1,5.8-0.8,6.6-1c0.5-0.1,2.1-0.2,2.3-0.3
		c0.3-0.1,2.9-0.4,4-0.7c0.6-0.2,1.2-0.2,1.8-0.3c0.5,0,0.9-0.1,1.4-0.2c0.4-0.1,0.8-0.1,1.2-0.2c0.5-0.1,2.2-0.1,2.6-0.1
		c0.5-0.1,1-0.2,1.5-0.2c0.2,0,0.5,0,0.7-0.1c1.2-0.1,2.4-0.3,3.6-0.6c0.5-0.1,1-0.1,1.5-0.2c0.6-0.1,1.3-0.2,1.9-0.3
		c0.5-0.1,0.9-0.2,1.4,0c0-0.5,0.1-0.9,0.1-1.3c0.1-0.9,0.1-1.7,0.2-2.6c0-0.5,0.1-0.9,0.1-1.4c0-0.1,0.1-0.3,0.1-0.4
		c0.1-0.2,0.1-0.5,0.2-0.7c0-0.3,0.1-0.6,0.4-0.9c0.2,0,0.3,0.1,0.5,0.2c0.2-0.1,1-0.1,1.2-0.1c0.5-0.1,1,0.1,1.4,0.3
		c0.7,0.3,1.3,0.6,2.1,0.7c9.2,1.6,11.7,0.8,12.4,0.7c0.6-0.1,1.8-1,0.5-2c-0.1-0.2-0.8-0.5-1-0.6c-0.9-0.4-1.8-0.5-2.7-0.7
		c-1.2-0.2-2.4-0.2-3.6-0.2c-1.2-0.1-2.3,0-3.4,0.2c-1,0.2-1.9,0.3-2.9,0.5c-0.6,0.1-1.2,0.4-1.8,0.5c-0.5,0.1-1.1,0-1.6-0.1
		c0-0.3,0.2-0.5,0.4-0.6c0.1,0,0.2,0,0.2-0.1c0.7-0.6,1.7-0.7,2.6-1c0.4-0.2,0.9-0.3,1.4-0.4c0.5-0.1,1.1-0.2,1.6-0.3
		c0.4-0.1,0.8-0.1,1.2-0.2c0.4-0.1,0.9-0.1,1.3-0.2c0.2,0,0.4,0,0.6,0c1.1,0,2.1-0.1,3.2,0c0.1,0,0.1,0,0.2,0c0-0.2,0-0.4,0-0.6
		c0-0.5-0.1-1-0.1-1.4c0-1.8,0-3.7,0-5.5c0-0.7,0.1-1.3,0.1-2c0-0.3,0-0.4-0.4-0.5c-0.6-0.2-1.3-0.4-1.9-0.5
		c-0.7-0.2-1.5-0.4-2.2-0.6c-1.3-0.4-2.6-0.9-3.9-1.3c-1.2-0.4-2.4-0.7-3.6-1c-0.9-0.3-1.9-0.6-2.8-0.9c-0.6-0.2-1.2-0.3-1.8-0.5
		c-0.6-0.2-1.1-0.4-1.7-0.6c-0.7-0.2-1.3-0.5-2-0.7c-1.2-0.4-2.4-0.9-3.6-1.3c-0.8-0.3-1.7-0.6-2.6-0.9c-1.2-0.4-2.4-0.8-3.6-1.2
		c-0.4-0.2-0.9-0.4-1.3-0.6c-0.8-0.3-1.6-0.6-2.4-0.9c-0.7-0.3-1.3-0.6-2-0.8c0.8,0.1,1.5,0.2,2.9,0.2c1.6,0,1.6,1.9,2.4,1.9
		c1.1-0.1,3.6,0.6,5.6,0.1c1.2,0.4,2.4,0.9,3.6,1.3c2.1,0.8,4.2,1.5,6.3,2.2c0.5,0.2,0.9,0.3,1.4,0.4c1.2,0.4,2.4,0.8,3.6,1.1
		c2,0.5,4,1.2,6,1.8c0.7,0.2,1.4,0.5,2.1,0.7c1,0.3,2,0.5,2.9,0.8c0.8,0.3,1.7,0.6,2.5,0.8c1.1,0.3,2.2,0.6,3.3,0.9
		c1.2,0.3,2.3,0.7,3.5,1c0.1,0,0.3,0.1,0.4,0.2c0.1,0.2,1.1-0.2,1.5-0.2c0.4-0.1,0.9-0.2,1.3-0.2c0.4-0.1,0.8-0.1,1.2-0.1
		c0.4-0.1,0.8-0.1,1.2-0.2c0.5-0.1,0.9-0.1,1.4-0.2c0.8-0.2,1.6-0.4,2.4-0.6c0.7-0.2,1.5-0.2,2.2-0.4c1.3-0.3,2.6-0.5,3.9-0.8
		c1-0.2,1.9-0.5,2.9-0.7c0.6-0.1,1.3-0.3,1.9-0.4c0.8-0.2,1.6-0.4,2.4-0.5c0.6-0.1,1.2-0.3,1.9-0.4c0.6-0.2,1.3-0.3,1.9-0.5
		c1.1-0.2,2.3-0.5,3.4-0.7c0.8-0.1,1.5-0.3,2.3-0.4c1.6-0.1,3.2-0.5,4.8-0.8c0.7-0.1,1.4-0.3,2.1-0.4c0.6-0.1,1.3-0.2,2-0.3
		c0.8-0.1,7.1-1.5,7.4-1.6c0.1,0,0.2,0,0.3,0c0-0.5,0.1-1.1,0.1-1.6c0.1-1.4,0.2-2.7,0.3-4.1c0-0.1,0-0.2-0.1-0.3
		c-0.2-0.3-0.5-0.6-0.7-0.9c-0.2-0.3-0.4-0.6-0.7-1c-0.2,0-0.6,0-0.9-0.1c-0.6-0.1-1.1-0.2-1.7-0.2c-0.4-0.1-0.9-0.1-1.3-0.2
		c-0.3-0.1-0.6-0.2-1-0.2c-1.1-0.2-2.2-0.3-3.4-0.5c2.7-0.2,5.4,0,7.9-0.2c0.4,0.1,0.8,0.2,1.2,0.2c0.1,0.1,0.2,0.3,0.4,0.5
		c0.3,0.3,0.5,0.7,0.8,1.1c0.2,0.2,0.4,0.4,0.6,0.6c0.3,0.2,0.6,0.6,0.5,1c0,0.7,0,1.4-0.1,2.2c0,0.8-0.1,1.5-0.2,2.3
		c-0.1,0.9-0.2,1.7-0.3,2.6c-0.2,0.1-1.1,0.1-1.3,0c-0.3,0.1-1.2,0-1.3,0c-1,0.2-2,0.5-3,0.7c-0.3,0.1-0.5,0.1-0.8,0.1
		c-0.7,0.1-1.4,0.3-2.1,0.4c-0.4,0.1-0.9,0.2-1.3,0.3c-0.1,0-0.2,0.1-0.3,0.1c0.4,1.8,0.2,3.6,0.2,5.5c0.2,0.1,0.4,0.1,0.7,0.2
		c0.8,0.1,1.5,0.2,2.3,0.3c0.5,0.1,1,0.3,1.5,0.4c0.1,0,0.2,0.1,0.3,0.2c0.2,0.3,0.4,0.4,0.7,0.5c0.9,0.5,1.7,1.1,2.4,1.8
		c0.3,0.3,0.6,0.5,0.9,0.8c0.3,0.3,0.5,0.6,0.7,1c0.2,0.3,0.4,0.5,0.6,0.8c0.1,0.2,0.2,0.5,0.3,0.8c0.2,0.5,0.5,1,0.6,1.5
		c0.1,0.6,0.4,1.2,0.4,1.8c0,0.7,0.2,1.5,0.1,2.2c0,0.6-0.2,1.3-0.3,1.9c0,0-0.1,0.1-0.1,0.1c-0.1,1.1-0.7,1.9-1.3,2.8
		c-0.4,0.5-0.9,1-1.4,1.5c-0.4,0.4-2.1,1.4-2.3,1.5c-1.1,0.9-2.4,1.2-3.8,1.1c-0.6,0-1.3,0-1.9,0.2c-0.1,0-0.3,0-0.6,0
		c0,0.1-0.1,0.2-0.1,0.4c0,0.6,0.1,1.3,0.2,1.9c0.1,0.5,0.1,0.9,0.2,1.4c0.1,0.3,0.1,0.7,0.2,1c-0.6,0-1.2-0.1-1.8-0.2
		c-0.1-0.4-0.2-0.9-0.3-1.4c-0.1-0.9-0.1-1.8-0.2-2.6c0-0.3,0.1-0.7,0.1-1c-0.3-0.2-0.6-0.2-0.9-0.2c-0.4-0.1-0.9-0.1-1.3-0.2
		c-1.2-0.2-2.4-0.5-3.6-0.4c-1,0.1-2-0.2-3-0.3c-0.4-0.1-0.8-0.1-1.3-0.2c-0.1,0-0.2,0-0.2,0c-0.4-0.4-1.1-0.4-1.5-1
		c-0.5-0.8-1.3-1.4-1.9-2.2c-0.6-0.7-1.1-1.5-1.5-2.3c-0.2-0.5-0.3-1.2-0.5-1.8c-0.1-0.4-0.1-0.7-0.2-1.1c-0.1-0.7-0.2-1.5-0.2-2.3
		c0-0.7,0-1.4,0.1-2.1c0.1-0.6,0.2-1.3,0.4-1.9c0.3-1,1-1.9,1.6-2.7c0.7-0.8,1.5-1.5,2.6-1.8c0.1,0,0.2,0,0.2-0.1
		c0.5-0.4,1.2-0.4,1.8-0.6c0.9-0.3,1.8-0.1,2.7-0.2c0.1,0,0.3,0,0.4,0c0.3,0,0.7,0,1,0c0.9,0.1,1.8,0.1,2.7,0.1
		c0.5,0,1.1,0.1,1.6,0.1c0.5,0,0.9,0.1,1.5,0.1c0-0.7,0-1.4,0-2c0-0.6,0-1.1,0-1.7c0-0.5-0.2-1-0.3-1.4c-0.9,0.2-1.7,0.4-2.5,0.6
		c-0.9,0.2-1.7,0.4-2.6,0.5c-0.7,0.1-1.5,0.2-2.3,0.3c-1,0.2-1.9,0.4-2.9,0.6c-1.1,0.2-2.2,0.4-3.3,0.7c-0.5,0.1-1,0.3-1.5,0.4
		c-1.6,0.4-3.3,0.8-4.9,1.1c-0.1,0-0.2,0.1-0.4,0.1c0,0.1,0,0.2,0,0.3c0.4,1,0.5,2,0.7,3c0.1,0.5-0.1,1-0.3,1.6
		c-0.1-0.2-0.3-0.3-0.3-0.5c-0.4-1.2-0.7-2.3-1.1-3.5c-0.1-0.2-0.1-0.4-0.2-0.6c-0.5,0.1-1,0.3-1.5,0.4c0.2,1,0.5,2,0.7,3
		c0.2,1,0.3,2,0.1,3c-0.2,0-0.3-0.1-0.3-0.3c-0.2-0.7-0.5-1.4-0.7-2.1c-0.3-1.1-0.6-2.3-1-3.5c-0.4,0.1-0.8,0.1-1.2,0.2
		c0,0.2,0,0.3,0.1,0.4c0.6,1.4,0.9,2.9,1.1,4.4c0.1,0.7,0.2,1.4,0.1,2c0,0.1,0,0.2,0,0.3c-0.3-0.1-0.3-0.3-0.3-0.5
		c-0.3-1.2-0.6-2.5-0.9-3.7c-0.2-0.8-0.4-1.5-0.5-2.3c0-0.2-0.1-0.3-0.2-0.5c-0.7,0.2-1.4,0.3-2.2,0.5c0,0.3,0.1,0.7,0.1,1
		c0,0.2,0,0.5,0,0.7c0,0.3,0,0.6,0.1,0.9c0,0.5,0.1,1,0.1,1.6c0,0.9,0,1.7,0,2.6c0,0.8,0,1.5,0,2.3c0,1.8-0.1,3.6-0.2,5.4
		c0,0.6,0,1.3,0,1.9c-0.1,1.7-0.2,3.5-0.3,5.2c-0.1,1.6-0.1,3.2-0.1,4.7c0,0.5-0.1,4.3-0.1,4.8c0,0.2-0.1,0.5-0.5,0.6
		c0-0.2,0-0.4-0.1-0.6c0-0.2-0.1-3.7-0.1-3.8c0-0.1-0.1-0.2-0.1-0.2c0-0.4,0-0.8,0-1.2c0-0.3-0.1-0.6-0.2-0.9
		c-0.1-0.6-0.1-1.3-0.1-1.9c0-0.6,0-1.3,0-1.9c0-0.9-0.1-1.8-0.1-2.7c0-1.2,0.1-2.5,0.2-3.7l0,0c0-1.6,0.1-3.2,0.1-4.7
		c0-1.6,0.1-3.2,0.1-4.8c0-0.8,0-1.5,0-2.3c0-0.8,0-1.5,0.1-2.3c0-0.1,0-0.2,0-0.4c-0.2,0-0.3,0-0.5,0c-0.8,0.2-1.6,0.4-2.3,0.6
		c-0.7,0.1-1.4,0.2-2,0.3c-0.3,0-0.6,0.1-1,0.1c-0.5,0.1-0.9,0.1-1.4,0.2c-0.4,0.1-0.7,0.1-1.1,0.2c-0.2,0.1-0.4,0.1-0.6,0
		c-0.2-0.1-0.4,0-0.6,0c-0.3,0-0.6,0-0.9-0.1c-1.2-0.3-2.3-0.6-3.5-1c-1-0.3-2-0.6-3-0.9c-0.5-0.1-1-0.3-1.5-0.4c-0.1,0-0.2,0-0.4,0
		c0,0.2-0.1,0.5,0,0.7c0.2,2.3,0.1,4.7,0.1,7c0,0.2,0,0.5-0.1,0.7c0,0.4,0,0.8,0,1.2c0.4,0.1,0.8,0.2,1.2,0.2
		c0.9,0.1,3.4,2.2,3.2,2.6c0.4,0.2,0.6,0.4,0.7,0.8c0.2,0.1,0.3,0.2,0.5,0.3c0.1,0.1,0.3,0,0.5,0.1c0,0.2,0.1,0.4,0.1,0.5
		c-0.2,0.6,0.1,1.1,0.1,1.7c0,0.6,0.1,1.2,0.2,1.9c0,1,0,2.1,0,3.1c0,0.7,0,1.4,0,2.1c0,1.5,0.1,3,0.1,4.4c0,0.5,0,1,0,1.5
		c0,0.5,0.2,2.2-0.2,2.8c-0.1,0.2-1.4,0.9-2.1,1c-0.1,0-0.3,0.1-0.4,0.1c-1,0.4-2.1,0.5-3.1,0.5c-0.5,0-2.7,0.1-3.3,0.1
		c-0.6,0-1.2-0.2-1.8-0.2c-1,0-2-0.4-3-0.5c-1.2-0.1-2.4-0.5-3.5-0.9c-1.5-0.4-2.7-1.3-3.8-2.3c-0.2-0.2-0.4-0.5-0.5-0.8
		c0.2-0.2,0.5-0.2,0.8-0.2c0.8,0.1,1.5,0.2,2.2,0.8c0.3,0.3,0.8,0.4,1.2,0.6c0.7,0.4,1.5,0.5,2.2,0.8c0.6,0.3,1.1,0.4,1.8,0.4
		c0.6,0,1.3,0.2,1.9,0.3c0.6,0.1,2.5,0.2,2.8,0.3c0.4,0.1,0.7,0.1,1.1,0c0.5-0.1,1-0.1,1.5-0.1c0.3,0,0.6-0.1,0.8-0.1
		c0.6-0.1,1.2-0.3,1.8-0.4c0.7-0.1,1.3-0.3,1.9-0.7c0.3-0.2,0.4-0.4,0.4-0.8c0-0.8-0.1-1.7-0.1-2.5c0-1.3,0-2.7,0-4
		c0-1-0.1-1.9-0.1-2.9c0-1.3,0-2.7,0-4c0-0.3,0.1-0.6-0.1-0.8c-0.4,0.1-0.8,0.3-1.1,0.4c-0.6,0.3-1.2,0.3-1.8,0.4
		c-1.6,0.3-3.3,0.4-5,0.3c-0.8,0-1.5-0.1-2.3-0.3c-1-0.3-2.1-0.4-3.1-0.6c-0.4-0.1-0.8-0.2-1.2-0.3c-0.1,0-0.3-0.1-0.4-0.1
		c-0.9,0-1.8-0.4-2.7-0.5c-0.6-0.1-1-0.5-1.4-0.8c0,0-0.1-0.1-0.1-0.2c0-0.3-0.2-0.2-0.4-0.3c0,0.2,0,0.4,0,0.5
		c0.1,0.4,0.1,0.7,0.1,1.1c0,0.5-0.1,1-0.2,1.6c-0.1,1-0.1,1.9-0.2,2.9c-0.1,1-0.1,2-0.1,3c0,1.6,0.1,3.2,0.3,4.8c0,0.1,0,0.2,0,0.2
		c0,0.3-0.1,0.4-0.4,0.5c-0.1,0-0.2,0.1-0.3,0.1c-0.6-0.2-0.6-0.8-0.6-1.2c-0.2-1.6-0.3-3.2-0.3-4.7c0-0.3,0-0.5,0-0.8
		c0-0.1-0.1-0.2-0.1-0.3c-0.1,0-0.1,0-0.2,0c-0.8,0.4-1.6,0.5-2.5,0.7c-1.2,0.2-2.4,0.5-3.6,0.7c-0.3,0.1-0.6,0.1-0.9,0.1
		c-1.2,0.1-2.4,0.3-3.6,0.4c-0.6,0.1-1.2,0.1-1.8,0.1c-0.7,0.1-1.3,0.1-2,0.2c-0.7,0.1-1.4,0.1-2.1,0.2c-0.3,0-0.6,0.1-0.9,0.2
		c-0.7,0.2-1.5,0.4-2.2,0.5c-0.5,0.1-1.1,0.1-1.7,0.2c-0.6,0.1-1.1,0.2-1.7,0.3c-0.5,0-0.9,0.1-1.4,0.1c-0.3,0-0.6,0.1-1,0.2
		c-0.5,0.1-1.9,0.3-2.4,0.3c-0.4,0.1-1.2,0-1.6,0c-0.1,0-0.2,3-0.4,4.1c-0.1,0.3-0.1,0.7-0.1,1.1c0,0.5-0.1,1-0.1,1.5
		c0,0.1,0,0.3,0,0.4c0.2,0.1,0.4,0.3,0.7,0.3c1,0.3,2,0.6,2.9,0.9c0.9,0.3,1.7,0.6,2.6,0.9c0.8,0.3,1.5,0.6,2.3,0.9
		c0.9,0.4,1.8,0.8,2.7,1.2c0.5,0.2,1,0.4,1.5,0.6c0.9,0.4,1.8,0.9,2.7,1.3c1.2,0.5,2.5,1.1,3.7,1.6c1,0.4,2.1,0.7,3,1.3
		c1.6,1,3.3,1.6,5,2.3c1,0.4,2,0.9,3,1.3c0.8,0.3,1.5,0.6,2.3,0.9c1.8,0.7,3.6,1.4,5.5,2c1.1,0.4,2.3,0.8,3.4,1.2
		c1,0.3,2.1,0.6,3.1,1c0.4,0.2,0.9,0.4,1.3,0.5c0.3,0.1,0.5,0.2,0.8,0.3c0.4,0.2,0.9,0.4,1.3,0.6c0.2,0.1,0.4,0.2,0.7,0.3
		c0-0.2,0.1-0.4,0.1-0.6c0-0.3,0-0.7,0-1c0-0.6,0.1-1.2,0.1-1.9c0-0.5,0-1-0.1-1.5c0-0.2,0-0.5,0.3-0.7c0.2,0.2,0.4,0.4,0.5,0.7
		c0.3,0.7,0.5,1.5,0.5,2.2c0,1,0,1.9,0,2.9c0,0.2,0,0.5,0,0.8c0.7-0.2,1.3-0.5,1.9-0.6c0.6-0.2,1.2-0.3,1.9-0.4
		c1.3-0.2,2.6-0.4,4-0.7c0.8-0.2,1.7-0.4,2.5-0.5c0.5-0.1,0.9-0.1,1.4-0.1c0.7-0.1,1.5-0.2,2.2-0.3c0.5-0.1,0.9-0.1,1.4-0.2
		c0.2,0,0.4-0.1,0.6-0.2c1.4-0.4,2.9-0.7,4.4-0.9c0.8-0.1,1.5-0.3,2.3-0.5c0.1,0,0.2,0,0.3-0.1C186.4,198.7,186.8,199.2,187.1,199.7
		z M192.8,159.6c0.4,0,0.8,0.1,1.1,0.1c1.6,0,3.3,0.1,4.9,0.1c0.5,0,1-0.1,1.5,0.1c0.2,0.1,0.5,0,0.8,0c0.1-0.6,0.1-1.2,0.2-1.8
		c-0.1,0-0.1-0.1-0.2-0.1c-0.9,0-1.7,0-2.6,0c-0.4,0-0.9,0-1.3,0c-0.7,0-1.4,0-2.1-0.1c-0.5,0-1.1,0.2-1.6,0
		c-0.2-0.1-0.6-0.1-0.8,0.2C192.7,158.7,192.6,159.2,192.8,159.6z M193.6,162.3c0.5-0.2,1-0.1,1.5-0.1c0.9,0,1.7,0.1,2.6,0.1
		c1.1,0,2.1,0.1,3.2,0.2c0.2,0,0.4,0,0.6,0c0.1-0.7,0.1-0.8-0.1-1.5c-2.8,0-5.5,0-8.4-0.1c0.1,0.4,0.2,0.8,0.3,1.1
		C193.2,162.2,193.4,162.3,193.6,162.3z M194.4,164.7c1.1,0,2.3,0.1,3.4,0.1c1.3,0,2.6,0.1,3.8,0.2c0.1,0,0.3,0,0.5,0
		c-0.2-0.6-0.4-1-0.5-1.5c-2.8,0-5.5,0-8.3-0.3c0,0.5,0.3,0.9,0.4,1.3C194,164.6,194.2,164.7,194.4,164.7z M200.3,166.5
		c0.5,0,1,0.1,1.5,0.2c0.4,0.1,0.9,0.1,1.4,0.2c-0.2-0.4-0.4-0.7-0.5-1c-2.6-0.1-5.1,0.1-7.6-0.2c0.2,0.3,0.3,0.7,0.7,0.7
		c0.5,0.1,1,0.1,1.6,0.1C198.3,166.5,199.3,166.5,200.3,166.5z M204.6,168.8c-0.2-0.2-0.3-0.4-0.5-0.6c-0.3-0.4-0.6-0.7-1.2-0.5
		c-0.1,0-0.1,0-0.2,0c-1.1-0.1-2.3-0.1-3.4-0.2c-0.3,0-0.5-0.1-0.8,0.1c0,0.2,0.1,0.3,0.1,0.5C200.7,168.3,202.7,168.5,204.6,168.8z
		 M205,150.7c-1-0.1-1.9-0.1-2.9-0.2c-1.3-0.1-2.6-0.2-3.8-0.2c-0.5,0-1,0.1-1.5,0.1c-0.1,0-0.2,0.1-0.3,0.1
		c-0.6,0.6-1.3,1.1-1.9,1.8c-0.9,1-1.6,2.1-1.9,3.5c-0.1,0.4-0.2,0.8-0.1,1.2c1.5,0,3.1,0,4.6,0c1.5,0,3,0.2,4.6,0.1
		c0.2-0.3,0.4-0.7,0.7-1.1l1-1.3c0.1-0.1,0.2-0.3,0.3-0.3c0.5-0.4,0.8-0.7,1.5-1.1c0.6-0.4,1.2-0.7,1.8-0.8c0.7-0.2,0.9-0.1,1.8-0.2
		c0.3,0,0.5,0,0.6,0.1c0.1,0.2,0.1,0.4-0.1,0.5c-0.2,0.2-0.5,0.3-0.8,0.5c-0.2,0.1-0.5,0.2-0.7,0.4c-0.1,0.1-0.5,0.3-0.6,0.3
		c-1,0.5-1.6,1-2.3,1.8c-0.4,0.4-0.8,0.8-1,1.3c-0.3,0.8-0.8,1.6-1,2.4c-0.1,0.4-0.1,1.5-0.1,1.6c0,0.5,0.1,1.1,0.1,1.6
		c0.1,0.5,0.2,1,0.4,1.5c0,0.1,0,0.2,0.1,0.3c0,0.3,0.7,1.4,0.8,1.6c0.3,0.3,0.5,0.7,0.8,1c0.2,0.2,0.4,0.4,0.6,0.6
		c0.6,0.4,1.2,0.7,1.9,0.9c0.6,0.2,1.2,0.4,1.8,0.2c0.1,0,0.2,0,0.2,0c1,0.3,2.1,0,3-0.4c0.8-0.3,1.6-0.8,2.2-1.5
		c0.3-0.3,0.7-0.6,1-0.9c0.6-0.4,1.1-1,1.4-1.6c0.6-1.1,1-2.3,1.2-3.5c0.1-1,0-1.9-0.2-2.8c-0.4-1.9-1.3-3.5-2.8-4.8
		c-0.5-0.5-1.1-0.9-1.6-1.3c-0.3-0.2-0.5-0.4-0.8-0.7c-0.6,0.2-1.2,0.1-1.8-0.1c-0.3-0.1-0.6-0.2-0.9-0.2c-0.8-0.1-1.7-0.2-2.5-0.3
		C207,150.9,206,150.8,205,150.7z M159.3,190c-0.5-0.3-1.1-0.4-1.6-0.5c-1-0.2-1.9-0.7-2.8-1c-0.9-0.3-1.8-0.7-2.7-1.1
		c-1.6-0.6-3.2-1.2-4.7-1.9c-1.6-0.7-3.3-1.4-5-2c-0.9-0.3-1.8-0.6-2.7-0.9c-1.3-0.4-2.6-0.9-3.9-1.3c-0.8-0.3-1.7-0.5-2.5-0.8
		c-0.9-0.3-1.8-0.5-2.7-0.9c-1.5-0.6-3.1-1.2-4.6-1.8c-0.6-0.2-1.2-0.4-1.8-0.7c-0.9-0.4-1.8-0.7-2.8-0.9c-0.5-0.1-1-0.2-1.5-0.3
		c-0.5-0.2-1.1,0-1.6,0c0,0.2-0.1,0.3-0.1,0.5c0.8,0.4,1.6,0.8,2.4,0.9c0.5,0.1,1.1,0.2,1.6,0.5c0.4,0.2,0.7,0.4,1.1,0.5
		c0.9,0.3,1.8,0.6,2.7,1c1.1,0.4,2.3,1,3.4,1.4c1,0.4,2,0.7,3,1c0.9,0.3,1.7,0.5,2.6,0.8c0.4,0.1,0.9,0.3,1.3,0.5
		c0.5,0.2,1,0.4,1.6,0.5c0.6,0.2,1.1,0.4,1.7,0.6c0.9,0.3,1.8,0.8,2.8,0.9c0,0,0.1,0,0.1,0c0.6,0.3,1.1,0.6,1.7,0.8
		c0.5,0.2,1,0.3,1.4,0.5c0.5,0.2,1,0.5,1.5,0.7c0.3,0.1,0.6,0.2,0.8,0.3c0.5,0.2,1,0.5,1.5,0.6c0.2,0,0.5,0.2,0.7,0.2
		c0.3,0.1,0.7,0.3,1,0.4c1,0.4,1.9,0.8,2.9,1.2c0.8,0.3,1.5,0.6,2.3,0.7c0.9,0.2,1.8,0.3,2.7,0.9c0.3,0.2,0.6,0.2,0.9-0.1
		c0-0.3,0-0.5-0.1-0.8C159.8,190.3,159.5,190.1,159.3,190z M135.3,51.2c-0.4-0.8-0.6-1.8-0.6-2.7c0-0.4,0.5-8.6,0.6-9.5
		c0-0.3,0.1-0.7,0.1-1c0-0.2,0.1-2.3,0.2-3.1c0-0.2,0.1-0.3,0.2-0.4c0.1-0.2,0.3-0.3,0.2-0.5c0-0.1,4.7-4.5,5.1-4.8
		c0.6-0.6,1.2-1.2,1.8-1.8c0.6-0.5,1.3-1,1.9-1.5c0.5-0.4,2-1.7,2.4-1.9c0.1-0.1,0.3-0.1,0.4-0.3c0.2-0.2,0.9-0.2,1.1-0.2
		c0.4-0.1,0.8-0.2,1.3-0.2c0.8-0.1,1.6-0.1,2.4-0.2c0.2,0,0.4-0.1,0.5-0.1c0.2-0.3,0.4-0.4,0.6-0.6c0.1-0.1,0.3-0.3,0.4-0.5
		c0.3-0.7,0.9-1.2,1.4-1.8c0.5-0.5,1-1,1.5-1.5c0.6-0.7,1.3-1.3,2-1.9c0.5-0.4,0.9-1,1.4-1.4c0.1-0.1,0.3-0.2,0.4-0.3
		c0.6-0.5,1.1-1.1,1.6-1.6c0,0,0.1,0,0.7-0.2c0.6-0.2,0.8-0.3,0.8,0s0.1,1.2,0.1,1.2c-0.8,0.8-1.6,1.6-2.4,2.4c-0.3,0.3-0.7,0.7-1,1
		c-0.8,0.8-1.7,1.6-2.5,2.4c-0.5,0.5-0.9,1-1.3,1.4c-0.2,0.2-0.5,0.4-0.7,0.7c-0.1,0.1-0.3,0.3-0.4,0.5c0.4,0.1,0.7,0.1,1,0.1
		c0.6,0,2.8,0.2,3.3,0.2c1,0,3.9,0.8,4.3,1c0.9,0.5,2.5,1.7,2.9,2c0.4,0.3,0.7,0.6,0.9,0.9c0.3,0.4,0.2,0.2,0.2,0.7
		c0,0.1,0,0.1,0,0.3c0.3-0.3,0.5-0.6,0.8-0.8c0.8-0.9,1.5-1.9,2.3-2.7c0,0,0.8-1.1,1.2-1.3c0.4-0.2,1.1-1,1.4-0.7s0,1.8,0,1.8
		c-1.1,1.4-2.2,2.7-3.3,4.1c-0.4,0.5-0.7,1.1-1.1,1.6c-0.2,0.2-0.2,0.4-0.2,0.6c0.1,0.4,0.4,3.8,0.4,4.2c-0.1,1.1,0,2.2-0.1,3.2
		c0,1.2,0.1,2.4-0.1,3.5c-0.1,0.4,0,0.8,0,1.3c0.9,0,1.5,0.4,2.1,1c0.5,0.4,1,0.8,1.4,1.3c0.5,0.5,0.9,1.1,1.3,1.6
		c0.6,0.7,1.1,1.3,1.7,1.9c1,1,1.9,2,2.8,3.2c0.8,1.1,1.7,2.1,2.6,3c1,1.1,1.9,2.3,2.8,3.5c0.4,0.6,1,1.2,1.4,1.8
		c0.6,0.8,1.3,1.6,1.9,2.4c0.9,1.2,1.8,2.5,2.8,3.8c0.8,1,1.6,1.9,2.4,2.9c0.5,0.6,1.1,1.2,1.6,1.9c0.6,0.8,1.4,1.5,1.9,2.3
		c0.4,0.6,1,1.2,1.4,1.7c0.1,0.1,0.2,0.3,0.3,0.4c0.2,0.2,0.3,0.5,0.5,0.7c0.6,0.5,0.8,1.2,0.8,1.9c0,0.7,0,1.3,0,2
		c0,1-0.1,1.9-0.1,2.9c-0.1,1.4-0.1,7.8-0.2,9.2c0,0.4,0,8.4,0,15.2c-0.6-0.1-1.1-0.2-1.7-0.3c0-7.3,0-16.3,0.1-17
		c0-1.2,0.1-7.3,0.1-8.4c0-1.2,0.1-2.3,0.1-3.5c-0.5,0-0.7-0.3-0.9-0.6c-0.2-0.3-0.4-0.7-0.6-1c-0.6-0.8-1.3-1.6-1.9-2.5
		c-0.2-0.2-0.3-0.4-0.5-0.6c-0.2-0.2-0.4-0.4-0.6-0.6c-0.5-0.6-1-1.1-1.4-1.7c-0.5-0.6-1.1-1.2-1.6-1.9c-0.6-0.7-1.1-1.5-1.7-2.2
		c-0.2-0.2-0.3-0.5-0.5-0.6c-0.5-0.3-0.7-0.8-1.1-1.3c-0.4-0.5-0.8-1.1-1.2-1.6c-0.8-1-1.6-2.1-2.4-3.1c-0.2-0.3-0.4-0.6-0.6-0.9
		c-0.4-0.5-0.8-1-1.2-1.5c-0.7-0.9-1.4-1.8-2.2-2.7c-0.4-0.4-0.8-0.9-1.2-1.3c-0.3-0.3-0.5-0.6-0.7-1c-0.3-0.6-0.8-1-1.3-1.5
		c-0.6-0.7-1.2-1.3-1.8-1.9c-0.6-0.7-1.2-1.4-1.8-2.1c-0.2-0.2-0.3-0.6-0.5-0.8c-0.4-0.6-0.9-1.1-1.5-1.6c-0.3-0.3-0.7-0.6-1-1
		c0,0.1-0.1,0.2-0.1,0.2c-0.1,0.5-0.1,1-0.1,1.5c-0.1,1.4-0.1,2.7-0.1,4.1c0,0.5-0.1,1-0.2,1.5c0,0.1-0.1,0.2-0.2,0.3
		c-0.1,0.1-0.2,0.2-0.2,0.2c-0.3,0.5-0.6,1.1-1,1.6c-0.1,0.2-0.3,0.5-0.5,0.7c-0.7,0.8-1.4,1.4-2.3,2c-0.1,0.1-0.2,0.2-0.3,0.3
		c0.1,0,0.1,0.1,0.2,0.1c1.4,0.1,2.9,0.1,4.3,0.2c0.1,0,0.2-0.1,0.4-0.1c-0.4-0.7-0.8-1.4-1.3-2c0.1-0.1,0.1-0.6,0-0.8
		c1,0.9,1.9,1.8,2.8,2.8c0.7,0.8,1.3,1.7,2,2.5c1,1.3,5.1,7.4,5.2,7.5c0.6,1,1.3,1.9,1.9,2.9c0.1,0.1,0.1,0.2,0.2,0.3l-0.1,0
		c-0.1-0.1-0.2-0.2-0.4-0.3c-0.1,0-0.2,0.1-0.4,0.1c-2.9-3.7-5.8-7.3-8.7-11c-0.7,0-1.4,0-2.1,0c-1.3,0-5.1,0.2-5.7,0
		c-0.2,0-0.4-0.1-0.5,0.1c0.3,0.6,0.6,1.3,0.9,1.9c0.8,0.1,1.4,0.5,1.9,1.1l0.5,0.7c0.6,0.9,1.3,1.7,1.9,2.6c0.4,0.5,0.8,1,1.1,1.5
		c0.5,0.9,1,1.8,1.5,2.7c0.3,0.6,0.7,1.1,1,1.7c0.5,0.8,1.1,1.7,1.6,2.5c0.8,1.1,1.6,2.3,2.2,3.4c0.6,1,1.3,2,2.1,2.9
		c0.1,0.1,0.3,0.2,0.3,0.3c0.6,0,1-0.1,1.5-0.1c1.2,0,2.4,0.1,3.6,0.2c0.8,0.1,1.6,0.2,2.3,0.3c0.4,0.1,0.8,0.2,1.1,0.5
		c-0.2,0-0.4,0.1-0.6,0.1c-0.8,0-1.6,0-2.5-0.1c-0.4,0-0.8,0-1.2,0c-1,0-1.9-0.1-2.9-0.1c-0.4,0-0.8,0.1-1.2,0.2
		c0.1,0.2-0.2,0.6-0.4,0.7c0,0.4,0,0.8,0,1.1c0.1,0.8,0.2,6.5,0.1,7.4c0,0.1,0,0.3,0,0.4c0,0.3,0.1,0.6,0.1,1c0,0.2,0,0.4-0.1,0.5
		c0,0.3,0,3.9,0,6.9l-1.4-0.5c0-3.6,0.1-7.7,0.1-8.1c0-1.2,0.1-7.3,0.1-8.5c0-0.5-0.4-0.8-0.6-1.1c-0.3-0.4-0.6-0.7-0.9-1.1
		c-0.6-0.7-1-1.4-1.5-2.2c-0.6-1-1.2-2-1.9-2.9c-0.7-1.1-1.5-2.1-2.1-3.2c-0.6-1.1-1.1-2.2-1.7-3.2c-0.5-0.8-1-1.6-1.5-2.4
		c-0.3-0.4-0.6-0.9-0.8-1.3c-0.4-0.6-0.9-1.1-1.3-1.7c0,0,0,0-0.1,0c0,0.2,0,0.3,0,0.5c0,1.2-0.2,2.4-0.6,3.6c-0.2,0.5-0.6,1-1,1.5
		c-0.1,0.1-0.2,0.1-0.3,0.2c-0.7,0.1-0.7-0.1-1.1,0.1c-1,0.3-2,0.5-3,0.7c-0.6,0.2-0.6,0.3-0.5,0.8c0.1,1,0.3,2,0.4,3
		c0.1,0.4-0.2,0.7-0.6,0.6c0,0.2-0.1,0.4-0.2,0.6c-0.1,0.2-1.2,0.5-1.4,0.7c0.3,1.3,0.3,1.3,0.2,2.6c0,0.4-0.3,1.3-0.2,1.5
		c-0.3,0.6-0.9,0.6-1.5,0.8c-0.2,0.8,0.2,1.6-0.4,2.2c-0.4,0.1-0.7,0.2-1,0.2c-0.3,0-0.6,0.1-0.9,0.1c-0.9,0-1.7-0.1-2.6-0.1
		c-0.5,0-1-0.6-1-1.1c0-0.4-0.1-0.8-0.1-1.2c0-0.3-1.4-0.6-1.7-1.1c-0.1-0.2-0.2-0.4-0.2-0.5c0-1.5-0.1-1.7-0.1-3.2
		c0-0.9,0-1.7,0-2.6c0-1,0.1-1.9,0.1-2.9c0-0.8,0.1-1.6,0.1-2.4c0-0.1,0-0.3,0-0.4c-0.3-0.2-1.2-0.3-1.5-0.5
		c-0.2,0.3-0.4,0.6-0.5,0.9c-0.3,1-0.7,1.9-1.2,2.8c-0.4,0.8-0.8,1.6-1.1,2.3c-0.3,0.2-2.8,0.5-3.5,0.1c-1.1-0.5-2-1.2-2.6-2.2
		c-0.1-0.2-0.2-0.3-0.2-0.5c0-0.1,0-0.2,0-0.3c0.4-0.8,0.7-1.7,1-2.6c0.3-0.9,0.6-1.8,1-2.7c0.2-0.6,0.5-1.2,0.8-1.7
		c-0.7-0.6-1.3-1.2-1.9-1.8c0.3-2.2,1-4.3,2.4-6.1c-0.1,0-0.2-0.1-0.3-0.2c-0.5-0.2-0.7-0.6-1-1C136.3,53,135.7,52.1,135.3,51.2z
		 M140.3,71.8c-1.4-0.5-2.6-1.4-4-1.9C136.5,70.8,139.1,72.1,140.3,71.8z M151.8,79.8c-0.8-0.1-1.5-0.2-2.3-0.3c-0.1,0-0.3,0-0.4,0
		c-0.3,0.4-0.1,0.8-0.1,1.2c0,0.3,0.1,0.4,0.4,0.4c0.5,0,0.9,0.2,1.4,0.2c0.4,0,0.9,0.1,1.3-0.2c0-0.3,0.1-0.6,0.1-0.9
		C152.2,79.9,152.1,79.8,151.8,79.8z M156.1,73.9c-0.3-0.1-0.4-0.3-0.7-0.9c-0.8,0.1-1.5,0.3-2.3,0.4c-0.8,0.1-1.5,0.2-2.4,0.4
		c0.2,0.2,0.4,0.3,0.5,0.4c0.2,0.1,0.4,0.2,0.6,0.2c0.9,0.1,1.7,0,2.6-0.2C154.8,74.2,155.6,74,156.1,73.9z M157.6,49.6
		c-0.2,0.1-0.4,0.1-0.6,0.2c-0.3,0-0.6,0.1-0.8,0.1c-0.7,0-1.3,0.2-1.9,0.2c-1.6,0.1-3.2,0.1-4.8,0.1c-1.1,0-2.2,0-3.3,0
		c-1.2,0-5.5-0.3-6.5-0.4c-0.7-0.1-1.4-0.2-2.1-0.4c-0.3-0.1-0.7-0.1-1.1-0.2c0.2,0.5,0.3,1,0.6,1.3c0.6,1,1.3,1.9,2,2.8
		c0.1,0.1,0.3,0.3,0.5,0.3c0.6,0.3,1.2,0.5,1.8,0.7c1.2,0.4,2.3,0.8,3.5,1.2c0.9,0.3,1.8,0.5,2.8,0.7c0.8,0.2,1.6,0.3,2.5,0.5
		c0.8,0.1,1.6,0.2,2.4,0.3c0.4,0,0.8,0.1,1.1,0.1c0.8,0,1.7,0,2.5,0c0.3,0,0.6,0,0.9,0c0.5,0.1,0.9,0.2,1.4,0.2c0,0,0,0.1,0,0.1
		c0,0-0.1,0.1-0.2,0.1c-0.5,0.1-1.1,0.2-1.6,0.4c-1,0.3-2.1,0.3-3.1,0.3c-1.5,0-6.3-0.5-7.3-0.7c-1.1-0.2-2.2-0.5-3.2-0.9
		c-0.7-0.2-1.4-0.5-2.1-0.7c-0.4-0.1-0.8-0.3-1.2-0.5c-0.9,0.6-1.3,1.9-2,4.4c-0.1,0.3-0.1,0.6,0,0.8c0.7-0.1,1.3-0.3,2-0.4
		c1-0.2,2-0.3,3.1-0.3l-3.3,1.2c-0.4,0-0.8,0.2-1.3,0.3c0.5,0.4,1.2,0.4,1.4,1c-0.1,0.2-0.6,0.7-0.7,0.9c-0.2,0.6-0.5,1.1-0.8,1.7
		c-0.4,1-0.8,2.1-1.1,3.1c-0.1,0.3-0.2,0.7-0.3,1c0.4,0.1,0.7,0.2,0.9,0.3c0.3,0.1,0.5,0.2,0.8,0.4c0.6,0.4,1.2,0.6,1.7,1.1
		c0.1,0.1,0.3,0.2,0.5,0.3c0.1-0.2,0.2-0.3,0.2-0.5c0.2-0.4,0.5-0.9,0.7-1.3c0.3-0.6,1.3-2.9,1.6-3.4c0.2-0.4,0.4-0.7,0.5-1.2
		c0.1-0.3,2.8,1.7,3,1.8c0.3,0.2,0.3,0.4,0.3,0.7c0,0.8,0.1,1.6,0.1,2.4c0,0.7,0.1,1.3,0.1,2c0,0.6,0,1.2,0,1.8c0,0.8,0,1.5,0.1,2.3
		c0,1,0,0.7,0,1.7c0.7,0.4,1.4,0.4,2.1,0.6c1,0.2,1.9,0.3,2.9,0.5c0.5,0.1,0.9,0.2,1.5,0.3c0.1-1.5,0.1-1.6,0.1-3.1
		c-1.3,0.2-2.4-0.1-3.4-1.1c-0.6,0.1-0.9-0.3-1.2-0.8c-0.4-0.8-0.6-1.6-0.6-2.5c0-1.1-0.1-5-0.4-5.9c-0.1-0.4,1.2-0.7,1.2,0.2
		c0.5,1.2,0.5,5.2,0.5,5.9c0,0.3,0.1,0.6,0.1,0.9c0,0.2,0,0.7,0.3,0.6c0.5-0.1,1.6-0.2,2.1-0.3c1.1-0.2,1.7-0.2,2.9-0.4
		c0.1,0,0.2,0,0.3-0.1c0-0.1,0-0.3,0-0.4c-0.1-1.2-0.3-2.3-0.4-3.5c-0.1-0.6-0.1-3.2-0.1-3.8c0-0.3,0.2-0.4,0.4-0.4
		c0.2,0,0.4,0,0.6,0c0.3,0.6,0.5,1.2,0.5,1.9c0,0.5,0.1,0.9,0.1,1.4c0,0.2,0.1,0.5,0.1,0.8c0.4-0.1,0.9-0.2,1.3-0.3
		c0.4-0.1,0.7-0.3,1.1-0.4c0.5-0.1,1-0.3,1.5-0.6c0.3-0.2,0.5-0.4,0.6-0.7c0.1-0.3,0.3-0.6,0.3-0.9c0.2-0.9,0.4-1.8,0.3-2.7
		c-0.1-0.8-0.1-1.5-0.2-2.3c-0.1-0.8-0.4-1.6-1.1-2.1c-0.1-0.1-0.2-0.3-0.4-0.4c-0.3-0.3-0.4-0.6-0.5-0.9c0,0,0-0.1,0-0.1
		c0.1,0,0.1-0.9,0.2-1c0.3-0.1,0.7-0.3,1-0.4c0.3-0.1,0.6-0.2,0.8-0.3c0.5-0.3,1-0.6,1.5-0.9c1-0.5,1.7-1.3,2.3-2.1
		c0.4-0.5,0.7-1,1.1-1.6c0.1-0.2,0.2-0.5,0-0.7c-0.3,0-0.5,0-0.8,0.1c-1.3,0.3-2.6,0.3-3.8,0.2c-0.4,0-0.8-0.1-1.1-0.5
		c0.4-0.3,0.9-0.4,1.4-0.5c0.7-0.1,1.3-0.1,2-0.1c0.4,0,0.8-0.1,1.2-0.2c0.4-0.1,0.8-0.1,1.3-0.1c0-0.1,0.1-0.2,0.1-0.2
		c0-0.7,0.1-1.4,0.1-2.1c0-0.9,0-1.8,0.1-2.8c0.1-1,0.2-1.9,0.3-2.9c0.1-0.5,0.1-1.1,0.1-1.6c0.1-1,0.1-2,0.2-3.1
		c0-0.1-0.1-3.2-0.1-3.3l-0.3-3c0.1-0.4-0.6-1.6-0.9-1.8c-0.5-0.3-3.3-3-3.4-3.4c-0.8,0-1.5,0-2.3,0c-0.4,0-6-0.1-6.1-0.1
		c-0.7,0-1.3,0-2,0c-0.3,0-0.6,0.1-0.9,0c-0.6,0-1.2-0.1-1.9-0.1c-0.3,0-0.6,0-0.9,0c0.1,0.2-0.8,1.2-1.1,1.4
		c-0.7,0.7-1.9,1.8-2.6,2.5c-1,0.9-2.9,3-3.5,3.5c-0.7,0.6-1.3,1.1-2,1.7l-0.1,0.1l0,0c-0.5-0.1-1-0.2-1.5-0.3c0,0.1,0,0.1-0.1,0.2
		c0.1,0.1,0.2,0.1,0.4,0.2c0.1,0,0.2,0.1,0.2,0.2c0,0.2,0.1,0.2,0.3,0.3c-0.2,0.2-0.5,0.3-0.7,0.5c-0.4,0.3-0.5,0.7-0.5,1.2
		c0,0.3,0,0.6,0,0.9c-0.1,0.8-0.2,1.6-0.2,2.5c0,0.8-0.1,1.5-0.3,2.3c-0.1,0.9-0.3,1.9-0.3,2.8c-0.1,1.1,0,2.2,0,3.4
		c0,0.1,0,0.2,0.1,0.3c0.6,0,2,0.1,2.2,0.1c0.8,0.1,1.7,0.2,2.5,0.3c0.7,0.1,1.3,0.1,2,0.1c0.9,0.1,1.8,0.1,2.8,0.2
		c0.7,0,8.5,0.5,8.8,0.5c0.8,0,1.5,0.1,2.3,0.1c0.1,0,0.2,0,0.3,0.1C157.6,49.5,157.6,49.6,157.6,49.6z M140,35l6.6,0
		c-0.4-0.1-4.1-0.6-4.5-0.6c-0.3,0-0.5,0-0.8-0.1c-0.2-0.1-0.4-0.1-0.5-0.1c-0.5,0.1-1-0.1-1.4-0.2c-0.2,0.2-0.4,0.3-0.7,0.5
		c0.1,0,0.1,0.1,0.2,0.1C139.2,34.7,139.6,34.9,140,35z M172.8,17c-0.9,0.7-1.7,1.6-2.4,2.4c-0.2,0.2-0.4,0.4-0.6,0.6
		c-0.4,0.5-0.8,0.9-1.2,1.4c-0.5,0.5-1,1-1.4,1.5c-0.1,0.2-0.3,0.3-0.4,0.5l0.1,0.1c0.3-0.1,0.5-0.2,0.7-0.4
		c0.4-0.4,0.8-0.7,1.2-1.1c0.1-0.1,0.1-0.2,0.2-0.2c0.4,0,0.6-0.4,0.8-0.6c0.1-0.1,0.2-0.3,0.4-0.4c0.7-0.7,1.5-1.5,2.2-2.2
		c0.2-0.2,0.3-0.5,0.5-0.8c0.2-0.3,0.5-0.6,0.7-0.9c0.2-0.3,0.5-0.6,0.6-1.1c-0.2,0.1-0.3,0.1-0.3,0.2
		C173.5,16.3,173.1,16.7,172.8,17z M211.5,182.4c1,0.5,2.1,0.8,3.3,1c0.5,0.1,0.9,0.2,1.3,0.4c0.2,0.1,0.5,0.2,0.8,0.3
		c0.7,0.3,1.4,0.5,1.4,1.5c0,0.1,0,0.2,0.1,0.3c0,0.3,0.1,0.5,0.1,0.8c0,0.5,0.1,1,0.3,1.5c0.1,0.4,0.2,0.8,0.4,1.1
		c0.1,0.5,0.3,0.9,0.4,1.4c0,0.1,0.2,0.2,0.2,0.3c0.4-0.1,0.5-0.3,0.6-0.6c0.2-0.5,0.4-1.1,0.1-1.7c0-0.1,0-0.1,0-0.2
		c0-0.6,0.1-1.2,0.1-1.8c0-0.5,0-1,0-1.4c0-0.4-0.3-0.8-0.6-1.1c-0.3-0.2-0.6-0.4-0.9-0.6c-0.9-0.7-2.1-1.1-3.1-1.6
		c0,0-3.4-0.6-4.3-1.5c-0.9-0.9-2.2-2.1-2.2-2.7c0-0.6,0-2.4,0-2.4l-1.8-0.2c0,0-0.9,1.7,0.2,3.8c1,2.1,3.4,3.1,3.4,3.1L211.5,182.4
		z M219.2,192.4c-0.3,0.6-0.8,0.9-1.5,1c-1.1,0.2-2.1,0.4-3.2,0.5c0,0-0.1,0.1-0.1,0.2c-0.1,0.5-0.1,1.1-0.2,1.6
		c0,0.2-0.1,0.3-0.1,0.5c0,0.2-0.1,0.3-0.1,0.5c0,0.7-0.2,1.2-0.7,1.6c-0.4,0.3-0.7,0.6-1.1,1c-0.4,0.1-0.8,0.2-1.3,0.3
		c-0.3,0.1-0.6,0-0.9-0.3c-0.6-0.4-0.9-1-0.9-1.7c-0.1-0.7-0.2-1.4-0.6-2c-0.1-0.1-0.1-0.3-0.1-0.5c-0.1,0-0.2,0-0.4,0
		c-2.1,0.4-4.2,0.9-6.3,1.3c-0.9,0.2-1.8,0.2-2.7,0.4c-1.1,0.2-2.2,0.3-3.3,0.5l0.6-1.7c0.5-0.1,1-0.2,1.5-0.3
		c0.5-0.1,1-0.1,1.6-0.2c1.1-0.2,2.2-0.4,3.4-0.5c1.3-0.1,2.6-0.6,4-0.7c0.6-0.1,1.2-0.3,1.8-0.4c1-0.2,2-0.4,3-0.5
		c0.7-0.1,1.4-0.3,2.1-0.5c0.4-0.1,0.7-0.2,1.1-0.2c1-0.1,2-0.4,3-0.4c0.3,0,0.6-0.1,0.9-0.2c0.2,0,0.3-0.1,0.5-0.1
		C219.3,191.7,219.4,192,219.2,192.4z M213,194.2c-0.4,0.1-0.8,0.2-1.2,0.3c-0.4,0.1-0.8,0.2-1.2,0.2c-0.4,0.1-0.8,0.1-1.2,0.2
		c0.2,0.5,0.5,0.9,0.6,1.3c0.2,0.4,0.3,0.9,0.4,1.4c0.1,0,0.1,0.1,0.2,0.1c0.5,0,1.1-0.2,1.6-0.4c0.1-0.1,0.3-0.3,0.3-0.4
		c0.2-0.5,0.3-1,0.4-1.5C213,195,213.1,194.6,213,194.2z M323.8,156.8c-0.8-0.3-1.6-0.5-2.5-0.6c-1.7-0.2-3.4-0.2-5-0.3
		c-2.8-0.1-5.6,0-8.4,0.3c-1.5,0.2-3.1,0.2-4.6,0.5c-4.1,0.7-8.1,1.4-12.2,2.2c-2,0.4-3.9,0.8-5.9,1.2c-2,0.4-4,0.6-6,1.2
		c-1,0.3-2,0.5-3,0.6c-2.2,0.3-4.3,1-6.4,1.8c-1.5,0.6-2.8,1.6-4.2,2.4c-0.1,0.1-0.2,0.3-0.4,0.4c0.2,0,0.3,0.1,0.3,0.1
		c0.8-0.4,1.5-0.7,2.3-1.1c0.2-0.1,0.4-0.3,0.7-0.3c0.9-0.3,1.9-0.5,2.7-0.9c1.3-0.6,2.8-0.8,4.2-1.1c0.5-0.1,1.1-0.1,1.6-0.2
		c4-0.8,8-1.6,12-2.4c3-0.6,6-1.1,9-1.7c1.2-0.2,2.4-0.4,3.6-0.7c0.3,1,0.6,1.9,1,2.7c0.7,1.7,1.9,3.2,3,4.6
		c0.6,0.8,1.2,1.5,1.9,2.2c1.3,1.3,2.7,2.5,4,3.7c3,2.7,4.9,5.9,5.7,9.9c0.2,1.3,0.2,2.4-0.9,3.3c0,0,0,0.1,0,0.2
		c0.7,0.3,1,0.2,1.3-0.5c0.5-1,0.7-2.2,0.9-3.3c0.2-1.2,0.1-2.3-0.5-3.4c-0.6-1.1-1.2-2.2-1.8-3.3c-1.3-2-3.1-3.5-4.8-5.1
		c-1.4-1.3-3-2.5-4.1-4.1c-0.4-0.5-0.9-1-1.2-1.5c-0.8-1.1-1.6-2.2-2.3-3.4c-0.4-0.7-0.7-1.5-0.5-2.3c5.9-0.9,11.8-1.1,17.8-0.5
		c-1.8,2.8-3.7,5.4-5,8.4c0.6,0,0.7-0.3,0.9-0.6c1.6-2.4,3.1-4.8,4.7-7.2c0.1-0.2,0.2-0.3,0.3-0.5c0.9,0.2,1.8,0.3,2.7,0.5
		C324.6,157.4,324.4,157,323.8,156.8z M323.1,151.9c-0.8-0.1-1.6-0.2-2.4-0.1c-1.5,0-2.9,0.1-4.4,0.2c-2.9,0.2-5.9,0.4-8.8,0.7
		c-1.7,0.2-3.5,0.4-5.2,0.6c-2.2,0.3-4.3,0.6-6.5,0.9c-2,0.3-4.1,0.7-6.1,1c-2.2,0.4-4.4,0.7-6.6,1.2c-2,0.4-3.9,1-5.9,1.5
		c-2.1,0.5-4.1,1.2-6.1,1.9c-1.5,0.5-2.9,1.1-4.4,1.6c-0.9,0.3-1.7,0.6-2.5,1.2c-0.3,0.2-0.5,0.4-0.4,0.9c0.1,0,0.3,0,0.4,0
		c1.9-0.6,3.9-1.2,5.8-2c3.1-1.2,6.2-2.1,9.4-2.9c3.7-0.9,7.4-1.7,11.2-2.1c3-0.4,6.1-1,9.1-1.4c4.9-0.7,9.8-1.3,14.7-1.5
		c2.6-0.1,5.2-0.3,7.8-0.5c0.7,0,1.3-0.1,2.2-0.2C323.7,152,323.7,151.9,323.1,151.9z M330.1,176.5c0,2.2,0,5.4,0.1,4.6
		s0.7-3.3,0.9-5.8c0.1-2.5-0.1-3-0.4-5.5c0-2-0.2-4-0.1-6c0-0.4-0.1-0.8-0.2-1.1c-0.7-2-1.8-3.7-3.7-4.8c-0.3-0.2-0.7-0.5-1.2-0.4
		c0.5,1.1,1.5,1.7,2.1,2.6c0.6,0.9,1.2,1.8,1.5,2.8c-0.2,0.3-0.5,0.4-0.6,0.6c-2.5,3.3-4.7,6.7-7,10.1c-0.1,0.1,0,0.2,0,0.4
		c0.5,0,0.7-0.4,0.9-0.7c1.3-1.8,2.6-3.5,3.9-5.3c1.1-1.5,2-3,3.1-4.6c0.3,0.3,0.3,0.8,0.3,1.2c0,0.8,0,1.7-0.1,2.5
		C329.6,167.3,330.1,174.2,330.1,176.5z M256.6,193.9c-0.2-0.6-0.3-1.3-0.5-1.9c-0.2-0.8-0.4-1.6-0.4-2.4c-0.1-1.6-0.1-3.2-0.1-4.9
		c0-1.6,0.7-6.9,0.9-7.6c0.2-0.9,0.5-1.8,0.9-2.7c1-2.1,2.2-4,3.9-5.5c0.3-0.3,0.4-0.6,0-1c-0.3,0.2-0.6,0.3-0.8,0.5
		c-0.7,0.8-1.8,1.4-2.5,2.2c-1.3,1.7-2.5,4.6-2.9,6.8c-0.1,0.6-0.6,3.4-0.7,5.6c-0.2,2-0.3,7.8,0.4,9.7c0.3,0.9,1.9,4.2,2.3,4.6
		L256.6,193.9z M274.5,167.2c-1.6,2.4-3.1,4.8-4.6,7.3c-1.1,1.8-2.2,3.6-3.2,5.4c-1.7,3.2-3.3,6.5-4.6,9.8c-0.2,0.6-0.4,1.4-0.4,1.9
		c0.3-0.4,0.5-0.7,0.7-1.1c1-1.9,2.1-3.9,3.1-5.9c1-2,2.1-3.9,3.2-5.8c1.6-2.8,3.4-5.5,5.1-8.3c0.6-1,1.1-2,1.6-3
		c0.2-0.4,0.3-0.8-0.1-1.3C275,166.6,274.7,166.9,274.5,167.2z M264.6,190.8c0.3-0.5,0.5-0.8,0.7-1.2c0.4-0.8,0.8-1.7,1.3-2.5
		c1.4-2.5,2.7-4.9,4.1-7.3c1-1.6,2-3.2,3-4.9c0.8-1.3,1.5-2.5,2.2-3.8c0.3-0.5,0.5-1.1,0.4-1.8C273.7,171.4,264.7,188,264.6,190.8z
		 M286.2,166c-1.1,1.9-2.2,3.7-3.2,5.6c-1,1.9-2.1,3.8-2.7,5.8c0.3-0.2,0.5-0.5,0.7-0.7c0.6-0.9,1.1-1.8,1.6-2.7
		c0.8-1.3,1.7-2.6,2.4-3.9c1.5-2.5,2.9-5.1,4.4-7.6c0.3-0.5,0.7-1,0.5-1.8C288.4,162.3,287.3,164.2,286.2,166z M283.1,176.2
		c0.1-0.1,0.3-0.3,0.4-0.4c0.7-1,1.4-2,2.1-3c1.4-2.1,2.9-4.2,4.3-6.4c0.9-1.4,1.8-2.8,2.7-4.3c0.1-0.1,0.1-0.3,0.1-0.5
		c-0.4,0.1-0.6,0.3-0.8,0.5c-1.3,1.7-2.6,3.3-3.8,5c-1.8,2.6-3.5,5.3-5,8.1c-0.1,0.3-0.2,0.6-0.3,0.9
		C283,176.1,283,176.2,283.1,176.2z M328,169.1c-2.1,2.6-4.1,5.1-6.2,7.7c-0.6,0.7-1.1,1.5-1.6,2.2c-0.1,0.1-0.1,0.3-0.2,0.6
		c0.3-0.2,0.5-0.2,0.6-0.3c0.4-0.4,0.9-0.9,1.3-1.4c1.4-1.7,2.7-3.3,4.1-5c0.5-0.6,1-1.1,1.4-1.8c0.4-0.7,0.9-1.3,0.9-2.2
		C328.2,169,328.1,169.1,328,169.1z M318,167.6c0.4-0.3,0.8-0.4,1-0.7c1-1.3,2-2.6,3-3.9c0.5-0.7,0.9-1.4,1-2.4
		C322.3,161,318.4,166.6,318,167.6z M242.3,185c-0.2-0.7-0.4-1.3-0.6-2c-0.2-0.6-0.4-1.3-0.5-1.9c-0.1-0.7-0.2-1.3-0.3-2
		c-0.6,0.4-0.6,0.9-0.5,1.3c0.2,1.5,0.6,2.9,1.3,4.3c0.1,0.2,0.2,0.3,0.3,0.4C242.2,185.1,242.3,185.1,242.3,185z M242.5,182.1
		c0.3,1.6,1.3,3.7,1.9,4.2c-0.2-1.7-1-3.1-1.3-4.6c-0.1-0.4-0.2-0.7-0.4-1.2C242.2,181.2,242.4,181.7,242.5,182.1z M242.1,161.7
		c0.3-0.8,0.7-1.4,1.3-1.9c0.2-0.2,0.4-0.4,0.3-0.8c-1.4,0.7-2.1,1.8-2,3.4C241.7,162.2,242,161.9,242.1,161.7z M240.2,161.9
		c0.5-0.6,1.2-1.2,1.5-2.2C240.9,160.3,240.4,161,240.2,161.9z M295.4,146.6c0.9-1.3,1.4-1.6,2.3-2.9c0.4-0.5,1-1,1.4-1.5
		c1.1-1.4,2.7-1.8,4.4-1.8c1,0,2.1,0.1,3,0.5c0.9,0.3,1.7,0.6,2.5,1c1.9,1,3.9,1.8,5.7,3c1,0.6,1.7,0.5,2.7,1.1
		c2.4,1.5,3.1,1.7,5.6,3.2c2,1.2,7.9,5.5,8.2,5.8c1.6,1.4,2.6,3.1,3.3,5.1c0.3,1,0.4,2,0.4,3c-0.1,2.6-0.4,5.1-0.9,7.6
		c-0.3,1.3-0.5,2.6-0.7,3.9c-0.3,1.9-0.5,3.9-0.8,5.8c-0.1,0.7-0.2,1.7-0.8,2.3c-0.5,0.5-0.7,0.7-1.1,1.3c-1,1.3-2.6,2.3-4,3
		c-2,1-4.1,2-6.3,2.7c-1.3,0.5-2.7,0.7-4,1c-0.3,0.1-0.7,0.2-1,0.2c-0.4,0-3.1,0.2-5.6,0.1c-2.1-0.2-2.9-0.2-4-0.9
		c-0.5-0.3-0.9-0.6-1.3-1c-0.6-0.5-1.3-1.1-1.7-1.7c-1.2-1.5-2-3.2-2.8-5c-0.4-1-1-1.9-1.6-2.8c-0.3-0.5-0.9-0.8-1.5-0.9
		c-0.2,0-0.5-0.1-0.7-0.1c-0.1-0.3,0.1-0.4,0.3-0.5c1.3-0.2,2.5,0.2,3.3,1.5c0.8,1.2,1.5,2.5,2.2,3.8c0.7,1.4,1.6,2.7,2.5,4
		c0.6,0.9,1.5,1.3,2.5,1.6c1.8,0.6,3.7,0.7,5.6,0.6c0.4,0,0.7-0.2,1.1-0.3c2-0.5,4-0.9,5.9-1.6c2.1-0.7,4.2-1.7,6.2-2.6
		c0.6-0.2,1.1-0.5,1.7-0.8c1-0.6,1.8-1.4,2.4-2.2c0.5-0.7,0.8-1.6,0.9-2.5c0.3-1.7,0.5-3.5,0.8-5.2c0.3-2.1,0.7-4.2,0.9-6.3
		c0.3-2.5,0.6-5,0.3-7.6c-0.1-1-0.5-1.8-1-2.6c-1.3-2-2.9-3.7-5-5c-3.2-1.8-6.4-3.7-9.6-5.6c-1.5-0.9-1.8-0.6-3.2-1.5
		c-1.7-1.2-2.7-1.3-4.6-2.1c-1-0.4-1.9-0.9-2.9-1.3c-1.4-0.6-2.8-0.7-4.3-0.8c-0.3,0-0.7,0.3-1,0.4c-1.1,0.4-4.5,4-4.9,5.5
		c-0.8,3.1-0.4,3.7-0.1,4.5c0.3,0.7,1.5,2.5,1.5,2.5s0,1.5-1.5,0.3c-1.5-1.2-1.4-2.7-1.4-4.2L295.4,146.6z M233.3,177
		c-0.5-1.3-0.8-6.2-1-7.9s0.7-7.8,0.7-7.8c0.1-0.2,0.2-0.4,0.3-0.6c0.4-1.6,1-3,2.1-4.1c0.3-0.3,0.7-0.6,1.1-0.8
		c0.6-0.2,1-0.6,1.7-0.8c2.5-0.7,5-0.8,7.5-1.1c1.9-0.2,11.8,3.7,13,5.1c1.2,1.3,3.4,3.6,2.8,3.4c-0.6-0.1-3.4-2.2-4.2-2.8
		c-0.7-0.6-7.8-3.9-9.7-4s-3.6-0.4-3.6-0.4c-4.2,0.1-7.6,2.3-8,2.8c-0.7,0.9-1.3,1.9-1.6,3c-0.2,0.9-0.3,1.8-0.4,2.8
		c0,0.4,0,0.8-0.1,1.3c-0.2,1.4,0,9.1,0,9.1c0.2,0.7,0.3,1.3,0.5,1.9c0.7,1.9,1.4,3.8,2.2,5.7c0.5,1.1,1.2,2.1,2,3
		c1.1,1.4,2.3,2.5,3.7,3.6c3.1,2.5,6.2,5.1,9.4,7.5c1.3,1,2.7,1.9,4.2,2.4c0.1,0.1,0.3,0.1,0.4,0.1c0.1-0.1,0.1-0.2,0.1-0.2
		c-0.5-0.8-1.1-1.6-1.5-2.5c-0.6-1.2-1.1-2.4-1.6-3.6c-0.2-0.6-0.1-1.3-0.2-1.9c-0.3-2.3-0.4-4.6-0.2-6.9c0.2-1.9,0.3-3.7,0.5-5.6
		c0.2-1.5,0.5-3,0.9-4.5c0.3-1.1,0.9-2.1,1.4-3.2c0.8-1.6,2-2.7,3.1-4c0.8-0.9,1.8-1.5,2.8-2.1c0.1-0.1,0.2-0.1,0.4-0.1
		c-0.2,0.6-0.4,1-0.8,1.4c-2,1.6-3.4,3.7-4.7,5.9c-0.4,0.7-0.6,1.6-0.9,2.5c-0.2,0.7-0.4,1.4-0.5,2.1c-0.1,1.1-0.2,2.2-0.3,3.3
		c-0.1,0.9-0.2,1.9-0.3,2.8c-0.1,1.4-0.2,2.8-0.3,4.2c-0.5,8,4.4,13.1,4.6,13.6c1.1,0.3,2,0.6,2.9,0.8c2,0.5,4,0.5,6,0.4
		c2.1-0.1,4.3-0.4,6.4-0.7c1.2-0.2,2.4-0.5,3.5-0.9c0.5-0.2,1-0.6,1.4-1c0.9-0.9,1.8-1.9,2.6-2.9c1.6-2,3.2-3.9,4.7-6
		c1-1.3,1.9-2.7,2.6-4.2c0.8-1.8,2-3.4,3.3-4.9c0.7-0.8,2-1.6,2.8-1.7c0.3,0.4,0.1,0.7-0.3,1c-0.4,0.3-0.8,0.6-1.2,0.9
		c-1.2,1-2.1,2.3-2.9,3.7c-0.5,0.9-1,1.9-1.4,2.9c-0.5,1.3-1.5,2.4-2.3,3.5c-0.9,1.3-1.9,2.6-2.9,3.9c-1.2,1.5-2.4,3-3.7,4.4
		c-0.6,0.8-1.5,1.2-2.4,1.5c-2.6,1.1-5.3,1.6-8,1.8c-3,0.2-6,0.1-9-0.5c-0.5-0.1-1-0.1-1.5-0.1c-0.9-0.1-1.7-0.2-2.3-0.9
		c-0.1-0.1-0.3-0.2-0.5-0.3c-2.7-0.8-5.1-2.2-7.3-4c-3.2-2.6-6.4-5.3-9.6-8c-1.6-1.4-2.9-3-4-4.9c-0.8-1.4-1.4-2.9-2-4.5
		C234.3,178.9,233.9,178.3,233.3,177z M296.2,184.4c-0.6,2.5,1.9,3.7,4,3.1c1-0.3,0.1-3,0.1-4.6s-1.8-2.7-2.9-4.4
		C297.5,178.5,296.8,181.9,296.2,184.4z M288.5,188c-0.3,0.9,0.6,1.6,2.5,1.9c0.7,0.1,0.6-0.9,1.2-2.7c0.6-1.8,0.1-4-0.1-5.5
		C292.1,181.7,288.8,187.1,288.5,188z M298.2,143.1c-5.5-1.6-17.5-5.8-20.1-5.8s-11.2-1.7-12.9,0c-1.6,1.7-1.3,3-1.5,4.9
		s1,2.5,1.6,1.9c0.6-0.7,0.3-3.9,1.2-4.6c0.9-0.7,11.5,0,13.3,1.7c1.8,1.7,16,6.4,16,6.4L298.2,143.1z M234.5,160.9
		c-5.8-1.6-11.5-4.2-14.5-5.1c-3-0.9-3-0.9-3-0.9s2.4,2.8,2.2,4.2s-0.9,2.4,0.1,2.7s4.5,1.2,5.5,1.8c1.2,0.7,7.3,2.7,7.8,2.5
		C233.2,166,234.5,160.9,234.5,160.9z M229.5,119.7c0,0.2,0,0.3,0,0.5c0,0.4,0,0.8-0.1,1.2c0,0.3-0.1,0.6-0.1,0.8
		c0,0.1-0.1,0.3-0.1,0.4c0,0.1,0,0.2,0,0.3c0,0.8-0.2,1.5-0.8,2.2c-0.6,0.8-1.2,1.4-2,1.9c-0.3,0.2-0.5,0.4-0.8,0.6
		c-0.1,0.1-0.2,0.2-0.3,0.3l0,0c0,0-0.1,0-0.1,0.1c-0.3,0.5-0.7,0.8-1.1,1.1l-0.2,0.2c-0.2,0.1-0.3,0.3-0.5,0.5l-0.2,0.2
		c0,0-0.1,0.1-0.1,0.2c0,0-0.1,0.1-0.1,0.1c-0.3,0.3-0.7,0.6-1.4,0.7c-0.5,0-1.1,0.1-1.6,0.2l-0.3,0c-0.2,0-0.3,0.1-0.5,0.1
		c-0.6,0.2-1,0.5-1.5,0.8c-0.1,0.1-0.3,0.2-0.4,0.3c-0.2,0.1-0.4,0.2-0.6,0.3c-0.2,0.1-0.3,0.2-0.5,0.3c-0.1,0.1-0.3,0.2-0.4,0.3
		c-0.1,0-0.1,0.1-0.2,0.1c-0.7,0.5-1.4,0.8-2.4,1.1c-0.1,0-0.2,0.1-0.3,0.1c-0.2,0-0.3,0.1-0.5,0.1c-0.2,0-0.4,0.1-0.6,0.1
		c-0.1,0-0.2,0-0.4,0.1l0,0c-0.1,0-0.2,0.1-0.3,0.1c-0.3,0.1-0.6,0.3-1,0.4l-0.2,0.1c-0.5,0.2-1,0.2-1.4-0.1l-0.2-0.1
		c-0.2-0.1-0.4-0.2-0.6-0.4c-0.1-0.1-0.3-0.1-0.5,0c-0.1,0-0.1,0.1-0.1,0.1c-0.3,1-1,1.6-2.1,2c-1.1,0.4-1.9,0.6-2.8,0.7
		c-0.3,0.1-0.7,0.2-1,0.3c-0.2,0.1-0.4,0.1-0.6,0.2c-0.4,0.1-0.7,0.2-1.1,0.3l-0.4,0.1c0,0-0.1,0-0.1,0c-0.1,0-0.1,0-0.2,0
		c-0.4,0.1-0.7,0-1-0.3c-0.4-0.4-0.7-0.6-1.2-0.6c-0.3,0-0.5-0.1-0.8-0.1l-0.1,0c-0.2-0.1-0.5-0.1-0.8,0l-0.1,0
		c-0.6,0-1,0.4-1.5,0.9c-0.3,0.3-0.5,0.5-0.8,0.8l-0.1,0.1c-0.3,0.3-0.6,0.2-0.9,0.2c-0.8-0.1-1.6-0.1-2.3-0.2c0,0-0.1,0-0.2,0
		c0,0-0.1,0-0.1,0l-0.2,0.1c-0.2,0-0.4,0.1-0.5,0.1c-0.5,0.1-0.6,0-0.8-0.3l0,0c-0.5,0.4-1,0.5-1.6,0.4c-0.5-0.2-1.1-0.2-1.7,0
		c-0.6,0.1-1.1,0.1-1.7-0.1c-0.3-0.1-0.5-0.3-0.7-0.6c-0.1-0.2-0.3-0.5-0.5-0.7l-0.1-0.2c-0.1,0-0.1,0-0.2,0c-0.6,0.1-1.2,0.1-1.9,0
		c-0.1,0-0.2,0-0.2,0c0,0-0.1,0.1-0.1,0.1l-0.1,0.1c-0.3,0.5-0.7,1-1,1.5l-0.1,0.1c-0.1,0.2-0.4,0.2-0.5,0.2c-0.3,0-0.6,0-0.9,0
		c-0.3,0-0.6,0-1,0c-0.5,0-1.1,0-1.5,0.1c-0.1,0-0.4,0-0.6-0.2c0,0,0,0,0-0.1c-0.3,0.3-0.6,0.3-0.9,0.3c-0.1,0-0.2,0-0.4,0
		c-0.4-0.1-0.8-0.1-1.3-0.1c-0.6,0-1.1-0.2-1.6-0.4l-0.1-0.1c-0.1,0-0.2-0.1-0.2-0.1c-0.3-0.1-0.6-0.4-0.6-0.8
		c0-0.1-0.1-0.2-0.2-0.3l0-0.1c0-0.1-0.1-0.1-0.2-0.1c-0.5,0.1-1.1,0-1.6-0.4c-0.3-0.2-0.3-0.2-0.7,0c-0.1,0.1-0.1,0.1-0.2,0.2
		c-0.1,0.1-0.2,0.2-0.3,0.3c-0.2,0.2-0.5,0.3-0.7,0.4l-0.1,0.1c0,0-0.1,0-0.2,0.1c0,0-0.1,0-0.1,0c-0.6,0.5-1.3,0.5-1.9,0.4
		c-0.2,0-0.5,0-0.8,0l-0.2,0c-0.1,0-0.2,0-0.3,0c-0.1,0-0.2,0-0.3,0.1c-0.2,0-0.8,0-1-0.5c0,0,0,0,0,0c-0.4,0.5-0.6,0.6-1.2,0.4
		c-0.5-0.1-0.9-0.2-1.4-0.2c-0.2,0-0.5,0-0.7,0.1c-0.2,0-0.4,0-0.5,0c-0.1,0-0.3,0-0.4,0l-0.1,0c-0.3,0-0.5-0.1-0.7-0.4
		c-0.1-0.2-0.3-0.3-0.4-0.4c-0.2-0.2-0.4-0.4-0.5-0.7c-0.2-0.5-0.3-0.6-0.9-0.5c-0.9,0.1-1.5,0.1-2.2,0.2c-0.2,0-0.3,0.1-0.4,0.2
		c-0.2,0.3-0.5,0.7-0.8,1c-0.4,0.4-0.5,0.4-1,0.1c-0.2-0.1-0.4-0.1-0.6,0c-0.5,0.2-1,0.2-1.5,0.2c-0.2,0-0.3,0-0.5,0
		c-0.2,0-0.3-0.1-0.4-0.1c0,0,0,0,0,0c-0.4,0.3-0.9,0.3-1.3,0.3c-0.6,0-1.1,0-1.7,0.1l-0.3,0c-0.5,0-0.8-0.2-1.1-0.7
		c-0.1-0.2-0.2-0.4-0.3-0.6l-0.1-0.2c0-0.1-0.1-0.1-0.2-0.1c-0.5,0.1-0.9,0-1.5-0.1c-0.5-0.1-0.8,0-1.1,0.3
		c-0.1,0.1-0.1,0.1-0.1,0.2c-0.1,0.2-0.2,0.3-0.4,0.5c-0.2,0.1-0.3,0.3-0.5,0.5c-0.2,0.3-0.5,0.5-0.8,0.7c-0.4,0.2-0.8,0.2-1.2,0.1
		c-0.2-0.1-0.3-0.1-0.5,0c-0.3,0.1-0.5,0.1-0.8,0.1l-0.4,0c-1.2,0-2.4,0-3.6,0c-0.4,0-0.8-0.1-1.2-0.2l0,0c-0.5-0.1-0.7-0.3-0.8-0.7
		c-0.4-0.2-0.6-0.5-0.8-0.9c-0.1-0.1-0.1-0.2-0.3-0.1l-0.1,0c-0.9,0.1-1.7,0.2-2.6,0.1c-0.1,0-0.2,0-0.3,0c-0.2,0-0.4,0-0.6-0.1
		c-0.2,0-0.2,0-0.2,0.1c-0.2,0.7-0.8,0.9-1.3,1c-0.5,0.1-1.1,0.2-1.6,0.3c-0.6,0.1-1.1-0.1-1.6-0.3c-0.1,0-0.3-0.1-0.4-0.1
		c-0.3-0.1-0.5-0.2-0.8-0.3c-0.1-0.1-0.2-0.1-0.4-0.2c-0.5-0.2-0.9-0.4-1.4-0.6c-0.4-0.2-0.8-0.3-1.2-0.5c-0.5-0.2-1-0.3-1.5-0.5
		l-0.4-0.1c-0.1,0-0.2-0.1-0.3-0.1c-0.1,0-0.3-0.1-0.4-0.1c-0.5-0.2-0.9-0.6-1-1.2c-0.1-0.3-0.2-0.5-0.6-0.7
		c-0.3-0.1-0.5-0.3-0.7-0.5c-0.1-0.1-0.2-0.1-0.2-0.2c-0.3-0.2-0.5-0.4-0.7-0.7c-0.2-0.2-0.4-0.5-0.5-0.7c-0.4-0.5-0.7-0.9-1-1.5
		c-0.1-0.2-0.2-0.4-0.3-0.6c-0.3-0.7-0.7-1.4-0.9-2.1c-0.2-0.7-0.3-1.4-0.5-2c-0.1-0.3-0.1-0.6-0.2-0.8c0,0,0-0.1,0-0.1
		c0,0,0-0.1,0-0.1c-0.3-1.3-0.4-2.6-0.5-3.8l-0.1-0.8c-0.1-1-0.2-2.2-0.2-3.3l0-0.7c0-1.2,0.1-2.5,0.3-3.8c0.2-1.2,0.5-2.1,0.9-3
		c0.1-0.2,0.2-0.3,0.3-0.5c0.5-0.5,0.7-1.1,0.8-1.9c0.1-0.8,0.2-1.5,0.4-2.3c0.1-0.2,0.1-0.4,0.1-0.6l0.1-0.4
		c0.1-0.6,0.3-1.2,0.5-1.9c0.4-1.1,0.7-1.9,1.1-2.6c0.4-0.8,0.9-1.6,1.4-2.2c0.1-0.1,0.2-0.3,0.3-0.4c0.1-0.1,0.1-0.2,0.2-0.4
		c0.9-1.3,2-2.4,3.6-3.3c0.9-0.5,1.8-0.9,2.7-1.3c0.2-0.1,0.4-0.1,0.6-0.1c0.8,0.1,1.6,0.2,2.4,0.7c0.2,0.2,0.4,0.3,0.6,0.5l0.1,0.1
		c0,0,0.1,0.1,0.1,0.1c0,0,0.1,0.1,0.1,0.1c0.4,0.3,0.7,0.6,1.1,1.1c0.3,0.4,0.5,0.7,0.8,1.1c0.3,0.4,0.6,0.8,1,1.2
		c0.2,0.3,0.5,0.7,0.7,1c0.2,0.3,0.4,0.6,0.6,0.8c0.2,0.3,0.4,0.5,0.7,0.8c0.5,0.5,0.9,0.9,1.4,1.4l3.3,1.1c0.2,0,0.3,0,0.5,0
		c0.1,0,0.3,0,0.4,0c1.7,0,3.1-0.4,4.5-1c0.2-0.1,0.4-0.2,0.6-0.3c0.2-0.1,0.5-0.2,0.7-0.3c0.2-0.1,0.3-0.2,0.5-0.3
		c0.1-0.1,0.2-0.1,0.3-0.2c0.1-0.1,0.3-0.2,0.4-0.3l0.1-0.1c-0.1-0.7,0-1.4,0.2-2l0-0.1c0-0.1,0-0.2,0-0.2c0-0.1,0-0.1,0-0.2l0-0.1
		c0-0.1,0-0.3,0.1-0.4c0.1-0.2,0.1-0.4,0.2-0.6c0.1-0.2,0.2-0.5,0.2-0.7c0-0.1,0.1-0.2,0.2-0.4c0.2-0.3,0.4-0.9,0.4-1.1
		c0-0.1-0.1-0.3-0.1-0.4c0-0.1,0-0.3,0-0.4c0-0.4,0.1-0.9,0.2-1.3c0.2-0.8,0.5-1.7,1-2.5c0.4-0.7,0.8-1.3,1.5-1.9
		c0.1-0.1,0.2-0.2,0.3-0.4c0.1-0.1,0.2-0.2,0.3-0.3l0.1-0.1c0.4-0.4,0.8-0.8,1.3-1.1c0.2-0.1,0.4-0.3,0.5-0.4
		c0.2-0.1,0.4-0.3,0.6-0.4c0.5-0.3,1.1-0.4,1.7-0.5l0.2,0c0.1,0,0.2,0,0.3,0c0.3,0.1,0.5,0.2,0.6,0.4c0,0,0,0.1,0,0.1
		c0.1-0.1,0.3-0.2,0.4-0.2c0.5,0,0.9,0.1,1.4,0.4c0.4,0.2,0.9,0.4,1.3,0.6c0.2,0.1,0.5,0.2,0.7,0.3c1,0.4,2,0.9,2.9,1.6
		c0.4,0.3,0.8,0.5,1.2,0.8c0.3,0.2,0.6,0.4,0.9,0.6c0.1,0.1,0.1,0.1,0.2,0.1c0.8,0.2,1.3,0.8,1.6,1.3c0,0.1,0.1,0.1,0.1,0.2
		c0.1,0.2,0.3,0.4,0.3,0.7l0,0c0.1,0,0.2,0.1,0.3,0.2c0.1,0.1,0.2,0.1,0.4,0c0.6-0.2,1.2-0.2,1.8,0c0.1,0.1,0.2,0.1,0.4,0.2
		c0.2,0.1,0.3,0.1,0.5,0.2c0.5,0.2,1.5,1.1,1.6,1.8c0.3,0.1,0.5,0.3,0.7,0.7c0.1,0.1,0.1,0.2,0.2,0.2c0.9,0,1.7,0.3,2.6,0.7
		c0.2,0.1,0.4,0.3,0.6,0.4c0.2,0.2,0.4,0.2,0.7,0.3c1,0.1,2,0.4,3.1,1c0.4,0.2,0.7,0.5,0.8,0.9c0.1,0.3,0.3,0.4,0.7,0.6
		c0.2,0.1,0.4,0.1,0.7,0c0.1,0,0.2,0,0.3,0c0.4,0,0.9,0,1.4,0.1c0.4,0.1,0.7,0.3,1,0.5c0.4,0.3,0.8,0.4,1.3,0.3l0.1,0
		c0.2,0,0.3,0,0.5-0.1c0.5,0,0.9,0.1,1.2,0.5c0.2,0.3,0.5,0.5,0.7,0.8c0.1,0.1,0.2,0.2,0.2,0.1c1.1-0.1,2,0.3,2.8,0.8
		c0.4,0.2,0.7,0.5,1,0.8l0.1,0.1c0.2,0.1,0.3,0.2,0.5,0.2c1-0.2,2.1,0,3.2,0.5c0.5,0.3,0.9,0.6,1.1,1c0,0.1,0.1,0.1,0.1,0.2
		c0.3-0.1,0.6,0,0.8,0.1c0.5,0.2,1,0.4,1.5,0.5c0.4,0.1,0.8,0.3,1.2,0.4c0.1,0,0.2,0.1,0.3,0.1c0.1,0,0.1,0.1,0.2,0.1l0.1,0
		c0.4,0.1,0.8,0.3,1.2,0.4c0.3,0.1,0.6,0.2,0.7,0.4c0.3-0.2,0.7-0.1,0.9-0.1c0.1,0,0.3,0,0.4,0c0.1,0,0.2,0,0.2,0l0.3,0
		c0.4,0,0.8,0.1,1.2,0.1c0.1,0,0.2,0,0.3,0.1l0.1,0c0,0,0.1,0,0.1,0c0,0,0.1,0,0.1,0c0.6,0.1,1.2,0.2,1.7,0.3
		c0.4,0.1,0.8,0.2,1.2,0.2c0.2,0,0.3,0.1,0.5,0.1c0.1,0,0.2,0.1,0.3,0.1c0.3,0.1,0.7,0.1,1.1,0.2c0.4,0.1,0.7,0.1,1.1,0.2
		c1,0.2,2,0.3,2.9,0.4c0.8,0.1,1.6,0.1,2.3,0.1l0.4,0c0.6,0,1.2,0,1.8-0.1c0.3,0,0.5,0,0.8,0c0.1,0,0.1,0,0.2,0l3.7,0
		c0.1,0,0.2,0,0.3,0l0.1,0c0.1,0,0.1,0,0.2,0c0.1,0,0.3,0,0.4,0c1.2,0.1,2.6,0.3,4,0.8c0.2,0.1,0.4,0.1,0.6,0.1c0.1,0,0.2,0,0.3,0.1
		c1.1,0.3,2,0.7,2.8,1.3c0.5,0.3,0.9,0.7,1.3,1c0.2,0.1,0.3,0.3,0.4,0.5l0,0.1c0.1,0.2,0.3,0.3,0.6,0.4c0.4,0.1,0.5,0.3,0.6,0.5
		c0.4,0.7,0.7,1.4,0.8,2.2c0,0.1,0.1,0.3,0.2,0.3c0.2,0.2,0.3,0.5,0.3,0.7C229.6,116.9,229.6,118.4,229.5,119.7z M137.1,100.6
		c-0.3,0.2-0.5,0.4-0.8,0.6c-0.4,0.2-0.8,0.4-1.2,0.6c-0.6,0.4-1.2,0.6-1.8,0.8c-0.7,0.2-1.3,0.3-2,0.4c-0.6,0.1-1.3,0.1-1.9,0
		c-0.4-0.1-0.8-0.2-1.1-0.2c-0.4,0-0.9,0-1.2-0.3c-0.1-0.1-0.3-0.1-0.4,0l-0.8,0.1c0,0,0,0,0,0.1c0.1,0.1,0.2,0.2,0.3,0.3
		c0.4,0.3,0.8,0.6,1.3,0.9c0.2,0.1,0.5,0.3,0.7,0.3c0.6,0.1,1.2,0.1,1.8,0c0.8-0.1,1.5-0.2,2.2-0.4c0.5-0.1,1.1-0.3,1.6-0.4
		c0.7-0.3,1.4-0.6,2.1-0.9c0.7-0.3,1.4-0.7,2-1.2c-0.1-0.3-0.2-0.6-0.3-1C137.3,100.5,137.2,100.5,137.1,100.6z M152.8,96.2
		c0.1,0,0.2,0,0.3,0.1l0.3,0.1l-0.2,0.2c0.3-0.1,0.5-0.2,0.8-0.2l0.5-0.1c0.5-0.2,1-0.3,1.5-0.5c0.5-0.2,0.8-0.4,1-0.7l0-0.1
		c0.4-0.5,0.7-1,0.8-1.7c0-0.1,0.1-0.2,0.1-0.3c0,0,0.1-0.1,0.1-0.1l0.2-0.4l0.2,0.4c0,0.1,0.1,0.1,0.1,0.2c0.1,0.1,0.1,0.2,0.1,0.3
		c0.1,0.5-0.1,0.9-0.3,1.3c0.9,0.2,1.6,0.8,2.2,1.4c0,0,0,0,0,0c-0.4-1.1-0.9-2.2-1.6-3.5c0-0.1-0.1-0.2-0.2-0.2
		c-0.4-0.2-0.7-0.4-1.1-0.5l-0.5-0.3c-0.3-0.2-0.6-0.4-0.7-0.6c0-0.1-0.1-0.1-0.1-0.2c0,0,0,0,0,0.1c0,0.1,0,0.3,0,0.4
		c0,0.2,0,0.4,0,0.6c0,0.5-0.2,1-0.4,1.4c-0.5,0.7-1.2,1.2-2,1.5c-0.6,0.2-1.1,0.4-1.5,0.8c0,0.1,0,0.2,0,0.2c0,0.1,0,0.3,0.1,0.3
		C152.5,96.2,152.7,96.2,152.8,96.2z M169,96.9c-0.1-0.1-0.3-0.1-0.4-0.1c-0.2,0-0.4,0-0.5,0.1l0,0.1c0.1,0.2,0.2,0.4,0.3,0.6
		l0.1,0.3c0.3,0.6,0.7,1.3,0.7,2.1c0,0,0,0.1,0,0.2l1.3,0.3l-0.6-1.3l-0.3-0.7c-0.1-0.3-0.2-0.8-0.2-0.8
		C169.2,97.3,169,96.9,169,96.9z M172.2,99.5c0-0.1-0.1-0.2-0.3-0.4c-0.5-0.5-0.9-0.9-1.3-1.3c-0.2-0.2-0.4-0.3-0.7-0.4c0,0,0,0,0,0
		c0,0,0,0,0,0.1c0.1,0.2,0.2,0.4,0.3,0.6c0.2,0.3,0.3,0.6,0.5,1c0.1,0.1,0.2,0.3,0.2,0.3c0.4,0.1,0.7,0.2,1.1,0.3
		C172.1,99.5,172.2,99.5,172.2,99.5z M170,98.9c0,0.1,0.1,0.1,0.1,0.2C170,99,170,98.9,170,98.9z M170.1,99.1
		C170.1,99.1,170.1,99.2,170.1,99.1C170.1,99.2,170.1,99.1,170.1,99.1z M185.6,103.8c0.6-0.1,0.6,0.4,0.8,0.8c0.2,0.4,0.7,0.6,0.8,1
		c0.2,0.6,0.5,1.3,0.9,2c0,0,0,0,0,0c0.2,0,0.3,0,0.4,0c0.3,0,0.6,0.1,0.8-0.1l-0.1-0.2c-0.1-0.3-0.3-0.7-0.4-1c0,0,0-0.1,0-0.1
		c0-0.1-0.1-0.1-0.1-0.2c-0.2-0.6-0.6-1.2-1-1.6c-0.1-0.1-0.2-0.2-0.2-0.3c0-0.1,0-0.1-0.1-0.2l0-0.1c0-0.1-0.1-0.2-0.1-0.2
		c-0.8-0.4-1.5-0.6-2.2-0.6L185.6,103.8z M180.9,103.1c0.1,0.2,0.2,0.4,0.3,0.4c0,0,0,0.1,0.1,0.1c0.1,0,0.1,0.1,0.1,0.1
		c0,0,0,0,0,0c0,0,0.2-0.2,0.3-0.2c0.1-0.1,0-0.2,0-0.4c0-0.1,0-0.1,0-0.2c0-0.1,0-0.2,0-0.2c0-0.1,0-0.2,0-0.3c0,0,0-0.1,0-0.1
		l0.1-0.4l0.3,0.2c0.4,0.3,0.7,0.7,0.9,1.1c0.4,0.1,0.9,0.2,1.4,0.4c-0.5-0.3-0.9-0.7-1.3-1c-0.7-0.6-1.5-1-2.5-1.3c0,0-0.1,0-0.1,0
		c0,0,0,0,0,0c0,0.2,0.1,0.4,0.1,0.6c0,0.1,0.2,0.6,0.2,0.7C180.9,102.9,180.9,103,180.9,103.1z M185.5,104.6l0.1,0.1l-0.2-0.6
		c-0.1,0-0.3,0-0.4,0C185.2,104.2,185.4,104.4,185.5,104.6z M178.8,101.5c0-0.1-0.1-0.1-0.1-0.2c-0.3-0.4-0.7-0.8-1.1-1.2
		c-0.1-0.1-0.3-0.2-0.5-0.3c-0.5-0.1-1-0.2-1.5-0.3l-0.3-0.1l0,0c0.2,0.3,0.3,0.6,0.5,0.9l0,0.1c0.2,0.3,0.3,0.4,0.5,0.4
		c0,0,0,0,0,0c0.1,0,0.1,0,0.2,0l0.5,0.2c0.5,0.2,1,0.3,1.6,0.5C178.7,101.4,178.8,101.5,178.8,101.5z M143.4,86.1
		c-0.1,0.2-0.2,0.5-0.4,0.8c-0.3,0.5-0.7,1.1-1.2,1.6c-0.4,0.5-0.8,1-1.1,1.7c-0.2,0.5-0.4,1-0.6,1.5c0,0.1-0.1,0.2-0.1,0.3
		c0,0,0,0,0.1-0.1c0.4-0.4,0.7-0.8,1-1.2c0.5-0.6,0.9-1.2,1.3-1.9c0.3-0.4,0.5-0.9,0.8-1.4c0.1-0.2,0.2-0.4,0.4-0.6l0.2-0.3l0.2,0.3
		c0.2,0.3,0.2,0.5,0.1,0.8c-0.1,0.2-0.2,0.4-0.3,0.5c-0.2,0.4-0.4,0.8-0.6,1.2c-0.3,0.6-0.7,1.2-1,1.8l-0.3,0.5
		c-0.2,0.4-0.5,0.8-0.7,1.1c-0.2,0.3-0.4,0.6-0.6,1c-0.1,0.2-0.3,0.4-0.4,0.6c-0.4,0.6-0.6,1.1-0.8,1.7c-0.2,0.7-0.4,1.4-0.5,2.1
		c-0.1,0.6-0.1,1.2,0.1,1.8c0.1-0.1,0.2-0.1,0.2-0.2c0.1-0.1,0.1-0.1,0.2-0.2c0.1-0.1,0.1-0.1,0.2-0.2c0.2-0.2,0.4-0.3,0.6-0.5
		c0.6-0.5,1.2-1,1.8-1.5c0.1-0.1,0.3-0.2,0.4-0.4c0.2-0.1,0.3-0.3,0.5-0.4l0.3-0.2c0.7-0.5,1.4-1,2.1-1.4c0.7-0.4,1.4-0.7,2-1
		c0.2-0.1,0.5-0.2,0.7-0.3c0.1-0.1,0.3-0.1,0.4-0.2c0.1,0,0.2,0,0.2-0.1l0.1,0c0.1-0.1,0.3-0.1,0.4-0.2c0.9-0.5,2-1.1,3.4-0.7
		c0.3,0.1,0.6,0.1,0.9,0.2c0.4,0.1,0.7,0.2,1.1,0.3c0,0,0.1,0,0.2,0c0.6-0.4,1.2-1.1,1-2l0-0.1c-0.1-0.3-0.2-0.7-0.2-1.1
		c0-0.3-0.1-0.4-0.3-0.5c-0.2-0.1-0.4-0.3-0.6-0.4c-0.1-0.1-0.1-0.1-0.2-0.2c-0.1,0.7-0.3,1.3-0.5,2c-0.1,0.2-0.1,0.4-0.4,0.5
		l-0.2,0.1l-0.3-1c-0.1,0-0.2,0-0.4,0c-0.2-0.1-0.4-0.1-0.6-0.2c-0.6-0.2-1.3-0.4-2-0.6c-0.8-0.3-1.7-0.7-2.8-1.2l-0.2-0.1
		c-0.8-0.4-0.9-0.5-0.8-1.3l0.1-0.4c0.1-0.5,0.1-1,0.1-1.5l-0.3,0c0,0.9-0.2,1.6-0.5,2.2c-0.3,0.9-0.9,1.9-1.3,2.1l-0.4,0.2l0.1-0.6
		c0-0.1,0-0.2,0.1-0.3l0.3-1c0.2-0.6,0.4-1.3,0.6-1.9c0-0.1,0.1-0.3,0.1-0.5l-1.4,0.5C143.4,86,143.4,86,143.4,86.1z M109.1,132.7
		l-0.1,0.1l0,0l0.4,0.6l0.2,0c0,0,0,0,0,0c0,0,0,0,0,0c0,0,0.1,0,0.1,0.1l0.1,0.1c0.2,0.1,0.4,0.3,0.5,0.5c0.1,0.1,0.2,0.3,0.2,0.4
		c0,0.1,0.1,0.2,0.1,0.3c0.1,0.1,0.1,0.2,0.2,0.2c0.1,0,0.2,0.1,0.3,0.1c0.4,0.1,0.7,0.2,1,0.2c0.8,0,1.4,0.2,1.9,0.5l0.5,0.1
		c0.4,0.1,0.8,0.3,1.2,0.4c0.3,0.1,0.6,0.2,0.8,0.5c0,0,0.1,0.1,0.2,0.1l0.3,0.1c0.5,0.1,0.9,0.2,1.4,0.3c0.3,0,0.5,0,0.8,0
		c0.2,0,0.3,0,0.5,0c0.2,0,0.4-0.1,0.5-0.2c0.6-0.5,1.3-0.7,2.1-0.8c0.3,0,0.6,0,1,0c0.1,0,0.3,0,0.4,0.1c0.1,0,0.2,0,0.3,0l0.3,0
		c0.4,0,0.9,0.1,1.3,0.1c0.6,0,0.9,0.2,1.1,0.8c0.1,0.3,0.3,0.4,0.5,0.4c0.4,0,0.7,0.1,1.1,0.1c0.3,0,0.6,0.1,0.8,0.1
		c0.8,0.1,1.5,0.1,2.3,0.2c0.4,0,0.9,0,1.3,0.1l0.5,0c0,0,0,0,0,0c0.1-0.1,0.2-0.3,0.4-0.3c0.1,0,0.3-0.1,0.4-0.2
		c0.2-0.2,0.4-0.3,0.6-0.5c0.1-0.1,0.2-0.2,0.3-0.3c0.1,0,0.1-0.1,0.1-0.1c0.2-0.4,0.6-0.8,1.2-1c0.5-0.2,1.1-0.4,1.8-0.1
		c0.2,0.1,0.5,0.1,0.9,0.1c0.1,0,0.3,0,0.4,0c0.4,0,0.6,0.1,0.8,0.5c0.2,0.4,0.5,0.8,0.7,1.1l0.1,0.1c0,0,0,0,0.1,0c0.3,0,0.7,0,1,0
		l0.5,0c0.6,0,0.6,0,0.9-0.5l0.1-0.1l0.1,0c0.5-0.1,0.9,0.2,1.2,0.4c0,0,0.1,0.1,0.1,0.1c0.2,0,0.4,0,0.6,0c0.3,0,0.6,0.1,0.8-0.1
		c0.1-0.1,0.3-0.1,0.4-0.1c0.5,0.1,0.9-0.1,1.1-0.7c0-0.1,0.1-0.1,0.1-0.2c0.3-0.4,0.8-0.8,1.5-0.9l0.4,0c0.7-0.1,1.4-0.1,2.1-0.1
		c0.9,0,1.4,0.1,1.8,1c0.1,0.3,0.3,0.5,0.5,0.7l0.1,0.2c0.2,0.2,0.4,0.3,0.6,0.3l0.1,0c0.1,0,0.3,0,0.4,0c0.6-0.1,1.3-0.2,2,0.1
		c0,0,0.1,0,0.2-0.1c0.2-0.1,0.3-0.3,0.5-0.4c0.6-0.3,1.1-0.2,1.4,0.4c0,0.1,0.1,0.1,0.1,0.2c0.7-0.1,1.3-0.1,1.9,0
		c0.1,0,0.2,0,0.3,0c0,0,0.1,0,0.1,0c0.2-0.3,0.5-0.4,0.7-0.6l0.1,0c0.2-0.1,0.4-0.2,0.6-0.4c0.1-0.1,0.2-0.1,0.3-0.2
		c0.2-0.1,0.4-0.3,0.6-0.4c0.7-0.4,1.3-0.4,1.8,0c0.4,0.3,0.8,0.4,1.2,0.4c0.3,0,0.6,0.1,0.8,0.3c0,0.1,0.1,0.1,0.1,0.2
		c0.2,0.2,0.4,0.5,0.5,0.8c0.1,0.3,0.3,0.4,0.6,0.5c0.2,0.1,0.5,0.1,0.8,0.1c0.2,0,0.3,0,0.4,0c0.2,0,0.4,0,0.6,0.1
		c0.3,0.1,0.4,0,0.5-0.2c0.2-0.3,0.5-0.4,0.8-0.4c0.4,0,0.7,0.2,0.9,0.6c0,0.1,0.1,0.1,0.1,0.2l0.6,0c0.6,0,1.1-0.1,1.7-0.1
		c0.5,0,0.7-0.2,0.9-0.7c0-0.1,0-0.1,0.1-0.2c0-0.1,0.1-0.2,0.1-0.3c0.1-0.3,0.3-0.6,0.7-0.7c0.4-0.1,0.9-0.2,1.5-0.2
		c0.4,0.1,0.8,0.1,1.2,0.1c0.2,0,0.3,0,0.5,0c0.1,0,0.1,0,0.1,0c0.3-0.1,0.6-0.1,0.9,0.2l0.1,0.1c0.3,0.2,0.6,0.5,0.8,0.8
		c0.2,0.4,0.6,0.5,1,0.4c0.7-0.1,1.3-0.2,1.9-0.1c0.2,0,0.4,0,0.5,0.1l0.1,0c0.1-0.1,0.2-0.1,0.3-0.2c0.2-0.2,0.5-0.3,0.7-0.4
		c0.2-0.1,0.4-0.2,0.6-0.1c0.2,0.1,0.3,0.2,0.4,0.5c0.1,0.1,0.1,0.1,0.2,0.1c0.4-0.1,0.8-0.2,1.2-0.1c0.4,0,0.8,0.1,1.1,0.1
		c0.2,0,0.5,0,0.7,0c0.2,0,0.2,0,0.3-0.1c0.2-0.3,0.4-0.5,0.7-0.8c0.6-0.6,1.3-1,2.1-1.1l0.1,0c0.2,0,0.5-0.1,0.7,0
		c0.5,0.1,0.9,0.2,1.3,0.2c0.5-0.1,0.9,0.1,1.2,0.4c0.2,0.2,0.4,0.3,0.6,0.2c0.1,0,0.3,0,0.4,0c0.2,0,0.3,0,0.5-0.1
		c0.3-0.1,0.6-0.2,0.9-0.2c0.5-0.1,1-0.3,1.5-0.4c0.8-0.2,1.8-0.4,2.8-0.7c0.4-0.1,0.7-0.3,0.9-0.6c0.4-0.5,0.9-0.8,1.7-1.1
		c0.6-0.2,1.3-0.1,1.8,0.3c0.3,0.2,0.5,0.2,0.8,0.1l0.3-0.1c1.1-0.3,2.2-0.7,3.3-1c1-0.3,1.7-0.6,2.2-1.2c0.1-0.1,0.1-0.1,0.2-0.1
		c0,0,0.1,0,0.1-0.1c0.8-0.7,1.7-1.3,2.8-1.8c0.4-0.2,0.7-0.2,1-0.2c0.4,0,0.9,0,1.4-0.2c0.1,0,0.2,0,0.3-0.1c0.2,0,0.4-0.1,0.5-0.2
		c0.4-0.5,0.8-0.8,1.3-1.2c0.1-0.1,0.3-0.2,0.4-0.3c0.2-0.2,0.4-0.3,0.7-0.4c0.1-0.1,0.2-0.1,0.4-0.2c0.2-0.1,0.4-0.3,0.5-0.4
		l0.1-0.1l0-0.2c0-0.2,0-0.4,0-0.6l0-0.3c0-0.5,0.1-0.9-0.1-1.4c0-0.2-0.1-0.3-0.1-0.5c0-0.1,0-0.3-0.1-0.4l0-0.1
		c-0.1-0.3-0.2-0.6-0.3-0.8l-0.1,0.1c-0.2,0.2-0.4,0.3-0.6,0.5c-0.2,0.2-0.4,0.3-0.6,0.5c-0.3,0.2-0.6,0.4-0.9,0.7
		c-1.1,0.9-2.2,1.7-3.3,2.5c-0.1,0-0.1,0.1-0.2,0.1c-0.1,0.1-0.2,0.1-0.2,0.2c-0.1,0.1-0.3,0.2-0.4,0.3c-0.4,0.2-0.8,0.5-1.2,0.7
		c-0.5,0.2-1,0.5-1.6,0.7c-0.3,0.1-0.7,0.3-1,0.4l-0.3,0.2c-0.8,0.4-1.7,0.8-2.6,0.9c-0.3,0.1-0.5,0.1-0.8,0.2
		c-0.3,0.1-0.5,0.1-0.8,0.2c-0.5,0.1-1,0.2-1.5,0.3c-0.4,0.1-0.7,0.1-1.1,0.2l-0.6,0.1c-1.1,0.2-2.2,0.4-3.3,0.7
		c-0.6,0.1-1.2,0.3-1.8,0.4l-0.7,0.2c-0.2,0.1-0.5,0.1-0.7,0.2c-0.4,0.1-0.9,0.3-1.4,0.4c-0.3,0.1-0.6,0.1-0.9,0.2
		c-0.3,0-0.5,0.1-0.8,0.1c-0.1,0-0.3,0.1-0.4,0.1c-0.4,0.1-0.8,0.2-1.2,0.2c0,0-0.1,0-0.1,0c-0.2,0.3-0.4,0.3-0.6,0.4l-0.1,0
		c-1,0.3-2,0.4-3.1,0.4c-0.4,0-0.8,0-1.2-0.1c-0.8,0-1.6-0.1-2.3,0c-0.1,0-0.1,0-0.2,0l-0.5,0c-0.9-0.1-1.8-0.1-2.8-0.1
		c-0.4,0-0.8,0-1.1-0.1c-0.2,0-0.4-0.1-0.7-0.1c-0.3,0-0.6,0-0.8,0c-0.4,0-0.8,0-1.2-0.1c-0.3,0-0.5-0.1-0.8-0.1
		c-0.6-0.1-1.3-0.1-1.9-0.1c-0.6,0-1.1-0.1-1.6-0.1c-0.6-0.1-1.3-0.1-1.9-0.1c-0.6,0-1.2,0-1.7-0.1c-0.3,0-0.7,0-1-0.1
		c-0.6,0-1.2,0-1.8,0c-0.5,0-1,0-1.5,0c-0.4,0-0.8,0-1.2,0c-0.5,0-1,0-1.5-0.1c-0.4,0-0.8,0-1.2,0c-0.3,0-0.7,0-1,0
		c-0.9,0-1.9,0-2.8-0.1l-1.1,0c-0.3,0-0.6,0-0.9,0c-0.4,0-0.8-0.1-1.2-0.1c-0.3,0-0.6-0.1-0.9-0.1c-0.2,0-0.4,0-0.7,0
		c-0.2,0-0.4,0-0.6,0c-0.5,0-2.3-0.1-4-0.1c-1.7,0-3.4-0.1-3.9-0.1c-0.2,0-0.4,0-0.6,0c-0.3,0-0.5,0-0.8,0c-0.6-0.1-1.3-0.2-1.9-0.2
		l-0.4-0.1c0,0-0.4,0-1,0c-7.3-0.1-7.4-0.1-7.5-0.2l-0.5-0.3l0.6-0.1c0.3-0.1,3.6-0.1,7.3-0.2c1.1,0,2,0,2.1,0c0.3,0,0.6,0,0.9,0
		c0.2,0,0.3,0,0.5,0c0.2,0,0.5,0,0.7,0c0.4,0,0.9,0,1.3,0c0.6,0.1,6.3,0.2,7,0.1c0.1,0,0.3,0,0.4,0c0.1,0,0.1,0,0.2,0
		c0.2,0,0.5,0,0.7,0c0.2,0,0.3,0,0.5,0c0.3,0,0.6-0.1,1,0c0.7,0.1,1.5,0.2,2.3,0.1c0.2,0,0.4,0,0.7,0l1.2,0c0.8,0,1.6,0.1,2.3,0.1
		c0.7,0,1.4,0,2.1,0c0.8,0,1.7,0,2.5,0c0.5,0,0.9,0,1.4,0.1c0.4,0,0.7,0,1.1,0.1c0.7,0,1.3,0,2,0.1c0.4,0,0.9,0,1.3,0
		c0.8,0,1.6,0.1,2.5,0.1c0.7,0,1.4,0.1,2.1,0.1c0.2,0,0.5,0,0.7,0.1l0.9,0.1c0.4,0,0.8,0.1,1.3,0.1c0.2,0,0.5,0,0.7,0
		c0.3,0,0.7,0,1,0.1l0.1,0c0.6,0.1,1.2,0.1,1.8,0.1c0.4,0,0.8,0,1.1,0l0.3,0c0.7,0.1,1.4,0.1,2,0c0.2,0,0.5,0,0.7,0
		c0.1,0,0.2,0,0.2,0c0.2,0,0.4,0,0.6,0l0.1,0c0.4-0.7,0.8-1.4,1.4-2l0.4-0.4l0,0.5c0,0.6-0.3,1-0.5,1.4c-0.1,0.2-0.2,0.3-0.3,0.5
		c0.2,0,0.3,0,0.4-0.3l0-0.1c0.3-0.6,0.7-1.1,1-1.6l0.2-0.3c0.1-0.1,0.2-0.4,0.6-0.3l0.3,0l-0.1,0.3c0,0.1,0,0.2-0.1,0.3
		c0,0.2-0.1,0.4-0.2,0.6c-0.1,0.3-0.3,0.5-0.4,0.8c-0.1,0.1-0.1,0.2-0.2,0.3c0,0.1-0.1,0.2-0.2,0.3c0.2,0,0.4,0,0.5-0.1
		c0,0,0.1-0.1,0.1-0.2c0-0.1,0.1-0.1,0.1-0.2c0-0.1,0-0.1,0.1-0.1l0.1-0.1c0.5-0.7,0.9-1.4,1.4-2c-0.1,0-0.2-0.1-0.2-0.1l-0.7-0.3
		l0.7-0.1c0.3,0,0.5-0.1,0.8-0.1c0.6-0.1,1.1-0.2,1.7-0.3c0.8-0.2,1.6-0.3,2.3-0.5c0.4-0.1,0.8-0.2,1.2-0.4c0.5-0.2,1-0.4,1.6-0.5
		c0.9-0.2,1.8-0.6,2.7-0.9c0.3-0.1,0.6-0.3,1-0.4c1-0.4,2-0.9,3-1.3c0.4-0.2,0.9-0.4,1.3-0.6c0.1,0,0.1,0,0.2-0.1l1-0.4l-0.7,0.7
		c-0.4,0.5-0.9,0.8-1.4,1.1c-0.2,0.1-0.4,0.2-0.5,0.3c-0.3,0.2-0.6,0.4-0.9,0.5c-0.4,0.2-0.7,0.3-1.1,0.5l-0.2,0.1
		c-0.3,0.1-0.6,0.3-0.9,0.4c-0.8,0.4-1.7,0.7-2.5,1.1c-0.3,0.1-0.6,0.2-0.8,0.3l0,0c0.1,0.4-0.1,0.8-0.3,1.2c0,0.1-0.1,0.1-0.1,0.2
		c0.3-0.1,0.6-0.1,0.9-0.2c0,0,0.1-0.1,0.1-0.1c0.2-0.2,0.3-0.4,0.4-0.6c0.2-0.2,0.3-0.5,0.5-0.7c0.1-0.1,0.1-0.1,0.2-0.2
		c0,0,0,0,0.1,0l0.2-0.2l0.1,0.2c0.3,0.5,0,0.9-0.1,1.3c0,0,0,0,0,0l0.3-0.1c0.2,0,0.5-0.1,0.7-0.1l0.3-0.1c0.8-0.2,1.6-0.3,2.5-0.5
		c0.4-0.1,0.8-0.1,1.2-0.2c0.4-0.1,0.7-0.1,1.1-0.2l0.1,0c0.4-0.1,0.7-0.1,1-0.4c0.1-0.1,0.3-0.2,0.4-0.3c0.6-0.3,1.1-0.5,1.6-0.7
		l0.1,0c0.3-0.1,0.6-0.3,0.8-0.4c0.6-0.3,1.3-0.5,1.9-0.9c0.4-0.2,0.7-0.4,1.1-0.6c0.2-0.1,0.5-0.3,0.7-0.4c0.6-0.3,1.2-0.8,1.7-1.2
		c0.2-0.2,0.5-0.4,0.7-0.5c0.2-0.2,0.4-0.3,0.6-0.4c0.2-0.1,0.4-0.3,0.5-0.4c0.6-0.4,1.2-0.9,1.8-1.3c0.1-0.1,0.1-0.1,0.1-0.3
		c-0.1-0.4-0.1-0.7-0.2-1.2c0-0.4-0.1-0.7-0.1-1.1c0-0.2,0-0.5,0.4-0.6l0.2-0.1l0.1,0.2c0,0,0,0,0,0.1c0,0.1,0.1,0.2,0.1,0.3
		c0,0.1,0.1,0.3,0.1,0.5c0,0.2,0.1,0.3,0.1,0.5c0,0.2,0.1,0.4,0.1,0.6c0.1,0.6,0.3,1.2,0.5,1.8l0.1,0.2c0.2,0.6,0.4,1.3,0.4,2l0,0.2
		c0,0.5,0,1-0.2,1.5c0,0,0,0,0,0c0.1-0.2,0.3-0.3,0.4-0.5c0.6-0.7,1.1-1.4,1.4-2.1c0.1-0.3,0.2-0.7,0.2-1c0-0.6,0-1.3-0.1-1.9l0-0.3
		c0-0.6,0-1.3,0-1.9c0-0.8,0-1.7,0-2.5c0-0.1,0-0.2-0.1-0.3c-0.2-0.5-0.4-1-0.6-1.5c-0.1-0.2-0.2-0.4-0.3-0.6c0,0,0-0.1-0.1-0.1
		l-0.4,0.2l-0.5-0.6c0,0-0.1-0.1-0.1-0.1c-0.1-0.1-0.1-0.2-0.2-0.2c-0.2-0.2-0.4-0.4-0.7-0.5c-0.3-0.3-0.7-0.5-1-0.8
		c-0.4-0.4-0.9-0.6-1.4-0.8l-0.3-0.1c-0.3-0.1-0.5-0.2-0.8-0.3c-0.1,0-0.2-0.1-0.3-0.1c-0.2-0.1-0.4-0.2-0.7-0.2
		c-0.5-0.1-1-0.2-1.5-0.3c-0.2,0-0.4-0.1-0.7-0.1c-0.2,0-0.2,0-0.2,0c0,0-0.1,0.1-0.1,0.3c-0.1,0.3-0.2,0.5-0.4,0.8
		c-0.4,0.5-0.7,0.8-1.1,1.2c-0.8,0.7-1.5,1.2-2.3,1.4c-0.1,0-0.2,0-0.2,0c0,0,0,0-0.1,0l-0.4,0l0.2-0.4c0-0.1,0-0.1,0.1-0.2
		c0.2-0.2,0.5-0.4,0.7-0.6c0.3-0.2,0.6-0.5,0.9-0.8l0.1,0c0.5-0.5,1.1-0.9,1.4-1.5c0-0.1,0.1-0.1,0.1-0.2c-0.1,0-0.2,0-0.4,0
		c-0.3,0-0.6,0-0.9,0c-0.4,0-0.8,0-1.2,0c-0.7,0-1.4,0-2.1,0c-0.4,0-0.8,0-1.3,0c-0.5,0-0.9,0-1.4,0c-2.2,0-4.3-0.2-6.3-0.6
		c-1.4-0.3-2.6-0.5-3.6-0.8c-0.9-0.2-1.9-0.4-2.8-0.6c-0.1,0-0.3-0.1-0.4-0.1c-0.4-0.1-0.8-0.1-1.2-0.3c0.1,0.3,0.2,0.7,0.1,1.1
		c-0.2,0.7-0.7,1-1.1,1.2l-0.3,0.1l0-0.5c0-0.1,0-0.2,0-0.3c0-0.1,0-0.2,0.1-0.3c0-0.1,0.1-0.3,0.1-0.4c0-0.3,0-0.5-0.1-0.7
		c0-0.1-0.1-0.3-0.2-0.4c0,0,0-0.1,0-0.1c-0.1,0-0.2,0-0.3,0c-0.3,0-0.6,0-0.9-0.1c-0.6-0.1-1.3-0.3-1.9-0.5c-0.3-0.1-0.6-0.2-1-0.2
		c-0.1,0-0.1,0-0.2,0c0,0,0,0,0,0.1c0,0.1,0.1,0.2,0.1,0.3c0,0.1,0.1,0.3,0.1,0.4c0.2,0.9,0.2,1.1-0.2,1.9l0,0.1
		c-0.2,0.5-0.3,0.6-0.8,0.6l-0.3,0c-0.2,0-0.4,0-0.7,0c-0.7,0-1.1-0.2-1.4-0.8c-0.2-0.3-0.4-0.8-0.5-1.2c-0.2-0.6-0.5-1.2-0.7-1.8
		l-0.5,0c-0.1,0-0.2,0-0.3,0c-0.9-0.1-1.6-0.3-2.2-0.6c-0.1-0.1-0.1-0.1-0.2,0c-0.4,0.4-0.9,0.4-1.5,0.2c-0.3-0.1-0.5-0.4-0.7-0.7
		c-0.1-0.1-0.1-0.3-0.2-0.4c-0.1-0.2-0.1-0.3-0.2-0.5c-0.1-0.3-0.3-0.4-0.5-0.4c-1.2,0-2.3-0.4-3.4-0.8l-0.2-0.1
		c-0.1,0-0.2-0.1-0.3-0.2c-0.3-0.3-0.6-0.7-0.9-1c-0.1-0.2-0.3-0.4-0.4-0.6c-0.2-0.2-0.3-0.5-0.5-0.7c-0.2-0.2-1.1-0.7-1.3-0.7
		l1.2,2.2c0,0,0.5,0.7,0.5,0.7c0.2,0.4,0.4,0,0.8-0.1c0.1,0,0.1,0,0.2,0l0.1,0l0.1,0.1c0,0,0.1,0.1,0.1,0.1c0.2,0.4,0.1,0.6,0,0.7
		c-0.1,0.1-0.2,0.3-0.6,0.3c-0.2,0-0.5-0.1-0.8-0.2c-0.6-0.2-1-0.7-1.2-1.3c0,0,0-0.1,0-0.1c0-0.1-0.1-0.2-0.1-0.2
		c0-0.1-0.1-0.1-0.1-0.1c-0.3-0.1-0.7-0.1-1-0.2l-0.1,0c0,0.1,0,0.1,0,0.2c0,0.2,0,0.5-0.5,0.7c-0.2,0.1-0.4,0.1-0.5,0
		c-0.2,0-0.5-0.1-0.7-0.2l-0.3-0.1c-0.3-0.1-0.6-0.3-0.8-0.6c-0.2-0.3-0.3-0.7-0.5-1c-0.2-0.4-0.4-0.8-0.6-1.1
		c-0.4-0.7-0.8-1.4-1.1-2.1c0,0-0.1-0.1-0.2-0.1c-0.6-0.3-1.1-0.6-1.7-0.7c-0.2-0.1-0.4-0.1-0.6,0c0.1,0.1,0.1,0.3,0.2,0.4
		c0.2,0.6,0.4,1.1,0.7,1.6c0,0,0.1,0,0.1,0c0.2,0,0.6,0.3,0.8,0.4c0.7,0.3,1.4,0.2,2,1.1l0.3,0.5l-0.7-0.2c-0.1,0-0.2-0.1-0.3-0.1
		c-0.3-0.1-0.7-0.2-1-0.4l-0.6-0.2c0,0-0.1,0-0.1,0c0,0-0.1,0-0.1-0.1c0,0-0.1,0.1-0.1,0.1c0,0-0.1,0.1-0.1,0.1l-0.2,0.1l-0.1-0.2
		c-0.1-0.1-0.2-0.2-0.3-0.3c-0.3-0.3-0.6-0.6-0.8-1.1c-0.1-0.2-0.2-0.4-0.2-0.6c-0.3-0.8-0.7-1.7-0.9-2.6c0-0.2-0.1-0.3-0.3-0.5
		c-0.4-0.4-0.9-0.8-1.4-1.1c-0.1-0.1-0.3-0.2-0.5-0.2c0.1,0.1,0.2,0.3,0.2,0.4c0.2,0.4,0.5,0.8,0.6,1.2c0.2,0.5,0.4,1.1,0.6,1.6
		c0.1,0.2,0.2,0.5,0.3,0.7c0,0.1,0.1,0.2,0.1,0.2c0.1,0.2,0.2,0.4,0.2,0.6c0,0.4,0.2,0.7,0.3,1c0,0.1,0.1,0.2,0.1,0.3
		c0.2,0.4,0.5,0.7,0.9,0.7l0,0c0.1,0,0.1,0,0.2,0c0.2,0,0.3,0.2,0.4,0.3c0,0.2,0,0.3-0.1,0.5c-0.1,0.1-0.2,0.2-0.4,0.2
		c-0.5,0-1,0-1.4-0.4c-0.3-0.4-0.8-0.9-0.8-1.6c0,0,0-0.1-0.1-0.3c-0.1-0.1-0.1-0.2-0.2-0.3c0,0-0.1-0.1-0.1-0.1c0,0-0.1,0-0.2,0
		c-0.5-0.2-1-0.5-1.4-0.7c-0.2-0.1-0.3-0.2-0.5-0.3c-0.3-0.1-0.6-0.3-0.9-0.4c-0.1-0.1-0.2-0.1-0.2-0.1c0,0-0.1,0.1-0.2,0.2
		c-0.5,0.6-1.1,1-1.7,1.1l0,0c-0.5,0.1-1.1,0.3-1.7,0.2c-0.2,0-0.4,0-0.6,0c-0.2,0-0.3,0-0.5,0c-0.1,0-0.2,0-0.2-0.1c0,0,0,0-0.1,0
		l-0.2,0l0-0.1c-0.3,0.3-0.6,0.3-0.8,0.2c-0.3-0.1-0.5-0.4-0.5-0.7c0-0.4,0-0.8,0-1.2c0-0.2,0.1-0.4,0.2-0.5
		c0.2-0.2,0.4-0.4,0.7-0.7c0.1-0.1,0.2-0.1,0.3-0.2c-0.5-0.1-0.9-0.2-1.3-0.3c-0.1,0-0.2,0-0.2,0c-0.2,0.3-0.5,0.4-0.7,0.4l-0.1,0
		c-0.5,0.1-0.9,0.3-1.4,0.6l-0.2,0.1c-0.3,0.1-0.5,0.3-0.7,0.4c-0.4,0.2-0.7,0.5-1.1,0.6c-1.1,0.5-2,1.1-2.7,1.8
		c-0.1,0.1-0.1,0.1-0.2,0.2c-0.3,0.1-0.6,0.4-0.9,0.6c-0.2,0.2-0.5,0.4-0.7,0.6c-0.3,0.2-0.6,0.4-0.9,0.7c-0.1,0.1-0.3,0.3-0.4,0.4
		c-0.1,0.1-0.2,0.1-0.2,0.2c-0.1,0.1-0.2,0.1-0.3,0.2c-0.2,0.2-0.4,0.3-0.5,0.5c-0.5,0.5-1,1-1.6,1.4c-1.2,0.8-2.2,1.4-3.3,1.8
		l-0.4,0.2c-0.8,0.3-1.5,0.6-2.4,0.8c-0.3,0.1-0.6,0.1-0.9,0.2c-0.6,0.2-1.3,0.3-1.9,0.3l-0.1,0c-0.3,0-0.6,0-1-0.1
		c-1-0.4-2.1-0.9-3-1.7l-0.2-0.1c-0.8-0.7-1.6-1.5-2.3-2.4l-0.2-0.3c-0.5-0.7-1-1.4-1.5-2.2c-0.4-0.7-0.8-1.3-1.1-2l-0.3-0.4
		c-0.1-0.1-0.2-0.3-0.2-0.5l-0.1-0.2c-0.1-0.3-0.2-0.5-0.3-0.8c-0.3-0.7-0.8-1.1-1.6-1.4c-0.7-0.3-1.3-0.4-1.9-0.5
		c-0.3,0-0.5,0-0.8,0.2c-0.2,0.1-0.5,0.3-0.7,0.4l-0.1,0c-0.1,0.1-0.3,0.2-0.4,0.3c-0.2,0.1-0.3,0.3-0.5,0.5
		c-0.3,0.3-0.6,0.6-0.9,0.9c-0.9,0.7-1.5,1.4-1.9,2.2c-0.1,0.1-0.1,0.2-0.2,0.3c-0.1,0.3-0.3,0.5-0.5,0.7c-0.4,0.5-0.6,1.1-0.9,1.6
		l-0.2,0.4c-0.3,0.7-0.6,1.5-0.8,2.2c-0.3,0.9-0.5,1.8-0.8,2.7l0,0.1c-0.2,0.7-0.3,1.3-0.4,1.9c-0.1,0.4-0.1,0.8-0.2,1.2
		c0,0.2-0.1,0.4-0.1,0.7c0,0.1-0.1,0.3-0.1,0.4c-0.1,0.2-0.2,0.3-0.4,0.4c-0.2,0.1-0.3,0-0.5-0.1c-0.1,0-0.1-0.1-0.2-0.1
		c0,0,0,0.1-0.1,0.1c0,0.1-0.1,0.2-0.1,0.3c-0.1,0.3-0.2,0.6-0.3,0.9c-0.1,0.6-0.2,1.2-0.3,2c-0.1,1.1-0.2,1.9-0.2,2.7
		c0,0.8,0,1.6,0.1,2.3c0,0.3,0.1,0.6,0.1,0.8c0,0.2,0.1,0.5,0.1,0.7c0.2,1.8,0.4,3.8,0.8,5.7c0.2,0.8,0.6,1.7,1.1,2.6
		c0.2,0.4,0.4,0.9,0.6,1.3C107.5,130.3,108.9,132.5,109.1,132.7z M197.6,132.1c0.3-0.1,0.5-0.1,0.7-0.1c0.2-0.1,0.5-0.2,0.7-0.2
		c0.2,0,0.2-0.1,0.3-0.2c0.2-0.5,0.5-1,0.7-1.5c0-0.1,0.1-0.2,0.1-0.4c-0.6,0.1-1.1,0.2-1.6,0.2C198.6,130.7,198,131.3,197.6,132.1z
		 M202.5,129.3c-0.2,0.1-0.3,0.1-0.5,0.2c-0.2,0.1-0.5,0.2-0.7,0.2c-0.1,0-0.1,0.1-0.2,0.2c-0.1,0.3-0.3,0.6-0.4,0.9l-0.2,0.3
		c0.2-0.1,0.5-0.1,0.7-0.2c0.5-0.2,0.5-0.2,0.8-0.7l0-0.1C202.1,129.8,202.3,129.5,202.5,129.3z M197.8,130.2c-0.1,0-0.3,0-0.4,0
		c-0.2,0-0.4,0-0.6-0.1c-0.2,0.8-0.5,1.5-1,2.2c0.2,0,0.4-0.1,0.6-0.1c0.2-0.1,0.4-0.2,0.4-0.4c0-0.1,0.1-0.2,0.1-0.2l0.3-0.4
		c0.2-0.3,0.4-0.6,0.5-0.9C197.7,130.3,197.8,130.2,197.8,130.2z M147.1,85.5l-0.1,0.4c-0.1,0.4-0.1,0.8-0.2,1.1c0,0.1,0,0.2,0,0.3
		c0,0,0.1,0,0.1,0c0.7,0.1,1.2,0.3,1.7,0.5c0.4,0.2,0.9,0.4,1.4,0.6c0.3,0.1,0.6,0.2,0.9,0.3c0.1,0.1,0.3,0.1,0.4,0.2
		c0.1,0,0.1,0.1,0.2,0.1c0.4,0.2,0.7,0.4,1.1,0.6l0-0.1c0-0.3,0-0.5,0-0.8c0,0,0-0.1,0-0.1c0-0.1,0-0.3,0-0.5c0.1-0.4,0-0.6-0.4-0.8
		c-0.8-0.4-1.7-0.8-2.5-1.2c-0.4-0.2-0.7-0.4-1.1-0.5c-0.3-0.1-0.6-0.3-0.9-0.4l-0.6-0.3c-0.1,0-0.2-0.1-0.2-0.2c0,0,0,0,0,0
		C147.1,85,147.1,85.3,147.1,85.5z M200.1,130.6c-0.2,0.3-0.3,0.6-0.5,0.9c-0.1,0.2-0.2,0.3-0.5,0.4c-0.1,0-0.3,0.1-0.4,0.1
		c-0.1,0-0.2,0.1-0.3,0.1c-0.1,0-0.3,0.1-0.5,0.1l-0.7,0.1l0.2-0.4c0.1-0.2,0.3-0.5,0.4-0.7c0.3-0.5,0.6-0.9,0.7-1.4l0-0.2l2.1-0.3
		l-0.2,0.5c0,0.1-0.1,0.2-0.1,0.2C200.2,130.3,200.2,130.5,200.1,130.6z M199.9,129.9l-1,0.2c-0.1,0.5-0.4,1-0.7,1.4
		c-0.1,0.1-0.1,0.2-0.2,0.2c0.1,0,0.2,0,0.2-0.1c0.1,0,0.2-0.1,0.3-0.1c0.1,0,0.3-0.1,0.4-0.1c0.1,0,0.1,0,0.2-0.1
		c0.2-0.3,0.3-0.6,0.5-1C199.7,130.3,199.8,130.1,199.9,129.9z M125.6,102.9c0.1,0.1,0.1,0.2,0.2,0.2c0.4,0.3,0.8,0.6,1.3,0.9
		c0.3,0.2,0.5,0.3,0.8,0.4c0.3,0.1,0.7,0.1,1,0.1c0.3,0,0.6,0,0.9-0.1c0.7-0.1,1.5-0.2,2.3-0.4c0.6-0.1,1.2-0.3,1.6-0.5
		c0.4-0.2,0.9-0.4,1.3-0.5c0.3-0.1,0.6-0.3,0.9-0.4c0.7-0.3,1.4-0.7,2.1-1.2l0.1-0.1l-0.5-1.5l-0.4,0.3c-0.1,0-0.1,0.1-0.2,0.1
		c-0.1,0.1-0.2,0.1-0.2,0.2c-0.2,0.1-0.4,0.3-0.6,0.4c-0.2,0.1-0.4,0.2-0.5,0.3c-0.2,0.1-0.5,0.2-0.7,0.4c-0.5,0.3-1.1,0.5-1.7,0.8
		l-0.1,0c-0.5,0.2-1,0.2-1.5,0.3c-0.2,0-0.3,0-0.5,0.1c-0.7,0.1-1.3,0.1-1.8,0c-0.1,0-0.2,0-0.3-0.1c-0.3-0.1-0.6-0.1-0.9-0.1
		l-0.1,0c-0.4,0-0.8-0.1-1.1-0.2c-0.2-0.1-0.4-0.1-0.6,0l0.2,0.4c0,0,0.1,0,0.2,0c0.4,0.2,0.9,0.3,1.3,0.3l0.1,0
		c0.3,0,0.5,0.1,0.8,0.1c0.1,0,0.2,0,0.3,0.1c0.6,0.1,1.2,0.1,2,0c0.2,0,0.3,0,0.5-0.1c0.5-0.1,1.1-0.2,1.6-0.3l0.1,0
		c0.6-0.2,1.2-0.4,1.8-0.8c0.2-0.1,0.4-0.2,0.6-0.3c0.2-0.1,0.4-0.2,0.6-0.3c0.2-0.1,0.4-0.3,0.6-0.4c0.1-0.1,0.2-0.1,0.2-0.2
		c0,0,0,0,0,0l0.2,0.5c-0.6,0.4-1.2,0.8-1.8,1c-0.3,0.1-0.6,0.2-0.9,0.4c-0.4,0.2-0.8,0.4-1.3,0.5c-0.4,0.2-0.9,0.3-1.5,0.4
		c-0.7,0.2-1.5,0.3-2.2,0.4c-0.6,0.1-1.2,0.1-1.7,0c-0.2,0-0.4-0.1-0.6-0.3c-0.4-0.3-0.8-0.6-1.2-0.9c-0.1,0-0.1-0.1-0.2-0.2
		c0,0-0.1-0.1-0.1-0.1l-0.1,0.1l-0.2-0.1l-0.1,0.2L125.6,102.9C125.6,102.8,125.6,102.9,125.6,102.9z M174.4,107.6
		C174.4,107.6,174.4,107.6,174.4,107.6C174.4,107.6,174.4,107.6,174.4,107.6C174.4,107.6,174.4,107.6,174.4,107.6
		C174.4,107.6,174.4,107.6,174.4,107.6z M183.2,113.7c-0.2,0.3-0.4,0.5-0.8,0.5c-1,0.1-1.9,0.1-2.9,0.2c-0.5,0-0.9,0.1-1.4,0.2
		c-1,0.1-2,0.1-3.1,0.2c-1.3,0.1-2.6,0.2-4,0.4c-0.9,0.1-1.9,0.2-2.8,0.4c-1.3,0.2-2.5,0.3-3.8,0.5c-1.6,0.2-3.2,0.5-4.7,0.9
		c-1.1,0.3-2.3,0.5-3.4,0.8c-0.3,0.1-0.7,0.2-1,0.3c-0.8,0.2-1.5,0.5-2.3,0.7c-0.9,0.3-1.8,0.5-2.8,0.4c-0.6-0.1-1.2-0.2-1.7-0.6
		c-0.2-0.2-0.5-0.3-0.8-0.5c-0.2-0.1-0.3-0.2-0.5-0.3c-0.6-0.4-1.2-0.9-1.8-1.3c-0.3-0.2-0.7-0.4-1-0.6c-0.9-0.6-1.8-1.1-2.4-1.8
		c-0.1-0.1-0.1-0.1-0.2-0.2c-0.6-0.7-0.6-1.6,0.1-2.2c0.4-0.4,0.9-0.5,1.4-0.6c1.3-0.3,2.6-0.4,3.9-0.5c1.3-0.2,2.7-0.2,4.1-0.2
		c0.8,0,1.5-0.1,2.3-0.1c1.2,0,2.5-0.1,3.7,0c0.7,0.1,1.3,0,2,0.1c1.4,0.1,2.9,0.2,4.3,0.3c1.3,0.1,2.7,0,4-0.1
		c0.6-0.1,1.3-0.1,1.9-0.2c0.1,0,0.1,0,0.2-0.1c-0.1-0.3-0.3-0.4-0.5-0.5c-0.8-0.6-1.7-1.2-2.6-1.7c-0.9-0.5-1.9-1.1-2.8-1.6
		c-1-0.5-2-1-2.9-1.5c-0.3-0.2-0.7-0.4-1-0.6c-0.2-0.1-0.3-0.2-0.5-0.3c-0.3-0.1-0.4-0.3-0.6-0.6c-0.1-0.3-0.1-0.6,0.3-0.7
		c0.4-0.1,0.8-0.1,1.2,0c0.2,0,0.4,0,0.6,0c0.2,0,0.4,0.1,0.5,0.1c0.9,0,1.6,0.4,2.4,0.7c0.8,0.3,1.6,0.5,2.4,0.8
		c1,0.3,1.9,0.7,2.9,1.1c0.3,0.1,0.6,0.2,0.8,0.3c1.1-1,2.3-1.7,3.6-2.3c0.3-0.1,0.4-0.1,0.5,0.2c0.1,0.6,0.3,1.2,0.3,1.8
		c0.1,0.5,0.1,1.1,0.1,1.6c0,0.1,0,0.3-0.1,0.4c0,0-0.1,0-0.1,0.1c0,0,0,0,0,0c0,0,0,0,0,0c-0.1-0.1-0.2-0.3-0.2-0.4
		c-0.1-0.5-0.2-1-0.3-1.5c-0.1-0.4-0.1-0.9-0.2-1.4c-0.3,0.1-0.5,0.2-0.8,0.3c-0.4,0.2-0.8,0.3-1.2,0.5c-0.5,0.2-1.1,0.3-1.4,0.9
		c0.1,0.1,0.2,0.1,0.3,0.2c1.1,0.5,2.2,0.9,3.3,1.4c0.1,0,0.2,0,0.3,0.1c0,0,0,0,0,0c0,0,0,0,0,0c0.3,0.2,0.5,0.3,0.8,0.5
		c1.1,0.5,2.2,1,3.2,1.6c0.2,0.1,0.4,0.2,0.7,0.3c0.6,0.3,1.2,0.6,1.8,0.9c0.3,0.2,0.7,0.4,1,0.5c0.6,0.3,1,0.8,1.5,1.3
		c0.1,0.1,0.1,0.3,0.1,0.4C183.4,113.3,183.3,113.5,183.2,113.7z M182.2,113.2c0.1-0.2,0-0.4-0.2-0.5c-0.2-0.1-0.4-0.2-0.6-0.3
		c-0.6-0.3-1.1-0.5-1.7-0.8c-1-0.5-1.8-1.1-2.8-1.5c-2.4-1.1-4.7-2.1-7.1-3.1c-1-0.4-2-0.9-3-1.3c-1.4-0.7-2.9-1.2-4.4-1.6
		c-0.4-0.1-0.8-0.3-1.2-0.4c-0.7-0.2-1.4-0.4-2-0.6c-0.1,0.3-0.1,0.5,0.2,0.7c0.2,0.1,0.7,0.4,0.9,0.4c0,0,0.1,0,0.1,0
		c0.4,0.1,0.7,0.3,1.1,0.4c0.7,0.3,1.4,0.6,2,1c0.5,0.3,1.1,0.6,1.6,0.8c0.3,0.2,0.7,0.4,1,0.6c0.6,0.3,1.1,0.7,1.7,1
		c0.4,0.2,0.8,0.4,1.2,0.7c0.7,0.5,1.3,1.1,2,1.7c0.1,0.1,0.1,0.2,0.2,0.4c-0.4,0.1-0.8,0.2-1.1,0.2c-0.5,0.1-1,0.1-1.6,0.1
		c-1.9,0.2-3.8,0.3-5.7,0.3c-1.2,0-2.5-0.1-3.7-0.2c-1.6-0.1-3.2-0.1-4.8-0.2c-0.5,0-1,0-1.4,0c-0.6,0-1.2,0-1.8,0
		c-0.5,0-1-0.1-1.4,0c-1,0.1-2,0.1-3,0.2c-1,0.1-2,0.2-3,0.3c-0.3,0-0.7,0.1-1,0.2c-0.4,0.1-0.5,0.3-0.4,0.7
		c0.1,0.2,0.1,0.3,0.3,0.4c0.3,0.3,0.7,0.6,1,0.8c0.8,0.4,1.5,1,2.3,1.4c0.2,0.1,0.4,0.2,0.6,0.4c1.1,0.9,2.4,1.6,3.6,2.3
		c0.4,0.2,0.8,0.2,1.2,0.2c0.4,0,0.8-0.2,1.3-0.4c1.1-0.4,2.3-0.8,3.4-1.1c1.2-0.3,2.3-0.5,3.5-0.8c1.9-0.4,3.7-0.8,5.6-1.1
		c1.4-0.2,2.7-0.4,4.1-0.6c1.6-0.2,3.3-0.3,4.9-0.5c0.9-0.1,1.7-0.2,2.6-0.2c0.5,0,1,0,1.6-0.1c0.7-0.1,1.4-0.1,2.1,0
		c0.5,0,0.9,0,1.4,0C182,113.5,182.2,113.4,182.2,113.2z M127.6,111.4c0.9-0.2,1.9-0.3,2.8-0.5c0.6-0.1,1.3-0.3,1.9-0.4
		c0.5-0.1,1-0.2,1.5-0.4c0.7-0.3,1.3-0.6,2-0.9c1.3-0.8,2.7-1.5,3.8-2.6c0.3-0.3,0.6-0.7,0.8-1.1c0-0.1,0-0.2,0-0.3c0,0-0.1,0-0.1,0
		c-0.1,0.1-0.3,0.2-0.4,0.3c-0.2,0.2-0.4,0.3-0.6,0.5c-1.7,1.4-3.7,2.4-5.7,3.4c-0.9,0.4-1.9,0.7-2.8,1c-1.2,0.4-2.4,0.7-3.6,1
		C127.2,111.4,127.3,111.5,127.6,111.4z M216,121.9c0,0,0.1,0,0.1,0c1.1-0.5,2.3-0.9,3.2-1.7c0.8-0.7,1.6-1.4,2.4-2.2
		c0.1-0.1,0.1-0.2,0.2-0.2c0.7-0.9,1.3-2,1.9-3c0.2-0.3,0.3-0.6,0.4-0.9c0-0.1,0-0.2,0-0.2c-0.3,0.3-0.4,0.6-0.7,0.9
		c-0.9,1.1-1.8,2.3-2.7,3.4c-0.1,0.2-0.3,0.3-0.5,0.4c-1.5,1.1-3,2.2-4.5,3.3C216,121.7,216,121.8,216,121.9
		C216,121.9,216,121.9,216,121.9z M168.2,101.8c-0.1-0.4-0.2-0.7-0.3-1c0,0,0,0,0,0c-0.1-0.2-0.3-0.3-0.4-0.4
		c-0.1-0.1-0.1-0.1-0.2-0.2c-0.2,0.2-0.2,0.3-0.1,0.5c0.2,0.7,0.5,1.5,0.8,2.2c0,0.1,0.1,0.2,0.2,0.2c0.3,0.1,0.7,0.1,1,0.1
		c0.5-0.1,1.1-0.2,1.6-0.4c0.6-0.2,1.1-0.4,1.6-0.7c0,0,0.1,0,0.1-0.1c0-0.1,0.1-0.2,0.1-0.3c0-0.1-0.2-0.1-0.2-0.1
		c-0.2,0-0.4,0.1-0.6,0.1c-1.1,0.3-2.1,0.6-3.3,0.9C168.4,102.3,168.3,102.1,168.2,101.8z M107.7,107.1c0.1-0.2,0.2-0.4,0.3-0.6
		c0.4-0.9,0.8-1.7,1.3-2.6c0.4-0.8,0.7-1.6,1.2-2.3c0.2-0.3,0.2-0.3,0.6-0.2c0.4,0.1,0.7,0.3,1.1,0.5c0.2,0.1,0.3,0.1,0.5-0.1
		c-0.3-0.4-0.8-0.6-1.2-0.7c-0.3-0.1-0.5-0.2-0.9-0.3c-0.1,0.1-0.3,0.2-0.3,0.4c-0.3,0.5-0.6,1-0.9,1.5c-0.4,0.8-0.7,1.6-1,2.4
		c-0.2,0.5-0.4,1-0.5,1.5c0,0.1,0,0.2-0.1,0.3C107.6,107,107.7,107,107.7,107.1z M162.6,102c0.7-0.3,1.5-0.5,2.2-0.8
		c0.1,0.3,0.1,0.6,0.2,0.9c0.1,0.5,0.2,0.9,0.4,1.4c0.1,0.2,0.2,0.4,0.5,0.5c0-0.2,0-0.3,0-0.5c-0.1-0.4-0.2-0.9-0.3-1.3
		c-0.1-0.6-0.2-1.1-0.6-1.6c-1.2,0.1-2.2,0.6-3.3,1.4C162.1,102.1,162.2,102.1,162.6,102z M202.5,134.1c-0.9,0.3-1.9,0.5-2.8,0.7
		c-0.6,0.2-1.2,0.3-1.8,0.4c-0.2,0.1-0.4,0.1-0.6,0.4c0.2,0,0.4,0.1,0.5,0.1c0.7,0,1.5-0.1,2.2-0.3c0.9-0.3,1.8-0.5,2.6-0.8
		c0.2-0.1,0.5-0.2,0.8-0.3C203.1,134,202.8,134,202.5,134.1z M165.8,121.7c-2.2,2.2-1.2,1.6-1.5,1.9c0,0,0.1,0.1,0.1,0.1
		c0.1-0.1,0.3-0.1,0.4-0.2c0.4-0.3,2.1-1.6,2.4-2c1.7-1.6,3.4-2.6,5.3-3.8c0.4-0.3,0.9-0.5,1.4-0.7c0,0,0-0.1-0.1-0.1
		c-0.1,0-0.3,0.1-0.4,0.1c-0.7,0.3-1.4,0.5-2,0.8C171.5,117.8,167.9,119.6,165.8,121.7z M189.2,110.4c0.2-0.3,0.5-0.4,0.9-0.5
		c0.9-0.2,1.7-0.6,2.4-1.1c0-0.1,0-0.2,0-0.3c0-0.3-0.1-0.4-0.4-0.3c-0.1,0-0.1,0.1-0.2,0.1c-0.5,0.3-0.9,0.5-1.4,0.8
		c-0.6,0.4-1.2,0.8-1.7,1.3c-0.1,0.1-0.2,0.2-0.1,0.4C188.8,110.7,189,110.6,189.2,110.4z M177.3,105.6c-0.1-0.6-0.3-1.2-0.4-1.8
		c-0.1-0.3-0.1-0.6-0.2-0.8c-0.1-0.3-0.2-0.3-0.6-0.3c0.1,1,0.3,2,0.7,2.9c0.1,0.2,0.2,0.5,0.4,0.5
		C177.4,106,177.4,105.8,177.3,105.6z M174.9,121.4c-2,0.2-4.7,1.8-6.2,3.1l1.7-0.5C171.7,122.7,173.4,122.1,174.9,121.4z
		 M162.4,128.8c-0.5-0.1-0.9-0.2-1.4-0.3c-0.6-0.1-1.3-0.3-1.9-0.4c-0.8-0.2-1.7-0.4-2.5-0.4c-0.6-0.1-1.2-0.1-1.9-0.1
		c-0.8,0-1.6-0.1-2.5-0.1c-0.7,0-1.3-0.1-2-0.1c-0.8,0-1.7,0.1-2.5,0.1c-0.9,0-1.9,0.1-2.8,0.1c-0.4,0-0.8,0-1.3,0
		c-0.6,0-2.5,0.3-2.8,0.3c-0.9,0-1.8,0-2.7,0.2c-0.3,0.1-3.4,0.1-3.6,0.1c-1.1,0-2.1,0-3.2,0c-1.5,0-3-0.1-4.5,0
		c-0.8,0-4.3-0.2-4.5-0.2c-0.3,0-0.7,0-1,0.1c0.2,0.2,0.3,0.3,0.6,0.3c0.4,0,0.7,0.1,1.1,0.2c0.5,0.1,2.1,0.1,2.4,0.1
		c0.4,0,0.7,0.1,1.1,0.1c0.3,0,0.6,0,0.9,0c0.4,0,3.9,0,5.2,0c0.8,0,1.6,0,2.3-0.1c0.4-0.1,0.9-0.1,1.3-0.1c0.8,0,1.5-0.1,2.3-0.1
		c0.5,0,1.1-0.1,1.6-0.1c0.6,0,2.1-0.2,2.4-0.2c1.6,0,3.1-0.1,4.7-0.1c1.3-0.1,2.6,0,3.9,0c0.8,0,3.5,0.1,4,0.1
		c1.2,0.1,2.4,0.2,3.7,0.4c1,0.1,1.9,0.2,2.9,0.3C162,128.9,162.2,128.9,162.4,128.8C162.4,128.9,162.4,128.8,162.4,128.8z
		 M115.8,127.3c-0.8-0.2-1.6-0.4-2.4-0.5c-0.5-0.1-0.9-0.2-1.3-0.5c-0.2-0.1-0.3-0.2-0.4-0.3c-0.7-0.4-1.3-0.8-1.8-1.4
		c-0.6-0.7-1-1.5-1.4-2.3c-0.1-0.3-0.2-0.6-0.3-0.9c-0.2-0.9-0.4-1.8-0.6-2.7c-0.1-0.6-0.3-1.2-0.4-1.8c0-0.1-0.1-0.2-0.1-0.3
		c-0.1-0.3-0.2-0.6-0.3-0.8c-0.1-0.2-0.1-0.4-0.1-0.6c-0.2-0.5-0.3-1.1-0.3-1.6c0-0.7-0.1-1.4-0.2-2.1c0-0.3-0.2-0.6-0.3-0.8
		c0,0-0.1-0.1-0.2-0.1c-0.1,0-0.1,0.1-0.1,0.1c0,0.2,0,0.3,0,0.5c0,0.7,0.1,1.4,0.2,2c0.1,0.9,0.2,1.7,0.4,2.6
		c0.1,0.5,0.3,1,0.3,1.5c0.1,0.8,0.2,1.5,0.3,2.3c0.1,1.2,0.5,2.4,1,3.5c0.5,1.1,1.3,1.9,2.2,2.7c0.1,0,0.1,0.1,0.2,0.1
		c0.4,0.2,0.8,0.4,1.1,0.6c0.4,0.2,0.7,0.3,1.1,0.4c0.2,0,0.3,0,0.5,0.1c0.8,0.4,1.7,0.5,2.6,0.6c0.1,0,0.2,0,0.3,0
		C115.8,127.4,115.8,127.4,115.8,127.3z"/>
</g>
</svg>
