<svg viewBox="0 0 750 750" xmlns="http://www.w3.org/2000/svg">
<g id="Fills1">
	<path style="fill-rule:evenodd;clip-rule:evenodd;fill:#D8E7FF;" d="M296.2,435c-3-2-3.7-2.2-3.7-2.2c-3.2-1-6.7-2.5-7.8-0.8
		c-1.2,1.7,2,5.5,2.8,9c0.8,3.5-1,8.3-2.7,8.2c-1.7-0.2-5-0.2-8.2-3.8c-3.2-3.7-6.8-7.5-11.5-9.7c-4.7-2.2-8.2-2.3-11.7-1.7
		c-3.5,0.7-12.3,2.5-13.3,3s-6,3.8-3,6.3s9.2,9.2,9.7,11c0.5,1.8-0.3,2.5-1.9,2.5s-7.3,1.7-10.3,3.8s-4.3,3-4.2,6.3
		c0.2,3.3,9.2,9.7,10.3,12.2c1.2,2.5,1.2,5.2-1.7,4.3c-2.8-0.8-13.8-1-15.5,0.7c-1.7,1.7,10.5,17.2,9.8,19.3
		c-0.7,2.2-9,4.5-11.8,4.3c-2.8-0.2-6.3,1.5-3.8,5.5s12,15.2,15.3,15.2c3.3,0,12.8,2.8,18.5,2.2c5.7-0.7,18.6,2.8,21.2-3.8
		c2.6-6.7,1.6-15,2.1-17s3.3-7.8,6.3-10.3s2.7-6.8,2.3-11.2c-0.3-4.3-1.3-5.5-0.3-6.8c1-1.3,4.8-1.3,5.3-6.2
		c0.5-4.8,1.7-9.7,2.2-11.5c0.5-1.8-0.8-4.5,1.7-7.8c2.5-3.3,5.7-9,5.8-14.7C298.5,435.7,299.2,437,296.2,435z M270.8,510.9
		c-1.8,3.2-2,6.8-3.8,7.5c-1.8,0.7-4-0.7-6.2-2c-2.2-1.3-7-3.2-8.5-5.7s-2.9-5.3-2.9-5.3c0.9-0.4,15.4-0.2,17.3,0.3
		C268.5,506.2,272.7,507.7,270.8,510.9z M270.7,495c-2,2.2-0.7,3-4.2,1.8c-3.5-1.2-9.8-6.2-11.7-7.5c-1.8-1.3-3.2-3-2.8-4
		s0.8-1.8,0.8-1.8c4.2-0.7,17.8-0.5,18.3,1.5S272.7,492.9,270.7,495z M281.3,466.2c-1,2.3-0.2,5.1-3,7c-2.8,1.8-3.7,1.3-9.2-2
		s-4.3-2.7-6-5.3c-1.7-2.7-2.7-4.7-2.7-4.7c2.5,0,13,0.7,15.4,0.9C278.2,462.2,282.4,464,281.3,466.2z"/>
	<path style="fill-rule:evenodd;clip-rule:evenodd;fill:#D8E7FF;" d="M423.9,460c0-5.8-0.4-14.4-10.7-18
		c-10.3-3.5-23.5-5.8-30.4-4.7s-7.9,0.3-7.9-1.8s-0.9-2.1-4.8-2.1s-7.6-4-5.7,0c1.9,4,6.3,4.2,1.8,8.6s-10,8.5-7.3,14.3
		s2.9,7.4,0,12.1c-2.9,4.7-8.6,14.8-5.7,18.3s-5.8,3.5-5.8,8.9c0,5.4,0,14.4,0,16.4s-0.4,3.4-4.2,7.7c-3.9,4.4-6.6,9.3-4.3,12
		c3.2,3.5,4.1,4.6,8.5,2.3s2.6-10.1,8.5-8.3c6,1.8,16.3,7.2,22.8,10.1c6.5,2.9,17.1,4,21.3,0s7.1-4.2,2.8-10.1
		c-4.3-6-12.4-6.6-9.5-8.5s16.1-1.5,18.3-10.5c2.7-11.3-14.4-10.9-11.6-15.4c2.8-4.5,18.1-0.1,18.1-8.4s-8.2-13-16.9-17.5
		C410.8,465.4,423.9,465.8,423.9,460z M363.2,511.4c-8,0-4.5-0.2-4.5-0.2s-3.1-5.7,1.7-10.6c4.8-4.9,20.3,8.8,20.3,11.9
		C380.8,515.5,371.3,511.4,363.2,511.4z M369.3,487.6c-8,0-4.5-3.1-4.5-3.1s-0.2-5.6,4.5-10.6c4.8-4.9,18.9,10.6,18.9,13.7
		C388.2,490.7,377.3,487.6,369.3,487.6z M373.7,463.3c-8,0-4.5-3.1-4.5-3.1s-0.2-5.6,4.5-10.6s18.9,10.6,18.9,13.7
		C392.6,466.4,381.7,463.3,373.7,463.3z"/>
	<path style="fill-rule:evenodd;clip-rule:evenodd;fill:#D8E7FF;" d="M548,443.7c1.2-3.8-0.3-9-3.8-13.5s-5.3-3.2-9.5-2.8
		c0,0-0.3,1.7,0.3,4s2.8,7.5,2.2,11.2c-0.7,3.7-3.8,4.3-7.2,3.2s-9-7.8-13.5-10.8s-9.5,0.8-16.8-0.7c-7.3-1.5-8.2,2.7-12.7,2.7
		s-0.3,3.5,1.8,6.7c2.2,3.2,8.8,11.7,8.8,11.7c2,2.5-5.5,2.7-8,3.7s-1.3,1.3-7,4.2c-5.7,2.8-1.7,7.3,5.8,13.7s-0.8,5.8-9.7,7
		c-8.8,1.2-4.5,2.7-3.5,6.2s3.2,4.2,6.7,11.5c3.5,7.3-4.7,5.5-10.7,7.2c-6,1.7-4.7,2.8-3,8s6,5.5,10.9,10.8c4.8,5.3,14.5,5,21.7,6.2
		c7.2,1.2,19.8-1.8,23.8-5.1c3.9-3.3,3.2-8.2,2.9-15.6c-0.3-7.3,4.5-11.8,7-15.8s0.7-12.8-0.2-16c-0.8-3.2,5.2-3,7-7.7
		c1.8-4.7,0.3-10.2,0.7-15.8C542.3,451.9,546.8,447.5,548,443.7z M520.3,515.2c-1.5,1.8,0.5,4.2-2.5,4.3c-3,0.2-6.3-1.8-8.8-3.2
		c-2.5-1.3-1.7-1.5-4.7-4.3c-3-2.8-2.7-3.5-3.2-3.8s0.5-1.3,0.5-1.3c2.3,0.2,8.2-2,10-1.3c1.8,0.7,7.3,1.5,8.5,2.8
		C521.3,509.7,521.8,513.4,520.3,515.2z M521.2,496.9c-3.2,0.7-5.2,0.3-8.5-2.2c-3.3-2.5-6.5-3.5-7.3-5.7c-0.8-2.2-0.7-5.2-0.7-5.2
		c4.5,0,12.2-1.3,14,0c1.8,1.3,5.2,3.5,5.5,5.2C524.5,490.7,524.3,496.2,521.2,496.9z M532.2,472c-2,2.3-1,5-4,3.2
		s-8.7-4.3-11.3-6.7c-2.7-2.3-5.2-3.8-4.8-5c0.3-1.2,0.5-2.3,0.5-2.3c5.2,0.3,8.3-1.8,10.7-1.5c2.3,0.3,9,1.5,9.5,3.8
		C533.2,465.9,534.2,469.7,532.2,472z"/>
	<path style="fill:#0363F7;" d="M448.3,520.6c-3.8-4.4-5.6-9.7-5.1-15.5c0.4-5,2.3-9.4,7.6-11.5c-1,2.9-2,5.8-3.2,8.6
		c-1.8,4.6-1.1,9.2,0.2,13.8c0.4,1.4,0.6,2.9,0.9,4.4C448.6,520.5,448.5,520.6,448.3,520.6z"/>
	<path style="fill:#0363F7;" d="M459.9,495.8c-3.5,6.3-6.4,12.7-5.2,20.2c-1.5-1.9-2.1-4.2-2.1-6.4c0-4.1,1-8,3.2-11.5
		C456.7,496.7,457.6,495.5,459.9,495.8z"/>
	<path style="fill:#0363F7;" d="M562.3,490.3c1,3.8,5,7.6,4.6,12.4c-0.4,4.7-0.3,4.6-1,9.2c-0.5,3.4-3,11.3-5,13.1
		c-0.8,0.7-1.2,0.6-1.1-1c0.1-1.3,2.1-5.6,2.4-6.8c2.1-7.3,1.7-5.9,1.7-13.3c0-2.6-2.4-11-2.1-13.6
		C562,490.4,562.2,490.3,562.3,490.3z"/>
	<path style="fill:#0363F7;" d="M541.5,531.5c3.9-10.4,6.5-16.5,5.1-32.7c1.1,3,3.4,3.2,3.4,14.2c-0.5,6.5-2.2,8.8-4.7,14.5
		C544.4,529.8,543.5,531.7,541.5,531.5z"/>
	<path style="fill:#0363F7;" d="M203,517.1c-4-6.7-5.9-15.2-5.6-24.8c0.3-8.3,2-15.9,7.3-20.2c-1,4.9-1.9,9.9-2.9,14.7
		c-1.7,8-0.9,15.4,0.6,22.8c0.5,2.3,0.7,4.7,1,7.1C203.3,516.9,203.1,517,203,517.1z"/>
	<path style="fill:#0363F7;" d="M192.1,518.4c-1.5-3.9-3.2-7.6-3.2-12.7c-0.1-4.9-0.5-9.7-0.3-14.6c0.2-3.5,1.4-6.8,3.5-8.8
		c0.9-0.8,1.3-0.7,1.3,0.9c0,1.3,0.2,2.7,0,3.9c-1.6,7.6-1.7,15.2-0.8,22.8c0.3,2.7,0,5.5,0,8.3
		C192.5,518.3,192.3,518.4,192.1,518.4z"/>
	<path style="fill:#0363F7;" d="M212.3,473.5c-3.3,11.1-6.1,22.1-4.6,34.3c-1.6-3-2.3-6.6-2.3-10.4c-0.1-6.8,0.7-13.4,2.9-19.5
		C209.1,475.5,209.9,473.4,212.3,473.5z"/>
	<path style="fill:#0363F7;" d="M296.7,523.1c-0.5-1.9-0.6-3.7,0.3-5.5c1.8-3.7,3.6-7.4,5.3-11.2c2-4.4,0.8-8.7-0.7-13
		c-0.4-1-1-2-1.3-3.1c-0.1-0.5,0.3-1.2,0.5-1.7c0.5,0.2,1.1,0.3,1.4,0.6c3.4,3.8,5.6,8,5.1,13.4c-0.4,5.1-1.4,9.9-4.5,14.1
		c-1.7,2.3-3.7,4.5-5.5,6.7C297.1,523.3,296.9,523.2,296.7,523.1z"/>
	<path style="fill:#0363F7;" d="M310.3,519.1c1-3.2,1.7-6.5,2.9-9.6c1.4-3.8,1.4-7.6,1.3-11.5c0-1.7-0.5-3.3-0.5-5
		c0-0.6,0.5-1.2,0.8-1.8c0.5,0.4,1.2,0.7,1.4,1.2c1.9,3.8,2.1,7.9,1.8,12.1c-0.3,4.4-1.4,8.4-4.1,11.9c-0.9,1.1-2,2.1-3,3.1
		C310.8,519.3,310.6,519.2,310.3,519.1z"/>
	<path style="fill:#0363F7;" d="M381.4,330c-9.6-8.4-20.3-13.1-31.4-17.6c-0.7-0.3-1.8-1-1.8-2.4c0.9-0.2,2-0.8,2.8-0.5
		c9.5,2.8,19,5.4,28.4,8.7c7,2.4,13.6,5.6,20.4,8.6c5.8,2.5,11.6,5,17.2,8c2.6,1.4,4.6,5.2,6.8,7.4c0.1,0.1-1,2.2-1.7,2.3
		c-13.6,1.4-27.2,0.8-40.6,2.7c-8.1,1.2-16.1,3.9-24,6.5c-6.1,2-11.9,5-18,7.3c-3.5,1.3-7.2,2.4-10.9,3c-3.8,0.6-7-1-9.8-3.7
		c-4.4-4.2-9.2-8.1-13.6-12.2c-1.4-1.3-2.4-3.2-3.5-4.8C326.9,332.5,353.6,329.3,381.4,330z"/>
	<g id="C2P9L7_8_">
		<g>
			<path style="fill:#0363F7;" d="M648,560.3c-1.8,1.6-3.8,1.9-6.2,1.7c-4.6-0.4-9.3-0.2-14-0.2c-7.5,0-15.1,0.1-22.6,0.2
				c-9,0.2-18.1,0.4-27.1,0.6c-5.2,0.1-10.4,0-15.7,0.1c-5.3,0.1-10.6,0.3-15.9,0.4c-5.7,0.1-11.4,0-17.1,0.1
				c-5.6,0.1-11.2,0.3-16.8,0.4c-3.8,0-7.6-0.3-11.4-0.2c-5.5,0-11,0.2-16.5,0.3c-6.5,0.1-13,0-19.5,0.1c-8.9,0.1-17.8,0.2-26.8,0.2
				c-5.4,0-10.8-0.2-16.2-0.1c-5.8,0.1-11.5,0.4-17.3,0.5c-7.6,0.1-15.3,0-22.9,0.1c-10.7,0.1-21.3,0.2-32,0.2c-3.5,0-7-0.1-10.5,0
				c-3.6,0.1-7.2,0.4-10.9,0.4c-6.9,0.1-13.8,0.2-20.7,0.2c-10.1,0.1-20.1,0.3-30.2,0.4c-9.7,0.1-19.4,0.2-29.1,0.2
				c-10.1,0.1-20.3,0.1-30.4,0.2c-13.4,0.1-26.7,0.3-40.1,0.4c-6,0-11.9-0.1-17.9-0.2c-5.7-0.1-11.5-0.4-17.2-0.3
				c-7.3,0.1-11.6,0.4-19,0.6c-4.7,0.1-8.4-0.1-13.2-0.2c-1.8,0-3.5,0.2-5.3,0.1c-1.2-0.1-6.5-0.5-7.6-0.8c-0.4-3.8,0.3-4.7,3.2-4.7
				c6.9,0.2,13.8,0.3,20.7,0.5c8.2,0.2,16.5,0.4,24.7,0.4c5.4,0,10.9-0.4,16.3-0.3c8.4,0.1,16.8,0.5,25.1,0.5
				c19.1,0,38.1-0.2,57.2-0.4c3.8,0,7.6-0.8,11.4-0.8c2.6-0.1,5.2,0.7,7.8,0.6c4.1-0.1,8.3,0.9,12.4-0.6c0.3-0.1,0.7,0,1.1,0
				c12.7,0.2,25.4,0.4,38.2,0.5c4.2,0,8.4-0.4,12.6-0.5c5.2-0.1,10.5,0,15.7,0c31.1,0,62.3,0,93.4,0c3.5,0,7-0.8,10.6-1
				c2.2-0.2,4.4-0.1,6.6-0.2c3.4-0.1,6.7-0.3,10.1-0.3c1.9,0,3.8,0.2,5.8,0.3c7.7,0,15.5,0,23.2,0c6.2,0,12.4,0.3,18.6,0.2
				c6.2-0.1,12.5-0.6,18.7-0.6c9.4-0.1,18.7,0.1,28.1,0c3.6,0,7.2-0.4,10.9-0.5c3.7-0.1,7.4,0.1,11.1,0.1c4,0,8-0.1,12-0.1
				c9.3-0.1,18.6-0.2,27.9-0.5c4.4-0.1,8.7-0.8,13.1-0.7c3.3,0,6.4,0,9.6-0.7C646.8,555.8,647.9,557.1,648,560.3z"/>
		</g>
	</g>
	<path style="fill:#0363F7;" d="M294,504.5l-0.4,8.9c0,0,0.8-1.4,1.9-3.4s1.9-4.9,1.9-7.8s0.6-4.1-2.5-7.1s-2.9-1.2-2.5-0.9
		s1.5,5.4,1.5,8S294,504.5,294,504.5z"/>
	<path style="fill:#0363F7;" d="M438.9,498.2c-1.2,1-3.7,1.7-4.3,5.4c-0.7,3.7-0.3,2.7,0,6.1s-1.4,6.8,1.2,8.6s1.1,5,1.9,2.6
		s-0.5-3.7-0.6-6s-0.2-7,0.5-9s1.2-4.8,2-6.6S438.9,498.2,438.9,498.2z"/>
	<path style="fill:#0363F7;" d="M553.9,490.8c0.1,1.9,1.9,15.4,2.3,18s0.2,9.2-1.5,11.8s-3.8,7.9-4.5,9.6s-2.6,5.6-1.1,4.2
		s5.6-7.2,6.8-10.2s4.9-16.2,4-19.2s-2.2-5.5-3.2-8.4s-1.1-4-1.6-4.5s-0.5-0.5-0.5-0.5"/>
</g>
<g id="Fills2">
	<path style="fill-rule:evenodd;clip-rule:evenodd;fill:#D8E7FF;" d="M298.3,444c-0.6-4.1,1.2-6-2.8-8.8c-4-2.8-9-3.8-9-3.8
		c-1.3,0.3-2,0.2-0.8,5.9s3,11.1,0.5,12s-5.3-0.2-9.5-3.8c-4.2-3.7-13.2-11.8-17.3-11.2c-4.2,0.7-15.3,0.3-17.8,2.2s-7.3,3.5-4.3,7
		s10.8,12.3,9.8,13.2c-1,0.8-9.2,0.3-11.8,3c-2.7,2.7-7.2,8-5.2,9.5s12.7,11.8,11,12.8s-16.7,0.3-17.3,2.3c-0.7,2,7.7,14.5,8.3,16.8
		c0.7,2.3,2.5,4.3-1,4.5c-3.5,0.2-15.7,1.5-14.5,6.3c1.2,4.8,14.2,15.8,16.7,16.7c2.5,0.8,15.7,2.3,24.2,2.2s16.7-1.3,17-6.3
		c0.3-5,0.8-14,2-17c1.2-3,5.3-7.3,6.2-9.8s0.8-8,0.8-10.8s-1.3-5.3,0.2-6.3s5.8-2.5,6.2-9.3c0.3-6.8-0.3-10.2,0.8-11.7
		S298.9,448.1,298.3,444z M270.8,511.5c-0.7,1.5-3.7,7-4.8,7.7s-2.5-2.3-6-4s-6.2-1.5-7.7-4.5s-2.9-5.3-2.9-5.3l1.1-0.5
		c2.7-0.5,13.2,0,16.2,0.8S271.5,510,270.8,511.5z M272,488.7c-1.2,4-0.7,6.7-2.7,7.2s-5.3,0-8.3-2s-8.2-4.7-8.3-7
		c-0.2-2.3,0.2-3.3,0.2-3.3c1-0.2,9.7-1.2,13.2-0.2S273.2,484.7,272,488.7z M279.5,473.7c-2.2,1.8-4.3,1.3-4.3,1.3s-5.1-2.5-8.1-5
		c-3-2.5-4-4.8-5.4-7.2c-0.6-1.1-0.9-1.6-1.1-1.7c0,0-0.1,0-0.1,0c0,0,0-0.2,0.1,0c2-0.3,11.6,0.4,14.4,0.5c2.8,0.2,5.7,0.3,6.3,3.7
		C282,468.7,281.7,471.9,279.5,473.7z"/>
	<path style="fill-rule:evenodd;clip-rule:evenodd;fill:#D8E7FF;" d="M420.8,445.7c-2.7-4.5-20.7-7-27.8-8.3s-14,1.7-15.7,0
		c-1.7-1.7-2.2-3.5-4.3-3.8c-2.2-0.3-5.7-1.2-8.5-1.8l1.3,2.3c0,0,2,0.5,2.5,4.7c0.5,4.2-8,8.7-10,12.5s2.5,7.7,2.7,13.2
		s-7.8,15.7-9,18.3s2.3,5.3-1.3,7.7c-3.7,2.3-4.2,10.7-4,12.7c0.2,2,1.3,8.3,0.2,11.5c-1.2,3.2-6.2,8.3-8,13.8
		c-1.8,5.5,1.7,6.7,5.8,6.8c4.2,0.2,6.5-6.5,9.2-8.8c2.7-2.3,2.8-0.8,8,1.8c5.2,2.7,23.7,9.8,25.5,10.7c1.8,0.8,8.5-0.5,12-3
		s5-4.2,5.8-7.2c0.8-3-8.8-8.2-11.8-9.2s0.2-3.5,4.2-4s8.2-3.7,12.8-6.5c4.7-2.8,2.2-7.8-0.8-8.8s-10.7-7-9.3-9.8
		c1.3-2.8,11.8-2.7,15.7-4.3c3.8-1.7,2.7-7.3,0.5-9.7c-2.2-2.3-10.2-8-15.1-11s5.1-0.8,11.9,0c6.8,0.8,9.8-1.8,10.5-4.3
		C424.3,458.5,423.5,450.2,420.8,445.7z M380.8,512.4c-2.8,0.8-6.9-0.2-9.4-0.3c-2.5-0.2-5.8-1.3-8.1-0.7c-2.2,0.7-3.6,1.8-4.5-0.2
		c-0.9-2.1-2.2-5.8-0.8-7.8s2.7-4.5,4-4.2s4.3,0.5,4.3,0.5c2.5,1,7.2,5.7,10.2,7.5S383.5,511.5,380.8,512.4z M388.2,488.5
		c-2.3,0.5-7.3,1-12.5,0c-5.2-1-7.5-0.3-8.3-0.7c-0.8-0.3-4.3,0.5-3-2.3c1.3-2.8-0.2-5,1.3-6.3s1.8-2.2,1.8-2.2c1.8-3,2.2-5.2,5.3-4
		c3.2,1.2,10.8,7.8,12.5,10C387,485.2,390.5,488,388.2,488.5z M392.6,463.3c-1.1,1.4-3.3,1.1-8.6,0.6s-8.7,0.7-11.8,0.2
		c-3.2-0.5-5.2-0.7-4-2.5c1.2-1.8,1.5-8.7,2.7-9.7c1.2-1,3.5-2.8,3.5-2.8c2.5,0,10.7,4,12.8,6.2
		C389.3,457.4,393.7,461.9,392.6,463.3z"/>
	<path style="fill-rule:evenodd;clip-rule:evenodd;fill:#D8E7FF;" d="M548,443.7c0-6.3-1.6-12.9-5-14.3s-10.5-4.8-8,2
		c0.3,0.8,2.4,4.4,2.6,5.3c1.9,6.6-3.1,10.9-7.6,9c-5.2-2.2-9.8-11.6-20.5-11.6c-10.7,0-25.2,0.3-23.5,6.3c1.7,6,18,16.4,10,16.4
		s-19.6,7.4-13.8,14.2c5.8,6.9,14.7,12.3,7.3,12.3s-20.5-2.8-13.9,7.7c6.6,10.5,12.5,15.7,3.9,15.7c-8.6,0-15.4,4.3-11.1,9.8
		c4.2,5.5,14.1,16.1,27.7,16.1c13.5,0,24.7,1,28.6-4.2c3.9-5.2,3.1-12.2,3.1-16.9c0-4.7,1.5-6.6,5.3-10.4s2.3-10.4,2.3-15
		c0-4.5-2.2-4.3,1.5-6.4c3.7-2.1,6.7-4.4,4.9-17C540,451.4,548,450,548,443.7z M516.9,520.5c0,0-7-3.4-9.6-4.9c-1.7-1-4-4-6.7-9.1
		c6.7,0,11.1,0,13.5,0c3.5,0,6.4,0,7.9,5.2S516.9,520.5,516.9,520.5z M519.1,497.8c0,0-7-3.4-9.6-4.9c-1.7-1-4-4-6.7-9.1
		c6.7,0,11.1,0,13.5,0c3.5,0,6.4,0,7.9,5.2S519.1,497.8,519.1,497.8z M528.2,475.2c0,0-7-3.4-9.6-4.9c-1.7-1-4-4-6.7-9.1
		c6.7,0,11.1,0,13.5,0c3.5,0,6.4,0,7.9,5.2S528.2,475.2,528.2,475.2z"/>
	<g id="C2P9L7_11_">
		<g>
			<path style="fill:#0363F7;" d="M649.3,561.3c-1.8,1.6-3.8,1.9-6.2,1.6c-4.6-0.4-9.3-0.3-14-0.3c-7.5,0-16.4,0.3-24,0.4
				c-9,0.1-18.1,0.3-27.1,0.5c-5.2,0.1-10.4-0.1-15.7,0c-5.3,0-10.6,0.3-15.9,0.3c-5.7,0.1-11.4,0-17.1,0
				c-5.6,0.1-11.2,0.3-16.8,0.3c-3.8,0-7.6-0.3-11.4-0.3c-5.5,0-11,0.2-16.5,0.2c-6.5,0-13,0-19.5,0c-8.9,0-17.8,0.1-26.8,0.1
				c-5.4,0-10.8-0.2-16.2-0.2c-5.8,0-11.5,0.4-17.3,0.4c-7.6,0.1-15.3,0-22.9,0c-10.7,0-21.3,0.1-32,0.1c-3.5,0-7-0.1-10.5-0.1
				c-3.6,0.1-7.2,0.3-10.9,0.4c-6.9,0.1-13.8,0.1-20.7,0.1c-10.1,0.1-20.1,0.2-30.2,0.2c-9.7,0.1-19.4,0.1-29.1,0.1
				c-10.1,0-20.3,0-30.4,0.1c-13.4,0.1-26.7,0.2-40.1,0.2c-6,0-11.9-0.2-17.9-0.2c-4.9-0.1-3.2,1.2-15.8,0.6
				c-7.3-0.3-16-0.6-23.4-0.5c-4.7,0.1-9.5-0.2-14.2-0.2c-1.8,0-3.5,0.2-5.3,0.1c-1.2-0.1-2.4-0.6-3.5-0.8c-0.4-3.8,0.3-4.7,3.2-4.7
				c6.9,0.2,14.9-0.3,21.8-0.2c8.2,0.2,15.3,1.1,23.6,1.2c5.4,0,10.9,0.6,16.3,0.7c8.4,0.1,19.3-1,27.6-1
				c19.1,0.1,35.6,0.6,54.7,0.5c3.8,0,7.6-0.7,11.4-0.8c2.6,0,5.2,1,7.8,0.7c2.9-0.4,4.3-0.2,12.4-0.6c0.4,0,0.7,0,1.1,0
				c12.7,0.2,25.4-0.9,38.2-0.8c4.2,0,8.4-0.4,12.6-0.4c5.2-0.1,10.5,0.5,15.7,0.5c31.1,0.1,62.3,1.3,93.4,1.4c3.5,0,7-0.7,10.6-1
				c2.2-0.2,4.4-0.1,6.6-0.1c3.4-0.1,6.7-0.2,10.1-0.3c1.9,0,3.8,0.3,5.8,0.3c7.7,0.1,15.5,0,23.2,0.1c6.2,0.1,12.4,0.3,18.6,0.3
				c6.2,0,12.5-0.5,18.7-0.5c9.4-0.1,18.7,0.2,28.1,0.1c3.6,0,7.2-0.4,10.9-0.5c3.7,0,7.4,0.2,11.1,0.2c4,0,8,0,12-0.1
				c9.3-0.1,18.6-0.1,27.9-0.3c4.4-0.1,8.7-0.7,13.1-0.6c3.3,0.1,6.4,0,9.6-0.7C646.8,557,651.8,558.2,649.3,561.3z"/>
		</g>
	</g>
	<path style="fill:#0363F7;" d="M189.1,484.9c-1.4,3.4-1.5,10.8-1.4,12.5s0.9,12.6,1.4,14.1s1.8,7.1,2.5,7.2s1.8-2.9,1.5-5.4
		s-1.5-10.5-1-14.1s1.2-8.2,1.4-10.5s1.2-7.5-0.1-7.5s-1.4,1.6-2.9,2.9S189.1,484.9,189.1,484.9z"/>
	<path style="fill:#0363F7;" d="M203.8,472.1c-0.5,1.1-3.5,5.4-4.1,6.8s-1.5,6.9-2,10s0.8,16,1.5,18.8s2.5,8.2,3.1,9.5
		s0.8,1,1.2-0.3c0.3-1.3-2-14.3-2-18s0.4-14.4,1.5-17.6s1.5-6.8,1.9-8S203.8,472.1,203.8,472.1z"/>
	<path style="fill:#0363F7;" d="M210.8,473.4c-0.8,1.9-4.5,7-4.4,8.4s-1.1,14.4-1.5,16s0.5,5.9,1.2,8s1,2.5,1.1,1.8
		s-0.4-13.6,0.9-16.2s2.4-11.5,2.8-11.8s2.1-4.6,2-5.4S210.8,473.4,210.8,473.4z"/>
	<path style="fill:#0363F7;" d="M292.4,492.6c0.2,2.9,1.1,2.4,1.1,5s0.2,9.4-0.1,11.1s-0.9,5.1-0.2,4.6s1.5-1.1,2.4-3.4
		s2.4-10,2.1-11.1s-0.2-1.4-1.8-3.1s-3.8-3.6-3.8-3.6L292.4,492.6z"/>
	<path style="fill:#0363F7;" d="M300.9,489.6c-1,1.5-0.3,1.1,0.8,3.8c1.1,2.7,3.2,7.4,2.1,9.7s-2.2,6-4.5,9.1s-2.6,6-2.6,7.4
		s-1,5.4,0.9,3.2s7-6.4,7.2-8.2s2-9.4,2.5-11s0.2-5.5-1.1-8.4s-3.9-5.9-4.2-6.1S300.9,489.6,300.9,489.6z"/>
	<path style="fill:#0363F7;" d="M314.2,492.5c-1.1,5.2,0,5.2-0.8,9.1s-2.5,11-2.6,12.4s-2,6.1,0,5s3.6-2.1,4.8-4.9s2.6-8.8,2.5-11.5
		s0.2-5.1,0-6.4s-1.4-3.9-1.4-3.9s-1.1-2.2-2-1.8S314.2,492.5,314.2,492.5z"/>
	<path style="fill:#0363F7;" d="M381.1,330.4c-8.8-8.9-20.7-12.9-31.8-17.4c-0.7-0.3-0.1-0.8-0.7-1.4c0.9-0.2,0.9-2.6,1.7-2.4
		c9.5,2.8,18.9,6.9,28.3,10.1c7,2.4,13.6,5.6,20.4,8.6c5.8,2.5,11.4,4,16.9,7c2.6,1.4,4.4,4,6.5,6.1c0.1,0.1-0.1,4.2-0.8,4.3
		c-13.6,1.4-27.5,1.1-41,3.1c-8.1,1.2-16.1,3.9-24,6.5c-6.1,2-11.1,4.1-17.2,6.4c-3.5,1.3-6.4,4.7-10.1,5.3
		c-3.8,0.6-8.6-2.4-11.4-5.1c-4.4-4.2-7-7.2-11.4-11.3c-1.4-1.3-5.3-5.6-6.4-7.2C325.4,332.2,353.3,328.7,381.1,330.4z"/>
	<path style="fill:#0363F7;" d="M436.4,499.4c-2,2.8-2.6,8.9-2.5,10.9s0,3.8,1,6.1s1.5,6.2,2.2,4.8s-0.6-5.2-0.4-8.5s0.4-7.5,1.1-9
		s2-4.6,1.9-5.1s-1.6,0.4-2,0.6S436.4,499.4,436.4,499.4z"/>
	<path style="fill:#0363F7;" d="M448.9,494.6c-1.8,2.4-1.9,0.8-4.4,5.1s-1.2,7-1.5,9.5s1.9,7.2,2.6,8.1s1.7,4.8,2.7,3.3
		c0.9-1.5-1.9-8.9-1.7-11.2s1.2-7.6,1.9-8.8s1.6-3,2-4.1s1.4-3,0.3-2.9C449.8,493.9,448.9,494.6,448.9,494.6z"/>
	<path style="fill:#0363F7;" d="M457,496c-1.1,1.6-5.1,7.8-5,11.1s0.9,7.4,1.6,8.2s1.6,4.2,1.6,0.9s-2-3.6-0.8-7.2s3.2-8.5,4.2-10.4
		s1.6-3.1,1-3.4S457,496,457,496z"/>
	<path style="fill:#0363F7;" d="M546.5,500.2c0,1.9,0.4,12.1,0.1,13.9s-1,6.4-2.6,9.1s-3,8.2-3,8.2s1.9,0.6,3.1-0.9
		s3.5-10.1,4.8-12.2s0.4-9.8,0.4-12.5s-0.1-4.2-0.4-4.8S546.5,500.2,546.5,500.2z"/>
	<path style="fill:#0363F7;" d="M553.9,491.7c0.9,3,2.2,18,1.6,21s0.6,2.9-1.6,7.8s-4.4,11.6-4.8,12.4s-0.9,3.8,1.5,0.2
		s5.8-8.9,6.8-12.6s2.8-8.4,2.4-14s-1.9-8-3.1-10.8S553.9,491.7,553.9,491.7z"/>
	<path style="fill:#0363F7;" d="M562.4,491.2c-0.1,2.8,0.5,11.1,1,14.1s-1.1,12-2.1,14.9s-2.6,6.1-1.4,5.6s3.2-2.9,4.1-6.1
		s3-6.6,3.5-10.2s0.6-4.8-0.5-8.8s-3.6-8.8-3.6-9.4S562.4,491.2,562.4,491.2z"/>
</g>
<g id="Fills3">
	<path style="fill-rule:evenodd;clip-rule:evenodd;fill:#D8E7FF;" d="M295.3,434.6c-3.3-1.4-13-6.6-10.5,0c0.3,0.8,0.6,1.7,0.8,2.6
		c1.8,6.4,2.1,14.2-2.3,12.3c-5.1-2.2-14.7-14.9-25.2-14.9s-22.8,1.8-21.1,7.6s15.7,14.6,7.9,14.6c-7.9,0-19.2,7.2-13.5,13.9
		c5.7,6.7,14.4,12,7.2,12c-7.2,0-20-2.7-13.6,7.5c6.4,10.2,12.2,15.4,3.8,15.4c-8.4,0-15,4.2-10.9,9.5c4.2,5.4,13.8,15.7,27,15.7
		c13.2,0,24.2,1,28-4.1s3-11.9,3-16.5s1.4-6.5,5.2-10.2c3.7-3.7,2.2-10.2,2.2-14.6c0-4.4-2.1-4.2,1.5-6.2c3.6-2,3.4-0.6,5.8-12.8
		c-3.1-9.1,7.7-16.3,7.7-22.4C298.3,437.9,298.6,436.1,295.3,434.6z M265.4,519.1c0,0-6.8-3.4-9.4-4.8c-1.7-1-3.9-3.9-6.6-8.9
		c6.5,0,10.9,0,13.1,0c3.4,0,6.3,0,7.7,5.1C271.8,515.5,265.4,519.1,265.4,519.1z M267.6,497c0,0-6.8-3.4-9.4-4.8
		c-1.7-1-3.9-3.9-6.6-8.9c6.5,0,10.9,0,13.1,0c3.4,0,6.3,0,7.7,5.1C274,493.4,267.6,497,267.6,497z M276.4,474.9
		c0,0-6.8-3.4-9.4-4.8c-1.7-1-3.9-3.9-6.6-8.9c6.5,0,10.9,0,13.1,0c3.4,0,6.3,0,7.7,5.1C282.8,471.3,276.4,474.9,276.4,474.9z"/>
	<path style="fill-rule:evenodd;clip-rule:evenodd;fill:#D8E7FF;" d="M421.5,446.9c-1.5-3.3-12.5-6.7-21.3-8.7
		c-8.8-2-20.2-0.5-22.2-0.3s-3.8-2.2-5-4.3c-1.2-2.2-8-1.8-8.5-1.8c0,0,1,2.7,3.2,5.2c2.2,2.5-1,5.5-5.3,8.8
		c-4.3,3.3-3.5,10.2-1.5,15s-3,10.5-6.2,16.8c-3.2,6.3-1.5,6.7-1.2,10c0.3,3.3-2.8,3-5.2,6.3c-2.3,3.3-1,11.7-0.7,16.7
		c0.3,5-6.2,11.3-8,14.7c-1.8,3.3-0.8,5.3,0.8,7.3s1.2,2.2,4.2,2.7s6.3-6.8,7.7-9.5c1.3-2.7,7.3,0.8,14.2,4.2
		c6.8,3.3,13.3,5.3,20.7,8c7.3,2.7,9-1.2,12.2-2c3.2-0.8,6.3-4.3,6.5-7.5c0.2-3.2-10.8-9.2-13-10.5c-2.2-1.3,5.3-3,9.5-3.2
		c4.2-0.2,7.5-3.5,9.4-8.1c1.9-4.6-3.9-9.4-6.4-10.1c-2.5-0.7-5.8-4-5.2-5.3c0.6-1.3,3.4-2.5,8.5-2.5c5.2,0,7.2-2.7,9-4.2
		c1.8-1.5-0.2-2.7-0.7-6.5c-0.5-3.8-6.7-6.8-9.2-8.7c-2.5-1.8-4-3.2-5-3.8c-0.6-0.4,7.3-1.3,12.7-0.7c5.3,0.7,7.3-2.2,8.2-3.8
		C424.5,459.4,423,450.2,421.5,446.9z M376.8,512.9c-4.8-1.5-7-0.5-11-1s-3.5,1.7-6-0.5c-2.5-2.2-2.8-2.2-1.8-5.7s4-6.5,4-6.5
		c2.2-0.3,5.3,1,10.5,4.8c5.2,3.8,7,5.3,7.5,7.5C380.5,513.7,381.7,514.4,376.8,512.9z M380,488.2c-5.7-0.5-12.8,0.7-15.2,0.3
		c-2.3-0.3-0.3-2.8-0.2-5.8c0.2-2.9,2.1-6,4.3-8.4c0.1-0.1,0.2-0.2,0.3-0.4c0,0,1.6-0.8,4.2-0.3c3.3,0.6,6.8,3.8,9.5,6.5
		s5.3,5.8,5.2,8.3C388,491,385.7,488.7,380,488.2z M392.6,463.3c-3.1,0.9-8.4,0.4-14.4,0.1c-6-0.3-10.7,1.5-10-1.8
		c0.7-3.3,0.7-5.8,2.3-8c1.7-2.2,3.2-3.9,3.2-3.9c1.8-1.4,6.6-0.4,11.6,4.6S395.7,462.4,392.6,463.3z"/>
	<path style="fill-rule:evenodd;clip-rule:evenodd;fill:#D8E7FF;" d="M543,428.5c-1.8-2.8-7-0.7-8.3-1.2c0,0,2,9.7,3.5,13.2
		c1.5,3.5-2.8,6.2-6.8,6.5c-4,0.3-10.3-8-13.3-11.2s-8.2-2.5-14.2-3.2c-6-0.7-15,3.5-18,5s1,5.3,9.3,13.3c8.3,8,2.2,5.2-2.5,5.7
		c-4.7,0.5-11,6.3-12.3,9.7c-1.3,3.3,10.2,13.8,10.8,15.7c0.7,1.8-16,1.8-17.3,4.8c-1.3,3,7.8,14.7,9.2,17c1.3,2.3-5.8,3.2-10.2,4.3
		c-4.3,1.2-5.2,1.7-6,5.7c-0.8,4,3,5.5,7.3,10c4.3,4.5,8.7,6.8,16.2,8.7c7.5,1.8,17,0.3,25.3,0.3c8.3,0,8.8-5.8,11.2-7
		c2.3-1.2,1.5-9.3,1.7-13.7s3-7.8,4.5-11.2s1.5-10.2,1.2-14.3c-0.3-4.2-0.3-5.7,1.7-7.2s3.5-5,5.3-8.7c1.8-3.7,0.3-14.2,1.5-17.8
		c1.2-3.7,5.2-5.8,6.2-9.7S544.8,431.4,543,428.5z M518.5,518.7c-2.2,0.8,0,1.2-3,0.5s-6.3-2.3-8.2-3.7c-1.9-1.3-5.1-6.2-6.1-7.3
		s0-2.5,0-2.5c2.5,0,14.2-0.2,15.7,0.5s3,2.3,4.2,4.3S520.7,517.9,518.5,518.7z M524.2,489c-0.7,2.5-2.3,8.5-4,8.5
		c-1.7,0-1.7,1-5-1.3c-3.3-2.3-7.5-2.8-9.3-6.5c-1.8-3.7-2.2-6-2.2-6c6.3-1,14.5,0,15.7,0.7C520.5,485,524.9,486.5,524.2,489z
		 M532.8,467.9c-1.5,3.2-2.2,8.2-5.5,7c-3.3-1.2-4.7-2.8-8.3-5.2s-4.7-2.2-6-5.2s-1.2-4.3-1.2-4.3h0.7c6.3-0.2,16.7,0.2,17.5,1.5
		S534.3,464.7,532.8,467.9z"/>
	<g id="C2P9L7_7_">
		<g>
			<path style="fill:#0363F7;" d="M649,559.3c-1.8,1.6-3.8,1.9-6.2,1.7c-4.6-0.4-9.3-0.2-14-0.2c-7.5,0-15.1,0.1-22.6,0.2
				c-9,0.2-18.1,0.4-27.1,0.6c-5.2,0.1-10.4,0-15.7,0.1c-5.3,0.1-10.6,0.3-15.9,0.4c-5.7,0.1-11.4,0-17.1,0.1
				c-5.6,0.1-11.2,0.3-16.8,0.4c-3.8,0-7.6-0.3-11.4-0.2c-5.5,0-11,0.2-16.5,0.3c-6.5,0.1-13,0-19.5,0.1c-8.9,0.1-17.8,0.2-26.8,0.2
				c-5.4,0-10.8-0.2-16.2-0.1c-5.8,0.1-11.5,0.4-17.3,0.5c-7.6,0.1-15.3,0-22.9,0.1c-10.7,0.1-21.3,0.2-32,0.2c-3.5,0-7-0.1-10.5,0
				c-3.6,0.1-7.2,0.4-10.9,0.4c-6.9,0.1-13.8,0.2-20.7,0.2c-10.1,0.1-20.1,0.3-30.2,0.4c-9.7,0.1-19.4,0.2-29.1,0.2
				c-10.1,0.1-20.3,0.1-30.4,0.2c-13.4,0.1-26.7,0.3-40.1,0.4c-6,0-11.9-0.1-17.9-0.2c-5.7-0.1-11.5-0.3-17.2-0.3
				c-6,0-10.8,0.4-19,0.6c-4.7,0.1-8.4-0.1-13.2-0.2c-1.8,0-3.5,0.2-5.3,0.1c-1.2-0.1-6.5-0.5-7.6-0.8c-0.4-3.8,0.3-4.7,3.2-4.7
				c6.9,0.2,13.8,0.3,20.7,0.5c8.2,0.2,16.5,0.4,24.7,0.4c5.4,0,10.9-0.4,16.3-0.3c8.4,0.1,16.8,0.5,25.1,0.5
				c19.1,0,38.1-0.2,57.2-0.4c3.8,0,7.6-0.8,11.4-0.8c2.6-0.1,5.2,1.2,7.8,0.6c5.3-1.2,8.3,0.9,12.4-0.6c0.3-0.1,0.7,0,1.1,0
				c12.7,0.2,25.4,0.4,38.2,0.5c4.2,0,8.4-0.4,12.6-0.5c5.2-0.1,10.5,0,15.7,0c31.1,0,62.3,0,93.4,0c3.5,0,7-0.8,10.6-1
				c2.2-0.2,4.4-0.1,6.6-0.2c3.4-0.1,9.8,0,13.2,0c1.9,0,3.8,0.2,5.8,0.3c7.7,0,14.7,0.7,22.4,0.8c6.2,0,10.1-0.8,16.3-0.9
				c6.2-0.1,12.5-0.6,18.7-0.6c9.4-0.1,18.7,0.1,28.1,0c3.6,0,7.2-0.4,10.9-0.5c3.7-0.1,7.4,0.1,11.1,0.1c4,0,8-0.1,12-0.1
				c9.3-0.1,18.6-0.2,27.9-0.5c4.4-0.1,7.7,0.2,12.1,0.3c3.3,0,7.4-2.3,10.6-1.7C648.9,556.1,648.9,556.1,649,559.3z"/>
		</g>
	</g>
	<path style="fill:#0363F7;" d="M191,483.2c-1.8,2.2-2.4,5.2-2.6,9.2s-1.4,12.9,0.2,17.6s3.3,9.8,4,8.2c0.7-1.6-0.1-8.1-0.1-12.6
		s-1.1-11.2,0.5-14s0.9-7.4,0.9-8.9s-1.5-0.9-1.7-0.5C191.9,482.7,191,483.2,191,483.2z"/>
	<path style="fill:#0363F7;" d="M203.2,472.9c-1.9,1.6-1.5,2.5-4,8.8s-1.6,12.8-1.8,16.1s1.8,10.9,2.5,13.2s2.4,6.5,3,6.1
		c0.5-0.4-0.7-4.3-0.6-7.4c0.1-3.2-2-17.2-1.6-18.9s1.4-8.5,2.5-11.1s1.5-7.5,1.5-7.5L203.2,472.9z"/>
	<path style="fill:#0363F7;" d="M210.6,474c-2.8,2.2-4.2,10.1-4.5,11.9s-1.2,10.1-0.9,14.4s1.9,6.6,2,7.2s-0.8-11.5,0.4-14.9
		s2-12,3-13.6s2.4-5.9,1.6-5.5C211.5,473.9,210.6,474,210.6,474z"/>
	<path style="fill:#0363F7;" d="M293,493.6c5.8,4.1,5.9,11.9,0.6,19.8c0.3-3.4,0.6-6.4,1-9.4c0.3-2.6-0.2-5.2-1-7.6
		C293.3,495.6,293.2,494.8,293,493.6z"/>
	<path style="fill:#0363F7;" d="M300.4,490.4c-0.6,0.8,1.5,2.3,1.6,4.6s3.6,6.1,1.8,8.1s-2.9,5.9-4.1,8s-3.2,5.8-3.1,7.6s-1,6,1.9,3
		s5.5-5.9,6.4-7.1s1.9-7,2.1-8s1.2-5.4,1.2-6.6s-1.8-6.1-1.8-6.1s-2-3.1-2.8-4s-2.2-2-2.7-1.2C300.4,489.4,300.4,490.4,300.4,490.4z
		"/>
	<path style="fill:#0363F7;" d="M314.4,491.7c-0.6,1.4-0.6,3.1-0.4,5.2s-0.1,6.4-0.9,10.4s-2.5,10-2.5,10.4s0.6,2.5,1.8,0.9
		s3.9-5.5,4.6-8.1s1.5-6.8,1.1-10.4s0.5-3.5-0.8-5.6s-2.5-3.3-2.5-3.3L314.4,491.7z"/>
	<path style="fill:#0363F7;" d="M380.6,331.2c-9.6-8.4-20.3-13.6-31.3-18.1c-0.7-0.3-1.2-1.2-1.9-1.9c0.9-0.2,3.4-1.3,4.2-1.1
		c9.5,2.8,17.6,6,26.9,9.2c7,2.4,13.6,5.6,20.4,8.6c5.8,2.5,11.6,5,17.2,8c2.6,1.4,4.7,4,6.9,6.1c0.1,0.1,0.3,2.5-0.4,2.5
		c-13.6,1.4-28.6,1.8-42.1,3.8c-8.1,1.2-16.1,3.9-24,6.5c-6.1,2-11.9,5-18,7.3c-3.5,1.3-7.2,2.4-10.9,3c-3.8,0.6-7-1-9.8-3.7
		c-4.4-4.2-9.2-8.1-13.6-12.2c-1.4-1.3-2.4-3.2-3.5-4.8C326.1,333.7,352.8,330.5,380.6,331.2z"/>
	<path style="fill:#0363F7;" d="M437.5,520.4c-1.4-2.5-3-4.9-3-7.9c-0.6-1.5-0.6-4.5,0-8.8c0.3-2.1,1.5-4,3.7-5
		c0.9-0.4,1.3-0.3,1.3,0.7c0,0.8-2.2,3.9-2.5,4.6c-1.7,4.4-0.7,6.3,0,11c0.2,1.6,1.1,3.7,1,5.4C437.9,520.4,437.7,520.4,437.5,520.4
		z"/>
	<path style="fill:#0363F7;" d="M450,493.7c-2.5,2-2.8,2-4.4,4s-3.1,8-3,9.5s1.2,5.1,1.6,6.6s4,6.8,4.1,6.8c0.1,0-0.5-1.7-0.4-4.5
		c0-2.9-1.5-8-1-9.7s1.5-6.8,2.2-8s1.5-1.2,1.6-2.8S450,493.7,450,493.7z"/>
	<path style="fill:#0363F7;" d="M456.4,497.1c-1.8,2.5-3,5-3.4,7s-0.1,7,0,7.9s1.7,4.4,1.7,4c0.1-5.7-1.4-5.5,0.5-9.7
		s3.5-8.9,3.9-9.8S456.4,497.1,456.4,497.1z"/>
	<path style="fill:#0363F7;" d="M546.2,499.5c0.6,3.5,1.9,6.8,0.4,12.5s-1.9,12-2.8,13.5s-2.9,6-2.9,6s0.9,1,2.5,0s4-10.1,5.4-13.1
		s1.2-10.6,0.4-12.5s-0.5-5.2-1.4-5.5S546.2,499.5,546.2,499.5z"/>
	<path style="fill:#0363F7;" d="M553.9,490.8c2.8,6.8,6.3,11.9,5.1,21.2c-1,8-4.8,18.3-9.8,22c1.3-4.7,4.4-10.4,5.8-15
		c2.2-7.6,0.3-13.7-0.3-21c-0.2-2.3-1.2-4.6-1.2-6.9C553.6,491,553.7,490.9,553.9,490.8z"/>
	<path style="fill:#0363F7;" d="M561.9,490.4c-0.3,2.7,1.2,11.6,1.7,14.4s-1,9.9-2.2,13.8s-1.6,6.9-1.6,6.9s2.2-0.9,3.4-3.1
		s4.4-8.4,3.9-15s0.1-5.9-1.2-10.4s-2.2-4.6-2.4-5.5S561.9,490.4,561.9,490.4z"/>
</g>
<g id="Lines">
	<g>
		<path style="fill:#002955;" d="M562.4,407c-17,1.7-34,3.7-51.1,5c-11,0.9-22.1,0.6-33.2,1.1c-6.8,0.3-13.5,1.2-20.3,1.6
			c-10.4,0.6-20.8,1.1-31.2,1.4c-7.7,0.3-15.4,0.3-23.1,0.5l56.4-0.3c9.7-0.5,19.3-0.9,29-1.5c9.4-0.6,18.8-1.3,28.2-2
			c11-0.9,22-1.7,33-2.7c3.6-0.3,7.1-0.9,10.7-1.6c3.6-0.6,7.1-1.4,10.7-2.1C568.4,406.3,565.4,406.7,562.4,407z"/>
		<path style="fill:#002955;" d="M272.9,410.4c-4.5-0.3-9-0.7-13.4-1.1c-4.6-0.4-9.1-1.2-13.7-1.3c-7-0.3-14.1-0.1-21.2-0.2
			c-5.7-0.1-11.4-0.4-17.1-0.6c-0.4,0-0.9,0.5-1.3,0.8c0.5,0.3,1,1,1.5,1c2.7,0.1,5.5,0,8.2,0.2c6.8,0.4,13.5,0.9,20.3,1.2
			c10.2,0.6,20.5,1.1,30.8,1.5c13,0.5,26,0.8,38.9,1.1c0.3,0,0.7-0.3,1.4-0.5c-0.6-0.2-0.8-0.3-1-0.3
			C295.1,411.6,284,411,272.9,410.4z"/>
		<path style="fill:#002955;" d="M287.2,314.1c9.6-1.2,19-3.9,28.3-6.5c4.7-1.3,9.1-3.8,13.5-5.9c1.1-0.5,1.9-1.6,2.9-2.4
			c-22.5,9.8-45.3,16-69.8,9.9c-0.2,0.3-0.3,0.6-0.5,0.9c1.8,1,3.5,2.6,5.4,2.8C273.7,313.7,280.6,315,287.2,314.1z"/>
		<path style="fill:#002955;" d="M414,378c6.4-5.4,12.6-11,18.9-16.6c5.4-4.8,10.8-9.7,16.2-14.6c0.5-0.5,0.5-1.5,0.9-3.1
			c-17.1,15.4-33.4,30-49.6,44.6C405.1,385.1,409.7,381.7,414,378z"/>
		<path style="fill:#002955;" d="M382.8,390.5c2.1-1.8,4.1-3.6,6.2-5.3c10.6-8.7,21.2-17.3,31.7-26c2.2-1.8,4.4-3.5,6.5-5.5
			c0.4-0.4,0.2-1.5,0.3-2.3c-0.6,0.3-1.2,0.4-1.7,0.8c-0.8,0.6-1.4,1.4-2.1,2c-9.6,8-19.2,16-28.7,24.1c-4.6,3.9-8.9,8-13.4,12.1
			c0.1,0.2,0.2,0.3,0.3,0.5C382.3,390.8,382.6,390.7,382.8,390.5z"/>
		<path style="fill:#002955;" d="M221.2,368.7c1.4,0.3,3.1,1.3,4.2,0.9c2.3-1,4.3-2.8,6.4-4.3c12.8-9.4,25.6-18.7,38.4-28.1
			c-0.1-0.3-0.3-0.6-0.4-0.8c-1.4,0.7-2.9,1.2-4.2,2.1c-14.1,9.1-28.1,18.3-42.1,27.5C222.4,366.5,221.9,367.7,221.2,368.7z"/>
		<path style="fill:#002955;" d="M220.6,280.2c5.1,3.7,10.2,7.4,15.4,10.9c2.8,1.9,5.8,3.5,8.7,5.2c0.1-0.2,0.2-0.3,0.3-0.5
			c-0.2-0.2-0.4-0.4-0.7-0.6c-8.1-6.1-16.2-12.2-24.3-18.2c-0.2-0.1-0.8-0.1-0.8,0c-0.1,0.4-0.4,1-0.2,1.4
			C219.4,279.1,219.9,279.7,220.6,280.2z"/>
		<path style="fill:#002955;" d="M521.5,354c-0.3-0.4-3.1,0.4-3.3-0.1c-4.8,3.3-9.7,6.5-14.5,9.8c0.3,0.4,0.5,0.8,0.8,1.2
			C509.2,361.7,516.6,357.2,521.5,354z"/>
		<path style="fill:#002955;" d="M307.7,412.7c0.9,0,1.7,0,2.6,0c0-0.1,0-0.2,0-0.3c-0.9,0-1.7,0-2.6,0
			C307.7,412.5,307.7,412.6,307.7,412.7z"/>
		<polygon style="fill:#002955;" points="192.9,413.5 192.9,413.5 192.9,413.5 		"/>
		<path style="fill:#002955;" d="M348.2,408.3c-4.9,3.2-9.7,6.4-14.6,9.7c0.3,0.4,0.5,0.8,0.8,1.2c4.9-3.2,12.3-7.6,17.1-10.8
			C351.2,407.9,348.4,408.7,348.2,408.3z"/>
		<path style="fill:#002955;" d="M357.2,407.3c-4.9,3.2-9.7,6.4-14.6,9.7c0.3,0.4,0.5,0.8,0.8,1.2c4.9-3.2,12.3-7.6,17.1-10.8
			C360.2,406.9,357.4,407.7,357.2,407.3z"/>
		<path style="fill:#002955;" d="M604.8,405.5c-0.6-4.9-3-13.9-4.6-16.2c-3.5-5-6.6-8.9-10.9-13.4c-6.9-7.3-14.7-10.5-23.7-14.3
			c-10.7-4.5-19.7-9.4-30.4-13.9c-6-2.5-11.6-6.1-17.6-8.5c-7.5-3-15.2-5.2-22.8-7.9c-2.8-1-6.3-3.4-8.2-5.4
			c-2.8-2.9-5.8-4.5-9.5-5.4c-2.6-0.7-5-0.8-7.6-1.6c-0.8-0.3-1.7-0.4-2.2-0.9c-2.1-2-6.3-0.6-7.4-4.6c-0.2-0.6-0.6-1.2-1-1.7
			c-3.3-3.5-7.2-6-12.3-5.8c-0.2,0-0.5-0.4-0.7-0.6c-2.9-2.4-5.5-5.8-8.8-6.9c-3.8-1.3-6.5-3.4-9.2-6.1c-1.6-1.6-3.5-2.9-5.4-4.1
			c-1.1-0.6-2.6-0.5-3.7-1.1c-5.4-3.1-10.7-7.2-16.1-10.3c-0.1,0-0.1-0.1-0.2-0.1c-3.4-1.2-7-1.9-10.2-3.4c-2.8-1.3-5.3-0.5-7.8-2.4
			c-1.7-1.2-3.5-2.5-4.7-4.2c-3.2-4.5-7.5-10.8-12.8-16.7c-4-3.3-8-7.4-11.8-7.2c-5.5,0.4-10.4,4-14,8.6c-4,6.4-4.2,16.9-8.1,20.8
			c-6.3,6.3-12.9,12.3-20.1,17.4c-4.4,3.1-10.1,4.6-15.4,5.9c-8.2,2-16.3,5-23.7,0.9c-9.4-5.2-14-21.8-19.9-30.4
			c-6.6-9.5-12.9-19.2-23.7-24.4c-2.2-1.1-5.9-1.5-7.8-0.4c-6.8,4.3-10.2,10.5-11.8,17.9c-0.7,3.2-0.2,7-1.6,9.8
			c-7.1,14.3-13.9,33.2-16.8,48.9c-3,16-5.7,32.9-5.6,49.3c0.1,5.8,0,11.6,0.1,17.5c-0.7,1.3-1.8,2.9-2.5,4.6c-1.5,3.1-2,7-2.2,8
			c0,0.1-0.1,0.3-0.1,0.4c-2.9,7.6-3.5,12.9-3,20.2c0.3,4.2,1,8.2,5.2,10.7c1.1,0.6,5.7,3.7,7.8,3.8c1.8,0.1,3.5,0.7,5.3,1
			c1.5,0.3,3,0.6,4.6,0.7c4,0.1,8.1-0.1,12.1-0.1c2.1,0,17.9-0.3,28.3-0.5c-1.3,0.7-2.5,1.6-3.5,2.7c-1.2,1.4-1.9,2.8-2,4.4
			c-0.2,3,1,5.4,2.3,7.6c2,3.3,5.4,5.3,8.1,6.9c1,0.6,2.1,1.2,3.2,1.7c-0.1,0-0.3-0.1-0.4-0.1l-0.2,0c-5-1.1-10.3-1.8-15.5,0.9
			c-3.8,1.9-5.7,6.1-4.5,9.8c0.6,1.9,1.7,3.9,3,5.4c2.3,2.7,5.1,4.8,8.2,6.3c0.5,0.2,0.9,0.5,1.3,0.7c0,0,0,0,0,0
			c-0.1,0-0.1,0-0.2,0c-0.6,0-1.2-0.1-1.8-0.2c-5.2-1.2-9.8-0.3-14,2.7c-3.2,2.3-4.4,6.2-2.8,9.9c1.9,4.7,5.8,7.5,9.3,9.7
			c0.4,0.2,0.8,0.5,1.3,0.8l0.1,0.1c-0.1,0-0.2,0.1-0.2,0c-4.2-0.8-8.3,0-12.5,2.3c-5.1,2.8-6.4,7-3.9,12.1c1.8,3.6,4.9,6.7,9,9.1
			c10.6,6,21.8,8.3,33.4,6.8c1.9-0.3,2.4,0.1,3,2c0.1,0.4,0.2,0.8,0.4,1.2c0.2,0.8,0.5,1.6,0.9,2.4c0.7,1.4,1.7,2.8,3.6,2.8h0
			c0.1,0,0.2,0,0.3,0c1.5-0.1,2.7-0.6,3.4-1.4c0.7-0.8,0.9-2,0.8-3.4c-0.2-1.7-0.6-3.4-1-5.2l0-0.1c-0.2-0.7-0.3-1.4-0.5-2.1
			c8.2-6.3,9.8-14,4.9-22.9c9.8-6.5,12.1-13.9,7.4-23c0.3-0.2,0.6-0.4,0.8-0.6c0.7-0.5,1.4-1,2-1.6c0.2-0.3,0.5-0.5,0.7-0.8l0.1-0.1
			c1.2-1.3,2.5-2.6,3.2-4.2c2.3-4.9,1.9-10.5-0.9-16l-0.1-0.2c-0.1-0.2-0.2-0.4-0.2-0.4c0,0,0.2-0.1,0.3-0.2c0.2-0.1,0.6-0.3,1-0.6
			c0.1-0.1,0.3-0.2,0.4-0.3l0.1,0c0.8-0.5,1.3-0.9,2.4-2.1c0.4-0.7,0.9-1.2,1.4-1.8c0.7-0.9,1.5-1.8,1.9-3l0,0l0,0
			c0.1,0,0.1-0.1,0.2-0.1c4.2-5.4,3-13.4-0.7-18.5c2.5,0,12.3,0.3,15.9,0.2c3.5-0.2,7-0.3,10.5-0.4c4.8-0.1,9.5,0,14.3,0
			c1.9,0,3.9,0.1,5.8,0c5.8-0.1,11.5-0.4,17.3-0.5c0.7,0,2.7,0,5.5-0.1c0,0.1,0,0.3,0,0.4c0.3,1.8,0.7,3.5,1.2,5.4
			c0.2,0.8,0.4,1.5,0.6,2.3c-8.7,6.8-10.2,14.9-4.6,24c-10.4,7.1-12.7,14.8-7.3,24.2c-0.3,0.3-0.6,0.5-0.9,0.7
			c-0.8,0.6-1.5,1.1-2.1,1.7c-0.3,0.3-0.6,0.6-0.9,0.9c-1.3,1.4-2.6,2.8-3.3,4.4c-2.3,5.1-1.8,10.9,1.5,16.6l0.1,0.2
			c0.1,0.2,0.3,0.5,0.3,0.5c0,0.1-0.2,0.2-0.4,0.3c-0.3,0.2-0.6,0.4-1.1,0.7c-0.2,0.1-0.3,0.2-0.5,0.3c-0.8,0.5-1.4,0.9-2.4,2.2l0,0
			c-0.5,0.7-1,1.3-1.4,1.9c-1.3,1.5-4.5,6.2-4.5,8.6c0.1,2.7,0.2,6.5,6.7,7.5c2.2,0.3,4.2-1.7,5.5-4.4l0.1,0l0-0.1
			c0.2-0.4,0.3-0.7,0.4-1c0.6-1.4,0.9-2.2,2.8-3.3c2.6-1.5,3.1-1.4,5.5,0.9c0.7,0.6,1.4,1.3,2.2,1.8c3.3,2,6.8,4.1,10.4,6.2
			c6.2,3.6,12.7,5.4,19.5,5.5c5.3,0.1,10.2-1.4,13-4.6c1.3-1.5,1.9-2.9,2-4.5c0.2-3.1-2.3-5.5-3.8-7.8c-2.3-3.4-6-5.4-8.9-7
			c-1.2-0.6-2.4-1.2-3.6-1.7c-0.2-0.1-0.5-0.2-0.7-0.3c0.4,0,0.8,0.1,1.2,0.2l0.2,0c5.4,1,11.1,1.5,16.7-1.3c3.9-2,5.9-6.4,4.5-10.2
			c-0.7-2-1.9-3.9-3.4-5.5c-2.5-2.7-5.6-4.9-9-6.3c-0.5-0.2-1-0.5-1.5-0.7c-0.2-0.1-0.3-0.2-0.5-0.3l0,0c0.2,0,0.5,0,0.7,0
			c0.7,0,1.4,0.1,2,0.2c5.6,1.1,10.5,0.1,15-3.2c3.4-2.5,4.5-6.5,2.7-10.2c-2.2-4.8-6.5-7.6-10.3-9.8c-0.4-0.2-0.9-0.5-1.4-0.8
			c-0.1-0.1-0.3-0.2-0.4-0.2c0,0,0.1,0,0.1,0c0.2-0.1,0.4-0.1,0.5-0.1c4.5,0.7,8.9-0.2,13.3-2.7c5.3-3,6.6-8.4,3.7-13.6
			c-2.1-3.7-5.4-6.8-10-9.2c-11.6-6-23.8-6.9-36.3-5c-2.1,0.3-2.7,0-3.5-2.1c-0.1-0.4-0.3-0.8-0.4-1.2c-0.1-0.2-0.2-0.5-0.3-0.7
			c8.4-0.1,17.4-0.3,18.9-0.3c4.5,0,16.1,0,17.3,0c5.4-0.1,53.8-0.3,59.6-0.4c6.1-0.1,12.3-0.4,18.4-0.6c8.6-0.1,17.2-0.2,25.9-0.3
			c2.9,0,10,0,18.1,0c4,3.7,5.2,7.4,3.6,10.9c-0.1,0.1-0.1,0.3-0.1,0.4c-0.6,0.9-1.7,2.1-2.7,2.7c-0.8,0.5-1.3,0.8-1.7,1
			c0,0,0,0,0,0c-0.7,0-1.4-0.4-2.7-1.7c-0.7-0.6-1.4-1.3-2.2-1.8c-3.2-2-6.7-4-10.2-6c-5.9-3.4-12.1-5.1-18.5-5.1
			c-0.1,0-0.3,0-0.4,0c-5.2,0.1-8.8,1.6-11.5,4.9c-1.2,1.5-1.8,3-1.8,4.7c-0.1,3.1,1.3,5.6,2.8,7.8c2.3,3.4,5.9,5.3,8.7,6.8
			c1.1,0.6,2.3,1.1,3.4,1.6l0.1,0.1c-0.2,0-0.3-0.1-0.5-0.1l-0.2,0c-5.2-0.9-10.8-1.3-16.1,1.7c-3.8,2.1-5.6,6.6-4.2,10.4
			c0.7,2,1.9,3.9,3.4,5.5c2.5,2.7,5.5,4.8,8.9,6.2c0.5,0.2,1,0.5,1.4,0.7c0,0,0,0,0,0c-0.1,0-0.2,0-0.3,0c-0.6,0-1.3,0-1.9-0.2
			c-5.5-1-10.2,0.2-14.4,3.5c-3.3,2.6-4.2,6.7-2.4,10.4c2.3,4.7,6.4,7.5,10.2,9.6c0.4,0.2,0.8,0.5,1.3,0.8l0.2,0.1
			c-0.1,0-0.2,0.1-0.3,0.1c-4.4-0.6-8.6,0.4-12.9,3c-5.1,3.1-6.3,7.6-3.4,12.8c2.1,3.7,5.4,6.7,9.9,9c11.3,5.7,23.2,7.5,35.1,5.3
			c2-0.4,2.5,0,3.3,1.9c0.1,0.4,0.3,0.7,0.4,1.1l0,0.1c0.3,0.8,0.6,1.7,1,2.5c0.8,1.3,1.8,2.7,3.7,2.7c0.1,0,0.1,0,0.2,0
			c0.1,0,0.2,0,0.3,0c1.6-0.2,2.7-0.8,3.4-1.7c0.7-0.9,0.9-2.1,0.6-3.6c-0.3-1.8-0.8-3.5-1.3-5.4l0-0.1c-0.2-0.7-0.4-1.4-0.6-2.1
			c8.2-7,9.5-15.1,3.9-24c9.8-7.3,11.9-15.1,6.6-24.4c0.3-0.2,0.6-0.5,0.8-0.7c0.7-0.6,1.4-1.1,2-1.8c0.2-0.3,0.4-0.5,0.7-0.8
			l0.1-0.2c1.2-1.4,2.4-2.8,3.1-4.5c2.1-5.2,1.5-11-1.7-16.6l-0.1-0.2c-0.1-0.2-0.2-0.4-0.2-0.4c0,0,0.2-0.1,0.3-0.2
			c0.2-0.2,0.6-0.4,1-0.7c0.1-0.1,0.2-0.2,0.4-0.3l0.1-0.1c0.8-0.5,1.4-1,2.3-2.3c0.4-0.7,0.9-1.3,1.3-1.9c0.7-1,1.5-1.9,1.8-3.2
			l0,0l0,0c0.1,0,0.1-0.1,0.2-0.2c3.7-5.3,2.7-12.6-0.6-17.7c12.2,0.1,23.5,0.1,24.8,0.1c2.3-0.1,4.7-0.6,7-0.8
			c1.8-0.1,4,0.5,5.5-0.1c3.5-1.3,9-2.9,11.8-4.8c3.2-2.2,5.8-5,8.4-7.6c2.2-2.2,1.1-4.6,1.6-7.4C605.7,408,605.6,406.7,604.8,405.5
			z M343.6,259.3c1.9-4.4,2.8-7,6.2-9.3c1.5-1.1,4.4-1.3,6.2-0.7c8.3,2.6,13.2,12.2,19.4,18.8c-7-1.3-13.7-1.6-19.9,1.8
			c-5.9,3.2-11.6,6.8-17.4,10.3c-0.3-0.1-0.7-0.2-1-0.3C338.9,275.1,341,263.5,343.6,259.3z M334.8,277.6c1.7,6.5-4.4,6.7-7.8,9.1
			c-2.1,1.5-4.8,2.2-7,3.1C324.9,285.9,329.9,281.7,334.8,277.6z M248.9,507.5c1.5,0.2,3,0.4,4.4,0.5l0.3,0c2.9,0.2,5.9,0.4,8.8,0.3
			c1.9-0.1,3.1,0.6,4.2,2.3c1,1.6,1.1,3.1,0.2,4.5c-0.9,1.5-2,3-3.6,3.4l-15.2-11.3C248.4,507.4,248.7,507.5,248.9,507.5z
			 M227.4,523.7c-2.8-1.9-6-4.4-7.8-8.1c-1.2-2.5-0.8-4.6,1.2-6.3c3.2-2.7,6.6-4,10.6-4c1.5,0,3.2,0.2,4.8,0.6
			c5.7,1.4,11.1,4,16.6,8c2,1.4,3.9,3,5.8,4.6c0.5,0.4,0.9,0.8,1.4,1.1c0.2,0.2,0.4,0.4,0.6,0.7c0,0,0.1,0.1,0.1,0.2
			c-1.5,0.9-3.1,1.3-5.3,1.3c-0.6,0-1.5-0.3-2.1-0.7c-5.8-3.9-11.9-6.7-18.2-8.2c-1.2-0.3-2.5-0.4-3.8-0.4l-0.7,0
			c-0.4,0-0.8,0-1.2,0.1c-0.4,0.1-0.7,0.1-1.1,0.1c-0.4,0-0.8-0.1-1.3-0.3c-0.3-0.1-0.7-0.2-1.1-0.3l-0.9-0.2l0.4,0.8
			c0.2,0.4,0.4,0.7,0.5,1.1c0.3,0.6,0.5,1.2,0.9,1.5c3.3,3,7,5.2,11.1,6.6c5.7,2,11.5,2.8,17.1,2.4c5-0.3,8.6-1.6,11.6-3.9
			c1.2-1,2.3-2.5,3.3-4.4c0.8-1.5,0.6-3.3-0.4-5.1c-0.4-0.8-0.8-1.6-1.2-2.5c-0.1-0.3-0.3-0.7-0.4-1l4.4-1.3
			c2.4,2.4,3.4,5.5,3.4,9.7c0,4.1-2,7.4-6.1,10.3c-4.4,3.1-11.2,6.4-25.4,4.1C237.7,529,232.1,526.9,227.4,523.7z M250,521.4
			c-3.1,0.2-7.2-0.5-11.1-1.8c-4.3-1.4-7.4-3.3-8.6-5.1C237.8,514.8,244.2,517.9,250,521.4z M278.3,469.9c-0.5,0.4-1,1-1.4,1.5
			c-0.5,0.6-1,1.1-1.6,1.6c-4.5-4.6-10.4-9.1-16.8-13c7.5,1.9,15.2,2.1,20.6,2C281.1,465.2,280.9,467.9,278.3,469.9z M264.9,473.8
			c-1.2-0.2-2.3-1.1-3.5-1.9c-0.3-0.3-0.7-0.5-1-0.8c-4.8-3.4-10-5.9-15.3-7.3c-1.4-0.4-2.9-0.4-4.6-0.5c-0.8,0-1.6,0-2.4-0.1
			l-0.6,0l0.2,0.6c0.1,0.3,0.2,0.7,0.3,1c0.2,0.6,0.3,1.2,0.7,1.5c0.6,0.4,1.2,0.9,1.8,1.4c2,1.5,4,3.2,6.2,4.3
			c8.5,4.2,17.7,5.3,27.5,3.3c3.1-0.6,5.7-2.5,7.7-5.4c1.4-2.1,1.5-4.4,0.3-7.1c-0.1-0.3-0.3-0.5-0.4-0.6c-0.1-0.1-0.2-0.2-0.3-0.4
			c0.8-0.2,1.7-0.5,2.6-0.7l0.3-0.1c0.8-0.2,1.5-0.4,2.1-0.6c0.7,1.4,1,2.8,1.4,4.4c0.1,0.4,0.2,0.8,0.3,1.2
			c0.9,3.3,0.4,6.6-1.3,9.3c-1.8,2.9-5,5.1-8.6,5.9c-4,0.8-7.3,1.3-10.4,1.5c-9.5,0.5-17.7-1.1-25.1-5.1c-3.3-1.7-6.3-4-8.9-6.8
			c-1.9-2-2.7-4.5-2-6.8c0.7-2.4,2.8-4.3,5.8-5c1.5-0.4,3-0.6,4.5-0.6c2,0,3.9,0.3,6.1,0.9c8.1,2.3,15.3,6.3,21.5,12l1.8,1.7
			c0,0,0,0,0,0c0,0,0,0.1,0,0.1C269.9,474,267.6,474.2,264.9,473.8z M242,465.8c3.6-0.6,13.8,3.5,17.9,7.4
			c-2.9,0.4-9.5-1.6-14.2-4.2C243.8,467.9,242.5,466.8,242,465.8z M271.7,485.4c1.1,1.2,2.3,3,1.6,5c-1.1,3.1-3.6,4.3-5.6,4.8
			c-0.8-0.6-1.5-1.2-2.2-1.8l-0.2-0.2c-1.9-1.6-3.7-3.1-5.6-4.5c-1.9-1.4-3.9-2.7-5.8-4l-0.2-0.1c-0.6-0.4-1.2-0.8-1.8-1.2
			C258.6,485.5,265.4,485.6,271.7,485.4z M271,504.1c-5.4,1.2-9.7,1.8-13.9,1.7c-7.8-0.1-14.5-1.6-20.3-4.5
			c-3.9-1.9-8.3-4.6-10.7-9.3c-1.4-2.8-1.1-4.9,1.1-6.8c2.4-2.2,5.2-3.3,8.5-3.3c0.9,0,1.9,0.1,2.9,0.3c8.5,1.5,16.3,5.5,25.2,13
			c0.3,0.3,0.6,0.7,0.9,1.1c0.1,0.1,0.2,0.3,0.3,0.4l-0.2,0.4c-0.6,0.1-1.1,0.1-1.7,0.2c-1.6,0.2-3.3,0.4-5,0.4
			c-0.4,0-1.1-0.3-1.7-0.9c-5.8-4.7-12.3-7.8-19.4-9.3c-1.2-0.2-2.4-0.2-3.8-0.1l0,0.1c0,0,0,0,0,0l-0.1-0.1c-0.6,0-1.3,0.1-2,0.1
			h-0.7l0.4,0.6c0.2,0.3,0.3,0.6,0.5,0.9c0.3,0.6,0.7,1.2,1.2,1.8c2.3,2.4,5.1,4.3,8.4,5.7l0.1-0.1c5,2.1,10.3,3.3,15.7,3.5
			c1.3,0,2.6,0,3.9-0.1c0.5,0,1,0,1.5-0.1l0,0.1c2.9-0.3,5.8-1.3,8.5-2.2l0.2-0.1c2.2-0.8,3.7-2.7,4.8-4.4c0.9-1.4,1.1-3,0.7-5.1
			c-0.2-0.8-0.4-1.6-0.7-2.5c-0.1-0.3-0.2-0.6-0.3-1l4.2-0.7c1.9,1.8,3,4.2,3.2,7c0.2,3.3-1.1,6.6-3.5,9.2
			C277.1,501.9,274.6,503.2,271,504.1z M253.3,496.9c-5,0.5-15.9-3.8-18.4-7.2C238.5,488.9,250.2,493.5,253.3,496.9z M248.7,442.9
			c-0.3-0.2-0.4-0.5-0.7-0.9c-0.1-0.1-0.1-0.2-0.2-0.3l0.1-0.2c7.3,0.5,13.7,4.1,20.3,7.9l0.5,0.3c0,0-0.1,0-0.1,0
			c-0.3,0.1-0.6,0.2-0.8,0.2C260.5,449.4,254.2,447,248.7,442.9z M293.1,432.5c3.6,3.9,4.9,10.2,3,14.9l0,0.1l0,0l0,0.1
			c0,0.1,0,0.1-0.1,0.2l0,0.1v0l0,0.1c0,0.1,0,0.1-0.1,0.2l0,0c-0.2,0.4-0.5,0.9-0.8,1.4l0,0.1c-0.1,0.4-0.2,0.8-0.4,1.2
			c-0.5,1-1.3,2-2.1,3.1c-0.3,0.5-0.7,0.9-1,1.4c-0.6,0.6-1.1,0.9-2.2,1.4c-0.6,0.3-1.4,0.7-2.5,1.4c-2.8,1.6-6.1,1.6-9.3,1.6h-0.3
			c-0.6,0-1.1,0-1.7,0c-7.5,0.1-13.5-0.7-19-2.6c-4.8-1.6-11-4.2-15.2-9.4c-2.1-2.5-2.9-4.8-2.4-6.8c0.5-2,2.3-3.8,5.4-5.2
			c2.6-1.2,5.7-1.4,9.7-0.6c7,1.4,13.8,4.6,20.2,9.6c1.3,1,2.5,2,3.7,3.1c0.5,0.5,1.1,0.9,1.6,1.4c0,0-0.1,0.1-0.2,0.1
			c-0.1,0.1-0.2,0.1-0.3,0.2c-0.9,0.2-1.7,0.4-2.4,0.6c-1,0.3-2.1,0.6-3.2,0.7c-0.5,0.1-1.2-0.3-1.7-0.7c-6.2-4.7-13-8-20.3-9.7
			c-3.4-0.8-5.6-0.4-6.3,1l0,0.1l0,0.1c0,1,1.2,2.1,2.1,2.8c6.6,5.2,14.5,7.8,24.1,8.1c7.2,0.2,12.9-2.2,16.4-6.9l0,0l0,0
			c0.2-0.1,0.3-0.2,0.4-0.4c0.1-0.1,0.1-0.2,0.2-0.4l0,0l0,0v0l0.1-0.2c0.2-0.5,0.4-1,0.5-1.6l0,0l0-0.1c0,0,0,0,0,0l0.1-0.4l0,0
			l0-0.1l0,0l0-0.2l0,0c0.5-3.6-1.3-6.8-3.4-9.2c0.2,0,0.4,0,0.6,0C288.4,432.6,290.7,432.5,293.1,432.5z M282.8,432.8
			c4,4,5.2,7.7,3.5,11.1c-0.1,0.1-0.1,0.3-0.1,0.4c-0.6,0.8-1.7,1.9-2.7,2.5c-0.8,0.4-1.3,0.7-1.7,0.8c-0.7-0.1-1.4-0.6-2.5-1.8
			c-0.6-0.6-1.3-1.3-2-1.8c-3-2-6.2-4.1-9.5-6.2c-3.2-2.1-6.6-3.6-10.1-4.6c2.5,0,5-0.1,7.5-0.1c1,0,12.8-0.3,13.2-0.3
			C279,432.8,281,432.8,282.8,432.8z M392.9,512c-8.9-2.2-16.8-6.2-23.7-11.9l-0.8-0.7c-0.4-0.3-0.8-0.7-1.2-1c0,0,0,0,0-0.1
			c0,0,0-0.1,0-0.2c2.1-1,4.7-1.4,7.6-1c1.3,0.2,2.6,1.1,3.9,2c0.4,0.3,0.8,0.5,1.1,0.8c5.3,3.4,10.9,5.8,16.7,7.1
			c1.5,0.3,3.2,0.4,4.9,0.4c0.9,0,1.8,0,2.7,0l0.5,0l-0.2-0.4c-0.2-0.4-0.3-0.7-0.4-1c-0.2-0.6-0.4-1.2-0.8-1.4
			c-0.7-0.5-1.3-0.9-2-1.4c-2.2-1.6-4.4-3.2-6.8-4.2c-9.3-4.1-19.3-5-29.7-2.7c-3.3,0.7-6,2.7-8.1,5.8c-1.4,2.2-1.5,4.5-0.1,7.3
			c0.2,0.3,0.3,0.5,0.4,0.6c0.1,0.1,0.2,0.3,0.4,0.6c-0.9,0.3-2,0.6-3.1,0.9c-1,0.3-1.9,0.6-2.6,0.8c-0.8-1.5-1.2-3-1.7-4.6
			c-0.1-0.4-0.2-0.8-0.4-1.3c-1.1-3.5-0.7-6.9,1.1-9.9c1.9-3.2,5.3-5.5,9.2-6.4c4.3-1,7.9-1.5,11.2-1.8c10.2-0.8,19.2,0.7,27.4,4.6
			c3.6,1.7,6.9,4,9.9,6.9c2.2,2.1,3.1,4.7,2.4,7.1c-0.7,2.6-2.9,4.6-6.2,5.5c-2,0.5-4,0.8-6.1,0.7
			C396.6,512.7,394.8,512.4,392.9,512z M394.2,530.1l-0.2,0.3c-8-0.3-15-3.9-22.4-7.7l-0.7-0.4c0.1,0,0.2-0.1,0.3-0.1
			c0.4-0.2,0.7-0.3,1-0.3c8.1,0.5,15,2.7,21.1,6.9c0.3,0.2,0.5,0.6,0.8,0.9C394.1,529.9,394.2,530,394.2,530.1z M360.3,523.3
			c0.9-0.2,1.7-0.4,2.6-0.7c1.1-0.3,2.2-0.7,3.4-0.8c0.5-0.1,1.3,0.3,1.8,0.7c6.9,4.8,14.4,8,22.3,9.6c3.8,0.8,6.2,0.3,7-1.4l0-0.1
			l0-0.1c0-1.1-1.4-2.2-2.4-3c-7.3-5.2-15.9-7.8-26.4-7.8c-8.6,0-15.1,3.2-18.7,9.2l0,0c0,0-2.7,4.2-4,4.3c-1.2,0.1-2.3-0.3-3.2-1
			c-1.2-1-1.9-2.8-1.9-5.1c0-1.4,3.4-6.3,4.8-8.2c0.4-0.5,0.7-1,1.1-1.5c0.6-0.6,1.1-0.9,2.2-1.5c0.7-0.4,1.5-0.8,2.7-1.5
			c3-1.7,6.5-1.8,10-1.9c0.7,0,1.3,0,1.9-0.1c8-0.3,14.6,0.3,20.6,2.1c5.3,1.6,11.9,4.1,16.6,9.4c2.3,2.6,4.3,4.9,3.9,6.9
			c-0.4,2.1-3.4,3.9-6.6,5.5c-1.9,0.9-4.1,1.3-6.6,1.2c-1.1,0-2.4-0.2-3.7-0.4c-7.6-1.3-15-4.4-22.1-9.4c-1.4-1-2.8-2.1-4.1-3.1
			c-0.5-0.4-1.1-0.8-1.6-1.3C360,523.5,360.2,523.4,360.3,523.3z M379.8,497.6c3-0.6,10.6,1.3,15.8,4c2.4,1.2,3.9,2.4,4.3,3.4
			C396,505.9,384.4,501.6,379.8,497.6z M360.3,501.5c0.6-0.5,1-1,1.5-1.6c0.5-0.6,1.1-1.3,1.7-1.8c5.2,4.8,12,9.6,19.4,13.6
			c-8.4-2-17.1-2-23.3-1.7C357.3,506.6,357.5,503.8,360.3,501.5z M388.9,487c-7.5-2.1-15-2-22-1.6c-1.9-1.8-2.6-3.6-2-5.4
			c1.1-3.3,3.9-4.7,6.1-5.3c0.9,0.7,1.8,1.4,2.7,2c2.1,1.6,4.1,3.1,6.2,4.5c2.1,1.4,4.3,2.7,6.4,4
			C387.2,485.8,388.1,486.4,388.9,487L388.9,487z M386.3,472.6c5.3-0.8,18,3.6,20.6,7.2C403.1,481,389.6,476.3,386.3,472.6z
			 M373.8,473.5l0.2-0.5c0.6-0.1,1.3-0.2,1.9-0.2c1.8-0.2,3.6-0.5,5.4-0.6c0.5,0,1.3,0.3,2,0.9c6.4,4.7,13.5,7.8,21.2,9.1
			c1.3,0.2,2.6,0.1,4.1,0c0.7-0.1,1.5-0.1,2.2-0.1l0.5,0l-0.3-0.4c-0.2-0.3-0.4-0.6-0.6-0.9c-0.4-0.7-0.8-1.3-1.3-1.8
			c-2.5-2.4-5.6-4.3-9.2-5.7c-7.4-2.8-15.1-3.7-22.9-2.8c-3.1,0.4-6.2,1.5-9.1,2.5l-0.3,0.1c-2.3,0.8-3.9,2.8-5,4.7
			c-0.9,1.4-1.1,3.1-0.5,5.2c0.2,0.8,0.5,1.7,0.9,2.6c0.1,0.4,0.3,0.7,0.4,1.1l-4.8,0.9c-2.2-1.8-3.5-4.4-3.7-7.3
			c-0.3-3.4,1-6.9,3.6-9.8c2-2.3,4.8-3.8,8.6-4.8c5.9-1.5,10.5-2.1,15-2.2c8.5-0.1,15.7,1.3,22.2,4.1c4.3,1.9,9.1,4.5,11.9,9.5
			c1.6,2.9,1.3,5.1-1,7.3c-2.8,2.6-6.2,3.8-10.2,3.7c-0.7,0-1.5-0.1-2.2-0.2c-9.3-1.3-17.8-5.3-27.7-12.9c-0.4-0.3-0.7-0.7-1-1.1
			C374.1,473.8,373.9,473.7,373.8,473.5z M390.9,461.7c-1.7-0.2-3.2-0.3-4.8-0.4l-0.4,0c-3.1-0.1-6.3-0.3-9.5-0.1
			c-2.1,0.1-3.5-0.6-4.7-2.4c-1.2-1.7-1.3-3.2-0.3-4.9c1-1.7,2.1-3.3,3.9-3.7l17.2,11.7C391.8,461.8,391.4,461.7,390.9,461.7z
			 M388.9,447c8.1-0.9,19.7,3.2,22.2,6.9C402.8,453.9,395.5,450.6,388.9,447z M378.5,449.4c-0.2-0.2-0.5-0.4-0.7-0.8
			c-0.1-0.1-0.1-0.2-0.2-0.3c1.6-1,3.4-1.5,5.8-1.6c0.7,0,1.7,0.2,2.5,0.7c6.3,3.9,13.1,6.6,19.9,8c1.3,0.3,2.7,0.3,4.1,0.3l0.8,0
			c0.4,0,0.9-0.1,1.3-0.1c0.4-0.1,0.8-0.1,1.2-0.1c0,0,0,0,0,0c0.4,0,0.9,0.1,1.5,0.3c0.3,0.1,0.7,0.2,1.2,0.3l0.6,0.2l-0.3-0.6
			c-0.2-0.4-0.4-0.8-0.6-1.1c-0.3-0.7-0.6-1.2-1-1.5c-3.6-3-7.7-5.2-12.2-6.6c-6.3-1.9-12.5-2.6-18.6-2.1c-5.3,0.5-9.2,1.9-12.3,4.4
			c-1.3,1-2.4,2.6-3.4,4.6c-0.8,1.6-0.5,3.4,0.6,5.2c0.5,0.8,0.9,1.7,1.4,2.6c0.2,0.4,0.4,0.8,0.6,1.2l-4.9,1.5
			c-2.7-2.5-4-5.7-4.1-10.2c-0.1-4.3,1.9-7.8,6.4-11c8.9-6.4,19.3-6.1,27.4-5c7,0.9,13.1,1.8,18.3,5c3.2,1.9,6.7,4.4,8.8,8.3
			c1.4,2.6,1,5.9-1.2,7.9c-3.6,3.2-7.7,4.6-12.5,4.5c-1.3,0-2.7-0.2-4.2-0.5c-6.2-1.3-12.2-3.8-18.2-7.9c-2.2-1.5-4.3-3.1-6.4-4.6
			L378.5,449.4z M370.1,438.9c-1.7-1.4-2.3-3-2-5.3c1.6-0.2,2.8,0.1,3.7,0.8c0.8,0.7,1.3,1.7,1.5,3L370.1,438.9z M370.6,431.6
			c-0.2,0.1-0.5,0.1-0.7,0C370.1,431.6,370.3,431.6,370.6,431.6z M518.2,448C518.1,448,518.1,448,518.2,448l-0.1,0
			c-0.4,0.2-0.6,0.3-0.8,0.3c-7.8-0.3-14.5-2.4-20.4-6.4c-0.3-0.2-0.5-0.5-0.7-0.9c-0.1-0.1-0.1-0.2-0.2-0.3l0.1-0.2
			c7.7,0.1,14.4,3.6,21.6,7.2L518.2,448z M528.4,519.4C528.4,519.4,528.4,519.4,528.4,519.4c-0.4,1.5-1,2.9-2.1,4.3
			c-0.3,0.4-0.7,0.8-1,1.2c-0.5,0.6-1.2,1.2-1.8,1.7c-0.2,0.2-0.4,0.4-0.7,0.5c-1.9,1.5-3.9,2.7-6.1,3.6l0,0
			c-1.5,0.6-3.1,1.2-4.8,1.5c-0.6,0.1-1.1,0.2-1.7,0.3c-1.1,0.2-2.2,0.3-3.4,0.4c-0.5,0-1.1,0.1-1.7,0.1c-0.3,0-0.7,0-1,0
			c-0.4,0-0.9,0-1.4,0c-0.4,0-0.7,0-1.1,0c-0.5,0-1.1,0-1.6-0.1c-0.3,0-0.7,0-1-0.1c-0.9-0.1-1.8-0.1-2.7-0.2
			c-1.6-0.2-3.1-0.4-4.6-0.7c-1.6-0.3-3.1-0.7-4.5-1.1c-3.1-1-6-2.2-8.6-3.8c-2.6-1.6-4.4-2.9-5.9-4.5c-0.7-0.7-1.3-1.5-1.9-2.3
			c-0.3-0.4-0.6-0.9-0.8-1.3c-0.2-0.3-0.3-0.6-0.4-1c0-0.1-0.1-0.2-0.1-0.2c-0.1-0.3-0.2-0.6-0.3-0.9c0-0.2-0.1-0.5-0.1-0.7
			c-0.1-1.4,0.6-2.8,1.9-4c2.8-2.6,5.9-4.1,9.4-4.6c0.7-0.1,1.4-0.1,2.1-0.2c0.2,0,0.5,0,0.7,0c0.1,0,0.2,0,0.4,0
			c0.5,0,1,0.1,1.6,0.1c0.1,0,0.2,0,0.2,0c0.5,0.1,1.1,0.1,1.6,0.2c3.1,0.6,6.2,1.5,9.2,2.8c2.8,1.2,5.7,2.8,8.5,4.6
			c1.9,1.3,3.8,2.6,5.9,4.1c0.6,0.5,1.3,0.9,1.9,1.4c0.1,0.1,0.2,0.1,0.3,0.2c0.1,0.2,0.3,0.3,0.4,0.5l0.1,0.1
			c0,0.1,0.1,0.1,0.1,0.2c-0.2,0.1-0.3,0.2-0.5,0.3c-1.4,0.9-3.1,1.3-5.1,1.5c-0.4,0-0.8,0-1.2-0.2c-0.4-0.1-0.8-0.3-1.2-0.5
			c-0.7-0.5-1.5-0.9-2.3-1.3c-1.5-0.9-3.1-1.6-4.7-2.3c-2.4-1.1-4.9-2-7.3-2.7c-1.7-0.5-3.4-0.9-5.1-1.2c-1.5-0.3-2.9-0.5-4.5-0.6
			c-0.3,0-0.6,0-0.8,0c-0.3,0-0.7,0-1.1,0c-0.7,0-1.1,0-2.3,1l-0.5-0.1l0.3,0.5c0.2,0.3,0.3,0.6,0.4,0.8c0,0.1,0.1,0.2,0.1,0.3
			c0.1,0.2,0.2,0.3,0.2,0.5l5.4,3.8l0,0c1,0.5,2,1,3,1.4c0.5,0.2,1.1,0.4,1.6,0.6c0.5,0.2,1.1,0.4,1.6,0.5c2.2,0.7,4.5,1.1,6.7,1.5
			c3,0.4,6,0.6,9,0.4c0.7,0,1.5-0.1,2.3-0.2c1.8-0.2,3.3-0.5,4.7-0.9c2.8-0.8,5.1-2,7-3.7c0.9-0.8,1.8-2,2.5-3.4
			c0.2-0.4,0.4-0.8,0.6-1.3c0.1-0.3,0.2-0.6,0.3-0.9c0-0.1,0-0.2,0-0.3c0-0.2,0.1-0.4,0.1-0.6c0,0,0-0.1,0-0.1l0,0
			c0-0.2,0-0.4-0.1-0.6c-0.1-0.6-0.3-1.3-0.7-2l0,0c-0.1-0.2-0.2-0.4-0.4-0.6c-0.4-0.6-0.7-1.3-1-1.9l-0.3-0.7
			c-0.2-0.4-0.4-0.8-0.6-1.2l1-0.3l2.7-0.9v0l1.1-0.4c0.3,0.3,0.7,0.6,1,1c1.8,2,2.8,4.5,3.1,7.7c0,0.5,0.1,0.9,0.1,1.4
			c0,0.3,0,0.6,0,0.9C528.7,517.8,528.6,518.6,528.4,519.4L528.4,519.4z M502.2,523.5c-3.2,0.3-7.6-0.2-11.7-1.3
			c-4.5-1.3-7.9-3-9.2-4.9C489.2,517.2,496,520.2,502.2,523.5z M529,468.5c-0.5,0.5-1,1.1-1.4,1.6c-0.5,0.6-0.9,1.2-1.5,1.7
			c-4.9-4.5-11.3-9-18.2-12.7c7.9,1.6,16,1.5,21.7,1C531.7,463.4,531.6,466.2,529,468.5z M491,466c3.7-0.9,14.6,3,19.1,6.8
			c-3,0.5-10-1.2-15-3.7C493,468.1,491.5,467,491,466z M522.5,471.9C522.5,471.9,522.5,471.9,522.5,471.9c0,0.1,0,0.1,0,0.1
			c-2,1-4.4,1.4-7.2,1.1c-1.2-0.1-2.5-1-3.7-1.8c-0.4-0.3-0.7-0.5-1.1-0.8c-5.2-3.3-10.7-5.6-16.3-6.8c-1.5-0.3-3-0.3-4.8-0.3
			c-0.8,0-1.7,0-2.6,0l-0.6,0l0.3,0.6c0.2,0.4,0.3,0.7,0.4,1c0.2,0.6,0.4,1.2,0.8,1.5c0.6,0.4,1.2,0.9,1.8,1.3l0.1,0
			c2.1,1.5,4.3,3.1,6.7,4.1c9,3.9,18.7,4.6,28.7,2.1c3.1-0.8,5.8-2.9,7.7-6c1.4-2.2,1.3-4.6-0.1-7.4c-0.2-0.3-0.3-0.5-0.4-0.6
			c-0.1-0.1-0.2-0.2-0.3-0.4c0.8-0.2,1.6-0.5,2.5-0.8l0.3-0.1c0.9-0.3,1.7-0.6,2.4-0.8c0.8,1.4,1.2,2.9,1.7,4.5
			c0.1,0.4,0.2,0.8,0.4,1.3c1.1,3.4,0.8,6.8-0.9,9.8c-1.8,3.2-5,5.6-8.6,6.5c-4.1,1.1-7.6,1.7-10.7,2c-9.8,1.1-18.5-0.3-26.4-4
			c-3.5-1.6-6.7-3.9-9.6-6.6c-2.1-2-3-4.6-2.4-7c0.6-2.6,2.7-4.6,5.8-5.5c1.5-0.5,3.1-0.7,4.7-0.8c0.3,0,0.7,0,1,0
			c1.7,0,3.5,0.2,5.4,0.7c8.6,2,16.3,5.8,23,11.4L522.5,471.9z M504.4,497.9c-5.1,0.8-16.8-3.2-19.5-6.6
			C488.5,490.2,501,494.4,504.4,497.9z M519.3,495.4c-0.8-0.6-1.5-1.1-2.2-1.7l-0.4-0.3c-2-1.5-4-3-6-4.4c-2-1.4-4.2-2.6-6.3-3.9
			l-0.1,0c-0.7-0.4-1.4-0.8-2.1-1.2c7.1,1.8,14.1,1.5,20.7,1c1.3,1.2,2.6,3,2,5.2C524,493.3,521.4,494.8,519.3,495.4z M523.2,504.4
			c-5.5,1.6-10,2.3-14.4,2.5c-8.1,0.3-15.1-0.9-21.4-3.6c-4.2-1.8-8.9-4.3-11.6-9.2c-1.6-2.8-1.3-5,0.8-7.2c2.4-2.4,5.3-3.7,8.7-3.9
			c1,0,2,0,3,0.1c8.9,1.1,17.2,4.9,26.9,12.2c0.4,0.3,0.7,0.7,1,1.1c0.1,0.1,0.2,0.3,0.3,0.4l-0.2,0.4c-0.6,0.1-1.2,0.2-1.8,0.3
			l-0.1,0c-1.7,0.3-3.4,0.5-5.1,0.7c-0.4,0-1.1-0.3-1.9-0.8c-6.3-4.6-13.2-7.5-20.6-8.6c-1.3-0.2-2.5-0.1-4,0.1
			c-0.7,0.1-1.4,0.1-2.2,0.2l-0.7,0l0.4,0.6c0.2,0.3,0.4,0.6,0.6,0.9c0.4,0.6,0.8,1.3,1.3,1.8c2.1,2,4.6,3.6,7.4,4.8l-0.4,0l1.9,0.7
			c5.1,1.9,10.4,2.8,15.7,2.8c2.2,0,4.3-0.2,6.5-0.5l2-0.3l-0.3,0c2.4-0.6,4.8-1.5,7.1-2.4l0-0.1l0,0l0.1,0.1l0.2-0.1
			c2.3-0.9,3.7-3,4.8-4.8c0.9-1.5,1-3.2,0.4-5.3c-0.2-0.9-0.5-1.7-0.9-2.6l0-0.1c-0.1-0.3-0.2-0.6-0.3-0.9l4.4-1
			c2.1,1.8,3.4,4.3,3.7,7.1c0.3,3.4-0.8,6.9-3.2,9.8C529.4,501.8,526.8,503.3,523.2,504.4z M514.6,509.3c1.9-0.2,3.3,0.5,4.5,2.2
			c1.1,1.6,1.3,3.1,0.4,4.7c-0.9,1.7-1.9,3.3-3.5,3.8l-16.4-11c0.3,0,0.6,0.1,0.9,0.1c1.6,0.1,3.1,0.3,4.7,0.3l0.3,0
			C508.4,509.5,511.5,509.5,514.6,509.3z M543.7,430.1c3,3.9,4.2,9.5,2.7,14l0,0.1l0,0l0,0.1c0,0.1,0,0.1-0.1,0.2l0,0.1v0l0,0.1
			c0,0.1,0,0.1-0.1,0.2c-0.2,0.5-0.4,1-0.8,1.5l0,0.1c0,0.4-0.2,0.8-0.4,1.3c-0.5,1-1.2,2.1-2.1,3.3c-0.3,0.5-0.7,1-1,1.5
			c-0.6,0.6-1.1,0.9-2.2,1.6l-0.1,0.1c-0.6,0.4-1.4,0.8-2.5,1.5c-2.8,1.8-6.2,2-9.6,2.2l-0.2,0c-0.6,0-1.2,0.1-1.8,0.1
			c-0.5,0-1,0.1-1.5,0.1c-7.1,0.4-12.9-0.2-18.4-1.8c-5.1-1.5-11.6-3.8-16.3-9c-2.3-2.5-3.2-4.9-2.9-7c0.4-2.1,2.2-4.1,5.3-5.7
			c2.6-1.4,5.8-1.7,10-1.1c7.4,1.1,14.6,4.1,21.5,9c1.4,1,2.7,2,4,3c0.6,0.4,1.2,0.9,1.8,1.3c0,0-0.1,0.1-0.2,0.1
			c-0.1,0.1-0.2,0.1-0.3,0.3c-0.9,0.2-1.7,0.5-2.5,0.7c-1.1,0.3-2.1,0.7-3.3,0.9c-0.7,0.1-1.6-0.5-1.9-0.6c-6.7-4.6-14-7.7-21.6-9.1
			c-3.6-0.7-5.8-0.2-6.5,1.4l0,0.1l0,0.1c0.1,1,1.3,2.1,2.3,2.8c7.1,5,15.5,7.4,25.4,7.2c0.3,0,0.6,0,0.8,0c7.1-0.3,12.5-3.1,15.9-8
			l0,0l0,0c0.2-0.1,0.3-0.2,0.4-0.4v0c0.1-0.1,0.1-0.3,0.2-0.4l0.1-0.2l0,0l0,0c0.2-0.6,0.4-1.1,0.5-1.6l0,0l0-0.1c0,0,0,0,0-0.1
			l0.1-0.4l0,0l0-0.2l0,0l0-0.2l0,0c0.3-3.4-1.3-6.4-3.4-8.7C538.1,430.1,540.9,430.1,543.7,430.1z M595.2,416.3
			c-1.9,1.7-3.8,3.4-5.9,5c-0.9,0.7-2.3,1.2-3.6,1.3c-12.4,1.4-24.8,1.8-37.3,1.7c-15.3-0.1-30.5,0.4-45.8,0.7
			c-5.5,0.1-11,0-16.6,0.1c-4.7,0.1-9.4,0.5-14.1,0.5c-5.1,0.1-10.3-0.1-15.4,0c-7.2,0.1-14.4,0.3-21.6,0.4c-7.3,0.1-14.7,0-22,0.1
			c-7.4,0.1-14.8,0.3-22.3,0.4c-7.8,0.1-15.6,0.1-23.5,0.2c-10.7,0.2-21.3,0.6-32,0.8c-7.7,0.1-15.5,0.1-23.3,0.2
			c-11,0.2-22,0.5-33,0.7c-11.8,0.2-23.5,0.2-35.3,0.4c-5.5,0.1-11.1,0.5-16.6,0.5c-8.9,0.1-17.8,0.1-26.7-0.1
			c-5.3-0.1-8.7-2.7-12-5.4c-4-3.2-4.4-7.1-3.3-11.1c0.5-1.9,0.7-3.8,0.8-5.8c0.6-1.5,1.2-2.8,1.1-4.1c-0.1-1.1-0.1-1.9-0.1-2.5
			l0.3-1.8c0,0,0,0,0-0.1l0.5-3.5l-0.4-0.5c0.3-1.9,0.7-4.3,0.5-6.6c0.1-0.2,0.4-0.4,0.5-0.5c0.1,0,0.2-0.1,0.3-0.1
			c3.6-1.4,3.2-4.4,3-7.5c-0.2-3.1-0.1-6.1-0.1-9.2c0-4.5-0.4-9-0.1-13.4c0.6-7.2,1.3-14.5,2.4-21.6c1.6-9.6,3.2-19.2,5.8-28.5
			c2.6-9.7,8.2-19,11.3-28.5c1.3-3.9,3.5-11.8,3.4-15.6c-0.1-5.4,2-9.7,3.8-14.3c2.9-7.2,8.2-7.1,13.7-3.6
			c6.5,4.2,9.8,10.9,14.1,16.9c7.2,10.1,12,28.8,22.2,36.3c1.1,0.8,2.4,1.4,3.5,2.1c11.1,6.3,22.8,0.7,34.3-1.9
			c7.4-1.7,14.8-3.8,21.6-7.1c7.8-3.8,15-8.9,22.4-13.6c8.6-5.5,17.7-6.7,27.4-3.1c3.7,1.4,7.9,2.4,10.9,4.8
			c2.9,2.3,5.1,5.9,6.7,9.3c2.6,5.4,4.2,11.2,6.6,16.6c0.6,1.4,2.8,2.2,4.2,3.3c2.3-0.4,2.7-3.4,2.6-4.9c-0.3-3.9-1.4-7.8-2.2-11.7
			c-0.3,0-0.7-0.1-1-0.1c-0.1,0.7-0.5,1.4-0.4,2.1c0.3,3.5,0.8,7,1.1,10.5c0,0.4-0.4,0.8-0.6,1.3c-0.3-0.3-0.8-0.5-0.9-0.8
			c-2.3-5.8-4.4-11.5-6.7-17.3c-0.8-2.1-1.9-4.1-2.9-6.1c0.4-0.5,0.4-0.5,0.9-0.9c1.5,0.7,3.3,0.9,5.1,2.8c1.8,2,3.3,3.1,6.4,3.1
			c5,0,8.2,3.7,10.1,8.2c2.5,5.8,5,11.6,7.5,17.4c1.3,2.9,3.6,5.5,6.6,4.5c3.3-1.1,1.7-4.9,1.2-7.2c-0.5-2.1-1.3-4.1-2-6.1
			c-0.4,0.1-0.8,0.2-1.1,0.3c0.5,3.3,0.9,6.6,1.4,9.9c-3.1,3.1-7.5-14-11.1-21.3c1.6,1.3,3.3,2.6,4.8,4c2.1,1.9,4,4.1,6.3,5.8
			c0.9,0.7,2.6,0.4,3.9,0.7c6.2,1.7,8.2,6.8,9.9,12.3c1.2,3.9,2.7,8.7,4.5,12.3c0.8,1.6,2.7,3.6,4,3.6c2.9-0.1,3.4-3.7,3-6.2
			c-0.5-2.9-1.2-5.8-1.9-8.6c-0.4,0-0.8,0.1-1.2,0.1c0.1,1.8,0.2,3.7,0.3,5.5c0.1,1,0.3,1.9,0.2,2.8c-0.1,0.9-0.4,2.7-0.6,3.5
			c-0.6-0.7-1.5-1.2-1.8-2c-2.1-4.9-4-10.7-6-15.6c0.6-0.5,0.6-0.5,1.2-1c3.3,2.1,6.6,4.1,9.8,6.4c2.1,1.6,3.2,3.8,6.7,4.5
			c6.3,1.2,9.7,1.9,12.1,11.1c1.3,4.9,3.5,9.6,5.9,14.2c0.9,1.7,3.1,1.9,4.5-0.3c1.7-2.7,1.2-10.1-1.3-12.1
			c-0.1,0.9-0.2,1.5-0.2,2.1c0,2.5,0.1,5,0,7.5c0,0.4-0.5,1.2-0.7,1.2c-0.4,0-1.1-0.4-1.3-0.8c-1.2-2.6-4.2-11.5-4.7-13.3
			c-0.5-1.7-1.3-3.4-2.4-5.9c3,1.5,5.7,2.4,7.8,3.9c3.8,2.8,7.4,5,12.2,6.5c9.6,2.9,18.8,7.5,28.1,11.5c9.5,4.1,19,8.1,28.3,12.5
			c9.6,4.5,16.5,8.9,25.8,14c4.1,2.2,7.4,5.9,11.1,8.9c-0.2,0.5-0.2,0.6-0.3,1.1c-4.2,0.3-8.4,0.7-12.6,1
			c-8.4,0.6-14.1,1.2-22.5,1.8c-7.3,0.6-14.5,1.2-21.8,1.9c-6.3,0.6-12.5,1.5-18.8,1.9c-9.2,0.7-40.1,3.3-46.4,4.1
			c-4.4,0.6-18.1,2.4-28.6,3.6l-2.6-0.1c-7.5,0.8-13.9,1.5-16.4,1.8c-15.3,1.9-30.5,1.4-45.8-0.3c-3.5-0.4-22-2.7-35.3-4.5
			l-31.4-0.8c7.3,1.3,18.6,3.5,22.8,4.2c5.4,0.9,28.1,4.1,34,4.6c8.4,0.7,16.8,1.5,25.3,1.8c6.7,0.2,13.4-0.1,20.2-0.5
			c4.5-0.3,15.7-0.6,34.1-2.5c5.4-0.5,10.7-1.7,16.1-2.6l0.5,0c7.3-0.8,21.7-2.3,29-2.9c9.7-0.8,19.5-1.6,29.2-2.5
			c7.6-0.7,37.1-3.3,44.3-4.1c10.9-1.1,19-2.5,29.8-4c2.4-0.3,7.8,16.2,10.2,22.4C600.7,410.1,597.9,413.8,595.2,416.3z"/>
	</g>
</g>
</svg>
