<svg viewBox="0 0 750 750" xmlns="http://www.w3.org/2000/svg" role="presentation">
<g id="Fills1">
	<path style="fill:#D8E7FF;" d="M166,499.3c-10-1.1,0.6,1.2-20,0c-19.5-1.1-17.1,24.9-15.9,35.7s18.8,13.7,58.2,12.6
		s64.7,1.2,85.3,0.1c15.3-0.8,51.2,9.7,65.3,7.5c14.1-2.2,65.3-1.1,84.1-1.1c18.8,0,44.7-10.6,79.4-3s58.2,1.3,63.5-4.1
		s-0.6-9.1,5.9-18.8c6.5-9.7,11.8-7.5,11.2-12.9c-0.6-5.4,7.1-8.6,6.5-11.9c-0.6-3.2-5.9-16.6-17.6-12.3c-11.8,4.3-21,28.4-40,31.8
		c-19,3.3-63.9,11.3-88.2,7.6s-62.3-4.8-85.3-9.4s-49.4-3.5-61.2-1.8c-11.8,1.8-32.9,10.8-51.8,6.5s-43.5-1.9-53.5-5.3
		C181.9,517.1,166,499.3,166,499.3z"/>
	<path style="fill:#0363F7;" d="M566,548.8c-0.2-0.8-0.4-1.6-0.5-2.4c-0.1-0.9-0.2-1.7-0.2-2.6c0-2-0.1-4-0.1-6
		c0-0.9,0.2-1.9,0.3-2.8c0-0.5,0.1-1.1-0.1-1.6c-0.2,0.7-0.5,1.3-0.7,2c-0.3,0.8-0.6,1.7-0.8,2.5c-0.3,0.8-0.5,1.7-0.8,2.5
		c0,0.2-0.1,0.3-0.2,0.5c-0.3,0.6-0.7,1.2-1.1,1.9c-0.2-0.5-0.3-0.9-0.3-1.4c-0.1-1.7,0.3-3.3,0.7-5c0.4-1.6,0.9-3.2,1.5-4.9
		c0.6-1.8,1.6-3.5,2.6-5.2c0.7-1.2,1.5-2.4,2.3-3.6c0.5-0.7,1.1-1.4,2-2.1c-0.1,0.3-0.1,0.4-0.1,0.5c-0.5,1.4-0.8,2.8-0.8,4.2
		c0,0.2-0.1,0.3-0.1,0.5c-0.2,0.9-0.3,1.7-0.5,2.6c0,0.1,0,0.3-0.1,0.4c-1.1,3.8-1.5,7.6-1.7,11.4c-0.1,1.3-0.2,2.7-0.3,4
		c0,0.6-0.2,1.2-0.4,1.9c-0.2,0.7-0.2,1.5-0.4,2.3c0,0.1,0,0.2-0.1,0.3C566.1,548.8,566,548.8,566,548.8z"/>
	<path style="fill:#0363F7;" d="M415.2,588.9c-0.4,0-0.7,0.1-0.9,0c-0.4-0.1-0.8-0.2-1.2-0.4c0.2-0.3,0.3-0.6,0.5-0.9
		c0.3-0.3,0.8-0.6,1.2-0.9c1-0.6,1-0.6,0.4-1.4c-1.3-1.7-2.6-3.3-3.9-5c-0.7-1-1.3-2.1-1.9-3.1c-0.1-0.2-0.2-0.4-0.1-0.6
		c0-0.2,0.2-0.4,0.4-0.5c0.1-0.1,0.3,0.1,0.5,0.1c0.1,0,0.1,0.1,0.1,0.1c1.4,1.7,2.8,3.5,4.2,5.2c0.3,0.4,0.4,0.8,0.7,1.2
		c0.4,0.5,0.3,1.2,1.3,1.3c0.1-0.6,0.4-1.2,0.2-1.8c-0.2-0.9-0.6-1.9-1.2-2.6c-1.4-1.9-3-3.7-4.6-5.4c-1.3-1.4-3.3-2.1-5.3-2.4
		c-1.9-0.3-3.8-0.6-5.7-0.8c-2.1-0.2-3.8,0.2-4.9,1.9c-0.6,0.9-1.5,1.6-2.2,2.4c-1.4,1.7-2.9,3.4-4.2,5.1c-0.7,1-2,1.5-3.8,1.3
		c-0.8-0.1-1.1-0.6-0.7-1.2c0.8-1.2,1.5-2.5,2.4-3.7c1.5-2,3.2-3.8,4.8-5.8c1.2-1.5,3-2.1,5-2.6c1.5-0.4,3.1-0.6,4.7-0.3
		c2.9,0.6,5.9,0.6,8.7,1.6c2.2,0.8,4,1.9,5.5,3.5c1.3,1.3,2.5,2.7,3.6,4.2c0.8,1.1,1.6,2.2,2.2,3.4c1.5,2.6,0.9,5-1.3,7.2
		c-0.4,0.4-0.7,0.6-1.3,0.6C417.3,588.6,416.3,589.4,415.2,588.9z"/>
	<path style="fill:#0363F7;" d="M588.4,558.7c0-2.6-0.1-5.1-0.1-7.6c0-0.9-0.1-1.8-0.1-2.7c0.2-2.5,0.4-5,0.6-7.4c0-0.5,0.1-1,0-1.6
		c-0.1,0.2-0.2,0.3-0.3,0.5c-0.4,1.5-0.8,3-1.2,4.4c-0.4,1.5-0.8,3.1-1.1,4.6c-0.3,1.4-0.4,2.9-0.8,4.3c-0.3,1.1-0.5,2.1-0.7,3.2
		c0,0.1-0.1,0.2-0.2,0.5c-0.2-0.9,0-1.6,0-2.2c0.1-2.2,0.4-4.5,0.8-6.7c0.1-0.5,0-1.1,0-1.6c0.1-0.6,0.3-1.1,0.4-1.7
		c0.1-0.3,0-0.7,0.1-1c0.4-1.5,0.9-3.1,1.4-4.6c0.5-1.6,1.3-3.2,2-4.8c0.4-0.8,0.8-1.7,1.2-2.5c0-0.1,0.1-0.1,0.2-0.1
		c0.1,0,0.3,0.1,0.4,0.2c0,0,0,0.1,0,0.2c-0.5,1.6,0.1,3.3-0.1,4.9c-0.1,0.9-0.1,1.8-0.2,2.6c-0.2,1.7-0.4,3.3-0.6,5
		c-0.3,2.9-0.6,5.9-0.9,8.8c0,0.2,0,0.4-0.1,0.6c-0.4,0.8-0.4,1.7-0.4,2.6C588.9,557.3,588.9,558,588.4,558.7z"/>
	<path style="fill:#0363F7;" d="M309.1,574.9c0.1-0.7,0.1-1.5,0.2-2.2c0.2-1.4,0-2.8-0.4-4.2c-0.4-1.4-1.3-2.3-3-2.6
		c-2.1-0.4-4-1.2-5.8-2.1c-0.9-0.4-1.9-0.8-3-0.9c-2.3-0.4-4.7-0.6-7.1-1c-1.3-0.2-2.2,0-3,0.9c-1.3,1.4-2.3,2.8-3.2,4.4
		c-1.2,2.2-2.5,4.5-3.4,6.8c-0.3,0.7-0.6,1.5-0.9,2.2c-0.3,0.7-1.1,0.9-1.9,0.8c-0.7-0.1-1.2-0.5-1.3-1.3c0-0.5,0-1.1,0.2-1.6
		c0.9-2.6,1.7-5.3,2.7-7.9c0.9-2.4,2.6-4.3,4.7-6c1.5-1.2,3.2-1.7,5.3-1.3c2.4,0.4,4.8,0.7,7.3,1c2.5,0.2,4.6,1,6.6,2.1
		c1.3,0.7,2.6,1.2,4.1,1.5c3.6,0.7,5.8,2.6,6.4,5.7c0.2,1.2,0.4,2.4,0.4,3.7c0,1.8-0.8,3.5-2,5c-0.2,0.2-0.3,0.5-0.4,0.7
		c-0.2,0.5-0.5,1-1.1,1.3c-0.3,0.1-0.4,0.5-0.7,0.8c-0.3,0.3-0.6,0.5-0.9,0.8c-0.1-0.3-0.2-0.6-0.2-0.9c0.1-1.1,0.2-2.1,0.2-3.2
		c0.1-0.8,0.1-1.7,0.2-2.5C309.2,574.9,309.2,574.9,309.1,574.9z"/>
	<path style="fill:#0363F7;" d="M473.7,548c-0.3,1.3-0.6,2.6-0.8,3.9c-0.7,3.6-1,7.2-1,10.8c0,1.1-0.2,2.1-0.4,3.2
		c0,0.1-0.2,0.3-0.4,0.4c-0.1-0.1-0.4-0.3-0.4-0.4c-0.1-0.4-0.3-0.8-0.3-1.2c-0.9-5.6-0.3-11.2,1.5-16.7c0.6-1.7,1.2-3.4,1.8-5.2
		c0.1-0.4,0.2-0.8,0.2-1.2c0.2-1.5,0.3-3,0.5-4.6c0-0.1,0-0.2,0-0.2c0.2-0.4,0.3-0.8,0.6-1.1c0.1-0.2,0.7,0.5,0.9,1.1
		c0,0.2,0.1,0.4,0.1,0.6c0.1,1.9,0.3,3.9,0.3,5.8c0,3.3,0.4,6.5,0.8,9.7c0.4,2.5,0.7,5,1.1,7.5c0,0.2,0.1,0.4,0,0.6
		c-0.3,0.9-0.2,1.8-0.1,2.7c0,0.1-0.1,0.2-0.2,0.4c-0.1-0.1-0.2-0.2-0.2-0.2c-0.1-0.3-0.2-0.6-0.3-0.9c-0.5-1.9-1-3.8-1.5-5.7
		c-0.3-1-0.6-2-0.8-3c-0.4-1.7-0.6-3.5-0.9-5.2c-0.1-0.4-0.2-0.7-0.3-1.1C473.9,548,473.8,548,473.7,548z"/>
	<path style="fill:#0363F7;" d="M507,556c-0.4,2,0.8,3.7,1.2,5.5c0.2,0.9,0.5,1.8,0.6,2.7c0.4,2.6,0.5,5.2,0.3,7.9
		c0,0.1,0.1,0.3,0.2,0.4c0.1-0.1,0.2-0.2,0.3-0.4c1.2-2.6,2.4-5.2,3.6-7.8c0.2-0.5,0.6-0.9,0.9-1.4c0.1-0.1,0.2-0.2,0.3-0.1
		c0.1,0,0.2,0.2,0.2,0.3c0,0.1,0,0.2-0.1,0.3c-0.9,2.4-1.8,4.9-2.7,7.3c-1,3-2,6.1-2.9,9.1c-0.2,0.6-0.3,1.2-0.6,1.9
		c-0.1,0.2-0.2,0.4-0.4,0.6c-0.1,0.1-0.3,0.2-0.5,0.2c-0.1,0-0.3-0.2-0.3-0.3c0-0.5,0-1,0.1-1.6c0-0.2,0.1-0.5,0.1-0.7
		c0-0.1-0.1-0.3-0.2-0.4c-0.1,0.1-0.2,0.2-0.3,0.2c-0.1,0.1-0.2,0.1-0.3,0.2c-0.1-0.1-0.2-0.2-0.2-0.3c0.1-0.8,0.2-1.7,0.3-2.5
		c0.8-4.2,1-8.4,0.5-12.6c0-0.3-0.2-0.6-0.3-0.9c-0.5,0.2-0.3,0.5-0.3,0.8c-0.6,3-1.1,6.1-1.9,9.1c-0.6,2.1-1.5,4.2-2.2,6.3
		c-0.1,0.1-0.2,0.3-0.3,0.4c-0.1,0.1-0.2,0.1-0.4,0.1c0-0.1-0.1-0.2-0.1-0.3c0.5-2.3,1-4.6,1.4-6.8c0.6-3.2,1.2-6.5,1.7-9.7
		c0.2-1.4,0.5-2.8,0.7-4.3c0.1-0.8,0.1-1.7,0.1-2.5c0-0.2-0.1-0.4,0-0.5c0.7-0.7,0.7-1.5,1-2.3c0-0.1,0.1-0.1,0.2-0.2
		c0.1,0.1,0.3,0.1,0.3,0.2C506.9,554.6,506.9,555.3,507,556z"/>
	<path style="fill:#0363F7;" d="M485.1,560.3c0-2,0-4-0.1-6c-0.2-3.3-0.4-6.6-0.6-9.9c-0.1-1.2-0.2-2.4-0.3-3.5
		c0-0.4-0.1-0.9,0.4-1.1c0.3-0.2,0.7,0.2,1,0.9c0.9,2.5,1.3,5.1,1.6,7.7c0.4,4.6,0.5,9.2,0.5,13.7c0,2-0.5,4-0.8,6
		c-0.1,0.5-0.4,0.9-0.6,1.4c0,0.1-0.2,0.1-0.3,0.1c-0.1,0-0.2-0.1-0.2-0.2c0-0.3,0-0.5,0-0.8c0-2.8-0.1-5.6-0.1-8.4
		C485.3,560.3,485.2,560.3,485.1,560.3z"/>
	<path style="fill:#0363F7;" d="M601.8,543.6c-0.2,0.5-0.5,1-0.6,1.5c-0.3,0.9-0.5,1.9-0.7,2.8c-0.4,2.6-1.6,5-2.5,7.5
		c-0.1,0.3-0.3,0.5-0.4,0.8c-0.1,0.1-0.2,0.1-0.3,0.2c-0.1-0.1-0.2-0.3-0.2-0.4c0-0.3,0.2-0.7,0.3-1c0.7-3.1,1.5-6.1,2-9.2
		c1-5.2,1.8-10.5,2.7-15.7c0.2-1,0.3-2.1,0.4-3.2c0-0.3,0.2-0.6,0.5-1.3c0.7,2.4,1.3,4.3,1.5,6.4c0.7,6.5,0,12.9-0.9,19.3
		c-0.7,4.3-1.8,8.4-2.9,12.6c-0.2,0.9-0.7,1.8-1,2.7c-0.1,0.2-0.4,0.3-0.7,0.5c0-0.2-0.2-0.4-0.1-0.6c0.3-1.5,0.6-3,0.9-4.5
		c0.6-3.5,1.2-7.1,1.8-10.6c0.2-1.1,0.2-2.2,0.4-3.3c0.1-0.9,0.3-1.9,0.4-2.8c0.1-0.6,0-1.2,0-1.8
		C602.2,543.6,602,543.6,601.8,543.6z"/>
	<path style="fill:#0363F7;" d="M372.4,604.2c-0.1-0.1-0.2-0.2-0.2-0.3c-0.6-4.8-1.2-9.5-0.8-14.3c0.1-1.8,0.1-3.6,0.2-5.3
		c0.2-2.6,0.6-5.1,1.4-7.6c1-2.9,2.1-5.7,3.6-8.5c0.2-0.4,0.4-0.7,0.7-1c0.2-0.3,0.6-0.5,0.9-0.7c0.1,0.4,0.2,0.8,0.2,1.1
		c-0.3,1.5-0.8,3.1-1.1,4.6c-0.8,4.1-1.7,8.2-2.3,12.4c-0.3,2.3-0.2,4.6-0.4,6.8c-0.1,2.1-0.2,4.2-0.6,6.3
		C373.5,599.9,372.9,602,372.4,604.2z"/>
	<path style="fill:#0363F7;" d="M123.9,551.5c-1.8-0.7-2.5-1.8-3.1-3c-2.4-4.6-4.5-9.3-7.4-13.7c-0.3-0.5-0.8-1-0.4-1.6
		c0.5,0.4,1,0.7,1.3,1.1c1.2,1.4,2.3,2.9,3.4,4.3c0.1,0.1,0.3,0.2,0.7,0.5c-0.3-1.2-0.5-2.1-0.7-3c-0.9-3-1.5-6.1-1.5-9.3
		c0-0.5-0.2-1-0.3-1.5c-0.1-0.5-0.4-1.1-0.5-1.6c-0.1-0.5-0.3-1,0.4-1.3c0,0,0.4,0.6,0.6,0.9c0.9,1.9,1.4,3.9,1.7,6
		c0.3,2.1,0.9,4.3,1.5,6.4c1.1,4,2.4,8,3.5,12C123.5,549,123.7,550.2,123.9,551.5z"/>
	<path style="fill:#0363F7;" d="M554.4,564.3c0.9-1.8,1.8-3.7,2.8-5.5c1.5-2.7,5.2-3.8,8.2-2.5c2,0.9,3.7,2.2,5,3.7
		c2.1,2.3,1,6.6-1.5,8c-0.8,0.5-1.5,0.4-2.4,0.3c-0.9-0.1-1.3-0.4-1.6-1.2c-0.6-1.3-1.5-2.5-2.1-3.8c-0.2-0.4-0.2-1.2,0-1.4
		c0.6-0.3,1,0.3,1.4,0.6c0.9,0.8,1.7,1.5,2.5,2.3c0.3,0.3,0.6,0.2,0.7-0.1c0.6-1.3,0.6-2.5-0.1-3.7c-0.8-1.5-2.2-2.6-3.9-3.5
		c-0.7-0.4-1.5-0.4-2.2,0c-1.9,1.2-3.9,2.4-4.9,4.3c-0.5,0.9-1.3,1.7-1.9,2.5C554.5,564.4,554.5,564.4,554.4,564.3z"/>
	<path style="fill:#0363F7;" d="M390.4,547.9c0.2,3.8-1,7.4-2,11c-0.5,1.7-1,3.5-1.7,5.2c-0.6,1.5-1.4,2.9-2.1,4.3
		c-0.2,0.3-0.4,0.6-0.6,0.8c-0.4,0.3-1,0.2-1-0.3c0-0.7,0-1.3,0.2-2c1-3.4,2-6.8,3-10.2c1.4-4.6,2.4-9.3,2.5-14c0-0.2,0-0.3,0-0.5
		c0-0.1,0.2-0.3,0.3-0.4c0.2,0.1,0.4,0.1,0.4,0.2c0.4,1.2,0.8,2.3,1.1,3.5C390.5,546.4,390.4,547.2,390.4,547.9z"/>
	<path style="fill:#0363F7;" d="M498.9,585c-0.2-1.2-0.4-2.2-0.5-3.2c-0.7-5.7-1.2-11.4-2.3-17.1c-0.2-0.8-0.3-1.7-0.4-2.5
		c0-0.1,0.1-0.2,0.2-0.3c0.1,0.1,0.3,0.1,0.3,0.2c0.9,1.5,1.4,3,1.7,4.7c0.5,2.6,1,5.1,1.1,7.7c0.1,1.5,0.4,3,0.5,4.5
		c0,1.9,0.4,3.8-0.2,5.7C499.3,584.8,499.2,584.8,498.9,585z"/>
	<path style="fill:#0363F7;" d="M122,556.7c-0.8-0.8-1.4-1.3-1.9-2c-2.4-3.1-5.5-5.7-8.7-8.2c-0.2-0.1-0.4-0.2-0.7-0.3
		c0,0.3-0.2,0.5-0.1,0.7c0.5,1.1,1.1,2.1,1.7,3.2c0.7,1.2,1.5,2.5,2.3,3.7c0.2,0.3,0.4,0.6,0.4,0.9c0.1,0.6,0.6,1.1-0.1,1.7
		c-0.6-0.4-1.3-0.6-1.7-1.1c-0.8-1.1-1.5-2.2-2.2-3.4c-1.4-2.3-2.9-4.5-3.8-7c-0.2-0.6-0.6-1.2,0.2-1.6c0.8-0.5,1.3-0.5,2.3,0.1
		c2.5,1.5,4.8,3.2,6.9,5c2,1.8,3.6,3.7,4.8,5.9C122,555.1,122.2,555.7,122,556.7z"/>
	<path style="fill:#0363F7;" d="M330.3,568.9c-0.1-1.1-0.3-2.1-0.3-3.2c-0.4-7.3-0.7-14.6-0.4-21.9c0-0.2,0.2-0.4,0.5-0.9
		c0.4,1.2,0.8,2.1,1.1,3.1c1.3,4.4,1.3,8.8,1,13.3c0,0.7,0,1.5,0,2.2c0,0.8,0,1.7-0.2,2.5c-0.3,1.5-0.8,3-1.2,4.6
		C330.8,568.7,330.6,568.7,330.3,568.9z"/>
	<path style="fill:#0363F7;" d="M158.1,575.5c-0.6-3.5-1.1-7-1.9-10.5c-0.7-3.5-1.6-7-2.5-10.5c-0.9-3.5-2-6.9-2.7-10.5
		c0.3,0.5,0.5,1.1,0.8,1.6c2.3,3.4,3.6,7.1,4.5,11c0.8,3.9,1.7,7.8,2.4,11.7c0.2,1-0.1,2.1-0.1,3.2c-0.1,1.3-0.2,2.7-0.4,4
		C158.2,575.5,158.1,575.5,158.1,575.5z"/>
	<path style="fill:#0363F7;" d="M129.8,550.8c-2.2-2.7-3.5-5.7-4.8-8.7c-1.7-3.8-3.4-7.5-4.9-11.3c-1-2.5-1.8-5.1-2.7-7.7
		c-0.1-0.2,0.1-0.4,0.1-0.6c0.2,0.1,0.5,0.2,0.6,0.4c1,1.8,2,3.5,2.8,5.3c2.4,5.4,4.8,10.8,7.1,16.3
		C128.8,546.6,129.2,548.7,129.8,550.8z"/>
	<path style="fill:#0363F7;" d="M374.5,556.2c-0.1,0-0.3,0-0.4,0c-0.7-1.9-0.7-3.8-0.4-5.8c0.6-5.4,2.2-10.7,4.1-15.8
		c1.1-2.8,2.4-5.6,4.5-8c0.1-0.2,0.4-0.3,0.6-0.4c0,0.2,0.1,0.5,0.1,0.7c0,0.2-0.1,0.4-0.2,0.6c-1.7,3.5-3.1,7-4.4,10.6
		c0.2,0.2-0.9,5.7-1.8,8.8s-2.2,9.6-2.1,9.4S374.5,556.2,374.5,556.2z"/>
	<path style="fill:#0363F7;" d="M369.4,533.9c0.2,0.4,0.4,0.7,0.5,1c0.8,3.8,1,7.6,1.2,11.5c0.2,3.4,0.5,6.8,0.5,10.2
		c0,2.4,0.2,4.9-0.6,7.3C369.6,560.4,368.4,538,369.4,533.9z"/>
	<path style="fill:#0363F7;" d="M193.9,574.1c-0.3-0.8-0.5-1.6-0.8-2.4c-1.8-5.4-5.1-10.3-8.6-15c-1.2-1.7-2.4-3.4-3.6-5.2
		c-0.2-0.2-0.2-0.5-0.1-0.9c0.3,0.2,0.5,0.4,0.8,0.5c3.9,3,6.7,6.7,9.1,10.6c1,1.7,2,3.4,2.6,5.2
		C194.1,569.2,194.5,571.6,193.9,574.1z"/>
	<path style="fill:#0363F7;" d="M212.7,533.5c4,0.1,7.8,0.9,11.5,2c0.6,0.2,1.2,0.5,1.8,0.8c0.5,0.2,0.4,0.5,0,0.7
		c-0.4,0.3-0.8,0.2-1.3,0.1c-2.2-0.4-4.4-0.8-6.6-1.2c-3.1-0.6-6.2-0.9-9.3-0.7c-0.5,0-1.2,0.2-1.3-0.3c-0.2-0.7,0.6-0.7,1.1-0.8
		C210,534,211.3,533.7,212.7,533.5z"/>
	<path style="fill:#0363F7;" d="M442.4,597.6c-0.9-3.7,1.1-33.7,2.3-36.7C445.6,568.2,444.2,592,442.4,597.6z"/>
	<path style="fill:#0363F7;" d="M496.2,580.9c0,1,0.1,2,0,3c0,0.5-0.2,1-0.3,1.5c0,0.1-0.2,0.1-0.3,0.2c0,0-0.2-0.1-0.2-0.2
		c-0.1-0.2-0.2-0.5-0.2-0.7c-0.1-1.1-0.2-2.2-0.3-3.3c-0.3-3.4-0.7-6.8-0.9-10.2c0-0.5-0.4-1.1,0.2-1.5c0.6,0.3,0.6,0.9,0.7,1.3
		c0.3,1.2,0.7,2.5,0.8,3.7c0.3,2.1,0.4,4.1,0.6,6.2C496.3,580.9,496.2,580.9,496.2,580.9z"/>
	<path style="fill:#0363F7;" d="M540.4,548.1c0.3,2.3-0.7,4.5-1.4,6.7c-0.9,2.8-2.5,5.4-4.1,8c-0.4,0.6-0.9,1.3-1.9,1.3
		c-0.4,0-0.7-0.1-0.5-0.5c0.4-0.8,0.7-1.7,1.2-2.5c1.5-2.4,2.3-5,3.4-7.5c1-2.2,1.6-4.4,1.9-6.7c0.1-0.5,0.1-1.2,1-1.5
		c0.2,0.5,0.4,1,0.5,1.6C540.4,547.4,540.4,547.7,540.4,548.1z"/>
	<path style="fill:#0363F7;" d="M363.7,597.9c0-2.4,0.4-6.4,1.5-10.2c0-0.2,0.3-0.3,0.4-0.4c0.1,0.1,0.2,0.3,0.2,0.4
		c0,2.1-0.1,4.2-0.1,6.3c0,1.7,0.1,3.3,0.2,5c0,1.4-0.1,2.8,0,4.2c0.1,1.9,0.3,3.8,0.4,5.7c0,0.5,0,1.1,0,1.6
		c-1.1-0.1-0.8-0.9-1-1.4C364.1,605.9,363.8,602.7,363.7,597.9z"/>
	<path style="fill:#0363F7;" d="M511.5,584c0-0.5-0.1-1,0-1.5c0.2-1.2,0.4-2.4,0.6-3.7c0.3-2.8,0.6-5.5,1-8.3c0,0,0-0.1,0-0.1
		c0.2-0.6-0.1-1.3,0.6-1.7c0.1,0.5,0.3,1.1,0.4,1.6c0.4,1.7,0.1,3.4,0,5.1c-0.2,1.9-0.7,3.7-0.9,5.6c-0.2,1.1-0.8,2.1-1.2,3.1
		C511.7,584,511.6,584,511.5,584z"/>
	<path style="fill:#0363F7;" d="M301.5,585.6c-0.1,0.2-0.2,0.4-0.3,0.6c-0.2-0.1-0.5-0.1-0.6-0.3c-0.4-0.6-0.8-1.2-1.1-1.8
		c-1.7-2.9-3.4-5.8-5-8.7c-0.9-1.6-1.7-3.3-2.4-4.9c-0.1-0.2,0.1-0.5,0.1-0.7c0.3,0,0.6,0,0.7,0.1c0.4,0.2,0.7,0.5,1,0.8
		c2.4,3.1,4.7,6.2,6.1,9.7C300.6,582.1,301,583.9,301.5,585.6z"/>
	<path style="fill:#0363F7;" d="M260.8,534.3c2.4-0.5,4.8-1,7.3-1.6c1.5-0.3,2.9-0.7,4.5-0.6c0.2,0,0.7,0.2,0.7,0.2
		c0,0.3-0.1,0.6-0.3,0.7c-0.3,0.2-0.8,0.3-1.2,0.4c-3.6,0.9-7.2,1.7-10.9,2.6c-0.8,0.2-1.5,0.4-2.2,0.6c-0.4,0.1-0.8,0.2-1.1,0.2
		c-0.2,0-0.5-0.1-0.7-0.2c0.1-0.2,0.2-0.5,0.4-0.6C258.3,535.5,259.5,534.9,260.8,534.3z"/>
	<path style="fill:#0363F7;" d="M599.7,496.4c0-1,0-2,0-3c0-0.2-0.1-0.5,0-0.7c0-0.2,0.2-0.4,0.3-0.6c0.2,0.1,0.4,0.2,0.5,0.4
		c0.2,0.2,0.3,0.5,0.4,0.7c1.3,3.3,1.6,6.7,0.2,10.1c-0.2,0.6-0.7,1.1-1.2,1.6c-0.2,0.3-0.6,0.1-0.6-0.2c0-0.7,0.1-1.3,0.1-2
		c0.2-2.1,0.5-4.2,0.7-6.3C599.9,496.4,599.8,496.4,599.7,496.4z"/>
	<path style="fill:#0363F7;" d="M479.5,561.6c0.5-2.1,0.9-4.1,1.4-6.2c0.3-1.3,0.7-2.5,1.1-3.8c0.1-0.2,0.1-0.4,0.2-0.6
		c0.2-0.3,0.1-0.8,0.6-0.7c0.2,0,0.3,0.6,0.3,0.9c-0.3,1.5-0.5,3.1-0.9,4.6c-0.4,1.8-0.9,3.5-1.4,5.2c-0.2,0.6-0.4,1.1-0.6,1.6
		c-0.1,0.1-0.2,0.2-0.3,0.3c-0.1-0.2-0.3-0.3-0.3-0.5c0-0.3,0.1-0.7,0.1-1C479.6,561.6,479.6,561.6,479.5,561.6z"/>
	<path style="fill:#0363F7;" d="M644.7,522.9c1,1.2,0.9,2.3,0.8,3.5c-0.3,3.2-1.6,6.2-3.8,8.8c-0.4,0.5-1,0.9-1.5,1.3
		c-0.3,0.2-0.9,0.1-0.8-0.4c0.1-0.7,0.2-1.3,0.5-1.9c0.9-2,1.9-4,2.8-6.1C643.4,526.4,644,524.7,644.7,522.9z"/>
	<path style="fill:#0363F7;" d="M407.2,555.8c1.3,0.2,2.4,0.4,3.6,0.5c2.6,0.2,5.2,0.3,7.7,0.5c2.2,0.1,4.4,0.2,6.6,0.4
		c1.2,0.1,2.3,0.5,3.4,0.8c0.1,0,0.3,0.3,0.3,0.4c0,0.1-0.2,0.3-0.4,0.3c-0.2,0.1-0.4,0-0.6,0c-4.4-0.1-8.7-0.3-13.1-0.5
		c-2.1-0.1-4.2-0.4-6.3-0.6c-0.5,0-0.9-0.2-1.3-0.4c-0.5-0.2-1.4-0.2-1.2-0.8C406,556,406.9,555.9,407.2,555.8z"/>
	<path style="fill:#0363F7;" d="M196.5,544.3c1.3,1.7,1.4,3.6,1.5,5.4c0.2,3,0.5,6,0.7,9c0.1,1.7,0.2,3.3,0.2,5
		c0,0.1-0.1,0.4-0.2,0.4c-0.2,0-0.4-0.1-0.5-0.2c-0.1-0.1-0.2-0.3-0.3-0.4c-0.8-2.6-1.5-5.3-1.5-8
		C196.5,551.7,196.5,548,196.5,544.3z"/>
	<path style="fill:#0363F7;" d="M245.4,569.1c0.6-5.8,0.7-11.7,1.8-17.5c0.1,0.2,0.2,0.4,0.3,0.6c1,3.7,1,7.5,0.4,11.3
		c-0.2,1.3-0.5,2.6-0.9,3.9c-0.2,0.6-0.7,1.2-1,1.8C245.8,569.1,245.6,569.1,245.4,569.1z"/>
	<path style="fill:#0363F7;" d="M182.9,525.7c-1.1,0.6-2,0.7-3.2,0.6c-3.1-0.2-6.2-0.3-9.3-0.4c-0.2,0-0.4,0-0.5,0
		c-0.4-0.1-0.9-0.3-1.3-0.5c0.3-0.2,0.6-0.4,1-0.6c1.2-0.5,2.6-0.4,4-0.3c2.6,0.2,5.1,0.5,7.7,0.8
		C181.7,525.3,182.2,525.5,182.9,525.7z"/>
	<path style="fill:#0363F7;" d="M239.9,543.8c2.3,7.9,2.8,15,1.8,23.1c-0.1-0.3-0.2-0.7-0.3-1c-0.2-4.2-0.4-8.4-0.7-12.5
		c-0.2-2.9-0.5-4.8-0.8-7.7C239.8,545,239.9,544.4,239.9,543.8z"/>
	<path style="fill:#0363F7;" d="M397.2,579.2c0.4,0.3,0.6,0.4,0.7,0.6c1.9,2.8,4.2,5.4,5.6,8.4c0.2,0.4,0.3,0.7,0.4,1.1
		c0.1,0.3,0.1,0.7,0.1,1.1c-0.4-0.1-0.9-0.1-1.3-0.3c-0.6-0.4-1.3-0.8-1.7-1.3c-2.1-2.5-3.1-5.4-3.9-8.3c-0.1-0.2,0-0.4,0-0.7
		C397.1,579.6,397.1,579.5,397.2,579.2z"/>
	<path style="fill:#0363F7;" d="M161.5,566.6c-2.4-6.3-4.7-12.7-7.1-19c2.7,2.6,3.9,5.9,5.2,9C160.9,559.8,161.3,563.2,161.5,566.6z
		"/>
	<path style="fill:#0363F7;" d="M641.5,520.8c-0.5,2.4-0.9,4.4-2.1,6.3c-1.4,2.2-2.8,4.4-4.2,6.7c-0.2,0.3-0.5,0.7-0.8,0.9
		c-0.2,0.2-0.6,0.2-0.8,0.3c0-0.3-0.2-0.6-0.1-0.8c0.4-0.9,0.8-1.8,1.3-2.6c2-3.4,4-6.8,6.1-10.1
		C640.9,521.3,641.1,521.1,641.5,520.8z"/>
	<path style="fill:#0363F7;" d="M304.8,578.7c-0.1,0.2-0.2,0.5-0.4,0.6c-0.2,0-0.5-0.1-0.6-0.2c-0.5-0.7-1-1.4-1.4-2.2
		c-1.3-2.2-2.7-4.4-4-6.7c-0.4-0.7-0.7-1.4-0.9-2.2c0-0.1,0.5-0.4,0.6-0.3c0.5,0.3,1.1,0.7,1.4,1.1c1.7,2.6,3.5,5.1,4.6,7.9
		C304.4,577.3,304.6,578,304.8,578.7z"/>
	<path style="fill:#0363F7;" d="M344.6,579.4c0.4-6.8,0.9-13.5,0.2-20.5c1.2,1.2,1.2,2.5,1.4,3.6c0.4,3.7,0.4,7.4-0.4,11
		c-0.3,1.4-0.5,2.9-0.8,4.3C345,578.3,344.8,578.8,344.6,579.4z"/>
	<path style="fill:#0363F7;" d="M207.8,564.4c0.1,1,0.2,2,0.3,3c0,0.6-0.1,1.1-0.2,1.7c0,0.2-0.3,0.4-0.5,0.5
		c-0.2,0-0.5-0.2-0.6-0.3c-0.3-0.8-0.7-1.7-0.8-2.6c-0.2-2.1-0.5-4.2,0.1-6.3c0.1-0.2,0.3-0.3,0.4-0.5c0.2,0.2,0.5,0.3,0.5,0.5
		c0.2,0.8,0.4,1.5,0.6,2.3c0.1,0.6,0.1,1.2,0.1,1.8C207.9,564.4,207.8,564.4,207.8,564.4z"/>
	<path style="fill:#0363F7;" d="M170.1,554.8c0.8,2,1.7,4,2.4,6c0.5,1.3,0.3,2.7-0.1,4.2C170.9,563.3,169.7,558.2,170.1,554.8z"/>
	<path style="fill:#0363F7;" d="M563.8,568.7c-0.3,0.1-0.6,0.3-0.7,0.2c-0.6-0.4-1.4-0.7-1.7-1.3c-0.9-1.4-1.6-2.9-2.3-4.4
		c-0.2-0.5-1.2-1.3-0.5-1.6c0.9-0.4,1.3,0.6,1.9,1.2c1.5,1.4,2.3,3.1,3,4.8C563.6,567.9,563.7,568.2,563.8,568.7z"/>
	<path style="fill:#0363F7;" d="M144.2,509.8c0.4-1.6,0.8-3.1,1.2-4.7c0.1-0.2,0.4-0.5,0.6-0.5c0.2,0,0.6,0.3,0.7,0.5
		c0.4,2.1,0.8,4.3-0.7,6.3c-0.4,0.5-0.7,0.5-1,0C144.7,510.9,144.5,510.3,144.2,509.8z"/>
	<path style="fill:#0363F7;" d="M308.3,575.7c-0.1,0.2-0.2,0.6-0.4,0.6c-0.2,0.1-0.6-0.1-0.8-0.3c-0.8-1.2-1.6-2.4-2.4-3.6
		c-0.6-0.9-1.1-1.9-1.6-2.9c-0.1-0.1,0.1-0.4,0.1-0.6c0.2,0,0.4,0.1,0.5,0.1c0.5,0.5,1.2,0.9,1.6,1.5c0.9,1.2,1.7,2.5,2.4,3.8
		C308.1,574.7,308.2,575.2,308.3,575.7z"/>
	<path style="fill:#0363F7;" d="M410.9,585.1c-0.2,0.1-0.4,0.2-0.5,0.2c-0.3-0.2-0.6-0.4-0.9-0.7c-1.8-2.1-3.1-4.4-4.3-6.7
		c-0.1-0.2,0.1-0.4,0.1-0.6c0.2,0.1,0.5,0.1,0.7,0.2c0.2,0.1,0.4,0.3,0.5,0.5c1.6,2.1,3.2,4.2,4.2,6.6
		C410.7,584.7,410.8,584.9,410.9,585.1z"/>
	<path style="fill:#0363F7;" d="M398.2,589.1c-2.4-1.2-4-3-4.5-5.4c0-0.1,0.1-0.3,0.2-0.4c0.1-0.1,0.3,0.1,0.5,0.1
		c0.1,0,0.1,0.1,0.1,0.1c1.3,1.8,2.7,3.5,4,5.3C398.5,588.9,398.3,589,398.2,589.1z"/>
	<path style="fill:#0363F7;" d="M544,528.5c1,0,2.5,0.8,2.6,1.4c0.1,0.4,0,1-0.3,1.2c-0.4,0.3-1.1,0.4-1.6,0.3
		c-1.2-0.3-1.9-1.6-1.3-2.6C543.5,528.7,543.8,528.5,544,528.5z"/>
	<path style="fill:#0363F7;" d="M525.1,536.8c0.2-0.2,0.3-0.7,0.8-1c0.7-0.4,1.2,0,1.7,0.5c0.1,0.1,0.1,0.2,0.2,0.3
		c0.7,0.5,0.8,1.1,0.3,1.6c-0.3,0.3-0.9,0.4-1.4,0.5c-0.7,0-1.4-0.6-1.5-1.1C525.1,537.4,525.1,537.2,525.1,536.8z"/>
	<path style="fill:#0363F7;" d="M430.7,545c0.1-0.4,0.1-0.7,0.3-1c0.1-0.2,0.6-0.4,0.7-0.4c0.7,0.3,1.5,0.7,2.1,1.2
		c0.5,0.5,0.1,1.1-0.7,1.4c-0.9,0.4-1.8,0.2-2.2-0.4C430.8,545.5,430.8,545.2,430.7,545z"/>
	<path style="fill:#0363F7;" d="M307,548.1c0,0,0.4,0,0.5,0.2c0.5,0.6,1,1.1,1.4,1.8c0.2,0.4-0.1,0.9-0.7,1.1
		c-0.5,0.2-1.1,0.1-1.4-0.3c-0.4-0.5-0.7-1.1-0.9-1.7C305.7,548.6,306,548.2,307,548.1z"/>
	<path style="fill:#0363F7;" d="M513.8,553.5c0.9,0,1.2,0.6,1.6,1.1c0.5,0.6,0.5,0.9-0.2,1.4c-0.7,0.5-1.4,0.4-1.9-0.1
		c-0.7-0.8-0.6-1.9,0.1-2.3C513.6,553.5,513.7,553.5,513.8,553.5z"/>
	<path style="fill:#0363F7;" d="M293.2,542.9c1.2,0,2.2,1.2,1.7,2.2c-0.3,0.5-1.1,0.7-1.5,0.3c-0.4-0.4-0.8-0.9-1.1-1.3
		C291.9,543.4,292.4,542.9,293.2,542.9z"/>
	<path style="fill:#0363F7;" d="M194.2,532.7c0.1,0,0.5,0,0.6,0.2c0.4,0.6,0.9,1.2,1.1,1.9c0.1,0.2-0.4,0.6-0.7,0.8
		c-0.1,0.1-0.6-0.2-0.7-0.3c-0.4-0.5-0.8-1.1-1.1-1.7C193.1,533.1,193.5,532.8,194.2,532.7z"/>
	<path style="fill:#0363F7;" d="M312.7,541.2c0-0.5,0.7-0.9,1.3-0.7c0.1,0,0.2,0.1,0.3,0.2c0.6,0.4,1.1,1.3,0.8,1.8
		c-0.2,0.2-0.7,0.4-1,0.4C313.4,542.7,312.8,542,312.7,541.2z"/>
	<path style="fill:#0363F7;" d="M405.8,538.8c0.6,0.6,1,1,1.4,1.5c0.1,0.1-0.2,0.4-0.4,0.5c-0.2,0.1-0.6,0.2-0.7,0.1
		c-0.4-0.4-1-0.7-0.8-1.4C405.4,539.2,405.5,539.1,405.8,538.8z"/>
	<path style="fill:#0363F7;" d="M452.6,553.3c0.7,0,1.4,0.5,1.3,0.9c-0.1,0.2-0.4,0.4-0.7,0.5c-0.5,0.1-1.1-0.5-1-1
		C452.3,553.5,452.5,553.4,452.6,553.3z"/>
	<path style="fill:#0363F7;" d="M609,516.8c0.3,0.4,0.7,0.6,0.7,0.8c0.1,0.2-0.2,0.5-0.3,0.7c-0.3-0.2-0.7-0.4-0.9-0.7
		C608.4,517.5,608.7,517.2,609,516.8z"/>
	<path style="fill:#0363F7;" d="M363.2,399.1c-8.5-7.5-18-11.6-27.8-15.6c-0.7-0.3-1.6-0.9-1.6-2.1c0.8-0.2,1.8-0.7,2.5-0.5
		c8.4,2.5,16.9,4.8,25.1,7.7c6.2,2.2,12.1,5,18.1,7.6c5.1,2.3,10.3,4.5,15.2,7.1c2.3,1.3,4.1,4.6,6,6.6c0.1,0.1-0.9,2-1.5,2
		c-12,1.2-24.1,0.7-36,2.4c-7.2,1-14.3,3.5-21.2,5.8c-5.4,1.8-10.6,4.5-15.9,6.5c-3.1,1.2-6.4,2.2-9.7,2.7c-3.3,0.6-6.2-0.9-8.7-3.3
		c-3.9-3.7-8.1-7.2-12.1-10.9c-1.3-1.2-2.1-2.8-3.1-4.2C314.9,401.4,338.5,398.5,363.2,399.1z"/>
	<path style="fill:#0363F7;" d="M137.7,499.4c-1,1.2-0.5,3.3,0,6.9s1.5,6.6,1.7,5.1s0.4-5.8,0.1-7.5s-0.7-4.7-1-4.6
		C138.1,499.6,137.7,499.4,137.7,499.4z"/>
	<path style="fill:#0363F7;" d="M165.4,528.1c2.9-0.4,10.1,0.2,12.4,0.8s5.4,1.4,3.2,1.8s-11.1,0.5-12.9,0.2s-4.9-1.5-5.8-1.3
		C161.5,529.7,165.4,528.1,165.4,528.1z"/>
	<path style="fill:#0363F7;" d="M164.6,549.5c-0.6,1.1-1.5,2.8-1.4,5.6s-0.2,6.1,0.9,8.2s2,4.2,2.4,2.9s-0.6-3.4-1-4.9
		s-0.8-5.8-0.7-7.4s0.8-4.2,0.5-5.1S164.6,549.5,164.6,549.5z"/>
	<path style="fill:#0363F7;" d="M175.4,547.9c1,1.9,4.1,6.8,5.3,8.2s3.1,4.9,3.6,6.4s2.6,6.7,2.6,6.7s-0.4-3.6-0.8-5.6
		s-2.2-6.2-3-7.6s-2.9-4.5-4.2-5.4S175.4,547.9,175.4,547.9z"/>
	<path style="fill:#0363F7;" d="M200.9,552.9c-0.1,1-0.2,4.9-0.2,7.1s-0.4,4.9-0.2,6.2s1,3.1,1.7,2.2s1.3-4.1,1.2-6.4
		s-0.4-5.2-0.9-7.2s-0.4-2.8-0.8-2.9S200.9,552.9,200.9,552.9z"/>
	<path style="fill:#0363F7;" d="M206,548.6c0.9,0.1,2.1,1,2.2,1.5s0.4,0.9-0.1,1.2s-2.4,0-2.5-0.9S206,548.6,206,548.6z"/>
	<path style="fill:#0363F7;" d="M257.1,532.4c0.6-0.7,2.9-1.3,4.1-1.5s6.3-1.2,8.1-1.1s4.1-0.3,3.8,0.4s-1.1,1.5-3.5,1.5
		s-7.4,0.8-9.1,1.2s-4.2,1.3-4.4,0.8S257.1,532.4,257.1,532.4z"/>
	<path style="fill:#0363F7;" d="M267.8,562c-1.1,1.6,0.1,4.7,0.1,8.4s0.7,14.2,1.2,16.4s1.9,6,2.2,4.1s0.8-9.2,0.1-13.3
		s-2.2-11.2-2.6-13.6c-0.4-2.4-0.8-1.9-0.8-1.9H267.8z"/>
	<path style="fill:#0363F7;" d="M279.7,588.8c-0.8,1.5-1.4,5.3-1.7,8.2s-0.1,5.5,0.4,5.4s2.1-3.1,2.5-5.9s-0.1-8.1-0.1-8.1
		L279.7,588.8z"/>
	<path style="fill:#0363F7;" d="M288.8,573.7c0,0.7,0.8,4.9,2.1,6.8s4.7,7.4,4.9,6.6s0.6-3.7-1.3-6.6s-2.9-4.7-3.8-5.7
		S288.8,573.7,288.8,573.7z"/>
	<path style="fill:#0363F7;" d="M339.1,551.8c-0.7,2.8-1.4,6.6-0.1,9.5s1.6,5.4,1.7,4.4s-0.1-5.8-0.1-7.3s-0.2-6-0.5-6.6
		S339.1,551.8,339.1,551.8z"/>
	<path style="fill:#0363F7;" d="M358.6,542.4c-0.4,2.1-0.6,6.4-0.4,8.8s0.3,8.6,0.6,7.8c0.3-0.8,1.9-6.5,1.7-8.2s-0.6-5.1-0.9-6.6
		s-0.7-2.1-0.7-2.1L358.6,542.4z"/>
	<path style="fill:#0363F7;" d="M411.8,552.3c0.2-0.3-0.3-0.8,0.8-1c1.1-0.2,2.5-0.8,4.5-0.2c2,0.5,7.2,1.5,9.1,1.8s5.3,1,4.8,1.5
		s-7.4-0.5-9.2-0.7c-1.8-0.1-7.2-0.9-8.2-1.1C412.4,552.4,411.8,552.3,411.8,552.3z"/>
	<path style="fill:#0363F7;" d="M440,572.9c-0.3,1.5-1.3,11.9-1.5,13.4c-0.2,1.5-0.5,8-0.2,9.1c0.3,1.2,1,3,1.1,2.7
		c0.1-0.2,0-6.4,0.2-8.6s0.6-9.6,0.8-10.7c0.2-1.1,0.4-6.2-0.1-6C439.8,573,440,572.9,440,572.9z"/>
	<path style="fill:#0363F7;" d="M462.5,558.1c0.1,1.2,0.4,6.1,0.8,7.1s1.2,5,1.5,6.8s1.4,8,1.8,7.5c0.5-0.4,1.4-5.6,1.1-7.3
		c-0.3-1.7-1.8-8.3-2.2-9.5c-0.5-1.2-1.5-3.7-1.9-4.3c-0.4-0.7-0.6-1.2-0.9-0.9S462.5,558.1,462.5,558.1z"/>
	<path style="fill:#0363F7;" d="M508,541.3c-0.3,0.3-1.1,1.2,0,1.7s1.9-0.4,1.8-0.9s-1.1-1.3-1.4-1.2C508,541,508,541.3,508,541.3z"
		/>
	<path style="fill:#0363F7;" d="M545.1,541.6c-0.5,0.8-1,2.6-1,3.4s-2,9-2.1,9.9c-0.1,0.8-1.5,5.5-1.8,6.3c-0.4,0.8-1.4,5.1-2,6.2
		c-0.5,1.1-1.8,5.2-2.5,6.4c-0.6,1.2-1.4,5-0.8,4.2c0.5-0.8,1.3-0.8,2-1.9s3.7-9.4,3.9-10c0.2-0.6,3.8-12.5,4.1-13.5
		s1.1-4.4,1.2-5.8c0.1-1.4-0.2-3.2-0.3-4.3C545.8,541.4,545.1,541.6,545.1,541.6z"/>
	<path style="fill:#0363F7;" d="M595.6,488.2c-0.4,0.9-1.3,6.8-1.8,10s0.2,2.9-0.2,4.9s-0.7,4.7,0.4,3.7s2.6-5.1,2.9-6.6
		s1-5.9,0.9-7.3s-0.6-3-0.9-3.9S595.6,488.2,595.6,488.2z"/>
	<path style="fill:#0363F7;" d="M608.9,506c0.8-0.7,0.8-0.4,1.2,0.2s-0.1,1.5-0.4,1.2s-0.8-1.2-0.8-1.2V506z"/>
	<path style="fill:#0363F7;" d="M614.8,518.2c0,0.1-0.1,0.1-0.1,0.2c-0.2,1,0.4,3,1,1.8c0.7-1.2,0.6-1.8,0.2-1.9L614.8,518.2z"/>
	<path style="fill:#0363F7;" d="M610.9,525.9c-0.7,1.2-0.1,2.1,0.6,2.4s1.2-0.6,0.8-1.5S610.9,525.9,610.9,525.9z"/>
	<path style="fill:#0363F7;" d="M619.4,522.2c-1,2.1-1.2,5.4-1.4,8.1s-0.2,11.1,0.4,11.1s1.2-0.1,1.7-3.3s1.3-9.9,1.1-11.4
		s-1.4-3.9-1.4-3.9L619.4,522.2z"/>
	<path style="fill:#0363F7;" d="M635.6,505.8c-1.2,1.5-5,9.8-5.9,12.7s-2.8,9-2.5,11.1s0.4,5.5,1.3,2.1s3.3-13.6,4.1-15.5
		s2.9-8.2,3.4-9.3S635.6,505.8,635.6,505.8z"/>
	<path style="fill:#0363F7;" d="M637.2,507.4c-1.1,1.7-3.5,8.6-3.3,10.6s-0.2,6.1-0.1,6.1s0.9-2,1.9-5.2s2-9.1,1.9-10.2
		S637.2,507.4,637.2,507.4z"/>
	<path style="fill:#0363F7;" d="M590,501.5c-0.6,0.4-2.1,0.6-1.1,1.4s0.3,2.8,1.7,1.7c1.4-1.1,1.7-2,0.8-2.4S590,501.5,590,501.5z"
		/>
</g>
<g id="Fills2">
	<path style="fill:#D8E7FF;" d="M572.5,492.1c-6.8,3.2-7.5,2.8-15,11.8s-14.8,18-29,19.2s-40.5,7.5-56.2,7.2s-74.8-3.5-90.8-6.2
		s-43.2-7.5-53.8-7.5s-34,3.5-47.8,6s-25.2,6-42.8,2s-41.2,1-52.2-5.8s-17-18.6-19-19.5s-11,1-17,0.5s-18.8,2.5-18.5,7.5
		s-5.5,28,0.2,31.8s20,9,35.8,8.8s68.8-2.2,86.8-1.2s43.5,2.8,64,6.5s101.8,0.2,120-0.5s33.8-7.2,54.5-3.5s37.5,10.8,51.8,5.2
		s20.8-0.8,23.5-10c2.7-9.2,2.7-17.2,9-21.5s6.2-3.4,7.1-7.6c0.9-4.2,2.4-4.7,4.7-7.9s5.2-10-4.2-14.8S572.5,492.1,572.5,492.1z"/>
	<path style="fill:#0363F7;" d="M362.5,400.2c-8.5-7.5-18-12.1-27.8-16.1c-0.7-0.3-1.1-1.1-1.7-1.6c0.8-0.2,3-1.2,3.8-0.9
		c8.4,2.5,15.6,5.3,23.8,8.2c6.2,2.2,12.1,5,18.1,7.6c5.1,2.3,10.3,4.5,15.2,7.1c2.3,1.3,4.2,3.5,6.1,5.4c0.1,0.1,0.3,2.2-0.3,2.2
		c-12,1.2-25.3,1.6-37.3,3.4c-7.2,1-14.3,3.5-21.2,5.8c-5.4,1.8-10.6,4.5-15.9,6.5c-3.1,1.2-6.4,2.2-9.7,2.7
		c-3.3,0.6-6.2-0.9-8.7-3.3c-3.9-3.7-8.1-7.2-12.1-10.9c-1.3-1.2-2.1-2.8-3.1-4.2C314.2,402.4,337.9,399.6,362.5,400.2z"/>
	<path style="fill:#0363F7;" d="M112,555.2c-0.5-0.6-4.4-8.4-5-9.9s-2.1-4,1.5-2.9s4.1,2.6,6.4,4.1s9.1,8.5,8.4,9s-2.4,0.4-3.2-0.5
		s-4.9-6.6-7-7.6s-2.6-1.1-1.2,1.4s4.8,7.4,3.4,7.6C113.8,556.7,112,555.2,112,555.2z"/>
	<path style="fill:#0363F7;" d="M115,524.4c0.1-0.8,0.9-1.9,1.4-0.2s3.8,13.5,4.6,15.6s4.6,10.8,3.2,11.4s-2.1-0.2-3-2.4
		s-2.1-5.1-3.6-7s-2.5-3.6-3.6-4.6s-1.8-2.6-1.2-3.2s5.4,7.3,5.7,5.3c0.3-1.9-1.6-6.1-2.1-8.4S115,524.4,115,524.4z"/>
	<path style="fill:#0363F7;" d="M118.4,522.2c0.5,1,2.6,8.5,4.5,11s4.4,9.9,5.1,11.3c0.7,1.4,3.2,4.8,1.4,4.9s-0.4,0.2-2.5-3.5
		s-5.4-12.8-6.2-14.4s-2.2-4.2-2.8-6.1S118.4,522.2,118.4,522.2z"/>
	<path style="fill:#0363F7;" d="M137.1,498.6c-0.1,1.2-0.6,5.8,0.4,8.8s1.4,6.1,1.9,4.1s0.6-5.8,0.3-8s0-3.9-0.9-4.4
		S137.1,498.6,137.1,498.6z"/>
	<path style="fill:#0363F7;" d="M145.4,505.1c-0.9,1.4-1.8,5.9-1.2,6.1s2.1,1.4,2.6-0.6s0-5.6-0.1-5.5S145.4,505.1,145.4,505.1z"/>
	<path style="fill:#0363F7;" d="M171.6,524.2c1.8-0.4,7.6,0.8,8.5,0.9s3.8,0.6,2.6,1.2s-6.9,0.2-9,0s-4.6-0.1-4.8-0.6
		S171.6,524.2,171.6,524.2z"/>
	<path style="fill:#0363F7;" d="M162.2,528.1c0.5-0.1,1.2-0.2,1.9-0.3c2.9-0.2,7,0.1,9.8,0.4c3.4,0.4,9.5,1.1,7.8,1.8
		s-9.8,0.4-12.6,0.1s-5.6-0.4-6.7-0.6C161.2,529.4,162.2,528.1,162.2,528.1z"/>
	<path style="fill:#0363F7;" d="M194.2,532.7c0,0,2.1,0.8,2,1.4s-0.1,1.6-1,1.4c-1-0.2-1.3-0.3-1.3-1.2S194.2,532.7,194.2,532.7z"/>
	<path style="fill:#0363F7;" d="M151.6,545.7c-0.2,1.6,0.6,7.4,1.9,10.6s3.3,13.8,3.6,15.5s2.1,4.4,1.9,1.7s-0.6-7.1-0.9-8.8
		s-2.8-11.9-3.9-14.3s-1.4-4.5-1.6-4.7S151.6,545.7,151.6,545.7z"/>
	<path style="fill:#0363F7;" d="M154.8,547.9c1.2,1.4,4.8,7.7,5.6,10.7s1.1,8,1.1,8c-1.2-2.8-2.1-6.4-3-8.7c0,0,0,0,0-0.1
		c-0.9-2.4-3.9-9.8-3.9-10.5s1.1,0.9,2,2.1s4.5,9.9,4.6,11.1s0.5,4.8,0.5,5s-1.7-0.3-1.9-2.3c0,0-2.8-7.9-3.4-9.5s-1.2-3.9-1.3-4.1
		S154.8,547.9,154.8,547.9z"/>
	<path style="fill:#0363F7;" d="M165.2,548.5c-0.9,1-2,4.7-2.3,6.7c-0.2,2.1,1.9,10.3,2.6,11.1s1.9,0.4,1.6-1.1
		c-0.3-1.4-2.4-5.7-2.3-8s0.5-7.2,0.6-7.8S165.2,548.5,165.2,548.5z"/>
	<path style="fill:#0363F7;" d="M170.1,554.8c-0.3,1.6,0.2,5.9,1,7.4s0.6,5,1.6,2.9s0.4-2.2-0.1-4.5s-1.9-4.6-1.9-5.3
		S170.1,554.8,170.1,554.8z"/>
	<path style="fill:#0363F7;" d="M175.4,547.9c1.2,2.4,3.6,5.3,5.2,7.1s3.3,6.7,4.3,9s2.6,7.7,1.9,4.8s-1.4-7.3-2.1-8.9
		s-2.7-5.1-3.6-6.3s-3.1-3.7-3.8-4.4S175.4,547.9,175.4,547.9z"/>
	<path style="fill:#0363F7;" d="M181.8,550.9c0.9,0.9,7.9,8.8,8.6,10.1s3.1,5.7,3.4,7.8s0.8,4,0.2,4.9s-0.3-1.8-1.4-3.7
		s-5.8-10.4-7-12.2s-4.1-5.2-4.4-5.6s-1-1.5-0.5-1.6c0.5-0.1,0.8,0.5,0.8,0.5L181.8,550.9z"/>
	<path style="fill:#0363F7;" d="M196.5,544.7c0.1,1.5-0.8,7.3-0.2,10.2s1.5,9.3,1.9,8.9c0.3-0.4,1.3-0.9,0.6-5.4s-0.9-6.1-0.9-7.4
		s0.5-2.8,0-4.1s-0.8-2.6-0.8-2.6L196.5,544.7z"/>
	<path style="fill:#0363F7;" d="M201.1,552.3c1.2,0.7,1,1.8,1.3,2.8c1,3.3,0.9,6.7,0.7,10.1c-0.1,0.8-0.3,1.7-0.4,2.5
		c0,0.1-0.2,0.3-0.3,0.4c-0.1,0-0.4-0.1-0.5-0.2c-0.4-0.7-0.9-1.4-1.1-2.1c-0.3-0.9-0.4-1.8-0.4-2.7
		C200.3,559.6,200.1,556,201.1,552.3z"/>
	<path style="fill:#0363F7;" d="M207.1,548.6c1.1,0.4,1.7,1.4,1.4,2.1s-1.8,1-2.2,0.7s-1-2.1-0.6-2.6S207.1,548.6,207.1,548.6z"/>
	<path style="fill:#0363F7;" d="M206.9,559.9c-0.3,0.5-1.7,0.8-1.3,2.6c0.4,1.9,0.7,3.9,1,5.4c0.4,1.6,1,2.4,1.2,0.8s-0.2-5-0.2-5.9
		s-0.2-1.9-0.4-2.3S207,560,206.9,559.9L206.9,559.9z"/>
	<path style="fill:#0363F7;" d="M216.1,533.6c2,0.4,7.4,1.8,8.8,2.2s6.7,1.5,1.1,1.2s-8.9-2.1-12-1.8s-6-0.5-6.5-0.2
		C207,535.2,214.1,533.2,216.1,533.6z"/>
	<path style="fill:#0363F7;" d="M239.7,544.4c1.7,0,1.4,10.8,0.9,12.2s0.7,7.3,0.6,8.1s0.1,2.9,0.4,2.4s1-4.7,1.1-6.8
		s-0.4-11.6-1.2-12.8s-1.2-3.6-1.2-3.6S239.4,544.4,239.7,544.4z"/>
	<path style="fill:#0363F7;" d="M246.8,552.6c-1,1.7-0.8,8.1-1.1,10.4s-0.8,6.6-0.3,6.4s3.9-4.2,3.4-7.2s-0.5-7.5-0.8-8.6
		s-0.2-2.4-0.6-2.2S246.8,552.6,246.8,552.6z"/>
	<path style="fill:#0363F7;" d="M257.4,535.9c1.2-0.7,5.8-2.4,6.7-2.6s7.1-1.2,7.7-1.2s2.2,0.2,0.9,1.2s-4.1,1-6.6,1.6
		s-5,1.5-7.1,1.9s-3.2,0.8-2.9,0S257.4,535.9,257.4,535.9z"/>
	<path style="fill:#0363F7;" d="M257.1,532.4c0.8-0.9,1.7-1.7,4.1-1.8s6.9-0.4,8.8-0.7s5.3,0.6,2.9,1c-2.4,0.4-6.8,1.2-8.7,1.4
		s-5.6,0.5-6.4,0.9s-1.8,1.4-1.8,0.5S257.1,532.4,257.1,532.4z"/>
	<path style="fill:#0363F7;" d="M268,561.6c0.3,0.8,0.6,1.5,0.7,2.3c0.3,1.1,0.4,2.3,0.6,3.4c0.6,3.6,1.3,7.3,1.7,10.9
		c0.3,3,0.2,6,0.2,9c0,1.3-0.2,2.5-0.4,3.8c0,0.2-0.2,0.3-0.4,0.5c-0.1-0.2-0.3-0.3-0.4-0.5c-0.8-2.5-1-5.1-1.2-7.8
		c-0.4-4.2-0.8-8.3-1.2-12.5C267.4,567.8,267.2,564.7,268,561.6z"/>
	<path style="fill:#0363F7;" d="M281.6,572.7c-2.1,3.5-1.6,4.9-3,4.9s-2.8,0.5-2.4-2.6s3.2-9.6,3.8-10.7s1.7-3.3,3.5-4.2
		s6.1-1.1,9.1-0.6s9.8,1.1,11.5,2.2s4.8,2.1,6.4,2.9s3.6,3.5,3.8,6.1s1.2,3.3-0.5,5.5s-4.8,7.3-4.4,5.3s0.4-10.6,0.2-11.8
		s0.1-2.6-4.4-4.3s-9.2-3.5-12.6-3.6s-2.6-2.4-5.6,1.2S281.6,572.7,281.6,572.7z"/>
	<path style="fill:#0363F7;" d="M277.9,600.1c0.1-1.7,0.2-3.3,0.4-5c0.2-1.7,0.4-3.3,0.7-5c0.1-0.4,0.2-0.8,0.3-1.1
		c0.2-0.3,0.5-0.5,0.8-0.8c0.2,0.3,0.6,0.6,0.6,1c0.2,2,0.5,4,0.2,6c-0.2,1.1-0.1,2.2-0.4,3.3c-0.2,1.1-0.7,2.1-1.1,3.2
		c-0.1,0.2-0.5,0.3-0.7,0.5c-0.2-0.2-0.5-0.4-0.6-0.7C278,601.1,278,600.6,277.9,600.1z"/>
	<path style="fill:#0363F7;" d="M288.7,574.1c0.4,1.7,2.5,7,4,9.2c1.5,2.2,3.4,4.9,3.5,3.4c0.1-1.6-0.7-5.3-1.9-7.1
		s-4.2-5.4-4.4-5.5S288.7,574.1,288.7,574.1z"/>
	<path style="fill:#0363F7;" d="M291.8,570.2c0.3,0.9,3.2,5.1,4.1,6.8s3.4,8.1,4.1,8.7s2.3-0.7,1-3.1s-3.9-6.8-4.8-9.2
		s-2.8-3.9-3.3-4.1S291.8,570.2,291.8,570.2z"/>
	<path style="fill:#0363F7;" d="M297.1,568.2c0.8,1.6,3.9,5.7,4.3,6.6s1.7,3.6,2.3,4.2s1.2-0.6,0.3-2.4c-0.9-1.8-2.5-5.6-3.7-7
		s-2.1-1.9-2.1-2.1S297.1,568.2,297.1,568.2z"/>
	<path style="fill:#0363F7;" d="M303.4,569.4c-0.1,1.2,2.5,4.4,3,5.3s1.8,2.4,1.6,1.1s-1.6-3.1-2.2-4.2s-1.2-1.9-1.8-2.3
		S303.4,569.4,303.4,569.4z"/>
	<path style="fill:#0363F7;" d="M292.2,542.9c1.1-0.1,2.3-0.3,2.4,0.7s0.4,2.6,0.1,2.4s-2.3-0.1-2.6-1.1S292.2,542.9,292.2,542.9z"
		/>
	<path style="fill:#0363F7;" d="M307.5,548.3c0.4,0,1.5,1.8,1.5,2.2s-0.1,1.5-1.4,0.9s-2.8-1.8-2-2.4S307.5,548.3,307.5,548.3z"/>
	<path style="fill:#0363F7;" d="M312.5,541.8c0.4-0.6-0.6-1.3,0.6-1.4s2.1,0.4,2.2,1.1s0.2,1.9-0.6,1.4s-1.7-0.4-1.7-0.4
		L312.5,541.8z"/>
	<path style="fill:#0363F7;" d="M330.4,543.2c-0.6,0.3-1.5,0.4-1,3.9s-0.3,15.8,0.2,18.6s0.7,4.8,1.2,3.2s1.3-9.9,1.3-11.1
		s-0.2-11.8-0.8-12.6S330.4,543.2,330.4,543.2z"/>
	<path style="fill:#0363F7;" d="M339.4,552.2c-0.4,2.6-1.1,6.8-0.9,7.9s1.8,5.8,1.8,5.8s1.1-2.2,0.7-4.9s-0.4-7.3-0.4-8.1
		s0.1-1.9-0.5-1.6S339.4,552.2,339.4,552.2z"/>
	<path style="fill:#0363F7;" d="M344.8,559.5c0.4,0.1,1.4,0.6,1.5,1.1s0.4,5.4,0.4,7.6s-1.1,10-1.5,10.3s-0.5-0.4-0.3-2.9
		s-0.4-13-0.4-14.4S344.8,559.5,344.8,559.5z"/>
	<path style="fill:#0363F7;" d="M358.6,542.4c-0.2,1.2-1,7.2-0.8,9.8s0.5,8,1,6.8c0.6-1.1,1.4-6,1.4-8.5s-0.3-3.9-0.6-6.3
		S358.6,542.4,358.6,542.4z"/>
	<path style="fill:#0363F7;" d="M369.6,534.2c-0.3,1.7-1.5,2.9-0.9,7.1s0.9,14.6,1.4,16.6s0.5,7.7,0.9,6.2s0.7-6.6,0.6-9.2
		s-0.2-10.8-0.7-13.4s-0.9-5.2-0.8-5.8S369.6,534.2,369.6,534.2z"/>
	<path style="fill:#0363F7;" d="M380.7,528c-0.4,1.2-2.7,7.2-3.7,9.7s-3.8,9.9-3.8,11.5s0.5,6.5,0.8,7c0.4,0.5,1.2-0.3,1.6-3.1
		s3.1-16.4,3.7-17.6s2.6-5.7,3.3-6.9s0.8-2.5,0.3-2.7S380.7,528,380.7,528z"/>
	<path style="fill:#0363F7;" d="M388.2,543.6c-0.5,3-1.1,10.8-1.8,11.8s-2.6,8.6-3.2,10.2s-1.1,4.2-0.2,4s3.6-3.1,4.4-5.8
		s3.2-9.2,3.1-11.9s0.1-5.4-0.3-7.2s-0.3-3.1-1.2-2.6S388.2,543.6,388.2,543.6z"/>
	<path style="fill:#0363F7;" d="M375.2,570.5c-2.6,4.3-4,11.6-3.9,18.5s0.5,11.1,0.6,12.4s0.6,0.2,1.7-4.1s1.8-13.9,2.6-17.2
		s2.1-9,2.4-10.9s-0.3-4.2-1.9-1.9S375.2,570.5,375.2,570.5z"/>
	<path style="fill:#0363F7;" d="M364.7,589.1c-0.5,2.9-1.2,9.2-0.8,12.2s1.8,10.8,2.2,9.6s0.4-4.1,0.1-7.8s-0.5-11.4,0-13.7
		s0.4-3.9-0.7-2.3S364.7,589.1,364.7,589.1z"/>
	<path style="fill:#0363F7;" d="M384.7,581.5c-1.1-0.5-0.9-1.1-0.4-1.8s3.2-5.1,4.1-5.9s2.8-3.6,3.8-4.2s3.5-1.2,5.2-1.3
		s3.2-0.6,5.8-0.2s5.4,1.6,7.1,2.1s5.1,2.2,6.6,4.2s4.3,5.8,4.7,7.3s0,4.6-0.7,5.2s-1.6,1.1-2.5,1.5s-3.6,1.3-4.5,0.7
		s-0.5-0.9-0.1-1.5s1.5-0.8,1.4-1.5s-1.9-2.7-3-4.3s-2.5-3.6-2.7-4s-0.7-1.3-0.2-1.6s1.2,0,1.9,1s4.3,6.7,4.8,6.7s1.6-0.5,0.7-2
		s-1.9-2.8-3.1-4.8s-2.7-3.1-3.6-3.8s-3.3-1.3-4.9-1.7s-3.4-0.7-5.1-0.8s-2.9,0.2-3.7,0.8s-2.9,3-3.5,3.5s-2.7,3-2.9,3.6
		s-2.9,3.5-3.5,3.4S384.7,581.5,384.7,581.5z"/>
	<path style="fill:#0363F7;" d="M394.2,583.4c0.7,0.5,1.8,1.8,2.2,2.4s2.1,2.5,2.1,2.8s-0.3,0.8-0.6,0.5s-2.9-2.2-3.2-2.8
		s-0.8-1.1-0.9-1.8s-0.4-1-0.2-1.1S394.2,583.4,394.2,583.4z"/>
	<path style="fill:#0363F7;" d="M397.6,579.3c1.1,1.2,3.3,4.4,3.9,5.2s2.2,3.4,2.2,4.2s0.8,1.8,0.1,1.5s-2.6-0.8-3.5-2.2
		s-2.1-3.3-2.6-5.1s-1-2.9-0.8-3.3S397.6,579.3,397.6,579.3z"/>
	<path style="fill:#0363F7;" d="M405.3,577.3c0.5,0,1.3,0.3,1.5,0.8s3.1,4.6,3.3,5s1.1,1.9,0.7,2s-1,0.2-1.5-0.7s-2.8-4.5-3.2-4.9
		s-1-0.9-1-1.5S405.3,577.3,405.3,577.3z"/>
	<path style="fill:#0363F7;" d="M405.4,539.1c-0.2,0.2-0.1,0.8,0.5,1.3s2.2,0,1.2-0.9S405.4,539.1,405.4,539.1z"/>
	<path style="fill:#0363F7;" d="M412,552.4c0.3-0.6-0.1-0.6,0.9-0.9c1-0.3,1.2-0.8,4.8,0c3.5,0.8,9.2,1.7,10.7,2
		c1.5,0.3,4.2,1.5,2.5,1.6c-1.7,0.1-7.8-1-9.8-1.3c-1.9-0.2-5.9-0.9-7.2-1.1C412.7,552.4,412,552.4,412,552.4z"/>
	<path style="fill:#0363F7;" d="M430.6,544.4c0.5-0.8,0.2-1.3,1.1-1c0.9,0.3,2.9,1,2.1,1.8c-0.8,0.8-1,1.8-2.1,1.2
		C430.7,545.8,430.6,544.4,430.6,544.4z"/>
	<path style="fill:#0363F7;" d="M408,555.9c2.2,0.2,7.3,0.7,8.9,0.7c1.6,0,6.5,0,7.2,0.1c0.7,0.1,5.1,0.6,4.6,1.2
		c-0.5,0.6-4.2,1-6.3,0.6s-6-0.3-8.3-0.6s-5.4-0.1-6.9-0.5c-1.5-0.4-2-0.7-1.4-1.1C406.4,555.9,408,555.9,408,555.9z"/>
	<path style="fill:#0363F7;" d="M439.9,573.2c-0.4,1-1.1,5.5-1.2,7.6s-1.1,10.8-0.8,12.1c0.3,1.3,0.8,4.8,1,4.6s1.2-3.5,0.8-5.9
		s0.4-9,0.5-10.7s0.1-5.1,0.1-6.3c0-1.2,0.5-2.3-0.2-1.9C439.3,573.2,439.9,573.2,439.9,573.2z"/>
	<path style="fill:#0363F7;" d="M444.2,561.9c-0.2,0.7-2,14.1-1.8,14.9c0.2,0.8-0.6,15.2-0.6,15.5c0,0.3,0.2,6,0.5,5.3
		c0.4-0.7,2.4-14.9,2.4-17.2s0.3-9.6,0.4-10.5s0.2-7.5,0.1-8c-0.1-0.5-0.5-1.7-0.7-1.3S444.2,561.9,444.2,561.9z"/>
	<path style="fill:#0363F7;" d="M451.9,553.4c0.5-0.4,0.9-0.3,1.5,0s0.8,1.1,0.1,1.1c-0.7,0-1.7,0.5-1.8-0.5
		S451.9,553.4,451.9,553.4z"/>
	<path style="fill:#0363F7;" d="M462.7,557.6c-0.2,0.2-0.5,1.4,0,2.7s2.5,12.3,2.8,13.3c0.2,1,1,6.2,1.1,6.3c0.1,0,1-3,0.9-4.9
		c-0.1-1.9-1.5-10.7-1.7-11.4c-0.2-0.7-2.5-5.8-2.5-5.8L462.7,557.6z"/>
	<path style="fill:#0363F7;" d="M474,537.4c-0.2,1.6,0.4,3.2,0,4.8s-2.2,3.8-2.2,4.7s-1.9,6.1-1.8,8c0.1,1.9,0,5.9,0.2,7.6
		c0.2,1.7,0.6,5.2,1.3,3c0.7-2.1,0.2-10,0.6-11.7c0.4-1.6,1.2-5.5,1.5-5.5c0.2,0,1.9,4.7,1.9,6.3s1.2,7.9,1.3,8.4
		c0.1,0.5,0.3,1.5,0.8-0.1c0.5-1.6-0.7-6.5-0.9-8.6c-0.2-2.2-0.1-6.6-0.1-8.4c0-1.8-0.4-9.5-0.5-10.1s-0.3-1.3-0.9-0.8
		C474.5,535.8,474,537.4,474,537.4z"/>
	<path style="fill:#0363F7;" d="M482,550.2c-0.5,1.8-2.4,7.8-2.5,9.4c-0.2,1.6-0.4,3.4-0.1,3.5c0.3,0,1-0.2,1.4-2
		c0.3-1.8,2.2-9.1,2.4-9.7c0.2-0.6,0.5-1.7,0.1-1.6C482.8,549.9,482,550.2,482,550.2z"/>
	<path style="fill:#0363F7;" d="M484.1,540.1c-0.5,0.8-0.2,6,0,7.5c0.2,1.5,0.7,11,0.8,12.5s0.6,5.3,0.4,6.8s0.2,3.6,0.6,2.8
		c0.5-0.8,1.7-8.9,1.7-10.1c0-1.2-0.5-10.2-0.5-11.5c0-1.4-0.8-7.9-1.5-8.2S484.1,540.1,484.1,540.1z"/>
	<path style="fill:#0363F7;" d="M494,570c-0.1,0.6-0.2,4.5,0,5.2c0.2,0.8,0.5,5.8,0.7,6.8c0.2,1,0.6,4.8,1,3.8
		c0.5-1.1,0.8-8,0.7-8.9c-0.1-0.9-1.1-5.5-1.2-6c0-0.5,0.1-1.6-0.5-1.4C494.2,569.6,494,570,494,570z"/>
	<path style="fill:#0363F7;" d="M495.9,562c-0.2,0.5-0.1,3.4,0.2,4.6c0.3,1.2,1.2,7.9,1.4,10s0.6,6.9,0.7,7.5c0,0.6,0.9,0.8,1.1-0.8
		s0.4-7.1,0.2-8.6c-0.2-1.5-1.3-6.4-1.4-7.4c-0.1-1-1.1-4.5-1.5-5C496,561.8,495.9,562,495.9,562z"/>
	<path style="fill:#0363F7;" d="M501.6,579.2c0.1-2,2.6-12.2,2.7-14.2c0.1-2,1.3-8,1.2-8.8c-0.1-0.8,0.5-1.7,0.7-2s0.5-0.2,1.2,3.9
		s1.3,6.4,1.5,7.8c0.2,1.3-0.2,7.1,0.3,6.3c0.5-0.8,3.2-7.2,3.6-7.8c0.5-0.6,1.4-2.4,1.5-1.7c0.1,0.7-0.4,2.6-0.8,3.2
		c-0.3,0.5-1.4,4.4-2.7,7.9s-2.8,8-2.9,8.4c-0.1,0.4-0.7,0.2-0.5-0.8c0.2-1.1-0.4-1.8-0.6-1.7s-0.4-0.1-0.3-1.1s1.2-11.3,0.8-12.3
		c-0.3-1-0.7-3-0.8-2.5s-1,6-1.5,7.2c-0.5,1.2-1.4,5-1.7,5.8c-0.2,0.8-0.9,2.9-1.2,3.1C501.9,580.1,501.6,579.2,501.6,579.2z"/>
	<path style="fill:#0363F7;" d="M513.5,553.6c-0.7,0.7-0.9,1.3-0.7,1.7c0.2,0.3,2.3,1.1,2.5,0.5c0.2-0.6,0.6-1.5-0.3-2
		C514,553.2,513.5,553.6,513.5,553.6z"/>
	<path style="fill:#0363F7;" d="M513.5,568.8c-0.2,0.2-0.8,2.2-0.8,3.2c0,1-0.2,6.7-0.5,7.6c-0.4,0.9-0.6,4.3-0.6,4.3s1-0.2,1.4-2.3
		s0.9-4.7,1-5.8s0.6-3.5,0.5-4.5c-0.1-1-0.6-2.4-0.6-2.4L513.5,568.8z"/>
	<path style="fill:#0363F7;" d="M507.5,541.6c0.1-0.1,0.2-0.5,0.5-0.6c0.5-0.1,1.6,0.7,1.6,1.2c0,0.3-0.7,0.8-1.1,0.8
		C507.9,543.1,507.5,542.5,507.5,541.6z"/>
	<path style="fill:#0363F7;" d="M526.2,535.4c0,0-0.2-0.3-0.6,0.4c-0.4,0.7-1.8,1.9-0.5,2.3c1.2,0.5,3.2,0.3,3.2-0.3s-0.9-2-1.2-2.2
		C526.8,535.5,526.2,535.4,526.2,535.4z"/>
	<path style="fill:#0363F7;" d="M543.7,528.7c-0.2,0.4-0.8,1.1-0.5,1.6c0.3,0.5,2.2,1.6,2.4,1.3c0.2-0.3,1-0.6,1-1.2
		s-0.1-1.1-0.6-1.4c-0.5-0.3-1.9-0.7-1.9-0.7L543.7,528.7z"/>
	<path style="fill:#0363F7;" d="M539.5,546c-0.3,0.2-1.1,1.5-1.3,2.3s-1.4,5.1-1.7,6c-0.2,0.8-2.3,5.7-2.6,6c-0.2,0.3-1.2,1-1.4,1.7
		s-0.9,2.8,0.3,2.1c1.2-0.7,2.9-2.4,3.2-3.3s3.7-8.5,4-9.3s0.8-4,0.5-4.7c-0.3-0.7-0.6-1.6-0.8-1.2C539.6,545.9,539.5,546,539.5,546
		z"/>
	<path style="fill:#0363F7;" d="M545.9,545.5c0.3,3.7-1,7.2-2,10.7c-1.5,5-3.1,10.1-4.8,15c-0.8,2.2-2.1,4.2-3.2,6.3
		c-0.1,0.2-0.5,0.3-0.7,0.5c-0.1-0.3-0.3-0.6-0.3-0.9c0.2-0.9,0.5-1.9,0.8-2.8c3.2-8.5,6-17,7.9-25.8c0.4-2,0.7-4.1,1-6.1
		c0-0.2,0.1-0.4,0.2-0.7c0-0.1,0.2-0.2,0.3-0.2c0.2,0,0.4,0.1,0.5,0.2c0.1,0.3,0.3,0.6,0.3,1C545.9,543.7,545.9,544.6,545.9,545.5z"
		/>
	<path style="fill:#0363F7;" d="M554.2,564.6c0.4-1.8,2.6-5.2,3-6c0.4-0.8,1.8-1.8,3.5-2.4c1.7-0.5,2.5-0.7,5.4,0.4s5.1,3.6,5.2,4.1
		c0.2,0.5,1,4.7-0.8,6.1c-1.8,1.4-3.4,2.5-4.6,1.5c-1.2-1-2.3-2.9-2.8-4.2c-0.5-1.3-0.8-2.2-0.3-1.9c0.6,0.2,3.7,3.2,4.1,2.9
		s1.9-0.9,1.2-3c-0.8-2-2.7-4-4.1-4.5c-1.5-0.5-1.4-0.9-2.8,0.1s-3.6,2.8-4.1,3.5c-0.5,0.7-1.5,2-1.8,2.6S554.2,564.6,554.2,564.6z"
		/>
	<path style="fill:#0363F7;" d="M558.3,561.7c0,0.5,0.9,2.5,1.6,3.6c0.7,1.1,2.9,3.9,3.2,3.8s0.8-0.4,0.2-2
		c-0.5-1.6-1.7-3.1-2.3-3.9c-0.6-0.8-1.2-1.9-1.9-1.8C558.5,561.5,558.3,561.7,558.3,561.7z"/>
	<path style="fill:#0363F7;" d="M569.4,521.2c-0.5,1.2-3.7,5.8-4.4,6.9c-0.7,1.2-2.8,7.4-2.9,8.1c-0.1,0.7-1.4,6.3-0.5,6.2
		s3.2-7.6,3.5-8.2c0.3-0.6,0.5,2,0.4,3.6s-0.4,10.8,0.4,10.5c0.8-0.2,1.7-9.2,2.2-11.9s1.3-10,1.6-11c0.4-1.1,1.3-3.9,0.8-4.5
		S569.4,521.2,569.4,521.2z"/>
	<path style="fill:#0363F7;" d="M584.2,554.6c0.7-2.6,1.3-10.7,1.8-12.5c0.5-1.8,2.4-7.8,3-8.5c0.6-0.7,1.3-2.6,1.5-2
		c0.2,0.5,0.5,3.4,0.5,5.2s-1.1,13-1.4,14.6c-0.3,1.6-0.6,5.8-0.8,6.1c-0.2,0.4-1-0.7-0.8-3c0.2-2.4,0.2-9.3,0.5-10.9
		c0.2-1.6,0.7-3.8,0.4-3.9c-0.3-0.1-0.3-0.3-0.8,1.8s-3.2,13-3.4,14.2c-0.2,1.1-0.3,0.2-0.3-0.5
		C584.4,554.6,584.2,554.6,584.2,554.6z"/>
	<path style="fill:#0363F7;" d="M603,525.8c-0.4,1.6-2.2,12.6-2.7,15.1s-2.7,11.7-3,13.2c-0.3,1.5-0.1,3.6,0.7,1.4
		c0.8-2.2,2.9-10,3.4-10.9s1.1-1.5,1,0.3s-2,12.6-2.2,13.6s-1.1,8.2-1,8.5c0.1,0.3,1.8-4.3,2.6-6.5c0.8-2.2,2.4-11.4,2.5-12.9
		s1.3-9.4,1.2-10.2c-0.1-0.8-0.4-4.5-0.6-6.4c-0.2-1.9-1-3.5-1.2-4.3C603.3,525.8,603,525.8,603,525.8z"/>
	<path style="fill:#0363F7;" d="M589.2,501.4c0.7,0.1,1.8,0.5,2.2,1.1c0.4,0.6,0.2,1.8-0.1,2c-0.3,0.2-0.8,0.8-1.4-0.2
		c-0.6-1-1.3-0.9-1-1.7C589.2,501.9,589.2,501.4,589.2,501.4z"/>
	<path style="fill:#0363F7;" d="M595.7,487.9c-0.4,0.8-0.6,1.8-0.6,3.3s-0.9,5.9-1.3,8.2s-0.8,7.2-0.1,7.3s2.4-1,2.4-3.6
		s2.6-8.9,1.7-11.2s-1-2.7-1.3-3.3C596.3,488.1,595.7,487.9,595.7,487.9z"/>
	<path style="fill:#0363F7;" d="M595.2,491.7c0-0.9-0.1-1.7,0-2.6c0-0.4,0.1-0.8,0.2-1.2c0-0.1,0.2-0.3,0.3-0.3
		c0.2,0,0.4,0.1,0.5,0.2c0.2,0.2,0.3,0.5,0.4,0.7c0.7,2,1.1,4,1,6.1c-0.1,3.4-0.8,6.8-1.8,10.1c0,0.1,0,0.2-0.1,0.3
		c-0.5,0.6-1,1.2-1.4,1.7c-0.8-0.5-0.5-1.3-0.4-2c0.2-2.4,0.6-4.8,0.9-7.3c0.2-2,0.5-3.9,0.7-5.9
		C595.3,491.7,595.2,491.7,595.2,491.7z"/>
	<path style="fill:#0363F7;" d="M599.6,493.5c0,0.1,0,0.2,0,0.3c-0.1,2.8,0,6.2-0.2,8.1c-0.2,2-0.1,4.7,0.6,2.8s1.1-1.8,1.3-3.5
		s0.8-4.2,0.4-5.8s-1.2-3-1.4-3.1S599.6,493.5,599.6,493.5z"/>
	<path style="fill:#0363F7;" d="M609,505.8c0.7,0,1.4,0.5,1.3,1.1c0,0.2-0.3,0.5-0.5,0.6c-0.6,0.1-1.2-0.4-1.1-1
		C608.7,506.2,608.9,506,609,505.8z"/>
	<path style="fill:#0363F7;" d="M608.8,517c-0.6,0.8-0.4,1.1,0,1.1s1.2-0.1,1.1-0.5S608.8,517,608.8,517z"/>
	<path style="fill:#0363F7;" d="M614.7,518.5c-0.5,1.1-0.8,1.6,0,1.7s2.2-1.5,1.7-1.7S614.7,518.5,614.7,518.5z"/>
	<path style="fill:#0363F7;" d="M610.7,526.5c-0.4,0.3-0.4,1.3,0.2,1.8s1.8,0.4,1.7-0.9s-0.8-1.6-1.1-1.4S610.7,526.5,610.7,526.5z"
		/>
	<path style="fill:#0363F7;" d="M619.2,521.6c-1,1.9-0.6,8.1-0.6,11.4s-0.4,7.8,0,7.6c0.4-0.2,0.7,0.4,1.3-2.1s0.9-7.4,1-9.6
		s-1.1-5.9-1.2-6.2S619.2,521.6,619.2,521.6z"/>
	<path style="fill:#0363F7;" d="M635.5,506.4c-1.2,2.4-5.4,8.7-6,11.2s-2,10.1-2.2,11.2s-0.3,6.1,0.8,3.9s4.2-17.7,4.9-19.1
		s3-7.1,3.1-7.4s-0.9,0.2-0.9,0.2L635.5,506.4z"/>
	<path style="fill:#0363F7;" d="M636.9,508.3c-1.4,2-2.7,7.8-3.1,9.7s-1.2,7.2-0.1,6.1s2.8-7.9,3.2-10.1s1.1-6.2,0.8-6.1
		S636.9,508.3,636.9,508.3z"/>
	<path style="fill:#0363F7;" d="M641.1,520.8c-1.1,1.8-6.6,10.4-6.8,10.9s-1.3,3-0.9,3.1s2.6-2.6,3.9-5.1s3-4.1,3.6-6.1
		S641.1,520.8,641.1,520.8z"/>
	<path style="fill:#0363F7;" d="M644.2,523.4c-1.1,2.4-4.4,10.9-4.7,12.1s0.6,2.5,1.8,0.4s3.9-7.4,4.2-9.2s-0.1-3-0.5-3.2
		S644.2,523.4,644.2,523.4z"/>
</g>
<g id="Fills3">
	<path style="fill:#D8E7FF;" d="M573,491.1c-17.8,8.2-25.8,28.2-34.8,30.2s-36.8,4.2-42.8,5s-36.5,4-57.5,2s-47.2-1.8-61.5-5.2
		s-41-9.8-55.8-8.5s-45.5,11.5-62,12s-29.8-2-36.5-3s-28-1.2-33-3s-17.2-11.8-20.5-16.2s-1.2-6-7.8-6.2s-24.5,1.2-26.8,4.8
		s-5.2,8.5-4.8,15.2s-7.8,17,3.2,20.8s9,7.8,22.8,7.5s51-1.8,78.8-0.8s58.1,0.4,71.7,3.6c13.6,3.2,37.8,5.4,54.6,4.2s63,0,73.5-1.8
		s46-5,55-4s39,9.2,46.5,7.5s29-2.8,31.5-10.8c2.5-8,4-16.5,7-19s9.5-3.2,10-7.5s1.8-6.2,3.8-10.5s5-7.8-0.5-12S573,491.1,573,491.1
		z"/>
	<path style="fill:#0363F7;" d="M362.9,399.5c-7.8-7.9-18.4-11.4-28.2-15.4c-0.7-0.3-0.1-0.7-0.6-1.3c0.8-0.2,0.8-2.3,1.5-2.1
		c8.4,2.5,16.8,6.1,25.1,9c6.2,2.2,12.1,5,18.1,7.6c5.1,2.3,10.1,3.6,15,6.2c2.3,1.3,3.9,3.5,5.8,5.4c0.1,0.1-0.1,3.7-0.7,3.8
		c-12,1.2-24.4,1-36.4,2.7c-7.2,1-14.3,3.5-21.2,5.8c-5.4,1.8-9.8,3.7-15.2,5.7c-3.1,1.2-5.7,4.2-9,4.7c-3.3,0.6-7.6-2.1-10.1-4.5
		c-3.9-3.7-6.2-6.4-10.1-10.1c-1.3-1.2-4.7-5-5.7-6.4C313.6,401.1,338.3,397.9,362.9,399.5z"/>
	<path style="fill:#0363F7;" d="M113,555.5c-1.2-1.8-5.2-9.1-5.2-9.1s-0.8-2.1,0-2.9c0.8-0.8,4.5-0.7,7.1,2.4s7.5,7.5,7.4,8.6
		s-1.4,1.8-3.1-0.6s-7.2-7.4-7.7-7.3c-0.5,0.1,1,2,1.8,4.2s2.7,5.9,1.9,5.8C114.4,556.4,113,555.5,113,555.5z"/>
	<path style="fill:#0363F7;" d="M113,533.2c1.7,1.6,5.7,7.8,5.5,6c-0.2-1.8-1.7-10-2.2-12.2c-0.5-2.2-1.5-3-0.8-3.5s1-0.8,1.5,1.9
		s4.9,16.9,5.2,18.6s3,8.9,1.7,7.5c-1.3-1.4-3.1-2.7-3.2-3.5s-2.2-7.5-4.4-9.1s-3.6-3.1-3.4-3.8S113,533.2,113,533.2z"/>
	<path style="fill:#0363F7;" d="M117.9,522.1c0.4,0.1,3.8,9.2,5,11.1s6.4,14.4,6.6,15.8s-1.1,0.4-1.4-0.6s-2.5-7.2-3.9-9.2
		s-3.4-4.9-4-6.6s-2.9-9.4-2.9-9.4L117.9,522.1z"/>
	<path style="fill:#0363F7;" d="M139.9,507.7c-0.1,0.9-0.3,2.3-0.4,3.7c0,0.1-0.2,0.3-0.3,0.3c-0.2,0-0.4-0.2-0.4-0.3
		c-0.3-0.9-0.6-1.8-0.7-2.7c-0.4-2.8-0.6-5.5-0.5-8.3c0-0.3,0.1-0.6,0.2-1c0-0.1,0.2-0.2,0.3-0.2c0.2,0,0.4,0.1,0.5,0.2
		c0.3,0.9,0.7,1.8,0.8,2.7C139.5,503.8,139.6,505.5,139.9,507.7z"/>
	<path style="fill:#0363F7;" d="M145.4,505.1c-0.6,1.4-1.6,4.5-1.3,5.4s2.2,0.8,2.5-0.6s1.1-3.8,0.4-4.4S145.4,505.1,145.4,505.1z"
		/>
	<path style="fill:#0363F7;" d="M170.5,524.9c2.9-0.8,7.2-0.8,9.6,0.2s4,2.6,0.6,2.1s-8-0.4-9.6-0.5s-3.1,0.1-2.1-1
		S170.5,524.9,170.5,524.9z"/>
	<path style="fill:#0363F7;" d="M182.2,530c-1.3,0.5-2.5,0.6-3.8,0.5c-4-0.3-8-0.6-11.9-0.8c-0.9-0.1-1.8,0-2.7-0.1
		c-0.5,0-1,0-1.4,0c-0.4-0.1-0.8-0.3-1.2-0.4c0.4-0.2,0.7-0.4,1.1-0.5c2.2-0.5,4.4-0.5,6.7-0.4c2.3,0.1,4.6,0.3,6.8,0.5
		c1.7,0.2,3.3,0.5,5,0.8C181.2,529.6,181.6,529.8,182.2,530z"/>
	<path style="fill:#0363F7;" d="M193.3,533.5c0.2,1.2,0.2,2.2,1.1,1.7s2,0,1.1-1.3s-1.5-1.9-1.9-1.4S193.3,533.5,193.3,533.5z"/>
	<path style="fill:#0363F7;" d="M151.5,546.1c0.6,1.8,2.6,11,3.4,14.1s2.4,13,2.9,14.5s1.6-3.4,1.5-5.9s-4-15.4-4.5-17
		s-1.9-5.4-2.5-6.2S151.5,546.1,151.5,546.1z"/>
	<path style="fill:#0363F7;" d="M154.4,547.7c1.5,1.4,3.3,4.4,3.9,5.5c0.7,1.1,2.9,7.5,2.9,8.8c0,1.3,0.7,5.9-0.2,4.3
		s-2.7-7.9-3.3-9.8c-0.7-1.8-1.3-4.3-2.2-6.2C154.5,548.6,154.4,547.7,154.4,547.7z"/>
	<path style="fill:#0363F7;" d="M165.4,548.3c-0.1,1.4-0.2,2.8-0.3,4.1c-0.4,4.2,0.2,8.2,1.8,12.2c0.1,0.2,0.2,0.4,0.2,0.6
		c-0.1,0.6-0.2,1.3-0.3,1.9c-0.9-0.1-1.1-0.8-1.3-1.3c-0.7-1.8-1.5-3.6-1.9-5.4c-0.4-1.7-0.5-3.4-0.6-5.1
		C162.8,552.7,163.6,550.4,165.4,548.3z"/>
	<path style="fill:#0363F7;" d="M169.7,555.2c0.3,1.9,0.8,5.2,1.2,7s0.9,4.6,1.7,2.2s-0.4-2.8-0.8-5.5s-1.6-4.1-1.4-4.1
		S169.7,555.2,169.7,555.2z"/>
	<path style="fill:#0363F7;" d="M186.9,569.5c-0.9-3.2-1.6-6.4-3.1-9.5c-0.7-1.5-1.5-3-2.5-4.4c-1.3-1.9-2.9-3.6-4.3-5.4
		c-0.6-0.8-1.2-1.7-1.7-2.5C182.9,553.5,186.5,560.9,186.9,569.5z"/>
	<path style="fill:#0363F7;" d="M181.1,551.9c1.2,1.4,6.9,9.4,7.8,10.9s4.4,8.1,4.6,9.1s0.6,2,0.6,1.8c0.8-2.4-0.2-6-1.1-7.6
		s-3.5-7.6-5.1-9.4s-3.9-4.1-5.2-5.3s-1.8-0.9-1.8-0.9L181.1,551.9z"/>
	<path style="fill:#0363F7;" d="M196.3,545.2c-0.4,2.4,0,7.1,0.2,9.2s1.4,9.4,1.7,9.4c0.3,0,0.9-1.7,0.6-3.8s-0.6-8.2-0.7-9.1
		s-0.2-4.9-0.6-5.8s-0.9-0.9-1-0.9S196.3,545.2,196.3,545.2z"/>
	<path style="fill:#0363F7;" d="M200.9,552.2c-0.1,0.6-0.4,4.7-0.3,5.4s-0.6,6.9-0.2,7.8s1.3,4.6,1.9,3.1s1.4-4.2,1.2-6.4
		s-1.1-6.9-1.4-8.4S200.9,552.2,200.9,552.2z"/>
	<path style="fill:#0363F7;" d="M206.4,548.6c0.5,0.2,0.9,0.3,1,0.4c0.4,0.5,0.8,1.1,1.1,1.8c0.1,0.2-0.2,0.6-0.5,0.8
		c-0.3,0.1-0.8,0.2-1.1,0.1c-0.9-0.5-1.4-1.4-1.4-2.3C205.6,549.1,206.1,548.8,206.4,548.6z"/>
	<path style="fill:#0363F7;" d="M206.6,560.4c-0.9,1.1-0.8,1.8-0.6,3.3s0.6,5.8,0.8,5.8s2.2,0.2,1.5-2.2s-0.6-3.1-0.6-4.4
		s-0.4-3-0.8-2.7s-0.3,0.3-0.3,0.3V560.4z"/>
	<path style="fill:#0363F7;" d="M209,533.6c1.5-0.8,6-0.9,7.9-0.4s12.2,2.2,10.6,3.1s-3.9,1.1-6.2,0.4s-5.5-2-7.1-2s-4.6,1.1-6,0.4
		S209,533.6,209,533.6z"/>
	<path style="fill:#0363F7;" d="M239.6,543.9c0.4,1.5,0.8,5.9,1.1,9.4c0.4,3.5,0.3,7.3,0.4,10.1s0.5,3.8,0.5,3.8
		c0.8-2.3,1.2-9.9,0.9-12.5s-1.2-8.1-1.6-9.1S239.6,543.9,239.6,543.9z"/>
	<path style="fill:#0363F7;" d="M247.2,551.8c-0.4,0.8-1.4,12.1-1.6,13.7s-0.4,3.9,0.1,3.8s2.6-3.8,2.8-6.2s0.2-8.4-0.3-9.5
		S247.2,551.8,247.2,551.8z"/>
	<path style="fill:#0363F7;" d="M257.1,536.1c0.6-0.7,3.7-1.9,5.5-2.4s6.6-1.1,7.8-1.4s4.2-0.4,2.7,0.4s-3.5,1.2-5.8,1.6
		s-6.9,2.1-8.2,2.4s-2.1,0.6-2.3,0.1s0.1-0.8,0.1-0.8L257.1,536.1z"/>
	<path style="fill:#0363F7;" d="M258.6,531.5c1-0.2,1.6-0.4,2.2-0.5c3.6-0.6,7.2-1,10.8-1.1c0.3,0,0.7,0,1,0.1
		c0.3,0.1,0.6,0.2,0.8,0.3c-0.2,0.2-0.3,0.3-0.5,0.5c-0.5,0.5-1.3,0.5-2,0.6c-2.9,0.3-5.8,0.6-8.7,1c-1.4,0.2-2.8,0.6-4.2,0.9
		c-0.2,0-0.4,0.2-0.6,0.2c-0.4,0-0.9,0-1-0.1c-0.3-0.3,0.1-0.6,0.4-0.8C257.5,532.3,258.2,531.8,258.6,531.5z"/>
	<path style="fill:#0363F7;" d="M267.8,562.9c-0.3,1.6-1.3,7.4-0.4,11s1.1,13.7,1.6,15.4s1.2,3.8,1.9,2.5s0.4-11.4,0.6-14.2
		s-1.2-7.1-1.6-9.6s-0.6-5.6-0.9-5.8S267.8,562.9,267.8,562.9z"/>
	<path style="fill:#0363F7;" d="M276.9,572.9c0.9-2.6,2.9-10.1,4.7-10.8s2-3.1,4.9-3.1s7.2,0.5,10.4,1.2s6.8,1.5,8.8,2.8
		s6.6,3,7.2,4.5s1.9,4.7,1.2,6.9s-3.6,6.8-4.1,6.8s-0.6-0.9-0.6-5.2s1-5.6-0.6-7.8s-9.1-4.8-12.1-5.5s-5.9-1.9-8.7-0.5
		s-4.5,5.2-5.7,8.2s-1.1,8.4-4,7.1S276.9,572.9,276.9,572.9z"/>
	<path style="fill:#0363F7;" d="M279.6,589c-1.3,2.5-2.1,11.9-1.9,12.9s1.9,1.2,2.2-0.3s1.6-7.8,1.5-9.8s-0.8-3.8-1.1-3.6
		S279.6,589,279.6,589z"/>
	<path style="fill:#0363F7;" d="M296.5,586.2c-0.1,0.2-0.2,0.5-0.3,0.5c-0.2,0-0.6,0-0.7-0.2c-1-1.1-2-2.1-2.8-3.2
		c-1.7-2.6-2.9-5.5-3.9-8.4c-0.1-0.3-0.1-0.5-0.1-0.8c0-0.1,0.1-0.3,0.3-0.4c0.1,0,0.3,0,0.4,0.1c0.5,0.5,1,0.9,1.4,1.4
		c1.9,2.6,3.6,5.2,4.8,8C295.9,584.2,296.2,585.3,296.5,586.2z"/>
	<path style="fill:#0363F7;" d="M291.6,570.7c0.7,1.1,3.1,5,4.5,7.3s4.5,8.8,4.9,8.5s1.1-2.4-0.1-4.5s-4.2-7.4-5.2-9.2
		s-2.9-3.1-2.9-3.1L291.6,570.7z"/>
	<path style="fill:#0363F7;" d="M297.5,568.4c0.6,1.1,3.3,5.4,3.9,6.4s1.8,3.9,2.3,4.2s2.2,0.6,0.4-1.8s-3-6.2-3.8-7.1
		s-1.3-2.4-2.1-2.5S297.5,568.4,297.5,568.4z"/>
	<path style="fill:#0363F7;" d="M303.9,569.7c0.1,1.2,1.9,5.2,2.5,5.7s1,2.1,1.5,1.4s0.9-1.3-0.2-3.1s-2.1-3.5-3.1-4.3
		S303.9,569.7,303.9,569.7z"/>
	<path style="fill:#0363F7;" d="M292.2,543.2c0.8-0.3,1.9-0.4,2.4,0.4s0.5,2.4,0.1,2.4s-1.8-0.8-2.1-1.4S292.2,543.2,292.2,543.2z"
		/>
	<path style="fill:#0363F7;" d="M306.4,548.2c0.1,0,0.8-0.1,0.9-0.1c1,0.1,0.4,0.1,0.8,0.8c0.4,0.8,1.6,2.5,0.2,2.2
		c-1.4-0.3-2-1-2.3-2C305.6,548.2,306.4,548.2,306.4,548.2z"/>
	<path style="fill:#0363F7;" d="M313.8,540.5c0.8,0.6,1.8,1.2,1.4,1.6s-1.1,1.6-1.9,0.4s-0.9-1.5-0.5-1.8S313.8,540.5,313.8,540.5z"
		/>
	<path style="fill:#0363F7;" d="M330,543c0,0.1,0,0.1-0.1,0.2c-0.7,1.8-0.4,5.3-0.2,8.5c0.2,3.2,0.6,17.1,0.6,17.3
		c0,0.2,1.5-3.7,1.9-6.5s-0.7-11.9-0.4-14.2s-0.5-2.4-1-3.5S330,543,330,543z"/>
	<path style="fill:#0363F7;" d="M339.4,551.1c0.8,0.6,0.9,1.4,0.9,2.1c0.2,3.6,0.4,7.2,0.5,10.8c0,0.4-0.1,0.8-0.1,1.4
		c-1.5-3-1.5-5.9-1.8-8.7C338.8,554.9,338.5,553,339.4,551.1z"/>
	<path style="fill:#0363F7;" d="M344.8,559.5c0.5,2.3,0.4,13,0.2,15.9s0.2,3.6,0.4,2.2s1.6-9,1.2-12.8s0.1-4.2-0.6-5.1
		S344.8,559.5,344.8,559.5z"/>
	<path style="fill:#0363F7;" d="M360.1,547.8c-0.4,3.5,0.1,7-0.8,10.5c0,0.2-0.1,0.3-0.1,0.5c0,0.1-0.2,0.2-0.3,0.2
		c-0.1,0-0.2-0.1-0.3-0.2c0,0-0.1-0.1-0.1-0.2c-0.2-2.2-0.4-4.3-0.4-6.5c0-3,0.3-6,0.5-9c0-0.2,0-0.3,0.1-0.5
		c0.1-0.1,0.2-0.2,0.3-0.3c0.1,0.1,0.3,0.2,0.3,0.4C359.5,544.4,359.8,546.1,360.1,547.8z"/>
	<path style="fill:#0363F7;" d="M369.6,535c-0.4,1.4-1.5,7.2-1.1,10.2s1.5,13.9,1.9,15.8s0.8,2.9,1,0.8s0.2-8.3,0.3-11.2
		s-1.1-10.7-1-12.4s-0.7-3.4-0.7-3.4L369.6,535z"/>
	<path style="fill:#0363F7;" d="M382.5,526.3c-0.9,1-2.9,3.2-3.6,6.3s-2.6,5.2-2.8,6.9s-2.9,11.4-2.6,13.5s0.7,4,1,3.2
		c0.3-0.8,1.7-4.6,2.6-10.2s0.7-6.4,1.2-7.8s4.2-8.9,4.5-10.3S382.5,526.3,382.5,526.3z"/>
	<path style="fill:#0363F7;" d="M388.5,545.1c-0.4,1.2-2.4,13.7-3.3,15.9s-2.3,6.8-2.2,7.5s1.1,1.4,1.9-0.3s4.6-11.1,5.4-14.6
		s-0.1-6.4-0.1-8.5s-1.3-3.3-1.3-3.3s-0.7,2.1-0.7,2.5S388.5,545.1,388.5,545.1z"/>
	<path style="fill:#0363F7;" d="M377.3,566.9c-0.3,0.3-0.5,0.8-0.8,1.3c-2.1,3.7-4.8,11.1-5,12.5c-0.2,1.5,0.2,11.2,0.1,14.4
		s0.3,8.5,0.5,8.6s2.1-6.5,2.3-9.8s1-12,1.8-15.1s1.5-8.6,2-10s0.6-2.5,0.2-2.4S377.3,566.9,377.3,566.9z"/>
	<path style="fill:#0363F7;" d="M364.9,589.1c-0.6,3.1-1.1,11.6-1.4,13.6s1.6,7.9,2,8.1s1.5-0.3,1-4.5s-0.7-14.1-0.4-15.8
		s0.9-4.6-0.4-3.7S364.9,589.1,364.9,589.1z"/>
	<path style="fill:#0363F7;" d="M384.3,580.1c0.8-1.6,5.6-7.9,7-9.3s1.9-1.8,4.2-2s4.8-1.6,7.9-0.5s10.3,2.9,11.5,4s4.8,5.6,5.9,7.8
		s1.9,5.5,0,6.8s-5.9,2.8-7,2.1s0.3-1.5,1-2.1c0.7-0.7,0.1-1.5-1.6-3.9s-4.4-5.8-4-6.5s0.7-0.7,1.9,0.4s4.3,6.2,4.8,6.7
		s2.2-0.7-0.4-3.9c-2.5-3.2-3.7-5.5-5.6-6.5s-4.5-1.8-6.9-1.9s-5.1-1.1-6.5,0s-3.1,3.4-5.4,5.4s-2.6,4.5-3.8,4.8s-1.4,1-3.5-0.3
		C383.7,581.1,384.3,580.1,384.3,580.1z"/>
	<path style="fill:#0363F7;" d="M394.4,583.4C394.5,583.4,394.5,583.5,394.4,583.4c0.8,1,2.1,2.9,2.7,3.6c0.7,0.8,1.8,1.7,1.4,1.7
		c-0.4,0.1-0.3,0.6-0.7,0.3s-3.5-2.5-3.8-3.8s-0.8-1.5-0.4-1.8S394.4,583.4,394.4,583.4z"/>
	<path style="fill:#0363F7;" d="M397.6,579.2c0.4,0.8,2.8,4.4,3.9,5.2s2.3,3.7,2.5,4.6s0.3,1.8-0.5,1.2s-2.2-0.3-3.2-2.2
		s-2.5-3.8-2.7-4.8s-0.6-2.5-0.7-3.1S397.6,579.2,397.6,579.2z"/>
	<path style="fill:#0363F7;" d="M406.1,577.6c0.4,0.6,1.8,2.4,2.4,3.4s2.2,3.7,2.2,3.8s-0.6,0.7-1.1,0s-2.7-3.3-3.1-4.2
		s-1.7-2.2-1.6-2.9s0.5-0.7,0.6-0.6S406.1,577.6,406.1,577.6z"/>
	<path style="fill:#0363F7;" d="M405.4,539.1c-0.1,0.8,0,1.9,0.7,2s1.9-0.1,1.2-1.2S405.4,539.1,405.4,539.1z"/>
	<path style="fill:#0363F7;" d="M414.2,551.3c3.1,0.4,6,0.8,8.9,1.2c1.5,0.2,3,0.5,4.5,0.8c1.1,0.3,2.1,0.7,3.1,1.1
		c0.1,0,0.3,0.3,0.2,0.4c-0.1,0.1-0.3,0.3-0.4,0.3c-0.4,0-0.8,0-1.2-0.1c-5.4-0.8-10.7-1.6-16.1-2.4c-0.4-0.1-0.8-0.1-1.2-0.2
		c-0.2,0-0.3-0.2-0.4-0.4c0,0,0.2-0.2,0.3-0.2C412.8,551.6,413.6,551.4,414.2,551.3z"/>
	<path style="fill:#0363F7;" d="M430.6,543.9c0.8-0.5,1.4-0.7,2.4-0.1c1,0.5,1.8,1.8,0.5,2c-1.2,0.2-1.8,0.6-2.4,0.4
		C430.5,546,430.6,543.9,430.6,543.9z"/>
	<path style="fill:#0363F7;" d="M406.2,556.4c0.5-0.3,0.1-0.6,1.3-0.5s6,0.6,7.8,0.7s7.5,0.3,9.4,0.5c1.9,0.2,5.3,1.2,4,1.4
		c-1.3,0.2-4.7-0.3-6.5-0.2s-8.1,0-9.3-0.2s-6.1-0.6-6.8-1C405.5,556.6,406.2,556.4,406.2,556.4z"/>
	<path style="fill:#0363F7;" d="M440.2,572.9c-0.2,4.3-0.4,8.6-0.5,13c-0.1,3.8-0.1,7.5-0.1,11.3c0,0.3,0,0.6,0,0.9
		c0,0.1-0.2,0.2-0.3,0.2c0,0-0.1-0.1-0.1-0.1c-0.1-0.4-0.3-0.8-0.4-1.2c-0.4-3-0.7-6-0.4-9.1c0.5-4.2,0.8-8.5,1.2-12.7
		c0.1-0.7,0.2-1.4,0.3-2.1C440,572.9,440.1,572.9,440.2,572.9z"/>
	<path style="fill:#0363F7;" d="M444.5,561.7c-0.4,1.5-2,12-1.8,14.4c0.2,2.4-1,14.3-0.8,16.5s0.2,6.2,0.6,4.2s2-11.2,2-14.2
		c0-3.1,0.7-12,0.8-14.3s-0.1-5.7-0.4-6.7C444.5,560.4,444.5,561.7,444.5,561.7z"/>
	<path style="fill:#0363F7;" d="M451.9,553.4c0.9-0.2,2.1,0.1,1.7,0.6c-0.5,0.5-0.5,1.3-1,0.6c-0.5-0.7-0.4-0.6-0.5-0.9
		C452,553.4,451.9,553.4,451.9,553.4z"/>
	<path style="fill:#0363F7;" d="M462.4,557.4c1.2,1.2,1.8,2.6,2.2,4.1c0.1,0.5,0.4,1,0.6,1.5c0.8,1.6,0.9,3.3,1.3,5
		c0.3,1.4,0.6,2.9,0.8,4.3c0.2,1.2,0.3,2.4,0.2,3.7c-0.1,1.2-0.4,2.3-0.6,3.5c-0.8-1.7-0.9-3.4-1.2-5.1c-0.4-1.9-0.6-3.8-1-5.7
		c-0.6-2.6-1.3-5.2-1.8-7.8C462.6,559.7,462.6,558.6,462.4,557.4z"/>
	<path style="fill:#0363F7;" d="M474.5,536.3c-1.2,2.7-0.4,5.1-0.7,6.3c-0.3,1.2-2.5,6.3-2.9,7.8c-0.4,1.5-1.1,8.6-1,10.4
		s0.5,6.6,1.1,5.2c0.6-1.4,0.9-9.6,1.1-11.6s1.3-6.4,1.5-6.4c0.2-0.1,0.9,2.1,1.2,4.3c0.3,2.2,2.1,10.2,2.4,10.9
		c0.3,0.7,1,1.2,0.7-1.8s-0.7-3.8-1-6.6s-0.8-9.2-0.8-10.8c0-1.5,0.1-5.7-0.2-7s-0.4-1.6-0.9-1.4
		C474.5,535.9,474.5,536.3,474.5,536.3z"/>
	<path style="fill:#0363F7;" d="M482.3,550.6c-0.7,1.6-2.4,8.8-2.7,10.4s-0.1,2.9,0.5,1.8s1.8-8.1,2.2-9.4s0.9-2.9,0.8-3
		S482.3,550.6,482.3,550.6z"/>
	<path style="fill:#0363F7;" d="M484,539.7c0,0.4,0.4,6.9,0.6,8.1s0.2,12.4,0.3,13.1c0.1,0.7,0.8,3.1,0.8,4.6
		c-0.1,1.5-0.8,4.8,0.1,4.2c0.9-0.7,1.6-6.3,1.8-7.7c0.2-1.4-0.5-10.6-0.5-12.8c-0.1-2.2-0.9-7.9-1.1-8c-0.2-0.2-1-1.8-1.2-1.7
		C484.4,539.4,484,539.7,484,539.7z"/>
	<path style="fill:#0363F7;" d="M494,569.8c-0.1,0.9,0,1.9,0.2,4.5s0.8,7,0.7,8.4c0,1.4-0.1,4.7,0.7,3s0.7-3.7,0.8-5
		c0.1-1.3-0.7-6.6-0.8-7.6c-0.1-1-0.7-3-0.9-3.1C494.5,569.6,494,569.8,494,569.8z"/>
	<path style="fill:#0363F7;" d="M495.8,561.8c-0.1,0.7-0.2,5,0.5,6.4c0.6,1.3,1.2,6.4,1.2,7.5c0.1,1,0.2,5.2,0.5,6.2
		s0.3,3.2,0.8,2.9c0.5-0.3,0.8-6.8,0.5-8.4c-0.3-1.5-0.8-6.8-1-8.2c-0.2-1.5-0.9-3.9-1.3-4.6C496.6,562.9,495.8,561.8,495.8,561.8z"
		/>
	<path style="fill:#0363F7;" d="M506.5,554.1c-0.7,0.9-0.9,1-1,2.1c-0.1,1.1,0.1,4.8-0.5,7.1c-0.6,2.3-2.5,10.8-2.9,12.8
		s-1.5,4.4-0.6,4c0.9-0.4,3.4-7.6,3.6-9.4s1.1-6.8,1.4-7s0.3-0.2,0.5,0.9c0.2,1,0.7,7.8,0.2,10.5s-0.8,4.7-0.5,4.5
		c0.3-0.2,1,0.2,0.8,0.8c-0.2,0.6-0.5,2.5,0.2,1.8s1.7-5,2.7-7s3.1-9.7,3.4-10c0.2-0.3,1-2.1,0.9-2.2c-0.2,0-0.2-0.7-1.3,0.5
		s-2.8,7.2-3.2,7.8c-0.5,0.7-0.7,0.8-0.8-0.9s-1-8.1-1.1-9.1s-1.3-3.4-1.1-4.2s-0.1-3.1-0.1-3.1L506.5,554.1z"/>
	<path style="fill:#0363F7;" d="M513.2,553.6c-0.1,0.4-0.3,2.1,0.2,2.4c0.6,0.2,2.2-0.3,2.2-0.5c0-0.2,0.2-1.7-1-2
		S513.2,553.6,513.2,553.6z"/>
	<path style="fill:#0363F7;" d="M513.3,569c-0.5,0.6-0.5,3-0.7,4.4c-0.2,1.5-0.8,6.2-1,7.4c-0.2,1.1-0.9,3.8-0.1,3.2
		s2.2-5.3,2.3-6.5c0.2-1.2,0.6-4.4,0.6-5.3s-0.2-2.9-0.3-3c-0.1-0.2-0.3-0.2-0.3-0.2"/>
	<path style="fill:#0363F7;" d="M508.2,541.1c-0.4,0.5-1.4,0.9-0.9,1.5c0.5,0.6,1.4,0.9,1.8,0.6c0.4-0.2,1.3-0.8,0.4-1.5
		S508.2,541.1,508.2,541.1z"/>
	<path style="fill:#0363F7;" d="M525.7,535.8c-0.6,0.6-1,2.2-0.2,2.4c0.8,0.2,2.1,1,2.4,0.1s0.2-1.8-0.5-2.2
		S525.7,535.8,525.7,535.8z"/>
	<path style="fill:#0363F7;" d="M543.6,528.6c-0.4,1-0.7,1.3-0.3,1.8c0.4,0.5,1.3,1.7,2.1,1.2s1.2-0.5,1.3-1c0-0.5,0-1.2-0.6-1.4
		s-1.8-1.1-2-0.9C543.9,528.4,543.6,528.6,543.6,528.6z"/>
	<path style="fill:#0363F7;" d="M539.5,545.7c-0.3,0.2-1,2.7-1.1,3.4c-0.1,0.7-1.7,5.5-2.1,6.1c-0.5,0.6-1.4,4-1.8,4.6
		c-0.4,0.7-1.7,2.3-1.8,3c-0.2,0.8,0.2,1.6,0.8,1.2c0.5-0.3,2.4-2.3,3.1-4c0.7-1.7,3.7-8,4-9.3s0.2-2.6,0.1-3.5
		c-0.1-0.9-0.3-1.2-0.4-1.6S539.5,545.7,539.5,545.7z"/>
	<path style="fill:#0363F7;" d="M544.9,542.3c-0.5,0.6-2,9.7-2.2,10.3c-0.2,0.7-3,9-3.3,10c-0.3,1-2.2,8.7-2.9,9.7
		c-0.7,1-2.4,4.9-1.8,5.2c0.6,0.3,2.5-1.7,3.4-4c0.9-2.4,5-14.4,5.5-16.1c0.5-1.8,2.1-6.5,2.3-8s0.1-4.1,0.2-5.7
		c0.1-1.6-0.2-2.2-0.6-2.2C545.1,541.4,544.9,542.3,544.9,542.3z"/>
	<path style="fill:#0363F7;" d="M554.8,563.2c0.4-1,2.7-4.2,3.4-5.5c0.7-1.2,2.6-1.8,4-2c1.4-0.1,4.1,0.4,5.2,1.5
		c1.1,1.1,3.3,3,3.9,4.2c0.6,1.2,0.3,4.1-0.4,4.9c-0.7,0.8-2.3,2.8-4,2.2c-1.7-0.5-2-1.2-2.9-2.8s-1.8-3.6-1.4-3.6s1.2,0.3,2.1,1.4
		c0.9,1.1,2.6,1.8,3,0.9c0.4-0.9,1.7-0.5,0.1-2.9c-1.5-2.3-2.8-3.5-3.4-3.8c-0.7-0.3-1.6-1.1-3-0.2s-3.6,2.3-4,3.2
		c-0.5,0.8-2.1,3.3-2.5,3.6S554.8,563.2,554.8,563.2z"/>
	<path style="fill:#0363F7;" d="M558.3,562c0.3,1.1,0.7,2,1.8,3.9c1.1,1.8,2.2,2.8,2.6,3c0.4,0.2,1.1,0.9,1.1-0.1
		c0-1-2.6-5.2-2.9-5.7s-1-1.3-1.5-1.3S558.3,562,558.3,562z"/>
	<path style="fill:#0363F7;" d="M570.2,520.7c-0.4,0.8-2.8,3.5-3.1,4.1c-0.4,0.6-3.2,5.6-3.5,6.6c-0.3,1-2,6.8-2,8.4s0.3,4,0.9,2.1
		s2.6-8.5,2.9-8.4c0.3,0,0.2,6.7,0.2,8.2c0,1.5,0.1,7.5,0.5,6.8c0.4-0.7,0.9-3.5,1.3-7.2s1.8-12.8,2.1-14.5s0.4-3.5,0.7-4.5
		C570.4,521.3,570.2,520.7,570.2,520.7z"/>
	<path style="fill:#0363F7;" d="M584.4,553.8c0-0.1,0-0.1,0-0.2c0.1-2.2,0.8-7.8,1.5-10.2c0.8-2.5,2.4-8.9,3.4-9.9
		c1-1,1.1-2.3,1.4-1.7c0.3,0.5-0.1,3.9,0,5c0.2,1-0.1,8.5-0.5,10.3c-0.4,1.8-1,10.5-1.3,10.8s-0.5,0.6-0.5-1s-0.1-8,0-9.3
		c0.1-1.3,0.8-8,0.4-7.9s-0.8,1.9-1,3c-0.2,1.1-2.4,9.4-2.8,11.3c-0.4,1.9-0.5,4.5-0.6,2.9C584.5,555.1,584.4,553.8,584.4,553.8z"/>
	<path style="fill:#0363F7;" d="M602.9,525.2c-0.1,0.6-1.5,10.1-1.8,12c-0.3,1.9-2.6,14.2-3.5,16.2c-0.9,2-0.8,3.9-0.1,2.7
		s3.1-7.3,3.2-8.6s1-4.4,1.3-3.9c0.3,0.5,0.3,2.3,0.2,3.4s-0.9,7.5-1.6,10.2c-0.7,2.8-1.8,8.5-1.6,9c0.2,0.5,1.5-0.5,1.9-3.3
		c0.4-2.8,3.3-14.9,3.4-16.6c0.1-1.7,0.8-8,0.4-9.2c-0.4-1.3,0-4-0.3-6s-1-4.3-1.1-4.9C603.2,525.6,602.9,525.2,602.9,525.2z"/>
	<path style="fill:#0363F7;" d="M588.9,502.6c0.1-0.1,0.1-0.7,0.4-0.8c0.4-0.1,1,0,1.4,0.2c0.3,0.1,0.5,0.3,0.7,0.5
		c0.6,0.7,0.7,1.4,0.2,1.8c-0.2,0.2-0.7,0.3-1,0.2c-0.8-0.2-1.6-0.5-1.7-1.4C588.9,503.1,588.9,503,588.9,502.6z"/>
	<path style="fill:#0363F7;" d="M599.9,492.2c-0.6,1.9-0.8,4.3-0.6,7.6s0.5,6.7,1.2,4.4s1.9-5.9,1.6-7.9s-1.4-3.5-1.6-3.7
		C600.2,492.4,599.9,492.2,599.9,492.2z"/>
	<path style="fill:#0363F7;" d="M608.9,506c0.7-0.2,0.9-0.5,1.2,0.2s0.1,1.3-0.4,1.2S608.9,506,608.9,506z"/>
	<path style="fill:#0363F7;" d="M609,516.8c-0.3,0.5-0.9,1.1-0.4,1.3s1.2,0.6,1.3-0.2s-0.6-1.1-0.6-1.1L609,516.8z"/>
	<path style="fill:#0363F7;" d="M616.3,519.2c0,0.4,0,1-0.8,0.9c-0.7-0.1-0.9-0.6-0.9-1.1c0-0.4,0.2-0.8,0.7-0.8
		C616,518.2,616.3,518.6,616.3,519.2z"/>
	<path style="fill:#0363F7;" d="M610.4,526.7c0-0.1,0.2-0.5,0.3-0.5c0.3,0,0.9,0,1,0.2c0.3,0.5,0.6,1.1,0.7,1.7
		c0,0.1-0.2,0.4-0.4,0.5c-0.2,0.1-0.5,0-0.7-0.1C610.7,528.1,610.4,527.6,610.4,526.7z"/>
	<path style="fill:#0363F7;" d="M618.6,534.5c0.1-3.5,0.1-7,0.2-10.5c0-0.6-0.3-1.3,0.6-1.8c0.3,0.6,0.8,1.2,0.9,1.8
		c0.2,2.4,0.4,4.8,0.4,7.2c0,2.3-0.3,4.7-0.6,7c-0.1,0.9-0.4,1.8-0.6,2.6c0,0.1-0.2,0.2-0.4,0.4c-0.2-0.1-0.4-0.3-0.4-0.5
		c-0.1-0.6-0.1-1.2-0.1-1.8C618.5,537.4,618.5,535.9,618.6,534.5C618.5,534.5,618.5,534.5,618.6,534.5z"/>
	<path style="fill:#0363F7;" d="M636.3,505.6c-0.9,2-1.7,3.7-2.3,5.3c-2,5.6-3.6,11.3-4.9,17.1c-0.3,1.2-0.5,2.4-0.8,3.6
		c0,0.2-0.3,0.3-0.4,0.5c-0.1-0.2-0.3-0.4-0.3-0.6c0.2-2.3,0.1-4.6,0.6-6.8c1.1-4.8,2.7-9.5,4.7-14c0.6-1.5,1.6-2.8,2.5-4.2
		C635.6,506.2,635.9,506.1,636.3,505.6z"/>
	<path style="fill:#0363F7;" d="M634,524.7c0-6,1-11.9,3.4-18C637.8,510,635.6,521.5,634,524.7z"/>
	<path style="fill:#0363F7;" d="M640.8,521.5c-1.7,1.4-4.2,6-5,7.7s-3.5,6.1-3,6s1.9-1.2,3.2-3.4s5-7.8,5.4-9.1
		S640.8,521.5,640.8,521.5z"/>
	<path style="fill:#0363F7;" d="M644.1,523.8c-1.2,2.6-4.1,8.4-4.4,9.6s-0.4,4.3,0.5,3.2s3-3.4,3.8-5s2.3-5.1,2.1-6.9
		s-0.7-1.3-0.9-1.2S644.1,523.8,644.1,523.8z"/>
</g>
<g id="Lines">
	<path style="fill:#162B54;" d="M236.9,388.8c24.6,5.9,47.3-0.5,69.7-10.5c-0.9,0.8-1.8,1.9-2.8,2.4c-4.4,2.1-8.8,4.6-13.5,6
		c-9.3,2.7-18.7,5.4-28.3,6.8c-6.6,0.9-13.5-0.3-20.2-1c-1.9-0.2-3.6-1.8-5.4-2.7C236.6,389.4,236.8,389.1,236.9,388.8z"/>
	<path style="fill:#162B54;" d="M430.7,416.8c-0.4,1.6-0.4,2.6-0.9,3.1c-5.3,5-10.7,9.9-16.1,14.7c-6.2,5.6-12.4,11.3-18.7,16.8
		c-4.3,3.7-8.9,7.1-13.5,10.5C397.6,447.1,413.7,432.4,430.7,416.8z"/>
	<path style="fill:#162B54;" d="M362.7,464.1c4.4-4.1,8.7-8.3,13.3-12.2c9.4-8.2,19-16.2,28.5-24.4c0.7-0.6,1.3-1.4,2.1-2
		c0.5-0.4,1.1-0.6,1.7-0.8c-0.1,0.8,0.1,1.9-0.3,2.3c-2,1.9-4.2,3.7-6.4,5.5c-10.5,8.8-21,17.5-31.5,26.2c-2.1,1.7-4.1,3.6-6.1,5.4
		c-0.2,0.2-0.6,0.3-0.9,0.4C362.9,464.4,362.8,464.3,362.7,464.1z"/>
	<path style="fill:#162B54;" d="M195.3,419c-4.3,3.2-8.7,6.5-13,9.7c-0.7,0.5-1.4,1.1-2.2,1.5c-0.4,0.2-0.9-0.2-1.4-0.3
		c0.2-0.3,0.4-0.8,0.7-1c4.8-3.2,9.5-6.4,14.3-9.5c0.4-0.3,0.9-0.5,1.4-0.7C195.2,418.8,195.2,418.9,195.3,419z"/>
	<path style="fill:#162B54;" d="M219.3,376c-2.9-1.7-5.9-3.3-8.7-5.1c-5.2-3.5-10.3-7.2-15.5-10.8c-0.7-0.5-1.2-1.1-1.7-1.8
		c-0.2-0.3,0-0.9,0.1-1.4c0-0.1,0.6-0.2,0.8,0c8.2,6,16.3,12,24.5,18c0.2,0.2,0.5,0.4,0.7,0.6C219.5,375.7,219.4,375.8,219.3,376z"
		/>
	<path style="fill:#162B54;" d="M496.7,431.3c-4.8,3.2-12.2,7.8-17,11c-0.3-0.4-0.5-0.8-0.8-1.2c4.8-3.3,9.6-6.6,14.4-9.9
		C493.6,431.7,496.4,430.8,496.7,431.3z"/>
	<path style="fill:#162B54;" d="M341.8,476c-0.6-0.1-1.3-0.2-2-0.2C340.4,475.9,341.1,476,341.8,476z"/>
	<path style="fill:#162B54;" d="M332.6,475c-0.9-0.1-1.7-0.2-2.6-0.3C330.8,474.8,331.7,474.9,332.6,475z"/>
	<path style="fill:#162B54;" d="M335.1,475.3c-0.8-0.1-1.7-0.2-2.5-0.3C333.4,475.1,334.3,475.2,335.1,475.3z"/>
	<path style="fill:#162B54;" d="M294.7,368.9c3.6-3,7.3-6.1,10.9-9.2C302,362.7,298.3,365.8,294.7,368.9z"/>
	<path style="fill:#162B54;" d="M336.5,473.8c-17.9-0.9-35.9-2.2-53.9-2.5c-17.9-0.3-36,0.3-54,0.8c-6.3,0.2-33.8,2.1-41.2,2.7
		c-6.1,0.5-12.2,1.8-18.2,2.7c0,0.5,0,1.1,0,1.6c2.1,0.1,4.1,0.4,6.2,0.3c4.6-0.2,9.3-0.6,13.9-0.8c11.6-0.7,104.8-2.9,113.6-2.7
		c0.4,0,29.5,0.3,41.8,0.7l12.4-2.1C341.9,474,338.8,473.9,336.5,473.8z"/>
	<path style="fill:#162B54;" d="M576.9,484.2l0.2,0l-0.3-0.2C576.8,484,576.8,484.1,576.9,484.2z"/>
	<path style="fill:#162B54;" d="M300,366.7c-1.2,0.6-2.4,1-3.6,1.5C297.6,367.8,298.9,367.3,300,366.7z"/>
	<path style="fill:#162B54;" d="M300,366.7c0.6-0.3,1.1-0.6,1.7-1c2.1-1.5,5.2-2.2,6.9-4.1c-1.7,1.9-4.8,2.6-6.9,4.1
		C301.1,366.1,300.6,366.4,300,366.7z"/>
	<g>
		<path style="fill:#162B54;" d="M576.7,480.2c0-3.7-1.1-13.9-3-16.6c-3.5-5-4.7-7.8-9-12.2c-6.9-7.2-14.8-10.4-23.8-14.1
			c-10.7-4.5-19.8-9.2-30.5-13.7c-6-2.5-11.6-6-17.7-8.3c-7.5-2.9-15.3-5.1-22.9-7.7c-2.8-1-6.3-3.4-8.3-5.3
			c-2.8-2.8-5.8-4.4-9.5-5.3c-2.6-0.6-5-0.7-7.6-1.6c-0.8-0.3-1.7-0.4-2.2-0.9c-2.1-2-6.3-0.5-7.4-4.5c-0.2-0.6-0.6-1.2-1-1.7
			c-3.4-3.5-7.2-5.9-12.3-5.7c-0.2,0-0.5-0.4-0.8-0.6c-2.9-2.4-5.5-5.7-8.9-6.9c-3.8-1.3-6.5-3.4-9.2-6c-1.6-1.6-3.5-2.9-5.5-4
			c-1.1-0.6-2.6-0.5-3.7-1.1c-5.4-3-10.8-7.1-16.2-10.2c-0.3-0.2-0.6-0.2-0.9-0.3c-3.2-1-6.5-1.7-9.5-3.1c-2.8-1.3-5.3-0.5-7.9-2.3
			c-1.7-1.2-3.6-2.5-4.8-4.1c-3.2-4.4-7.6-10.7-13-16.6c-4-3.3-8-7.3-11.9-7.1c-5.5,0.4-10.4,4.1-13.9,8.7c-3.9,6.4-4,16.9-7.9,20.9
			c-6.2,6.3-12.8,12.4-20,17.6c-4.4,3.1-10,4.6-15.4,6c-8.2,2.1-16.3,5.1-23.7,1.1c-9.5-5.1-14.1-21.6-20.2-30.2
			c-6.7-9.5-13-19.1-23.9-24.2c-2.2-1-5.9-1.5-7.8-0.3c-6.7,4.3-10.1,10.6-11.6,18c-0.7,3.2-0.1,7-1.5,9.8
			c-7,14.3-13.6,33.4-16.4,49c-2.9,16-5.4,33-5.1,49.4c0.1,5.8,0.1,11.6,0.2,17.5c-0.7,1.3-1.8,2.9-2.5,4.6c-1.5,3.1-2.7,7-2.9,8
			c-1.2,5.1,0.1,10.9,1.8,15.7c0.1,0.3,0.2,0.6,0.4,0.8c0.2,0.2,4.9,6,8.1,9.9c0.9,1.6,2,2.9,3.1,4.5c1.7,2.5,4,3.8,5.9,6.2
			c0.7,0.8,1.5,1.6,2.4,2.2c2,1.4,4.2,2.7,6.2,4.1c3.3,2.2,7,3.7,11.1,4.8c0.8,0.2,1.7,0.4,2.4,0.8c2.4,1.4,5.2,2,7.9,2.6
			c5.9,1.3,11.9,2.1,18.1,1.5c5.6-0.5,11.2-0.7,16.7-1.4c4.7-0.6,9.4-0.8,14.1-1.1c4.4-0.3,8.8-0.4,13.1-0.6
			c4.4-0.2,8.9-2.3,13.3-2.5c2.5-0.1,4.9-1.1,7.4-1.2c2.3-0.1,4.5-0.3,6.8-0.5c2.5-0.2,4.9-0.2,7.4-0.5c5.6-0.7,11.2-0.3,16.7-0.3
			c2.3,0,4.5,0.3,6.8,0.3c4.7,0,9.4,0,14.2,0c2.3,0,4.7-0.1,7-0.2c3.5-0.2,6.9,2.6,10.4,2.5c3.1-0.2,6.2,0.3,9.3,0.5
			c5.7,0.5,11.4,0.9,17.1,1.3c5.8,0.4,11.7,0.7,17.5,1c5.4,0.2,10.8,0.5,16,1.4c1.6,0.3,3.1,0.8,4.6,0.9c2.7,0.2,5.4,0.8,8,1.3
			c5.6,1.1,11.2,1.8,16.9,2.1c4.4,0.2,8.9,0.1,13.3,0c5.7-0.1,11.4-0.4,17.1-1.1c5.1-0.7,10.3-1.1,15.4-1.6c1.2-0.1,2.4-0.1,3.6-0.1
			c1.4,0,2.8,0.2,4.1-0.2c0.5-0.2,1.2-0.1,1.8,0c2.7,0.6,5.5,0.7,8.3,0.9c1.1,0.1,2.3,0.2,3.4,0.1c2.4-0.3,4.9-0.6,7.3-1
			c1.6-0.3,3.2-0.7,4.9-1c3.2-0.5,6.3-1.5,9.2-2.7c2.5-1,3.9-2.8,4.6-4.8c0.6-1.6,1.3-2.5,3.3-2.3c0.1,0,0.1,0,0.2,0
			c2.9-0.8,5.5-2.2,7.5-4.1c1.5-1.4,2.4-3.2,3.3-5c0.7-1.3,1.5-2.3,3.2-2.7c1.2-0.3,2.2-0.9,2.9-1.7c2.5-2.5,4.9-5.1,5.7-8.4
			c0.3-1.1,1-1.8,2.4-1.8c1.3,0,2.2-0.5,3.1-1.4c1.3-1.3,2.8-2.4,4.1-3.7c0.8-0.8,1.5-1.7,1.3-2.7c-0.2-1.1,0.4-2.1,0.6-3.1
			C577.9,483.5,577.3,481.9,576.7,480.2z M312.6,354.3c0.2-0.9,0.5-1.8,0.7-2.7c0.5-1.9,1-4,1.5-6c0.7-2.5,1.4-4.9,2.1-6.7
			c0.3-0.7,0.6-1.4,0.9-1.9c0.2-0.6,0.4-1.1,0.7-1.6c0.4-1,0.8-1.9,1.2-2.7c1-2,2.1-3.6,4.2-5.1c1.1-0.8,3-1.1,4.7-1
			c0.6,0,1.1,0.1,1.6,0.3c1,0.3,2,0.8,3,1.3c1.4,0.8,2.7,1.8,4,2.9c0.4,0.4,0.8,0.8,1.2,1.2c0.8,0.8,1.6,1.6,2.4,2.5
			c0.8,0.9,1.5,1.8,2.3,2.7c1.9,2.3,3.7,4.7,5.6,6.9c0.4,0.4,0.8,0.9,1.2,1.3c-2.6-0.5-5.2-0.8-7.7-0.8c-1.7,0-3.4,0.1-5,0.3
			c-0.8,0.1-1.6,0.3-2.4,0.5c-0.8,0.2-1.6,0.5-2.4,0.8c-0.8,0.3-1.6,0.7-2.3,1.1c-2.1,1.2-4.1,2.4-6.2,3.6c-2.3,1.4-4.5,2.8-6.8,4.2
			c-1.4,0.9-2.9,1.8-4.3,2.6l0,0c-0.3-0.1-0.7-0.2-1-0.3C311.9,356.7,312.3,355.6,312.6,354.3z M546.7,473.2l-1.6,0.6
			c-17.3,0.4-34.5,1-51.8,1c-12.7,0-25.3-1.3-38-1.7c-7.8-0.3-15.5,0.2-23.3,0.1c-11.9-0.2-27.4-0.1-39.4-0.6
			c-8.8-0.4-15.1,0.6-24.6,4.2l66.2-1.6c11.1,0.4,22.1,0.7,33.2,0.9c10.8,0.2,21.6,0.2,32.4,0.2c12.6,0,25.3,0,37.9-0.2
			c4,0,8.1-0.4,12.1-0.8c6.9,0.1,15.7,0.3,16.7,0.5c2.5,0.4,5.3,2.8,5.6,4.9c0.3,2.3,0.4,4.7,0.6,7c0.1,0.7-0.2,1.2-0.8,1.7
			c-1.1,0.8-2.1,1.7-3.2,2.5c-0.4,0.3-1,0.4-1.5,0.6c-0.2-0.5-0.3-1.1-0.4-1.6c0-0.1,0.1-0.3,0.2-0.5c0.6-1,0-1.8-0.8-2.4
			c-0.8-0.6-1.9-1.1-2.9-1.3c-2.1-0.3-4.2-0.5-6.3-0.6c-2.6-0.1-5.2,0-7.8-0.1c-6.5-0.2-13-2.6-19.2-4.6c-2.2-0.7-4.5-1.2-6.8-1.8
			c-0.6-0.2-1.3-0.2-1.9-0.3c-1-0.1-2-0.2-2.9-0.4c-1.2-0.2-2.5,0.4-3.7,0.2c-1.2-0.2-1-1.2-2.2-0.8c-0.4,0.1-2,0.1-2.3,0.2
			c0.3,0.2,0.6,0.5,1,0.6c0.7,0.2,1.4,0.4,2.1,0.6c4.3,1.1,8.6,2.3,12.7,3.8c3.4,1.2,7,4.1,10.7,4.5c5.3,0.7,10.7,0.8,16.1,0.8
			c2.3,0,4.6,0.1,7,0.2c1.3,0.1,2.4,0.6,3.4,1.2c0.9,0.6,1.3,1.4,1.5,2.3c0.2,0.8-0.3,1.4-1.1,1.9c-0.2,0.1-0.1,0.5-0.2,0.7
			c0,0.3,0.1,0.6-0.1,0.8c-1.4,2-2.6,4-4.7,5.6c-1.9,1.5-2.4,1.5-3.7-0.4c-0.8-1.1-1.6-2.2-3-2.8c-1.2-0.6-2.4-1.2-3.7-1.6
			c-2.9-1-6-1.5-9.1-1.8c-2.7-0.3-5.5-2.3-8.2-2.6c-2.2-0.2-4.3-0.5-6.5-0.8c-4.6-0.8-9.1-1.5-13.8-1.6c-3-0.1-6-1.2-8.9-2
			c-1.5-0.4-3-0.8-4.6-1.1c-0.5-0.1-1-0.1-1.6-0.1c-0.1,0-0.3,0.4-0.2,0.5c0.5,0.3,0.9,0.6,1.4,0.9c0.8,0.4,1.7,0.6,2.5,1
			c3.2,1.5,6.7,2.1,10.3,2.2c3.9,0.1,7.8,1.7,11.6,2.5c1.5,0.3,2.9,0.8,4.4,0.9c3.8,0.4,7.7,2.6,11.5,2.9c2.5,0.2,5,0.5,7.4,1.1
			c2.7,0.7,4.4,2.2,5.3,4.4c0.6,1.6,1,3.2,1.3,4.9c0.1,0.6,0,1.2-0.3,1.8c-1.8,3.3-5.1,4.9-9,5.9c-0.6,0.2-1,0-1.3-0.5
			c-0.5-1.2-1-2.4-1.4-3.6c-0.5-1.2-1.2-2.2-2.8-2.6c-1.4-0.3-2.8-0.9-4.2-1.1c-2.1-0.2-4-2.7-6.1-3c-1.8-0.3-3.6-0.7-5.5-0.9
			c-5.7-0.6-11.5-1.8-17.3-1.6c-4.5,0.2-8.9-0.3-13.2-1.5c-2.5-0.6-5-1-7.7-0.8c2.6,1.5,5.6,2.4,8.6,3.2c3.9,1.1,8,1.5,12.2,1.6
			c4.7,0.1,9.5,1.1,14.2,1.2c0.8,0,1.6,0.1,2.4,0.3c3.9,0.6,7.9,3.2,11.8,3.8c2.1,0.3,3.9,1.1,5.4,2.4c0.3,0.3,0.7,0.6,0.7,1
			c0.2,1.9,0.1,3.9-1.2,5.5c-2.9,3.7-6.9,6-12.2,6.5c-2.6,0.3-5.3,0.4-7.9,0.6c-5.4,0.4-10.8,0.3-16.1-0.5c-2.4-0.4-4.9-0.4-7.3-0.4
			c-1.7,0-3.3,0.2-4.9,0.5c-1.2,0.2-2.2-0.1-3.1-0.7c-1-0.7-2.1-1.4-3.2-2c-0.4-0.2-0.7-0.5-1.1-0.7c-0.2-0.1-0.4,0-0.7-0.1
			c0,0.2,0,0.4,0.1,0.5c0.9,0.8,1.9,1.7,2.9,2.5c0.2,0.2,0.4,0.5,0.6,0.8c-0.3,0.1-0.6,0.3-0.9,0.3c-1.7,0.2-3.4,0.4-5.2,0.5
			c-3.4,0.2-6.9,0.4-10.4,0.5c-1.9,0.1-3.7,0.1-5.6,0.2c-0.9,0-1.5-0.3-2.2-0.9c-1.2-1.1-2.7-2.1-4.1-3.1c-0.2-0.2-0.6-0.1-0.9-0.2
			c0.1,0.3,0.1,0.6,0.4,0.8c0.7,0.6,1.5,1.2,2.3,1.9c0.3,0.2,0.6,0.4,0.9,0.7c0.4,0.3,0.2,0.6-0.2,0.6c-1,0-2,0-3,0
			c-0.9,0-1.5-0.3-2.1-0.8c-1.5-1.2-3-2.3-4.6-3.5c-0.5-0.4-1.2-0.6-1.8-0.9c-0.3,0.8,0.4,1.2,0.9,1.7c0.8,0.8,1.8,1.5,2.7,2.3
			c0.2,0.1,0.3,0.4,0.2,0.6c-0.1,0.1-0.4,0.3-0.6,0.3c-1-0.1-1.9-0.2-2.7-0.9c-1.3-1.1-2.6-2.1-3.9-3.1c-0.7-0.5-1.4-1-2.1-1.4
			c-0.2,1,0.8,1.6,1.4,2.2c0.4,0.4,0.9,0.8,1.4,1.2c0.3,0.3,0.7,0.5,1,0.8c0.1,0.2,0.2,0.4,0.3,0.6c-0.2,0.1-0.5,0.2-0.7,0.2
			c-0.8,0-1.6-0.1-2.4-0.2c-1.1-0.1-2.1-0.3-3.2-0.4c-4.8-0.3-9.7-0.6-14.5-0.8c-6-0.2-11.9-1.1-17.8-1.8c-4.7-0.6-9.3-1.5-14.2-1.6
			c-5.3-0.1-10.6-0.6-15.9-0.9c-5.7-0.4-11.4,0.1-17.1,0.2c-4.3,0.1-8.7-2.8-13-3c-4.8-0.3-9.6-0.4-14.3-0.5c-1.3,0-2.7-0.2-4-0.2
			c-1.1,0-2.1-0.2-2.9-0.8c-0.9-0.6-1.9-1.1-3.1-1.3c0.3,0.4,0.7,0.8,1.1,1.1c0.3,0.3,0.5,0.6,0.8,0.8c-0.4,0.1-0.9,0.2-1.3,0.3
			c-0.9,0.1-1.7,0-2.6,0.2c-1,0.2-1.8-0.1-2.5-0.7c-0.9-0.8-2-1.5-3-2.2c-0.4-0.2-0.8-0.7-1.3-0.3c-0.1,0.1,0.3,0.7,0.5,1
			c0.5,0.5,1.1,1,1.6,1.5c0.5,0.4,0.4,0.7-0.3,0.8c-1.5,0.2-2.8,0.2-4.1-0.8c-1.3-1-2.8-1.9-4.2-2.8c-0.1-0.1-0.3-0.1-0.5-0.1
			c0,0.2-0.1,0.5,0,0.6c0.8,0.7,1.6,1.3,2.4,2c0.3,0.3,0.6,0.7,0.9,1c-0.5,0.1-0.9,0.3-1.4,0.4c-0.3,0.1-0.7,0.1-1,0.1
			c-5.9,0.3-11.8,0.5-17.7,0.8c-1.7,0.1-3.5,1-5.2,1.2c-2.4,0.4-4.8,0.2-7.1,0c-1-0.1-1.7,1.6-2.4,1c-1.1-1-2.2-2.1-3.4-3.1
			c-0.6-0.5-1.3-1-1.9-1.4c-0.2-0.1-0.5,0-0.7-0.1c0,0.2-0.1,0.5,0,0.6c0.8,1,1.6,1.9,2.5,2.8c0.5,0.5,1.1,1,1.6,1.5
			c0.1,0.1,0.1,0.5-0.1,0.5c-0.9,0.4-3.8,0-4.7-0.6c-1.3-0.9-2.7-1.8-4.1-2.6c-0.2-0.1-0.6-0.1-0.9-0.1c0.1,0.2,0.1,0.5,0.3,0.7
			c0.5,0.5,1.1,0.9,1.7,1.4c0.3,0.3,0.7,0.6,1,0.8c0.1,0.1,0,0.2,0,0.3c-0.1,0.1-0.3,0.1-0.3,0.1c-0.6-0.3-1.3-0.6-1.8-1.1
			c-1.2-1.1-2.5-2.1-4-3c-0.3-0.2-0.7-0.3-1.1-0.4c0.5,0.9,1.1,1.6,1.8,2.3c0.7,0.7,1.4,1.4,2.1,2.2c-1.1,0.6-2.4,0.4-3.6,0.5
			c-0.2,0-0.4,0-0.6,0c-5.2,0.3-10.5,0.6-15.7,1.1c-2.7,0.3-5.3,0.4-8,0.3c-0.9,0-1.9,0-2.8,0c-3.5,0-7,0-10.6,0c-1,0-1.8-0.3-2.4-1
			c-1.2-1.4-2.6-2.8-3.7-4.3c-0.7-0.9-1.6-1.7-2.9-2.6c0.5,1.9,1.4,3.3,2.4,4.6c0.6,0.8,1.3,1.5,2,2.3c0.2,0.2,0.2,0.6-0.3,0.6
			c-1.3,0-2.6,0-3.6-1.1c-2-2.1-4-4.1-6.1-6.2c-0.1-0.1-0.4-0.2-0.9-0.5c0.3,0.6,0.4,0.9,0.6,1.2c1.1,1.5,2.3,3,3.5,4.5
			c0.3,0.4,1.1,0.8,0.5,1.2c-0.3,0.2-1.1,0-1.7-0.1c-0.3-0.1-0.5-0.3-0.7-0.5c-0.6-0.7-1.2-1.3-1.8-2c-1.3-1.5-2.8-2.9-3.8-4.7
			c-0.5-0.9-1.2-1.7-2.4-2.3c0,0.3-0.1,0.5,0,0.6c0.8,2,1.7,3.9,3.4,5.4c0.7,0.7,1.4,1.3,2.1,2c0.2,0.2,0.3,0.5,0.4,0.7
			c-0.3,0-0.6,0.1-0.9,0.1c-0.6-0.1-1.1-0.3-1.7-0.5c-0.9-0.3-1.8-0.8-2.8-0.9c-2.3-0.4-3.9-1.5-5.2-3.1c-1-1.2-2.2-2.3-3.3-3.4
			c-0.1,1,0.4,1.6,0.8,2.4c0.1,0.2,0.1,0.5,0.2,0.8c-0.3-0.1-0.6-0.1-0.9-0.2c-1.8-1-3.5-2-5.2-3c-4.3-2.5-8.1-5.5-11.4-8.8
			c-1.1-1.1-1.9-2.4-2.8-3.6c-1.3-1.8-2.5-3.5-3.7-5.3c-0.6-0.9-1.2-1.7-1.6-2.7c-1.3-3.3-2.5-6.7-3.6-10.1c-0.2-0.6-0.4-1-0.8-1.4
			c-0.2-0.9-0.3-1.7-0.3-2.4c-0.1-1.3,1.4-8.3,1-12.4l-0.1,0l-0.1,0c0-0.1,0.1-0.2,0.1-0.3v0c0,0,0,0,0,0c0.1-0.1,0.1-0.2,0.2-0.3
			c0,0,0,0,0,0c0.1-0.1,0.2-0.1,0.3-0.2c0.1,0,0.2-0.1,0.3-0.1c0.9-0.4,1.5-0.8,2-1.4c0.3-0.4,0.6-0.8,0.8-1.3
			c0.5-1.4,0.3-3.1,0.2-4.9c-0.2-2.3-0.2-4.6-0.2-6.9c0-0.8,0-1.5,0-2.3c-0.1-2.8-0.2-5.6-0.3-8.4c0-1.7,0-3.4,0.1-5
			c0.1-1.8,0.3-3.6,0.4-5.4c0.2-2,0.3-4,0.6-6c0.3-3.4,0.8-6.8,1.3-10.2c0.4-2.4,0.8-4.8,1.2-7.2s0.8-4.8,1.2-7.2
			c0.4-2.4,0.9-4.8,1.4-7.1s1.1-4.7,1.7-7.1c0.3-1.2,0.7-2.4,1.1-3.6c0.4-1.2,0.8-2.4,1.3-3.6c0.9-2.4,1.9-4.8,3-7.2
			c0.5-1.2,1-2.4,1.6-3.6c0.8-1.8,1.5-3.6,2.2-5.3c0.2-0.6,0.5-1.2,0.7-1.8c0.5-1.2,0.9-2.4,1.3-3.6c0.1-0.2,0.2-0.5,0.2-0.8
			c0.1-0.3,0.2-0.6,0.3-0.9c0.2-0.6,0.4-1.2,0.5-1.9c0.1-0.3,0.2-0.7,0.3-1c0.2-0.7,0.4-1.4,0.5-2.2c0.1-0.4,0.2-0.7,0.3-1.1
			c0.2-1,0.4-2.1,0.6-3c0-0.1,0-0.3,0.1-0.4c0.1-0.6,0.2-1.1,0.3-1.7c0.1-1,0.2-1.9,0.2-2.7c0-0.8,0-1.5,0.1-2.2
			c0.1-1.1,0.3-2.1,0.5-3.1c0.1-0.3,0.1-0.6,0.2-0.9c0.2-0.8,0.5-1.6,0.7-2.4c0.3-1,0.7-2,1.1-3c0.4-0.9,0.7-1.8,1.1-2.7
			c0.5-1.3,1.1-2.4,1.8-3.3c0.5-0.7,1.1-1.2,1.8-1.6c0.2-0.2,0.5-0.3,0.7-0.4c0.7-0.4,1.5-0.6,2.4-0.6c0.6,0,1.2,0,1.9,0.1
			c1.6,0.3,3.3,1,5,2.1c0.8,0.5,1.6,1.1,2.3,1.7s1.4,1.2,2.1,1.9c0.6,0.7,1.3,1.3,1.9,2c3,3.5,5.3,7.5,8,11.3
			c0.9,1.3,1.8,2.6,2.6,4.1c0.6,1.1,1.3,2.3,1.9,3.5c0.4,0.8,0.8,1.6,1.2,2.5c0.8,1.7,1.6,3.4,2.5,5.1c1.7,3.4,3.4,6.9,5.3,10.1
			c0.5,0.8,1,1.6,1.4,2.3c1,1.5,2,3,3.1,4.3c0.6,0.7,1.1,1.3,1.7,1.9c0.9,0.9,1.8,1.7,2.8,2.4c0.3,0.2,0.6,0.4,0.9,0.6
			c0.6,0.4,1.2,0.7,1.8,1c0.3,0.2,0.6,0.3,0.9,0.5c5.2,2.9,10.6,3.2,15.9,2.4c0.7-0.1,1.4-0.2,2.2-0.4c1.1-0.2,2.2-0.5,3.2-0.7
			c0.7-0.2,1.4-0.4,2.2-0.6c1.4-0.4,2.9-0.8,4.3-1.2c2.2-0.6,4.3-1.2,6.5-1.7c6.4-1.5,12.9-3.4,18.9-6.1c0.9-0.4,1.7-0.8,2.6-1.2
			c7.8-3.8,15-9.1,22.3-13.8c8.6-5.5,17.7-6.9,27.3-3.4c0.5,0.2,0.9,0.3,1.4,0.5c1.4,0.5,2.9,0.9,4.3,1.5c0.9,0.4,1.9,0.7,2.7,1.2
			c0.9,0.4,1.7,0.9,2.5,1.5c0.7,0.6,1.4,1.2,2.1,1.9c1,1.1,1.8,2.3,2.6,3.5c0.8,1.2,1.5,2.6,2.1,3.8c0.3,0.7,0.6,1.3,0.9,2
			c2.1,4.8,3.7,9.8,5.8,14.5c0.4,0.9,1.4,1.5,2.4,2.1c0.6,0.4,1.3,0.7,1.8,1.1c1-0.2,1.6-0.8,2-1.7c0.1-0.2,0.2-0.5,0.3-0.7
			c0-0.1,0.1-0.3,0.1-0.4c0.1-0.3,0.1-0.5,0.1-0.8c0-0.3,0-0.5,0-0.7s0-0.5,0-0.6c-0.2-2.5-0.7-4.9-1.3-7.3c-0.3-1.5-0.7-2.9-1-4.4
			c0,0-0.1,0-0.1,0c-0.3,0-0.6-0.1-0.9-0.1c-0.1,0.5-0.3,1.1-0.4,1.6c0,0.2,0,0.3,0,0.5c0.2,1.7,0.4,3.5,0.6,5.2
			c0.2,1.7,0.4,3.5,0.6,5.2c0,0.2-0.1,0.4-0.2,0.6c-0.1,0.1-0.1,0.2-0.2,0.3c-0.1,0.1-0.1,0.2-0.2,0.3v0v0c-0.1-0.1-0.2-0.1-0.3-0.2
			c-0.3-0.2-0.6-0.4-0.7-0.6c-1.7-4.3-3.4-8.6-5.2-12.9c-0.6-1.4-1.1-2.9-1.7-4.3c-0.2-0.5-0.4-1-0.7-1.5c-0.7-1.5-1.5-3-2.3-4.5
			c0.2-0.3,0.5-0.7,0.7-1c0.4,0.2,0.8,0.4,1.2,0.5c0.4,0.2,0.9,0.3,1.3,0.5c0.9,0.4,1.8,0.9,2.7,1.8c0.9,1,1.7,1.7,2.7,2.2
			c1,0.5,2.1,0.8,3.7,0.8c0.6,0,1.2,0.1,1.8,0.2c0.3,0.1,0.6,0.1,0.8,0.2c0.5,0.2,1.1,0.4,1.5,0.6c0.2,0.1,0.5,0.3,0.7,0.4
			c1.4,0.9,2.6,2.1,3.6,3.6c0.7,1,1.2,2,1.7,3.2c1.3,2.9,2.5,5.8,3.8,8.7c1.3,2.9,2.5,5.8,3.8,8.7c0.4,0.9,0.9,1.8,1.5,2.5
			c0.4,0.4,0.8,0.8,1.2,1.2c0.3,0.2,0.6,0.4,0.9,0.6c0.9,0.5,2,0.6,3.1,0.2c3.3-1.2,1.6-4.9,1.1-7.2c-0.1-0.5-0.3-1-0.4-1.5
			c-0.5-1.5-1.1-3-1.7-4.6c-0.4,0.1-0.8,0.2-1.1,0.3c0.5,3.3,1,6.6,1.5,9.9c-0.8,0.8-1.6,0.3-2.5-1c-0.5-0.6-0.9-1.5-1.4-2.4
			c-0.4-0.7-0.7-1.5-1.1-2.4c-0.1-0.3-0.2-0.6-0.4-0.9c-0.4-0.9-0.7-1.8-1.1-2.8c-0.4-1-0.8-1.9-1.1-2.9c-0.2-0.7-0.5-1.3-0.7-1.9
			c-1-2.6-2-5-2.9-6.8c1.6,1.3,3.3,2.5,4.8,3.9c1.1,1,2.1,2,3.1,3c1,1,2.1,2,3.2,2.8c0.4,0.3,0.8,0.4,1.3,0.4c0.3,0,0.7,0,1.1,0.1
			c0.5,0,1.1,0,1.6,0.2c2.7,0.7,4.6,2,6,3.8c1.1,1.3,1.9,2.8,2.6,4.4c0.5,1.3,1,2.6,1.4,4c0.2,0.5,0.3,1,0.5,1.5
			c0.3,1,0.7,2.1,1,3.1c0.5,1.6,1.1,3.2,1.8,4.7c0.4,1,0.9,2,1.3,2.9c0.2,0.4,0.5,0.8,0.8,1.2c0.5,0.6,1,1.2,1.6,1.6
			s1.2,0.7,1.7,0.7c0.2,0,0.4,0,0.5-0.1c0.3-0.1,0.6-0.2,0.9-0.3c0.3-0.2,0.5-0.4,0.7-0.6c0.1-0.1,0.2-0.2,0.3-0.4
			c0.2-0.3,0.3-0.6,0.4-0.9c0.2-0.5,0.3-1,0.3-1.5c0.1-0.8,0-1.7-0.1-2.5c-0.4-2.2-0.9-4.3-1.4-6.5c-0.2-0.7-0.4-1.4-0.5-2.1
			c-0.4,0-0.8,0.1-1.2,0.1c0,0.1,0,0.2,0,0.3c0.1,1.7,0.2,3.5,0.4,5.2c0,0.2,0,0.4,0.1,0.7c0.1,0.7,0.2,1.5,0.2,2.2
			c0,0.2,0,0.5-0.1,0.8c0,0.3-0.1,0.6-0.1,1c-0.1,0.7-0.2,1.3-0.4,1.8c-0.3-0.3-0.7-0.6-1-0.9c-0.3-0.3-0.6-0.6-0.8-1
			c-0.5-1.2-1.1-2.5-1.6-3.8c-0.5-1.3-1-2.6-1.5-4c-1-2.7-2-5.3-3.1-7.8c0.3-0.4,0.7-0.8,1-1.1h0c0.8,0.5,1.7,1.1,2.5,1.6
			c0.8,0.5,1.7,1,2.5,1.6c1.7,1.1,3.3,2.1,4.9,3.3c0.8,0.6,1.5,1.3,2.2,1.9c0.1,0.1,0.2,0.2,0.3,0.3c0.2,0.2,0.5,0.4,0.7,0.6
			c0.5,0.4,1.1,0.7,1.8,1c0.5,0.2,1.1,0.4,1.7,0.5c0.4,0.1,0.8,0.1,1.1,0.2c1.1,0.2,2.1,0.4,3.1,0.7c0.6,0.2,1.2,0.4,1.8,0.7
			c1.1,0.5,2.1,1.2,2.9,2.2c0.4,0.5,0.8,1.1,1.2,1.8c0.8,1.4,1.4,3.1,2.1,5.4c1,3.7,2.5,7.2,4.2,10.7c0.6,1.2,1.2,2.3,1.8,3.4
			c0.6,1.1,1.6,1.5,2.7,1.2c0.4-0.1,0.9-0.4,1.3-0.8c0.2-0.2,0.4-0.4,0.6-0.7c0.4-0.7,0.7-1.6,0.9-2.7c0-0.3,0.1-0.6,0.1-0.8
			c0-0.3,0-0.6,0-0.9s0-0.6,0-0.9c0-0.3,0-0.6-0.1-0.9c-0.1-0.6-0.2-1.2-0.3-1.8c-0.2-0.7-0.4-1.4-0.7-2.1c-0.1-0.2-0.2-0.4-0.2-0.5
			c-0.3-0.6-0.7-1.1-1.1-1.4c-0.1,0.7-0.1,1.2-0.1,1.7c0,0.2,0,0.3,0,0.5c0,2.5,0.1,5,0.1,7.5c0,0.3-0.3,0.8-0.5,1
			c-0.1,0.1-0.2,0.1-0.2,0.1c-0.1,0-0.2,0-0.4-0.1c-0.3-0.1-0.5-0.2-0.7-0.4c-0.1-0.1-0.2-0.2-0.2-0.3c-0.2-0.3-0.3-0.7-0.5-1.2
			c-0.2-0.5-0.4-1.1-0.7-1.7c-0.4-0.9-0.7-1.9-1.1-3c-0.4-1-0.7-2.1-1.1-3.1c-0.7-2-1.2-3.6-1.5-4.3c-0.3-0.9-0.6-1.7-1-2.6
			c-0.2-0.5-0.5-1.1-0.8-1.8c-0.2-0.5-0.4-1-0.6-1.5v0v0c0.8,0.4,1.5,0.7,2.2,1c0.4,0.2,0.7,0.3,1,0.5c1.7,0.7,3.2,1.4,4.6,2.4
			c1,0.7,1.9,1.3,2.8,2c2.9,1.9,5.8,3.4,9.4,4.4c3.6,1,7.2,2.3,10.7,3.8c2.3,0.9,4.7,1.9,7,3c2.3,1,4.6,2,7,3.1
			c1.2,0.5,2.3,1,3.5,1.5c9.5,4,19,8,28.4,12.2c0.6,0.3,1.2,0.5,1.8,0.8c1.2,0.5,2.3,1.1,3.4,1.6c3.3,1.7,6.4,3.3,9.4,5.1
			c1,0.6,2.1,1.2,3.1,1.7c0.5,0.3,1,0.6,1.6,0.9c2.1,1.2,4.3,2.4,6.6,3.6c3.6,1.9,6.7,5,9.9,7.7c0.5,0.4,0.9,0.8,1.4,1.2
			c-0.2,0.3,0.7,0.6,0.5,1l2.2,3.3c2,3.4,4.4,8.1,6.5,12.6c-0.6,0-1,0-1-0.3C571.9,472.3,546.6,474.2,546.7,473.2z"/>
		<path style="fill:#162B54;" d="M173.8,487.7c0.1,1.3,0.3,2.6,0.8,3.9c1.5,4,4.3,7.4,7.7,10.4c0.4,0.4,1,0.6,1.6,0.8
			c0,0,0.1-0.1,0.1-0.1c-1.9-2.4-4-4.7-5.7-7.2C176.6,493,175.3,490.3,173.8,487.7z"/>
		<path style="fill:#162B54;" d="M374.5,507.9c1.9,1.5,3.8,3.1,5.8,4.5c3.1,2.1,6.5,3.9,10.3,5.7c-0.4-1.2-1.3-1.8-2.3-2.4
			c-1.5-0.9-3.1-1.8-4.5-2.7c-2-1.3-4-2.8-6-4.1c-1.3-0.8-2.6-1.6-3.9-2.4c-0.1-0.1-0.3,0-0.5-0.1c0,0.1,0,0.3,0,0.4
			C373.7,507.1,374,507.6,374.5,507.9z"/>
		<path style="fill:#162B54;" d="M367.5,505.8c0,0.1,0,0.3,0.1,0.4c0.8,0.7,1.6,1.4,2.5,2c2.8,1.9,5.5,3.7,8.3,5.5
			c1.5,0.9,3,1.8,4.6,2.7c0.2,0.1,0.5,0.1,0.8,0.1c-0.1-0.2-0.1-0.5-0.2-0.7c-0.6-0.5-1.3-1-2-1.5c-0.3-0.2-0.7-0.4-1-0.7
			c-3.6-3-7.6-5.5-11.9-7.7c-0.2-0.1-0.5-0.2-0.7-0.3C367.7,505.7,367.5,505.7,367.5,505.8z"/>
		<path style="fill:#162B54;" d="M184.4,498.7c-2.3-3-4.1-6.2-5.4-9.6c-0.1-0.3-0.2-0.5-0.3-0.8c0-0.1-0.2-0.1-0.3-0.2
			c0,0.1-0.1,0.2-0.1,0.3c0.3,0.8,0.6,1.6,0.8,2.5c0.1,0.4,0.4,0.8,0,1.2c-0.5,0.5-0.3,0.8,0.4,0.9c0.1,0,0.3,0.2,0.4,0.3
			c0.2,0.9,0.9,1.7,1.4,2.6c1.1,2,2.6,3.6,4.2,5.2c0.5,0.5,1.1,0.8,2.1,1.1c-0.3-0.4-0.4-0.6-0.6-0.8
			C186.1,500.6,185.1,499.7,184.4,498.7z"/>
		<path style="fill:#162B54;" d="M368.4,509.6c-1-0.7-2-1.4-3.1-2.1c-0.2-0.1-0.4-0.1-0.7-0.1c0,0.2-0.1,0.4,0,0.5
			c0.3,0.4,0.5,0.8,0.9,1.1c2.8,2.5,6,4.7,9.3,6.6c1,0.6,2.2,1.1,3.3,1.5c0.3,0.1,0.7,0.2,1,0.2c0.1,0,0.3-0.1,0.5-0.3
			c-0.5-0.4-0.9-0.8-1.4-1C374.9,514.1,371.5,512,368.4,509.6z"/>
		<path style="fill:#162B54;" d="M189.8,498.6c-1.8-2-3.5-4.1-5.3-6.1c-1.1-1.3-2.2-2.7-3.3-4c0.1,1.2,0.3,2.3,1.2,3.3
			c0.3,0.3,0.5,0.7,0.8,1c1.5,2.4,3.6,4.4,5.8,6.4c0.2,0.2,0.4,0.3,0.7,0.5c0.1,0.1,0.4,0,0.5,0c0-0.1,0-0.3,0-0.4
			C190.2,499,190,498.8,189.8,498.6z"/>
		<path style="fill:#162B54;" d="M384.3,509.9c2.5,1.9,5,3.8,7.5,5.6c1.5,1.1,3,2,4.5,3c0.4,0.2,0.8,0.7,1.4,0.4
			c-0.3-0.4-0.5-0.8-0.8-1.1c-0.1-0.1-0.2-0.1-0.3-0.2c-2.5-1.9-4.9-3.9-7.4-5.7c-1.6-1.2-3.3-2.2-5-3.2c-0.3-0.2-0.6-0.3-1.1-0.5
			c-0.1,0.2-0.3,0.4-0.2,0.5C383.4,509,383.8,509.5,384.3,509.9z"/>
		<path style="fill:#162B54;" d="M190,492.6c-0.7-0.8-1.5-1.6-2.2-2.4c-0.1-0.1-0.3-0.1-0.4-0.1c-0.1,0-0.1,0.2-0.2,0.4
			c0.2,0.3,0.3,0.7,0.5,1.1c0.7,1,1.3,1.9,2.1,2.8c1.1,1.2,2.3,2.4,3.5,3.6c0.2,0.2,0.6,0.7,1.1,0.4c0.1,0-0.2-0.6-0.4-0.8
			C192.6,495.8,191.3,494.2,190,492.6z"/>
		<path style="fill:#162B54;" d="M366,511.8c-1.5-1-3.1-1.9-4.7-2.8c-1.1-0.6-2.1-1.3-3.2-1.9c-0.2-0.1-0.5-0.2-0.8-0.3
			c0,0.3,0,0.6,0.2,0.8c0.6,0.7,1.2,1.4,2,1.9c2.3,1.4,4.7,2.7,7,4c0.3,0.2,0.7,0.3,1.1,0.4c0.1,0,0.3-0.1,0.6-0.2
			c-0.2-0.3-0.3-0.5-0.5-0.6C367.2,512.6,366.6,512.2,366,511.8z"/>
		<path style="fill:#162B54;" d="M169.7,489.6c-0.5-0.9-1.1-1.8-1.6-2.7c-0.1-0.1-0.3-0.1-0.5-0.2c0,0.1-0.1,0.2-0.1,0.3
			c0.2,0.5,0.5,1,0.5,1.5c0,0.8,0.5,1.4,0.9,2c0.3,0.4,0.5,0.9,0.8,1.3c1.1,1.5,2.3,2.9,4.2,3.8c-0.4-0.5-0.7-0.9-1.1-1.4
			C171.7,492.8,170.6,491.3,169.7,489.6z"/>
		<path style="fill:#162B54;" d="M535.1,505.5c0.7,0.3,1.4,0.6,2.2,0.7c1.4,0.2,2.8,0.3,4.1,0.4c0,0,0,0,0-0.1c0.3,0,0.7,0,1,0
			c1,0,2.1,0,2.8-0.7c0.7-0.7,1.3-1.5,1.9-2.3c0.1-0.1,0-0.3,0-0.5c0-0.2-0.1-0.4-0.2-0.4c-0.1-0.1-0.4,0-0.5,0.1
			c-0.7,0.6-1.5,1.1-2.2,1.7c-0.5,0.5-1.1,0.8-1.9,0.8c-2.3-0.2-4.6-0.4-6.9-0.6c-0.4,0-1.2-0.3-1.2-0.3
			C534,505,534.7,505.2,535.1,505.5z"/>
		<path style="fill:#162B54;" d="M562.9,483.5c2.3-0.6,4.1-1.7,5.4-3.4c0.3-0.4,0.3-1,0.5-1.5c-0.1,0-0.2-0.1-0.3-0.1
			c-0.6,0.4-1.1,0.8-1.7,1.1c-1.4,1-2.8,1.8-4.6,2.3c-1.2,0.3-2.3,0.4-3.4-0.1c-0.2-0.1-0.5-0.1-0.7-0.1c0,0.2,0,0.5,0.1,0.6
			C559.1,483.4,561.2,483.9,562.9,483.5z"/>
		<path style="fill:#162B54;" d="M523.4,515.6c1.6,1.7,3.9,1.7,6.1,2c0.6-0.1,1.2-0.1,1.7-0.2c0.3-0.1,0.7-0.5,0.7-0.8
			c0-0.4-0.5-0.7-1-0.5c-1.2,0.4-2.4,0-3.5,0c-1.8,0-3-0.6-3.9-1.9c-0.2-0.4-0.3-1-1.2-0.9c0.1,0.5,0.1,1,0.2,1.4
			C522.8,514.9,523.1,515.3,523.4,515.6z"/>
		<path style="fill:#162B54;" d="M393.1,510.6c2.2,1.6,4.5,3.2,6.7,4.7c0.2,0.1,0.5,0.2,0.7,0.3c0.1-0.1,0.1-0.1,0.2-0.2
			c-0.3-0.4-0.5-0.9-0.9-1.2c-2-1.5-4.1-2.9-6.2-4.3c-0.3-0.2-0.7-0.7-1.2-0.3C392.3,509.7,392.7,510.4,393.1,510.6z"/>
		<path style="fill:#162B54;" d="M469.1,493.2c2.1,0.8,4.2,1.5,6.4,2.3c0.2,0.1,0.4,0.1,0.6,0c0.1,0,0.2-0.1,0.3-0.2
			c-0.2-0.6-0.5-1.1-1.3-1.4c-1.8-0.6-3.6-1.3-5.5-1.9c-0.6-0.2-1.5-0.6-1.8,0C467.4,492.8,468.6,493,469.1,493.2z"/>
		<path style="fill:#162B54;" d="M195,492.7c-0.1-0.1-0.4-0.2-0.6-0.3c-0.1,0.1-0.3,0.2-0.3,0.3c0.1,0.2,0.1,0.5,0.3,0.7
			c1.1,1.5,2.6,2.7,4,4c0.1,0.1,0.2,0.1,0.2,0.1c0.2,0,0.4,0,0.5,0c0-0.1,0-0.3-0.1-0.3C197.8,495.6,196.4,494.2,195,492.7z"/>
		<path style="fill:#162B54;" d="M506,519.9c2,1.5,4.1,3,6.2,4.4c0.2,0.1,0.5,0.2,0.7,0.2c0.1,0,0.3-0.1,0.4-0.2
			c-0.3-0.3-0.6-0.6-0.9-0.8c-1.9-1.4-3.9-2.8-5.9-4.2c-0.3-0.2-1.1-0.5-1.2-0.4C505.1,519.3,505.7,519.6,506,519.9z"/>
		<path style="fill:#162B54;" d="M552.5,495.1c0.5,0,1.1,0,1.6-0.1c0.7-0.1,1.4-0.3,2-0.6c0.2-0.1,0.2-0.5,0.4-0.7
			c-0.2,0-0.5-0.1-0.7,0c-1.3,0.2-2.6,0.4-3.9,0.5c-1.1,0.1-2,0-2.2-1.2c0-0.2-0.4-0.3-0.7-0.4c-0.1,0.2-0.4,0.5-0.4,0.7
			c0,0.3,0.3,0.6,0.5,0.9C550,495,551.2,495.2,552.5,495.1z"/>
		<path style="fill:#162B54;" d="M489,524.2c0.1,0.1,0.2,0.1,0.4,0.1c0.2,0,0.4,0,0.5-0.1c0.1-0.1,0.1-0.3,0-0.5
			c-0.1-0.2-0.3-0.4-0.5-0.5c-1.6-1.1-3.3-2.3-4.9-3.4c-0.1-0.1-0.2,0-0.4-0.1c-0.1,0.1-0.2,0.2-0.1,0.3c0.1,0.3,0.2,0.6,0.4,0.7
			C485.9,521.9,487.4,523.1,489,524.2z"/>
		<path style="fill:#162B54;" d="M464.8,525.6c0.3,0.3,0.8,0.4,1.1,0.6c0.1-0.1,0.2-0.1,0.2-0.2c-0.2-0.3-0.4-0.6-0.6-0.8
			c-0.9-0.8-1.7-1.7-3-2c0,0-0.1,0.1-0.1,0.1C463.2,524.1,464,524.9,464.8,525.6z"/>
		<path style="fill:#162B54;" d="M517,522.3c0.1,0,0.3-0.1,0.5-0.2c0-0.2,0-0.3-0.1-0.4c-1.1-0.6-2.2-1.2-3.2-1.8
			c-0.1,0-0.3,0-0.3,0.1c-0.1,0.1-0.1,0.4-0.1,0.4C514.8,521.1,515.9,521.7,517,522.3z"/>
		<path style="fill:#162B54;" d="M494.4,522.4c0.3,0.2,0.8,0.1,1.2,0.1c-0.2-0.3-0.4-0.7-0.7-0.9c-0.6-0.4-1.3-0.7-1.9-1
			c-0.3,0.2-0.4,0.2-0.5,0.3c0,0.1,0,0.2,0.1,0.3C493.3,521.7,493.8,522.1,494.4,522.4z"/>
		<path style="fill:#162B54;" d="M623.8,522.8c-0.1,0-0.2,0.1-0.3,0.1c0.1,0.1,0.2,0.3,0.3,0.4c0.1-0.1,0.2-0.1,0.3-0.2
			C624,523.1,623.9,522.9,623.8,522.8z"/>
	</g>
</g>
</svg>
