<svg viewBox="0 0 750 750" xmlns="http://www.w3.org/2000/svg" role="presentation">
<g id="Fills1">
	<g>
		<path style="fill:#D8E7FF;" d="M330,446.4c-3.9-3.2-14.3-11.1-18.7-12.1c-5.7-1.3-6.8-2.6-12.5-3.8c-9.2-2-18.4-1.3-27.5,1
			c-7.5,1.9-14.9,4.8-22.2,8.2c-4.2,1.9-6.6,8.1-10.9,8.4c-1.1,0.1-4.4,5-5.5,5.7c-0.8,0.6-4.2,8.8-4.8,9.9
			c-7.6,12.9-8.3,9.3-12.4,25.3c-1.1,4.1-3.3,7.5-3.7,11.8c-0.4,4.3,0,8.7,0.2,13c0.2,6.2,0,12.8,2,18.2c2.6,6.8,8,9.6,13,11.7
			c23.3,9.9,48.2,15.4,72.3,8.3c5.1-1.5,7.5-5.6,12.7-6.6c3.2-0.6,11.5-10,14.6-11.2c3.1-1.2,9.9-13.8,11.6-18l7.6-33.4
			C344.6,469.6,337.6,452.8,330,446.4z M292.5,524.4c-5,3.5-33,2.5-42-9.5s3-40.5,7.5-45.5s17.5-9.5,24.5-10.5c0,0,9,0,23.3,2.5
			c14.3,2.5,13.2,21,15.7,30.5S297.5,520.9,292.5,524.4z"/>
	</g>
	<g>
		<path style="fill:#D8E7FF;" d="M605,477.6c-1.4-13.1-8.3-24.7-16.3-30.7c-4-3.1-15.1-12-19.6-12.8c-5.9-1.1-4.9-2.5-10.8-3.5
			c-17-3-34,0.6-50.2,8.8c-4.1,2.1-6.3,8.3-10.7,8.7c-1.1,0.1-4.3,5.2-5.3,5.9c-0.8,0.6-3.9,8.9-4.5,10c-7.2,13.1-8,9.6-11.5,25.6
			c-0.9,4.1-3,7.5-3.2,11.9c-0.2,4.3,0.4,8.6,0.7,12.9c0.5,6.2,0.5,12.7,2.8,18c2.9,6.6,8.4,9.2,13.6,11.1
			c24,8.9,49.3,13.4,73.5,5.3c5.1-1.7,10.2-4,15.3-5.1c3.2-0.7,6.4-7.9,9.5-9.3c3.1-1.4,7.1-9,8.7-13.1
			C596.9,521.4,605.9,486.4,605,477.6z M553,524.4c-5,3.5-33,2.5-42-9.5s3-40.5,7.5-45.5s17.5-9.5,24.5-10.5c0,0,9,0,23.3,2.5
			c14.3,2.5,13.2,21,15.7,30.5S558,520.9,553,524.4z"/>
	</g>
	<path style="fill:#0363F7;" d="M134.7,538.3c-3.4-0.1-9.5,3.1-12.4,4.5c-1.5,0.7-2.9,1.3-4.4,1.8c-0.3,0.1-0.7-0.1-1.1-0.1
		c0.1-0.5,0-1.2,0.3-1.4c1.2-0.9,2.5-1.7,3.9-2.4c3.5-1.7,10.1-5.1,14.1-4.9c2.5,0.1,4.9,0.4,7,1.9c0.2,0.2,1,0,1.1-0.2
		c2.4-3.5,9.1-9.5,13.1-10.6c2.9-0.8,11.9-1.8,16.8,0.6c0.4,0.2,1.2,0.1,1.5-0.1c3.9-3.6,12.2-6.6,18.7-2c1.3,0.9,2.6,1.8,3.9,2.6
		c0.2,0.1,0.7,0.1,1-0.1c3.3-2.1,6.8-2,10.4-1.2c6,1.3,9.4,5.8,12.7,10.4c1.2,1.6,2.8,2.9,4.2,4.3c0.2,0.2,0.3,0.4,0.4,0.6
		c-0.3,0-0.6,0.1-0.8-0.1c-2.9-2.1-5.1-1.3-6.8-3.1c-2.7-2.9-4.1-7.3-7.8-9.1c-2.9-1.4-6-1.5-9.1-1.2c-2.6,0.3-3.7,2.3-4.8,4.3
		c-0.3,0.6-0.7,1.2-1,1.7c-0.2-0.9-0.9-2.1-0.5-2.7c1.5-2.3-0.4-2.9-1.7-3.7c-5.3-3.6-10.7-3.4-16-0.2c-1.7,1-3,2.5-4.5,3.7
		c-0.3,0.2-0.7,0.3-1.1,0.5c0.1-0.4,0.1-0.7,0.2-1.1c0.8-1.9,0.6-2.1-1.5-2.4c-3.4-0.6-16.1,1.4-19,3.6c-2,1.5-6.3,6.3-8.1,8
		c-1.2,1.2-2.7,2.2-4.1,3.3c-0.1,0.1-0.4,0-0.6,0c0.1-0.2,0.1-0.4,0.2-0.6c0.2-0.5,0.4-1.1,0.8-1.6c1.1-1.7,1-2-1-2.6
		C137.3,538.6,136,538.5,134.7,538.3z"/>
	<path style="fill:#0363F7;" d="M172.5,428.3c-4.8,0.7-9.5,1.4-14.3,2c-0.4,0.1-0.9-0.1-1.3-0.2c0.4-0.3,0.8-0.8,1.3-0.9
		c6.8-2,13.7-3.6,20.6-3.1c3.8,0.3,7.5,0.2,11.3,0.4c0.2,0,0.5,0.3,0.7,0.4c-0.3,0.2-0.6,0.7-0.9,0.7c-5.8,0.5-11.6,1-17.3,1.5
		C172.6,428.9,172.6,428.6,172.5,428.3z"/>
	<path style="fill:#0363F7;" d="M154.9,422.9c-2.3,0-4.6-0.1-6.9-0.1c-0.4,0-0.7-0.3-1.1-0.4c0.4-0.2,0.7-0.5,1.1-0.6
		c5.8-0.6,11.6-1.2,17.4-1.6c3.7-0.2,7.5-0.1,11.2,0c0.3,0,0.6,0.3,0.9,0.4c-0.3,0.2-0.6,0.6-1,0.7c-4.4,0.6-8.8,1.3-13.2,1.7
		c-2.8,0.2-5.6-0.1-8.4-0.1C154.9,422.8,154.9,422.8,154.9,422.9z"/>
	<path style="fill:#0363F7;" d="M141.9,544.6c2.4,1.1,4.4,2,6.5,3c0.1,0,0.2,0.2,0.3,0.3c-0.3,0-0.5,0.1-0.8,0.1
		c-2-0.4-4-1.1-5.9-1.2c-2.4-0.1-4.9,0.4-7.4,0.7c-0.3,0-0.5,0.1-0.8,0.1c0.2-0.2,0.3-0.5,0.5-0.6
		C136.8,546.2,139.3,545.4,141.9,544.6z"/>
	<path style="fill:#0363F7;" d="M197.5,363.3c-16.6-0.9-33.1-0.3-49.7-1.2c0-0.5,0-1,0-1.5c4.1-0.1,8.2-0.2,12.3-0.1
		c4.2,0.1,8.3,0.4,12.5,0.6c4.2,0.2,8.4,0.2,12.6,0.7c4.1,0.5,8.2-0.1,12.3,0.6C197.5,362.6,197.5,363,197.5,363.3z"/>
	<path style="fill:#0363F7;" d="M166.4,334.5c-17.2,0.7-34.4,1.4-51.6,2c-4.6,0.2-9.2,0.5-13.8,0.5c-1.2,0-2.4-0.8-3.7-1.3
		c0.8-0.5,1.6-1.5,2.5-1.5c22.1-1,34.9-0.2,57.1-1.1C156.9,334.2,166.3,333.5,166.4,334.5z"/>
	<path style="fill:#0363F7;" d="M153.8,342.4c-10.6-0.7-21.2-1.4-31.7-2.2c-0.9-0.1-1.7-0.8-2.5-1.2c0.8-0.3,1.7-0.8,2.5-0.8
		c19.2,0.2,38.3,0.5,57.5,0.9c1.3,0,2.5,0.8,3.8,1.2c-1.4,0.4-2.9,1.3-4.3,1.3c-8.3,0.1-16.7,0-25,0
		C153.9,341.8,153.8,342.1,153.8,342.4z"/>
	<path style="fill:#0363F7;" d="M186.3,509.7c1.4,0.8,2.8,1.4,4.1,2.3c1.3,0.9,2.6,2,3.8,3.1c0.3,0.2,0.3,0.8,0.4,1.2
		c-0.3-0.2-0.6-0.3-0.9-0.5c-2.9-1.7-5.8-3.4-8.7-5.1c-0.3-0.2-0.6-0.3-0.9-0.4c0.3,0,0.6,0,0.9-0.1
		C185.5,510,185.9,509.8,186.3,509.7C186.3,509.7,186.3,509.7,186.3,509.7z"/>
	<path style="fill:#0363F7;" d="M153.9,406.8c-5.6-0.1-11.1-0.2-16.7-0.3c-0.3,0-0.6-0.4-0.8-0.6c0.1-0.3,0.3-0.9,0.4-0.9
		c5.7-0.4,11.4-0.7,17.1-1C153.9,404.9,153.9,405.9,153.9,406.8z"/>
	<path style="fill:#0363F7;" d="M463.4,519.2c2.6,0.6,7.3,1.3,10.4,2.1c0.4,0.1,0.6,1,0.8,1.5c-0.4,0-0.9,0.1-1.2,0
		c-4.5-1.2-10.6-2.7-15.3-2.2c-0.1,0-0.3-0.1-0.5-0.1c0.2-0.1,0.3-0.4,0.5-0.4C459.7,519.8,461.2,519.6,463.4,519.2z"/>
	<path style="fill:#0363F7;" d="M460.3,538c-3.5,0.1-6.7,1-9.5,3c-1.7,1.2-3.1,2.9-5.4,2.7c-1.6-0.1-3.2-0.8-4.9-0.9
		c-6.8-0.5-13.5,2.5-17.9,7.7c-1,1.2,0.7,2.9,1.7,1.7c5-6,12.3-8,19.8-6.3c2.2,0.5,3.5,0.9,5.4-0.6c3.5-2.7,5.9-4.8,10.7-4.9
		C461.8,540.4,461.8,538,460.3,538L460.3,538z"/>
	<path style="fill:#0363F7;" d="M403.4,374.8c-8.3-7.3-17.6-11.3-27.1-15.2c-0.6-0.3-1.5-0.9-1.6-2.1c0.8-0.2,1.7-0.7,2.4-0.4
		c8.2,2.4,16.4,4.7,24.5,7.5c6,2.1,11.8,4.8,17.6,7.4c5,2.2,10.1,4.3,14.9,6.9c2.3,1.2,4,4.5,5.9,6.4c0.1,0.1-0.9,1.9-1.5,2
		c-11.7,1.2-23.5,0.7-35.1,2.4c-7,1-13.9,3.4-20.7,5.7c-5.3,1.7-10.3,4.3-15.5,6.3c-3,1.2-6.2,2.1-9.4,2.6c-3.3,0.5-6-0.9-8.5-3.2
		c-3.8-3.6-7.9-7-11.8-10.6c-1.2-1.2-2.1-2.8-3-4.1C356.3,377,379.4,374.2,403.4,374.8z"/>
	<g id="C2P9L7_10_">
		<g>
			<path style="fill:#0363F7;" d="M648,557.3c-1.8,1.6-3.8,1.9-6.2,1.7c-4.6-0.4-9.3-0.2-14-0.2c-7.5,0-15.1,0.1-22.6,0.2
				c-9,0.2-18.1,0.4-27.1,0.6c-5.2,0.1-10.4,0-15.7,0.1c-5.3,0.1-10.6,0.3-15.9,0.4c-5.7,0.1-11.4,0-17.1,0.1
				c-5.6,0.1-11.2,0.3-16.8,0.4c-3.8,0-7.6-0.3-11.4-0.2c-5.5,0-11,0.2-16.5,0.3c-6.5,0.1-13,0-19.5,0.1c-8.9,0.1-17.8,0.2-26.8,0.2
				c-5.4,0-10.8-0.2-16.2-0.1c-5.8,0.1-11.5,0.4-17.3,0.5c-7.6,0.1-15.3,0-22.9,0.1c-10.7,0.1-21.3,0.2-32,0.2c-3.5,0-7-0.1-10.5,0
				c-3.6,0.1-7.2,0.4-10.9,0.4c-6.9,0.1-13.8,0.2-20.7,0.2c-10.1,0.1-20.1,0.3-30.2,0.4c-9.7,0.1-19.4,0.2-29.1,0.2
				c-10.1,0.1-20.3,0.1-30.4,0.2c-13.4,0.1-26.7,0.3-40.1,0.4c-6,0-11.9-0.1-17.9-0.2c-5.7-0.1-11.5-0.4-17.2-0.3
				c-7.3,0.1-11.6,0.4-19,0.6c-4.7,0.1-8.4-0.1-13.2-0.2c-1.8,0-3.5,0.2-5.3,0.1c-1.2-0.1-6.5-0.5-7.6-0.8c-0.4-3.8,0.3-4.7,3.2-4.7
				c6.9,0.2,13.8,0.3,20.7,0.5c8.2,0.2,16.5,0.4,24.7,0.4c5.4,0,10.9-0.4,16.3-0.3c8.4,0.1,16.8,0.5,25.1,0.5
				c19.1,0,38.1-0.2,57.2-0.4c3.8,0,7.6-0.8,11.4-0.8c2.6-0.1,5.2,0.7,7.8,0.6c4.1-0.1,8.3,0.9,12.4-0.6c0.3-0.1,0.7,0,1.1,0
				c12.7,0.2,25.4,0.4,38.2,0.5c4.2,0,8.4-0.4,12.6-0.5c5.2-0.1,10.5,0,15.7,0c31.1,0,62.3,0,93.4,0c3.5,0,7-0.8,10.6-1
				c2.2-0.2,4.4-0.1,6.6-0.2c3.4-0.1,6.7-0.3,10.1-0.3c1.9,0,3.8,0.2,5.8,0.3c7.7,0,15.5,0,23.2,0c6.2,0,12.4,0.3,18.6,0.2
				c6.2-0.1,12.5-0.6,18.7-0.6c9.4-0.1,18.7,0.1,28.1,0c3.6,0,7.2-0.4,10.9-0.5c3.7-0.1,7.4,0.1,11.1,0.1c4,0,8-0.1,12-0.1
				c9.3-0.1,18.6-0.2,27.9-0.5c4.4-0.1,8.7-0.8,13.1-0.7c3.3,0,6.4,0,9.6-0.7C646.8,552.8,647.9,554.1,648,557.3z"/>
		</g>
	</g>
	<path style="fill:#0363F7;" d="M103.1,359c0.7-0.5,12.1-1.8,16.1-1.1s12.7,2.3,16.7,2.7c4,0.3,6.5,0.5,5.3,1.5
		c-1.2,1-2.3,0.2-5.7,0.3s-16.5-0.7-20.3-0.7c-3.8,0-10.5,0.2-10.5,0.2L103.1,359z"/>
	<path style="fill:#0363F7;" d="M107.5,392.4c8.5-0.8,20.2-2.7,29.5-2.2s23.2,0,31.3,0.7c8.2,0.7,15.7,0.3,15.3,1
		c-0.3,0.7-2.5,2-8.8,1.2c-6.3-0.8-24.7-0.5-27.2-0.2s-2.2,0.3-7.7,1.2c-5.5,0.8-7.8,1.8-14,1.8c-6.2,0-10.3,0.3-13.3-0.5
		s-7.6-2-7.6-2L107.5,392.4z"/>
	<path style="fill:#0363F7;" d="M115.3,466c5-0.7,16.8-1.2,23.5-1.2c6.7,0,29.2-1,35-0.8c5.8,0.2,20.3-0.5,22.2,0.7
		c1.8,1.2,2.2,0.7-5,1.3c-7.2,0.7-30-0.8-32.8,0.2c-2.8,1-10.8,1.7-14,1.3c-3.2-0.3-12.5-0.7-16.8-0.5c-4.3,0.2-7.2,1-9.7,0.5
		S115.3,466,115.3,466z"/>
	<path style="fill:#0363F7;" d="M148.2,511.4c2-3.9,3.3-4.6,7.6-5.3c0.4-0.1,0.7-0.1,1.1-0.2c5.2-0.8,8.3-3.2,13.3,0s11,7,14.8,9.2
		c3.8,2.2,6.6,4.5,5.6,4.3c-1-0.2-4.1-2.7-7-3.5c-2.8-0.8-6.3-3.7-10.7-2.5s-7,1-9.8,1.7c-2.8,0.7-4.3,0.8-2.8-0.6
		c1.5-1.4,3.8-2.1,7.5-2.4c3.7-0.3,10,0.7,7.7-0.7s-5-4.4-7-4.6c-2-0.2-5.2-0.8-8.8,0c-3.7,0.8-5.5,1.3-8.3,3
		c-2.8,1.7-2.8,1.7-2.8,1.7"/>
	<path style="fill:#0363F7;" d="M362.2,545.4c2.2-1.4,2.9-2.5,4.1-3.4s3.2-0.9,5.9-0.9s7.3-3.5,8-5.1s3.6-5.2,8.8-5.1
		s8.9,2.9,10.1,3.8s0.9-0.6,2-1.1s8.5-6.5,9.9-6.9s8.9,2.4,10.2,2.5s2.8-2,3.7-2.8s5.6-5,9-3.8s4.4,2.2,4.9,1.9s5.6-3.4,8.1-3.9
		s6.4-1.2,9.6,1.9s4.1,2.1,4.8,1.8s3.2-2.2,7.4-1s8.1,2.4,10.2,5.2s8,8.3,7.4,8.7s-4.3-1.7-5-2.1s-1.4-1.4-3.1-2.9s-2-5.2-7.4-6.4
		s-8.4-1.8-9.8-0.1s-2.5,4.9-2.5,4.9s-0.2,0.5-0.6-1s0.1-3.5-0.9-3.9s-10.6-3.6-13.9-1.9s-4.1,3.4-4.9,4s-1.8-0.9-1.4-1.8
		s0-0.9-2.9-0.9s-7.6,0.9-9,3s-6.3,6.1-6.3,6.1c-1.2-0.9,0.1-2.4,0.6-2.9s-0.6-1.4-3.4-1.4s-6.2,0.8-8.1,2.6s-18.2,12.4-17.8,10.9
		s0.9-3.9,0.9-3.9s7.4-3.2,5.2-4.6s-7-3-9.2-1.6s-7.6,6.6-8.5,7.5s-2,2-3.8,2.2s-5.4,0.1-6.8,1.2s-2.5,4.4-3.6,3.8
		S362.2,545.4,362.2,545.4z"/>
</g>
<g id="Fills2">
	<path style="fill:#D8E7FF;" d="M343,469.4c-5.3-11-3.3-24.3-22.3-31.3c-19-7-19.7-8.7-32-8.3c-12.3,0.3-17.7,0.7-17.7,0.7
		c-16.7,8.7-25.3,9-29,12.7c-3.7,3.7-1.3,2-5.7,6.3c-4.3,4.3-8.7,9-12,18.7c-3.3,9.7-11.3,20.7-11.3,30.3c0,9.7-3,31,1.7,36
		c4.7,5,14.7,11.7,29.3,15.3s37.7,10,44,6s33.3-10,40.3-23.3c7-13.3,13.7-22,15-33.3C344.7,487.7,348.3,480.4,343,469.4z M321,497
		c-0.3,6.7-12.7,14.7-19.7,22c-7,7.3-14.7,6-31.7,5s-10.3-4.7-19.3-11c-9-6.3-5-17.7,0.7-28c5.7-10.3,3-17,15.3-21.3l3.3-1.7
		c0,0,11-3.7,26-2.7s16.7,4.7,21,11.3C321,477.4,321.3,490.4,321,497z"/>
	<path style="fill:#D8E7FF;" d="M598,456.4c-9-6.3-18.2-18.8-28.9-22.2s-32.4-4.1-32.4-4.1H535c-13.3,5.3-21,4.7-28.7,12
		c-7.7,7.3-12.7,10.7-18.7,20c-6,9.3-21,36.7-17.7,44c3.3,7.3,2,29.7,7.7,33.7c5.7,4,49.3,18.3,68.7,12.3c19.3-6,40.3-6.3,44.3-15.7
		c4-9.3,12.7-35,13.7-47S607,462.7,598,456.4z M573,507c-7.3,7.3-21.3,15-28.3,19.7s-26.3-8.3-34.7-11.7c-8.3-3.3-0.7-22.3,0.3-28
		c1-5.7,7.3-17,16.3-22.3c0,0,0.7-1.7,2.7-2.3c2-0.7,16-3.3,28.3-3.3c12.3,0,14.7,8.3,21,17.7C585,486,580.3,499.7,573,507z"/>
	<path style="fill:#0363F7;" d="M99.2,333.2c2,0.2,14.7,0.3,25.8-0.2s32.8,0.2,35,0.2s7.2,0,6.2,0.8c-1,0.8-16.7,1.2-24.5,1.3
		c-7.8,0.2-30.8,0.2-33.5,0.7c-2.7,0.5-4.2,3.3-7.2,1.7c-3-1.7-4.3-1-3.7-1.9C97.8,334.9,99.2,333.2,99.2,333.2z"/>
	<path style="fill:#0363F7;" d="M118.7,339.4c2-0.8,0.3-2,5.3-1.5s42.2,1.8,48.2,1.5s11.2-0.8,10.7,0s-8,2.5-12.3,2.5s-6.2,0-12.5,0
		s-7.2,0.7-15.3-0.2c-8.2-0.8-11.2,0-14.5-0.7C124.8,340.4,118.7,339.4,118.7,339.4z"/>
	<path style="fill:#0363F7;" d="M102.8,358c2-0.2,5.3-0.3,11.3,0.2s12.8,1.2,18.5,2c5.7,0.8,9.8,0.7,9.3,1c-0.5,0.3,0,1.3-3,1.2
		s-12.3-0.7-15.8-0.8c-3.5-0.2-8.5-0.5-13-0.5s-6.5,0.2-6.5,0.2L102.8,358z"/>
	<path style="fill:#0363F7;" d="M147.7,360.6c2.1-0.9,3.8-1.2,11.1-0.7c7.3,0.5,24.7,0.8,27.5,1.3c2.8,0.5,11.7,0.8,11.7,0.8
		s-0.3,2-1.3,2.2c-1,0.2-10.2-1.7-12.5-1.7c-2.3,0-11.7,1.3-16.3,0.5c-4.7-0.8-13.3-0.5-15-0.5c-1.7,0-5.1-0.4-5.1-0.4L147.7,360.6z
		"/>
	<path style="fill:#0363F7;" d="M105.2,391.9c4.2,0,16.3-2,24.7-2c8.3,0,20.5,1.3,27.2,1.5s13.7-1.5,20.3-0.3
		c6.7,1.2,12.1,1.1,6.6,1.6c-5.5,0.5-14.5,1-20.1,0.9c-5.7-0.2-10.7-1.3-16.2-0.7s-8.2,1.7-12.8,2.2c-4.7,0.5-11.3,2.2-14,1.7
		c-2.7-0.5-8.3-1.3-10.2-2C108.8,394,105.2,391.9,105.2,391.9z"/>
	<path style="fill:#0363F7;" d="M136.8,405c2.9,0.1,2.7-1.6,7.1-1.1c4.3,0.5,9.5,0.3,9.5,0.3s0.8,1.2,0.3,1.7s-1.2,0.3-4.7,0.7
		c-3.5,0.3-6.8,0.8-8.5,0.7c-1.7-0.2-3.8-0.7-3.8-0.7L136.8,405z"/>
	<path style="fill:#0363F7;" d="M147.7,421.2c2,0,5-0.3,11.2-0.7c6.2-0.3,14-1.8,16.5-1c2.5,0.8,5.2,0.5,2.8,1.8
		c-2.3,1.3-9.5,1.2-13,1.7s-7,0.7-9.8,0.5c-2.8-0.2-6.4-0.7-7.3-0.8C147.2,422.7,147.7,421.2,147.7,421.2z"/>
	<path style="fill:#0363F7;" d="M155.8,430.5c3-2,12.2-4.7,15.5-4.7c3.3,0,12.5-0.7,15,0s9,1.5,3,2s-12.2,1.2-13.7,1.3
		c-1.5,0.2-0.5-2-4-0.8s-6,2.2-7.7,2.2s-6.3,0-6.3,0H155.8z"/>
	<path style="fill:#0363F7;" d="M115,466.6c13.5-0.7,26.9-1.5,40.4-2.1c9.7-0.4,19.3-0.6,29-0.7c4.1,0,8.1,0.4,12.2,0.8
		c0.8,0.1,1.6,0.4,2.4,0.6c-0.8,0.3-1.6,0.8-2.4,0.8c-10.5,0.3-21.1,0.6-31.6,0.8c-13.9,0.2-27.9,0.4-41.8,0.6
		c-2.7,0-5.5-0.1-8.2-0.1C115.1,467.1,115,466.8,115,466.6z"/>
	<path style="fill:#0363F7;" d="M148.2,509.5c2.2-1,5.5-4.5,7.3-4.3c1.8,0.2,5.7-2.3,9.8-1.3c4.2,1,9.5,3.4,11.5,5
		c3.4,2.7,5.2,4,7.5,5.3c2.8,1.7,9.3,4.7,7,4.7c-2.3,0-3-1.3-6.5-2.2c-3.5-0.8-7-3.7-10-3.3s-9.3,0.5-11.2,1c-1.8,0.5-7-0.7-3.7-1
		s8.2-1.7,9.7-1.7s3.8-0.5,3.8-0.5s1-1.3-2.2-2.3c-3.2-1-2.3-2.5-7-2.5c-4.7,0-3.3-1.8-8.2,0.8s-4.4,3.5-5.9,3.7
		S148.2,509.5,148.2,509.5z"/>
	<path style="fill:#0363F7;" d="M184.2,509.7c1-0.2,2.3-0.3,3.5,0.7c1.2,1,4.3,2.2,5.7,3.2c1.3,1,2.2,2.7,2.2,2.7s-1.7,0-4-1.3
		s-6.7-2.8-7.2-3C183.8,511.7,184.2,509.7,184.2,509.7z"/>
	<path style="fill:#0363F7;" d="M116.3,542.9c1.8-1.7,4.5-2.8,7.2-4.2c2.7-1.3,6.5-3.3,7.8-3.3c1.3,0,7.5,0.8,9.5,1.3
		s2.7-2.3,6.2-3.7c3.5-1.3,1.8-3.7,5.5-4.8c3.7-1.2,13-3.5,16.3-2.3c3.3,1.2,6.3,1.5,8.2,0.5s5.5-3.7,8-3.2s11.7,3.5,11.7,3.5
		s8.3,0,10.3-0.2c2-0.2,5.7,0.2,7.2,2.7s7.7,4.8,8.5,7.5c0.8,2.7,3.9,4.4,2.6,4.7c-1.3,0.3-2.3,0.8-5.5-1.9c-3.2-2.7-6.2-7-9.2-8.5
		s-3.8-2.3-7.5-2.3c-3.7,0-3,1-4.7,2.3c-1.7,1.3-1.8,4.3-2.8,2.3s-0.7-6.2-4.2-6.3c-3.5-0.2-8.7-0.3-14.2,1.1s-4.5,3.1-5.6,4.2
		s0.3-3.3-2.2-3.3s-8.2,1-10.5,2s-6.5,1.5-9.2,4c-2.7,2.5-6.3,5.7-8.7,6.8c-2.3,1.2-0.5-1.3-0.8-2.3c-0.3-1-4.8-1.8-6.3-1.5
		c-1.5,0.3-7.5,1.8-10.7,3.5c-3.2,1.7-5.5,3.7-6,3.3S116.3,542.9,116.3,542.9z"/>
	<path style="fill:#0363F7;" d="M135.3,547.7c3.8-1,7.3-0.7,8.2-0.7s3.7,0.8,4.4,0.9c0.6,0.1-1-1.7-2-2.1s-3.2-1.8-4.8-1.2
		c-1.7,0.7-2.5,1-3.7,1.3c-1.2,0.3-3.1,0.1-3,1C134.3,547.9,135.3,547.7,135.3,547.7z"/>
	<g id="C2P9L7_6_">
		<g>
			<path style="fill:#0363F7;" d="M649.3,558.3c-1.8,1.6-3.8,1.9-6.2,1.6c-4.6-0.4-9.3-0.3-14-0.3c-7.5,0-16.4,0.3-24,0.4
				c-9,0.1-18.1,0.3-27.1,0.5c-5.2,0.1-10.4-0.1-15.7,0c-5.3,0-10.6,0.3-15.9,0.3c-5.7,0.1-11.4,0-17.1,0
				c-5.6,0.1-11.2,0.3-16.8,0.3c-3.8,0-7.6-0.3-11.4-0.3c-5.5,0-11,0.2-16.5,0.2c-6.5,0-13,0-19.5,0c-8.9,0-17.8,0.1-26.8,0.1
				c-5.4,0-10.8-0.2-16.2-0.2c-5.8,0-11.5,0.4-17.3,0.4c-7.6,0.1-15.3,0-22.9,0c-10.7,0-21.3,0.1-32,0.1c-3.5,0-7-0.1-10.5-0.1
				c-3.6,0.1-7.2,0.3-10.9,0.4c-6.9,0.1-13.8,0.1-20.7,0.1c-10.1,0.1-20.1,0.2-30.2,0.2c-9.7,0.1-19.4,0.1-29.1,0.1
				c-10.1,0-20.3,0-30.4,0.1c-13.4,0.1-26.7,0.2-40.1,0.2c-6,0-11.9-0.2-17.9-0.2c-4.9-0.1-3.2,1.2-15.8,0.6
				c-7.3-0.3-16-0.6-23.4-0.5c-4.7,0.1-9.5-0.2-14.2-0.2c-1.8,0-3.5,0.2-5.3,0.1c-1.2-0.1-2.4-0.6-3.5-0.8c-0.4-3.8,0.3-4.7,3.2-4.7
				c6.9,0.2,14.9-0.3,21.8-0.2c8.2,0.2,15.3,1.1,23.6,1.2c5.4,0,10.9,0.6,16.3,0.7c8.4,0.1,19.3-1,27.6-1
				c19.1,0.1,35.6,0.6,54.7,0.5c3.8,0,7.6-0.7,11.4-0.8c2.6,0,5.2,1,7.8,0.7c2.9-0.4,4.3-0.2,12.4-0.6c0.4,0,0.7,0,1.1,0
				c12.7,0.2,25.4-0.9,38.2-0.8c4.2,0,8.4-0.4,12.6-0.4c5.2-0.1,10.5,0.5,15.7,0.5c31.1,0.1,62.3,1.3,93.4,1.4c3.5,0,7-0.7,10.6-1
				c2.2-0.2,4.4-0.1,6.6-0.1c3.4-0.1,6.7-0.2,10.1-0.3c1.9,0,3.8,0.3,5.8,0.3c7.7,0.1,15.5,0,23.2,0.1c6.2,0.1,12.4,0.3,18.6,0.3
				c6.2,0,12.5-0.5,18.7-0.5c9.4-0.1,18.7,0.2,28.1,0.1c3.6,0,7.2-0.4,10.9-0.5c3.7,0,7.4,0.2,11.1,0.2c4,0,8,0,12-0.1
				c9.3-0.1,18.6-0.1,27.9-0.3c4.4-0.1,8.7-0.7,13.1-0.6c3.3,0.1,6.4,0,9.6-0.7C646.8,554,651.8,555.2,649.3,558.3z"/>
		</g>
	</g>
	<path style="fill:#0363F7;" d="M403.1,375.1c-7.6-7.7-17.9-11.1-27.5-15c-0.6-0.3-0.1-0.7-0.6-1.2c0.8-0.2,0.8-2.3,1.5-2.1
		c8.2,2.4,16.4,6,24.4,8.8c6,2.1,11.8,4.8,17.6,7.4c5,2.2,9.8,3.5,14.6,6c2.3,1.2,3.8,3.4,5.7,5.3c0.1,0.1-0.1,3.6-0.7,3.7
		c-11.7,1.2-23.8,1-35.5,2.6c-7,1-13.9,3.4-20.7,5.7c-5.3,1.7-9.6,3.6-14.8,5.6c-3,1.2-5.6,4.1-8.8,4.6c-3.3,0.5-7.4-2.1-9.8-4.4
		c-3.8-3.6-6-6.2-9.9-9.8c-1.2-1.2-4.6-4.9-5.6-6.2C355,376.7,379.1,373.6,403.1,375.1z"/>
	<path style="fill:#0363F7;" d="M363.5,543.9c1.5-1.4,2-3.1,5.6-3.1s6.9-1.5,9.1-3.1s4.1-4.6,6.5-6s9-2.5,10.5-0.8s3.5,4.1,3.5,4.1
		c2.6-1.7,3.5-1.9,6.4-4.4s3.9-4.1,6.5-4.1s8.1,2.4,9.1,2.2s4.5-1.9,5.5-3.1s2.4-3.5,6.8-3.2s5.4,1.9,7.2,1s4.1-3.2,8.4-3
		s8.4,3,9.9,3.5s3.5,0,4.6-0.4s3.9-1.1,9.6,1.2s9.2,4.9,9.8,6.4s3.5,5.3,3.4,5.5s-3.6-0.3-5.1-1.5s-2.2-5.1-5-6.6s-8.6-4.6-10.8-3.6
		s-3.9,1.2-4.5,2.2s-2,2.5-2,2.5s-0.8-0.4-0.8-2.2s-4.1-3.4-6.5-3.8s-7-0.8-9.5,1.3s-4.6,3.9-4.5,3.5s0.1-4.6-4.9-3.2
		s-5.5,0.2-7.1,2.4s-4.8,6.6-5.4,6.8s-3-0.9-1.9-2s1.1-1.8-1.1-1.9s-7.1-0.5-7.9,0.9s-14,9.6-15.8,10.8s-3.5,1.5-2.5-0.5
		s1.1-2.5,2.6-3.5s3.8-2.2,2.8-2.9s-4.9-2-6-1.8s-4.6-1.6-6,1.6s-7.2,6.6-8.1,7.1s-4.5,1.4-5.5,1.8s-4.8,1.5-5.4,2.9
		s-3.6,0.2-3.5-0.4S363.5,543.9,363.5,543.9z"/>
	<path style="fill:#0363F7;" d="M422.2,550.4c3.8-2,5.5-4,8.4-5.6s6.4-2.5,10.8-1.9s6.9,1.2,9-1s6.8-4.6,9.9-3.9
		c3.1,0.7,2.5,1.7,1,2.4s-8.1,0.9-9.1,2.4s0,3.2-3.2,3.6s-10.5-3-13.8-0.6s-10.2,6.6-11.8,6.9s-0.5,0.4-0.9-0.6
		S422.2,550.4,422.2,550.4z"/>
	<path style="fill:#0363F7;" d="M458.2,520c1.8-0.7,3.3-1.4,6.3-0.8s8.4,0.8,9.2,1.4s2,1.8,0.9,2.2c-1.1,0.4-7.9-2-10.9-1.8
		s-5.6,0.1-5.6,0.1l0-0.5"/>
</g>
<g id="Fills3">
	<path style="fill:#D8E7FF;" d="M340,458c-8.7-14-1-14.3-20.3-20c-19.3-5.7-14.7-10-24.3-10c-9.7,0-15.3,1-15.3,1
		c-22.7,8.3-25.3,5.7-35,12c-9.7,6.3-16.3,18.7-20.7,27c-4.3,8.3-15,30-12.7,43c2.3,13-2,31.7,23.7,37c25.7,5.3,33,11.7,48.7,6
		c15.7-5.7,34.7-5.3,42-17.7c7.3-12.3,16.3-30,18.3-42S348.7,472,340,458z M317.3,505c-3,9-27,17.3-36.7,20c-9.7,2.7-21.3-5.3-28-9
		c-6.7-3.7-8-13.7-6-26c2-12.3,9.3-18.7,19.7-27.7c0,0,4.7-1.3,8.7-1.7s20-1.3,30.8,0.6c10.8,2,7.2,6.7,11.2,12.7
		S320.3,496,317.3,505z"/>
	<path style="fill:#D8E7FF;" d="M603,465c-3.3-11.3-13.7-18.7-23.7-27c-10-8.3-19.7-7.3-32.3-8c0,0-7.3,0-20.7,1.7
		c-13.3,1.7-20,10.7-27.3,15.7s-13,19-15.7,24.7c-2.7,5.7-9.7,20.3-11.7,30.3s3.7,27.3,6.3,34.7c2.7,7.3,6,3.3,13.3,6.3
		c7.3,3,45,9.7,48,11.7s37-8,45-14s8.3-13.3,14-26.3C604,501.7,606.3,476.4,603,465z M581.3,496c0,4.3-15.7,15.7-21,22
		c-5.3,6.3-8.7,2.7-17,8c-8.3,5.3-11-1.7-19.3-3.7s-14.3-7.7-16.3-12.7s-0.7-17,2.3-24s7.7-12.7,14.3-20c0,0,4.3-2,6.7-3
		s8-3.3,18.3-5c10.3-1.7,18.7,4,23,6.3c4.3,2.3,3.3,6.3,6.7,11.3S581.3,491.7,581.3,496z"/>
	<path style="fill:#0363F7;" d="M98.2,334.4c3.5-1.3,11.3-3.3,21.7-2.5s32,0.7,37.5,0.5s12,1.2,8.8,1.7c-3.2,0.5-13.2,1.3-23,1.2
		c-9.8-0.2-21.8,0.2-26.3,0.7s-12.7,1.3-14,1.5c-1.3,0.2-3.3,0.3-4.2-0.5c-0.8-0.8-1.2-2.5-1.2-2.5H98.2z"/>
	<path style="fill:#0363F7;" d="M121,339.9c0.5,0,2.3,0.5,7.2,1.2c4.8,0.7,17.2,0.7,20.2,1c3,0.3,6.2,0.5,6.2,0.5s15.2-1.2,20.3-1.2
		c5.2,0,7.2,0,7.8,0c0.7,0,0-2.7-0.7-2.8c-0.7-0.2-11.2,0.7-15.8,0.3c-4.7-0.3-26,0.3-33.3-0.3c-7.3-0.7-12.5-0.3-13.7-0.2
		L121,339.9z"/>
	<path style="fill:#0363F7;" d="M140.5,361.9c-12.5-1-24.9-0.4-37.4-1.4c0-0.5,0-1,0-1.5c3.1,0,6.2-0.2,9.2-0.1
		c3.1,0.1,6.3,0.4,9.4,0.6c3.2,0.2,6.4,0.3,9.5,0.7c3.1,0.5,6.2-0.1,9.3,0.6C140.5,361.2,140.5,361.5,140.5,361.9z"/>
	<path style="fill:#0363F7;" d="M146.8,360c4-0.2,18.7,0.3,22.2,0.3s19.8,0.3,21.2,0.7c1.3,0.3,8.3,0.5,7.8,1s-0.2,2-2,2
		s-13.8-1.8-17.7-1.5c-3.8,0.3-14.7,0.2-17.5,0.2c-2.8,0-13.1-0.6-13.1-0.6L146.8,360z"/>
	<path style="fill:#0363F7;" d="M106.6,393.6c-0.5,0-1.1-0.2-1.6-0.3c0.5-0.2,1-0.4,1.6-0.5c16.4-2.5,33-1.9,49.6-1.8
		c8.7,0.1,17.3,0.6,26,1c0.6,0,1.1,0.4,1.7,0.6c-0.5,0.1-1.1,0.4-1.6,0.4c-17.4,0.5-21.6-0.7-39-0.2c-1.3,1-7.8,1.7-15.8,2.8
		C119.5,396.9,106.6,393.6,106.6,393.6z"/>
	<path style="fill:#0363F7;" d="M136.8,405.5c3-0.7,3.7-2,8.8-1.7c5.2,0.3,8-1.5,8.2,0.1c0.3,1.6,0.8,2.4-3.9,2.6
		c-4.7,0.2-3.8,1-7.7,0.8C138.5,407.2,136.8,405.5,136.8,405.5z"/>
	<path style="fill:#0363F7;" d="M148,421.7c5.8-0.4,9.1-1.7,16.5-1.5c7.3,0.2,15.5-0.7,14.2,0.2c-1.3,0.8-1.5,1.5-6.3,1.8
		c-4.8,0.3-9.5,1.3-14.3,1.2s-5.5-0.5-7.7-0.7c-2.2-0.2-2.8-0.8-2.8-0.8"/>
	<path style="fill:#0363F7;" d="M156.9,430.1c1.4-1,4.9-2.6,9.1-3c4.2-0.3,8.3-1.7,11.2-1c2.8,0.7,12.7,0,12.9,0.3
		c0.3,0.3-0.6,0.7-2.2,1.2c-1.7,0.5-9.2,1.3-12.2,1.5c-3,0.2-3,0.2-3,0.2s-0.5-1.2-1.8-0.8c-1.3,0.3-6.3,1.2-8.5,1.3
		c-2.2,0.2-4.1,0.4-4.1,0.4L156.9,430.1z"/>
	<path style="fill:#0363F7;" d="M117.3,465.9c3.2-0.2,27.8-1.5,36.2-1.5s24.7-2.3,33-1.3s16.3,1.2,13.7,2c-2.7,0.8-6.2,1.2-10.2,1
		c-4-0.2-15.2-0.5-24,0.5s-14.8,1.7-17.7,1.7c-2.8,0-4.7-1.5-13.7-1s-10.5,1.2-13.8,0.5c-3.3-0.7-4.3-1.8-4.3-1.8H117.3z"/>
	<path style="fill:#0363F7;" d="M190.6,519.3c-2.8-1.5-5.7-3.4-8.9-4.8c-5-2.1-10.2-2.3-15.5-1.2c-1.7,0.4-3.3,0.7-5,1.1
		c-0.3,0.1-0.6,0-0.9-0.1c0.2-0.3,0.4-0.7,0.7-0.7c2.5-0.8,5-1.8,7.6-2.2c2.1-0.4,4.3-0.1,6.5-0.1c0.1,0,0.3,0,0.4-0.1
		c-0.1-0.1-0.1-0.3-0.2-0.4c-4.3-3.6-12.9-6.6-19.2-3.7c-1.3,0.6-5.7,2.9-6.9,3.4c-0.3,0.1-0.6,0.1-0.9,0.2c0.1-0.3,0.2-0.6,0.4-0.8
		c2-2.2,7.8-4.8,10.6-5.3c4.2-0.8,8.6,0,12.1,2.3c1.8,1.2,3.9,2,5.7,3.1c1.2,0.7,1.8,2,3.2,2.4C184.6,513.9,187.8,516.6,190.6,519.3
		z"/>
	<path style="fill:#0363F7;" d="M184.2,510.2c0.8,0.2,0.8-1.7,2.8-0.3s6,2.8,6.3,3.7c0.3,0.8,3.9,2.6,1.4,2.7s-6.7-4.2-8.7-4.5
		S184.2,510.2,184.2,510.2z"/>
	<path style="fill:#0363F7;" d="M117,543c1.5-1.9,6.2-3,9.7-4.7c3.5-1.7,2.2-3.3,7.2-3.2c5,0.2,7.5,4.8,9.2,2.3
		c1.8-2.5,5.6-5.8,8.8-7.1c3.2-1.3,0.3-2.8,5-3.7c4.7-0.8,10.2-2,14.2-0.7c4,1.3,3.7,1.7,6,0.3s2.7-5.2,10.2-3.3
		c7.5,1.8,7.3,4.3,11.2,4.2c3.8-0.2,4.5-3.3,9-1.5c4.5,1.8,7.8,2.8,11,6.8c3.2,4,8.8,8.8,7.4,9.5c-1.4,0.7-5.4-0.2-7.4-2.5
		c-2-2.3-3.8-6.5-6.5-7.8c-2.7-1.3-6-4.5-8.7-3c-2.7,1.5-7.1,5.5-7.6,6c-0.5,0.5-1.2,0.3-1-1.5c0.2-1.8,1.3-2.7-1-3.7
		s-1-4.5-6.8-3.7c-5.8,0.8-10.8,2.5-12.5,4.5c-1.7,2-2.8,3.8-3.3,2.5s3.2-3.8-3.5-3.8c-6.7,0-13.3,1.8-14.5,3.3
		c-1.2,1.5-5,4.3-7.7,6.3c-2.7,2-4.3,6-5.7,4.2s-0.2-2.3,0-2.8s-3.5-1.7-6.5-1.2s-7.3,0.8-9.7,2.7c-2.3,1.8-4.8,2.9-5.5,3
		C117.2,544.7,117,543,117,543z"/>
	<path style="fill:#0363F7;" d="M135.3,547.7c3.5-0.5,13.1-0.1,13.1-0.1s-0.9-1.4-2.6-1.7c-1.7-0.3-3.1-1.4-4-1.3
		c-0.9,0.1-2.2,0.8-4.5,1.4c-2.3,0.7-2.9,1.2-2.8,1.4C134.7,547.7,135.3,547.7,135.3,547.7z"/>
	<g id="C2P9L7_9_">
		<g>
			<path style="fill:#0363F7;" d="M649,556.3c-1.8,1.6-3.8,1.9-6.2,1.7c-4.6-0.4-9.3-0.2-14-0.2c-7.5,0-15.1,0.1-22.6,0.2
				c-9,0.2-18.1,0.4-27.1,0.6c-5.2,0.1-10.4,0-15.7,0.1c-5.3,0.1-10.6,0.3-15.9,0.4c-5.7,0.1-11.4,0-17.1,0.1
				c-5.6,0.1-11.2,0.3-16.8,0.4c-3.8,0-7.6-0.3-11.4-0.2c-5.5,0-11,0.2-16.5,0.3c-6.5,0.1-13,0-19.5,0.1c-8.9,0.1-17.8,0.2-26.8,0.2
				c-5.4,0-10.8-0.2-16.2-0.1c-5.8,0.1-11.5,0.4-17.3,0.5c-7.6,0.1-15.3,0-22.9,0.1c-10.7,0.1-21.3,0.2-32,0.2c-3.5,0-7-0.1-10.5,0
				c-3.6,0.1-7.2,0.4-10.9,0.4c-6.9,0.1-13.8,0.2-20.7,0.2c-10.1,0.1-20.1,0.3-30.2,0.4c-9.7,0.1-19.4,0.2-29.1,0.2
				c-10.1,0.1-20.3,0.1-30.4,0.2c-13.4,0.1-26.7,0.3-40.1,0.4c-6,0-11.9-0.1-17.9-0.2c-5.7-0.1-11.5-0.3-17.2-0.3
				c-6,0-10.8,0.4-19,0.6c-4.7,0.1-8.4-0.1-13.2-0.2c-1.8,0-3.5,0.2-5.3,0.1c-1.2-0.1-6.5-0.5-7.6-0.8c-0.4-3.8,0.3-4.7,3.2-4.7
				c6.9,0.2,13.8,0.3,20.7,0.5c8.2,0.2,16.5,0.4,24.7,0.4c5.4,0,10.9-0.4,16.3-0.3c8.4,0.1,16.8,0.5,25.1,0.5
				c19.1,0,38.1-0.2,57.2-0.4c3.8,0,7.6-0.8,11.4-0.8c2.6-0.1,5.2,1.2,7.8,0.6c5.3-1.2,8.3,0.9,12.4-0.6c0.3-0.1,0.7,0,1.1,0
				c12.7,0.2,25.4,0.4,38.2,0.5c4.2,0,8.4-0.4,12.6-0.5c5.2-0.1,10.5,0,15.7,0c31.1,0,62.3,0,93.4,0c3.5,0,7-0.8,10.6-1
				c2.2-0.2,4.4-0.1,6.6-0.2c3.4-0.1,9.8,0,13.2,0c1.9,0,3.8,0.2,5.8,0.3c7.7,0,14.7,0.7,22.4,0.8c6.2,0,10.1-0.8,16.3-0.9
				c6.2-0.1,12.5-0.6,18.7-0.6c9.4-0.1,18.7,0.1,28.1,0c3.6,0,7.2-0.4,10.9-0.5c3.7-0.1,7.4,0.1,11.1,0.1c4,0,8-0.1,12-0.1
				c9.3-0.1,18.6-0.2,27.9-0.5c4.4-0.1,7.7,0.2,12.1,0.3c3.3,0,7.4-2.3,10.6-1.7C648.9,553.1,648.9,553.1,649,556.3z"/>
		</g>
	</g>
	<path style="fill:#0363F7;" d="M402.7,375.8c-8.3-7.3-17.5-11.8-27.1-15.7c-0.6-0.3-1.1-1.1-1.6-1.6c0.8-0.2,3-1.1,3.7-0.9
		c8.2,2.4,15.2,5.2,23.3,8c6,2.1,11.8,4.8,17.6,7.4c5,2.2,10.1,4.3,14.9,6.9c2.3,1.2,4.1,3.4,6,5.3c0.1,0.1,0.2,2.1-0.3,2.2
		c-11.7,1.2-24.7,1.6-36.4,3.3c-7,1-13.9,3.4-20.7,5.7c-5.3,1.7-10.3,4.3-15.5,6.3c-3,1.2-6.2,2.1-9.4,2.6c-3.3,0.5-6-0.9-8.5-3.2
		c-3.8-3.6-7.9-7-11.8-10.6c-1.2-1.2-2.1-2.8-3-4.1C355.6,378,378.7,375.2,402.7,375.8z"/>
	<g>
		<path style="fill:#0363F7;" d="M485.9,536.6c-1.3-1.3-2.7-2.4-3.7-3.8c-3-4.1-7.5-8.1-12.9-9.2c-3.2-0.7-6.3-0.8-9.2,1.1
			c-0.2,0.1-0.7,0.2-0.9,0.1c-1.2-0.7-2.3-1.5-3.4-2.3c-5.7-4-13.1-1.4-16.5,1.8c-0.3,0.2-1,0.3-1.3,0.1c-2.3-1.2-4.6-2-7.2-1.3
			c-3.5,1-6.5,2.8-8.6,5.9c-0.1,0.2-0.8,0.3-1,0.2c-1.8-1.4-5.9-2-8.1-2.1c-2.5-0.1-9.4,4.6-14.3,7.9c-3.1-5.5-11.1-5.7-15.7-2.3
			c-3.3,2.4-6.7,7.8-10.8,8.4c-1.5,0.2-3.1-0.3-4.6,0.3c-1.8,0.8-3.3,3.1-4.6,4.4c-1.1,1.1,0.6,2.8,1.7,1.7c1.6-1.7,2.9-3.7,5.3-4
			c0.9-0.1,1.8,0.1,2.7,0c2.4-0.3,3.8-1.2,5.4-3c2.2-2.3,4.3-4.7,7.1-6.4c3.5-2.2,9.3-1.6,11.5,2.3c-1.2,0.8-2.1,1.4-2.7,1.7
			c-1.2,0.6-2.3,1.3-3.4,2.1c-0.3,0.2-0.2,0.8-0.3,1.3c0.2,0-0.4,2.6,0.4,2.4c3.5-1.8,14.9-10.1,16-10.6c2.6-1.2,4.9-3.7,8-3.6
			c1.1,0.2,2.3,0.3,3.4,0.6c1.8,0.5,1.9,0.8,0.9,2.3c-0.3,0.4-0.5,1-0.7,1.4c-0.1,0.2-0.1,0.3-0.2,0.5c0.2,0,0.4,0.1,0.5,0
			c1.2-0.9,2.5-1.8,3.6-2.9c1.6-1.5,2.8-3.4,4.5-4.7c0.6-0.3,3.9-2.1,8.8-1.3c1.8,0.3,2,0.5,1.3,2.1c-0.1,0.3-0.1,0.6-0.2,1
			c0.3-0.1,0.7-0.2,1-0.4c1.3-1.1,2.5-2.4,4-3.3c4.7-2.8,9.5-3,14.2,0.2c1.1,0.8,2.8,1.3,1.5,3.3c-0.3,0.5,0.3,1.6,0.5,2.4
			c0.3-0.5,0.6-1,0.9-1.5c1-1.8,2-3.5,4.3-3.8c2.8-0.3,7.1-0.2,9.7,1c3.3,1.6,4.5,5.4,6.9,8c1.5,1.6,3.4,0.9,6,2.8
			c0.2,0.1,0.5,0,0.7,0C486.1,537,486,536.8,485.9,536.6z"/>
	</g>
	<path style="fill:#0363F7;" d="M422.7,550.5c2.2-3.1,6.8-6.2,10.5-7s9.3,0.2,12.3,0.2c3,0,4.6-2.6,6-3.2s6.8-2.5,8-2.5
		s3.1,0.9,1.9,1.8s-3.5,0.1-6.4,1.9s-4.6,4.4-6,4.8s-4.4-0.9-9-0.9s-7.4,1.2-10.2,2.9s-5.8,4.2-5.8,4.2L422.7,550.5z"/>
	<path style="fill:#0363F7;" d="M458.2,520c3.1-0.8,5.5-0.9,6.3-0.8s8.5,1,9.2,1.4s1.9,1.7,0.9,2.2c-0.9,0.5-4.3-1.3-7.9-1.7
		s-8.6,0-8.6,0l0-0.5L458.2,520z"/>
</g>
<g id="Lines">
	<path style="fill:#162B54;" d="M346.5,471c-2.6-7-6-15-12.3-21.2c-7.5-7.4-17-13-28.4-16.7c-8.3-2.7-14.8-3.7-25.7-3.8
		c-2.2,0-4.3,0.2-6.3,0.5c-1.4,0.2-2.7,0.4-4.1,0.4c-10.4,1.1-16.8,4.4-23.5,8.2c-6.5,3.7-10.6,7.8-15.3,13.2
		c-4.8,5.6-9.7,11.3-12.4,18.5l-0.4,1.1c-1.5,3.9-3.2,8.4-4,12.1c-1.5,6.1-2.2,11-2.3,16c0.2,6.6,0.5,13.5,2.5,20.3
		c1.4,4.8,2.9,9.4,5.4,13.6c2.1,3.4,5.1,6,8,8.4c0.5,0.4,1,0.9,1.5,1.3c2.9,2.6,5.7,4.8,9.1,6.1c0,0.3,0.1,0.5,0.2,0.7
		c0,0.1,0.1,0.1,0.1,0.2c0,0,0.1,0.1,0.1,0.2c-0.9-0.3-1.7-0.7-2.2-1c-1.5-0.9-3.3-1.5-5-2.1c-1.6-0.6-3.3-1.1-4.5-1.9
		c-0.1-0.1-0.3-0.2-0.4-0.3l-0.2-0.1c-0.4-0.2-0.9-0.2-1.2,0.2c-0.3,0.3-0.4,0.8-0.2,1.2c0,0,0,0.1,0.1,0.1c0.1,0.2,0.2,0.4,0.3,0.6
		c1,1.9,3.8,2.7,6.8,3.5c1,0.3,2,0.6,2.8,0.9c-0.7,0.1-1.5,0.4-2.3,1.1c-1,0.7-9,1.2-10.5,0.7c-0.5-0.2-1,0-1.4,0.1
		c-0.1,0-0.1,0-0.2,0.1c-0.6,0.1-0.8,0.7-0.8,0.8c-0.1,0.3-0.1,0.7,0.1,0.9c0.2,0.3,0.5,0.5,0.8,0.5l0.3,0c0.2,0,0.3,0,0.5,0.1
		c1.4,0.9,11.7,0.9,13.1-0.3c1.2-1,2.8-0.9,3.8-0.4c3,1.6,5.3,0.8,8-0.3c0.4-0.2,0.8-0.4,1.2-0.7c0.3-0.2,0.9-0.7,1.1-0.6
		c0.8,0.2,1.7,0.7,2.6,1.3c0.9,0.5,1.8,1.1,2.7,1.4c0.4,0.1,0.7,0.1,1,0.1c0.1,0,0.1,0,0.2,0c0.3,0,0.6-0.1,0.7-0.3
		c0.2-0.2,0.3-0.5,0.3-0.8c0,0,0,0,0-0.1c1.1,0.2,2.1,0.3,3.1,0.5l0.2,0c4.6,0.8,9,1.2,13.2,1.2c2.9,0,5.7-0.2,8.4-0.6
		c5.2-0.7,10.2-1.9,14.9-3c1.9-0.5,3.6-1.2,5.3-2c0.5-0.2,1.1-0.5,1.6-0.7c8.5-3.6,14.2-6.3,23.6-15c0,0,0.1-0.1,0.1-0.1
		c0.8-0.9,1.6-1.8,2.5-2.7c1.4-1.5,2.9-3,4-4.8c8-12,12.7-22.7,14.5-33.5C349.1,486.1,348.7,478.6,346.5,471z M268.3,551.4
		c-1.3-0.1-2.7-0.3-4-0.5l-0.7-0.1c-7.7-1-9-1.2-9.3-1.2c-4.6-0.2-8.6-2.1-12.8-4.2l-0.4-0.2c-6.9-3.4-11.9-7-15.8-11.5
		c-2.3-2.7-4-5.8-5-9.4c-0.1-0.4-0.4-1.6-0.8-3.5c0,0-0.1-0.4-0.2-0.9c-0.4-1.8-1.6-6.5-1.8-8.4c-0.5-3.6-1.2-11.6-1.1-13
		c-0.1-2.1,0.1-4.7,0.5-7.6c0.6-3.7,1.9-10.8,2.4-12c0.5-1.1,0.9-2.2,1.3-3.4c0.7-1.9,1.4-3.9,2.3-5.7c1-2.1,2.3-4,3.7-6
		c1.4-2,2.9-3.9,4.3-5.7l1.3-1.7c0.1-0.1,1.3-1.5,2.4-2.8c1.1-1.3,2.4-2.8,3.2-3.7c0.1-0.2,0.2-0.3,0.2-0.5c0.2,0,0.4-0.1,0.5-0.2
		c0.2-0.1,0.3-0.3,0.4-0.5c0.1-0.1,0.3-0.4,0.5-0.6c0.2-0.3,0.4-0.6,0.6-0.8l4.8-3.3c5.4-3.7,11.5-6.5,18.2-8.3
		c4.4-1.2,9.5-1.9,15.9-2.1c4.8-0.1,9.6,0.5,14.4,1l1.4,0.2c8.9,2,23.5,8.9,25.6,10.3c0.7,0.5,1.5,0.9,2.2,1.3c1,0.6,2,1.1,2.9,1.8
		c0.6,0.5,1.2,1,1.8,1.5c1.8,1.5,3.7,3.1,5.1,4.9l0.4,0.5c2.6,3.1,4.4,5.3,6.8,9.9c2.4,5.3,3.8,10.9,4.3,17
		c0.3,7.2-1.1,13.1-2.7,18.9c-1.8,4.8-3.4,8-5.1,11.3c-0.8,1.6-1.7,3.3-2.5,5.2c-4.9,8.7-12.9,16.6-13.6,17.1l-0.9,0.7
		c-0.9,0.7-1.3,1-1.6,1.3c-0.3,0.3-0.5,0.5-1.3,1.1c0,0-0.1,0-0.1,0.1c-1.7,1.5-7.5,4.8-9.3,5.7c-1.5,0.7-2.8,1.4-3.9,2
		c-2.6,1.4-4.6,2.4-8.6,3.8c0,0-0.1,0-0.1,0c-4.7,2.2-12.8,2.7-16,2.9C276.3,552.1,270,551.6,268.3,551.4z"/>
	<path style="fill:#162B54;" d="M223.6,554.3c0.2,0.1,0.5,0.2,0.8,0.3c-0.2,0.1-0.5,0.3-0.6,0.2c-0.3-0.1-0.6-0.3-0.9-0.4
		C223,554.5,223.2,554.4,223.6,554.3z"/>
	<path style="fill:#162B54;" d="M293,456.9c5.4-0.1,10.5,1.1,15.1,4c4.1,2.6,7.3,6.2,9.6,10.6c3.3,6.1,5.3,12.5,5.3,19.5
		c0,4.9-1.5,9.4-3.7,13.7c-3.4,6.4-7.7,11.8-14.1,15.5c-7.6,4.4-15.8,7.2-24.5,8.5c-4.8,0.7-9.6-0.4-14.3-1.2
		c-5.8-1-10.5-4.2-14.9-7.8c-1.4-1.1-2.1-3.1-3-4.8c-3.1-5.9-4.2-12.3-3.6-18.8c0.5-5.2,2.4-10,4.9-14.6c2.9-5.4,6.6-10,11.4-13.6
		c4.8-3.6,9.8-7,15.6-8.9C282,457.2,287.5,457.2,293,456.9z M303.9,517.3c3.1-2.2,5.8-5,8.2-8c2.1-2.6,3.7-5.6,5.2-8.6
		c2-4.2,3.2-8.7,2.6-13.6c-0.6-4.1-0.9-8.3-2.8-12.1c-1.8-3.6-3.6-7.3-6.7-10c-5.2-4.6-11.8-5.6-18.3-6.1
		c-7.4-0.5-14.3,2.2-20.9,5.2c-4.4,2-8.5,5.2-12.1,8.5c-7.1,6.7-10.6,15.2-10.8,25.1c-0.1,6.9,0.1,13.7,4.4,19.6
		c0.8,1.1,1.9,2.2,3,3c5.9,4.1,12.7,4.6,19.7,4.7c6.5,0,5,0.7,11.2-0.8c2.1-0.9,7.7-3.9,9.9-4.7c0.2-0.1,0.5,0,0.7,0
		c-0.2,0.2-0.3,0.4-0.5,0.6"/>
	<path style="fill:#162B54;" d="M222.1,507.5c-0.1-6.5,0.5-13.3,2-20c1.5-6.5,3.4-12.8,6.2-18.8c0.5-1.2,1.2-2.3,1.9-3.3
		c0.2-0.3,0.5-0.5,0.8-0.6c0.4-0.1,0.9-0.1,1.3-0.1c-0.2,0.3-0.3,0.7-0.5,1c-0.3,0.7-0.7,1.3-1,2c-0.2,0.5-0.3,1-0.4,1.5
		c0.5-0.1,0.9-0.1,1.4-0.2c0.2,0,0.5,0,0.7-0.1c-0.1,0.2-0.2,0.5-0.4,0.6c-3.2,0.5-2.8,3.6-3.9,5.6c-0.4,0.7-0.6,1.6-0.9,2.4
		c-0.1,0.2-0.1,0.4-0.1,0.6c0.2-0.1,0.4-0.1,0.6-0.2c0.5-0.3,1-0.6,1.5-0.9c0.2-0.1,0.5-0.1,0.7-0.1c-0.1,0.3-0.1,0.6-0.3,0.7
		c-0.3,0.3-0.7,0.6-1.1,0.7c-1.8,0.6-2.4,2-2.7,3.7c-0.3,1.2-0.6,2.5-0.9,3.7c0,0.2,0,0.4,0,0.6c0.2-0.1,0.3-0.1,0.5-0.2
		c0.7-0.6,1.5-1.1,2.2-1.7c0.1-0.1,0.3-0.1,0.5-0.1c-0.1,0.2-0.2,0.3-0.3,0.5c-0.4,0.4-0.8,0.9-1.3,1.2c-3.5,2.4-3,6.3-3.7,9.7
		c0,0.1,0.1,0.2,0.1,0.3c0.2-0.1,0.3-0.2,0.5-0.3c0.9-0.9,1.7-1.8,2.5-2.8c0.1-0.1,0.3-0.2,0.5-0.3c-0.1,0.2-0.1,0.4-0.2,0.6
		c-0.9,1.2-1.9,2.3-2.7,3.6c-0.5,0.8-1,1.8-1.1,2.8c-0.2,1.9-0.2,3.8-0.2,5.7c0,0.1,0.3,0.2,0.4,0.3c0.1,0,0.9-0.7,1.1-0.7
		c0,0.2-1,1.4-1.1,1.5c-1.7,2-0.2,4.1-0.3,6.2c0,0.3,0.1,0.5,0.2,0.8c0.1-0.2,0.3-0.4,0.4-0.7c0.7-1.3,1.4-2.6,2.1-3.9
		c0.1-0.1,0.3-0.2,0.4-0.3c0,0.2,0.1,0.4,0,0.6c-0.7,1.5-1.5,2.9-2.2,4.5c-0.3,0.6-0.3,1.4-0.4,2.1c-0.1,0.4-0.1,0.8-0.1,1.2
		c-0.6-0.3-1.7-0.6-1.8-1c-0.4-2.4-0.5-4.8-0.7-7.2C222.2,508.4,222.2,508.1,222.1,507.5z"/>
	<path style="fill:#162B54;" d="M236.8,460.2c-0.8-0.1-1.1-0.2-1.4-0.2c0.2-0.3,0.3-0.6,0.5-0.9c4.4-6.1,9.9-11.3,16.1-15.4
		c6.1-3.9,12.4-7.6,19.7-9.1c2.7-0.6,5.5-0.5,8.3-0.7c0.1,0,0.3,0.1,0.5,0.2c-0.2,0.1-0.4,0.3-0.6,0.4c-1.7,0.3-3.4,0.7-5.1,1
		c-6.2,0.8-11.6,3.7-17,6.8c-4.9,2.8-9.1,6.4-13.1,10.1c-2.3,2.1-4.3,4.6-6.5,7C237.7,459.7,237.1,460,236.8,460.2z"/>
	<path style="fill:#162B54;" d="M245.8,545.8c-8.2-2.7-15.4-10-17.4-13.6c-0.7-1.3-2-3.4-2.6-4.8c-0.1-0.3-1.3-4.3-1.4-4.6
		c0.4,0.1,3.1,4.4,3.3,4.7c0.6,0.7,1.1,1.5,1.6,2.3c2.1,3.2,2.4,4.2,6.4,8.1C238.3,539.7,244,543.2,245.8,545.8z"/>
	<path style="fill:#162B54;" d="M271.8,534.5c-2.9-0.2-7.2-0.9-10-1.4c-3.7-0.6-7-2.2-9.7-4.9c-0.2-0.2-0.3-0.4-0.4-0.6
		c0.2,0,0.5,0,0.7,0.1c5.6,3.1,12.9,5.9,19.4,6.2c0,0,0.1,0.1,0.1,0.1C271.8,534.2,271.8,534.4,271.8,534.5z"/>
	<path style="fill:#162B54;" d="M336.2,465.7c0,0.1-0.1,0.1-0.1,0.2c-0.2-0.2-0.3-0.3-0.4-0.5c-1.8-2.4-3.5-4.9-5.5-7.1
		c-1.8-2-3.9-3.7-5.9-5.6c-0.2-0.2-0.3-0.4-0.4-0.6c0.2,0.1,0.5,0.1,0.7,0.2c3.6,2.3,6.6,5.2,9,8.7c1,1.4,1.8,3,2.6,4.4
		C336.1,465.5,336.1,465.6,336.2,465.7z"/>
	<path style="fill:#162B54;" d="M319.8,522.5c-0.7,0.7-1,1.2-1.4,1.4c-1.9,0.8-5.2,2-11.2,4.3c-0.2,0.1-0.5,0-0.7-0.1
		c0.2-0.1,0.4-0.3,0.6-0.4c3.8-1.7,7.6-3.4,11.4-5.1C318.7,522.6,319.1,522.6,319.8,522.5z"/>
	<path style="fill:#162B54;" d="M242.2,464.3c3.9-3.8,7.5-7.8,12.7-9.9c0.4-0.2,0.9-0.1,1.3-0.1c-0.4,0.3-0.7,0.5-1.1,0.8
		c-3.1,2.3-6.3,4.6-9.3,6.9c-1.1,0.8-2.1,1.8-3.1,2.7c-0.2,0.1-0.4,0.2-0.6,0.3C242.1,464.8,242.2,464.6,242.2,464.3z"/>
	<path style="fill:#162B54;" d="M328,507.8c-0.1,0.1,0.1,1.1,0,1.1c-2.5,2.6-5.2,4.3-7.7,6.9c-0.1,0.1-0.4,0.1-0.6,0.2
		c0.1-0.2,0.1-0.4,0.2-0.5c2.4-2.5,4.8-4.9,7.2-7.4c0.2-0.2,0.5-0.4,0.8-0.5C327.9,507.6,328,507.7,328,507.8z"/>
	<path style="fill:#162B54;" d="M247.2,464.3c-3,3.1-6.3,6.5-10.3,10.6c-0.2,0.2-0.6,0.3-0.9,0.4c0-0.2,0-0.5,0.1-0.6
		c3.3-3.3,5.7-6.8,9.9-10C246.3,464.4,246.8,464.4,247.2,464.3z"/>
	<path style="fill:#162B54;" d="M333,492.8c-0.1,2.4-1.5,4-2.8,5.8c-0.1,0.1-0.2,0.2-0.3,0.3c-0.5,0.5-1,0.9-1.5,1.4
		c0.3-0.6,0.5-1.3,0.9-1.9C330.4,496.6,331.7,494.7,333,492.8z"/>
	<path style="fill:#162B54;" d="M268.4,445.8c-2.6,0.5-5.2,0.8-7.8,1.5c-2.1,0.6-4,1.6-6,2.4c-0.2,0.1-0.5,0.2-0.7,0.3
		c0.2-0.2,0.3-0.5,0.5-0.7C258.6,446.4,263.4,445.8,268.4,445.8z"/>
	<path style="fill:#162B54;" d="M268.4,498.4c0.3,1.3,0.5,2.3,1.3,3.2c1.6,1.8-0.9,1.6-1.6,2.1c-4.5,3.2-9.2,6.3-13.8,9.4
		c-0.3,0.2-0.6,0.2-1,0.3c0.2-0.3,0.3-0.6,0.6-0.8c4.5-3.3,9-6.6,13.6-9.9c0.5-0.3,0.9-0.5,0.4-1.3c-1.1-1.8-1.1-3.9-0.7-6
		c0.1-0.4,0.5-0.7,0.8-1.1c0.2,0.4,0.4,0.8,0.5,1.2c0.1,0.5,0,1,0,1.5C268.4,497.1,268.5,498.3,268.4,498.4z"/>
	<path style="fill:#162B54;" d="M319.4,497.2c-1.4,2.6-2.8,5.3-4.3,8c-6.1,11.1-9.5,11-10.4,11.7c-0.3,0.3-0.8,0.4-1.2,0.6
		c-0.6,0.4-3.6,2.8-4.3,3.2c0.5-0.6-2.2-3.9-1.7-4.5c6.3-1.4,13.1-8.6,16.7-13.4c1.4-1.8,2-4.2,3-6.3c0.2-0.5,0.7-0.8,1.1-1.2
		C318.5,495.8,318.8,496.3,319.4,497.2z"/>
	<path style="fill:#162B54;" d="M309.1,470.2c-0.5,0.7-0.8,1.2-1.1,1.5c-3.4,2.7-6.8,5.4-10.3,8.1c-1.1,0.9-2.2,1.8-3.3,2.7
		c-0.2,0.2-0.6,0.2-0.9,0.2c0-0.4,0-0.9,0.2-1c3.6-3.2,7.3-6.3,11-9.4c0.9-0.8,2-1.3,3.1-1.9C308,470.1,308.4,470.2,309.1,470.2z"/>
	<path style="fill:#162B54;" d="M271.2,524.5c-8.1,2.1-21.3-4.5-17.1-8.2c-0.3-0.3-0.3-0.9-0.5-1.3c0.5,0.2,1.1,0.2,1.4,0.5
		c4,3.6,8.9,5.6,13.8,7.6c0.8,0.3,1.7,0.6,2.5,0.9c0.2,0.1,0.4,0.2,0.7,0.4C271.7,524.4,271.5,524.5,271.2,524.5z"/>
	<path style="fill:#162B54;" d="M251.8,490.7c4.7,0.5,9.5,1,14.2,1.6c0.2,0,0.6,0.6,0.5,0.8c-0.1,0.3-0.5,0.7-0.8,0.6
		c-2.5-0.1-5-0.3-7.5-0.6c-2.7-0.3-5.4-0.8-8.1-1.3c-0.3,0-0.5-0.4-0.7-0.7c0.3-0.2,0.5-0.5,0.8-0.5
		C250.7,490.7,251.2,490.7,251.8,490.7C251.8,490.7,251.8,490.7,251.8,490.7z"/>
	<path style="fill:#162B54;" d="M307.2,466.9c-0.2-0.1-0.5-0.1-0.6-0.3c-4-2.7-8.4-4.5-13.1-5.5c-1.2-0.3-2.4-0.5-3.7-0.8
		c-0.2,0-10.2,0-10.3-0.1c0.1,0,7.7-1.6,7.8-1.6c4.4-1,13.8-0.5,18.4,2.7c0.9,0.7,9.6,4.4,9.1,7.6
		C310.9,471.3,307.3,466.7,307.2,466.9z"/>
	<path style="fill:#162B54;" d="M298.8,518.5c-0.2,0.1-0.3,0.4-0.5,0.3c-0.2,0-0.5-0.2-0.6-0.4c-1.8-3-3.6-6.1-5.5-9.1
		c-1-1.7-0.7-1-1.8-2.7c-0.1-0.2,0-0.7,0.1-0.8c0.3-0.1,0.9-0.2,1-0.1c2.9,4.8,4.2,7.3,7.1,12.1
		C298.6,518.1,298.7,518.3,298.8,518.5z"/>
	<path style="fill:#162B54;" d="M314.8,492.6c-4.4,1.2-9.2,0.6-13.9,0.2c-0.6,0-1.3,0-1.9-0.2c-0.4-0.1-0.6-0.6-0.9-0.8
		c0.3-0.2,0.7-0.7,1-0.7C304.4,491.6,309.7,492.1,314.8,492.6z"/>
	<path style="fill:#162B54;" d="M275.3,481.2c-0.2,0.1-0.4,0.3-0.6,0.3c-0.2,0-0.5,0-0.6-0.1c-2.8-3.5-5.5-7-8.3-10.6
		c-0.2-0.2-0.1-0.6-0.2-0.9c0.2,0.2,0.5,0.4,0.7,0.6c2.8,3.3,5.5,6.5,8.3,9.8C274.9,480.6,275.1,480.9,275.3,481.2z"/>
	<path style="fill:#162B54;" d="M283.4,478.1c0.7,0.2,2.1-0.2,2.9,0.1c0.2,0,1.3,0.3,1.3,0.4c0,0.1,0.4,1.5,0.3,1.6
		c-0.4,0.2-3-0.3-3.3-0.3c-2.3-0.5-4.3,0.5-6.2,1.5c-0.4,0.2-0.8,0.5-1.3,0.6c-0.3,0.1-0.7-0.2-1-0.3c0.1-0.3,0.1-0.6,0.3-0.7
		C278.5,479.3,280.7,478.3,283.4,478.1z"/>
	<path style="fill:#162B54;" d="M287.4,475.2c0.5-4,1-2.4,1.5-6.4c0-0.3,0.3-0.6,0.5-0.9c0.1,0.3,0.2,0.6,0.2,0.9
		c-0.5,4.8-1.1,6.5-1.6,11.3c0,0.4-0.5-0.2-0.6,0.2c-0.1-0.4,0.2-2.5,0.2-2.8c0-0.8,0-1.5,0-2.3
		C287.5,475.2,287.5,475.2,287.4,475.2z"/>
	<path style="fill:#162B54;" d="M272.6,523.4c1.8-5.1,3.5-10,5.2-14.8c0.1-0.2,0.7-0.4,1-0.3c0.3,0.1,0.7,0.7,0.6,0.9
		c-1.5,3.7-2.9,7.4-4.5,11c-0.5,1.1-1.2,2.2-1.7,3.3c-0.2,0.3-0.4,0.6-0.5,0.9C272.7,523.9,272.6,523.6,272.6,523.4z"/>
	<path style="fill:#162B54;" d="M282.8,511.8c-0.9-0.2-2,0-2.2-2.7c-0.1,0-0.2-0.2-0.4-0.3c0.2-0.1,0.3-0.2,0.5-0.2
		c2.6-0.5,7.1-2.2,9.7-2.6c0.1,0,1.3,2.9,1.4,2.9c0,0.2-2.2,0.6-2.3,0.8C286.5,510.9,284.9,511.6,282.8,511.8z"/>
	<path style="fill:#162B54;" d="M268.9,490.6c0.7-2.8,1.6-5.3,3.8-7.2c0.2-0.2,0.5-0.1,0.8-0.1c0,0.3,0,0.6-0.1,0.8
		c-1.2,2.2-2.4,4.5-3.6,6.7c-0.2,0.3-0.4,0.6-0.5,0.9C269.1,491.4,269,491,268.9,490.6z"/>
	<path style="fill:#162B54;" d="M299.4,495.4c-0.4,2.3-1.2,7.1-3.2,8.4c-0.4,0.2-3.2,1-3.7,1.1c0.2-0.4,2.1-4.3,2.4-4.6
		c1.1-1.5,2-6.8,3.2-8.4c0.2-0.2,2,1.1,2.2,0.9C300.4,493,299.4,495.2,299.4,495.4z"/>
	<path style="fill:#162B54;" d="M319.7,482.4c0.7,4.3-1.8,6.8-2.2,7.7c-0.2-0.9-0.2-5.2-0.5-6.1c-0.8-2.3-1.1-4.2-1.8-6.5
		c-0.3-0.9-2.3-4-2.3-4.9c1.6-0.5,4.4,2.3,4.7,3C317.5,475.3,317.8,477.4,319.7,482.4z"/>
	<path style="fill:#162B54;" d="M295,484.5c0.2-0.7,0.3-1,0.4-1.2c0.2,0.1,0.6,0.2,0.7,0.4c0.7,0.9,1.6,3.2,2.3,4.1
		c0.1,0.1,0.1,0.4,0,0.5c-0.1,0.1-0.4,0.2-0.5,0.1C297,487.6,295.8,485.3,295,484.5z"/>
	<path style="fill:#162B54;" d="M296.5,446.9c0.1,0.1,0.2,0.2,0.4,0.3c0.7,0.4,1.7,0.2,2.3-0.4l0.3-0.3c0.1-0.2,0.2-0.3,0.2-0.5
		c0-0.3-0.3-0.4-0.6-0.5c-0.4-0.1-0.8-0.1-1.2,0.1c-0.4,0.1-0.7,0.3-1.1,0.5c-0.1,0.1-0.3,0.2-0.4,0.3
		C296.4,446.6,296.4,446.8,296.5,446.9z"/>
	<path style="fill:#162B54;" d="M285.2,443.9c-0.3-0.2-0.7-0.2-1-0.3c-0.3-0.1-0.6-0.2-0.9-0.3c-0.3,0-0.7,0.1-0.8,0.3
		c0,0,0,0.1,0,0.2c0,0.1,0.1,0.2,0.2,0.3c0.4,0.3,0.9,0.5,1.4,0.7c0.3,0.1,0.6,0.3,0.9,0.4c0.3,0.1,0.5,0,0.7-0.2
		C286.1,444.5,285.6,444.1,285.2,443.9z"/>
	<path style="fill:#162B54;" d="M305.3,448c-1-0.2-1.8,1-2.7-0.1C304.2,447.1,304.5,447.1,305.3,448c-0.3-1.3-2.4-1.5-3.4-0.1
		C302.2,449.4,305.4,449,305.3,448z"/>
	<path style="fill:#162B54;" d="M290.5,444.3c1.1,0.3,2.2,1.1,3.6,0.6C292.8,444.1,291.7,443.9,290.5,444.3z"/>
	<path style="fill:#162B54;" d="M285.5,441.8c-0.7-0.3-1.1,0-1.6,0.6c1.2,0.1,2.2,0.6,3.3,0.7c0-0.1,0.1-0.6,0.1-0.6
		C286.7,442.3,286.1,442.1,285.5,441.8z"/>
	<path style="fill:#162B54;" d="M294.4,445.8c0.9-0.9,0.7-1.9-0.6-2.3c-0.5-0.2-1.1-0.2-1.6-0.4c-1-0.3-1.8-0.3-2.4,0.7
		c-0.2,0.3-0.5,0.4-0.8,0.6c-0.7,0.5-1.3,1-2,1.5c0.7,0.2,1.3,0.4,1.8-0.2c0.1-0.1,0.3-0.1,0.4-0.1c1.2-0.3,2.2,0.2,3,1.2
		c0.4,0.4,0.8,0.8,1.5,0.6c0.5-0.1,1.1-0.2,1.4,0.5c0.1,0.1,0.3,0.3,0.5,0.3c1.4,0.2,2.9,0.5,4.2-0.4c1-0.7,1.3-1.4,1-2.3
		c-0.1-0.5-0.6-1.1-2.2-1.2h0c-1.5-0.1-2.6,1.2-3.7,2.4c-0.5,0.5-1-0.1-1.7-0.6C293.2,446,294.3,446,294.4,445.8z M296.8,446.1
		c0.3-0.2,0.7-0.4,1.1-0.5c0.4-0.1,0.8-0.2,1.2-0.1c0.3,0.1,0.5,0.3,0.6,0.5c0,0.2-0.1,0.3-0.2,0.5l-0.3,0.3
		c-0.5,0.6-1.5,0.8-2.3,0.4c-0.2-0.1-0.3-0.2-0.4-0.3c-0.1-0.1-0.1-0.3-0.1-0.5C296.5,446.3,296.7,446.2,296.8,446.1z M290.5,444.3
		c1.2-0.4,2.3-0.2,3.6,0.6C292.7,445.4,291.6,444.6,290.5,444.3z"/>
	<path style="fill:#162B54;" d="M287.2,441.4c-0.7-0.6-1.3-1-2-1c-0.6,0,0,0-1.4-0.1c-1.1,1-1.8,2-2.8,3c-0.5,0.5-1.2,1-1.6,1.8
		c2,0.4,3.4,0.8,5.1,1c1,0.1,2-0.4,2-1.1c0.1-0.7,0.3-1.2,0.8-1.6C288.1,442.9,287.9,442.1,287.2,441.4z M284.5,445.3
		c-0.3,0-0.7-0.2-1-0.2c-0.5-0.1-1-0.3-1.5-0.5c-0.1,0-0.2-0.1-0.3-0.2c0,0,0-0.1,0-0.2c0.1-0.3,0.4-0.5,0.7-0.5
		c0.3,0,0.6,0.1,0.9,0.1c0.4,0,0.7,0,1.1,0.1c0.4,0.1,0.9,0.5,0.6,1C285,445.2,284.8,445.3,284.5,445.3z M283.1,442.8
		c0.4-0.6,0.7-1.1,1.4-0.8c0.6,0.2,1.3,0.3,1.9,0.4c0,0.1,0,0.6,0,0.6C285.3,443.1,284.3,442.7,283.1,442.8z"/>
	<path style="fill:#162B54;" d="M314.4,453.3c-1.2-0.4-2.3-0.9-3.5-1.2c-0.2-0.1-0.5,0.1-0.7,0.1c0.1,0.3,0.1,0.8,0.3,0.9
		c1.3,0.6,2.5,1.4,3.9,1.6c1.4,0.2,3.9-1.7,0.5-3.5c0.2,0,2.3,0.8,2.4,0.7c0.3-0.2,0.5-0.5,0.8-0.8c-0.2-0.2-0.4-0.5-0.7-0.6
		c-0.8-0.2-1.6-0.4-2.4-0.5c-0.9-0.1-1.2,0.6-1.7,1.1c-0.1,0.1,0.2,0.3,0.4,0.4c0.3,0.3,0,0.2,0.4,0.4c0.4,0.2,1.2,0.9,1.7,1
		C315.3,453.6,314.8,453.5,314.4,453.3z"/>
	<path style="fill:#162B54;" d="M303.3,450c0.8-0.1,1.6-0.5,2.3-0.9c0.5-0.3,0.9-0.8,0.7-1.4c-0.2-0.7-1.7-1.8-2.4-1.8
		c-0.2,0-0.3,0-0.5,0.1c-0.5,0.2-1.1,0.3-1.6,0.6c-1.3,0.7-1.4,2,0.1,3.1C302.2,449.7,302.8,450.1,303.3,450z M301.9,447.8
		c1-1.4,3.1-1.2,3.4,0.1C305.4,449,302.2,449.4,301.9,447.8z"/>
	<path style="fill:#162B54;" d="M308.8,448.2c0.2-0.6,0.7-1.1,0.1-1.9c-1,1.3-2,2.6-3,3.9c-0.2,0.3-0.1,0.8-0.2,1.2
		c0.1,0.1,0.2,0.1,0.3,0.2c0.4-0.3,0.9-0.6,1.4-0.9c0.2,0.2,0.3,0.5,0.6,0.6c0.4,0.2,0.8,0.4,1.2,0.5c0.2,0,0.8,0.2,0.9,0
		c0.1-0.2-0.5-0.7-0.6-1c-0.1-0.2-0.7-0.9-1-1.3c0.8-0.1,2-0.1,2.5,0c1,0.1,1.3,0.1,1.6-1.1C311.3,448.3,310.1,448.2,308.8,448.2z"
		/>
	<path style="fill:#162B54;" d="M262.8,543.2c-0.9,0.8-0.8,1.8,0.4,2.3c0.5,0.2,1.1,0.3,1.6,0.5c1,0.4,1.8,0.4,2.5-0.6
		c0.2-0.3,0.6-0.4,0.8-0.6c0.7-0.4,1.4-0.9,2.1-1.4c-0.7-0.2-1.3-0.5-1.9,0.1c-0.1,0.1-0.3,0.1-0.4,0.1c-1.2,0.2-2.2-0.3-2.9-1.3
		c-0.3-0.5-0.8-0.8-1.4-0.7c-0.5,0.1-1.1,0.2-1.3-0.6c0-0.1-0.3-0.3-0.4-0.3c-1.4-0.3-2.9-0.6-4.2,0.2c-1,0.6-1.4,1.3-1.2,2.3
		c0.1,0.5,0.5,1.2,2.2,1.4l0,0c1.5,0.2,2.6-1.1,3.8-2.2c0.5-0.5,1,0.2,1.7,0.7C264,543.1,262.9,543.1,262.8,543.2z M260.4,542.8
		c-0.4,0.2-0.7,0.4-1.1,0.5c-0.4,0.1-0.8,0.1-1.2,0c-0.3-0.1-0.5-0.3-0.5-0.6c0-0.2,0.1-0.3,0.2-0.5l0.3-0.3
		c0.6-0.6,1.5-0.7,2.3-0.3c0.1,0.1,0.3,0.2,0.4,0.3s0.1,0.3,0.1,0.5C260.7,542.7,260.6,542.7,260.4,542.8z M266.6,544.9
		c-1.2,0.4-2.3,0.1-3.5-0.7C264.5,543.8,265.5,544.6,266.6,544.9z"/>
	<path style="fill:#162B54;" d="M269.8,548c0.7,0.7,1.2,1,2,1.1c0.6,0,0,0,1.4,0.2c1.2-1,1.9-1.9,2.9-2.8c0.5-0.4,1.2-1,1.7-1.7
		c-1.9-0.5-3.3-1-5-1.3c-1-0.2-2,0.3-2.1,1c-0.1,0.7-0.3,1.2-0.9,1.6C269,546.5,269.1,547.3,269.8,548z M272.6,544.3
		c0.3,0,0.6,0.2,0.9,0.3c0.5,0.2,1,0.3,1.4,0.6c0.1,0.1,0.2,0.1,0.3,0.2c0,0.1,0,0.1,0,0.2c-0.1,0.3-0.4,0.4-0.8,0.4
		c-0.3,0-0.6-0.1-0.9-0.2c-0.4-0.1-0.7-0.1-1.1-0.2c-0.4-0.2-0.9-0.6-0.6-1C272.1,544.4,272.3,544.3,272.6,544.3z M274,546.9
		c-0.4,0.6-0.7,1-1.5,0.8c-0.6-0.2-1.3-0.4-1.9-0.6c0-0.1,0.1-0.6,0-0.6C271.7,546.4,272.7,546.9,274,546.9z"/>
	<path style="fill:#162B54;" d="M243.3,534.7c1.1,0.5,2.3,1,3.5,1.4c0.2,0.1,0.5,0,0.8-0.1c-0.1-0.3-0.1-0.8-0.3-0.9
		c-1.2-0.7-2.5-1.5-3.8-1.8c-1.4-0.3-4,1.5-0.7,3.5c-0.2,0-2.3-0.9-2.4-0.8c-0.3,0.2-0.5,0.5-0.8,0.8c0.2,0.2,0.4,0.5,0.7,0.6
		c0.8,0.3,1.6,0.4,2.4,0.6c0.9,0.2,1.3-0.5,1.7-1.1c0.1-0.1-0.2-0.3-0.3-0.4c-0.3-0.3,0-0.2-0.4-0.4c-0.4-0.2-1.2-1-1.7-1.1
		C242.4,534.3,242.8,534.5,243.3,534.7z"/>
	<path style="fill:#162B54;" d="M254.1,538.6c-0.8,0.1-1.6,0.4-2.4,0.7c-0.5,0.2-0.9,0.7-0.8,1.4c0.1,0.7,1.6,1.9,2.3,2
		c0.2,0,0.3,0,0.5,0c0.6-0.2,1.1-0.3,1.7-0.5c1.4-0.6,1.5-2,0.1-3.1C255.2,538.9,254.6,538.5,254.1,538.6z M255.4,540.8
		c-1.1,1.3-3.1,1-3.4-0.3C252,539.4,255.2,539.2,255.4,540.8z"/>
	<path style="fill:#162B54;" d="M248.5,540.1c-0.2,0.6-0.7,1.1-0.2,1.9c1.1-1.3,2.2-2.5,3.2-3.7c0.2-0.3,0.2-0.8,0.3-1.2
		c-0.1-0.1-0.2-0.1-0.3-0.2c-0.5,0.3-0.9,0.5-1.4,0.8c-0.2-0.2-0.3-0.5-0.5-0.6c-0.4-0.2-0.7-0.5-1.2-0.6c-0.2-0.1-0.8-0.2-0.9-0.1
		c-0.1,0.2,0.4,0.7,0.6,1c0.1,0.2,0.6,1,0.9,1.4c-0.8,0.1-2,0-2.5-0.1c-1-0.1-1.3-0.2-1.7,1.1C246.1,539.9,247.3,540,248.5,540.1z"
		/>
	<path style="fill:#162B54;" d="M606.9,471.3c-2.6-7-6-15-12.3-21.2c-7.5-7.4-17-13-28.4-16.7c-8.3-2.7-14.8-3.7-25.7-3.8
		c-2.2,0-4.3,0.2-6.3,0.5c-1.4,0.2-2.7,0.4-4.1,0.4c-10.4,1.1-16.8,4.4-23.5,8.2c-6.5,3.7-10.6,7.8-15.3,13.2
		c-4.8,5.6-9.7,11.3-12.4,18.5l-0.4,1c-1.5,3.9-3.2,8.4-4,12.1c-1.5,6.1-2.2,11-2.3,16c0.2,6.6,0.5,13.5,2.5,20.3
		c1.4,4.8,2.9,9.4,5.4,13.6c2.1,3.4,5.1,6,8,8.4c0.5,0.4,1,0.9,1.5,1.3c3,2.6,5.8,4.8,9.3,6.2c-0.3,0.1-0.5,0.2-0.6,0.5
		c0,0,0,0.1,0,0.1c-0.4-0.2-0.8-0.4-1.1-0.6c-0.6-0.4-1.5-1-2.3-0.4c-0.1,0.1-0.2,0.2-0.3,0.3c-0.1,0-0.1-0.1-0.2-0.1l-0.2-0.1
		c-0.4-0.2-0.9-0.2-1.2,0.2c-0.3,0.3-0.4,0.8-0.2,1.2c0,0,0,0.1,0.1,0.1c0.1,0.2,0.2,0.4,0.3,0.6c0.2,0.4,0.4,0.7,0.7,1
		c-0.2,0.1-0.4,0.3-0.6,0.4c-0.7,0.6-4.2,1.1-5.6,0.7c-0.5-0.2-1,0-1.4,0.1c-0.1,0-0.1,0-0.2,0.1c-0.6,0.1-0.8,0.7-0.8,0.8
		c-0.1,0.3-0.1,0.7,0.1,0.9c0.2,0.3,0.5,0.5,0.8,0.5l0.3,0c0.2,0,0.3,0,0.5,0.1c1.5,0.9,6.9,0.9,8.3-0.3c1.2-1,2.8-0.9,3.8-0.4
		c3,1.6,5.4,0.8,8-0.3c0.4-0.2,0.8-0.4,1.2-0.7c0.3-0.2,0.9-0.6,1.1-0.6h0c0.8,0.2,1.7,0.7,2.6,1.3c0.9,0.5,1.8,1.1,2.7,1.4
		c0.4,0.1,0.7,0.1,1,0.1c0.1,0,0.1,0,0.2,0c0.3,0,0.6-0.1,0.7-0.3c0.2-0.2,0.3-0.5,0.3-0.8c0,0,0,0,0-0.1c1,0.2,2.1,0.3,3.1,0.5
		l0.2,0c4.6,0.8,9,1.2,13.2,1.2c2.9,0,5.7-0.2,8.4-0.6c5.2-0.7,10.2-1.9,14.9-3c1.9-0.5,3.6-1.2,5.3-2c0.5-0.2,1.1-0.5,1.6-0.7
		c9.3-3.9,17.5-7.8,23.7-15.1c0.8-0.9,1.6-1.8,2.5-2.7c1.4-1.5,2.9-3,4-4.8c8-12,12.7-22.7,14.5-33.5
		C609.6,486.4,609.1,479,606.9,471.3z M528.7,551.7c-1.3-0.1-2.7-0.3-4-0.5l-0.7-0.1c-7.7-1-9-1.2-9.3-1.2
		c-4.6-0.2-8.6-2.1-12.8-4.2l-0.4-0.2c-6.9-3.4-11.9-7-15.8-11.5c-2.3-2.7-4-5.8-5-9.4c0,0,0-0.1,0-0.1c-0.5-1.6-0.7-2.7-0.8-3.4
		c0-0.1,0-0.1,0-0.2c0.1-0.4-0.1-1.1-0.5-2.6c-0.4-1.4-0.8-3.1-1.1-4.3c0-0.1-0.1-0.5-0.2-1c-0.1-0.5-0.2-1.1-0.2-1.2
		c-0.5-3.6-1.2-11.6-1.1-13c-0.1-2.1,0.1-4.7,0.5-7.6c0.6-3.7,1.9-10.8,2.4-12c0.4-1.1,0.9-2.2,1.3-3.4c0.7-1.9,1.5-3.9,2.3-5.7
		c1-2.1,2.3-4,3.7-6c1.4-2,2.9-3.9,4.3-5.7l1.3-1.7c0.1-0.1,1.3-1.5,2.4-2.8c1.1-1.3,2.4-2.8,3.2-3.7c0.1-0.2,0.2-0.3,0.2-0.5
		c0.2,0,0.4-0.1,0.5-0.2c0.2-0.1,0.3-0.3,0.4-0.5c0.1-0.1,0.3-0.4,0.5-0.6c0.2-0.3,0.4-0.6,0.6-0.8l4.8-3.3
		c5.4-3.7,11.5-6.5,18.2-8.3c4.4-1.2,9.5-1.9,15.9-2.1c4.8-0.1,9.6,0.5,14.4,1l1.4,0.2c0.9,0.1,10.5,2.8,11.2,3.1
		c0.7,0.3,1.3,0.6,2,0.9c1,0.5,2,0.9,3.1,1.4c0.2,0.1,0.4,0.2,0.7,0.4c0.4,0.2,0.8,0.5,1.3,0.6c2.3,0.8,4.6,2,7.4,3.9
		c0.7,0.5,1.5,0.9,2.2,1.3c1,0.6,2,1.1,2.9,1.8c0.6,0.5,1.2,1,1.8,1.5c1.8,1.5,3.7,3.1,5.1,4.9c2.1,2.6,4,5.5,5.8,8.3
		c0.5,0.7,0.9,1.4,1.4,2.1c2.4,5.3,3.8,10.8,4.3,16.9c0.3,3.9-1.1,15.1-2.3,17.8c-1.8,4.3-3.8,8.6-5.8,12.7
		c-0.8,1.6-1.5,3.2-2.3,4.8c-2.8,5.9-12.7,16.4-13.5,17l-0.9,0.7c-0.8,0.6-1.2,0.9-1.6,1.2c-0.5,0.4-0.9,0.7-1.9,1.4l-0.3,0.2
		c-0.3,0.2-1.1,0.8-1.5,1.1c-0.5,0.1-1.1,0.5-2,1.1c-0.1,0.1-0.2,0.1-0.2,0.2c-0.5,0.3-0.9,0.6-1.3,0.9c-1.1,0.8-2.2,1.5-3.4,2.1
		c-1.5,0.7-2.8,1.4-3.9,2c-2.6,1.4-4.6,2.4-8.6,3.8c0,0-0.1,0-0.1,0c-4.7,2.2-12.8,2.7-16,2.9C536.7,552.5,530.4,551.9,528.7,551.7z
		"/>
	<path style="fill:#162B54;" d="M488.8,554.7c0.2,0.1,0.5,0.2,0.8,0.3c-0.2,0.1-0.5,0.3-0.6,0.2c-0.3-0.1-0.6-0.3-0.9-0.4
		C488.3,554.8,488.5,554.8,488.8,554.7z"/>
	<path style="fill:#162B54;" d="M553.4,457.3c5.4-0.1,10.5,1.1,15.1,4c4.1,2.6,7.3,6.2,9.6,10.6c3.3,6.1,5.3,12.5,5.3,19.5
		c0,4.9-1.5,9.4-3.7,13.7c-3.4,6.4-7.7,11.8-14.1,15.5c-7.6,4.4-15.8,7.2-24.5,8.5c-4.8,0.7-9.6-0.4-14.3-1.2
		c-5.8-1-10.5-4.2-14.9-7.8c-1.4-1.1-2.1-3.1-3-4.8c-3.1-5.9-4.2-12.3-3.6-18.8c0.5-5.2,2.4-10,4.9-14.6c2.9-5.4,6.6-10,11.4-13.6
		c4.8-3.6,9.8-7,15.6-8.9C542.5,457.6,547.9,457.5,553.4,457.3z M564.3,517.7c3.1-2.2,5.8-5,8.2-8c2.1-2.6,3.7-5.6,5.2-8.6
		c2-4.2,3.2-8.7,2.6-13.6c-0.6-4.1-1.6-8.1-3.4-11.9c-1.8-3.6-3.5-7-6.6-9.7c-5.2-4.6-11.2-6.1-17.7-6.6c-7.4-0.5-14.3,2.2-20.9,5.2
		c-4.4,2-8.5,5.2-12.1,8.5c-7.1,6.7-10.6,15.2-10.8,25.1c-0.1,6.9,0.1,13.7,4.4,19.6c0.8,1.1,1.9,2.2,3,3c5.9,4.1,12.7,4.6,19.7,4.7
		c6.5,0,5,0.7,11.2-0.8c2.1-0.9,7.7-3.9,9.9-4.7c0.2-0.1,0.5,0,0.7,0c-0.2,0.2-0.3,0.4-0.5,0.6"/>
	<path style="fill:#162B54;" d="M482.6,507.9c-0.1-6.5,0.5-13.3,2-20c1.5-6.5,3.4-12.8,6.2-18.8c0.5-1.2,1.2-2.3,1.9-3.3
		c0.2-0.3,0.5-0.5,0.8-0.6c0.4-0.1,0.9-0.1,1.3-0.1c-0.2,0.3-0.3,0.7-0.5,1c-0.3,0.7-0.7,1.3-1,2c-0.2,0.5-0.3,1-0.4,1.5
		c0.5-0.1,0.9-0.1,1.4-0.2c0.2,0,0.5,0,0.7-0.1c-0.1,0.2-0.2,0.5-0.4,0.6c-3.2,0.5-2.8,3.6-3.9,5.6c-0.4,0.7-0.6,1.6-0.9,2.4
		c-0.1,0.2-0.1,0.4-0.1,0.6c0.2-0.1,0.4-0.1,0.6-0.2c0.5-0.3,1-0.6,1.5-0.9c0.2-0.1,0.5-0.1,0.7-0.1c-0.1,0.3-0.1,0.6-0.3,0.7
		c-0.3,0.3-0.7,0.6-1.1,0.7c-1.8,0.6-2.4,2-2.7,3.7c-0.3,1.2-0.6,2.5-0.9,3.7c0,0.2,0,0.4,0,0.6c0.2-0.1,0.3-0.1,0.5-0.2
		c0.7-0.6,1.5-1.1,2.2-1.7c0.1-0.1,0.3-0.1,0.5-0.1c-0.1,0.2-0.2,0.3-0.3,0.5c-0.4,0.4-0.8,0.9-1.3,1.2c-3.5,2.4-3,6.3-3.7,9.7
		c0,0.1,0.1,0.2,0.1,0.3c0.2-0.1,0.3-0.2,0.5-0.3c0.9-0.9,1.7-1.8,2.5-2.8c0.1-0.1,0.3-0.2,0.5-0.3c-0.1,0.2-0.1,0.4-0.2,0.6
		c-0.9,1.2-1.9,2.3-2.7,3.6c-0.5,0.8-1,1.8-1.1,2.8c-0.2,1.9-0.2,3.8-0.2,5.7c0,0.1,0.3,0.2,0.4,0.3c0.1,0,0.3,0,0.4,0
		c0,0.2,0.1,0.6,0,0.7c-1.7,2-0.7,4.3-0.8,6.4c0,0.3,0.1,0.5,0.2,0.8c0.1-0.2,0.3-0.4,0.4-0.7c0.7-1.3,1.4-2.6,2.1-3.9
		c0.1-0.1,0.3-0.2,0.4-0.3c0,0.2,0.1,0.4,0,0.6c-0.7,1.5-1.5,2.9-2.2,4.5c-0.3,0.6-0.3,1.4-0.4,2.1c-0.1,0.4-0.1,0.8-0.1,1.2
		c-0.6-0.3-1.7-0.6-1.8-1c-0.4-2.4-0.5-4.8-0.7-7.2C482.6,508.7,482.6,508.5,482.6,507.9z"/>
	<path style="fill:#162B54;" d="M497.2,460.6c-0.8-0.1-1.1-0.2-1.4-0.2c0.2-0.3,0.3-0.6,0.5-0.9c4.4-6.1,9.9-11.3,16.1-15.4
		c6.1-3.9,12.4-7.6,19.7-9.1c2.7-0.6,5.5-0.5,8.3-0.7c0.1,0,0.3,0.1,0.5,0.2c-0.2,0.1-0.4,0.3-0.6,0.4c-1.7,0.3-3.4,0.7-5.1,1
		c-6.2,0.8-11.6,3.7-17,6.8c-4.9,2.8-9.1,6.4-13.1,10.1c-2.3,2.1-4.3,4.6-6.5,7C498.1,460.1,497.5,460.4,497.2,460.6z"/>
	<path style="fill:#162B54;" d="M506.2,546.1c-8.2-2.7-15.4-10-17.4-13.6c-0.7-1.3-2-3.4-2.6-4.8c-0.1-0.3-1.3-4.3-1.4-4.6
		c0.4,0.1,3.1,4.4,3.3,4.7c0.6,0.7,1.1,1.5,1.6,2.3c2.1,3.2,2.4,4.2,6.4,8.1C498.7,540,504.4,543.6,506.2,546.1z"/>
	<path style="fill:#162B54;" d="M592.7,458.7c0,0.1-0.1,0.1-0.1,0.2c-0.2-0.1-0.3-0.3-0.5-0.4c-2.1-2.2-4.1-4.5-6.3-6.5
		c-2-1.8-4.3-3.3-6.5-4.9c-0.2-0.1-0.3-0.3-0.5-0.5c0.2,0,0.5,0,0.7,0.1c3.8,1.9,7.1,4.5,9.9,7.6c1.1,1.3,2.1,2.7,3.1,4.1
		C592.6,458.6,592.6,458.6,592.7,458.7z"/>
	<path style="fill:#162B54;" d="M580.2,522.9c-0.7,0.7-1,1.2-1.4,1.4c-1.9,0.8-5.2,2-11.2,4.3c-0.2,0.1-0.5,0-0.7-0.1
		c0.2-0.1,0.4-0.3,0.6-0.4c3.8-1.7,7.6-3.4,11.4-5.1C579.2,522.9,579.5,523,580.2,522.9z"/>
	<path style="fill:#162B54;" d="M594.9,470.5c-2.5-5.1-2.6-5.5-5.3-10.8C593.3,464.6,593.4,464.9,594.9,470.5z"/>
	<path style="fill:#162B54;" d="M502.6,464.7c3.9-3.8,7.5-7.8,12.7-9.9c0.4-0.2,0.9-0.1,1.3-0.1c-0.4,0.3-0.7,0.5-1.1,0.8
		c-3.1,2.3-6.3,4.6-9.3,6.9c-1.1,0.8-2.1,1.8-3.1,2.7c-0.2,0.1-0.4,0.2-0.6,0.3C502.6,465.1,502.6,464.9,502.6,464.7z"/>
	<path style="fill:#162B54;" d="M588.5,508.1c-0.1,0.1,0.1,1.1,0,1.1c-2.5,2.6-5.2,4.3-7.7,6.9c-0.1,0.1-0.4,0.1-0.6,0.2
		c0.1-0.2,0.1-0.4,0.2-0.5c2.4-2.5,4.8-4.9,7.2-7.4c0.2-0.2,0.5-0.4,0.8-0.5C588.4,508,588.4,508.1,588.5,508.1z"/>
	<path style="fill:#162B54;" d="M585.1,515.8c-0.3,0.5-0.5,1.1-0.9,1.3c-2.4,1.6-7.3,4.5-9.8,6c-0.1,0-0.2,0-0.3-0.1
		c0.1-0.1,0.1-0.2,0.2-0.3c2.6-1.8,7.7-5.1,10.3-6.9C584.8,515.7,584.9,515.8,585.1,515.8z"/>
	<path style="fill:#162B54;" d="M593.2,498.9c-2.2,2.7-4.5,5.3-6.7,8c-0.2-0.2-1.2,0.6-1.4,0.5c2.2-2.7,4.6-5.4,6.8-8.1
		C592.2,499.5,593,498.8,593.2,498.9z"/>
	<path style="fill:#162B54;" d="M585.6,453c2.7,2,4.9,4.4,6.6,7.3c0.5,0.9,1,1.8,1.5,2.7c0.1,0.2,0.2,0.4,0.3,0.6
		c-0.2-0.2-0.4-0.3-0.6-0.5c-2.2-2.8-4.4-5.7-6.6-8.5"/>
	<path style="fill:#162B54;" d="M508.6,457.2c0.3-0.6,0.3-0.9,0.5-0.9c3.6-2,5.9-4.3,11-5.9c0.1-0.1,0.3,0,0.5,0
		c-0.1,0.1-0.2,0.2-0.3,0.3c-3.6,2-7.1,4-10.7,6C509.4,456.8,509.2,456.9,508.6,457.2z"/>
	<path style="fill:#162B54;" d="M593.4,493.1c-0.1,2.4-1.5,4-2.8,5.8c-0.1,0.1-0.2,0.2-0.3,0.3c-0.5,0.5-1,0.9-1.5,1.4
		c0.3-0.6,0.5-1.3,0.9-1.9C590.9,496.9,592.1,495.1,593.4,493.1z"/>
	<path style="fill:#162B54;" d="M528.8,446.2c-2.6,0.5-5.2,0.8-7.8,1.5c-2.1,0.6-4,1.6-6,2.4c-0.2,0.1-0.5,0.2-0.7,0.3
		c0.2-0.2,0.3-0.5,0.5-0.7C519,446.8,523.8,446.1,528.8,446.2z"/>
	<path style="fill:#162B54;" d="M528.9,498.7c0.3,1.3,0.5,2.3,1.3,3.2c1.6,1.8-0.8,2.1-1.6,2.6c-4.5,3.2-9.2,5.8-13.8,8.9
		c-0.3,0.2-0.6,0.2-1,0.3c0.2-0.3,0.3-0.6,0.6-0.8c4.5-3.3,9-6.6,13.6-9.9c0.5-0.3,0.9-0.5,0.4-1.3c-1.1-1.8-1.1-3.9-0.7-6
		c0.1-0.4,0.5-0.7,0.8-1.1c0.2,0.4,0.4,0.8,0.5,1.2c0.1,0.5,0,1,0,1.5C528.8,497.4,529,498.7,528.9,498.7z"/>
	<path style="fill:#162B54;" d="M579.8,497.6c-1.4,2.6-2.8,5.3-4.3,8c-6.1,11.1-9.5,11-10.4,11.7c-0.3,0.3-0.8,0.4-1.2,0.6
		c-0.6,0.4-3.6,2.8-4.3,3.2c0.5-0.6-2.2-3.9-1.7-4.5c6.3-1.4,13.1-8.6,16.7-13.4c1.4-1.8,2-4.2,3-6.3c0.2-0.5,0.7-0.8,1.1-1.2
		C579,496.2,579.2,496.6,579.8,497.6z"/>
	<path style="fill:#162B54;" d="M569.5,470.5c-0.5,0.7-0.8,1.2-1.1,1.5c-3.4,2.7-6.8,5.4-10.3,8.1c-1.1,0.9-2.2,1.8-3.3,2.7
		c-0.2,0.2-0.6,0.2-0.9,0.2c0-0.4,0-0.9,0.2-1c3.6-3.2,7.3-6.3,11-9.4c0.9-0.8,2-1.3,3.1-1.9C568.4,470.5,568.8,470.6,569.5,470.5z"
		/>
	<path style="fill:#162B54;" d="M531.6,524.9c-8.1,2.1-21.3-4.5-17.1-8.2c-0.3-0.3-0.3-0.9-0.5-1.3c0.5,0.2,1.1,0.2,1.4,0.5
		c4,3.6,8.9,5.6,13.8,7.6c0.8,0.3,1.7,0.6,2.5,0.9c0.2,0.1,0.4,0.2,0.7,0.4C532.2,524.8,531.9,524.8,531.6,524.9z"/>
	<path style="fill:#162B54;" d="M512.2,491.1c4.7,0.5,10.3,1,15,1.6c0.2,0,0.6,0.6,0.5,0.8c-0.1,0.3-0.5,0.7-0.8,0.6
		c-2.5-0.1-5.8-0.3-8.3-0.6c-2.7-0.3-5.4-0.8-8.1-1.3c-0.3,0-0.5-0.4-0.7-0.7c0.3-0.2,0.5-0.5,0.8-0.5
		C511.1,491,511.7,491.1,512.2,491.1C512.2,491.1,512.2,491.1,512.2,491.1z"/>
	<path style="fill:#162B54;" d="M567.6,467.2c-0.2-0.1-0.5-0.1-0.6-0.3c-4-2.7-8.4-4.5-13.1-5.5c-1.2-0.3-2.4-0.5-3.7-0.8
		c-0.2,0-10.2,0-10.3-0.1c0.1,0,7.7-1.6,7.8-1.6c4.4-1,13.8-0.5,18.4,2.7c0.9,0.7,9.6,4.4,9.1,7.6
		C571.4,471.7,567.7,467.1,567.6,467.2z"/>
	<path style="fill:#162B54;" d="M559.2,518.9c-0.2,0.1-0.3,0.4-0.5,0.3c-0.2,0-0.5-0.2-0.6-0.4c-1.8-3-3.6-6.1-5.5-9.1
		c-1-1.7-0.7-1-1.8-2.7c-0.1-0.2,0-0.7,0.1-0.8c0.3-0.1,0.9-0.2,1-0.1c2.9,4.8,4.2,7.3,7.1,12.1
		C559.1,518.5,559.1,518.7,559.2,518.9z"/>
	<path style="fill:#162B54;" d="M578.1,493.1c-4.4,1.2-11.6,1.4-16.4,1.1c-0.6,0-1.7-1-2.3-1.2c-0.4-0.1-0.6-0.6-0.9-0.8
		c0.3-0.2,0.7-0.7,1-0.7C564.8,492,573,492.7,578.1,493.1z"/>
	<path style="fill:#162B54;" d="M535.7,481.6c-0.2,0.1-0.4,0.3-0.6,0.3c-0.2,0-0.5,0-0.6-0.1c-2.8-3.5-5.5-7-8.3-10.6
		c-0.2-0.2-0.1-0.6-0.2-0.9c0.2,0.2,0.5,0.4,0.7,0.6c2.8,3.3,5.5,6.5,8.3,9.8C535.3,480.9,535.5,481.2,535.7,481.6z"/>
	<path style="fill:#162B54;" d="M543.9,478.4c0.7,0.2,2.1-0.2,2.9,0.1c0.2,0,1.3,0.3,1.3,0.4c0,0.1,0.5,1.7,0.3,1.8
		c-0.4,0.2-3-0.5-3.4-0.5c-2.3-0.5-4.3,0.5-6.2,1.5c-0.4,0.2-0.8,0.5-1.3,0.6c-0.3,0.1-0.7-0.2-1-0.3c0.1-0.3,0.1-0.6,0.3-0.7
		C538.9,479.7,541.1,478.6,543.9,478.4z"/>
	<path style="fill:#162B54;" d="M547.8,475.5c0.5-4,1-8,1.5-12c0-0.3,0.3-0.6,0.5-0.9c0.1,0.3,0.2,0.6,0.2,0.9
		c-0.5,4.8-1.1,12.1-1.6,16.9c0,0.4-0.5-0.2-0.6,0.2c-0.1-0.4,0.2-2.5,0.2-2.8c0-0.8,0-1.5,0-2.3C548,475.5,547.9,475.5,547.8,475.5
		z"/>
	<path style="fill:#162B54;" d="M533.1,523.8c1.8-5.1,3.5-10,5.2-14.8c0.1-0.2,0.7-0.4,1-0.3c0.3,0.1,0.7,0.7,0.6,0.9
		c-1.5,3.7-2.9,7.4-4.5,11c-0.5,1.1-1.2,2.2-1.7,3.3c-0.2,0.3-0.4,0.6-0.5,0.9C533.1,524.3,533.1,523.9,533.1,523.8z"/>
	<path style="fill:#162B54;" d="M543.2,512.2c-0.9-0.2-2,0-2.2-2.7c-0.1,0-0.2-0.2-0.4-0.3c0.2-0.1,0.3-0.2,0.5-0.2
		c2.6-0.5,7.1-2.2,9.7-2.6c0.1,0,1.3,2.9,1.4,2.9c0,0.2-1.4,1-1.5,1.2C547.7,511.7,545.3,512,543.2,512.2z"/>
	<path style="fill:#162B54;" d="M528.9,491.4c0.7-2.8,2-5.7,4.2-7.6c0.2-0.2,0.5-0.1,0.8-0.1c0,0.3,0,0.6-0.1,0.8
		c-1.2,2.2-2.4,4.5-3.6,6.7c-0.2,0.3-0.9,1.6-1.1,1.9C529,492.7,529,491.7,528.9,491.4z"/>
	<path style="fill:#162B54;" d="M561,496.9c-0.4,2.3-2.3,6.1-4.3,7.3c-0.4,0.2-3.2,1-3.7,1.1c0.2-0.4,2.1-4.3,2.4-4.6
		c1.1-1.5,2-6.8,3.2-8.4c0.2-0.2,2,1.1,2.2,0.9C560.8,493.4,561.5,495.2,561,496.9z"/>
	<path style="fill:#162B54;" d="M580.1,482.8c0.7,4.3-1.3,9.4-1.7,10.3c-0.2-0.9-0.7-7.8-1-8.7c-0.8-2.3-1.1-4.2-1.8-6.5
		c-0.3-0.9-2.3-4-2.3-4.9c1.6-0.5,4.4,2.3,4.7,3C577.9,475.7,578.3,477.8,580.1,482.8z"/>
	<path style="fill:#162B54;" d="M553.9,483c0.2-0.7,1.8,0.9,1.9,0.7c0.2,0.1,0.6,0.2,0.7,0.4c0.7,0.9,1.6,3.2,2.3,4.1
		c0.1,0.1,0.1,0.4,0,0.5c-0.1,0.1-0.4,0.2-0.5,0.1C557.4,487.9,554.7,483.7,553.9,483z"/>
	<path style="fill:#162B54;" d="M551.3,445.2c0.1,0.1,0.3,0.2,0.4,0.2c0.8,0.2,1.7-0.1,2.2-0.8l0.2-0.3c0.1-0.2,0.1-0.3,0.1-0.5
		c-0.1-0.3-0.4-0.4-0.6-0.4c-0.4,0-0.8,0.1-1.2,0.3c-0.4,0.2-0.7,0.4-1,0.7c-0.1,0.1-0.3,0.2-0.3,0.4
		C551.1,444.9,551.2,445.1,551.3,445.2z"/>
	<path style="fill:#162B54;" d="M539.7,444c-0.3-0.1-0.7-0.1-1.1-0.1c-0.3,0-0.6-0.1-0.9-0.1c-0.3,0-0.7,0.2-0.7,0.5
		c0,0,0,0.1,0,0.2c0,0.1,0.2,0.2,0.3,0.2c0.5,0.2,1,0.3,1.5,0.5c0.3,0.1,0.6,0.2,1,0.2c0.3,0,0.5-0.1,0.6-0.3
		C540.6,444.5,540.1,444.2,539.7,444z"/>
	<path style="fill:#162B54;" d="M560.1,444.8c-1,0-1.7,1.2-2.7,0.3C558.9,444.2,559.2,444.1,560.1,444.8c-0.5-1.3-2.6-1.1-3.4,0.4
		C557.3,446.8,560.4,445.9,560.1,444.8z"/>
	<path style="fill:#162B54;" d="M544.9,443.6c1.2,0.1,2.3,0.7,3.6,0C547.2,443.1,546,443,544.9,443.6z"/>
	<path style="fill:#162B54;" d="M539.6,442c-0.8-0.2-1,0.2-1.4,0.9c1.2-0.1,2.3,0.3,3.4,0.2c0-0.1,0-0.6,0-0.6
		C540.9,442.3,540.2,442.2,539.6,442z"/>
	<path style="fill:#162B54;" d="M549,444.5c0.7-1,0.3-2-0.9-2.2c-0.6-0.1-1.1,0-1.7-0.1c-1.1-0.2-1.9,0-2.3,1.1
		c-0.1,0.3-0.5,0.5-0.7,0.8c-0.6,0.6-1.1,1.2-1.8,1.8c0.8,0.1,1.4,0.2,1.8-0.5c0.1-0.1,0.3-0.1,0.4-0.2c1.2-0.5,2.2-0.2,3.1,0.7
		c0.4,0.4,0.9,0.6,1.6,0.4c0.5-0.2,1-0.4,1.4,0.3c0.1,0.1,0.3,0.2,0.5,0.2c1.5,0,2.9,0,4.1-1.1c0.9-0.8,1.1-1.6,0.7-2.5
		c-0.2-0.4-0.8-1-2.4-0.9l0,0c-1.5,0.1-2.3,1.6-3.2,3c-0.4,0.6-1,0.1-1.8-0.3C547.9,444.8,548.9,444.7,549,444.5z M551.4,444.4
		c0.3-0.3,0.6-0.5,1-0.7c0.4-0.2,0.8-0.3,1.2-0.3c0.3,0,0.6,0.2,0.6,0.4c0,0.2,0,0.4-0.1,0.5l-0.2,0.3c-0.4,0.7-1.4,1-2.2,0.8
		c-0.2,0-0.3-0.1-0.4-0.2c-0.1-0.1-0.2-0.3-0.2-0.4C551.2,444.6,551.3,444.5,551.4,444.4z M544.9,443.6c1.1-0.6,2.3-0.5,3.6,0
		C547.2,444.3,546,443.7,544.9,443.6z"/>
	<path style="fill:#162B54;" d="M541.2,441.3c-0.8-0.5-1.4-0.7-2.2-0.6c-0.6,0.1,0,0-1.4,0.1c-0.9,1.2-1.4,2.2-2.2,3.4
		c-0.4,0.5-1,1.2-1.3,2c2,0,3.5,0.2,5.2,0.2c1,0,1.9-0.7,1.8-1.4c0-0.7,0.1-1.2,0.6-1.7C542.3,442.6,542,441.8,541.2,441.3z
		 M539.2,445.5c-0.3,0-0.7-0.1-1-0.1c-0.5-0.1-1-0.1-1.5-0.2c-0.1,0-0.3-0.1-0.3-0.2c0,0,0-0.1,0-0.2c0-0.3,0.3-0.5,0.7-0.6
		c0.3-0.1,0.6,0,1,0c0.4,0,0.7-0.1,1.1,0c0.4,0.1,1,0.4,0.8,0.9C539.6,445.3,539.5,445.5,539.2,445.5z M537.3,443.3
		c0.3-0.7,0.5-1.2,1.3-1.1c0.7,0.1,1.3,0.1,2,0.1c0,0.1,0.1,0.6,0.1,0.6C539.6,443.2,538.5,443,537.3,443.3z"/>
	<path style="fill:#162B54;" d="M569.9,448.6c-1.2-0.2-2.5-0.5-3.7-0.7c-0.2,0-0.5,0.1-0.7,0.2c0.2,0.3,0.3,0.8,0.5,0.9
		c1.3,0.4,2.7,1,4.1,0.9c1.4,0,3.6-2.3-0.1-3.5c0.2-0.1,2.4,0.4,2.5,0.3c0.2-0.3,0.4-0.6,0.6-0.9c-0.3-0.2-0.5-0.4-0.8-0.5
		c-0.8-0.1-1.6-0.1-2.4-0.1c-0.9,0-1.1,0.8-1.5,1.4c-0.1,0.2,0.3,0.3,0.4,0.4c0.4,0.3,0,0.2,0.5,0.3c0.4,0.1,1.4,0.7,1.9,0.7
		C570.8,448.8,570.4,448.7,569.9,448.6z"/>
	<path style="fill:#162B54;" d="M558.5,447.1c0.8-0.3,1.5-0.7,2.2-1.2c0.5-0.3,0.7-0.9,0.5-1.5c-0.3-0.7-1.9-1.5-2.7-1.4
		c-0.2,0-0.3,0.1-0.5,0.1c-0.5,0.3-1.1,0.5-1.5,0.9c-1.2,0.9-1,2.2,0.6,3.1C557.3,447.1,558,447.3,558.5,447.1z M556.8,445.3
		c0.8-1.5,2.8-1.7,3.4-0.4C560.4,445.9,557.3,446.8,556.8,445.3z"/>
	<path style="fill:#162B54;" d="M563.6,444.5c0.1-0.6,0.5-1.2-0.3-1.9c-0.8,1.5-1.6,2.9-2.3,4.3c-0.2,0.3,0,0.8,0,1.2
		c0.1,0,0.2,0.1,0.3,0.1c0.4-0.4,0.8-0.7,1.2-1.1c0.2,0.2,0.4,0.4,0.7,0.5c0.4,0.2,0.8,0.3,1.3,0.3c0.2,0,0.9,0.1,0.9-0.1
		c0-0.2-0.6-0.6-0.8-0.8c-0.1-0.2-0.8-0.8-1.2-1.1c0.7-0.2,1.9-0.4,2.5-0.4c1-0.1,1.3-0.1,1.4-1.4
		C566.1,444.2,564.8,444.3,563.6,444.5z"/>
	<path style="fill:#162B54;" d="M534.7,543.6c-0.8,1-0.4,1.9,0.8,2.2c0.5,0.1,1.1,0.1,1.7,0.2c1,0.2,1.9,0,2.3-1
		c0.1-0.3,0.5-0.5,0.7-0.7c0.6-0.6,1.2-1.1,1.8-1.7c-0.8-0.1-1.4-0.2-1.8,0.4c-0.1,0.1-0.3,0.1-0.4,0.1c-1.2,0.4-2.2,0.1-3.1-0.8
		c-0.4-0.4-0.9-0.7-1.5-0.4c-0.5,0.2-1,0.4-1.4-0.3c-0.1-0.1-0.3-0.2-0.5-0.2c-1.5-0.1-2.9-0.1-4.1,1c-0.9,0.8-1.1,1.5-0.7,2.4
		c0.2,0.4,0.7,1.1,2.4,0.9l0,0c1.5-0.1,2.4-1.5,3.3-2.9c0.4-0.6,1,0,1.8,0.4C535.9,543.3,534.8,543.4,534.7,543.6z M532.3,543.6
		c-0.3,0.2-0.6,0.5-1,0.7c-0.4,0.2-0.8,0.3-1.2,0.2c-0.3,0-0.6-0.2-0.6-0.4c0-0.2,0-0.4,0.1-0.5l0.2-0.3c0.5-0.7,1.4-0.9,2.2-0.7
		c0.2,0.1,0.3,0.1,0.4,0.2c0.1,0.1,0.2,0.3,0.1,0.5C532.6,543.4,532.5,543.5,532.3,543.6z M538.9,544.6c-1.1,0.6-2.3,0.5-3.6-0.1
		C536.5,543.8,537.7,544.5,538.9,544.6z"/>
	<path style="fill:#162B54;" d="M542.5,547c0.8,0.5,1.4,0.8,2.1,0.7c0.6-0.1,0,0,1.4-0.1c1-1.1,1.5-2.2,2.3-3.3c0.4-0.5,1-1.2,1.4-2
		c-2-0.1-3.5-0.3-5.2-0.4c-1,0-1.9,0.6-1.9,1.3c0,0.7-0.1,1.2-0.6,1.7C541.5,545.7,541.7,546.5,542.5,547z M544.6,542.9
		c0.3,0,0.7,0.1,1,0.1c0.5,0.1,1,0.2,1.5,0.3c0.1,0,0.2,0.1,0.3,0.2c0,0,0,0.1,0,0.2c0,0.3-0.4,0.5-0.7,0.6c-0.3,0-0.6,0-1,0
		c-0.4,0-0.7,0.1-1.1,0c-0.4-0.1-1-0.4-0.7-0.9C544.2,543,544.3,542.9,544.6,542.9z M546.4,545.1c-0.3,0.7-0.5,1.2-1.3,1
		c-0.7-0.1-1.3-0.1-2-0.2c0-0.1-0.1-0.6-0.1-0.6C544.1,545.1,545.2,545.3,546.4,545.1z"/>
	<path style="fill:#162B54;" d="M514,538.8c1.2,0.3,2.4,0.5,3.7,0.8c0.2,0,0.5-0.1,0.7-0.2c-0.2-0.3-0.2-0.8-0.5-0.9
		c-1.3-0.4-2.7-1-4-1.1c-1.4,0-3.6,2.2,0,3.5c-0.2,0.1-2.4-0.5-2.5-0.4c-0.3,0.3-0.4,0.6-0.6,0.9c0.3,0.2,0.5,0.4,0.8,0.5
		c0.8,0.1,1.6,0.2,2.4,0.2c0.9,0,1.2-0.8,1.5-1.4c0.1-0.2-0.3-0.3-0.4-0.4c-0.4-0.3,0-0.2-0.5-0.3c-0.4-0.1-1.3-0.7-1.9-0.8
		C513.1,538.6,513.5,538.7,514,538.8z"/>
	<path style="fill:#162B54;" d="M525.4,540.6c-0.8,0.2-1.5,0.7-2.2,1.2c-0.5,0.3-0.7,0.9-0.5,1.5c0.3,0.7,1.9,1.6,2.6,1.5
		c0.2,0,0.3,0,0.5-0.1c0.5-0.3,1.1-0.5,1.5-0.8c1.2-0.9,1.1-2.2-0.5-3.1C526.5,540.8,525.9,540.5,525.4,540.6z M527,542.6
		c-0.8,1.5-2.9,1.6-3.4,0.3C523.4,541.9,526.6,541,527,542.6z"/>
	<path style="fill:#162B54;" d="M520.2,543.2c-0.1,0.6-0.5,1.2,0.2,1.9c0.8-1.4,1.7-2.8,2.4-4.2c0.2-0.3,0-0.8,0-1.2
		c-0.1,0-0.2-0.1-0.3-0.1c-0.4,0.3-0.8,0.7-1.2,1.1c-0.2-0.2-0.4-0.4-0.7-0.5c-0.4-0.2-0.8-0.3-1.2-0.4c-0.2,0-0.9-0.1-0.9,0.1
		c-0.1,0.2,0.6,0.6,0.7,0.9c0.1,0.2,0.8,0.9,1.1,1.2c-0.7,0.2-2,0.3-2.5,0.4c-1,0.1-1.3,0.1-1.5,1.3
		C517.7,543.4,518.9,543.3,520.2,543.2z"/>
	<path style="fill:#162B54;" d="M537.1,505c2.2,0.5,4.4,0.9,6.6,1.4c-1.8,1-4.3,1-6.1-0.2"/>
	<path style="fill:#162B54;" d="M288.1,463.5c-1.9-0.2-3.7-0.3-5.6-0.5c1.4-1.1,3.4-1.3,5-0.5"/>
	<g>
		<path style="fill:#162B54;" d="M467.8,485.9c-7.2-0.2-14.4-0.5-21.5-0.6c-2.9,0-5.9,0.3-8.8,0.4c-2.6,0.1-5.1,0-7.7,0
			c-4.2,0-8.3-0.1-12.5-0.2c-5.9-0.2-11.7-0.5-17.6-0.6c-13.3-0.4-26.6-0.7-40-1c-4.6-0.1-9.3-0.1-13.9-0.1l-0.6,3.3
			c5.6,0.1,11.2,0.2,16.8,0.4c10.5,0.2,21.1,0.6,31.6,0.9c4,0.1,8.1,0.1,12.1,0.1c0.1,0.3,0.1,0.7,0.2,1c-4.4,1.1-8.8,2.4-13.3,3.1
			c-8.2,1.2-16.4,2.7-24.6,0c-1.4-0.4-2.8-0.9-3.9-1.6c-3.8-2.5-7.6-1.1-11.3-0.1c-2.9,0.8-5.7,1.5-8.6,2l-1.1,5.4l0.2,0l6.1-1
			c-0.2,0-0.3,0-0.5,0c0.4-0.2,0.9-0.4,1.3-0.6c0.2-0.1,0.4-0.2,0.6-0.2c0.2-0.1,0.5-0.2,0.7-0.3c0.3-0.1,0.5-0.2,0.7-0.3
			c0.2-0.1,0.3-0.1,0.5-0.2c0.3-0.1,0.6-0.2,0.9-0.3c0.1,0,0.2-0.1,0.3-0.1c0.3-0.1,0.6-0.2,0.9-0.2l0.2-0.1c0.3-0.1,0.6-0.1,1-0.2
			l0.2,0c0.3,0,0.7-0.1,1-0.1l0.1,0c0.3,0,0.7,0,1,0l0,0c0.3,0,0.7,0,1,0l0,0c2.3,0.2,4.5,1,6.3,2.4l-0.1,0l0.3,0.1l0.1,0l-0.1-0.1
			c0.3,0.2,1.8,1,7.5,1.6c6.6,0.7,14.7-0.3,14.7-0.3l5.7-1.6c-0.3-0.2,2.5-0.4,2.2-0.6c0.6-0.2,1.3-0.6,2-0.7c3.2-0.5,6.3-1,9.5-1.2
			c1.4-0.1,2.8,0.9,4.3,1.3c-0.1,0.3,1.7,0.6,1.7,0.9l1.2,0l-1.2,0l4.8,0.8l20.9,0.4l6.4-1.7l0.2,0c-0.1,0-0.1,0-0.1,0l0,0l0,0
			l0.3-0.1c4-0.7,8-2.7,12-0.2l6.1,1.2l9.8,0.3c0.5-1.3,0.9-2.5,1.3-3.8c-4.1,0.4-8.3,0.3-12.4-1.1c-2.8-0.9-5.5-2-8.6-3.1
			c7-0.3,14.8-0.9,22.4-1.5c0.3-1.3,0.7-2.4,1-3.4c-0.8,0.1-1.5,0.2-2,0.3C472.8,485.5,470.3,486,467.8,485.9z M407.6,489.5
			c0-0.2,0.1-0.5,0.1-0.7c14.8,0.1,29.5,0.2,44.6,0.4C443.9,495.7,419.3,495.8,407.6,489.5z"/>
		<path style="fill:#162B54;" d="M450.8,449.9l-2.5-0.1c-7.3,0.8-13.6,1.5-16,1.8c-14.9,1.9-29.7,1.5-44.6-0.1
			c-3.4-0.4-21.4-2.5-34.5-4.3l-30.5-0.7c0,0,0,0,0,0c7.1,1.3,18,3.4,22.1,4c5.3,0.8,27.4,3.9,33.1,4.4c8.2,0.6,16.4,1.4,24.6,1.7
			c6.5,0.2,13.1-0.1,19.6-0.5c4.4-0.3,15.3-0.7,33.2-2.5c5.3-0.5,10.4-1.7,15.7-2.6l0.5,0c7.2-0.8,21.1-2.3,28.3-2.9
			c0.9-0.1,1.9-0.2,2.9-0.2c1.4-1.6,2.7-3.1,4.5-4c0.3-0.1,0.6-0.3,0.9-0.4c-11.8,1-25.6,2.3-29.5,2.9
			C474.3,446.9,461,448.7,450.8,449.9z"/>
		<path style="fill:#162B54;" d="M614.1,463.5c0-4.9-0.5-18.8-2.2-21.3c-3.4-4.9-8.4-8.6-12.6-13c-6.7-7.1-14.4-10.2-23.1-13.9
			c-10.4-4.4-19.3-9.1-29.7-13.5c-5.9-2.5-11.3-5.9-17.2-8.2c-7.3-2.9-14.9-5-22.3-7.6c-2.8-1-6.1-3.3-8-5.2
			c-2.7-2.8-5.6-4.4-9.2-5.3c-2.5-0.6-4.9-0.7-7.4-1.6c-0.7-0.3-1.7-0.4-2.2-0.9c-2-1.9-6.2-0.6-7.2-4.5c-0.2-0.6-0.6-1.2-1-1.7
			c-3.3-3.4-7-5.8-12-5.6c-0.2,0-0.5-0.4-0.7-0.6c-2.8-2.3-5.4-5.6-8.6-6.7c-3.7-1.3-6.3-3.3-9-5.9c-1.6-1.5-3.4-2.8-5.3-4
			c-1-0.6-2.5-0.5-3.6-1.1c-5.3-3-10.5-7-15.7-10c-0.3-0.2-0.6-0.2-0.9-0.3c-3.1-1-6.3-1.7-9.2-3.1c-2.7-1.3-5.2-0.5-7.7-2.3
			c-1.7-1.2-3.5-2.4-4.6-4.1c-3.1-4.3-7.4-10.5-12.6-16.2c-3.9-3.2-7.8-7.2-11.5-7c-5.4,0.4-10.2,3.9-13.6,8.4
			c-3.8,6.3-4,16.5-7.8,20.3c-6.1,6.1-12.5,12.1-19.5,17c-4.3,3-9.8,4.5-15,5.8c-8,2-15.9,4.9-23.1,0.9
			c-9.2-5.1-13.7-21.2-19.5-29.6c-6.4-9.3-12.6-18.7-23.2-23.7c-2.2-1-5.8-1.5-7.6-0.3c-6.6,4.2-9.9,10.2-11.5,17.5
			c-0.7,3.2-0.1,6.8-1.5,9.5c-6.9,13.9-13.4,32.4-16.3,47.7c-2.9,15.6-5.5,32.1-5.3,48.1c0.1,5.6,0.1,11.3,0.1,17.1
			c-0.7,1.2-1.8,2.8-2.5,4.5c-1.5,3-2.7,6.8-2.9,7.7c-1.2,4.9,0.1,10.7,1.6,15.4c0.1,0.3,0.2,0.6,0.4,0.7c0.2,0.2,2.2,5.6,3.6,9.1
			c0,0.5,0.1,1,0.1,1.4c1.1,4.4,5,7.2,8.8,10c0.9-3.6,1.7-5.8,2.6-7.5c-0.4-1-0.7-2.2-0.7-3.5c-0.1-3.3-0.4-3.8-0.8-6.1l0,0l-5-1.7
			c0.3-0.3,0.6-0.5,1-0.3c-0.6-0.2-3-12.4-3.6-13.9c-0.5-1.2-1-8.4-1.3-12.3c0.1-0.2,0.3-0.4,0.5-0.5l0.3-0.1
			c3.5-1.4,3.1-4.3,2.9-7.3c-0.2-3-0.1-6-0.1-9c-0.1-4.4-0.4-8.8-0.1-13.1c0.5-7,1.2-14.1,2.3-21.1c1.5-9.3,3.1-18.7,5.5-27.8
			c2.5-9.4,7.9-18.6,11-27.9c1.2-3.8,3.3-11.5,3.3-15.2c-0.1-5.2,1.9-9.5,3.7-14c2.8-7,8-7,13.3-3.6c6.3,4.1,9.6,10.6,13.8,16.5
			c7,9.8,11.8,28,21.7,35.3c1.1,0.8,2.3,1.4,3.5,2c10.8,6.1,22.2,0.6,33.4-2c7.2-1.6,14.4-3.8,21-7c7.6-3.7,14.6-8.8,21.8-13.3
			c8.4-5.4,17.3-6.6,26.7-3.1c3.6,1.3,7.7,2.3,10.6,4.6c2.8,2.2,5,5.7,6.6,9.1c2.5,5.2,4.1,10.9,6.5,16.1c0.6,1.4,2.7,2.2,4.1,3.2
			c2.3-0.4,2.6-3.3,2.5-4.8c-0.3-3.8-1.4-7.6-2.2-11.4c-0.3,0-0.6-0.1-1-0.1c-0.1,0.7-0.5,1.4-0.4,2c0.3,3.4,0.8,6.8,1.1,10.2
			c0,0.4-0.4,0.8-0.5,1.2c-0.3-0.3-0.8-0.5-0.9-0.8c-2.2-5.6-4.4-11.2-6.6-16.8c-0.8-2-1.9-4-2.9-5.9c0.2-0.3,0.5-0.7,0.7-1
			c1.5,0.8,3.3,0.9,5.1,2.8c1.8,1.9,3.2,3,6.2,3c4.9,0,8,3.6,9.9,8c2.4,5.6,4.9,11.3,7.4,16.9c1.2,2.8,3.5,5.3,6.5,4.3
			c3.2-1.1,1.6-4.8,1.1-7c-0.5-2-1.3-4-2-6c-0.4,0.1-0.7,0.2-1.1,0.3c0.5,3.2,0.9,6.5,1.4,9.7c-3,3-7.4-13.6-10.9-20.7
			c1.6,1.3,3.2,2.5,4.7,3.8c2.1,1.9,4,4,6.2,5.7c0.9,0.7,2.6,0.3,3.8,0.7c6.1,1.6,8,6.6,9.7,11.9c1.2,3.8,2.6,8.4,4.4,12
			c0.8,1.5,2.6,3.5,3.9,3.5c2.9-0.1,3.3-3.6,2.9-6c-0.5-2.8-1.2-5.6-1.9-8.4c-0.4,0-0.8,0.1-1.2,0.1c0.1,1.8,0.2,3.6,0.3,5.4
			c0.1,0.9,0.3,1.9,0.2,2.8c-0.1,0.9-0.4,2.6-0.6,3.5c-0.6-0.6-1.4-1.2-1.8-1.9c-2-4.7-4-10.4-5.9-15.2c0.3-0.4,0.6-0.7,1-1.1
			c3.3,2.1,6.6,4,9.7,6.3c2.1,1.6,3.1,3.7,6.5,4.3c6.1,1.1,9.5,1.9,11.8,10.8c1.3,4.8,3.5,9.4,5.8,13.8c0.9,1.7,3,1.8,4.4-0.3
			c1.7-2.6,1.1-9.8-1.3-11.8c-0.1,0.9-0.2,1.5-0.2,2.1c0,2.4,0.1,4.9,0.1,7.3c0,0.4-0.5,1.1-0.7,1.1c-0.4,0-1.1-0.4-1.3-0.7
			c-1.2-2.5-4.1-11.2-4.6-12.9c-0.5-1.7-1.3-3.3-2.3-5.8c3,1.4,5.5,2.3,7.6,3.8c3.7,2.7,7.3,4.9,11.9,6.3
			c9.4,2.8,18.3,7.3,27.4,11.2c9.2,4,18.5,7.9,27.6,12.1c9.4,4.3,16.1,8.7,25.2,13.6c4,2.2,7.3,5.8,11,8.7c-0.2,0.3-0.3,0.6-0.5,1
			c-4.1,0.3-8.2,0.7-12.3,1c-7.5,0.6-12.8,1.1-20,1.7c0.7,0.2,1.6,0.5,2.8,0.7c1.3,0.2,3.3,1.2,5.4,2.5c9.5-0.8,16.4-0.3,26.2-1.6
			c2.5-0.3,10.1,11.9,11.5,20.2l-3.9,7.6l-3.9,2.4c-0.7,0.4-1.3,0.8-2,1.2c0.7,1.9,1.2,3.8,1.7,5.8c0.4-0.2,0.8-0.4,1.3-0.6
			c4.1-2.1,9.1-5.5,9.5-11.8l0,0c0-0.1,0-0.2,0-0.3C614.1,463.9,614.1,463.7,614.1,463.5L614.1,463.5z M343.2,343.1
			c-2,1.5-4.7,2.1-6.8,3c4.7-3.9,9.5-8,14.3-11.9C352.4,340.4,346.5,340.7,343.2,343.1z M370.9,326.5c-5.7,3.2-11.3,6.7-16.9,10.1
			c-0.3-0.1-0.7-0.2-1-0.3c1.8-4.6,3.8-16,6.3-20.1c1.8-4.3,2.7-6.8,6-9.1c1.5-1,4.3-1.2,6.1-0.7c8.1,2.6,12.9,11.8,19,18.3
			C383.5,323.5,376.9,323.2,370.9,326.5z"/>
	</g>
	<path style="fill:#162B54;" d="M280,349.1c24,5.9,46.1-0.3,68.1-9.9c-0.9,0.8-1.7,1.8-2.8,2.3c-4.3,2-8.6,4.5-13.2,5.8
		c-9.1,2.6-18.3,5.2-27.6,6.4c-6.4,0.9-13.2-0.4-19.7-1.1c-1.8-0.2-3.5-1.8-5.2-2.7C279.7,349.7,279.8,349.4,280,349.1z"/>
	<path style="fill:#162B54;" d="M463.3,398.2c-0.4,1.5-0.4,2.5-0.9,3c-5.2,4.8-10.5,9.6-15.7,14.3c-6.1,5.4-12.1,10.9-18.4,16.2
		c-4.2,3.6-8.7,6.9-13.2,10.2C430.9,427.6,446.7,413.3,463.3,398.2z"/>
	<path style="fill:#162B54;" d="M396.8,444c4.3-3.9,8.6-8,13-11.8c9.3-7.9,18.6-15.7,27.9-23.6c0.7-0.6,1.3-1.4,2-1.9
		c0.5-0.4,1.1-0.5,1.6-0.8c-0.1,0.8,0.1,1.8-0.3,2.2c-2,1.9-4.2,3.6-6.3,5.4c-10.3,8.5-20.6,16.9-30.9,25.4c-2,1.7-4,3.5-6,5.2
		c-0.2,0.2-0.6,0.3-0.8,0.4C397,444.3,396.9,444.1,396.8,444z"/>
	<path style="fill:#162B54;" d="M239.2,378.3c-4.2,3.1-8.5,6.3-12.7,9.4c-0.7,0.5-1.3,1.1-2.1,1.4c-0.3,0.2-0.9-0.2-1.4-0.3
		c0.2-0.3,0.4-0.7,0.7-0.9c4.6-3.1,9.3-6.1,14-9.2c0.4-0.3,0.9-0.5,1.4-0.7C239.1,378.2,239.2,378.3,239.2,378.3z"/>
	<path style="fill:#162B54;" d="M262.9,336.6c-2.8-1.7-5.8-3.2-8.5-5c-5.1-3.4-10-7-15-10.6c-0.6-0.5-1.2-1.1-1.6-1.7
		c-0.2-0.3,0-0.9,0.1-1.3c0-0.1,0.6-0.1,0.8,0c7.9,5.9,15.9,11.8,23.8,17.7c0.2,0.2,0.4,0.4,0.7,0.6
		C263.1,336.2,263,336.4,262.9,336.6z"/>
	<path style="fill:#162B54;" d="M522.2,400.7c-4.7,3.1-11.9,7.5-16.6,10.7c-0.3-0.4-0.5-0.8-0.8-1.1c4.7-3.2,9.4-6.4,14.1-9.6
		C519.2,401.1,521.9,400.3,522.2,400.7z"/>
</g>
</svg>
