<svg viewBox="0 0 750 750" xmlns="http://www.w3.org/2000/svg">
<g id="Fills1">
	<path style="fill-rule:evenodd;clip-rule:evenodd;fill:#D8E7FF;" d="M270.7,585.7c9.7-2,34.3-5.3,47-4.3c12.7,1,59,6.7,72,6.3
		c13-0.3,70.7-5,79.3-4.7c8.7,0.3,28.3,0.7,30.3,6.7s2.3,11-7,16c-9.3,5-29.7,7.7-43.7,11.3c-14,3.7-35,7.3-53,9
		c-18,1.7-33,0.3-55-4c-22-4.3-40.7-8.7-53.7-8.7s-22.3-2-30.7-4c-8.3-2-15-3.3-10.3-10s3.7-12.7,13-12
		C268.3,588,270.7,585.7,270.7,585.7z"/>
	<path style="fill-rule:evenodd;clip-rule:evenodd;fill:#D8E7FF;" d="M163.7,396.5c19.4-11.5,32.1-28.1,59.9-18.8
		c27.9,9.4,55.3,18.8,73.4,18.8s35.5,6.5,55.3,6.5c19.8,0,35,6.5,57,0c21.9-6.5,95-6.5,95-6.5s32.1-11.5,41.4-11.5
		c9.3,0,24.1,0.5,24.1,18s-6.4,50-32.8,50c-26.4,0-38.3-2.6-49.9,7.1c-11.5,9.7-47.3,16.3-56.2,13c-8.9-3.3-12.6,10.9-38.3,10.9
		c-25.7,0-58.8-10.9-69.5-10.9c-10.7,0-21.3,6.6-43,0S237.3,453,237.3,453s-18.5,1.1-42-5.4s-42.3-19.9-42.3-32.3
		C152.9,403,144.2,408,163.7,396.5z"/>
	<path style="fill:#0363F7;" d="M586,451.9c-5.1,7.4-13,14.2-23.4,19.7c-8.9,4.8-17.9,8-25.1,6.1c5.7-2.2,11.4-4.4,17.1-6.5
		c9.3-3.4,16.8-8.6,23.8-14.3c2.2-1.8,4.7-3.5,7-5.2C585.6,451.8,585.8,451.9,586,451.9z"/>
	<path style="fill:#0363F7;" d="M592.9,460.3c-3.3,3.6-6.4,7.3-11.8,10.4c-5.1,3-10,6.3-15.3,9.1c-3.8,2-7.9,2.9-11.2,2.4
		c-1.3-0.2-1.4-0.7,0.3-1.7c1.4-0.8,2.8-1.8,4.2-2.3c8.9-3.3,16.9-7.8,24.6-13.1c2.7-1.8,5.8-3.4,8.8-5
		C592.7,460,592.8,460.2,592.9,460.3z"/>
	<path style="fill:#0363F7;" d="M202,471.1c-9.3,0.6-20-1.4-31.4-6.2c-9.7-4.1-18.2-9.3-21.5-16.3c5.5,3.2,11.1,6.3,16.5,9.6
		c8.9,5.3,18,8,27.3,10c2.9,0.6,5.9,1.5,8.8,2.3C201.8,470.7,201.9,470.9,202,471.1z"/>
	<path style="fill:#0363F7;" d="M199.9,482c-5.1-0.4-10.1-0.5-16.2-2.8c-5.8-2.2-11.7-4-17.4-6.5c-4.1-1.8-7.6-4.5-9.3-7.4
		c-0.7-1.2-0.4-1.6,1.6-0.8c1.6,0.6,3.3,1.1,4.6,1.9c8.5,5.1,17.5,8.6,26.9,11.4c3.2,1,6.6,2.5,9.9,3.8
		C199.9,481.6,199.9,481.8,199.9,482z"/>
	<path style="fill:#0363F7;" d="M153.2,442.1c12,8.3,24.3,16,39.2,20.2c-4.1,0.1-8.6-0.9-13.1-2.6c-8.1-3-15.6-6.9-22.2-11.8
		C154.6,446.1,152.4,444.3,153.2,442.1z"/>
	<path style="fill:#0363F7;" d="M350.9,331.9c-9.5-8.5-20.1-13.8-31.2-18.4c-0.7-0.3-1.2-1.2-1.8-1.9c0.9-0.2,2-0.7,2.8-0.5
		c9.5,2.9,19,5.6,28.3,8.9c6.9,2.5,13.6,5.7,20.3,8.7c5.8,2.6,11.6,5.1,17.1,8.1c2.6,1.4,4.7,4,6.8,6.2c0.1,0.1-1.1,2.2-1.7,2.3
		c-13.6,1.3-27.3,1.9-40.8,3.7c-8.1,1.1-16.1,3.8-24,6.4c-6.1,2-12,4.9-18,7.2c-3.5,1.3-7.2,2.4-10.9,3c-3.8,0.6-7-1-9.8-3.7
		c-4.4-4.2-9.1-8.1-13.5-12.3c-1.4-1.4-2.4-3.2-3.5-4.8C296.4,334.1,323.1,331,350.9,331.9z"/>
	<path style="fill:#0363F7;" d="M573.3,452.6c-3.2,2.2-3.2,4.3-7.5,6.4c-4.3,2.1-8.2,5.2-11.6,6.8s-6.7,3-9.7,3.2s-5.1,1.2-6.3,1.2
		c-1.2,0.1-3.3-0.2-3.2-0.8c0.2-0.6-1-0.8-0.8-0.8s21.2-6.9,24.9-8.8c3.8-1.8,11.9-7.3,13.3-8C574,451.3,573.3,452.6,573.3,452.6z"
		/>
</g>
<g id="Fills2">
	<path style="fill-rule:evenodd;clip-rule:evenodd;fill:#D8E7FF;" d="M367.3,586.7c-34.6-0.6-64.1-10.2-74.4-4.9
		c-10.3,5.4-41.6,2.5-45.7,12c-4.1,9.5,7.6,17.7,26.9,18c19.4,0.3,63.5,9.7,100,15.6c36.4,5.9,92.7-12.6,104.5-17.5
		c11.8-4.9,38.6-18.6,0.4-25C440.8,578.5,401.9,587.3,367.3,586.7z"/>
	<path style="fill-rule:evenodd;clip-rule:evenodd;fill:#D8E7FF;" d="M207,376.4c7.7-0.7,24,2.3,40,7.7c16,5.3,41.3,12.7,55.3,13.7
		s23.3,1,43.3,4.7s44,5.7,57.3,2.3c13.3-3.3,40.7-9,62-8.3s47.7,0,54.3-3.3c6.7-3.3,27-12,35-10s16.3,7.7,16.7,15
		c0.3,7.3-1,28.3-5.3,36c-4.3,7.7-9.7,18.7-22.7,19.3s-24.7-0.7-39,0.3c-14.3,1-10.3,6-22,10s-36.7,13-47,11.7s-19,0-28.7,5.3
		c-9.7,5.3-22.7,8-44.3,1s-28-8.3-41-7.7c-13,0.7-32,4-40.3,0.7c-8.3-3.3-29.7-19.5-43.4-21.7c-13.6-2.3-37.6-1.9-48-6.9
		c-10.3-5-32.7-13-34-21c-1.3-8-5.3-14.7-4.7-17.7c0.7-3,1.7,0.3,6.3-5.3c4.7-5.7,28-20,35-22.7S207,376.4,207,376.4z"/>
	<path style="fill:#0363F7;" d="M156.2,464.4c0.8-0.7,3.3,0.2,3.8,0.3c0.4,0.2,8.5,4.9,14.5,6.8s17.1,5.9,20.7,7.4
		c3.6,1.5,7.8,2.8,5.8,3.2c-1.9,0.4-8.4-1.2-11-1.6c-2.6-0.4-7.2-1.5-11.7-3s-13.9-4.8-15.6-6.2c-1.7-1.4-5.2-5.1-6-5.7
		S156.2,464.4,156.2,464.4z"/>
	<path style="fill:#0363F7;" d="M148.8,448.8c1.4,0.9,3.1,2.1,8.4,4.8c5.3,2.8,16.8,10.3,20.1,10.7c3.2,0.3,15.1,3.5,19.4,4.4
		c4.3,0.9,6.4,2.5,5.3,2.4c-1.1-0.1-1.3,0.5-5.3,0.1c-4-0.4-12.1-1.7-14.3-2.4s-12.2-4.2-15.6-5.9s-10-5.1-11.5-6.3
		s-4.8-4.4-5.6-5.2C148.9,450.4,148.8,448.8,148.8,448.8z"/>
	<path style="fill:#0363F7;" d="M152.8,441.9c2.2,1.5,6,4.2,9.7,6.1c3.7,1.8,12.7,7.5,15.2,8.7s6.2,2.8,10.2,3.9
		c3.9,1.1,5.9,1.8,4.4,2.1s-5.2,0.2-7.8-1s-14-5.4-16.6-7.4c-2.6-2-9.4-5.8-9.8-5.8c-0.4-0.1-5.5-3.3-5.6-4S152.8,441.9,152.8,441.9
		z"/>
	<path style="fill:#0363F7;" d="M296,367.1c4.8-1.8,13.2-5.2,15-5.8s27.2-8,29.5-8.8s33.8-5,39.2-5.5s13,0.2,13.8-1.5s1-5.5-3.2-7
		s-24-10.8-31.5-14.8S328,311.4,325,311.6s-8-2.1-7.1,0.1c0.9,2.2,7.9,2.9,14.1,6.7s19.6,12.4,18.9,13.6c-0.7,1.2-8.2,0.5-12.2,0.4
		c-24.8-0.7-55,7-58.5,8.2s-11,3-9,6S296,367.1,296,367.1z"/>
	<path style="fill:#0363F7;" d="M570.2,456c-3,1.9-4.1,3.2-8.3,5.5c-4.2,2.3-6.5,4.2-9.7,5.1s-5.2,2.1-7.7,2.8
		c-2.4,0.7-2.2,0.4-4.6,0.7s-2.4,1.2-4.2,0.1s-1.6-0.8-1.6-0.8s3.5-2.7,8.3-3.1c4.8-0.4,26-10.7,26.6-11.4c0.6-0.8,1.9-2.4,3.4-2.9
		s0.6,0.2,0.6,0.2L570.2,456z"/>
	<path style="fill:#0363F7;" d="M584.5,451.4c0.5,0,1.5,0,1.5,0.5c0,0.5,0.8-0.3-1,1.7c-1.8,2.1-14.7,13.8-15.8,14.8
		c-1.1,1-17.6,8.7-18.3,8.8c-0.8,0.2-6.5,1.2-7.2,1.2c-0.8,0.1-5.2,0.5-5.7-0.3c-0.4-0.8,4-2,4.8-2.2s19.5-8.4,22.5-9.4
		s14.3-10.9,16.1-12.1C583,453.3,584.5,451.4,584.5,451.4z"/>
	<path style="fill:#0363F7;" d="M592.2,459.6c-1.6,0.8-9.9,7-13.6,8.7c-3.7,1.7-11,7.5-13.9,7.9c-2.9,0.4-7.4,2.8-8.9,3.8
		c-1.5,0.9-1.8,3-0.3,2.6c1.4-0.4,4.5-0.3,7.4-1.7c2.9-1.3,12.1-6.7,14.5-7.7c2.4-1,7.9-5.1,9.7-6.6s4.2-4.3,4.9-5
		C592.6,460.9,592.2,459.6,592.2,459.6z"/>
</g>
<g id="Fills3">
	<path style="fill-rule:evenodd;clip-rule:evenodd;fill:#D8E7FF;" d="M282,582.4c11-0.7,21.7-1.3,29.3-1.3c7.7,0,40.7,4,59,4
		c18.3,0,69.3-3.7,77.3-3.7s46.7,4.7,48.7,7.7s5.3,6.3-0.3,11c-5.7,4.7-34.3,17.7-59,21.7s-54,7.6-63,5.8s-52-5.5-65-9.5
		s-31.7-8-42-7.7s-20.7,0.7-21.3-7c-0.7-7.7-1.7-10.7,7.3-15.3C262,583.4,282,582.4,282,582.4z"/>
	<path style="fill-rule:evenodd;clip-rule:evenodd;fill:#D8E7FF;" d="M170.7,389c7.7-3.3,10.3-11.3,27.7-13
		c17.3-1.7,25.7,0.3,40,5.3c14.3,5,38,13.3,55.3,15c17.3,1.7,62.7,5,86,6.7c23.3,1.7,28.7-4.3,53.7-6c25-1.7,59.7-0.3,66.7-1.7
		s24-4.3,34.7-8.7c10.7-4.3,6-4.7,19-2c13,2.7,17.7,5.7,17.3,13.3c-0.3,7.7,0.3,31.7-8.3,40c-8.7,8.3-11,14.7-16.3,14.7
		c-5.3,0-16.3-1-27-1c-10.7,0-16-0.3-30.7,7.3c-14.7,7.7-8.7,7.3-24.3,10.3c-15.7,3-25.2,3.8-33.6,3.7c-8.4,0-5.8,3.6-16.4,6
		c-10.7,2.3-27,10-36.7,6.3c-9.7-3.7-36.3-12.3-41.7-12s-18,1.3-32.7,1.3c-14.7,0-26.3-2-35.7-6.7c-9.3-4.7-3.7-1.3-15.3-8
		c-11.7-6.7-17.7-9-29-9c-11.3,0-30-1.7-40.7-6c-10.7-4.3-21.7-13.7-24.3-17.3c-2.7-3.7-4.3-5-5.7-14.3c-1.3-9.3,0.3-5.3,5.7-11.3
		C163.7,396,170.7,389,170.7,389z"/>
	<path style="fill:#0363F7;" d="M156.5,464.1c0.5-0.4,1.5,0.2,2.4,0.6c0.9,0.3,8.5,3.9,9.6,4.4s12.5,5.2,14.8,5.9
		c2.2,0.7,10.2,3.5,13.2,4.6s4.8,2,4.2,2.5c-0.6,0.5-8.3-1.1-10.6-1.1s-8.6-2.2-11.8-3.3c-3.2-1.2-13.2-4.5-14.9-5.9
		c-1.7-1.4-5.1-4.1-6-5.6C156.5,464.7,156.5,464.1,156.5,464.1z"/>
	<path style="fill:#0363F7;" d="M150.1,451.4c0.6,1.4,1.6,2.5,4.9,4.7c3.3,2.2,6.2,4.7,10.4,6.8c4.2,2.1,16.7,6,18.6,6.7
		c1.9,0.7,9.5,1.7,12.8,2.2s4.2-0.1,5-1.1c0.8-1-5.1-1.6-6.6-1.8s-16.5-3.9-20.3-5.2c-3.8-1.2-14.8-8.9-18.7-10.6
		c-3.8-1.7-5.7-3.5-7.1-4.6L150.1,451.4z"/>
	<path style="fill:#0363F7;" d="M153.2,442.1c2.1,2.2,4.5,2.4,9.8,5.6c5.2,3.2,14.2,9.9,18.7,11.2c4.4,1.2,10.6,3.3,10.8,3.5
		c0.1,0.2-1.2,0.1-2.4,0.1c-1.2,0-10.7-2.2-14.4-3.9c-3.8-1.7-10.6-6.2-14.3-8.4s-6.8-3.7-7.8-5.2S153.2,442.1,153.2,442.1z"/>
	<path style="fill:#0363F7;" d="M295.7,367.9c7.3-2.7,11.7-3.4,14.7-5.7s13.7-5.3,21.2-8.1s27.5-7.2,40-7.8s21-1.5,21-1.5
		s3.2-1,0.8-2.8s-5.5-4-9-5.5s-9.8-6-17-8.8s-28.5-11-36-13.2s-9.2-3.6-10.6-3.4c-1.4,0.2-1.9,1.8-0.9,2.4c1,0.6,10,4.3,18,9.1
		s14,10,14,10c-3-0.5-27-2.2-41,0.2s-31.8,7.2-35.5,9.5c0,0-4,0.5-4.2,1.2s-0.5,2.8,2,4.2s13.8,14.2,14.8,15.5
		S295.7,367.9,295.7,367.9z"/>
	<path style="fill:#0363F7;" d="M534.8,468.8c13.4-3.9,26.5-8.3,38.6-16.9c-2.4,3.1-5.8,5.9-9.8,8.2c-7.1,4.2-14.5,7.5-22.1,9.4
		C538.6,470.3,535.9,470.8,534.8,468.8z"/>
	<path style="fill:#0363F7;" d="M586,452.7c-1.8,2-11.3,11.2-13.1,12.8c-1.8,1.7-7.2,5.7-10.9,7c-3.7,1.3-5.8,4-10,4.5
		s-9.6,1.7-12.5,1.4s-3.3-0.3-1.9-1.2c1.4-0.8,26.5-9.2,28.5-11.1c2-1.8,16.8-12.5,17.4-13s1.6-2,1.8-1.9c0.2,0.1,0.5,0.2,0.5,0.2
		L586,452.7z"/>
	<path style="fill:#0363F7;" d="M592.2,461.5c-3.8,3.8-5.2,4.8-5.9,5.5c-0.7,0.8-6.9,6.2-10.4,7.2s-13.9,7.6-16.5,8
		c-2.6,0.4-2.5,0.7-4.3,0c-1.8-0.7-0.6-1.2,0.7-2.3c1.2-1.2,10.8-5.2,13.8-6.2c3.1-1,7.9-5.9,11-7.3c3.1-1.4,7-4.2,8.4-5
		s3.8-2.1,3.8-1.5C592.9,460.5,592.2,461.5,592.2,461.5z"/>
</g>
<g id="Lines">
	<path style="fill:#002955;" d="M374,418.6c7.7-0.2,15.4-0.2,23.1-0.4c10.4-0.3,20.8-0.7,31.2-1.2c6.8-0.4,13.5-1.2,20.3-1.5
		c11.1-0.4,22.2-0.1,33.2-0.9c17.1-1.2,34.1-3.1,51.1-4.7c3-0.3,6-0.6,9.1-0.4c-3.6,0.7-7.1,1.5-10.7,2c-3.6,0.6-7.1,1.2-10.7,1.5
		c-11,0.9-22,1.7-33,2.5c-9.4,0.7-18.8,1.3-28.2,1.8c-9.7,0.5-19.3,0.9-29,1.3"/>
	<path style="fill:#002955;" d="M277.8,413.7c-0.7,0.3-1,0.5-1.4,0.5c-13-0.4-26-0.8-38.9-1.3c-10.3-0.4-20.5-1.1-30.7-1.7
		c-6.8-0.4-13.5-1-20.3-1.4c-2.7-0.2-5.5-0.1-8.2-0.2c-0.5,0-1-0.7-1.5-1c0.4-0.3,0.9-0.8,1.3-0.8c5.7,0.2,11.4,0.6,17.1,0.7
		c7,0.2,14.1,0,21.2,0.3c4.6,0.2,9.1,1,13.6,1.4c4.5,0.4,8.9,0.9,13.4,1.2c11.1,0.7,22.2,1.3,33.3,2
		C277,413.4,277.2,413.5,277.8,413.7z"/>
	<path style="fill:#002955;" d="M264.9,408c-0.4,0.2-0.6,0.5-0.8,0.5c-7.3-0.4-14.7-0.7-22-1.1c-5.8-0.4-11.6-0.9-17.4-1.4
		c-3.8-0.3-7.6-0.8-11.5-1.2c-1.5-0.1-3.1-0.1-4.6-0.2c-0.3,0-0.6-0.6-0.8-0.9c0.2-0.2,0.5-0.7,0.7-0.7c3.2,0.2,6.4,0.5,9.7,0.6
		c4,0.2,8,0,12,0.3c2.6,0.2,5.1,0.8,7.7,1.2c2.5,0.4,5.1,0.8,7.6,1c6.3,0.6,12.6,1.1,18.8,1.7C264.5,407.7,264.6,407.8,264.9,408z"
		/>
	<path style="fill:#002955;" d="M233.4,310.2c24.5,6.3,47.3,0.2,69.9-9.4c-0.9,0.8-1.8,1.8-2.9,2.3c-4.5,2.1-8.9,4.5-13.6,5.8
		c-9.4,2.5-18.8,5.1-28.4,6.3c-6.6,0.8-13.5-0.5-20.2-1.3c-1.9-0.2-3.6-1.8-5.4-2.8C233,310.8,233.2,310.5,233.4,310.2z"/>
	<path style="fill:#002955;" d="M421.1,345.9c-0.5,1.4-0.4,2.3-0.9,2.7c-5.4,4.3-10.8,8.6-16.3,12.8c-6.3,4.9-12.6,9.8-19,14.6
		c-4.4,3.2-9,6.2-13.7,9.1C387.5,372.3,403.8,359.5,421.1,345.9z"/>
	<path style="fill:#002955;" d="M352.4,386.8c4.5-3.5,8.8-7.2,13.4-10.6c9.6-7.1,19.3-14.1,28.9-21.1c0.7-0.5,1.3-1.2,2.1-1.7
		c0.5-0.3,1.1-0.5,1.7-0.7c-0.1,0.7,0.1,1.7-0.3,2c-2.1,1.7-4.3,3.2-6.5,4.8c-10.6,7.6-21.3,15.2-31.9,22.8
		c-2.1,1.5-4.1,3.1-6.2,4.7c-0.2,0.2-0.6,0.2-0.9,0.4C352.6,387.1,352.5,386.9,352.4,386.8z"/>
	<path style="fill:#002955;" d="M241.1,338.2c-12.8,9.3-25.7,18.6-38.5,27.8c-2.1,1.5-4.1,3.3-6.4,4.3c-1,0.5-2.8-0.5-4.2-0.9
		c0.7-1,1.2-2.2,2.2-2.8c14.1-9.1,28.2-18.2,42.3-27.2c1.3-0.8,2.8-1.4,4.2-2C240.8,337.6,241,337.9,241.1,338.2z"/>
	<path style="fill:#002955;" d="M216,297.2c-2.9-1.7-5.9-3.3-8.6-5.3c-5.2-3.6-10.2-7.3-15.3-11c-0.6-0.5-1.2-1.1-1.6-1.8
		c-0.2-0.3,0-0.9,0.2-1.4c0-0.1,0.6-0.1,0.8,0c8.1,6.1,16.2,12.3,24.2,18.4c0.2,0.2,0.5,0.4,0.7,0.6
		C216.2,296.9,216.1,297,216,297.2z"/>
	<path style="fill:#002955;" d="M492.4,356.7c-4.9,3.2-12.3,7.6-17.1,10.8c-0.3-0.4-0.5-0.8-0.8-1.2c4.9-3.2,9.7-6.4,14.6-9.7
		C489.4,357,492.2,356.2,492.4,356.7z"/>
	<path style="fill:#002955;" d="M278.3,413.7c0.9,0,1.7,0,2.6,0c0,0.1,0,0.2,0,0.3c-0.9,0-1.7,0-2.6,0
		C278.3,413.9,278.3,413.8,278.3,413.7z"/>
	<polygon style="fill:#002955;" points="161.5,414 161.5,414 161.5,414 	"/>
	<g>
		<path style="fill:#002955;" d="M551.4,431.2c-1.8,1.2-3.7,2.4-5.5,3.6c0,0-0.1-0.1-0.1-0.1c0.4-0.4,0.8-0.8,1.1-1.3
			c0.4-0.5,0.8-1,1.1-1.5c0.3-0.5,0.5-1.2,0.8-2c-2.1,1.1-3,3.4-5.3,4c0.2-0.3,0.3-0.7,0.5-1c0-0.1-0.1-0.1-0.1-0.2
			c-2.4,1.6-4.8,3.1-7.2,4.7c-2.4,1.6-4.7,3.2-7.1,4.8c1.2,1,2.2,0.2,3.2-0.3c0.6-0.3,1.1-0.6,1.6-0.9c0.1,0.1,0.1,0.2,0.2,0.3
			c-0.6,0.5-1.3,1-1.9,1.6c0.4,0.6,1,0.7,1.6,0.3c1.7-1,3.3-1.9,5-2.8c0.3-0.2,0.8-0.1,1.2-0.3c0.5-0.2,1-0.4,1.4-0.7
			c2.6-1.8,5.1-3.7,7.6-5.6c0.4-0.3,0.6-1,1-1.4c0.3-0.4,0.7-0.6,1-0.9C551.6,431.4,551.5,431.3,551.4,431.2z"/>
		<path style="fill:#002955;" d="M557,431.7c-1,0-1.3,0.9-1.9,1.3c-0.7,0.6-1.3,1.2-2,1.7c-1.4,1.1-2.7,2.1-4.1,3.2
			c-0.5,0.3-1,0.6-1.4,0.9c-0.2,0.1-0.5,0.4-0.4,0.6c0,0.2,0.3,0.5,0.5,0.6c0.4,0,0.8,0,1.2-0.1c3-1.3,5.5-3.3,7.5-5.9
			c0.2-0.3,0.3-0.7,0.5-1C556.9,432.5,556.9,432.2,557,431.7z"/>
		<path style="fill:#002955;" d="M539.7,433.7c-0.5,0.2-1,0.4-1.5,0.7c-3.2,1.9-6.5,3.8-9.7,5.7c-0.6,0.4-1.3,0.7-2,1.1
			c0.8,0.7,1.6,0.8,2.5,0.3c2.8-1.7,5.7-3.3,8.5-5c1-0.6,1.8-1.4,2.7-2.1C539.9,434.1,539.8,433.9,539.7,433.7z"/>
		<path style="fill:#002955;" d="M527.8,437c-3.5,1.7-7.1,3.4-10.7,5.1c1.1,1.3,2.4,0.9,3.6,0.5c1.1-0.3,2.2-0.7,3.1-1.4
			c1.5-1.2,2.8-2.7,4.2-4.1C528,437.1,527.9,437,527.8,437z"/>
	</g>
	<g>
		<path style="fill:#002955;" d="M386.6,475c1.5-1.3,3-2.5,4.4-3.8c0.4-0.4,0.7-1,1.1-1.4c-0.1-0.1-0.1-0.1-0.2-0.2
			c-1.8,1-3.7,2-5.6,3.1c0.3-0.3,0.6-0.6,0.8-0.9c0.2-0.2,0.4-0.4,0.5-0.7c0.1-0.2,0-0.5-0.2-0.6c-0.1-0.1-0.5-0.1-0.6,0
			c-1.1,0.8-2.2,1.6-3.3,2.3c-0.8,0.5-1.7,0.9-2.6,1.3c0.3-0.4,0.5-0.8,0.7-1.2c0.1-0.1,0-0.3,0-0.5c-0.2,0-0.4,0-0.5,0.1
			c-1.1,0.6-2.1,1.4-3.2,2c-2,1-3.6,2.5-5.6,3.3c-0.5,0.2-1.1,0.4-1.7,0.6c0.1,0.4,0.1,0.9,0.3,1c0.6,0.2,1.4,0.5,2,0.3
			c1.4-0.4,2.8-0.7,4.2-1c0.5-0.1,1-0.3,1.5-0.5c0.8,0.8,1.8,0.8,2.7,0.6c4.6-0.8,8.5-3,11.8-6.2c1.1-1.1,2.1-2.2,3-3.5
			c0.2-0.3,0.4-0.8,0.5-1.2c-0.1-0.1-0.1-0.1-0.2-0.2c-0.8,0.7-1.5,1.4-2.4,2.1c-2.1,1.6-4.1,3.2-6.2,4.7c-0.4,0.3-0.9,0.4-1.3,0.7
			C386.7,475.1,386.7,475.1,386.6,475z"/>
		<path style="fill:#002955;" d="M401.8,470.5c-1.1,0.7-2.2,1.3-3.3,2c-0.5,0.3-0.8,0.7-1.3,1.1c-1.2,0.9-2.5,1.7-3.6,2.7
			c-0.4,0.3-0.6,0.7-0.8,1.1c0.4,0.1,0.9,0.3,1.3,0.2c0.9-0.3,1.8-0.7,2.5-1.2c1.8-1.3,3.4-2.9,4.9-4.7c0.2-0.3,0.4-0.7,0.6-1
			C401.9,470.6,401.8,470.5,401.8,470.5z"/>
		<path style="fill:#002955;" d="M396.9,470.1c-0.6,0.5-1.1,1.1-1.7,1.6c-1.4,1.3-2.9,2.6-4.3,4c-1.1,1-2.3,2-3.9,2.4
			c-0.4,0.1-0.8,0.2-1.5,0.4c0.3,0.1,0.5,0.3,0.6,0.3c1.7,0.1,3.3-0.6,4.7-1.5c2.3-1.5,4.1-3.7,5.7-5.9c0.2-0.3,0.4-0.7,0.5-1.1
			C397,470.2,396.9,470.2,396.9,470.1z"/>
		<path style="fill:#002955;" d="M375,474c-0.9,0.5-2,0.6-2.9,1.3c-0.7,0.5-1.5,0.8-2.3,1.2c-0.6,0.3-1,0.6-1,1.3
			c0.5,0.4,1,0.4,1.6,0.2c1.3-0.5,2.5-1.3,3.5-2.3c0.5-0.5,0.9-1,1.3-1.4C375.2,474.1,375.1,474.1,375,474z"/>
		<path style="fill:#002955;" d="M399.8,477c2.8-0.4,6.6-3.2,6.5-5c-0.6,0.5-1.2,0.9-1.8,1.3c-0.5,0.3-0.9,0.6-1.4,0.9
			c-1,0.7-2,1.3-3,2.1C399.9,476.5,399.9,476.8,399.8,477z"/>
		<path style="fill:#002955;" d="M410.1,473.9c-0.9,0.3-1.9,0.4-2.5,1.2c-0.1,0.2-0.3,0.7-0.2,0.8c0.3,0.2,0.9,0.6,1.1,0.4
			c0.6-0.5,1.2-1.2,1.7-1.8C410.3,474.4,410.1,474.2,410.1,473.9z"/>
	</g>
	<path style="fill:#002955;" d="M575.4,410.9l0.2,0c0.1-3.7-2.8-15.7-4.7-18.5c-3.5-5-6.6-8.9-10.8-13.5
		c-6.8-7.3-14.7-10.6-23.6-14.5c-10.6-4.6-19.7-9.5-30.3-14.1c-6-2.6-11.5-6.1-17.6-8.6c-7.4-3-15.2-5.3-22.8-8
		c-2.8-1-6.3-3.5-8.2-5.4c-2.8-2.9-5.7-4.5-9.4-5.5c-2.6-0.7-5-0.8-7.5-1.7c-0.8-0.3-1.7-0.4-2.2-0.9c-2.1-2-6.3-0.6-7.4-4.7
		c-0.2-0.6-0.6-1.2-1-1.7c-3.3-3.5-7.2-6-12.3-5.9c-0.2,0-0.5-0.4-0.7-0.6c-2.9-2.4-5.5-5.8-8.8-7c-3.8-1.3-6.5-3.5-9.1-6.2
		c-1.6-1.6-3.5-2.9-5.4-4.1c-1.1-0.7-2.6-0.5-3.7-1.2c-5.4-3.1-10.7-7.3-16-10.4c-0.3-0.2-0.6-0.2-0.9-0.3c-3.2-1-6.5-1.8-9.4-3.2
		c-2.8-1.3-5.3-0.6-7.8-2.4c-1.7-1.3-3.5-2.5-4.7-4.2c-3.2-4.5-7.5-10.9-12.7-16.8c-3.9-3.4-7.9-7.5-11.8-7.2
		c-5.6,0.3-10.5,3.9-14,8.5c-4,6.4-4.3,16.9-8.2,20.7c-6.3,6.2-13,12.3-20.2,17.3c-4.4,3-10.1,4.5-15.5,5.8
		c-8.2,2-16.3,4.9-23.7,0.7c-9.4-5.3-13.8-21.8-19.7-30.5c-6.5-9.6-12.8-19.3-23.5-24.6c-2.2-1.1-5.9-1.6-7.8-0.4
		c-6.8,4.2-10.3,10.4-11.9,17.8c-0.7,3.2-0.2,7-1.6,9.8c-7.2,14.2-14.1,33.1-17.1,48.7c-3.1,16-5.9,32.9-5.9,49.3
		c0,5.8,0,11.6,0,17.5c-0.7,1.3-1.9,2.8-2.6,4.6c-1.5,3-1.8,7-2,7.9c-1.3,5.1-1,10.9,0.5,15.8c0.1,0.3,0.2,0.6,0.4,0.8
		c0,0,0.1,0,0.1,0.1c0.4,1.1,0.8,2.1,1,2.3c2,4,3,4.6,6,7.2c5.6,4.8,11.4,9.5,17.8,13.6c4.4,2.8,10,4.8,15.3,6.8
		c4.8,1.7,10,3.2,15.2,4.2c5.8,1.2,11.7,2.2,17.9,1.3c0.5-0.1,1.5,0.3,1.7,0.7c2.7,3.8,6.6,6.8,11.3,9.4c2.2,1.2,4.4,2.5,6.7,3.6
		c5.3,2.5,10.4,5.4,16.1,7.2c4.1,1.3,8.3,2.6,12.8,3.3c12.7,2.2,25.4,3.6,38.2,0.6c3.7-0.9,7-1,9.4,1.8c0.2,0.3,0.8,0.5,1.2,0.7
		c3.6,1.7,7.2,3.3,10.7,5c6.6,3.1,13.8,5.4,21.3,6.9c7.3,1.4,15,2,22.6,2.5c3.8,0.3,7.9,0.2,11.6-0.3c7.6-1,15.3-2.3,22.7-3.9
		c4.2-0.9,8.3-2.3,12-3.9c3.6-1.6,6.6-3.9,9.9-5.8c0.7-0.4,1.9-0.7,2.8-0.6c13.3,1.7,25.8,0.2,37.5-4.7c4-1.6,8-3.3,11.9-5
		c1.6-0.7,3.2-1.6,4.6-2.6c3-2.2,5.8-4.4,8.8-6.7c0.5,0.2,1,0.6,1.7,0.7c3.3,0.4,6.7,1,10,1c6.5,0.1,13.1,0.3,19.2-2
		c2.3-0.8,4.9-1.2,7-2.2c5.3-2.4,10.4-5.1,15.7-7.7c3.7-1.8,9.3-4.3,11.4-7.3c3-3,3.8-4.2,6-8C575.8,425.7,576.1,418.5,575.4,410.9z
		 M315.2,260.8c1.9-4.4,2.9-7,6.2-9.3c1.5-1.1,4.4-1.2,6.2-0.6c8.3,2.7,13.1,12.3,19.3,19c-7-1.3-13.7-1.7-19.9,1.7
		c-5.9,3.2-11.6,6.7-17.4,10.1c-0.3-0.1-0.7-0.2-1-0.3C310.3,276.6,312.5,265,315.2,260.8z M306.3,279.1c1.7,6.5-4.5,6.7-7.8,9.1
		c-2.1,1.5-4.8,2.1-7,3C296.3,287.3,301.3,283.1,306.3,279.1z M569,426.3c-0.3,0.3-1.8,3.7-2,4c-2.1,3.3-4.2,4.5-7.9,7.2
		c-5.7,4.2-12.7,9.9-19.9,12.3c-6.5,2.2-13.5,3.2-20.7,3.1c-3.4,0-8.7,0-12.6,0c0.7-1,3.1-4.5,3.4-5c0.7-1.2,0.7-2.4,1.1-3.7
		c0.8-2.3,1.2-4.7,1.8-7c0.1-0.4,0.2-0.7,0.2-1.1c0.6-2.8,0.9-5.8,0.6-8.7c-0.2-2,0.3-4.9,0-7.1c-3,1.6-4.6,13.1-5,15
		c-1.3,5.9-1.9,8.5-6.7,13.7c-3.4,3.7-6.5,7.5-12,10c-1.6,0.7-3.1,1.6-4.5,2.4c-6.1,3.8-12.7,8-20.7,9.3c-3.2,0.5-6.5,0.9-9.7,1.3
		c-3.1,0.4-8.2-0.3-11.7,0.1c0.4-0.8,3.5-6.1,3.7-6.4c2.8-3.3,3.6-6.6,6.4-9.9c0.9-1,1.7-3.1,2.3-4.3c2-7.2,2.7-8.8,3-14.2
		c0.1-1.2,0.6-3-1.3-3.3c-0.4,0.5-0.7,5-1,5.5c-2.6,4.7-3.9,11.4-6.9,15.9c-2.9,4.3-6.5,8.4-10,12.4c-3.8,4.3-9,7.7-14.7,10.7
		c-5.6,2.9-11,4.1-18,5.2c-1.1,0.2-2.3,0.4-3,1c-1.4,1.2-3.2,1.4-5.1,1.6c-4,0.4-7.9,1.1-11.9,1.4c-9.4,0.7-18.9,0.7-27.7-2
		c-8.1-2.5-15.9-5.5-23.7-8.4c-1.7-0.6-6-4.6-7.9-5.5c1.1-0.5,3.8-2,4.4-2c4,0,7-1.7,10-3.1c4.5-2.3,9.1-4.7,12.8-7.6
		c4.7-3.8,7.1-7.5,11-11.7c1.6-1.8,1-2,3.4-6.8c0.6-2.2,1.3-3.5,1.6-5.2c0.4-1.7,0.8-6.4-1-8c-0.7-0.6,0,0-1,1c-0.6,0.7-0.6,5.3-1,6
		c-0.5,1-0.6,1.6-1.1,2.6c-0.5,1.2-1.3,2.3-2,3.4c-0.5,0.9-1.1,1.8-1.8,2.6c-1.7,1.8-3.4,3.7-5.2,5.4c-1.7,1.6-3.5,3.1-5.3,4.6
		c-0.4,0.4-1,0.6-1.4,1c-6.1,5.5-13.7,9.6-22.7,12.3c-3.1,0.9-6.5,1.5-9.1,2.8c-2.6,1.3-5.3,2.2-8.2,2.7c-8.4,1.5-17,0.4-25.3-0.5
		c-8.4-0.9-16.8-2.1-24.1-5.8c-4.7-2.4-9.7-4.3-14.5-6.5c-3.1-1.5-6.1-3.1-9.1-4.7c-1.7-0.9-4.2-4.9-6.1-6c1-0.2,1.6-0.4,2.3-0.5
		c3.8-0.8,7.7-1.4,11.5-2.3c2-0.5,3.8-1.4,5.9-1.8c5.2-1.1,9.7-3.2,13.3-5.9c5.6-4.1,10.6-8.7,15.8-13.1c2-1.7,3.6-3.6,5.4-5.4
		c-0.2-0.1-0.3-0.2-0.5-0.4c-1.1,0.5-2.3,1-3.2,1.6c-4.2,2.8-7.1,7.5-12.7,9.3c-2.7,0.9-4.7,3.8-7.2,5.1c-6.1,3-12.5,5.8-19.6,7.3
		c-9,1.8-18.3,3.4-27.8,2.1c-2.9-0.4-6.1-0.3-8.7-1.1c-4.9-1.4-9.7-3.2-14.2-5.1c-4.2-1.8-8.2-4-12.2-6c-6.5-3.3-10-6.3-14-11.4
		c-0.2-0.3-1.6-2.3-1.9-2.6c-0.8-1.6-2.8-3.8-3.7-4.9c-0.4-3.6-0.7-11.2-1.1-12.4c-0.5-1.2,1.1-8.6,0.7-12.7
		c0.1-0.2,0.4-0.4,0.5-0.5c0.1,0,0.2-0.1,0.3-0.1c3.6-1.4,3.2-4.4,3-7.5c-0.2-3.1,0-6.1-0.1-9.2c0-4.5-0.3-9,0-13.4
		c0.6-7.2,1.3-14.5,2.6-21.6c1.7-9.6,3.4-19.1,5.9-28.5c2.7-9.6,8.3-19,11.5-28.5c1.3-3.8,3.5-11.8,3.5-15.6
		c-0.1-5.4,2-9.7,3.9-14.3c2.9-7.1,8.2-7.1,13.7-3.5c6.4,4.2,9.7,11,13.9,17c7.1,10.1,11.8,28.8,22,36.4c1.1,0.8,2.3,1.4,3.5,2.1
		c11.1,6.4,22.8,0.8,34.3-1.7c7.4-1.6,14.8-3.7,21.6-6.9c7.9-3.7,15.1-8.8,22.5-13.5c8.7-5.4,17.8-6.6,27.4-2.9
		c3.7,1.4,7.9,2.4,10.8,4.8c2.9,2.3,5.1,5.9,6.7,9.4c2.5,5.4,4.1,11.2,6.5,16.6c0.6,1.4,2.8,2.2,4.2,3.3c2.3-0.4,2.7-3.3,2.6-4.9
		c-0.3-3.9-1.4-7.8-2.2-11.7c-0.3,0-0.7-0.1-1-0.1c-0.2,0.7-0.5,1.4-0.4,2.1c0.3,3.5,0.7,7,1,10.5c0,0.4-0.4,0.8-0.6,1.3
		c-0.3-0.3-0.8-0.5-0.9-0.8c-2.2-5.8-4.4-11.6-6.6-17.3c-0.8-2.1-1.9-4.1-2.9-6.1c0.2-0.3,0.5-0.7,0.7-1c1.6,0.8,3.4,1,5.2,2.9
		c1.8,2,3.2,3.1,6.3,3.1c5,0.1,8.1,3.8,10,8.3c2.4,5.8,4.9,11.6,7.4,17.4c1.2,2.9,3.6,5.5,6.6,4.5c3.3-1.1,1.7-4.9,1.2-7.2
		c-0.4-2.1-1.3-4.1-2-6.1c-0.4,0.1-0.8,0.2-1.1,0.3c0.4,3.3,0.9,6.6,1.3,10c-3.1,3.1-7.4-14.1-11-21.4c1.6,1.3,3.2,2.6,4.8,4
		c2.1,1.9,4,4.1,6.3,5.9c0.9,0.7,2.6,0.4,3.9,0.7c6.2,1.7,8.2,6.9,9.8,12.3c1.2,3.9,2.6,8.7,4.4,12.3c0.8,1.6,2.7,3.6,4,3.6
		c2.9,0,3.4-3.7,3.1-6.2c-0.5-2.9-1.2-5.8-1.8-8.6c-0.4,0-0.8,0.1-1.2,0.1c0.1,1.8,0.2,3.7,0.3,5.5c0.1,1,0.3,1.9,0.2,2.9
		c-0.1,0.9-0.4,2.7-0.6,3.5c-0.6-0.7-1.5-1.2-1.8-2c-2-4.9-4-10.7-5.9-15.6c0.3-0.4,0.7-0.7,1-1.1c3.3,2.2,6.8,4.2,9.9,6.6
		c2.1,1.6,3.2,3.8,6.7,4.5c6.3,1.2,9.7,2,12,11.2c1.2,4.9,3.5,9.6,5.8,14.2c0.9,1.7,3.1,1.9,4.5-0.3c1.8-2.7,1.3-10.1-1.2-12.1
		c-0.1,0.9-0.2,1.5-0.2,2.1c0,2.5,0.1,5,0,7.5c0,0.4-0.5,1.2-0.8,1.2c-0.4,0-1.1-0.4-1.3-0.8c-1.2-2.6-4.1-11.5-4.6-13.3
		c-0.5-1.7-1.3-3.4-2.3-6c3,1.5,5.7,2.4,7.8,4c3.8,2.8,7.4,5.1,12.2,6.5c9.6,2.9,18.7,7.6,28,11.7c9.4,4.1,18.9,8.3,28.2,12.6
		c9.6,4.5,16.4,9.1,25.7,14.2c4.1,2.3,7.5,6,11.2,9.1c-0.2,0.3-0.3,0.7-0.5,1c-4.2,0.3-8.4,0.7-12.6,0.9c-8.4,0.6-14.1,1.1-22.5,1.7
		c-7.3,0.5-14.6,1.1-21.8,1.8c-6.3,0.6-12.5,1.4-18.8,1.8c-9.2,0.6-40.1,3-46.4,3.8c-4.4,0.6-18.1,2.3-28.6,3.4l-2.6-0.1
		c-7.5,0.8-13.9,1.4-16.4,1.7c-15.3,1.8-30.5,1.2-45.8-0.6c-3.5-0.4-21.9-2.8-35.3-4.7l-31.4-1c7.3,1.4,18.6,3.7,22.8,4.4
		c5.4,0.9,28,4.3,33.9,4.8c8.4,0.7,16.8,1.6,25.2,1.9c6.7,0.3,13.4,0,20.2-0.3c4.5-0.2,15.7-0.5,34.1-2.3c5.4-0.5,10.7-1.6,16.1-2.5
		l0.5,0c7.3-0.8,21.7-2.1,29.1-2.7c9.7-0.8,19.5-1.4,29.2-2.3c7.6-0.7,37.1-3.1,44.3-3.8c10.9-1.1,19-2.4,29.9-3.8
		c2.3-0.3,7.2,15,9.8,21.6C571.9,415.4,571.7,420.9,569,426.3z"/>
	<g>
		<path style="fill:#002955;" d="M260.1,451.3c2.6,1.2,5.3,2.4,8,3.5c3.2,1.3,6.4,2.6,9.6,3.9c2.6,1.1,5.3,2.2,8,3.1
			c1.9,0.6,3.9,1,6.2,1.5c-2.3,0.9-4.3,1.2-6.3,0.6c-7.3-2-14-4.8-20.3-8.2c-2-1.1-3.6-2.7-5.4-4.1
			C259.9,451.5,260,451.4,260.1,451.3z"/>
		<path style="fill:#002955;" d="M273.1,454.5c5.1,1.5,10,3.2,15.2,4.3c5.2,1.2,10.7,1.7,16.1,2.6c0,0.1,0,0.3,0,0.4
			c-2.1,0.2-4.3,0.9-6.2,0.7c-6.2-0.7-12.4-1.6-18.1-3.5c-1.7-0.6-3.1-1.7-4.6-2.6c-0.9-0.5-1.7-1-2.6-1.5
			C272.9,454.8,273,454.6,273.1,454.5z"/>
		<path style="fill:#002955;" d="M282.6,465c-2.8,0.5-12.7-3-15.4-5.6C272.5,461.3,277.6,463.1,282.6,465z"/>
	</g>
</g>
</svg>
