<svg viewBox="0 0 750 750" xmlns="http://www.w3.org/2000/svg">
<g id="Fills1">
	<path style="fill-rule:evenodd;clip-rule:evenodd;fill:#D8E7FF;" d="M179.3,542.5c-15.2,0.1-32,1-28.7,9.7
		c15.9-0.1,11.4,7.6,21.5,9c1.6-1.5,55.6-0.5,59.2,0.8s12.7,3.4,20.3,3.3c7.6,0,33.3-4.9,44.2-3.6c10.8,1.3,62,6.6,68,3.8
		c6-2.8,45.2-7.7,55.9-6.2c10.6,1.6,40.4,4.2,46.4,2.8c6-1.4,40-2.2,50.9,0c4.5,0.9,31.1-2.9,34.3-2.9s12.3-12.4,15.8-11.8
		c2.2,0.4,7-1.3,13.7-3.3c-0.1-5.1-2.6-8.6-5.8-8.5c-4.9,0-299.5,0.5-312.3,1.9c-12.9,1.4-58.1,0.9-66.6,1
		C187.6,538.6,194.5,542.4,179.3,542.5z"/>
	<path style="fill:#0363F7;" d="M606.1,469.3c0.4-0.1,0.6-0.2,0.8-0.2c5.2,2.1,9.8,4.8,12.4,10.1c1.8,3.8,3.7,7.4,4,11.7
		c0.5,8.8-1.6,16.9-7.7,23.5c-2,2.1-5.1,3.2-7.7,4.8c-0.4,0.2-0.9,0.3-1.2,0.6c-0.9,1-1.5-0.5-2.1-1.2c-0.1-0.1,0.2-0.9,0.6-1.4
		c2.4-3.2,5.4-5.3,7-8.9c2.1-4.6,4.1-9.3,4.4-14.6c0.4-6.4-0.7-12.4-4.5-17.6c-1.5-2.2-3.5-4-5.3-6
		C606.6,470,606.4,469.7,606.1,469.3z"/>
	<path style="fill:#0363F7;" d="M624.6,473c8.7,3.2,12.7,8.3,13.8,17.9c0.7,6-1.3,11.3-4.2,16.2c-1.3,2.2-3,4-4.6,5.9
		c-0.4,0.5-1.3,0.4-2.2,0.7c1.4-3.8,3-7.4,4.1-11c3.1-9.8,2.5-18.8-4.7-26.5C625.9,475.2,625.3,474.1,624.6,473z"/>
	<path style="fill:#0363F7;" d="M599.3,479.6c2.7-2.6,7,6.3,7.4,10c0.9,7.7-1.7,14.2-7.6,19.2c-1.3,1.1-1.6,1.7-3,2.7
		c-0.2-0.2-1.6,0-1.8-0.2c0.3-0.7,0.6-1.5,1-2.2c1.8-3.6,4-7,5.4-10.7c1.2-2.9,2.5-6.2,1.6-9.4C601.7,486.8,600.3,481.7,599.3,479.6
		z"/>
	<g id="C2P9L7_5_">
		<g>
			<path style="fill:#0363F7;" d="M655,529.7c-1.8,1.6-3.8,1.9-6.2,1.7c-4.6-0.4-9.3-0.2-14-0.2c-7.5,0-15.1,0.1-22.6,0.2
				c-9,0.2-18.1,0.4-27.1,0.6c-5.2,0.1-10.4,0-15.7,0.1c-5.3,0.1-10.6,0.3-15.9,0.4c-5.7,0.1-11.4,0-17.1,0.1
				c-5.6,0.1-11.2,0.3-16.8,0.4c-3.8,0-7.6-0.3-11.4-0.2c-5.5,0-11,0.2-16.5,0.3c-6.5,0.1-13,0-19.5,0.1c-8.9,0.1-17.8,0.2-26.8,0.2
				c-5.4,0-10.8-0.2-16.2-0.1c-5.8,0.1-11.5,0.4-17.3,0.5c-7.6,0.1-15.3,0-22.9,0.1c-10.7,0.1-21.3,0.2-32,0.2c-3.5,0-7-0.1-10.5,0
				c-3.6,0.1-7.2,0.4-10.9,0.4c-6.9,0.1-13.8,0.2-20.7,0.2c-10.1,0.1-20.1,0.3-30.2,0.4c-9.7,0.1-19.4,0.2-29.1,0.2
				c-10.1,0.1-20.3,0.1-30.4,0.2c-13.4,0.1-26.7,0.3-40.1,0.4c-6,0-11.9-0.1-17.9-0.2c-5.7-0.1-11.5-0.4-17.2-0.3
				c-7.3,0.1-11.6,0.4-19,0.6c-4.7,0.1-8.4-0.1-13.2-0.2c-1.8,0-3.5,0.2-5.3,0.1c-1.2-0.1-6.5-0.5-7.6-0.8c-0.4-3.8,0.3-4.7,3.2-4.7
				c6.9,0.2,13.8,0.3,20.7,0.5c8.2,0.2,16.5,0.4,24.7,0.4c5.4,0,10.9-0.4,16.3-0.3c8.4,0.1,16.8,0.5,25.1,0.5
				c19.1,0,38.1-0.2,57.2-0.4c3.8,0,7.6-0.8,11.4-0.8c2.6-0.1,5.2,0.7,7.8,0.6c4.1-0.1,8.3,0.9,12.4-0.6c0.3-0.1,0.7,0,1.1,0
				c12.7,0.2,25.4,0.4,38.2,0.5c4.2,0,8.4-0.4,12.6-0.5c5.2-0.1,10.5,0,15.7,0c31.1,0,62.3,0,93.4,0c3.5,0,7-0.8,10.6-1
				c2.2-0.2,4.4-0.1,6.6-0.2c3.4-0.1,6.7-0.3,10.1-0.3c1.9,0,3.8,0.2,5.8,0.3c7.7,0,15.5,0,23.2,0c6.2,0,12.4,0.3,18.6,0.2
				c6.2-0.1,12.5-0.6,18.7-0.6c9.4-0.1,18.7,0.1,28.1,0c3.6,0,7.2-0.4,10.9-0.5c3.7-0.1,7.4,0.1,11.1,0.1c4,0,8-0.1,12-0.1
				c9.3-0.1,18.6-0.2,27.9-0.5c4.4-0.1,8.7-0.8,13.1-0.7c3.3,0,6.4,0,9.6-0.7C653.8,525.2,654.9,526.5,655,529.7z"/>
		</g>
	</g>
	<path style="fill:#0363F7;" d="M364.9,413.6c-9.5-8.5-20.1-13.8-31.2-18.4c-0.7-0.3-1.8-0.3-2.4-1c0.9-0.2,2.5-1.6,3.3-1.4
		c9.5,2.9,19.1,5.2,28.4,8.5c6.9,2.5,13.5,6.1,20.2,9.1c5.8,2.6,11.6,5.1,17.1,8.1c2.6,1.4,4.7,4,6.8,6.2c0.1,0.1-1.1,2.2-1.7,2.3
		c-13.6,1.3-26.3,2.4-39.8,4.3c-8.1,1.1-17.1,3.3-24.9,5.8c-6.1,2-12,4.9-18,7.2c-3.5,1.3-7.2,2.4-10.9,3c-3.8,0.6-7-1-9.8-3.7
		c-4.4-4.2-9.1-8.1-13.5-12.3c-1.4-1.4-2.4-3.2-3.5-4.8C310.4,415.7,337.2,412.7,364.9,413.6z"/>
	<path style="fill:#0363F7;" d="M131.7,514.9c-3.5-0.4-5.7-2.9-7.6-5c-3.1-3.3-4.1-8.2-4.5-12.7c-0.2-1.7-0.2-3.4,0-5.1
		c0.8-6.2,1.4-10.8,4.6-16.1c1.7-2.8,5.4-9.2,8.5-10.7c0.4-0.2,1.4,1.4,1.8,1.2c-0.4,1.6-1.4,5.2-1.7,5.7c-3.3,5.3-4.6,4.6-6.3,9.6
		c-2,5.8-3.3,14.3-1.4,20.8c0.4,1.4,1.1,2.8,1.8,4.1C128.3,509.3,132.5,513.6,131.7,514.9z"/>
	<path style="fill:#0363F7;" d="M155.6,506.2c-1.7,0.4-2.9-0.4-5.4-2.2c-4.2-6.5-7.2-13.8-2.3-21.4c0.8-1.3,3.2-4.3,5.1-3.7
		c-1.1,5.3-2.5,9-1.9,13.5C151.8,497.1,154.1,501.5,155.6,506.2z"/>
	<path style="fill:#0363F7;" d="M143.9,469.6c-0.2,1.3-0.4,2.7-0.7,4c-1.5,6.1-2.3,11.7-3.6,17.8c-0.7,3.3-1.1,7,0.1,10.2
		c1.6,4.4,3.9,9,6.1,12.4c1.5,2.4,0.7,4.3,0.4,4.8c-3.9-1.3-3.3-1.8-5.4-4c-4.5-4.8-3.4-10.2-5.7-16c-1.6-4-0.2-16.2,3.9-22.9
		c1.4-2.2,3-4.3,4.5-6.4C143.7,469.4,143.8,469.5,143.9,469.6z"/>
</g>
<g id="Fills2">
	<path style="fill-rule:evenodd;clip-rule:evenodd;fill:#D8E7FF;" d="M182,541.1c-15.2,0-47.6,9.2-31.8,9.2s11.6,7.7,21.6,9.1
		c10.4,1.5,56.2,0,59.9,1.3c3.6,1.3,12.3,2.9,19.9,2.9c7.6,0,33.4-5.6,44.2-4.2c10.8,1.4,61.9,7.8,67.9,5c6-2.8,45.4-8.2,56-6.6
		s39.7,6.8,45.7,5.4c6-1.4,39.7-5.2,50.8-3.8c11,1.4,31.6-2.2,34-1.6c3.1,0.7,13.3-12.1,16.6-12.1c2.2,0,6.7-1,13.3-3
		c-0.1-5.2-1.6-8.6-5.1-8.2c-4.9,0.4-299.4-0.8-312.3,0.5c-12.9,1.4-58.3,1.6-66.7,1.6C187.5,536.5,197.1,541.1,182,541.1z"/>
	<g id="C2P9L7_12_">
		<g>
			<path style="fill:#0363F7;" d="M656,528.7c-1.8,1.6-3.8,1.9-6.2,1.7c-4.6-0.4-9.3-0.2-14-0.2c-7.5,0-15.1,0.1-22.6,0.2
				c-9,0.2-18.1,0.4-27.1,0.6c-5.2,0.1-10.4,0-15.7,0.1c-5.3,0.1-10.6,0.3-15.9,0.4c-5.7,0.1-11.4,0-17.1,0.1
				c-5.6,0.1-11.2,0.3-16.8,0.4c-3.8,0-7.6-0.3-11.4-0.2c-5.5,0-11,0.2-16.5,0.3c-6.5,0.1-13,0-19.5,0.1c-8.9,0.1-17.8,0.2-26.8,0.2
				c-5.4,0-10.8-0.2-16.2-0.1c-5.8,0.1-11.5,0.4-17.3,0.5c-7.6,0.1-15.3,0-22.9,0.1c-10.7,0.1-21.3,0.2-32,0.2c-3.5,0-7-0.1-10.5,0
				c-3.6,0.1-7.2,0.4-10.9,0.4c-6.9,0.1-13.8,0.2-20.7,0.2c-10.1,0.1-20.1,0.3-30.2,0.4c-9.7,0.1-19.4,0.2-29.1,0.2
				c-10.1,0.1-20.3,0.1-30.4,0.2c-13.4,0.1-26.7,0.3-40.1,0.4c-6,0-11.9-0.1-17.9-0.2c-5.7-0.1-11.5-0.3-17.2-0.3
				c-6,0-10.8,0.4-19,0.6c-4.7,0.1-8.4-0.1-13.2-0.2c-1.8,0-3.5,0.2-5.3,0.1c-1.2-0.1-6.5-0.5-7.6-0.8c-0.4-3.8,0.3-4.7,3.2-4.7
				c6.9,0.2,13.8,0.3,20.7,0.5c8.2,0.2,16.5,0.4,24.7,0.4c5.4,0,10.9-0.4,16.3-0.3c8.4,0.1,16.8,0.5,25.1,0.5
				c19.1,0,38.1-0.2,57.2-0.4c3.8,0,7.6-0.8,11.4-0.8c2.6-0.1,5.2,1.2,7.8,0.6c5.3-1.2,8.3,0.9,12.4-0.6c0.3-0.1,0.7,0,1.1,0
				c12.7,0.2,25.4,0.4,38.2,0.5c4.2,0,8.4-0.4,12.6-0.5c5.2-0.1,10.5,0,15.7,0c31.1,0,62.3,0,93.4,0c3.5,0,7-0.8,10.6-1
				c2.2-0.2,4.4-0.1,6.6-0.2c3.4-0.1,9.8,0,13.2,0c1.9,0,3.8,0.2,5.8,0.3c7.7,0,14.7,0.7,22.4,0.8c6.2,0,10.1-0.8,16.3-0.9
				c6.2-0.1,12.5-0.6,18.7-0.6c9.4-0.1,18.7,0.1,28.1,0c3.6,0,7.2-0.4,10.9-0.5c3.7-0.1,7.4,0.1,11.1,0.1c4,0,8-0.1,12-0.1
				c9.3-0.1,18.6-0.2,27.9-0.5c4.4-0.1,7.7,0.2,12.1,0.3c3.3,0,7.4-2.3,10.6-1.7C655.9,525.5,655.9,525.5,656,528.7z"/>
		</g>
	</g>
	<path style="fill:#0363F7;" d="M625.2,473.1c8.7,3.2,11.6,8.9,12.7,18.5c0.7,6-0.8,10.6-3.7,15.5c-1.3,2.2-2.5,4.8-4.2,6.6
		c-0.4,0.5-1.7-1.1-2.5-0.9c1.4-3.8,2.6-5.8,3.8-9.4c3.1-9.8,2.7-18.6-4.5-26.3C625.9,476.2,625.9,474.1,625.2,473.1z"/>
	<path style="fill:#0363F7;" d="M606,469.9c0.4-0.1,2.2,0.1,2.4,0.2c5.2,2.1,8.2,4.4,10.8,9.7c1.8,3.8,3.4,9,3.7,13.2
		c0.5,8.8-2,16.9-8.1,23.4c-2,2.1-4.4,1.8-7,3.3c-0.4,0.2-0.9,0.3-1.2,0.6c-0.9,1-1.8,0.4-2.4-0.2c-0.1-0.1,0.4-1.2,0.8-1.7
		c2.4-3.2,5.5-6,7.1-9.5c2.1-4.6,3.6-7.2,3.9-12.4c0.4-6.4-0.3-14.5-4.1-19.8c-1.5-2.2-4.2-2.1-6-4.1
		C605.8,472.5,606.3,470.3,606,469.9z"/>
	<path style="fill:#0363F7;" d="M598.7,479.9c4.7-1.8,7.4,6.7,7.8,10.4c0.9,7.7-1.4,13.5-7.3,18.5c-1.5,1.2-3.7,2-5.2,3.1
		c-0.2-0.2-0.2-0.2-0.4-0.3c0.4-0.9,0.8-1.8,1.2-2.6c1.8-3.6,4.5-6.8,6-10.5c1.2-2.9,2.2-5.3,1.4-8.5
		C601.5,487.7,599.6,482,598.7,479.9z"/>
	<path style="fill:#0363F7;" d="M365.4,414.1c-9.5-8.5-19.6-13.3-30.6-17.9c-0.7-0.3-1.2-0.5-1.8-1.1c0.9-0.2,1.9-1.5,2.7-1.3
		c9.5,2.9,19,5.6,28.3,8.9c6.9,2.5,13.6,5.7,20.3,8.7c5.8,2.6,11.6,5.1,17.1,8.1c2.6,1.4,4.1,4.3,6.3,6.5c0,1.3-2.5,2.8-3.1,2.9
		c-13.6,1.3-25.3,1-38.8,2.8c-8.1,1.1-16.1,3.8-24,6.4c-6.1,2-12,4.9-18,7.2c-3.5,1.3-7.2,2.4-10.9,3c-3.8,0.6-7.9-0.7-10.7-3.4
		c-4.4-4.2-7.7-9.3-12.1-13.5c-1.4-1.4-3.5-2.4-4.6-4C310.8,416.6,337.6,413.2,365.4,414.1z"/>
	<path style="fill:#0363F7;" d="M155.7,505.7c-1.7,0.4-1.9,0.2-4.5-1.7c-4.2-6.5-7.1-14.6-2.1-22.3c1.2-1.8,3.8-2.2,4.3-2
		c-1.1,5.3-2,8.4-1.3,12.9C152.8,497.4,154.1,501,155.7,505.7z"/>
	<path style="fill:#0363F7;" d="M145.7,470c-0.3,1.3-0.2,2.9-0.5,4.2c-1.6,6-4,10.6-5.4,16.6c-0.8,3.2-0.4,6.6,0.7,9.8
		c1.5,4.4,3.1,8.8,4.9,13.2c0.4,1.1,0.3,2.5,1,3.4c-3.9-1.4-3-1.1-5.1-3.4c-4.4-4.9-5.4-11-6.3-17.1c-1.1-8,1.2-15.2,5.5-21.8
		c1.4-2.2,3.9-6.1,4.7-6.3C145.2,468.6,145.6,469.9,145.7,470z"/>
	<path style="fill:#0363F7;" d="M130.2,515.1c-1.9,0.9-5.2-3.9-7.1-5.9c-3.1-3.3-4.5-5.4-5.1-9.8c-0.2-1.7-0.6-4.2-0.4-5.9
		c0.6-6.2,2.1-11.8,5.2-17.2c1.6-2.9,5.1-7.8,8.2-9.5c0.4-0.2,0.9-0.4,1.3-0.5c0.1,0.5,0.2,1.1,0.2,1.6c-0.9,5.3-6.2,11.8-7.9,16.9
		c-1.9,5.8-2.3,11.7-0.2,18.1c0.5,1.4,2.1,3.3,2.8,4.6C128.4,509.9,128.8,511.6,130.2,515.1z"/>
</g>
<g id="Fills3">
	<path style="fill-rule:evenodd;clip-rule:evenodd;fill:#D8E7FF;" d="M183,540.5c-15.2-0.1-38.6,5.2-31.8,9.1
		c15.9,0.1,11.4,9.1,21.6,9.2c10.1,0,55.8-1.1,59.4,0.2c3.6,1.3,9.8,6.7,17.2,4.6c7.7-2.2,36.6-5.8,47.4-4.4
		c10.8,1.4,61.9,7.2,68,4.4c6-2.8,45.3-7.3,55.9-5.6s40.3,4.6,46.3,3.2c6-1.4,39-1.7,50.1-0.2c11.2,1.5,30.6-2.5,34-2.5
		c3.2,0,13.3-12.1,16.6-12.1c2.2,0,7.6-1.4,13.3-4.3c0-3-1.7-6.4-5-6.4c-4.9,0-298-3.6-310.9-2.3c-12.9,1.3-60.2,2.1-68.5,3.4
		C188,538.1,198.1,540.6,183,540.5z"/>
	<g id="C2P9L7_1_">
		<g>
			<path style="fill:#0363F7;" d="M656.3,530.7c-1.8,1.6-3.8,1.9-6.2,1.6c-4.6-0.4-9.3-0.3-14-0.3c-7.5,0-16.4,0.3-24,0.4
				c-9,0.1-18.1,0.3-27.1,0.5c-5.2,0.1-10.4-0.1-15.7,0c-5.3,0-10.6,0.3-15.9,0.3c-5.7,0.1-11.4,0-17.1,0
				c-5.6,0.1-11.2,0.3-16.8,0.3c-3.8,0-7.6-0.3-11.4-0.3c-5.5,0-11,0.2-16.5,0.2c-6.5,0-13,0-19.5,0c-8.9,0-17.8,0.1-26.8,0.1
				c-5.4,0-10.8-0.2-16.2-0.2c-5.8,0-11.5,0.4-17.3,0.4c-7.6,0.1-15.3,0-22.9,0c-10.7,0-21.3,0.1-32,0.1c-3.5,0-7-0.1-10.5-0.1
				c-3.6,0.1-7.2,0.3-10.9,0.4c-6.9,0.1-13.8,0.1-20.7,0.1c-10.1,0.1-20.1,0.2-30.2,0.2c-9.7,0.1-19.4,0.1-29.1,0.1
				c-10.1,0-20.3,0-30.4,0.1c-13.4,0.1-26.7,0.2-40.1,0.2c-6,0-11.9-0.2-17.9-0.2c-4.9-0.1-3.2,1.2-15.8,0.6
				c-7.3-0.3-16-0.6-23.4-0.5c-4.7,0.1-9.5-0.2-14.2-0.2c-1.8,0-3.5,0.2-5.3,0.1c-1.2-0.1-2.4-0.6-3.5-0.8c-0.4-3.8,0.3-4.7,3.2-4.7
				c6.9,0.2,14.9-0.3,21.8-0.2c8.2,0.2,15.3,1.1,23.6,1.2c5.4,0,10.9,0.6,16.3,0.7c8.4,0.1,19.3-1,27.6-1
				c19.1,0.1,35.6,0.6,54.7,0.5c3.8,0,7.6-0.7,11.4-0.8c2.6,0,5.2,1,7.8,0.7c2.9-0.4,4.3-0.2,12.4-0.6c0.4,0,0.7,0,1.1,0
				c12.7,0.2,25.4-0.9,38.2-0.8c4.2,0,8.4-0.4,12.6-0.4c5.2-0.1,10.5,0.5,15.7,0.5c31.1,0.1,62.3,1.3,93.4,1.4c3.5,0,7-0.7,10.6-1
				c2.2-0.2,4.4-0.1,6.6-0.1c3.4-0.1,6.7-0.2,10.1-0.3c1.9,0,3.8,0.3,5.8,0.3c7.7,0.1,15.5,0,23.2,0.1c6.2,0.1,12.4,0.3,18.6,0.3
				c6.2,0,12.5-0.5,18.7-0.5c9.4-0.1,18.7,0.2,28.1,0.1c3.6,0,7.2-0.4,10.9-0.5c3.7,0,7.4,0.2,11.1,0.2c4,0,8,0,12-0.1
				c9.3-0.1,18.6-0.1,27.9-0.3c4.4-0.1,8.7-0.7,13.1-0.6c3.3,0.1,6.4,0,9.6-0.7C653.9,526.4,658.8,527.7,656.3,530.7z"/>
		</g>
	</g>
	<path style="fill:#0363F7;" d="M625.6,472.9c9.4,3.2,12.6,8.1,13.2,17.8c0.7,6-0.8,10.6-3.7,15.5c-1.3,2.2-2.5,4.8-4.2,6.6
		c-0.4,0.5-1.8-0.3-2.6-0.1c1.4-3.8,2.7-6.6,3.9-10.2c3.1-9.8,2.3-18.6-4.9-26.3C626.5,475.2,626.3,473.9,625.6,472.9z"/>
	<path style="fill:#0363F7;" d="M607,468.9c0.4-0.1,2.2,0.1,2.4,0.2c5.2,2.1,8.2,4.4,10.8,9.7c1.8,3.8,3.4,9,3.7,13.2
		c0.5,8.8-2,16.9-8.1,23.4c-2,2.1-4.4,1.8-7,3.3c-0.4,0.2-1,0.2-1.2,0.6c-0.5,1.3-1.6,0.6-2.4-0.2c-0.1-0.1,0.4-1.2,0.8-1.7
		c2.4-3.2,5.5-6,7.1-9.5c2.1-4.6,3.6-7.2,3.9-12.4c0.4-6.4-0.3-14.5-4.1-19.8c-1.5-2.2-4.2-2.1-6-4.1
		C606.8,471.5,606.6,469.9,607,468.9z"/>
	<path style="fill:#0363F7;" d="M599.7,478.9c1.7-3.4,7.1,6.5,7.8,10.4c0.9,7.7-1.4,13.5-7.3,18.5c-1.4,1.2-3.1,2.2-4.6,3.3
		c-0.2-0.2-0.2-0.2-0.4-0.4c0.4-0.9,0.7-1.7,1.2-2.6c1.8-3.6,4-7,5.4-10.7c1.2-2.9,2.2-5.3,1.4-8.5
		C602.5,486.7,600.6,481,599.7,478.9z"/>
	<path style="fill:#0363F7;" d="M363.9,412.6c-9.5-8.5-20.1-13.8-31.2-18.4c-0.7-0.3,0.2,0.7-0.4,0c0.9-0.2,3.1-2.5,3.9-2.2
		c9.5,2.9,15.3,5.8,24.6,9.1c6.9,2.5,14.7,5.4,21.4,8.4c5.8,2.6,12,4.6,17.6,7.6c2.6,1.4,4.2,4.5,6.4,6.7c0.1,0.1-1.4,3.6-2,3.7
		c-13.6,1.3-23.6,0.5-37.1,2.4c-8.1,1.1-19.4,3.8-27.3,6.3c-6.1,2-10.5,4.8-16.6,7.1c-3.5,1.3-9,3.8-12.8,4.4
		c-3.8,0.6-6.6-2.4-9.4-5.1c-4.4-4.2-9.1-8.1-13.5-12.3c-1.5-0.4-2.3-2.2-3.4-3.7C309.5,415.8,336.2,411.7,363.9,412.6z"/>
	<path style="fill:#0363F7;" d="M154.9,506.8c-1.7,0.4-3.1-0.4-4.1-1.8c-4.4-6.4-7.2-15.4-2.5-23.2c0.8-1.3,1.1-2.9,3.6-3.6
		c-1,5.3-3.1,10-1.8,14.9C151.4,497.7,153.3,502.2,154.9,506.8z"/>
	<path style="fill:#0363F7;" d="M145.9,472.3c-0.3,1.3-0.5,2.1-0.8,3.4c-1.6,6-2.9,9.1-4.3,15.1c-0.8,3.2-0.4,6.6,0.7,9.8
		c1.5,4.4,3.1,8.8,4.9,13.2c0.4,1.1,0.3,2.5,1,3.4c-3.9-1.4-3-1.1-5.1-3.4c-4.4-4.9-5.4-11-6.3-17.1c-1.1-8,1.2-15.2,5.5-21.8
		c1.4-2.2,2.8-4.5,4.4-5.5C145.8,470.1,145.8,472.2,145.9,472.3z"/>
	<path style="fill:#0363F7;" d="M130.7,514c-3.5-0.4-4.9-3.1-6.8-5.1c-3.1-3.3-4.9-7.1-5.4-11.6c-0.2-1.7-0.2-3.4,0-5.1
		c0.8-6.2,2.4-11.8,5.6-17.1c1.7-2.8,4.4-8.2,7.5-9.8c0.4-0.2,1.8,0.2,2.3,0c-0.4,1.6-1.2,3.4-1.3,3.9c-1,5.3-5.4,7.6-7.2,12.6
		c-2,5.8-2.8,13.7-0.9,20.2c0.4,1.4,1.1,2.8,1.8,4.1C127.7,508.7,130.3,509.9,130.7,514z"/>
</g>
<g id="Lines">
	<path style="fill:#002955;" d="M388.1,500.3c7.7-0.2,15.4-0.2,23.1-0.4c10.4-0.3,20.8-0.7,31.2-1.2c6.8-0.4,13.5-1.2,20.3-1.5
		c11.1-0.4,22.2-0.1,33.2-0.9c17.1-1.2,34.1-3.1,51.1-4.7c3-0.3,6-0.6,9.1-0.4c-3.6,0.7-7.1,1.5-10.7,2c-3.6,0.6-7.1,1.2-10.7,1.5
		c-11,0.9-22,1.7-33,2.5c-9.4,0.7-18.8,1.3-28.2,1.8c-9.7,0.5-19.3,0.9-29,1.3"/>
	<path style="fill:#002955;" d="M291.9,495.4c-0.7,0.3-1,0.5-1.4,0.5c-13-0.4-26-0.8-38.9-1.3c-10.3-0.4-20.5-1.1-30.7-1.7
		c-6.8-0.4-13.5-1-20.3-1.4c-2.7-0.2-5.5-0.1-8.2-0.2c-0.5,0-1-0.7-1.5-1c0.4-0.3,0.9-0.8,1.3-0.8c5.7,0.2,11.4,0.6,17.1,0.7
		c7,0.2,14.1,0,21.2,0.3c4.6,0.2,9.1,1,13.6,1.4c4.5,0.4,8.9,0.9,13.4,1.2c11.1,0.7,22.2,1.3,33.3,2
		C291,495.1,291.2,495.2,291.9,495.4z"/>
	<path style="fill:#002955;" d="M247.4,391.9c24.5,6.3,47.3,0.2,69.9-9.4c-0.9,0.8-1.8,1.8-2.9,2.3c-4.5,2.1-8.9,4.5-13.6,5.8
		c-9.4,2.5-18.8,5.1-28.4,6.3c-6.6,0.8-13.5-0.5-20.2-1.3c-1.9-0.2-3.6-1.8-5.4-2.8C247.1,392.5,247.2,392.2,247.4,391.9z"/>
	<path style="fill:#002955;" d="M435.1,427.6c-0.5,1.6-0.4,2.6-0.9,3c-5.4,4.9-10.8,9.7-16.3,14.5c-6.3,5.5-12.6,11.1-19,16.5
		c-4.4,3.7-9,7-13.7,10.3C401.6,457.4,417.9,442.9,435.1,427.6z"/>
	<path style="fill:#002955;" d="M366.4,473.9c4.5-4,8.9-8.1,13.4-12c9.6-8,19.3-16,28.9-23.9c0.7-0.6,1.4-1.4,2.1-2
		c0.5-0.4,1.1-0.5,1.7-0.8c-0.1,0.8,0.1,1.9-0.3,2.3c-2.1,1.9-4.3,3.7-6.5,5.4c-10.6,8.6-21.3,17.2-31.9,25.8
		c-2.1,1.7-4.1,3.5-6.2,5.3c-0.2,0.2-0.6,0.3-0.9,0.4C366.6,474.2,366.5,474,366.4,473.9z"/>
	<path style="fill:#002955;" d="M255.2,419.8c-12.8,9.3-25.7,18.6-38.5,27.8c-2.1,1.5-4.1,3.3-6.4,4.3c-1,0.5-2.8-0.5-4.2-0.9
		c0.7-1,1.2-2.2,2.2-2.8c14.1-9.1,28.2-18.2,42.3-27.2c1.3-0.8,2.8-1.4,4.2-2C254.9,419.3,255,419.6,255.2,419.8z"/>
	<path style="fill:#002955;" d="M230,378.9c-2.9-1.7-5.9-3.3-8.6-5.3c-5.2-3.6-10.2-7.3-15.3-11c-0.6-0.5-1.2-1.1-1.6-1.8
		c-0.2-0.3,0-0.9,0.2-1.4c0-0.1,0.6-0.1,0.8,0c8.1,6.1,16.2,12.3,24.2,18.4c0.2,0.2,0.5,0.4,0.7,0.6
		C230.2,378.5,230.1,378.7,230,378.9z"/>
	<path style="fill:#002955;" d="M506.5,438.3c-4.9,3.2-12.3,7.6-17.1,10.8c-0.3-0.4-0.5-0.8-0.8-1.2c4.9-3.2,9.7-6.4,14.6-9.7
		C503.4,438.7,506.2,437.9,506.5,438.3z"/>
	<path style="fill:#002955;" d="M292.3,495.4c0.9,0,1.7,0,2.6,0c0,0.1,0,0.2,0,0.3c-0.9,0-1.7,0-2.6,0
		C292.3,495.6,292.3,495.5,292.3,495.4z"/>
	<polygon style="fill:#002955;" points="177.6,495.7 177.6,495.7 177.6,495.7 	"/>
	<path style="fill:#002955;" d="M589.6,491.9c-0.2-4.3-2.8-15.2-4.6-17.8c-3.5-5-6.6-8.9-10.8-13.5c-6.8-7.3-14.7-10.6-23.6-14.5
		c-10.6-4.6-19.7-9.5-30.3-14.1c-6-2.6-11.5-6.1-17.6-8.6c-7.4-3-15.2-5.3-22.8-8c-2.8-1-6.3-3.5-8.2-5.4c-2.8-2.9-5.7-4.5-9.4-5.5
		c-2.6-0.7-5-0.8-7.5-1.7c-0.8-0.3-1.7-0.4-2.2-0.9c-2.1-2-6.3-0.6-7.4-4.7c-0.2-0.6-0.6-1.2-1-1.7c-3.3-3.5-7.2-6-12.3-5.9
		c-0.2,0-0.5-0.4-0.7-0.6c-2.9-2.4-5.5-5.8-8.8-7c-3.8-1.3-6.5-3.5-9.1-6.2c-1.6-1.6-3.5-2.9-5.4-4.1c-1.1-0.7-2.6-0.5-3.7-1.2
		c-5.4-3.1-10.7-7.3-16-10.4c-0.3-0.2-0.6-0.2-0.9-0.3c-3.2-1-6.5-1.8-9.4-3.2c-2.8-1.3-5.3-0.6-7.8-2.4c-1.7-1.3-3.5-2.5-4.7-4.2
		c-3.2-4.5-7.5-10.9-12.7-16.8c-3.9-3.4-7.9-7.5-11.8-7.2c-5.6,0.3-10.5,3.9-14,8.5c-4,6.4-4.3,16.9-8.2,20.7
		c-6.3,6.2-13,12.3-20.2,17.3c-4.4,3-10.1,4.5-15.5,5.8c-8.2,2-16.3,4.9-23.7,0.7c-9.4-5.3-13.8-21.8-19.7-30.5
		c-6.5-9.6-12.8-19.3-23.5-24.6c-2.2-1.1-5.9-1.6-7.8-0.4c-6.8,4.2-10.3,10.4-11.9,17.8c-0.7,3.2-0.2,7-1.6,9.8
		c-7.2,14.2-14.1,33.1-17.1,48.7c-3.1,16-5.9,32.9-5.9,49.3c0,5.8,0,11.6,0,17.5c-0.7,1.3-1.9,2.8-2.6,4.6c-1.5,3-2.8,7-3,7.9
		c-1.3,5.1,0,10.9,1.5,15.8c0.1,0.2,0.2,0.4,0.3,0.6c-0.4,3.2-0.8,7.2-0.4,9.1c1.1,5.6,5.4,9.3,9.5,12.8c2.8,2.4,5.7,5.2,9.1,6.4
		c6.1,2.1,12,5.5,18.7,5.9c0.2,0,0.4,0.4,1.2,1l15.2,0.8l7.3-1.3c-0.1,0-0.3,0-0.4,0c3.2-4.5,8.9-4.3,12.6,0.1l4.1,1l19-0.2l4.2-1.2
		l-0.2,0c1.7-2.6,3.5-4.4,6.7-3.5c3.2,1,6.6,1.7,9.9,2.5c-0.1,0.3,3.1,0.7,3,1l21.4,0.7l6.4-1.2c-0.2,0-0.4,0-0.5,0
		c0.5-0.3,0.9-0.5,1.3-0.7c0.2-0.1,0.4-0.2,0.6-0.3c0.2-0.1,0.5-0.2,0.7-0.3c0.3-0.1,0.5-0.2,0.8-0.3c0.2-0.1,0.3-0.1,0.5-0.2
		c0.3-0.1,0.6-0.2,0.9-0.3c0.1,0,0.2-0.1,0.3-0.1c0.3-0.1,0.6-0.2,1-0.3c0.1,0,0.2,0,0.2-0.1c0.3-0.1,0.7-0.1,1-0.2
		c0.1,0,0.1,0,0.2,0c0.3-0.1,0.7-0.1,1-0.1c0,0,0.1,0,0.1,0c0.4,0,0.7,0,1-0.1c0,0,0,0,0.1,0c0.4,0,0.7,0,1,0c0,0,0,0,0,0
		c2.4,0.2,4.6,1.2,6.6,3l4,1l19.1,0.7l5.9-2c-0.3-0.3,2.6-0.5,2.3-0.8c0.7-0.3,1.3-0.7,2-0.8c3.3-0.6,6.6-1.3,9.9-1.4
		c1.4-0.1,3,1.1,4.4,1.7c-0.1,0.4,1.8,0.8,1.7,1.2c0.7,0,4.3,1,4.3,1l23.8,0.6l4.5-2l0.6-0.4c4.3-0.8,8.6-3.5,12.9-0.3l6.3,1.6
		l15.3,0.6l7.5-1.1c4.5-4.5,12.1-6.2,17.4-3.9c2.4,1,5,1.7,7.5,2.5c0,0.1,7,1.2,7,1.3l7.4-1.2c4.4-3.1,8.3-5.2,11.4-8.2
		c2.2-2,4.3-2.6,6.9-2.4c1.7,0.2,3.5,0.3,5.2,0.6c10.6,2,20.9-0.1,31-3.1C560,511.7,570,509,580,503c4.5-2.7,8-4,9.9-10.9
		L589.6,491.9z M329.2,342.4c1.9-4.4,2.9-7,6.2-9.3c1.5-1.1,4.4-1.2,6.2-0.6c8.3,2.7,13.1,12.3,19.3,19c-7-1.3-13.7-1.7-19.9,1.7
		c-5.9,3.2-11.6,6.7-17.4,10.1c-0.3-0.1-0.7-0.2-1-0.3C324.4,358.3,326.6,346.7,329.2,342.4z M320.3,360.8c1.7,6.5-4.5,6.7-7.8,9.1
		c-2.1,1.5-4.8,2.1-7,3C310.3,368.9,315.4,364.8,320.3,360.8z M375.5,519.5c0-0.3,0.1-0.6,0.1-0.9c15.3,0.1,30.7,0.3,46.3,0.4
		C413.2,527.2,387.6,527.3,375.5,519.5z M579,495c-5.4,4.3-10,6.3-16.8,8.3c-4.5,1.3-8.8,3.6-13.4,4.8c-6.1,1.6-12.2,3-18.5,3.7
		c-5,0.5-10.2,0-15.3-0.4c-3.9-0.3-7.3,0.1-10.2,3.1c-7.7,7.8-16.9,9.7-27.2,6.2c-2.2-0.8-4.4-1.6-6.7-2.2c-0.9-0.2-2.1-0.1-3,0.2
		c-4.7,1.5-9.2,3.7-14,4.6c-7,1.3-14.3,3-21.4,0.1c-2.9-1.2-5.7-2.5-8.9-3.9c12.7-0.7,27.9-2.4,40-3.1c11.5-4.6-12.6-3.8-17.9-2.7
		c-2.4,0.5-5.1,1.2-7.7,1.1c-7.5-0.2-14.9-0.6-22.4-0.7c-3.1-0.1-6.1,0.4-9.2,0.5c-2.7,0.1-5.3,0-8,0c-4.3-0.1-8.6-0.1-12.9-0.2
		c-6.1-0.2-12.1-0.6-18.2-0.8c-13.8-0.4-27.7-0.9-41.5-1.2c-8.7-0.2-17.5-0.1-26.3-0.3c-4.5-0.1-9-0.8-13.4-1.1
		c-2.4-0.1-4.8,0-7.1,0c-8.8-0.2-17.5-0.5-26.3-0.7c-2.9-0.1-5.8,0.1-8.7,0c-7.5-0.2-15.1-0.4-22.6-0.7c-2.4-0.1-4.8,0-7.1-0.5
		c-3.8-1-7.5-0.1-11.2,0.5c-0.8,0.1-1.4,1.7-2.1,2.5c0.7,0.5,1.5,1.5,2.2,1.5c7.4,0.4,14.8,0.6,22.2,0.9c11.5,0.4,23,0.8,34.5,1
		c8.4,0.2,16.8,0.1,25.2,0.2c14.3,0.3,28.6,0.6,42.9,1c10.9,0.3,21.9,0.8,32.8,1.1c4.2,0.1,8.4,0.1,12.6,0.1
		c0.1,0.4,0.1,0.8,0.2,1.2c-4.6,1.3-9.1,3-13.8,3.8c-8.5,1.4-17.1,3.4-25.6,0.1c-1.4-0.6-2.9-1.1-4.1-2c-4-3.1-7.9-1.3-11.8-0.1
		c-7.3,2.3-14.7,4.3-22.4,4.2c-2.8,0-5.7-0.5-8.4-1.3c-3.4-0.9-6.5-2.4-9.9-3.4c-4.1-1.3-8.1-0.5-12,1.2c-7.8,3.3-15.9,4.7-24.1,1.4
		c-6.5-2.7-12.5-2.9-18.8,0.4c-2,1-4.7,1.6-6.9,1.3c-5.9-0.9-11.9-2-17.5-3.9c-3.6-1.2-6.6-4.1-9.9-6.2c-0.7-0.4-1.4-1-2.2-1.2
		c-5.3-1.4-7.8-4.8-8-10.4c-0.1-4.1-0.5-4.7-0.8-7.6l0,0l-0.5-0.2c-0.9-3.5-2.5-11.5-2.9-12.7c-0.5-1.2-0.9-8.6-1.3-12.7
		c0.1-0.2,0.4-0.4,0.5-0.5c0.1,0,0.2-0.1,0.3-0.1c3.6-1.4,3.2-4.4,3-7.5c-0.2-3.1,0-6.1-0.1-9.2c0-4.5-0.3-9,0-13.4
		c0.6-7.2,1.3-14.5,2.6-21.6c1.7-9.6,3.4-19.1,5.9-28.5c2.7-9.6,8.3-19,11.5-28.5c1.3-3.8,3.5-11.8,3.5-15.6
		c-0.1-5.4,2-9.7,3.9-14.3c2.9-7.1,8.2-7.1,13.7-3.5c6.4,4.2,9.7,11,13.9,17c7.1,10.1,11.8,28.8,22,36.4c1.1,0.8,2.3,1.4,3.5,2.1
		c11.1,6.4,22.8,0.8,34.3-1.7c7.4-1.6,14.8-3.7,21.6-6.9c7.9-3.7,15.1-8.8,22.5-13.5c8.7-5.4,17.8-6.6,27.4-2.9
		c3.7,1.4,7.9,2.4,10.8,4.8c2.9,2.3,5.1,5.9,6.7,9.4c2.5,5.4,4.1,11.2,6.5,16.6c0.6,1.4,2.8,2.2,4.2,3.3c2.3-0.4,2.7-3.3,2.6-4.9
		c-0.3-3.9-1.4-7.8-2.2-11.7c-0.3,0-0.7-0.1-1-0.1c-0.2,0.7-0.5,1.4-0.4,2.1c0.3,3.5,0.7,7,1,10.5c0,0.4-0.4,0.8-0.6,1.3
		c-0.3-0.3-0.8-0.5-0.9-0.8c-2.2-5.8-4.4-11.6-6.6-17.3c-0.8-2.1-1.9-4.1-2.9-6.1c0.2-0.3,0.5-0.7,0.7-1c1.6,0.8,3.4,1,5.2,2.9
		c1.8,2,3.2,3.1,6.3,3.1c5,0.1,8.1,3.8,10,8.3c2.4,5.8,4.9,11.6,7.4,17.4c1.2,2.9,3.6,5.5,6.6,4.5c3.3-1.1,1.7-4.9,1.2-7.2
		c-0.4-2.1-1.3-4.1-2-6.1c-0.4,0.1-0.8,0.2-1.1,0.3c0.4,3.3,0.9,6.6,1.3,10c-3.1,3.1-7.4-14.1-11-21.4c1.6,1.3,3.2,2.6,4.8,4
		c2.1,1.9,4,4.1,6.3,5.9c0.9,0.7,2.6,0.4,3.9,0.7c6.2,1.7,8.2,6.9,9.8,12.3c1.2,3.9,2.6,8.7,4.4,12.3c0.8,1.6,2.7,3.6,4,3.6
		c2.9,0,3.4-3.7,3.1-6.2c-0.5-2.9-1.2-5.8-1.8-8.6c-0.4,0-0.8,0.1-1.2,0.1c0.1,1.8,0.2,3.7,0.3,5.5c0.1,1,0.3,1.9,0.2,2.9
		c-0.1,0.9-0.4,2.7-0.6,3.5c-0.6-0.7-1.5-1.2-1.8-2c-2-4.9-4-10.7-5.9-15.6c0.3-0.4,0.7-0.7,1-1.1c3.3,2.2,6.8,4.2,9.9,6.6
		c2.1,1.6,3.2,3.8,6.7,4.5c6.3,1.2,9.7,2,12,11.2c1.2,4.9,3.5,9.6,5.8,14.2c0.9,1.7,3.1,1.9,4.5-0.3c1.8-2.7,1.3-10.1-1.2-12.1
		c-0.1,0.9-0.2,1.5-0.2,2.1c0,2.5,0.1,5,0,7.5c0,0.4-0.5,1.2-0.8,1.2c-0.4,0-1.1-0.4-1.3-0.8c-1.2-2.6-4.1-11.5-4.6-13.3
		c-0.5-1.7-1.3-3.4-2.3-6c3,1.5,5.7,2.4,7.8,4c3.8,2.8,7.4,5.1,12.2,6.5c9.6,2.9,18.7,7.6,28,11.7c9.4,4.1,18.9,8.3,28.2,12.6
		c9.6,4.5,16.4,9.1,25.7,14.2c4.1,2.3,7.5,6,11.2,9.1c-0.2,0.3-0.3,0.7-0.5,1c-4.2,0.3-8.4,0.7-12.6,0.9c-8.4,0.6-14.1,1.1-22.5,1.7
		c-7.3,0.5-14.6,1.1-21.8,1.8c-6.3,0.6-12.5,1.4-18.8,1.8c-9.2,0.6-40.1,3-46.4,3.8c-4.4,0.6-18.1,2.3-28.6,3.4l-2.6-0.1
		c-7.5,0.8-13.9,1.4-16.4,1.7c-15.3,1.8-30.5,1.2-45.8-0.6c-3.5-0.4-21.9-2.8-35.3-4.7l-31.4-1c7.3,1.4,18.6,3.7,22.8,4.4
		c5.4,0.9,28,4.3,33.9,4.8c8.4,0.7,16.8,1.6,25.2,1.9c6.7,0.3,13.4,0,20.2-0.3c4.5-0.2,15.7-0.5,34.1-2.3c5.4-0.5,10.7-1.6,16.1-2.5
		l0.5,0c7.3-0.8,21.7-2.1,29.1-2.7c9.7-0.8,19.5-1.4,29.2-2.3c7.6-0.7,37.1-3.1,44.3-3.8c10.9-1.1,19-2.4,29.9-3.8
		c2.3-0.3,7,14.1,9.5,21l-2,1.8L579,495z"/>
</g>
</svg>
