<svg version="1.1" id="Layer_1" xmlns="http://www.w3.org/2000/svg" xmlns:xlink="http://www.w3.org/1999/xlink" x="0px" y="0px"
	 viewBox="0 0 299.3 309.2" style="enable-background:new 0 0 299.3 309.2;" xml:space="preserve">
<g id="Shadows1">
	<path d="M64.8,276.5c-17.4,0.2-35.5-1.3-40.6,0.7s-20.9,1.3-22.8,4.6s4,6,13.7,5.9s32.4,4.4,50.8,3.1c18.8-1.4,45.9-2.5,51.8-4.3
		c5.9-1.8,18.8-7.4-0.1-10.2C98.5,273.4,82.2,276.3,64.8,276.5z"/>
	<path d="M62.2,276.3c-17.4-0.2-31.1-0.7-37.4-0.5c-5.5,0.2-17.6,1.7-20.5,3.5c-3.2,2-3,7.1,6.6,8.2c9.7,1.1,35.8,2,54.1,4
		s48.2-5.8,53.6-6.3c6.1-0.6,18.8-7.4-0.4-9.6S79.5,276.5,62.2,276.3z"/>
	<path d="M62,277.7c-17.4,0-32.2-3.2-37.4-1.2c-5.1,1.9-20.9,1.1-22.8,4.4c-2,3.3,4.8,5.7,14.5,5.7s31.1,3.4,49.4,5.2
		s46.4-4.9,52.3-6.6c5.9-1.8,19.2-6.6,0-8.6C98.8,274.4,79.4,277.7,62,277.7z"/>
</g>
<g id="Shadows2">
	<path d="M275.2,291.4c-7.5,0.1-11-1-13.2,1.1s2.4,6-28.2,6.9c-37.2,1.1-7.7,5.4-3.2,5.9c4.2,0.4,35.3,3.9,44.4,2.5
		c9.1-1.5,15.8-2.4,18.3-4.3s10-2.1,5.2-5.9C291.7,292.3,282.7,291.3,275.2,291.4z"/>
	<path d="M275.8,291.8c-7.5-0.1-13.6,0-15.8,2.1c-2.2,2.1,3.9,3.2-29.3,5.9c-36.2,2.9-4.2,5.1-0.1,5.2c4.2,0,30.6,3.5,39.7,2.2
		s22.5-2.3,25.1-4.2c2.6-1.9,8.3-4.1,0.1-6.4C287.2,294.3,283.3,291.8,275.8,291.8z"/>
	<path d="M275.8,291c-7.5,0-15.3,2.5-17.5,4.6s3.4-0.1-32.7,4c-34.4,3.9,19,8,21.3,6.6c3.6-2.2,15.8,2.6,25,1.2
		c9.1-1.4,21.2-3.6,23.7-5.5s8.3-4.2,0-6.4C287.3,293.4,283.3,291,275.8,291z"/>
</g>
<g id="Leg">
	<path d="M61.8,157.9c-3.5-0.7-6.5-1.9-9.2-4.1C54.9,153.6,60,155.9,61.8,157.9z M52.1,158.5c2.4,1.8,5.2,2.4,8.1,2.3
		c0-0.1,0.1-0.3,0.1-0.4c-2.7-0.8-5.4-1.7-8.1-2.5C52.3,158.1,52.2,158.3,52.1,158.5z M63.4,168.7c-0.4,0-0.8,0-1.1,0.1
		c-1.9,1.4-4.2,2-6.1,3.9C59.4,172.3,62.5,170.5,63.4,168.7z M66.3,172.6c-2.1,0.5-3.1,2.1-2.4,4C64.8,175.2,66,174.3,66.3,172.6z
		 M61.4,165.5c-2.3-0.3-4.6,0.2-6.9,0.6C56.8,166.7,59.1,166,61.4,165.5z M36.4,157.9c-0.1-0.3-0.2-0.6-0.4-0.9
		c-1.6-3.2-3.7-6.1-6-8.9c-1.9-2.3-3.8-4.7-5.7-7c-0.2-0.2-0.3-0.5-0.6-0.9c1.5,0.6,2.8,1.1,4.1,1.5c3.8,1.4,7.6,2.7,11.4,4
		c1.5,0.5,3.2,0.8,4.8,1.1c0.7,0.1,1.4-0.1,2.1-0.3c0.2,0,0.4-0.4,0.4-0.5c0-0.8,0-1.5-0.1-2.3c-0.3-1.8-0.6-3.6-0.8-5.3
		c-0.3-2.3-0.6-4.7-1.5-6.9c-0.5-1.2-0.9-2.4-1.9-3.3c0,0.2-0.1,0.3-0.1,0.4c0,0.2,0.1,0.5,0.2,0.7c0.9,2.7,1.3,5.4,1.4,8.2
		c0.1,2.3,0.3,4.6,1,6.8c0.1,0.5,0.2,1,0.4,1.7c-0.4-0.1-0.7-0.1-1-0.2c-2-0.6-3.9-1.3-5.8-2c-3.4-1.2-6.9-2.4-10.3-3.7
		c-1.3-0.5-2.5-1.1-3.7-1.6c-0.8-0.3-1.5-0.4-2.3,0.3c0.1,0.3,0.2,0.6,0.3,0.8c1.4,2.1,2.7,4.1,4.2,6.2c2,2.8,4,5.5,6.1,8.2
		c1.3,1.7,2,3.8,2.8,5.8c0,0.1,0,0.2-0.1,0.3s-0.3,0.1-0.4,0.2c-3.1,1.1-6.3,2.2-9.4,3.2c-1.6,0.6-3.2,1.2-4.7,2.1
		c-0.2,0.1-0.5,0.3-0.6,0.6c-0.1,0.2-0.1,0.6,0,0.8c0.1,0.1,0.5,0.1,0.8,0.1c1.8-0.6,3.5-1.3,5.3-2c2.2-0.8,4.3-1.6,6.5-2.4
		c1.4-0.5,2.7-1.1,4.1-1.7c0.4-0.2,0.7-0.5,1.2-0.9C36.9,159.5,36.6,158.8,36.4,157.9z M63.2,197.6c0.3-0.6,0.7-1.1,1-1.7
		c1.3-2.8,3.1-5.3,4.8-7.8c0.7-1,1.4-2.1,2-3.2c0.2-0.4,0.3-0.8,1-0.6c-0.1,1.2-0.5,2.3-1.2,3.2c-1.3,2-2.8,3.9-4.1,5.9
		c-1.1,1.7-2.1,3.4-3.2,5.1c-0.2,0.3-0.4,0.6-0.6,1c-1.2-0.6-1.7-1.5-1.9-2.7c-0.2-2.3-0.1-4.6,0-6.9c0.1-1.3,0-2.6,0-3.9
		c0-0.3-0.1-0.5-0.1-1c-0.4,0.3-0.7,0.4-0.9,0.7c-3.9,4.1-7.8,8.1-11.4,12.5c-1.2,1.5-2.5,2.9-3.8,4.4c-0.3,0.3-0.7,0.5-1,0.8
		c-0.7-0.4-0.7-1-0.6-1.6c0.4-2.3,0.8-4.5,1.3-6.8c0.4-1.8,0.9-3.6,1.4-5.4c0.2-0.7,0.4-1.4,1-2.3c0.1,1.6-0.4,2.9-0.5,4.2
		s-0.4,2.6-0.6,3.9c-0.2,1.3-0.4,2.6-0.7,4.3c0.4-0.3,0.5-0.5,0.7-0.6c2.5-3.1,4.8-6.4,7.9-9c2.1-1.8,4-3.8,6.5-5.2
		c0.4-0.2,0.6-0.6,0.9-0.9c0.3-0.3,0.6-0.5,1.1-1c0.1,1.1,0.2,2,0.3,2.8c0.1,3.1,0.1,6.3,0.2,9.4c0,0.7,0.1,1.5,0.2,2.2
		C62.9,197.5,63.1,197.5,63.2,197.6z M40.3,177.7c-0.1,0.2-0.2,0.5-0.4,0.7c-1.6,1.8-3.1,3.5-4.7,5.2c-1.6,1.7-3.3,3.4-4.9,5
		c-0.3,0.3-0.8,0.6-0.6,1.4c0.4-0.2,0.8-0.3,1.2-0.5c4.3-2.1,8.5-4.1,12.8-6.1c0.9-0.4,2-0.7,2.9-1.1h0.1c0.4-0.1,0.9-0.2,1.1,0.3
		c0.2,0.4-0.2,0.7-0.5,0.9c-1.1,0.6-2.2,1.1-3.3,1.6c-2.1,1-4.2,2-6.4,3c-1.5,0.7-3.1,1.4-4.7,2.1c-2.1,1-4.3,1.9-6.4,2.8
		c-0.2,0.1-0.6,0.1-0.7,0c-0.2-0.2-0.3-0.5-0.2-0.8c0.1-0.5,0.4-1,0.7-1.3c1.9-2.5,4-4.7,6.3-6.7c2.2-1.9,4.3-4,6.5-5.9
		c0.3-0.3,0.7-0.6,1-0.8C40.2,177.6,40.3,177.7,40.3,177.7z M41.5,175.9c-1.2,0.2-2.1-0.1-3.1-0.6c-3.7-1.9-7.4-3.8-11.1-5.7
		c-1.5-0.7-3-1.4-4.5-2.1C26.1,167.4,40.2,174,41.5,175.9z M45.9,130.1c0.8,0.5,12.2,11.2,12.5,11.8c-0.2,0.1-0.5,0.2-0.6,0.2
		c-0.3-0.1-0.7-0.3-1-0.5c-3.5-2.6-6.7-5.7-9.6-9C46.5,131.6,46.2,131,45.9,130.1z"/>
	<path d="M60.9,157.9c-3.5-0.7-6.5-1.9-9.2-4.1C54.1,153.6,59.2,155.9,60.9,157.9z M53,158.5c2.4,1.8,5.2,2.4,8.1,2.3
		c0-0.1,0.1-0.3,0.1-0.4c-2.7-0.8-5.4-1.7-8.1-2.5C53.1,158.1,53,158.3,53,158.5z M62.6,168.7c-0.4,0-0.8,0.8-1.1,1
		c-1.4,1-2.9,0.7-5.2,3C59.4,172.3,61.7,170.5,62.6,168.7z M65.5,172.6c-2.1,0.5-3.1,2.1-2.4,4C64,175.2,65.2,174.3,65.5,172.6z
		 M60.5,165.5c-2.3-0.3-4.6,0.2-6.9,0.6C56,166.7,58.2,166,60.5,165.5z M36.9,160.1c-0.5,0.4-0.8,0.7-1.2,0.9
		c-1.3,0.6-2.7,1.1-4.1,1.7c-2.2,0.8-4.3,1.6-6.5,2.4c-1.8,0.7-2.7,1.3-4.5,2c-0.2,0.1-0.7,0.1-0.8-0.1c-0.1-0.2-0.1-0.6,0-0.8
		s0.6-0.2,0.9-0.3c1.5-0.9,2.8-1.8,4.5-2.3c3.1-1.1,5.4-2.1,8.6-3.2c0.2-0.1,0.3-0.1,0.4-0.2c0-0.1,0.1-0.2,0.1-0.3
		c-0.8-2-1.4-4-2.8-5.8c-2-2.7-3.2-5.4-5.2-8.2c-1.4-2-2.8-4.1-4.2-6.2c-0.2-0.2-0.2-0.5-0.3-0.8c0.7-0.7,0.6-0.6,1.4-0.3
		c1.2,0.5,2.5,1.1,3.7,1.6c3.4,1.3,6.9,2.5,10.3,3.7c1.9,0.7,3.9,1.3,5.8,2c0.3,0.1,0.5,0.1,1,0.2c-0.2-0.7-0.2-1.2-0.4-1.7
		c-0.7-2.2-0.9-4.5-1-6.8c-0.1-2.8,0.2-4.7-0.6-7.3c-0.1-0.2-0.1-0.5-0.2-0.7c0-0.1,0-0.2,0.1-0.4c1.1,0.9,0.6,1.3,1.1,2.5
		c0.9,2.2,1.2,4.5,1.5,6.9c0.3,1.8,0.6,3.6,0.8,5.3c0.1,0.7,0.1,1.5,0.1,2.3c0,0.2-0.2,0.5-0.4,0.5c-0.7,0.2-1.4,0.4-2.1,0.3
		c-1.6-0.3-3.2-0.5-4.8-1.1c-3.8-1.3-7.6-2.7-11.4-4c-1.3-0.5-2.6-1-4.1-1.5c0.3,0.5,0.4,0.7,0.6,0.9c1.9,2.3,3.8,4.7,5.7,7
		c2.3,2.8,4.3,5.7,6,8.9c0.2,0.3,0.3,0.6,0.4,0.9C35.7,158.8,36,159.5,36.9,160.1z M62,197.5c-0.1-0.7-0.2-1.5-0.2-2.2
		c-0.1-3.1-0.1-6.3-0.2-9.4c0-0.9-0.2-1.7-0.3-2.8c-0.5,0.5-0.8,0.7-1.1,1s-0.6,0.6-0.9,0.9c-2.4,1.4-3.5,4.2-5.6,6
		c-3,2.6-6.2,5.1-8.7,8.2c-0.1,0.2-0.3,0.3-0.7,0.6c0.3-1.6,0.5-2.9,0.7-4.3c0.2-1.3,0.4-2.6,0.6-3.9c0.1-1.3,0.6-2.6,0.5-4.2
		c-0.6,0.8-0.8,1.5-1,2.3c-0.5,1.8-1,3.6-1.4,5.4c-0.5,2.3,0,4.5-0.4,6.8c-0.1,0.6-0.1,1.2,0.6,1.6c0.3-0.2-0.1-0.5,0.2-0.8
		c1.3-1.4,2.6-2.9,3.8-4.4c3.5-4.4,7.5-8.4,11.4-12.5c0.2-0.2,0.5-0.4,0.9-0.7c0.1,0.4,0.1,0.7,0.1,1c0,1.3,0.9,2.6,0.8,3.9
		c-0.1,2.3-0.2,4.6,0,6.9c0.1,1.2,0.7,2.1,1.9,2.7c0.2-0.4-0.4-0.7-0.2-1c1.1-1.7,2.1-3.5,3.2-5.1c1.3-2,2.7-3.9,4.1-5.9
		c0.7-1,1-2.1,1.2-3.2c-0.7-0.2-0.8,0.2-1,0.6c-0.6,1.1-1.3,2.2-2,3.2c-1.8,2.5-3.6,5-4.8,7.8c-0.3,0.6-0.6,1.1-1,1.7
		C62.2,197.5,62.1,197.5,62,197.5z M39.3,177.5c-0.4,0.2-0.7,0.5-1,0.8c-2.1,2-3.4,4-5.6,5.9c-2.4,2-4.5,4.3-6.3,6.7
		c-0.3,0.4-0.5,0.9-0.7,1.3c-0.1,0.2,0.1,0.6,0.2,0.8c0.1,0.1-0.4,0.1-0.2,0c2.2-0.9,4.3-1.9,6.4-2.8c1.6-0.7,3.1-1.4,4.7-2.1
		c2.1-1,4.2-2,6.4-3c1.1-0.5,2.2-1.1,3.3-1.6c0.3-0.2,0.7-0.4,0.5-0.9s-0.7-0.4-1.1-0.3h-0.1c-1,0.4-2.2,1.4-3.1,1.9
		c-4.3,2-8.4,3.4-12.6,5.4c-0.4,0.2-0.7,0.3-1.2,0.5c-0.2-0.8,0.3-1.1,0.6-1.4c1.6-1.7,3.3-3.3,4.9-5c1.6-1.7,3.1-3.5,4.7-5.2
		c0.2-0.2,0.3-0.5,0.4-0.7C39.4,177.7,39.4,177.6,39.3,177.5z M22,167.5c1.6,0.7,3.1,1.4,4.5,2.1c3.7,1.9,7.4,3.8,11.1,5.7
		c1,0.5,1.9,0.8,3.1,0.6C39.4,174,25.2,167.4,22,167.5z M48.1,133.3c2.9,3.3,6,6.4,9.6,9c0.3,0.2,0.6,0.4,1,0.5
		c0.2,0.1,0.4-0.1,0.6-0.2c-0.4-0.6-11.7-11.2-12.5-11.8C47,131.8,47.4,132.5,48.1,133.3z"/>
	<path d="M61.8,158.1c-3.5-0.8-6.5-1.9-9.1-4.1C55,153.8,60.1,156.1,61.8,158.1z M53,158.6c2.4,1.8,5.2,2.4,8.1,2.4
		c0-0.1,0.1-0.3,0.1-0.4c-2.7-0.9-5.4-1.7-8-2.6C53.1,158.3,53.1,158.5,53,158.6z M64.2,168.9c-0.4,0-0.8-0.1-1.1,0.1
		c-1.9,1.3-4.2,2-6.1,3.8C60.1,172.5,63.3,170.8,64.2,168.9z M66.6,172.2c-2.2,0.1-3.4,1.5-3.1,3.5
		C64.6,174.6,65.9,173.8,66.6,172.2z M62.2,165.7c-2.3-0.3-4.6,0.1-6.9,0.5C57.6,166.9,59.9,166.2,62.2,165.7z M38.6,160.1
		c-0.5,0.3-0.8,0.7-1.2,0.9c-1.3,0.6-2.7,1.1-4.1,1.6c-2.2,0.8-4.3,1.6-6.5,2.3c-1.8,0.6-3.6,1.3-5.3,1.9c-0.2,0.1-0.7,0.1-0.8-0.1
		c-0.1-0.2-0.1-0.6,0-0.8s0.4-0.4,0.6-0.6c1.5-0.9,3.1-1.5,4.7-2c3.2-1,6.3-2.1,9.4-3.1c0.2-0.1,0.3-0.1,0.4-0.2
		c0-0.1,0.1-0.2,0.1-0.3c-0.8-2-1.4-4-2.7-5.8c-2-2.7-4-5.5-6-8.2c-1.4-2-3.6-3.3-4.9-5.4c-0.2-0.2-0.2-0.5-0.3-0.8
		c0.7-0.7,1.5-0.6,2.3-0.2c1.2,0.5,2.4,1.1,3.7,1.6c3.4,1.3,7.7,1.7,11.1,3c1.9,0.7,3,1.4,5,2c0.3,0.1,0.5,0.1,1,0.2
		c-0.1-0.7-0.2-1.2-0.4-1.7c-0.6-2.2,0-4.5-0.1-6.8c-0.1-2.8-1.4-5.5-2.2-8.2c-0.1-0.2-0.1-0.5-0.2-0.7c0-0.1,0-0.2,0.1-0.4
		c1,0.9,2.3,2.8,2.8,4c0.9,2.2,0.3,3.9,0.6,6.2c0.2,1.8,0.6,3.6,0.8,5.4c0.1,0.7,0.1,1.5,0.1,2.3c0,0.2-0.2,0.5-0.4,0.5
		c-0.7,0.2-0.6,0.4-1.2,0.3c-1.6-0.3-3.2-0.6-4.8-1.1c-3.8-1.3-7.6-2.7-11.4-4.1c-1.3-0.5-3.4-0.1-4.9-0.7c0.3,0.5,1.2-0.1,1.4,0.1
		c1.9,2.4,3.8,4.7,5.7,7.1c2.3,2.8,4.3,5.7,5.9,8.9c0.1,0.3,0.3,0.6,0.4,0.9C37.4,158.7,37.7,159.5,38.6,160.1z M63.3,197.7
		c-0.1-0.7-0.2-1.5-0.2-2.2c0-2.3-0.9-5.5-0.9-9.4c0-0.9-0.2-2.3-0.3-3.5c-0.5,0.5,0,1.3-0.3,1.6s-0.6,0.6-0.9,0.8
		c-2.4,1.4-4.4,3.4-6.5,5.1c-3.1,2.6-5.4,5.8-8,8.9c-0.1,0.2-1.2,1.1-1.5,1.5c0.3-1.6,0.5-3.8,0.7-5.1s0.4-2.6,0.6-3.9
		c0.2-1.3,0.6-2.6,0.6-4.2c-0.7,0.8,0,1.5-0.2,2.2c-0.5,1.8-1,3.5-1.4,5.3c-0.5,2.2-0.9,4.5-1.3,6.8c-0.1,0.6-0.1,1.2,0.6,1.6
		c0.3-0.2,0.8-0.5,1.1-0.8c1.3-1.4,2.6-2.8,3.9-4.3c3.6-4.4,7.5-8.4,11.5-12.4c0.2-0.2,0.5-0.4,0.9-0.7c0.1,0.4,0.1,0.7,0.1,1
		c0,1.3,0,2.6-0.1,3.9c-0.1,2.3-0.3,4.6,0,6.9c0.1,1.2,0.7,2.1,1.8,2.7c0.2-0.3,0.5-0.6,0.6-1c1.1-1.7,2.1-3.4,3.2-5.1
		c1.3-2,1.9-3.9,3.3-5.9c0.7-1,1-2.1,1.2-3.2c-0.7-0.2,0,0.2-0.2,0.6c-0.7,1.1-1.3,2.2-2,3.2c-1.8,2.5-3.6,4.9-4.9,7.7
		c-0.3,0.6-0.7,1.1-1,1.7C63.6,197.8,63.4,197.7,63.3,197.7z M40.9,177.5c-0.4,0.2-0.7,0.5-1,0.8c-2.2,2-4.3,4-6.5,5.9
		c-2.4,2-4.5,4.2-6.4,6.7c-0.3,0.4-0.5,0.9-0.7,1.3c-0.1,0.2,0.1,0.6,0.2,0.8c0.1,0.1,0.5,0.1,0.7,0c2.2-0.9,4.3-1.8,6.5-2.8
		c1.6-0.7,3.1-1.4,4.7-2.1c2.1-1,4.3-2,6.4-3c1.1-0.5,1.4-1,2.4-1.6c0.3-0.2,0.7-0.4,0.6-0.9c-0.2-0.5,0.2-0.4-0.3-0.3h-0.1
		c-1,0.4-2,0.6-2.9,1.1c-4.3,2-8.6,4-12.9,6c-0.4,0.2-0.7,0.3-1.2,0.5c-0.2-0.8,0.3-1.1,0.6-1.4c1.7-1.7,3.3-3.3,5-5
		c1.6-1.7,3.2-3.5,4.8-5.2c0.2-0.2,0.3-0.5,0.4-0.7C41,177.7,40.9,177.6,40.9,177.5z M23.6,167.3c1.6,0.7,3.1,1.4,4.5,2.1
		c3.7,1.9,7.4,3.8,11,5.8c1,0.5,1.9,0.8,3.1,0.6C41,174,26.9,167.3,23.6,167.3z M48.4,132.5c2.8,3.4,6,6.4,9.5,9.1
		c0.3,0.2,0.6,0.4,1,0.5c0.2,0.1,0.4-0.1,0.6-0.2c-0.4-0.6-11.6-11.4-12.4-11.9C47.3,131.1,47.7,131.7,48.4,132.5z"/>
</g>
<g id="Leg2">
	<path d="M174.4,142.3c-3.6,0.2-6.8-0.3-9.9-1.8C166.7,139.8,172.2,140.8,174.4,142.3z M165.2,145.2c2.8,1.2,5.6,1.1,8.4,0.3
		c0-0.1,0-0.3,0-0.4c-2.8-0.1-5.7-0.4-8.5-0.5C165.3,144.8,165.2,145,165.2,145.2z M178.6,152.4c-0.4,0.1-0.8,0.2-1,0.4
		c-1.5,1.8-3.6,2.9-5,5.2C175.6,156.9,178.1,154.4,178.6,152.4z M182.3,155.5c-1.9,1-2.5,2.8-1.4,4.5
		C181.5,158.4,182.4,157.2,182.3,155.5z M175.9,149.8c-2.3,0.3-4.4,1.3-6.6,2.2C171.7,152.1,173.8,150.8,175.9,149.8z M149.8,148.4
		c-0.2-0.3-0.3-0.5-0.6-0.8c-2.3-2.7-5.1-5-8-7.2c-2.4-1.8-4.8-3.7-7.2-5.4c-0.2-0.1-0.4-0.4-0.8-0.7c1.6,0.2,3,0.4,4.3,0.5
		c4,0.4,8,0.8,12,1.2c1.6,0.1,3.3,0,4.9-0.1c0.7-0.1,1.3-0.4,2-0.8c0.2,0,0.3-0.5,0.3-0.6c-0.2-0.8-0.4-1.5-0.6-2.2
		c-0.7-1.7-1.4-3.4-2-5c-0.8-2.2-1.7-4.4-3.1-6.3c-0.8-1-1.4-2.1-2.6-2.7c0,0.2,0,0.3,0,0.4c0,0.2,0.2,0.5,0.4,0.6
		c1.5,2.4,2.6,4.9,3.3,7.6c0.6,2.2,1.4,4.4,2.6,6.4c0.2,0.5,0.4,0.9,0.8,1.6c-0.4,0-0.7,0.1-1,0c-2.1-0.1-4.1-0.3-6.1-0.6
		c-3.6-0.4-7.3-0.7-10.9-1.1c-1.4-0.2-2.7-0.5-4-0.7c-0.8-0.1-1.6,0-2.2,0.8c0.2,0.3,0.3,0.5,0.5,0.7c1.9,1.7,3.6,3.3,5.6,5
		c2.6,2.2,5.2,4.4,7.9,6.5c1.7,1.3,2.9,3.2,4.1,5c0,0.1,0,0.2,0,0.3c-0.1,0.1-0.3,0.2-0.3,0.3c-2.7,1.8-5.6,3.6-8.4,5.4
		c-1.4,1-2.8,1.9-4.1,3.2c-0.2,0.1-0.4,0.4-0.4,0.7c0,0.2,0,0.6,0.2,0.8c0.1,0.1,0.5,0,0.8-0.1c1.6-1,3.1-2.1,4.7-3.2
		c1.9-1.3,3.8-2.6,5.7-3.9c1.2-0.8,2.4-1.7,3.6-2.6c0.3-0.3,0.6-0.7,0.9-1.2C150.6,149.8,150.2,149.2,149.8,148.4z M185.3,180.5
		c0.1-0.7,0.4-1.2,0.6-1.9c0.6-3,1.7-5.9,2.8-8.7c0.4-1.1,0.9-2.4,1.2-3.6c0.1-0.4,0.1-0.8,0.8-0.8c0.2,1.2,0.1,2.4-0.4,3.4
		c-0.8,2.3-1.8,4.5-2.6,6.7c-0.7,1.9-1.2,3.8-1.9,5.7c-0.1,0.3-0.2,0.7-0.3,1.1c-1.3-0.3-2-1-2.5-2.2c-0.7-2.2-1.2-4.4-1.7-6.7
		c-0.2-1.3-0.6-2.5-0.9-3.8c-0.1-0.3-0.2-0.5-0.3-0.9c-0.3,0.4-0.6,0.6-0.7,0.9c-2.8,4.9-5.6,9.7-8.1,14.9c-0.8,1.7-1.7,3.4-2.6,5.2
		c-0.2,0.4-0.6,0.7-0.8,1c-0.8-0.2-0.9-0.8-1-1.4c-0.2-2.3-0.3-4.6-0.4-6.9c0-1.8,0-3.7,0.1-5.6c0-0.7,0.1-1.5,0.4-2.5
		c0.5,1.5,0.3,2.9,0.5,4.2s0.2,2.6,0.4,3.9c0.1,1.3,0.2,2.6,0.4,4.3c0.3-0.4,0.4-0.6,0.5-0.8c1.7-3.6,3.1-7.4,5.5-10.6
		c1.6-2.3,3-4.6,5.1-6.6c0.3-0.3,0.4-0.7,0.7-1.1c0.2-0.4,0.5-0.6,0.8-1.2c0.4,1,0.7,1.9,1,2.6c0.8,3,1.6,6.1,2.4,9.1
		c0.2,0.7,0.5,1.4,0.7,2.1C185,180.5,185.2,180.4,185.3,180.5z M158.3,166.7c0,0.2-0.1,0.5-0.2,0.8c-1.1,2.1-2.2,4.1-3.3,6.2
		c-1.1,2-2.4,4.1-3.6,6c-0.2,0.4-0.6,0.8-0.2,1.5c0.3-0.3,0.7-0.5,1-0.8c3.7-3.1,7.3-6,11-9c0.8-0.6,1.8-1.2,2.6-1.8l0.1,0
		c0.4-0.2,0.8-0.4,1.1,0c0.3,0.3,0,0.7-0.3,1c-0.9,0.8-1.9,1.6-2.8,2.3c-1.8,1.5-3.6,2.9-5.5,4.4c-1.3,1-2.7,2.1-4.1,3.2
		c-1.8,1.5-3.7,2.9-5.5,4.3c-0.2,0.1-0.6,0.2-0.7,0.2c-0.2-0.1-0.4-0.4-0.4-0.7c0-0.5,0.1-1.1,0.4-1.4c1.2-2.9,2.8-5.5,4.5-8
		c1.7-2.4,3.2-4.9,4.9-7.3c0.2-0.4,0.5-0.8,0.8-1C158.2,166.6,158.3,166.7,158.3,166.7z M159,164.7c-1.1,0.5-2.1,0.4-3.2,0.2
		c-4-1-8.1-1.9-12.1-2.9c-1.6-0.3-3.2-0.6-4.9-1C142,160.1,157.3,163.1,159,164.7z M152.3,119.1c0.9,0.3,14.5,8,15,8.5
		c-0.2,0.1-0.4,0.3-0.5,0.3c-0.3,0-0.8-0.1-1.1-0.2c-4-1.7-7.9-3.9-11.5-6.4C153.3,120.4,152.8,119.9,152.3,119.1z"/>
	<path d="M173.6,142.5c-3.6,0.2-6.8-0.3-9.9-1.8C165.9,140,171.4,141,173.6,142.5z M166,145c2.8,1.2,5.6,1.1,8.4,0.3
		c0-0.1,0-0.3,0-0.4c-2.8-0.1-5.7-0.4-8.5-0.5C166,144.6,166,144.8,166,145z M177.8,152.6c-0.4,0.1-0.6,1-0.8,1.2
		c-1.1,1.3-2.6,1.4-4.3,4.2C175.6,156.9,177.4,154.6,177.8,152.6z M181.5,155.7c-1.9,1-2.5,2.8-1.4,4.5
		C180.7,158.6,181.7,157.4,181.5,155.7z M175,150c-2.3,0.3-4.4,1.3-6.6,2.2C170.9,152.2,172.9,151,175,150z M150.8,150.4
		c-0.4,0.5-0.6,0.9-0.9,1.2c-1.1,0.9-2.4,1.7-3.6,2.6c-1.9,1.3-3.8,2.6-5.7,3.9c-1.6,1.1-2.3,1.9-3.9,3c-0.2,0.1-0.7,0.3-0.8,0.1
		c-0.1-0.2-0.2-0.6-0.2-0.8c0-0.2,0.5-0.3,0.8-0.5c1.2-1.2,2.3-2.4,3.8-3.3c2.7-1.8,4.7-3.3,7.6-5.2c0.2-0.1,0.3-0.2,0.3-0.3
		c0-0.1,0-0.2,0-0.3c-1.3-1.8-2.3-3.5-4.1-5c-2.6-2.1-4.4-4.5-7-6.7c-1.8-1.6-3.7-3.3-5.6-5c-0.2-0.1-0.3-0.4-0.5-0.7
		c0.5-0.8,0.4-0.7,1.3-0.6c1.3,0.2,2.7,0.5,4,0.7c3.6,0.4,7.3,0.8,10.9,1.1c2,0.2,4.1,0.3,6.1,0.6c0.3,0,0.5,0,1,0
		c-0.4-0.6-0.5-1.1-0.8-1.6c-1.2-2-2-4.2-2.6-6.4c-0.8-2.7-0.9-4.6-2.3-6.9c-0.1-0.2-0.2-0.5-0.4-0.6c0-0.1,0-0.2,0-0.4
		c1.3,0.6,0.9,1.1,1.7,2.2c1.4,1.9,2.2,4.1,3.1,6.3c0.7,1.7,1.4,3.4,2,5c0.3,0.7,0.5,1.4,0.6,2.2c0,0.2-0.1,0.5-0.3,0.6
		c-0.6,0.4-1.3,0.7-2,0.8c-1.6,0.1-3.2,0.3-4.9,0.1c-4-0.4-8-0.8-12-1.2c-1.4-0.2-2.8-0.3-4.3-0.5c0.4,0.4,0.6,0.6,0.8,0.7
		c2.4,1.8,4.8,3.7,7.2,5.4c2.9,2.2,5.5,4.5,8,7.2c0.3,0.2,0.4,0.5,0.6,0.8C149.3,149.4,149.8,150,150.8,150.4z M184.1,180.7
		c-0.3-0.7-0.6-1.4-0.7-2.1c-0.8-3-1.6-6.1-2.4-9.1c-0.2-0.9-0.6-1.6-1-2.6c-0.4,0.6-0.6,0.9-0.8,1.2c-0.2,0.4-0.4,0.7-0.7,1.1
		c-2,1.9-2.4,4.9-4,7.2c-2.3,3.2-4.8,6.4-6.5,10c0,0.2-0.2,0.4-0.5,0.8c-0.1-1.6-0.2-2.9-0.4-4.3c-0.1-1.3-0.2-2.6-0.4-3.9
		c-0.2-1.3,0-2.7-0.5-4.2c-0.4,0.9-0.4,1.6-0.4,2.5c-0.1,1.9-0.1,3.7-0.1,5.6c0.1,2.4,1.1,4.4,1.2,6.7c0,0.6,0.2,1.2,1,1.4
		c0.2-0.3-0.2-0.5,0-0.8c0.9-1.7,1.8-3.4,2.6-5.2c2.3-5.1,5.3-10,8.1-14.9c0.1-0.2,0.4-0.5,0.7-0.9c0.2,0.4,0.3,0.7,0.3,0.9
		c0.3,1.3,1.5,2.3,1.7,3.6c0.5,2.3,0.9,4.5,1.7,6.7c0.4,1.1,1.2,1.9,2.5,2.2c0.1-0.4-0.6-0.6-0.4-0.9c0.7-1.9,1.2-3.9,1.9-5.7
		c0.8-2.3,1.7-4.4,2.6-6.7c0.4-1.1,0.5-2.3,0.4-3.4c-0.7,0-0.7,0.4-0.8,0.8c-0.3,1.2-0.7,2.4-1.2,3.6c-1.1,2.9-2.3,5.7-2.8,8.7
		c-0.1,0.7-0.3,1.2-0.6,1.9C184.3,180.7,184.2,180.7,184.1,180.7z M157.3,166.7c-0.3,0.3-0.6,0.7-0.8,1c-1.6,2.4-2.3,4.7-4,7.1
		c-1.9,2.5-3.3,5.3-4.5,8c-0.2,0.5-0.3,1-0.4,1.4c0,0.2,0.2,0.6,0.4,0.7c0.1,0.1-0.4,0.2-0.2,0c1.9-1.4,3.7-2.9,5.5-4.3
		c1.4-1.1,2.7-2.1,4.1-3.2c1.8-1.5,3.6-2.9,5.5-4.4c0.9-0.7,1.9-1.6,2.8-2.3c0.2-0.3,0.6-0.6,0.3-1c-0.3-0.4-0.8-0.2-1.1,0l-0.1,0
		c-0.9,0.6-1.8,1.9-2.6,2.6c-3.7,3-7.3,5.3-10.9,8.3c-0.3,0.3-0.6,0.5-1,0.8c-0.4-0.7,0-1.1,0.2-1.5c1.1-2,2.4-4,3.6-6
		c1.1-2,2.2-4.1,3.3-6.2c0.1-0.2,0.2-0.6,0.2-0.8C157.4,166.9,157.4,166.8,157.3,166.7z M138.1,161.2c1.7,0.3,3.3,0.6,4.9,1
		c4,1,8.1,1.9,12.1,2.9c1.1,0.2,2,0.3,3.2-0.2C156.5,163.3,141.2,160.3,138.1,161.2z M155.2,121.7c3.6,2.5,7.4,4.8,11.5,6.4
		c0.3,0.1,0.7,0.2,1.1,0.2c0.2,0,0.4-0.2,0.5-0.3c-0.5-0.5-14-8.1-15-8.5C153.8,120.5,154.4,121.1,155.2,121.7z"/>
	<path d="M174.5,142.5c-3.6,0.1-6.8-0.3-9.8-1.8C166.8,140,172.3,141,174.5,142.5z M166.1,145.1c2.8,1.2,5.6,1.1,8.4,0.4
		c0-0.1,0-0.3,0-0.4c-2.8-0.2-5.7-0.4-8.4-0.6C166.1,144.8,166.1,145,166.1,145.1z M179.4,152.4c-0.4,0.1-0.8,0.1-1,0.4
		c-1.5,1.7-3.6,2.9-5,5.2C176.3,156.9,179,154.5,179.4,152.4z M182.5,155c-2.1,0.6-2.9,2.3-2.2,4.1
		C181.2,157.9,182.2,156.8,182.5,155z M176.7,149.8c-2.3,0.3-4.4,1.2-6.6,2.1C172.5,152.1,174.6,150.8,176.7,149.8z M152.4,150
		c-0.4,0.4-0.6,0.9-0.9,1.2c-1.1,0.9-2.4,1.7-3.6,2.5c-1.9,1.3-3.8,2.6-5.8,3.8c-1.6,1-3.2,2.1-4.7,3.1c-0.2,0.1-0.7,0.3-0.8,0.1
		s-0.2-0.6-0.2-0.8c0-0.2,0.3-0.5,0.4-0.7c1.2-1.2,2.7-2.2,4.1-3.1c2.9-1.7,5.6-3.5,8.4-5.3c0.2-0.1,0.3-0.2,0.3-0.3
		c0-0.1,0-0.2,0-0.3c-1.3-1.8-2.3-3.5-4-5c-2.6-2.1-5.2-4.4-7.8-6.5c-1.8-1.6-4.3-2.3-6.1-4.1c-0.2-0.1-0.3-0.4-0.5-0.7
		c0.5-0.8,1.3-0.9,2.2-0.7c1.3,0.2,2.6,0.5,4,0.7c3.6,0.4,7.9-0.2,11.5,0.3c2,0.2,3.2,0.6,5.3,0.7c0.3,0,0.5,0,1,0
		c-0.3-0.7-0.5-1.1-0.8-1.6c-1.1-2-1.1-4.4-1.7-6.6c-0.8-2.7-2.7-5-4.1-7.4c-0.1-0.2-0.2-0.5-0.4-0.6c0-0.1,0-0.2,0-0.4
		c1.2,0.6,2.9,2.2,3.7,3.2c1.4,1.9,1.2,3.7,2.1,5.9c0.6,1.7,1.4,3.4,2.1,5.1c0.3,0.7,0.5,1.4,0.6,2.2c0,0.2-0.1,0.5-0.3,0.6
		c-0.6,0.4-0.5,0.5-1.1,0.6c-1.6,0.1-3.3,0.2-4.9,0.1c-4-0.4-8-0.8-12.1-1.2c-1.4-0.2-3.3,0.7-4.9,0.5c0.4,0.4,1.1-0.4,1.4-0.2
		c2.4,1.9,4.8,3.7,7.2,5.5c2.9,2.2,5.5,4.5,7.9,7.2c0.2,0.3,0.4,0.5,0.6,0.8C150.9,148.9,151.4,149.6,152.4,150z M185.4,180.6
		c-0.3-0.7-0.6-1.4-0.7-2.1c-0.6-2.2-2.2-5.1-3.1-8.9c-0.2-0.9-0.7-2.2-1.1-3.3c-0.4,0.6,0.3,1.3,0.1,1.6s-0.4,0.7-0.7,1
		c-2,1.9-3.5,4.4-5.1,6.5c-2.4,3.3-3.9,6.9-5.6,10.6c0,0.2-0.9,1.4-1.1,1.8c-0.1-1.6-0.4-3.8-0.5-5.1s-0.2-2.6-0.4-3.9
		c-0.1-1.3,0-2.7-0.4-4.2c-0.5,0.9,0.4,1.5,0.3,2.2c-0.1,1.9-0.1,3.6-0.1,5.5c0,2.3,0.2,4.6,0.4,6.9c0,0.6,0.2,1.2,1,1.4
		c0.2-0.3,0.7-0.7,0.9-1c0.9-1.7,1.9-3.3,2.8-5.1c2.4-5.1,5.3-10,8.2-14.8c0.1-0.2,0.4-0.5,0.7-0.9c0.2,0.4,0.3,0.7,0.3,0.9
		c0.3,1.3,0.6,2.5,0.8,3.8c0.5,2.3,0.8,4.5,1.7,6.7c0.4,1.1,1.2,1.9,2.4,2.2c0.1-0.3,0.3-0.7,0.3-1.1c0.7-1.9,1.2-3.8,1.9-5.7
		c0.8-2.3,0.9-4.2,1.8-6.5c0.4-1.1,0.5-2.3,0.4-3.4c-0.7,0,0,0.2-0.1,0.6c-0.4,1.2-0.7,2.4-1.2,3.6c-1.1,2.9-2.3,5.6-2.9,8.6
		c-0.1,0.7-0.4,1.2-0.6,1.9C185.7,180.6,185.5,180.6,185.4,180.6z M158.8,166.3c-0.3,0.3-0.6,0.7-0.8,1c-1.7,2.5-3.2,4.9-4.9,7.3
		c-1.9,2.5-3.4,5.2-4.6,8c-0.2,0.5-0.3,1-0.4,1.4c0,0.2,0.2,0.6,0.4,0.7c0.1,0.1,0.5,0,0.7-0.2c1.9-1.4,3.7-2.8,5.6-4.3
		c1.4-1.1,2.7-2.1,4.1-3.2c1.8-1.5,3.7-3,5.5-4.4c0.9-0.7,1.1-1.3,1.9-2.1c0.2-0.3,0.6-0.6,0.4-1c-0.3-0.4,0.1-0.4-0.4-0.2l-0.1,0
		c-0.9,0.6-1.8,1.1-2.6,1.8c-3.7,3-7.4,5.9-11.1,8.9c-0.3,0.3-0.6,0.5-1,0.8c-0.4-0.7,0-1.1,0.2-1.5c1.2-2.1,2.4-4,3.7-6.1
		c1.1-2,2.3-4.2,3.4-6.2c0.1-0.2,0.2-0.6,0.2-0.8C159,166.5,158.9,166.4,158.8,166.3z M139.6,160.6c1.7,0.3,3.3,0.6,4.9,1
		c4,1,8.1,1.9,12.1,3c1.1,0.2,2,0.3,3.2-0.2C158.1,162.9,142.8,159.8,139.6,160.6z M155.3,120.9c3.5,2.6,7.4,4.8,11.4,6.6
		c0.3,0.1,0.7,0.2,1.1,0.2c0.2,0,0.4-0.2,0.5-0.3c-0.5-0.5-14-8.3-14.9-8.6C153.9,119.8,154.5,120.3,155.3,120.9z"/>
</g>
<g id="Foot">
	<path d="M26.6,219.3c0.7-0.3,1,0.1,1.3,0.5c0.8,1,1.7,2,2.4,3.1c1.2,1.8,2.3,3.7,3,5.8c0.2,0.6,0.6,1.1,1,1.7
		c1.6-1.2,3-2.4,4.5-3.5c0.1,0.1,0.2,0.1,0.2,0.2c0.4,1.8,1.3,3.5,2,5.2c0.4,1.1,0.6,2.3,0.9,3.5c0.1,0.3,0.1,0.7,0.2,1.2
		c1.3-0.6,2-1.6,3.1-2.4c0.3,0.8,1.4,1.4,1.6,2.2c0.6,1.9,1.1,3.8,1.7,5.6c0.6,2.1,0.7,4.3,1.4,6.3c0.5,1.3,0.5,2.8,0.6,4.2
		c0,0.2-0.1,0.4-0.1,0.6c-0.6,0.1-0.9-0.3-1.1-0.6c-1-1.3-2.1-2.7-3-4.1c-0.9-1.2-1.6-2.6-2.4-3.8c-0.1-0.2-0.3-0.4-0.5-0.7
		c-0.2,0.3-0.5,0.5-0.6,0.7c-0.4,0.5-0.8,1-1.2,1.6c-0.4,0.5-0.8,0.8-1.6,0.8c-0.5-1.3-0.9-2.6-1.4-3.9c-0.5-1.3-0.9-2.7-1.5-4
		c-0.5-1.3-0.6-2.7-1.4-3.9c-1,1-1.9,2-2.8,2.9c-0.4,0.4-0.8,0.6-1.3,0.4c-0.5-0.2-0.7-0.6-0.8-1.1c0-0.2,0-0.4-0.1-0.6
		c-0.8-2.1-1.2-4.4-1.7-6.6c-0.1-0.7-0.3-1.5-0.5-2.2c-0.4-2-0.9-4-1.3-5.9c-0.1-0.5-0.3-0.9-0.4-1.4
		C26.8,220.4,26.7,219.9,26.6,219.3z M56.3,230.2c-0.1-1.1-0.3-2.1-0.4-3.2c-0.1-0.7-0.3-1.3-0.4-2c0-0.1-0.9,0-1-0.2
		c-1.1,3.8-1.4,7.3-1.4,11.3c0.8,0.3,1.5-0.1,2.3-0.1c0,0.3,0,0.5-0.1,0.7c-0.2,1.5-0.4,3.1-0.1,4.6c0.1,0.3,0.2,0.6,0.3,0.9
		c0.2,0,0.4,0,0.5,0c0.8-0.4,1.6-0.7,2.5-1.1c0.1,0.3,0.2,0.5,0.2,0.8c0.1,0.6,0.1,1.1,0.2,1.7c0.1,0.6,0.2,1.2,0.4,1.7
		c0.1,0.3,0.2,0.6,0.6,0.6c0.1-0.2,0.2-0.4,0.2-0.5c0.7-2.1,1.8-4.5,2.3-6.7c0-0.2,0-0.4,0-0.6c0-0.8-0.9-0.8-1.7-0.7
		c-0.5,0.1-1.1,0.1-1.7-0.1c0-0.2,0-0.4,0-0.5c0.1-0.8,0.3-1.6,0.4-2.4c0.1-0.8,0.2-1.5,0.3-2.3c0-0.3-0.1-0.6-0.4-0.8
		c-0.4-0.3-0.9-0.5-1.4-0.4s-0.9,0.1-1.5,0.2C56.4,230.7,56.3,230.4,56.3,230.2z M33.4,255c-0.8-0.6-1.5-1.1-2.3-1.7
		c-0.5-0.3-1-0.6-1.5-0.9c-0.1-0.1-0.2,0-0.5,0c1.7,3.1,3.5,5.9,6,8.3c-1.7,0.8,2.1-1.8,2-1.7c0.1,0.2,0.3,0.3,0.4,0.4
		c0.8,1.1,1.1,2.3,2.2,3.1c0.2,0.1,0.5,0.2,0.7,0.4c0.1-0.1,0.2-0.2,0.3-0.3c0.3-0.7,0.5-1.5,0.8-2.3c0.2,0.1,0.5,0.2,0.7,0.3
		c0.4,0.3,0.8,0.6,1.2,0.9s0.9,0.6,1.3,0.8c0.2,0.1,0.5,0.2,0.7,0c-0.1-0.2-0.1-0.3-0.2-0.5c-1.3-2.6-2.5-4-3.2-5.1
		c-0.1-0.1-0.2-0.3-0.3-0.4c-0.5-0.4-0.7-0.4-1.1,0.1c-0.3,0.4-0.6,0.8-1.1,1c-0.1-0.1-0.2-0.2-0.3-0.3c-0.4-0.6-0.8-1.2-1.2-1.7
		s-0.9-1.1-1.3-1.6c-0.2-0.2-0.4-0.3-0.8-0.3c-0.5,0.1-0.8,0.3-1.1,0.7c-0.2,0.4-0.5,0.7-0.8,1.1C33.8,255.2,33.6,255.1,33.4,255z"
		/>
	<path d="M25.9,219.5c0.7-0.3,1.3,1,1.6,1.4c0.8,1,1.4,1.1,2.2,2.2c1.2,1.8,2.3,3.7,3,5.8c0.2,0.6,0.6,1.1,1,1.7
		c1.6-1.2,3-2.4,4.5-3.5c0.1,0.1,0.2,0.1,0.2,0.2c0.4,1.8,1.3,3.5,2,5.2c0.4,1.1,0.6,2.3,0.9,3.5c0.1,0.3,0.1,0.7,0.2,1.2
		c1.3-0.6,2-1.6,3.1-2.4c0.3,0.8,0.7,1.6,1,2.4c0.6,1.9,1.1,3.8,1.7,5.6c0.6,2.1,1.4,4.1,2.1,6.1c0.5,1.3,0.5,2.8,0.6,4.2
		c0,0.2-0.1,0.4-0.1,0.6c-0.6,0.1-0.9-0.3-1.1-0.6c-1-1.3-2.1-2.7-3-4.1c-0.9-1.2-1.6-2.6-2.4-3.8c-0.1-0.2-0.3-0.4-0.5-0.7
		c-0.2,0.3-0.5,0.5-0.6,0.7c-0.4,0.5-0.8,1-1.2,1.6c-0.4,0.5-0.8,0.8-1.6,0.8c-0.5-1.3-0.9-2.6-1.4-3.9c-0.5-1.3-0.9-2.7-1.5-4
		c-0.5-1.3-0.6-2.7-1.4-3.9c-1,1-1.9,2-2.8,2.9c-0.4,0.4-0.8,0.6-1.3,0.4c-0.5-0.2-0.7-0.6-0.8-1.1c0-0.2,0-0.4-0.1-0.6
		c-0.8-2.1-1.2-4.4-1.7-6.6c-0.1-0.7-0.3-1.5-0.5-2.2c-0.4-2-0.9-4-1.3-5.9c-0.1-0.5-0.3-0.9-0.4-1.4
		C26.2,220.6,26.1,220,25.9,219.5z M55.6,230.4c-0.1-1.1-0.3-2.1-0.4-3.2c-0.1-0.7-0.3-1.3-0.4-2c0-0.1-0.9,0-1-0.2
		c-1.1,3.8-1.4,7.3-1.4,11.3c0.8,0.3,1.5-0.1,2.3-0.1c0,0.3,0,0.5-0.1,0.7c-0.2,1.5-0.4,3.1-0.1,4.6c0.1,0.3,0.2,0.6,0.3,0.9
		c0.2,0,0.4,0,0.5,0c0.8-0.4,1.6-0.7,2.5-1.1c0.1,0.3,0.2,0.5,0.2,0.8c0.1,0.6,0.1,1.1,0.2,1.7c0.1,0.6,0.2,1.2,0.4,1.7
		c0.1,0.3,0.2,0.6,0.6,0.6c0.1-0.2,0.2-0.4,0.2-0.5c0.7-2.1,1.2-4.3,1.7-6.5c0-0.2,0-0.4,0-0.6c0-1,1.6-1.1-1-0.8
		c-0.5,0.1-1.1,0.1-1.7-0.1c0-0.2,0-0.4,0-0.5c0.1-0.8,0.3-1.6,0.4-2.4c0.1-0.8,0.2-1.5,0.3-2.3c0-0.3-0.1-0.6-0.4-0.8
		c-0.4-0.3-0.9-0.5-1.4-0.4s-0.9,0.1-1.5,0.2C55.8,230.9,55.7,230.6,55.6,230.4z M32.8,255.2c-0.8-0.6-1.5-1.1-2.3-1.7
		c-0.5-0.3-1-0.6-1.5-0.9c-0.1-0.1-0.2,0-0.5,0c2.4,4.3,4.6,6.9,6,8.3c0.7-0.3,0.8-1.1,1.3-1.6c0.1,0.2,0.9,0.1,1.1,0.3
		c0.8,1.1,1.1,2.3,2.2,3.1c0.2,0.1,0.5,0.2,0.7,0.4c0.1-0.1,0.2-0.2,0.3-0.3c0.3-0.7,0.5-1.5,0.8-2.3c0.2,0.1,0.5,0.2,0.7,0.3
		c0.4,0.3,0.8,0.6,1.2,0.9s0.9,0.6,1.3,0.8c0.2,0.1,0.5,0.2,0.7,0c-0.1-0.2-0.1-0.3-0.2-0.5c-1.3-2.6-2.5-4-3.2-5.1
		c-0.1-0.1-0.2-0.3-0.3-0.4c-0.5-0.4-0.7-0.4-1.1,0.1c-0.3,0.4-0.6,0.8-1.1,1c-0.1-0.1-0.2-0.2-0.3-0.3c-0.4-0.6-0.8-1.2-1.2-1.7
		c-0.4-0.5-0.9-1.1-1.3-1.6c-0.2-0.2-0.4-0.3-0.8-0.3c-0.5,0.1-0.8,0.3-1.1,0.7c-0.2,0.4-0.5,0.7-0.8,1.1
		C33.2,255.4,33,255.3,32.8,255.2z"/>
	<path d="M26.4,219c0.7-0.3,1,0.1,1.3,0.5c0.8,1,1.7,2,2.4,3.1c1.2,1.8,2.3,3.7,2.9,5.8c0.2,0.6,0.6,1.1,1,1.7
		c1.6-1.2,3.1-2.3,4.5-3.5c0.1,0.1,0.2,0.1,0.2,0.2c0.4,1.8,1.3,3.5,1.9,5.2c0.4,1.1,0.6,2.3,0.9,3.5c0.1,0.3,0.1,0.7,0.2,1.2
		c1.3-0.6,2-1.6,3.2-2.3c0.3,0.8,0.7,1.6,0.9,2.4c0.6,1.9,1,3.8,1.6,5.6c0.6,2.1,1.3,4.1,2,6.2c0.4,1.4,0.5,2.8,0.6,4.2
		c0,0.2-0.1,0.4-0.1,0.6c-0.6,0.1-0.9-0.3-1.1-0.6c-1-1.3-2-2.7-3-4.1c-0.8-1.3-1.6-2.6-2.4-3.9c-0.1-0.2-0.3-0.4-0.5-0.7
		c-0.2,0.3-0.5,0.5-0.6,0.7c-0.4,0.5-0.8,1-1.2,1.6c-0.4,0.5-0.9,0.8-1.6,0.8c-0.4-1.3-0.9-2.6-1.4-3.9c-0.5-1.3-0.9-2.7-1.4-4
		s-0.6-2.7-1.3-4c-1,1-2,1.9-2.9,2.9c-0.4,0.4-0.8,0.6-1.3,0.4c-0.5-0.2-0.7-0.6-0.7-1.1c0-0.2,0-0.4-0.1-0.6
		c-0.8-2.1-1.2-4.4-1.6-6.6c-0.1-0.7-0.3-1.5-0.4-2.2c-0.4-2-0.8-4-1.3-5.9c-0.1-0.5-0.3-0.9-0.4-1.4
		C26.6,220.1,26.5,219.5,26.4,219z M56,230.1c-0.1-1.1-0.2-2.1-0.4-3.2c-0.1-0.7-0.2-1.3-0.4-2c0-0.1-0.8,0-1-0.2
		c-1.2,3.8-1.5,7.3-1.5,11.2c0.8,0.3,1.5-0.1,2.3-0.1c0,0.3,0,0.5-0.1,0.7c-0.3,1.5-0.4,3.1-0.1,4.6c0.1,0.3,0.2,0.6,0.3,0.9
		c0.2,0,0.4,0,0.5,0c0.8-0.3,1.6-0.7,2.5-1.1c0.1,0.3,0.2,0.5,0.2,0.8c0.1,0.6,0.1,1.1,0.2,1.7c0.1,0.6,0.2,1.2,0.4,1.7
		c0.1,0.3,0.2,0.6,0.6,0.6c0.1-0.2,0.2-0.4,0.2-0.5c0.8-2.1,1.9-4.5,2.4-6.7c0-0.2,0-0.4,0-0.6c0-0.8-0.9-0.8-1.6-0.7
		c-0.6,0.1-1.1,0.1-1.7-0.1c0-0.2,0-0.4,0-0.5c0.2-0.8,0.3-1.6,0.5-2.4c0.1-0.8,0.2-1.5,0.3-2.3c0-0.3-0.1-0.6-0.4-0.8
		c-0.4-0.3-0.9-0.5-1.4-0.4s-1,0.1-1.5,0.2C56.1,230.7,56,230.4,56,230.1z M32.9,254.7c-0.8-0.6-1.5-1.2-2.3-1.7
		c-0.5-0.3-1-0.6-1.5-0.9c-0.1-0.1-0.2,0-0.5,0c2.4,4.3,4.5,7,6,8.4c0.7-0.3,0.8-1,1.3-1.5c0.1,0.2,0.9,0.1,1,0.3
		c0.8,1.1,1,2.3,2.2,3.1c0.2,0.1,0.5,0.3,0.7,0.4c0.1-0.1,0.2-0.2,0.3-0.3c0.3-0.7,0.5-1.5,0.8-2.3c0.2,0.1,0.4,0.2,0.7,0.3
		c0.4,0.3,0.8,0.6,1.2,0.9s0.9,0.6,1.3,0.8c0.2,0.1,0.5,0.2,0.7,0c-0.1-0.2-0.1-0.3-0.2-0.5c-1.3-2.6-2.4-4-3.1-5.1
		c-0.1-0.1-0.2-0.3-0.3-0.4c-0.5-0.5-0.7-0.4-1.1,0.1c-0.3,0.4-0.6,0.8-1.1,1c-0.1-0.1-0.2-0.2-0.3-0.3c-0.4-0.6-0.8-1.2-1.2-1.7
		s-0.9-1.1-1.3-1.6c-0.2-0.2-0.4-0.3-0.8-0.3c-0.5,0.1-0.8,0.2-1.1,0.7c-0.2,0.4-0.5,0.7-0.8,1.1C33.3,255,33.1,254.9,32.9,254.7z"
		/>
</g>
<g id="Knee">
	<path d="M97.1,30c-0.1-0.1-0.4-0.2-0.7-0.2c-2.4,0.2-4.9,0.5-7.3,0.8c-1.8,0.2-3.5,0.4-5.3,0.6c-2.4,0.3-4.9,0.6-7.3,1
		c-1.3,0.2-2.5,0.4-3.8,0.6c0,0,0,0-0.1,0c1.2-1.6,3-5.1,3.4-5.6c1-1.6,2.1-3.2,3.1-4.9c1.2-2.1,2.3-4.2,3.4-6.3
		c0.3-0.5,0.4-1.2-0.1-1.8c-0.4,0.1-0.9,0.2-1.3,0.4c-1.7,1-3.5,2-5.2,3.1c-4.9,3.2-10.1,6-15.3,8.7c-0.3,0.2-0.6,0.2-1.1,0.4
		c0.1-0.4,0.1-0.7,0.2-1c0.4-1.3,0.8-2.6,1.3-3.9c0.8-2.3,1.3-9.5,1.8-11.9c0.3-1.2,0-2.3-1-3.3c-0.3,0.3-0.7,0.5-0.9,0.8
		c-1.6,1.4-2.4,3.9-4.1,5.2c-2,1.6-4.4,7-6.3,8.5c-0.4,0.3-0.8,0.7-1.2,1.2c-3.4-6-8.6-15.1-9-15.6c-0.1,0.2-1,2.8-1,3
		c0,0.3,0,0.5,0,0.8c0.1,2.9-0.1,5.8-0.8,8.6c-0.6,2.3-1,4.7-0.9,7.1c0,0.6,0,1.1-0.1,1.8c-0.4-0.2-0.7-0.3-0.9-0.4
		c-1.8-1.2-3.6-2.4-5.3-3.6c-3.1-2.2-6.2-4.4-9.3-6.6c-1.1-0.8-2.2-1.7-3.3-2.6c-0.7-0.5-1.4-0.9-2.3-0.4c0,0.3,0,0.6,0.1,0.9
		c0.8,2.5,1.6,4.9,2.5,7.3c1.4,3.8,2.6,6.9,3.8,9.9c0.8,2.1,0.9,4.3,1.2,6.6c0,0.1-0.1,0.1-0.2,0.3c-0.1,0-0.3,0.1-0.5,0.1
		c-3.5,0.2-8,1.1-11.4,1.3c-1.8,0.1-3.6,0.3-5.3,0.8c-0.2,0-0.6,0.1-0.7,0.3c-0.2,0.2-0.3,0.6-0.2,0.8c0.1,0.2,0.5,0.3,0.7,0.3h0.1
		c1.4,1.2,13.4,9.6,16.5,12.6c0.7,0.6-0.7-0.2,0.1,0.1C22.3,56.3,8.9,66.1,6.4,68.1c-0.4,0.3-0.8,0.7-1,1.2c-0.1,0.2-0.1,0.6,0,0.8
		c0.1,0.1,0.5,0.2,0.7,0.2c2.4-0.3,4.8-0.7,7.3-1.1c1.8-0.3,3.5-0.5,5.3-0.8c2.4-0.4,4.8-0.8,7.2-1.3c1.2-0.2,2.5-0.5,3.7-0.7
		c0,0,0,0,0.1,0c-1.1,1.6-2.8,5.2-3.1,5.7c-1,1.7-2,3.3-2.9,5c-1.1,2.1-2.1,4.3-3.2,6.5c-0.3,0.6-0.4,1.2,0.2,1.8
		c0.4-0.2,0.9-0.2,1.3-0.5c1.7-1.1,3.4-2.2,5-3.3c4.8-3.4,9.8-6.4,14.9-9.4c0.3-0.2,0.6-0.3,1.1-0.4c-0.1,0.4,0,0.7-0.1,1
		c-0.4,1.3-0.7,2.6-1.1,3.9c-0.7,2.3-1.5,7.6-1.9,10c-0.2,1.2,0,1.4,1,2.4c0.3-0.3,0.7,0.3,1,0.1c1.5-1.4,3-6,4.6-7.3
		c1.8-1.5,4-6.8,5.8-8.3c3.1,6.1,6.8,17.8,7.2,18.3c0.1-0.2,1.1-2.8,1.1-2.9c0-0.3,0.1-0.5,0.1-0.8c0-2.9,0.4-5.8,1.2-8.6
		c0.7-2.3,1.2-4.7,1.2-7.1c0-0.6,0.1-1.1,0.2-1.8c0.4,0.2,0.7,0.3,0.9,0.5c1.7,1.3,3.5,2.5,5.2,3.8c3,2.3,6,4.6,9,7
		c1.1,0.9,2.1,1.2,3.2,2.1c0.7,0.6,1.4,0.9,2.3,0.5c0-0.3,0,0.1-0.1-0.2c-0.7-2.5-1.4-5-2.2-7.4c-1.1-3.4-2.2-6.7-3.4-10.1
		c-0.7-2.1-0.8-4.4-0.9-6.6c0-0.1,0.1-0.1,0.2-0.2c0.1,0,0.3,0,0.5,0c3.5-0.1,6.9-0.1,10.4-0.2c1.8,0,3.6-0.2,5.3-0.6
		c0.3-0.1,0.6-0.2,0.8-0.4c0.2-0.2,0.3-0.6,0.3-0.8s-0.5-0.3-0.7-0.3H94c-1.4-1.2-4.5-3.5-5.7-4.7c-3.1-3-6.1-6.1-9.1-9.2
		c-0.6-0.6-1.3-1.2-2.1-1.4c0.8-0.6,2.1-1.7,2.4-1.8c2.8-1.3,5.5-2.6,8.3-3.8c3-1.3,5.8-2.8,8.5-4.7c0.4-0.3,0.8-0.7,1.1-1.1
		C97.2,30.7,97.2,30.3,97.1,30z"/>
	<path d="M96.4,30c-0.1-0.1-0.4-0.2-0.7-0.2c-2.4,0.2-4.9,0.5-7.3,0.8c-1.8,0.2-3.5,0.4-5.3,0.6c-2.4,0.3-4.9,0.6-7.3,1
		c-1.3,0.2-2.5,0.4-3.8,0.6c0,0,0,0-0.1,0c1.2-1.6,3-5.1,3.4-5.6c1-1.6,2.1-3.2,3.1-4.9c1.2-2.1,2.3-4.2,3.4-6.3
		c0.3-0.5,0.4-1.2-0.1-1.8c-0.4,0.1-0.9,0.2-1.3,0.4c-1.7,1-3.5,2-5.2,3.1c-4.9,3.2-10.1,6-15.3,8.7c-0.3,0.2-0.6,0.2-1.1,0.4
		c0.1-0.4,0.1-0.7,0.2-1c0.4-1.3,0.8-2.6,1.3-3.9c0.8-2.3,1.3-9.5,1.8-11.9c0.3-1.2,0-2.3-1-3.3c-0.3,0.3-0.7,0.5-0.9,0.8
		c-1.6,1.4-2.4,3.9-4.1,5.2c-2,1.6-4.4,7-6.3,8.5c-0.4,0.3-0.1,0.7-0.5,1.2c-3.4-6-9.3-15.1-9.7-15.6c-0.1,0.2-1,2.8-1,3
		c0,0.3,0,0.5,0,0.8c0.1,2.9-0.1,5.8-0.8,8.6c-0.6,2.3-1,4.7-0.9,7.1c0,0.6,0.9,0.9,0.9,1.6c-0.4-0.2-1.7,0-1.9-0.2
		c-1.8-1.2-3.6-2.4-5.3-3.6c-3.1-2.2-6.2-4.4-9.3-6.6c-1.1-0.8-2.2-1.7-3.3-2.6c-0.7-0.5-1.4-0.9-2.3-0.4c0,0.3,0,0.6,0.1,0.9
		c0.8,2.5,1.6,4.9,2.5,7.3c1.2,3.3,2.5,6.6,3.8,9.9c0.8,2.1,0.9,4.3,1.2,6.6c0,0.1-0.1,0.1-0.2,0.3c-0.1,0-0.3,0.1-0.5,0.1
		c-3.5,0.2-8,1.1-11.4,1.3c-1.8,0.1-3.6,0.3-5.3,0.8c-0.3,0.1-0.6,0.2-0.8,0.4c-0.2,0.2-0.3,0.6-0.2,0.8C5,43,5.4,43.1,5.7,43.1h0.1
		c1.4,1.2,13.4,9.6,16.5,12.6c0.7,0.6-0.7-0.2,0.1,0.1C21.6,56.3,7.6,64.1,5,66.1c-0.4,0.3-0.8,0.7-1,1.2c-0.1,0.2-0.1,0.6,0,0.8
		c0.1,0.1,0.5,0.2,0.7,0.2c2.4-0.3,4.3,1.5,6.8,1.1c1.8-0.3,4.7-0.7,6.4-1c2.4-0.4,4.8-0.8,7.2-1.3c1.2-0.2,2.5-0.5,3.7-0.7
		c0,0,0,0,0.1,0c-1.1,1.6-2.8,5.2-3.1,5.7c-1,1.7-2,3.3-2.9,5c-1.1,2.1-1.5,2.3-2.5,4.4c-0.3,0.6-1.1,3.2-0.5,3.9
		c0.4-0.2,1.6-2.3,1.9-2.5c1.7-1.1,3.4-2.2,5-3.3c4.8-3.4,9.2-4.3,14.2-7.3c0.3-0.2,0.6-0.3,1.1-0.4c-0.1,0.4,0,0.7-0.1,1
		c-0.4,1.3-0.7,2.6-1.1,3.9c-0.7,2.3-1.5,7.6-1.9,10c-0.2,1.2,0,2.1,1,3.1c0.3-0.3,0.7-0.4,1-0.6c1.5-1.4,3.5-4.8,5.1-6.2
		c1.8-1.5,3.6-7.9,5.3-9.4c3.1,6.1,7.2,17.1,7.6,17.6c0.1-0.2,0.7-2.1,0.7-2.2c0-0.3,0.1-0.5,0.1-0.8c0-2.9,1.2-5.1,1.9-7.9
		c0.7-2.3,0.4-5.3,0.4-7.7c0-0.6,0.1-1.1,0.2-1.8c0.4,0.2,0.7,0.3,0.9,0.5c1.7,1.3,3.5,2.5,5.2,3.8c3,2.3,6,4.6,9,7
		c1.1,0.9,0.1-0.9,1.1,0c0.7,0.6,1.4,0.2,2.3-0.2c0-0.3,0,0.1-0.1-0.2c-0.7-2.5,0.7-2.3-0.1-4.7c-1.1-3.4-2.2-6.7-3.4-10.1
		c-0.7-2.1-0.8-4.4-0.9-6.6c0-0.1,0.1-0.1,0.2-0.2c0.1,0,0.3,0,0.5,0c3.5-0.1,6.9-0.1,10.4-0.2c1.8,0,3.6-0.2,5.3-0.6
		c0.3-0.1,0.6-0.2,0.8-0.4c0.2-0.2,0.3-0.6,0.3-0.8s-0.5-0.3-0.7-0.3H93c-1.4-1.2-4.5-3.5-5.7-4.7c-3.1-3-6.1-6.1-9.1-9.2
		c-0.6-0.6-1.3-1.2-2.1-1.4c0.8-0.6,2.1-1.7,2.4-1.8c2.8-1.3,5.5-2.6,8.3-3.8c3-1.3,5.8-2.8,8.5-4.7c0.4-0.3,0.8-0.7,1.1-1.1
		C96.6,30.7,96.5,30.3,96.4,30z"/>
	<path d="M97.9,29.3c-0.1-0.1-0.4-0.2-0.7-0.2c-2.4,0.2-4.9,0.5-7.3,0.7c-1.8,0.2-3.5,0.3-5.3,0.6c-2.4,0.3-5.4,1.2-7.9,1.5
		c-1.3,0.2-1.9-0.3-3.2-0.1c0,0,0,0-0.1,0c1.2-1.6,3.1-5,3.4-5.6c1.1-1.6,2.2-3.2,3.1-4.8c1.2-2.1,1.7-3.5,2.8-5.6
		c0.3-0.5,0.4-1.1-0.1-1.8c-0.4,0.1-0.2-0.5-0.6-0.3c-1.8,1-3.5,2-5.2,3.1c-4.8,3.2-10,5.9-15.2,8.6c-0.3,0.2-0.6,0.2-1.1,0.4
		c0.1-0.4,0.1-0.7,0.2-1c0.4-1.3,0.2-2.6,0.6-3.8c0.9-2.2,1.4-9.5,1.9-11.9c0.3-1.2-0.7-1.6-1.6-2.6c-0.3,0.3-0.7,0.5-0.9,0.7
		c-1.6,1.4-1.1,3.2-2.8,4.5c-2.1,1.6-4.5,7-6.4,8.4c-0.4,0.3-1.7,1.2-2,1.7C46.6,16.4,42,7.5,40.8,6.2c-0.1,0.2-1,2.8-1,3
		c0,0.3,0,0.5,0,0.8c0.1,2.9,0.5,5.1-0.2,7.9c-0.6,2.3-1.7,6.1-1.7,8.5c0,0.6-0.1,1.1-0.1,1.8c-0.4-0.2-1-0.8-1.2-1
		c-1.8-1.2-2.3-1.5-4.1-2.7c-3.1-2.2-6.5-4.6-9.5-6.8c-1.1-0.8-3.5-2.1-4.6-2.9c-0.7-0.5-1.4-0.9-2.3-0.4c0,0.3,0,0.6,0.1,0.9
		c0.8,2.5,2.2,4.3,3.1,6.7c1.2,3.3,2.5,6.6,3.7,10c0.8,2.1,1.6,3.7,1.8,5.9c0,0.1-0.1,0.1-0.2,0.3c-0.1,0-0.3,0.1-0.5,0.1
		c-3.5,0.2-8.7,1.8-12.1,1.9c-1.8,0.1-3.6,0.3-5.3,0.7c-0.3,0.1-0.6,0.2-0.8,0.4c-0.2,0.2-0.3,0.6-0.3,0.8S5.7,43,6,43
		c0.3-0.1,0.7,0,0.7,0c1.4,1,13.2,9.7,16.3,12.7c0.6,0.6-0.3-1.6,0.6-1.4c-0.8,0.6-14.4,11-16.9,13c-0.4,0.3-0.6,0-0.9,0.4
		c-0.7,0.9-0.7,1.4,0,0.8c0.1-0.1,0.7,0.9,0.9,0.8c2.4-0.3,4.6,0.1,7-0.3c1.8-0.2,3.5-0.5,5.3-0.8c2.4-0.4,4.8-0.8,7.2-1.2
		c1.2-0.2,2.5-1.1,3.7-1.4c0,0,0,0.7,0.1,0.7c-1.1,1.6-2.9,3.8-3.2,4.3c-1,1.6-2,3.3-2.9,5c-1.1,2.1-2.2,4.3-3.2,6.4
		c-0.3,0.6-1.1,2.5-0.5,3.2c0.4-0.2,0.9-0.2,1.3-0.5c1.7-1.1,3.4-2.1,5.1-3.3c4.8-3.4,10.6-7.7,15.7-10.6c0.3-0.2,0.8,0.6,1.2,0.4
		c-0.1,0.4-0.2-0.1-0.3,0.2c-0.4,1.3-0.7,2.6-1.2,3.9c-0.8,2.3-1.6,7.6-2,10c-0.2,1.2,0.1,2.3,1.1,3.3c0.3-0.3,0.6-0.5,0.9-0.8
		c1.6-1.4,3.1-5.9,4.7-7.3c1.8-1.5,3.1-6.4,4.9-7.8c3,6.1,7.6,17.5,8,18c0.1-0.2,1.1-2.8,1.1-2.9c0-0.3,0.1-0.5,0.1-0.8
		c0-2.9,0.4-5.8,1.3-8.5c0.7-2.3-0.2-4-0.1-6.4c0-0.6,0.1-1.1,0.2-1.8c0.4,0.2,0.7,0.3,0.9,0.5c1.7,1.3,4.5,2.6,6.2,4
		c3,2.3,6.6,4.4,9.5,6.8c1.1,0.9,1.8,1.4,2.9,2.3c-0.7-0.6,2.7,0.3,2.3,0.5c0-0.3,0-0.6-0.1-0.9c-0.7-2.5-1.3-5-2.1-7.5
		c-1-3.4-2.2-6.7-3.3-10.1c-0.7-2.2-0.7-4.4-0.8-6.6c0-0.1,0.1-0.1,0.2-0.2c0.1,0,0.3,0,0.5,0c3.5,0,6.5,0.1,10,0.1
		c1.8,0,4-0.4,5.7-0.7c0.3-0.1,0.6-0.2,0.8-0.4c0.2-0.2-0.3-1.2-0.4-1.5c0-0.2-0.5-0.3-0.7-0.3h-0.1c-1.4-1.3-3.5-1.4-4.7-2.6
		c-3-3.1-6.5-7.1-9.5-10.2c-0.6-0.7-1.1-1.8-2-2.1c0.8-0.6,2.1-1.6,2.5-1.8c2.8-1.3,5.5-2.6,8.4-3.8c3-1.2,5.8-2.7,8.5-4.6
		c0.4-0.3,0.8-0.7,1.1-1.1C98,30,98,29.6,97.9,29.3z"/>
</g>
<path id="Stroke" d="M74.8,88.3c-0.2-0.4-0.4-0.7-0.5-1c-1-2.5-2.1-4.9-3.5-7.2c-0.3-0.5-0.4-1.1-0.6-1.7c0.4,0.1,0.5,0,0.5,0.1
	c0.1,0.1,0.2,0.2,0.2,0.3c2,2.7,3.2,5.7,4.1,9C75,87.8,74.9,88,74.8,88.3z M69.6,266.7c0.4,0.6,0.9,0.7,1.9,0.5
	c-0.5-0.7-1-1.3-1.5-2C69.4,265.9,69.3,266.3,69.6,266.7z M87,87.5c1.2,0,1.6-0.8,2.2-1.4C88.3,86.2,87.7,86.7,87,87.5z M64.4,35.3
	c-0.1-0.2-0.5-0.5-0.7-0.5c-0.4,0-0.4,0.4-0.4,0.7c0.1,1-0.1,2.1,1.1,2.9c0.2-0.3,0.4-0.6,0.4-0.8C64.7,36.9,64.6,36.1,64.4,35.3z
	 M71.8,84.7c0,0.3,0,0.6,0.1,0.8c0.5,1.6,1,3.2,1.4,4.7c0.2,0.8,0.3,1.7,0.5,2.5c0.1,0.4,0.1,0.9,0.7,1.1
	C75,91.5,73.4,85.7,71.8,84.7z M65.7,106c0.3,3.1,0.4,6.2,0.4,9.4c0,2.4,0.2,4.8,0.2,7.2c0,3.8,0.4,7.7,0.7,11.5
	c0.1,1.6,0.4,3.1,0.8,4.7c0.7,3,1,6,1.4,9c0.2,1.7,0.5,3.4,0.7,5.2c0.4,2.7,0.8,5.4,1.2,8.1c0.4,2.9,0.8,5.7,1.3,8.6
	c0.1,0.9,0.5,1.8,0.6,2.8c0.3,1.9,0.6,3.8,0.9,5.7c0.1,0.9,0.3,1.9,0.5,2.8c0.1,0.5,0.2,1,0.1,1.5c-0.3,1.2-0.3,2.3-0.2,3.5
	c0.1,1.1,0,2.1,0,3.2c0,0.1,0,0.2,0,0.4c0.1,1.8,0.1,3.6,0.2,5.4c0,1.4,0,2.8,0,4.1c0,1.6,0,3.2-0.1,4.7c-0.2,2.1-0.4,4.2-0.6,6.4
	c-0.1,1.1-0.4,2.1-0.4,3.2c-0.2,2.8-0.3,5.5-0.4,8.3c0,2.1,0.1,4.2,0.1,6.3c0,2.3-0.3,4.5-0.9,6.7c-0.2,0.6-0.3,1.1,0.2,1.8
	c0.4,0.6,0.4,1.3,0.6,2c0.2,0.8,0.6,1.4,1.5,1.4c0.2,0,0.3,0.1,0.5,0.1c1.2,0.6,2.3,0.3,3.3-0.5c0.8-0.6,1.6-1.1,2.4-1.7
	c-0.6-0.6-1.3-0.6-2-0.4c-0.4,0.1-0.8,0.3-1.1,0.5c-0.7,0.5-1.4,0.2-2.1-0.1c-0.1,0-0.3-0.2-0.3-0.3c-0.4-0.9-0.7-1.8-0.5-2.9
	c0.1-0.4,0.2-0.8,0.3-1.3c0.8-3,0.9-6,0.8-9.1c-0.2-3.9-0.1-7.8,0.2-11.7c0.1-1.4,0.4-2.9,0.7-4.3c0.3-1.9,0.5-3.7,0.5-5.6
	c0-2.4,0.1-4.9,0.1-7.3c0-0.1,0.1-0.3,0.3-0.4c0.4,1.1,0.7,2.1,1.1,3.4c0.3-1.6,0.3-3,0.1-4.4c-0.5-2.7-0.9-5.4-1.4-8
	c0-0.2-0.1-0.4,0-0.6c0.4-1.9,0-3.8-0.2-5.6c-0.4-2.9-0.9-5.9-1.4-8.8c-0.7-4.4-1.4-8.7-2-13.1c-0.3-2.1-0.6-4.1-0.9-6.2
	c-0.4-3.1-1-6.2-1.3-9.4c-0.2-2.4-0.9-4.7-1.2-7.1c-0.2-1.5-0.4-3-0.6-4.5c-0.2-2-0.4-4.1-0.4-6.1c-0.2-4.1-0.3-8.2-0.4-12.3
	c-0.1-1.7-0.2-3.4-0.3-5.1c0-1.1-0.1-2.1,0-3.2c0.2-1.5,0.2-3.1,0-4.6c-0.1-0.5-0.1-0.9-0.1-1.4c-0.2-2.4-0.4-4.9-0.6-7.3
	c0-0.4,0-0.8-0.1-1.2c0.9-0.1,1.5,0.6,2.3,0.8c0-0.3,0-0.5-0.1-0.7c-0.1-0.3-0.3-0.6-0.5-0.8c-1.5-1.8-2-3.9-2.7-6
	c-1.3-4.1-2.3-8.3-2.8-12.6c-0.3-2.6-0.3-5.3,0.2-7.9c0-0.1,0.1-0.3,0.2-0.4c0.5-0.4,0.3-0.8,0.3-1.3c-0.1-0.7-0.2-1.5,0.2-2.3
	c1.3,0.2,2.5,0.7,3.7,1.2c0.8,0.3,1.6,0.8,2.5,0.7c0.5,0,0.7,0.2,0.8,0.7c0.2,0.8,0.8,1.2,1.5,1.4c1.6,0.5,3.3,0.9,5,0.7
	c0.1,0,0.2-0.1,0.4-0.1c-0.1-0.5-0.5-0.5-0.8-0.6c-1.6-0.6-3.2-1.1-4.8-1.7c-0.5-0.2-1.1-0.3-1.3-0.9c-0.1-0.2-0.4-0.4-0.6-0.5
	c-0.8-0.5-1.6-1-2.5-1.4c-1.8-0.8-3.5-0.7-5.2,0.2c-0.3,0.1-0.5,0.5-0.6,0.8c-0.3,1-0.3,2,0.6,2.8c-1.4,1.1-1.9,2.4-2,4
	c-0.5,5.4,0.6,10.5,1.9,15.7c0.3,1.2,0.7,2.3,1.1,3.5c0.3,0.8,0.6,1.6,1.2,2.3c0.2,0.3,0.4,0.7,0.4,1.1c0.1,1.3,0.1,2.7,0.1,4
	c0,1.2,0.1,2.4,0.1,3.5c0,0.9,0,1.8,0.1,2.7c0.1,2.2,0.1,4.4-0.4,6.6C65.6,104.9,65.7,105.4,65.7,106z M76.8,88.6
	c0.7-0.5,0.7-0.6,0.8-3.1C76.8,86.6,76.7,87.6,76.8,88.6z M91.1,80.1c0.1-0.2,0-0.5,0-0.8c-0.1-0.1-0.2-0.1-0.4-0.2
	c-0.1,0.1-0.1,0.3-0.2,0.4c-1,2.1-2.6,3.7-4.3,5.3c-0.8,0.7-1.4,1.6-2.1,2.6c0.4,0,0.6,0.1,0.7,0c1.7-1.4,3.5-2.6,4.7-4.4
	C90.3,82.2,90.6,81.1,91.1,80.1z M88.3,51.1c-1.3,0.9-2.4,2.6-2.5,4.1c1.3-0.1,1.8-1,2.3-1.9C88.4,52.6,88.9,51.9,88.3,51.1z
	 M65.4,62.7c0.4,0.2,0.8,0.5,1.3,0.6c0.8,0.2,1.6,0.3,2.7,0c-1.4-0.9-2.8-0.7-4-1.3C65,62.3,65.1,62.6,65.4,62.7z M81.8,62.8
	c-0.4,0-0.8,0.2-1.3,0.3c0.5,0.6,1,0.7,1.6,0.8c1.6,0,3-0.4,4.4-1.3c0.6-0.4,1.2-0.9,1.9-1.3c0.9-0.6,0.9-0.6,2.1-0.1
	c-0.2-0.8-0.6-1.2-1.3-1.2c-0.7,0-1.3,0.1-1.9,0.4c-0.7,0.4-1.5,0.8-2.3,1.2C84,62.2,83,62.6,81.8,62.8z M74.5,83.5
	c-0.1-0.5-0.2-1.1-0.4-1.5c-1.3-3.3-2.7-6.6-4-9.8c0-0.1-0.2,0-0.4-0.1c1.2,4,2.4,8,4.6,11.5C74.4,83.5,74.4,83.5,74.5,83.5z
	 M85.9,270.9c-0.2,0.9-0.4,1.9-0.6,2.8C86.1,272.9,86.5,272,85.9,270.9z M104,268.2c0,0-0.1-0.1-0.2-0.1s-0.1,0.1-0.3,0.3
	c0.2,0,0.3,0.1,0.3,0.1C104,268.4,104,268.3,104,268.2z M97.2,271.2c1.1-0.9,1.7-2.1,2.3-3.1c0.3-0.4,0.2-1,0.4-1.4
	C97.5,269.2,97,270,97.2,271.2z M103.8,274.1c0.2-0.1,0.3-0.2,0.6-0.5c-0.8-0.1-0.8-0.1-1.1,0.4
	C103.6,274.1,103.7,274.2,103.8,274.1z M111,263.3c-0.6-0.7-1.4-1.3-1.7-2.2c-0.3-0.9-0.9-1.1-1.7-1.1c-1.5,0-2.9,0.1-4.3,0.7
	c-1.2,0.4-2.5,0.9-3.7,1.2c-1.1,0.3-2.2,0.4-3.2-0.4c-0.2-0.1-0.4-0.3-0.6-0.3c-1.3-0.2-2.5-0.8-3.8-0.7c-0.7,0-0.8-0.2-0.9-0.8
	c-0.1-0.8,0-1,0.7-1.2c0.4-0.1,0.8-0.2,1.1-0.3c-0.3-0.3-0.6-0.4-0.9-0.5c-0.6-0.2-1.3-0.4-1.9-0.7c-0.9-0.6-1.8-0.8-2.7,0
	c-0.6,0.5-1.3,0.6-2.1,0.3c-0.3-0.1-0.7-0.2-1-0.2c-1.8,0-3.5-0.6-5-1.6c-0.6-0.4-1.3-0.4-2.1-0.2c0.2,0.4,0.2,0.7,0.4,0.9
	c0.8,1.7,1.9,3.3,3.1,4.8c1,1.3,1.9,2.7,2.1,4.4c0.2,1.1,0.3,2.2,0.4,3.3c0,0.2-0.1,0.4-0.1,0.7c-0.8-0.1-1-0.7-1.2-1.3
	c-0.2-1-0.4-1.9-0.6-2.9c-0.2-0.9-0.5-1.8-1.4-2.4c-0.4-0.3-0.8-0.8-1.1-1.3c-0.8-1.5-1.7-3-2.4-4.6c-0.6-1.3-1.4-2.1-2.7-2.8
	c-1.3-0.6-2.7-0.3-3.8-1.2c-0.9,1.4-0.9,1.6-0.1,2.8c0.5,0.8,1.1,1.5,1.4,2.4c0.9,2.5,1.6,4.9,2.4,7.4c0.2,0.6,0.3,1.2-0.1,1.8
	c-1-0.7-1.5-1.6-1.9-2.6s-0.8-2-1.1-3c-0.5-1.6-1.1-3.2-2.3-4.5c-0.6-0.6-0.7-1.3-0.5-2.1c0.3-1.1,0.7-2.2,1.1-3.4
	c-0.2-0.4-0.7-1-0.7-1.6c0-1.2,0-2.4,0.8-3.4c1.1-1.6,2.4-2.9,3.9-4.1c1.6-1.3,3.4-1.3,5.3-1.1c0.9,0.1,1.9,0.5,2.8,1
	c1.2,0.7,2.2,1.7,3.2,2.6c0.3-0.1,0.6-0.1,0.9-0.2c-0.1,1-0.7,1.5-1.7,1.7s-1.6,0.8-2,1.7c-0.6,1.1-0.2,1.9,1,2.2
	c0.3,0.1,0.7,0.1,1.1,0.1c0.6,0.1,1.2,0.4,1.5,1c-1,0.2-1.9,0.4-2.9,0.6c-0.5,0.1-1.1,0-1.6,0c-0.8-0.1-1-0.3-1.1-1.1
	c-0.3-1.8,0.2-3.3,1.8-4.3c0.3-0.2,0.8-0.4,0.9-0.9c-0.1-0.1-0.1-0.3-0.2-0.3c-1.3-0.8-2.3-2.2-4-2.2c-0.3,0-0.5-0.2-0.8-0.3
	c-0.8-0.4-1.6-0.3-2.3,0.2c-1.3,0.8-2.5,1.8-3.3,3.2c-0.5,0.8-0.8,1.7-0.8,2.7c0,0.3,0.1,0.7,0.3,0.9c1.1,1.2,2.4,2.2,4,2.6
	c0.5,0.1,1.1,0.2,1.6,0.2c0.9,0,1.9-0.1,2.8,0.1c0.9,0.2,1.8,0.7,2.7,1.1c1.1,0.5,2.3,0.9,3.6,0.5c0-0.5-0.4-1.1,0.3-1.6
	c0.8,0.1,1.7,0.2,2.5,0.3c0.4,0.1,0.8,0.3,1,0.5c0.7,0.7,1.5,1.1,2.3,1.6c1.2,0.7,2.3,1.2,3.7,1.2c0.2,0,0.4,0.1,0.9,0.3
	c-0.8,0.4-1.4,0.8-2.2,1.2c0.8,0.2,1.3,0.4,1.8,0.5c0.4,0.1,1,0.2,1.3,0.4c0.9,0.7,1.8,0.6,2.8,0.4c0.6-0.1,1.2-0.3,1.7-0.5
	c2-0.9,4-1.3,6.2-1.5c1.1-0.1,1.9,0.3,2.4,1.2c0.8,1.4,1.3,3,1.8,4.5C111.5,263.6,111.2,263.6,111,263.3z M86.8,254.8
	c0-0.1-0.1-0.2-0.1-0.2c-0.1,0-0.2,0-0.3,0c0,0.1,0.1,0.2,0.1,0.2C86.6,254.9,86.7,254.9,86.8,254.8z M73.8,270.6
	c0,0.1,0.3,0.2,0.4,0.2c0.5-0.2,0.5-0.5,0.3-0.9c-0.1,0-0.1,0-0.2,0C73.9,269.9,73.6,270.2,73.8,270.6z M94.9,269.9
	c0.4,0.1,0.7-0.2,0.8-0.5c0.5-1.1,1.4-2,1.3-3.3C96.2,266.4,95.1,268.5,94.9,269.9z M84.3,271.3c-0.8,0.7-1,1.5-1,2.4
	C84,273.5,84.2,273,84.3,271.3z M82,273.4c0.1-0.4,0.2-0.7,0.3-1.1c-0.1,0-0.2,0-0.2-0.1C81.6,272.9,81.6,272.9,82,273.4z
	 M92.2,269.5c0.5-1.3,1.5-2.3,1.9-3.7c-1.3,0.3-2.5,2.2-2.5,4.1C91.9,269.7,92.1,269.7,92.2,269.5z M79.2,217c-0.1,0-0.2,0-0.2,0
	c-0.2,1,0.2,1.9,0.8,2.7C79.6,218.9,79.4,217.9,79.2,217z M84,268.4c-0.1,0-0.3,0-0.3,0.1c-0.2,0.4,0,0.7,0.3,0.9
	c0.1-0.1,0.2-0.1,0.3-0.2C84.4,269,84.4,268.6,84,268.4z M91.6,240.8c0.6-0.9,0.7-2,0.9-3.1c0-0.3-0.1-0.6-0.2-0.9
	c-0.1,0-0.2,0-0.2,0c-0.4,1.3-0.8,2.7-1.1,4c0,0.1,0.1,0.2,0.1,0.4C91.3,241.1,91.5,240.9,91.6,240.8z M65.8,269.7
	c0.8-0.1,1-0.2,1.4-1c0.9-1.7,1.5-3.5,0.8-5.7C67.4,265.5,67.2,267.7,65.8,269.7z M89.8,240c0.7-0.7,0.8-1.4,0.8-2.2
	C89.8,238.2,89.7,238.5,89.8,240z M84.8,244.9L84.8,244.9C84.8,244.9,84.9,244.9,84.8,244.9L84.8,244.9z M99.4,249.4
	c-1.1-0.9-2-2-2.6-3.3c-0.1-0.3-0.4-0.6-0.6-1c-0.5,0.5-0.7,0.9-0.5,1.5c0.2,0.4,0.2,0.9,0.4,1.2c0.2,0.5,0.4,1,0.8,1.4
	c0.8,0.9,1.6,1.7,2.4,2.6c0.4,0.5,0.8,1,0.7,1.8c-0.1,0.8-0.4,1.3-1.1,1.6c-0.4,0.2-0.7,0.5-1.3,0.9c0.4,0.2,0.6,0.4,0.8,0.4
	c1.4,0.2,2.7-1,2.9-2.3C101.5,252.3,101,250.7,99.4,249.4z M79,154.4c0.6,3.2,1.1,6.4,2.1,9.6c0.1,0.3,0.2,0.5,0.3,0.8
	c0.5-1.8-0.8-9.4-2.1-12.1C78.7,153.3,78.9,153.9,79,154.4z M78,202.3c0.2,1.7,0.5,3.1,1,3.8c0.2-1.4-0.3-4.3-0.9-5.2
	C77.8,201.4,77.9,201.8,78,202.3z M94.1,59.5c-0.7-1.6-0.7-1.6,0.1-3.2c-0.1-0.1-0.3-0.3-0.5-0.5c-0.8,0.6-1.6,1.1-2.3,1.7
	c-0.2,0.1-0.1,0.6,0,0.8c0.4,1,0.8,1.9,1.2,2.8c0.2,0.6,0.2,1.1-0.2,1.6c-1.3,1.4-1.7,3.2-2,5c-0.1,0.5-0.2,0.9-0.3,1.4
	c-0.1,0.4,0,0.8-0.1,1.5c0.4-0.3,0.7-0.3,0.9-0.5c0.6-0.9,1.3-1.7,1.4-2.8c0-0.4,0.2-0.8,0.2-1.2c0.1-1,0.3-1.9,1.2-2.7
	c1-0.9,1.2-2.1,0.6-3.4C94.3,59.8,94.2,59.7,94.1,59.5z M84.7,53.3c-0.4,0.4-0.9,0.8-1.3,1.2c-0.1,0.1,0,0.3-0.1,0.6
	c1-0.1,1.5-0.6,1.9-1.2c0.1-0.1,0-0.4-0.1-0.5C85.1,53.3,84.8,53.3,84.7,53.3z M94.4,240.3c0.5-1.4,0.8-2.9-0.2-4.3
	c-0.1,1-0.1,2-0.3,2.9c-0.2,1-0.7,1.9-1.1,3C94,241.7,94.2,240.9,94.4,240.3z M83.3,27.8c-0.3,1.6-0.5,3.2,0.3,4.7
	c0.7,1.3,1.2,2.7,2.2,3.7c0.1,0.1,0.2,0.2,0.6,0.5c-0.6-1.8-1.1-3.3-1.5-4.8s-0.6-3.1-1-4.9C83.6,27.4,83.3,27.6,83.3,27.8z
	 M90.9,50.3c-0.7,1.2-1.7,2.2-1.8,3.7c1-0.3,1.2-1.2,1.6-1.8c0.4-0.7,1-1.3,0.9-2.4C91.3,50,91,50.1,90.9,50.3z M79.4,84.8
	c-0.4,0.9-0.6,1.8-0.3,2.5c0.4-1,1.1-1.8,0.9-3.1C79.7,84.4,79.5,84.6,79.4,84.8z M77.7,231.8c-0.8,0.8-0.9,1.5-0.5,2.4
	c0.4,0.8,0.7,1,1.7,0.9c-0.3-0.6-0.7-1.1-0.9-1.6C77.8,233,77.8,232.4,77.7,231.8z M82.3,110.2c0,0.4-0.1,0.9-0.1,1.3
	c0.2,3.7,0.4,7.4,0.7,11.1c0.1,1.7,0.4,3.4,0.6,5.1c0.1,0,0.2,0,0.2,0c0.3-1.5,0.3-3,0.2-4.4c-0.2-2.6-0.4-5.1-0.7-7.7
	c-0.2-1.8-0.5-3.6-0.7-5.5C82.5,110.2,82.4,110.2,82.3,110.2z M81.1,132c0.3,3.5,0.6,7.1,0.9,10.6c0,0.3,0.1,0.5,0.3,0.7
	c0.4-2.9,0.3-5.9,0.3-8.8c0-3-0.1-5.9-0.2-8.9c-0.2-2.9-0.4-5.9-0.7-8.8c-0.1,0-0.2,0-0.3,0c-0.1,0.4-0.2,0.8-0.3,1.2
	c-0.1,1.5-0.2,3-0.4,4.5c-0.2,1.8,0.1,3.5,0.1,5.3C80.9,129.3,81,130.6,81.1,132z M86.8,82.8c0.2-0.3,0.2-0.8-0.3-1.1
	c-0.9,1.1-1.6,2.5-3,3.2c-0.1-0.5-0.2-0.9-0.4-1.5c-0.3,0.2-0.5,0.3-0.7,0.5c-0.5,0.5-0.9,1.1-1.4,1.6c-0.3,0.3-0.5,0.6-0.2,0.9
	c0.1,0.1,0.5,0.1,0.7,0.2c0.1,0,0.2-0.1,0.3-0.1c1.6,0.6,2.7-0.5,3.7-1.4C86.1,84.5,86.4,83.6,86.8,82.8z M79.6,144.5
	c0.3,2.4,0.7,4.8,1.1,7.3c0.1,1,0.3,1.9,0.5,2.9c0.5-5.4-0.6-10.5-1.4-15.8C79.2,140.8,79.4,142.6,79.6,144.5z M80.2,216.6
	c0.1,0,0.2,0,0.2,0c0.4-2.1,0-4.2-0.2-6.5c-0.6,0.6-1,1-0.6,1.8c0.2,0.4,0.2,0.9,0.2,1.4C80,214.3,80.1,215.4,80.2,216.6z
	 M81.4,236.7c0,0,0.1,0,0.3,0.1c-0.5-2-1-3.9-1.5-5.9c-0.5,0.2-0.6,0.6-0.5,0.9C79.9,233.5,80.2,235.2,81.4,236.7z M90.2,63.8
	c0.2-0.1,0.3-0.2,0.4-0.3c-0.1-0.1-0.1-0.3-0.2-0.2c-0.2,0-0.3,0.1-0.5,0.2C90.1,63.6,90.2,63.8,90.2,63.8z M83.8,238.6
	c0.1,0.2,0.5,0.3,0.7,0.5l0.2-0.1c-0.1-0.4-0.2-0.9-0.4-1.3c-0.2-0.6-0.5-1.2-0.7-1.7c-0.5-1.2-1-2.4-0.7-3.8
	c-0.9,0.7-0.8,1.6-0.8,2.5C82.3,236.1,83.1,237.3,83.8,238.6z M85,235.5c-0.3,1.5,0.1,3,1.2,4.3C85.7,238.2,85.4,236.9,85,235.5z
	 M84.3,94.4c0.2,1.2,0.1,2.5,0.8,3.6C85.3,96.7,84.9,95.6,84.3,94.4z M83.5,102.7c0,4.1,0.4,8.2,1.4,12.3
	C84.6,110.8,84.2,106.7,83.5,102.7z M246.4,220.8c0.2-0.6-0.3-0.7-0.6-0.9C245.8,220.3,245.9,220.7,246.4,220.8z M263.1,229.3
	c1,0,2.1-0.7,2.4-1.5C264.4,227.7,263.4,228.4,263.1,229.3z M256.1,242.7c0.5,0.2,0.8-0.1,0.8-0.4c0.3-1.7,0.7-3.5,0.4-5.3
	c-0.1-0.8-0.6-1.6-1.3-2.3c-0.7,0.4-0.4,1-0.3,1.5c0.2,0.9,0.5,1.8,0.5,2.6c0.1,1.1-0.1,2.1-0.2,3.2
	C256.1,242.3,256.1,242.5,256.1,242.7z M84.9,244.9C84.8,244.9,84.8,244.9,84.9,244.9L84.9,244.9L84.9,244.9z M236.1,286.2
	c-0.1,0.1-0.1,0.4,0,0.5c0.4,0.3,0.6,0.1,0.9-0.3C236.7,286,236.4,285.8,236.1,286.2z M81.3,27.9c-1.1,1.9,0.1,6.1,1.8,7.2
	c-0.4-1.2-0.9-2.3-1.1-3.4C81.7,30.6,81.5,29.4,81.3,27.9z M263.7,231c1.2,0.1,2-0.4,2.6-1.8C265.3,229.6,264.4,230.1,263.7,231z
	 M239,259.8c-0.4-0.3-0.6-0.1-0.7,0.2c-0.2,0.6-0.3,1.1-0.5,1.7c-0.8,2.6-1.2,5.3-1.2,8c0,2.8-0.3,5.7-0.6,8.5
	c-0.1,1.2-0.6,2.3-0.8,3.4c-0.2,1-0.4,1.9-0.1,2.9c0.1,0.3,0.3,0.6,0.5,0.7c0.3,0,0.7-0.2,0.9-0.4c0.2-0.3,0.4-0.7,0.3-1.1
	c-0.1-1.5,0.2-2.9,0.7-4.3c0.7-2.2,0.9-4.4,0.9-6.7c0-1.9-0.1-3.7-0.2-5.6c-0.1-2.1,0.3-4.1,0.8-6.1
	C238.8,260.7,238.9,260.2,239,259.8z M261.9,232.9c0.1-0.2,0-0.4,0-0.6c-0.6-0.1-0.7,0.3-0.8,0.6c-0.4,1-0.9,2-1.2,3.1
	c-0.4,1.6-0.7,3.3-1,5c0,0.3,0,0.5,0,1c0.7-0.6,1-1.3,1.2-2C260.7,237.6,261.3,235.2,261.9,232.9z M271.6,248.3
	c-0.2-0.3-0.3-0.6-0.4-0.9C271,247.9,270.9,248.2,271.6,248.3z M257,246.2c0.1-1.3,0.3-1.4,1.6-1.1c1,0.2,2,0.4,2.9,0.2
	c1.7-0.3,2.9,0.5,4,1.6c1.4,1.4,1.9,3.1,1.9,5.1c0,0.4,0,0.8,0.5,1c0.6,0.2,1,0.1,1.1-0.5c0.3-1.9,0.2-3.6-1.2-5.1
	c-0.8-0.9-1.6-1.8-2.7-2.5c-1-0.6-2-0.8-3-0.9c-0.7-0.1-1.5-0.2-2.2-0.3c-0.9-0.1-1.8-0.3-2.7-0.4c-0.7-0.1-1.2,0.3-1.6,0.9
	c-0.5,0.7-0.7,1.5-0.7,2.3c0.1,2-0.1,3.9-0.4,5.9c-0.1,0.3,0,0.7,0.1,1c0.1,0.6,0.3,1.1,0.4,1.7c0.1,0.5,0.1,1.1,0.2,1.6
	c0.1,0.5,0.4,1,0.6,1.7c-0.8,0.4-1.4,0.7-2.2,1c0.3,0.7,0.8,0.5,1.2,0.4c0.4-0.2,0.7-0.6,1.2-0.9c0.1,0.1,0.5,0.2,0.6,0.5
	c0.2,0.6,0.6,0.6,1.1,0.6c1.3-0.2,2.6-0.3,3.9-0.4c0.7-0.1,1.4-0.1,2.1,0c0.3,0,0.7,0.3,1,0.6s0.5,0.8,1.2,0.8
	c0-0.8-0.6-1.2-1.1-1.7c0.4-0.3,0.7-0.5,1-0.8c1.4-1,2-2.1,2.1-3.8c-0.3,0.6-0.6,0.9-0.8,1.3c-0.7,1.3-2.6,2.4-4.1,2.4
	c-1.7,0-3.3,0.2-5,0.2c-0.2,0-0.5,0-0.8,0c-0.1-1.3-0.2-2.5-0.3-3.7c-0.1-0.9-0.2-1.9-0.3-2.8c0-0.2-0.1-0.5,0-0.7
	c0.1-1.6,0.2-3.2,0.3-4.8C257,246.4,257,246.3,257,246.2z M273.3,242.5c-0.2-0.3-0.4-0.6-0.7-1C272.4,242.7,272.4,242.7,273.3,242.5
	z M243.9,265.7c0.2-0.9,0.4-1.7,0.5-2.5c-0.7-0.2-1.1,0.2-1.1,0.6C243.2,264.4,243,265.2,243.9,265.7z M272.4,231.9
	c-0.3,2.1-0.5,4.2-1.4,6.2c-0.1,0.3-0.2,0.6-0.5,0.8c-1.1,1-1.4,2.3-1.6,3.6c-0.1,1.2-0.3,2.3-1.2,3.2c-0.1,0.1-0.1,0.2-0.2,0.3
	c0,0.1,0,0.2,0,0.2c0.9,0.5,1.2,0.4,3.2-1.8c0.6,0.2,0.6,1.3,1.6,1.1c0.1-0.6-0.2-1-0.6-1.3c-0.8-0.7-0.8-1.5-0.6-2.4
	c0.2-0.9,0.2-1.9,1.1-2.6c0.5,0.5,0.9,0.8,1.5,1.3c0-1-0.8-1.4-1.2-2.1c0.6-1.6,1.5-3.1,1.2-5c-0.1-0.8-0.3-1.5-0.4-2.3
	c0-0.2-0.2-0.3-0.3-0.4C272.4,230.9,272.5,231.4,272.4,231.9z M253,278.3c0.7-2.5,1.5-5,2-7.5c0.5-2.3,0.7-4.6,1-6.9
	c0-0.2-0.1-0.4-0.1-0.6c-0.8,0.3-1.1,0.9-1.3,1.5c-0.3,1.3-0.6,2.6-0.7,3.9c-0.2,1.6-0.4,3.2-1.2,4.7c-0.3,0.5-0.4,1.2-0.5,1.8
	c-0.3,1.6-0.6,3.3-0.9,4.9c0,0.2-0.1,0.4,0,0.6c0.2,0.7,0.1,1.3-0.5,1.8c-0.2,0.2-0.3,0.6-0.2,0.9c0.1,0.7,0.3,1.5,0.5,2.2
	c0,0.2,0.2,0.3,0.3,0.5c0.7-0.3,0.4-0.9,0.5-1.4c0-0.8-0.1-1.7,0-2.5C252.2,280.9,252.7,279.6,253,278.3z M275.1,239.1
	c-0.4-0.5-0.8-1-1.2-1.6C273.8,238.4,274.1,238.8,275.1,239.1z M246.1,261c0.6,0.3,1,0.2,1.5-0.3C247,260.5,246.5,260.5,246.1,261z
	 M251.4,259.3c0.3-0.1,0.5-0.4,0.3-0.7c-0.2-0.5-0.5-0.9-0.7-1.4c-0.8-1.3-1-2.8-0.8-4.3c0.4-2.9,0.5-5.8-0.2-8.7
	c-0.1-0.4-0.2-0.7-0.4-1.2c-0.3,0.3-0.6,0.4-0.6,0.5c-0.1,0.5-0.2,0.9-0.2,1.4c0,2.9,0.4,5.7-0.3,8.6c-0.3,1.5,0,2.9,0.6,4.3
	c0.2,0.6,0.8,1,1.3,1.5C250.6,259.4,251.1,259.4,251.4,259.3z M242.5,245.4c-0.5,0.2-0.5,0.6-0.5,0.9c-0.2,2.8-0.3,5.7-0.8,8.5
	c-0.3,1.7,0.1,3.4,0.3,5c0.1,0.9,0.9,1.4,1.6,1.8c0.4,0.3,0.7,0,1-0.7c-0.7-0.3-0.9-0.8-1.1-1.4c-0.4-1.7-0.7-3.3-0.5-5
	c0.1-0.4,0.1-0.8,0-1.2c-0.1-2.2,0-4.3,0.2-6.5C242.9,246.3,242.9,245.9,242.5,245.4z M253.2,235.9c-0.2-0.4-0.6-0.7-0.9-0.9
	c-0.5-0.4-0.9-0.2-1,0.4c-0.1,0.7,0,1.2,0.5,1.7s0.8,1.1,0.6,1.8c-0.1,0.5-0.4,0.8-0.9,0.9c-1.2,0.2-2.4,0.4-3.6,0.7
	c-1.3,0.3-2.6,0.6-3.9,1.1c-0.8,0.3-1.5,1.1-2.3,1.4c-0.8,0.3-1.8,0.2-2.7,0.3c-0.2,0-0.3,0.1-0.6,0.1c-0.2-0.6-0.5-1.2-0.6-1.8
	c-0.1-0.5-0.2-1.1-0.3-1.9c-1,0.9-0.9,1.9-0.9,2.8c0.1,1,0.6,1.8,1.6,2.1c-0.3,1.1-0.5,2.2-0.8,3.3c-0.8,3-0.4,5.9,0.3,8.8
	c0.1,0.5,0.2,1,0.3,1.5c0.1,0.2,0.2,0.5,0.3,0.8c0.6-0.4,0.8-0.9,0.7-1.5c-0.1-1.3-0.1-2.5-0.4-3.8c-0.6-2.9,0.1-5.6,0.8-8.4
	c0-0.1,0.1-0.1,0.2-0.2c0.1,0,0.2-0.1,0.3-0.1c1.4,0.1,2.5-0.4,3.5-1.3c0.2-0.2,0.4-0.4,0.7-0.4c1.1-0.3,2.2-0.7,3.3-1
	s2.3-0.5,3.5-0.7C253.1,241.3,255.2,238.8,253.2,235.9z M249,262.3c0,0.1,0.1,0.3,0.2,0.3c0.2,0,0.4,0,0.5-0.1
	c0.2-0.5,0.4-1,0.7-1.7C249.5,261,248.9,261.7,249,262.3z M245.6,229.5c0,0.2,0.4,0.5,0.6,0.5c1.2-0.2,1.8,0.7,2.6,1.3
	c0.1,0.1,0.2,0.2,0.3,0.3c0.6,0.6,1.2,0.8,2.1,0.3c-1-0.8-1.9-1.6-3-2.5c1.8-1.5,2.1-3.3,1.3-5.3c-0.2-0.7-0.5-1.4-1.5-1.6
	c0.1,0.7,0.2,1.4,0.3,2c0,0.4,0.1,0.8,0.1,1.2c-0.1,1.3-0.6,2.3-2,2.7c-0.2,0-0.4,0.1-0.5,0.3C245.7,228.9,245.6,229.2,245.6,229.5z
	 M80.7,51.4c-0.8,0.9-1.5,1.6-1.9,2.7C79.7,53.8,80.5,52.8,80.7,51.4z M76.5,13.1c-1.1,2.7-1.2,5.4-1.4,8.2
	c-0.1,1.1-0.5,2.3,0.1,3.5C76.1,22.7,77,14.7,76.5,13.1z M85.3,29.3c0.3,0.9,0.6,1.9,0.9,2.9c0.4-0.2,0.6-0.4,1-0.6
	c0.8,2.3,1.6,4.6,2.4,6.9c0.6-0.2,0.7-0.6,0.6-1.1c-0.1-0.7-0.2-1.5-0.4-2.2c-0.7-2.1-1.4-4.1-2.2-6.1c-0.2-0.5-0.3-1-1.1-1.2
	c0,0.5-0.1,0.9-0.1,1.5c-0.4-0.9-0.6-2.1-1.4-2.8C84.7,27.3,84.7,27.3,85.3,29.3z M86.9,23.9c0-1.3,0-2.5-0.1-3.8
	c-0.1-1-0.2-2-0.3-3.1c0-0.3-0.2-0.5-0.3-0.8c-0.4,0.4-0.6,0.7-0.6,1.2c0.1,2.3,0.2,4.6,0.3,7c0,0.2,0.2,0.5,0.3,0.8
	C86.8,24.9,86.9,24.4,86.9,23.9z M71.8,29.1c-0.3-0.2-0.5-0.3-0.8-0.4L70.9,29C71,29.3,71.2,29.5,71.8,29.1z M66.5,51.2
	c-0.4-0.7-0.8-1.4-1.3-2.3c-0.7,1.4-0.6,2.5-0.5,3.7c0,0.1,0.1,0.3,0.2,0.4c1.1,0.7,1.9,1.8,3.2,2.2c0.5,0.2,1,0.6,1.5,1
	c0.8,0.5,1.5,1.1,2.6,1.1c0.3,0,0.6,0.2,0.8,0.4c1,0.6,1.9,1.1,2.8,1.7c0.6,0.4,1.3,0.5,2.1,0.4c0.5,0,1.1-0.1,1.6,0
	c1.6,0.3,3-0.2,4.4-0.8c0.6-0.3,1.2-0.6,2-1c-0.3-0.2-0.4-0.4-0.6-0.4c-0.2-0.1-0.4-0.1-0.6-0.1c-1.9,0.3-3.8-0.3-5.8-0.2
	c-0.6,0-1.2-0.1-1.8-0.4c-1.3-0.6-2.5-1.1-4-0.7c-0.2,0.1-0.5-0.1-0.8-0.2c-0.7-0.4-1.3-0.8-1.9-1.2s-1.3-0.8-1.9-1.2
	C67.7,52.8,67,52.1,66.5,51.2z M73.4,27.4c0.5-1.6,0.6-3.2,0.5-5c-1,1-1.7,4.4-1.3,5.9C73.3,28.4,73.3,27.8,73.4,27.4z M108.2,274.4
	c0.6-0.4,1.3-1.9,1.5-2.9c-0.3,0-0.7-0.1-0.9,0.1c-0.4,0.5-1,0.5-1.6,0.6c-0.4,0.1-0.8,0.3-1.1,0.6c-0.4,0.4-0.6,0.9-1,1.5
	c0.4,0,0.7,0.1,0.9,0c0.3-0.2,0.6-0.5,0.9-0.8c0.2-0.2,0.5-0.5,0.7-0.7c0.1,0,0.1,0.1,0.2,0.1c0,0.5-0.1,1-0.1,1.6
	C107.9,274.5,108.1,274.5,108.2,274.4z M88.4,56.6c-0.1,0-0.1,0.1-0.2,0.1c-0.4,0.2-1.1,0.3-0.8,0.9c0.2,0.5,0.8,0.6,1.2,0.5
	c0.7-0.1,1.5-0.2,2-0.6c1.9-1.4,3.6-3,4.5-5.2c0.4-1,0.6-2,0.5-3.1c-0.1-0.7-0.1-0.8-0.7-1.5c-0.7,0.2-0.7,0.7-0.9,1.2
	c-0.2,0.9-0.4,1.9-0.8,2.8C92.2,53.9,90.7,55.6,88.4,56.6z M87.3,245.4c1.1-0.3,2.6-1.9,2.7-3c0.1-0.6-0.6-1-1.2-0.7
	c-0.3,0.1-0.5,0.4-0.7,0.6c-0.5,0.5-1.1,0.6-1.8,0.3c-1-0.4-1.7-1-2-2c-0.3-0.9-1-1.4-1.8-1.7c-0.2-0.1-0.5-0.1-0.7-0.1
	c-0.4,0-0.5,0.4-0.3,0.7c0.1,0.2,0.4,0.3,0.5,0.5c0.7,0.8,1.4,1.5,1.7,2.5c0.3,0.8,0.8,1.5,1.2,2.2c0.5,0.2,1,0.4,1.5,0.5
	C86.7,245.5,87,245.5,87.3,245.4z M94.9,77.6c-0.1-2.4-0.3-4.7-1.8-6.8c-0.4-0.6-0.4-0.6-1.4-1c0.2,1,0.2,2,0.5,2.8
	c0.5,1.3,0.6,2.6,0.7,3.9c0.2,2.4-0.1,4.7-0.8,7c-0.5,1.6-1.3,3.2-1.8,4.8c-0.3,1-0.4,2-0.6,3c0,0.2,0,0.4,0,0.6
	c-0.6,2.1-0.3,4.2-0.1,6.3c0.2,2,0.4,3.9,0.5,5.9c0.1,1,0.1,2.1,0.1,3.1c0,0.8,0,1.6,0,2.4c0,1.1,0,2.1,0,3.2
	c0.1,2.8,0.1,5.7-0.3,8.5c0,0.2,0,0.3-0.1,0.5c-0.2,1.8-0.2,3.7-0.5,5.5c-0.9,4.3-0.6,8.7-0.8,13.1c-0.1,2.2-0.1,4.3-0.2,6.5
	c-0.1,1.7-0.2,3.3-0.4,5c-0.4,3.6-0.8,7.1-1.2,10.7c-0.2,2.1-0.3,4.3-0.3,6.4c-0.1,4.9-0.2,9.8-0.3,14.7c-0.1,5.5,0.5,10.9,1,16.3
	c0.5,5.2,1.3,10.3,1.9,15.5c0.1,0.7,0.3,1.4,0.4,2.1c0.2,1,0.3,2,0.4,3c0,0.2,0,0.5,0.1,0.7c0.5,1.9,0.9,3.8,1.7,5.5
	c0.2,0.4,0.3,0.9,0.5,1.3c0.3,0.7,0.6,1.3,0.8,2c0.8,1.9,1.6,3.7,2.3,5.6c0.3,0.8,0.6,1.6,0.8,2.5c0.5,1.4-0.1,2.5-1.2,3.3
	c-0.6,0.4-1.2,0.7-1.8,1c-0.4,0.2-0.7,0.5-0.6,1s0.9,1.1,1.4,1.1c0.9-0.1,1.6-0.5,2.2-1.1c0.4-0.4,0.7-0.8,1.1-1.2
	c2.3-2.2,2-4.7,1.2-7.4c-0.9-2.7-2.1-5.2-3.4-7.7c-0.9-1.7-1.6-3.6-2.4-5.4c-0.2-0.4-0.2-0.9-0.1-1.4c0.3-1.3-0.1-2.6-0.4-3.9
	c-0.5-2.9-1.1-5.7-1.5-8.6c-0.4-3.2-0.8-6.5-1.1-9.8c-0.2-2.2-0.4-4.5-0.6-6.7c-0.5-5.6-0.3-11.3-0.2-16.9
	c0.2-5.8,0.4-11.6,1.2-17.4c0.5-3.9,0.9-7.8,0.9-11.7c0-2.7,0.2-5.4,0.3-8.1c0-0.7,0-1.4,0-2.1c0-1.1,0-2.2,0.1-3.3
	c0-0.2,0-0.5,0.1-0.7c0.7-1.8,0.7-3.6,0.8-5.5c0.3-4.1,0.5-8.1,0.6-12.2c0.1-3.6,0-7.1-0.2-10.7c-0.1-2.2-0.5-4.3-0.8-6.5
	c-0.2-1.7-0.3-3.4-0.6-5c-0.2-1.3,0.1-2.4,0.7-3.5C94,84.8,95.1,81.3,94.9,77.6z M92.4,43.1c0.2,0.9,0.3,1.6,0.4,2.3
	c0.1,0,0.2-0.1,0.3-0.1C93.5,44.5,93.1,43.9,92.4,43.1z M69.6,36.7c-0.4,0.3-0.6,0.5-0.7,0.7c-0.7,1-1,2-1.1,3.2
	c-0.2,2.5,0.1,5,0.9,7.5c0.1,0.5,0.4,0.8,0.8,1.1c0.5,0.3,0.9,0.7,1.3,1.1c0.1-0.1,0.2-0.1,0.2-0.2c-0.3-1.4-0.5-2.8-0.8-4.3
	c-0.4-2-0.7-4-0.6-6.1c0-0.5,0.1-0.9,0.1-1.4C69.7,37.9,69.6,37.4,69.6,36.7z M64.1,29.9c-0.5,0.1-0.4,0.5-0.4,0.9
	c0.1,1.3,0.5,2.6,1,3.8c0.1,0.2,0.3,0.2,0.6,0.5c0.3-0.7,0.5-1.4,0.3-2c-0.2-0.9-0.4-1.8-0.7-2.6C64.9,30.1,64.6,29.7,64.1,29.9z
	 M30,272.8c1.4,0.1,2.7-0.1,4.1-0.6c1.4-0.5,2.9-0.8,4.3-1.1c1.7-0.4,3.3-1.1,4.6-2.2c1-0.9,2.1-1.6,3.4-2.1
	c1.2-0.4,2.2-0.3,3.2,0.4c0.2,0.2,0.5,0.3,0.8,0.4c0.3-0.6,0.1-0.9-0.2-1.2c-1.1-1.2-2.5-1.4-3.9-1c-1.8,0.4-3.4,1.4-4.9,2.6
	c-1.3,1-2.7,1.5-4.3,1.8c-1.7,0.3-3.3,0.7-5,1.1c-0.7,0.2-1.4,0.4-2.2,0.4c-0.6,0-1.1,0-1.7-0.1c-1.5-0.2-3,0.3-4.4,0.6
	c-0.3,0.1-0.6,0.5-0.8,0.8c-0.2,0.2-0.2,0.6-0.3,0.9c0.1,0,0.1,0.1,0.2,0.1C25.2,272.9,27.6,272.6,30,272.8z M149,72.5
	c0.1,0.1,0.3,0.1,0.4,0.1c0-0.9-1.2-4.3-1.9-5.3c-0.1,0.6-0.3,0.9-0.2,1.2c0.2,0.9,0.5,1.8,0.8,2.7C148.3,71.8,148.7,72.1,149,72.5z
	 M155.5,67.2c0-0.1-0.1-0.2-0.1-0.2c-0.2,0.2-0.5,0.3-0.9,0.6C155.1,67.8,155.3,67.5,155.5,67.2z M159.1,64.8
	c-1,0.3-1.8,1.5-2.2,2.9C158,66.9,158.4,65.9,159.1,64.8z M164.8,62.8c-1,0.2-2.4,1.5-2.7,2.5C163,64.5,163.9,63.8,164.8,62.8z
	 M151.3,64.5c2.5-0.2,4.6-1.2,6.5-2.8c1.1-0.9,2.4-1.5,3.8-1.8c0.4-0.1,0.8-0.1,0.9-0.8c-0.8-0.3-1.6-0.3-2.4,0
	c-1.5,0.6-3.1,1.1-4.6,1.8c-1.7,0.8-3.5,1.3-5.4,1.6c-0.5,0.1-0.9,0.3-1.3,0.4c-0.3,0.1-0.6,0.3-0.5,0.7c0.1,0.3,0.4,0.6,0.6,0.6
	C149.7,64.4,150.5,64.6,151.3,64.5z M162.7,53.1c-0.3,0.2-0.7,0.3-0.5,0.8c0,0.1,0.3,0.2,0.4,0.1c0.3-0.1,0.4-0.3,0.4-0.9
	C162.9,53.1,162.8,53.1,162.7,53.1z M159.5,66.2c0.8-0.1,2-1.5,2.2-2.6C160.9,63.8,159.9,65,159.5,66.2z M170.6,75.2
	c-0.1,0-0.1,0.1-0.2,0.1c0.1,0.2,0.1,0.5,0.2,0.7c0.6,1,1.3,2,1.9,3c1.5,2.5,3,4.9,4.5,7.4c1.1,2,2.1,4.1,3.2,6.1
	c0.2,0.4,0.5,0.9,1,1.2c0-0.2,0-0.5-0.1-0.7c-2.5-6.2-5.9-11.8-9.8-17.2C171.1,75.6,170.8,75.4,170.6,75.2z M160.5,70.3
	c0.9,0,1.7,0.1,2.6,0.1c0.1,0.7,0.1,1.3,0.2,2c0.4-0.3,0.7-0.4,0.7-0.6c0.3-0.8,0.5-1.6,0.8-2.3c0.1-0.3,0-0.6,0.1-0.9
	c0.2-1.7,1.1-2.5,2.8-2.6c0.6,0,1.3-0.1,1.8-0.6c0-0.1,0-0.2-0.1-0.2c-1.5-0.9-3.8-0.4-4.8,0.9c-0.6,0.8-1.2,1.7-1.5,2.8
	c-0.4,0-0.8-0.1-1.2-0.1c-0.6,0-1.3-0.1-1.9-0.1c-1.2,0-2.1,0.5-2.8,1.5c-0.6,0.8-1.3,1.5-1.5,2.5c-0.2,1.2,0.5,2.4,1.8,2.9
	c0.1-0.3,0.1-0.6,0.2-0.9c0.1-0.7,0.1-1.4,0.2-2.1C158.1,71.2,159.1,70.4,160.5,70.3z M155.4,77.7c0.2-0.4,0.4-0.6,0.6-0.9
	c-1.4-1.6-3.2-2.2-5.1-2.9C152,75.6,153.9,76.2,155.4,77.7z M152.5,73.7c0.1-0.1,0.2-0.2,0.3-0.2c-0.6-1.1-1.3-2.1-2-3.2
	c-0.5,0.5-0.2,1,0,1.3C151.2,72.4,151.6,73.3,152.5,73.7z M153.4,71.1c0.2,0.4,0.5,0.5,1.1,0.3c-0.3-0.4-0.5-0.7-0.7-1
	C153.3,70.5,153.3,70.8,153.4,71.1z M156,80.9c0.2,1.1,1,1.9,1.5,2.8C157.2,82.7,156.7,81.7,156,80.9z M158,87.2
	C158,87.2,158,87.1,158,87.2L158,87.2L158,87.2z M148,73.2c-0.8-0.1-1.2,0.1-1.6,0.6C147.1,74.2,147.3,74.2,148,73.2z M158,87.1
	L158,87.1L158,87.1L158,87.1z M143,64.3c0.1,0.3,0.5,0.3,0.7,0.1c0.2-0.2,0.3-0.5,0.5-0.9c-0.6-0.3-0.9-0.1-1.1,0.2
	C143,63.8,143,64.1,143,64.3z M144.8,64.1c0,0.1,0.2,0.3,0.3,0.3c0.2,0,0.4,0,0.5-0.1c0.3-0.3,0.5-1.1,0.3-1.9
	C145.1,62.8,144.7,63.4,144.8,64.1z M154.7,53.5c0.1,0,0.3-0.1,0.5-0.1c1.9,0.1,3.6-0.6,5.3-1.3c0.2-0.1,0.3-0.1,0.5-0.1
	c-0.1-0.1-0.1-0.2-0.2-0.4c-0.4-0.1-0.8-0.3-1.1-0.2c-1.3,0.4-2.7,0.3-4.1,0.5c-1.1,0.1-2.3,0.4-3.3,0.8c-1.6,0.5-3.2,1.2-4.8,1.8
	c-1.8,0.7-3.6,1.4-5.6,1.3c-0.3,0-0.5,0.1-0.8,0.1c-0.4,0.6-0.1,1,0.3,1.3c0.6,0.5,1.2,0.5,1.9,0.4c2.4-0.3,4.6-1,6.7-2.2
	C151.5,54.5,153.1,54,154.7,53.5z M157,88.7c-0.4-1-0.4-1-1.3-1.6C155.9,87.8,155.9,87.8,157,88.7z M157.9,87.1
	c-0.4-0.9-1.6-2.6-2.3-3C156.2,85.2,157,86.2,157.9,87.1z M158,87.2c0.2,0.4,0.3,0.8,0.5,1.2C158.5,87.9,158.4,87.5,158,87.2z
	 M225.5,183.2c0-1.2-0.3-2.4-0.9-3.4C224.6,181,225,182.2,225.5,183.2z M83.3,50.6c-1,0.7-2.3,3.2-2.4,4.5
	C82.6,54,82.6,52.1,83.3,50.6z M197.7,149.5c0.9,2.5,1.9,4.9,3.3,7.2c2.2,3.5,4.3,7.1,6.5,10.6c1.8,3,4,5.7,6.1,8.4
	c0.9,1.2,1.7,2.5,2.5,3.7c2.8,3.9,5.6,7.7,8.4,11.6c2.4,3.3,4.7,6.7,6.9,10c1.1,1.7,2.2,3.5,3.1,5.3c1.3,2.3,2.8,4.5,4.4,6.6
	c0.4,0.6,0.9,1.1,1.4,1.6c0.4,0.5,0.7,1,0.9,1.5c0.4,0.8,1,1.3,2.1,1.5c-0.8-1.4-1.4-2.6-2.2-3.7c-2.6-3.7-5-7.5-7.2-11.4
	c-1.1-1.9-2.4-3.7-3.6-5.6c-1.2-1.7-2.4-3.4-3.6-5.2c-2-2.8-4-5.7-6-8.5c-1.8-2.6-3.6-5.3-5.5-7.9c-1.1-1.6-2.4-3-3.5-4.6
	c-1.7-2.5-3.3-5.1-4.9-7.7c-1.7-2.7-3.4-5.5-5-8.2c-1-1.7-1.8-3.5-2.8-5.2c-0.5-0.9-1-1.8-1.5-2.7c-0.1-0.2-0.4-0.3-0.7-0.6
	c0,0.4,0,0.7,0,1C197.3,147.9,197.5,148.7,197.7,149.5z M223.8,297.4c0.4,0.5,0.8,0.4,1.3,0.3c-0.2-0.4-0.4-0.7-0.7-1.3
	C224.1,296.9,224,297.2,223.8,297.4z M218.2,169.1c0.3,2.6,1,5.2,1.7,7.9C220.3,175.8,219.8,173.1,218.2,169.1z M214.9,167.6
	c0.1,0,0.2,0.3,0.3,0.5c0.1,0.4,0.2,0.8,0.3,1.3c0.2,1.1,0.6,2,1.2,2.9c0.3-1.4-0.8-6.3-1.8-8.1c-0.2,0-0.4,0.1-0.7,0.1
	c-0.3-1-0.5-2-0.8-3c-0.1,0-0.1,0-0.2,0c-0.1,0.2-0.2,0.4-0.2,0.6c0,1.5,0.3,2.9,0.8,4.3C213.9,166.7,214,167.5,214.9,167.6z
	 M222.9,179.7c-0.2-1.7-0.6-3.4-1.3-5.1C221.3,175.5,221.9,177.8,222.9,179.7z M270.7,260.4c0.4,1.6,0.5,3.2-0.1,4.7
	c-0.5,1.1-1.1,2.2-1.8,3.2c-1.3,1.7-2.1,3.6-2.6,5.7s-1.1,4.1-2.1,6c-0.2,0.3-0.3,0.7-0.3,1c0,1-0.4,1.8-1.4,2.3
	c-0.7,0.4-0.8,0.6-0.5,1.5c0.3,0.8,0.3,1.6,0.2,2.5c-0.2,1.4-0.7,2.8-1.6,3.9c-0.4,0.5-0.6,1-0.7,1.6c-0.3,1.7-1,3.2-2,4.7
	c-0.8,1.1-2,1-2.7-0.3c-0.6-1.3-0.1-2.7-0.1-4v-0.1c0.1-0.5,0.2-1.1,0.2-1.6c0.1-0.7,0.1-1.4,0.1-2.1c0-0.4,0-0.8-0.1-1.2
	c-0.7-0.2-1.2-0.2-1.7-0.4c-0.8-0.3-0.8-0.7-0.2-1.5c0.2,0,0.4,0.1,0.6,0.1c0.2,0,0.4,0.1,0.6,0.1c0.9,0.1,1.1,0,1.4-0.9
	c0.2-0.5,0.5-1.1,0.8-1.8c-0.5-0.6-0.3-1.3,0.1-1.9c0.1-0.2,0.2-0.5,0.3-0.8c0.6-1.3,1.1-2.6,1.7-3.9c0.6-1.4,1.2-2.9,1.8-4.4
	c0-0.1,0-0.2,0.1-0.3c0.6-2.8,0.3-5.8,1.2-8.5c0-0.1,0-0.2,0-0.2c-0.1-1.4,1.1-2,1.7-3.1c0.7,0.4,1.1,0.9,1.1,1.7
	c-0.5-0.1-1-0.2-1.4-0.3c-0.6,0.9,0,1.3,0.5,1.8c-0.9,0.1-1,0.7-1,1.2c0,2-0.3,3.9-0.5,5.9c-0.3,1.8-0.9,3.4-1.4,5.1
	c-0.6,1.7-1.3,3.4-2,5.1c0,0.1,0,0.2,0,0.3c2,0.8,2.1,0.8,3.1,0.3c-0.1-1,0.1-2.1,0.6-2.9c0.7-1.1,1-2.3,1.3-3.5
	c0.5-2.2,1.3-4.3,2.6-6.2c0.9-1.3,1.6-2.6,2.4-3.9c0.1-0.2,0.2-0.4,0.2-0.6c-0.1-1.2,0.4-2.3,0-3.5c-0.3-0.8,0-1.1,1-1.5
	C270.3,259.7,270.6,260.1,270.7,260.4z M260.8,285.4c0-0.5,0-1.1,0-1.6c-0.8-0.6-1.6-1.1-2.3-1.7c-0.7,0.4-1.2,1-1,2
	c0,0.2,0,0.3,0,0.5c-0.7,1.8-0.2,3.7-0.5,5.6c-0.2,1.1-0.4,2.1-1,3.1c-0.7,1.2-0.4,2.1,1.1,2.6c0.6-0.6,0.7-1.5,0.9-2.2
	c0.3-1.3,0.9-2.4,1.8-3.4c0.8-0.8,1-1.8,1.1-2.9C260.9,286.7,260.8,286.1,260.8,285.4z M277.9,236.6c-0.1-1.2-0.4-2.2-1-3.2
	c-0.6-0.9-1-1.9-1.9-2.6c-0.5,0.1-0.6,0.4-0.4,0.7c0.3,0.9,0.6,1.7,1.3,2.3c0.4,0.3,0.5,0.6,0.5,1c0.3,1.2,0.4,2.3,0.3,3.5
	c-0.1,1,0,2-0.1,3c-0.1,1.7-0.6,3.4-1.3,4.9c-0.9,2.2-2.1,4.3-3.2,6.3c-0.5,1-0.8,2.1-1,3.1c-0.2,1.2-0.8,1.7-2,1.9
	c-0.3,0-0.6,0-0.9,0s-0.8-0.1-0.8,0.4c-0.1,0.5,0.3,1.1,0.8,1.1s1.1-0.2,1.6-0.3c0.5-0.1,0.8-0.6,1.4-0.5c0.1,0,0.4-0.3,0.5-0.6
	c0.3-0.7,0.6-1.4,0.8-2.1c0.5-2.1,1.5-4,2.6-5.8c1.5-2.7,2.5-5.5,3-8.6c0.1-0.4,0.1-0.8,0.1-1.2C278,238.9,277.9,237.7,277.9,236.6z
	 M253.5,298.3c-0.7,1.1-1.6,2.2-1.9,3.5c-0.1,0.6-0.4,1.2-1.2,1.1c-0.6,0-1.2-0.6-1.3-1.4c0-0.4,0-0.8,0.1-1.1
	c0.2-0.6,0.4-1.2,0.5-1.8c0.2-0.5,0.2-1.1,0.4-1.6c0.6-1.4,0.6-2.9,0.4-4.4c-0.2-1.1-0.1-2.2,0.3-3.3c0.1-0.3,0.1-0.6,0.2-1
	c-0.7-0.1-0.9,0.3-1.2,0.6c-0.7,0.9-0.9,2-0.8,3.1c0,1,0,2.1,0,3.1c-0.1,0.7-0.3,1.4-0.4,2.1c0,0.2-0.2,0.3-0.1,0.4
	c0.3,1.7-0.6,3.2-0.5,4.9c0,0.7,0.1,1.3,0.9,1.6c0.7,0.3,1.4,0.3,2-0.1c0.9-0.5,1.5-1.3,1.8-2.2c0.3-1,0.8-1.9,1.4-2.9
	c0.2-0.4,0.3-0.8,0.5-1.2C253.9,297.6,253.7,297.9,253.5,298.3z M223.8,300.4c-1.3,0.4-2.6,0.2-3.9,0c-0.1-0.6,0.1-1.1,0.6-1.3
	c0.4-0.2,0.8-0.3,1.2-0.5c0.3-0.2,0.6-0.4,0.9-0.7c-0.8-0.3-1.5-0.2-2.1,0.1c-0.4,0.2-0.7,0.4-1,0.6c-0.9,0.5-1,1.3-0.3,2
	c0.2,0.2,0.5,0.4,0.7,0.7c0.6,0.7,1.3,0.9,2.1,0.7c1.4-0.3,2.7-0.6,4-1c0.6-0.2,1.1-0.5,1.4-1.1c-0.9,0.1-1.7,0.2-2.4,0.3
	C224.5,300.3,224.1,300.3,223.8,300.4z M246.6,300.7c-0.4,0.8-0.8,1.6-1.1,2.3c-0.5,1.1-0.8,1.3-1.9,1.4c-0.7-1.2-0.6-2.4-0.2-3.7
	c0.5-1.4,1-2.8,1.4-4.3c0.4-1.2,0.4-2.5,0-3.7c-0.2-0.7-0.1-1.5-0.2-2.2c0-0.2,0.1-0.5,0.1-0.7c0-1.2,0-1.2,1.1-2
	c0.4,0.3,0.8,0.7,1.2,1c1,0.8,2.4,0.3,2.6-0.9c-1.2-0.3-2.4-0.6-3.7-1c0.1-0.3,0-0.8,0.2-0.9c0.5-0.3,0.4-0.8,0.4-1.2
	c-0.1-0.8,0.1-1.6,0.4-2.4c0.6-1.4,0.8-3,0.9-4.5c0.1-1.8,0.1-3.6,0.4-5.4c0.3-2.3,0.8-4.5,1.3-6.7c0.1-0.5,0.2-1,0.4-1.7
	c-0.8,0.1-1.1,0.5-1.3,1c-0.3,0.8-0.7,1.5-0.9,2.3c-1,3.6-1.5,7.2-1.5,10.9c0,1.7-0.2,3.5-1.2,5c-0.1,0.2-0.2,0.6-0.2,0.8
	c0.5,1.2-0.2,2.3-0.3,3.4c-0.1,0.9-0.9,1.1-1.6,0.5c-0.8-0.7-1.6-1.4-2.4-2.1c-0.5-0.4-0.6-0.9-0.5-1.5c0.2-1.2,0.5-2.3,1.3-3.3
	c0.2-0.2,0.3-0.5,0.5-0.8c1.2-1.6,1.6-3.4,1.2-5.4c-0.4-2.4-0.5-4.9-0.3-7.3c0-0.4-0.1-0.8-0.1-1.4c-0.7,0.5-0.9,1.2-1.1,1.9
	c-0.7,2.5-0.6,5-0.2,7.5c0.1,0.7,0.1,1.5,0.1,2.2c-0.1,0.9-0.6,1.7-1.2,2.4c-0.9,1.2-1.5,2.4-1.7,3.9c-0.1,1.1-0.2,1.1,0.8,1.7
	c0.1,0.1,0.2,0.1,0.4,0.3c-0.4,0.6-0.7,1.2-1.1,1.8c-0.7,0.9-1.2,1.9-1.1,3c0,0.8-0.3,1.2-1,1.6c-2.1,1.3-4.2,2.6-6.3,4
	c-0.6,0.4-1.2,0.9-1.7,1.5s-0.6,1.2-0.2,1.5c0.3,0.3,0.8,0.2,1.3-0.5c1.2-1.5,3-2.1,4.5-3.2c0.7-0.6,1.5-1,2.2-1.5
	c0.2-0.1,0.4-0.3,0.7-0.5c0.3,0.6,0.1,1.1,0,1.6c-0.2,0.9-0.5,1.8-0.8,2.7c-0.1,0.2-0.1,0.4-0.2,0.5c-1.1,1.2-1.2,2.7-1.6,4.1
	c-0.1,0.3,0.1,0.7,0.3,1.1c0.2-0.2,0.4-0.4,0.5-0.6c0.4-0.7,0.7-1.4,1.1-2.1c0.4-0.7,0.9-1.4,1.3-2.1c0.2-0.3,0.5-0.6,0.6-1
	c0.4-1.7,0.9-3.3,1.2-5.1c0.2-0.9-0.1-1.9-0.1-2.8c0-0.8,0.2-1.5,0.7-2.2c0.8,0.2,1,1.1,1.7,1.4c0.6,0.3,1.3,0.4,2,0.7
	c0,0,0,0,0,0.1c-0.8,1.4-0.5,2.8-0.3,4.3c0.1,0.6-0.1,0.9-0.5,1.3c-0.5,0.5-1,1.1-1.1,1.9c-0.1,0.6-0.5,1-1,1.4
	c-0.5,0.5-1,1-1.4,1.5c-0.6,0.9-1.4,1.7-1.7,2.8c-0.1,0.4-0.4,0.5-0.8,0.5c-0.2,0-0.5-0.1-0.7,0s-0.5,0.3-0.5,0.5s0.2,0.5,0.4,0.6
	c0.5,0.3,1,0.2,1.5,0c0.7-0.3,1.3-0.9,1.7-1.6c0.5-1.1,1.1-2.1,1.7-3.1c0.2-0.4,0.7-0.6,1-1c0.3-0.3,0.6-0.7,1-1.1
	c0.3,0.9-0.1,1.4-0.4,1.9c-0.8,1.5-1,3.1-1,4.7c0,0.3,0.1,0.6,0.1,0.9c2.1,0.5,4.3-0.6,5-2.6c0.3-0.9,0.5-1.8,0.7-2.8
	C246.9,300.2,246.7,300.4,246.6,300.7z M226.4,295.6c0.9-1.4,2.2-2.3,3.5-3.4c0.6-0.5,1-1.3,1.4-2c0.3-0.4,0.5-0.9,0.7-1.4
	c0.4-0.9,1-1.7,1.9-2.2c0.3-0.2,0.5-0.4,0.8-0.6c-0.3-0.5-0.6-0.3-1-0.3c-1.5,0.5-2.5,1.6-3.3,2.9c-0.3,0.6-0.7,1.3-1.1,1.8
	c-0.5,0.6-1,1.1-1.6,1.5c-1,0.7-1.9,1.5-2.6,2.6c-0.4,0.6-0.4,1.1-0.1,1.4C225.4,296.3,226,296.2,226.4,295.6z M166.6,80.2
	c-0.9,0.1-1.5-0.4-2.1-1c-1.4-1.3-2.6-2.7-3.9-4.1c-0.1-0.1-0.3-0.2-0.6-0.4c0,0.6-0.1,1,0,1.4c0.7,2.6,2.4,4.5,4.4,6.1
	c0.2,0.1,0.4,0.3,0.6,0.3c1.1,0.2,1.9,0.8,2.7,1.4c0.1,0.1,0.3,0.2,0.4,0.3c1.8,1.2,3.4,2.5,4.5,4.3c0.6,0.9,1.6,1.2,2.5,1.7
	c0.3-0.5,0-0.9-0.1-1.2c-1-1.7-2-3.3-3-4.9c0,0,0-0.1-0.1-0.1c-1.4-1.3-2.9-2.6-4.6-3.5C167.1,80.2,166.8,80.1,166.6,80.2z
	 M168,97.1c1.5,2.6,2.7,5.4,4,8.2c0.9,1.8,1.6,3.6,2.4,5.4c0.4,0.9,0.9,1.7,1.4,2.4c0.2,0.4,0.7,0.6,1.3,1c-0.1-0.5-0.1-0.8-0.2-1
	c-0.1-0.4-0.2-0.8-0.4-1.2c-1.6-2.9-2.7-6.1-4-9.1c-2.7-6-5.8-11.6-9.7-16.9c-1.1-1.6-2.4-3-3.6-4.6c-0.2-0.2-0.4-0.3-0.6-0.5
	c-0.1,0-0.1,0.1-0.2,0.1c0.7,1.2,1.3,2.5,2,3.7C163,88.8,165.6,92.9,168,97.1z M175.6,99.4c0-0.8,0-1.7-0.1-2.5c0-0.8,0-1.6-0.1-2.4
	c-0.9,2.3-0.8,4.7-0.7,7.1c0.1,0.9,0,1.9,0.5,3c0.4-1,0.2-1.8,0.3-2.6C175.6,101.1,175.6,100.2,175.6,99.4z M203.7,139.1
	c1.1,2,2.2,4,3.3,6.1c0.6,1.1,1.1,2.3,1.6,3.4c1.2,3.1,2.4,6.3,3.6,9.5h0.1c-0.1-0.4-0.1-0.7-0.2-1.1c-0.6-2.2-1.2-4.5-1.9-6.7
	c-0.6-1.9-1.3-3.8-2-5.7c-1.3-3.5-3-6.7-4.6-10c-0.4-0.9-0.8-1.8-1.2-2.7c-2.6-5.4-5.6-10.7-8.9-15.8c-1.3-2-2.3-4.2-3.6-6.2
	c-1.4-2.2-2.5-4.6-4.1-6.7c-0.9-1.2-1.4-2.6-2.1-3.9c-0.5-0.9-0.9-1.9-1.7-2.9c-0.2,0.5,0.1,0.9,0.2,1.2c1.1,2.2,2.2,4.3,3.2,6.5
	c1.4,3,3,6,4.2,9.1c0.6,1.5,1.5,2.8,2.3,4.2c1.7,2.9,3.5,5.7,5.1,8.7C199.4,130.5,201.5,134.8,203.7,139.1z M180.2,113.4
	c0.5-1,0.3-4.4-0.3-6.1C179.4,109.3,179.5,111.3,180.2,113.4z M176.2,71.3c0.1,1,0.2,1.8,0.2,2.6C176.9,73,176.9,72,176.2,71.3z
	 M178.1,109.4c0.3-1.2-0.3-8.7-0.8-9.9c-0.4,0.4-0.5,0.8-0.5,1.3c-0.3,2.9,0.2,5.7,1,8.4C177.9,109.2,178,109.3,178.1,109.4z
	 M194.4,136.3c-0.3-1.9,0-3.8-0.4-5.9c-0.2,0.3-0.4,0.4-0.4,0.5c-0.3,1.7-0.1,3.4,0.3,5.1c0,0.1,0.1,0.2,0.2,0.3
	C194.2,136.3,194.3,136.3,194.4,136.3z M192.2,133.1c0.1-1.8,0.2-3.5,0.3-5.3c0-0.6,0-1.3-0.6-1.9c-0.6,1.1-0.5,5.6,0,7.6
	C192.1,133.3,192.2,133.2,192.2,133.1z M190.6,124.6c-0.1-0.6-0.1-1.4-0.6-2c-0.4,2.8,0,7,0.9,8.2
	C191.1,128.6,190.9,126.6,190.6,124.6z M184.6,127.4c2.3,3.5,4.6,7,6.8,10.5c0.9,1.5,1.9,2.9,2.9,4.3c0.3,0.4,0.6,0.7,1.2,0.5
	c0.2-0.6-0.1-1.1-0.4-1.5c-1.1-1.8-2.2-3.6-3.3-5.3c-2.2-3.3-4.4-6.7-6.6-10c-1.9-2.7-3.8-5.3-5.7-8c-0.3-0.4-0.7-0.8-1.1-1.2
	c-0.1,0.1-0.2,0.1-0.3,0.2c0.6,1.3,1.1,2.6,1.9,3.8C181.5,123,183.1,125.1,184.6,127.4z M175.1,73.7c-0.3,0.7-0.3,0.7-0.2,1.8
	C175.4,74.9,175.3,74.3,175.1,73.7z M73.8,274.2c-0.4,0.2-0.8,0.3-1.1,0.5c-1.7,1.4-3.5,1.1-5.4,0.6c-0.7-0.2-1.3-0.5-2-0.7
	c-0.5-0.1-1.1-0.1-1.6,0c-0.4,0-0.4,0.1-0.5,0.7c0.8,0.3,1.5,0.5,2.3,0.9c1.6,0.7,3.2,0.9,4.9,0.8c1,0,1.9-0.5,2.7-1.1
	c0.4-0.3,0.8-0.5,1.2-0.8c0.3-0.2,0.5-0.4,0.3-0.8C74.4,274,74.1,274.1,73.8,274.2z M75,272.5c0.2,0.3,0.3,0.5,0.5,0.7
	c0.5-0.2,0.4-0.4,0.2-0.7C75.5,272.3,75.3,272.3,75,272.5z M86.4,274.4c-0.8,0.8-1.7,1-2.8,0.9c-0.6-0.1-1.2-0.1-1.8,0
	c-1.7,0.1-3.3,0-4.9-0.7c-0.2-0.1-0.4-0.1-0.8-0.1c0.4,0.6,0.6,1.1,1,1.5s0.8,0.9,1.5,0.9c2,0.1,3.9,0.4,5.9-0.1
	c1.3-0.3,2.4-1.1,3.4-2.1c0.4-0.4,0.3-0.8,0.2-1.3C87.3,273.6,86.8,274,86.4,274.4z M88.4,258.7c-0.2,0-0.5,0-0.7,0.1
	c-1.2,0.7-2.3,1.7-1.9,3.6c0.2,0.7,0.1,1.4,0.2,2.1c0,0.4,0.1,0.8,0.1,1.3c0.1,0,0.2,0,0.3,0c0.4-0.7,0.4-1.5,0.5-2.4
	c0-0.4,0-0.8,0-1.2c0.1-1,0.4-2,1.2-2.7C88.4,259.4,88.6,259.2,88.4,258.7z M61.2,275.1c-0.7-0.1-1.3-0.2-2-0.2
	c-1,0.1-2,0.2-3.1,0.3c-0.2,0-0.5,0-0.7,0.2c-1.3,0.9-2.9,0.8-4.3,1c-1.3,0.2-2.6,0.3-3.9,0.4c-0.2,0-0.4,0-0.6,0
	c-2.8-0.1-5.7-0.3-8.5-0.4c-0.3,0-0.5-0.1-0.8-0.2c-0.6-0.1-1.2-0.1-1.8,0.2c-0.7,0.3-1.4,0.5-2.2,0.5c-1.4,0-2.6,0.4-3.7,1.2
	c-1.3,0.9-2.8,1.2-4.4,0.9c-0.4-0.1-0.7-0.4-1.2-0.7c-0.1,0-0.4,0.1-0.5,0.2c-0.8,0.8-1.7,0.7-2.6,0.3c-0.7-0.3-1.5-0.4-2.3-0.2
	c-0.7,0.2-1.5,0.3-2.2,0.6c-0.9,0.4-1.8,0.5-2.8,0.3c-0.8-0.1-1.6,0-2.4,0c-0.2,0-0.3,0.1-0.5,0.2c0.1,0.2,0.1,0.3,0.2,0.4
	c1.6,0.7,3.2,1.5,5,0.6c0.5-0.3,1.1-0.5,1.7-0.6c0.7-0.2,1.3-0.3,2,0c0.8,0.4,1.8,0.4,2.6-0.1c0.4-0.2,0.7-0.1,1.1,0
	c2.5,1,4.9,0.9,7.2-0.6c1.2-0.8,2.5-1.2,4-1.4c1.5-0.1,2.9-0.1,4.3,0c2.6,0.2,5.3,0.3,7.9,0.4c2.9,0,5.8-0.3,8.5-1.3
	c1.9-0.8,3.9-1.1,6-1.3c0.1,0,0.3-0.1,0.4-0.1C61.8,275.3,61.5,275.2,61.2,275.1z M70.9,269.6c-0.8-0.2-1.5,0-2.1,0.4
	c-2.4,1.9-5,2.3-7.9,1.8c-0.8-0.1-1.6-0.1-2.4-0.1c-0.2,0-0.4,0.1-0.6,0.2C61.1,274.8,69.5,273.3,70.9,269.6z M87.9,11.8
	c0,4.8,0.2,9.6,0.7,14.4c0.1,1.6,0.3,3.2,0.6,4.8c0.1,0.6,0.4,1.3,0.7,1.9c0.3,0.6,0.5,1.1,0.6,1.8c0.2,2.1,0.8,4,1.8,5.8
	c0.5,0.8,1,1.6,1.9,2.1c0.4,0.2,0.7,0.6,1,1c1.1,1.4,2.2,2.8,2.5,4.7c0,0.3,0.1,0.5,0.1,0.8c0.1,1.3-0.1,2.4-1.2,3.2
	c-0.6,0.4-1,1-1.4,1.6c-0.3,0.3-0.4,0.7-0.1,1.1c0.3,0.4,0.7,0.5,1.1,0.3c1.9-0.9,3.8-1.8,4.2-4.1c0.2-1,0.1-2,0-3.1
	c-0.3-3.4-2.2-5.9-4.7-8.1c-1-0.9-1.7-1.9-2.1-3.2c-0.3-1-0.6-2.1-1-3c-0.6-1.5-0.6-3-0.7-4.5c-0.1-2.5-0.4-5-0.5-7.6
	C91.1,18,91,14.4,91,10.8c-1,0-2.1,0-3.1,0C87.9,11.1,87.9,11.5,87.9,11.8z M133.4,16.3c0.3,1.1,0.5,2.1,0.7,3.2
	c0.1,0.3,0,0.6-0.1,0.9c-0.1,0.9-0.2,1.7-0.2,2.6c-0.2,3.4-0.6,6.7-2.4,9.7c-0.2,0.3-0.3,0.7-0.8,0.7s-0.8,0.3-1,0.7
	c-0.7,1-1.5,1.8-2.5,2.5c-0.9,0.6-1.7,1.3-2.3,2.1c-1.2,1.5-1.3,3.2-1.1,5c0.3,2.8,1.4,5.3,2.6,7.8c0.4,0.9,0.8,1.9,1.3,2.8
	c0.5,1,1.3,1.7,2.3,2c0.8,0.3,1.5,0.6,2.3,1c0.6,0.3,1.2,0.3,1.6-0.1c0.5-0.5,1.1-1,1.3-1.6c1-2.4,1.3-4.9,0.7-7.4
	c-0.2-1-0.7-2-1.1-3c-0.2-0.5-0.6-0.8-1.4-0.7c0.4,3.4,1.6,6.7,1.5,10.2c-0.4,0.4-0.7,0.2-1.1,0c-1.1-0.5-2.2-1-3.3-1.6
	c-0.4-0.2-0.7-0.5-0.9-0.9c-1.1-2.8-2.7-5.4-3.4-8.3c-0.2-1-0.2-2.1-0.3-3.2c0-0.4,0.1-0.8,0.4-1.1c1.2-1.3,2.4-2.6,3.7-4
	c0,0.4,0.1,0.6,0,0.9c0,0.6-0.2,1.1-0.1,1.7c0,0.8,0.2,1.5,0.9,2c0.3,0.2,0.5,0.6,0.7,0.9c0.9-0.2,1-0.2,0.8-1
	c-0.4-1.8-0.2-3.5,0.2-5.3c0.1-0.7,0.5-1.3,0.9-1.9c1.4-2.3,2-4.8,2.1-7.4c0-0.1,0.1-0.3,0.2-0.6c0.4,0.6,0.8,1.1,1.6,1
	c0.1-0.2,0.2-0.5,0.2-0.8c-0.1-1.1-0.2-2.1-0.4-3.2c-0.7-2.9-1.6-5.7-2.2-8.6c-0.2-1-0.4-2-0.7-3c-0.8,0-1.5,0-2.3,0
	C132.3,12.3,132.8,14.3,133.4,16.3z M10.1,277.3c0.4-0.2,0.9-0.5,1.3-0.6c1.1-0.2,2.2-0.3,3.2-0.6c0.7-0.2,1.3-0.4,2-0.7
	c0.4-0.1,0.6-0.4,1-0.6c1.1-0.6,2.1-1.3,3.4-0.6c0.1,0.1,0.3,0,0.5,0c0.1,0,0.1-0.1,0.3-0.2c-0.5-1-0.9-1.3-1.9-1.1
	c-1.1,0.2-2.3,0.4-3.2,1.2c-1.4,1.1-3,1.4-4.7,1.7c-1.1,0.2-2.1,0.6-3.1,1.1c-0.7,0.3-1.1,1.4-0.9,1.9c0.3,1,1.3,1.2,2.4,0.5
	c-0.2-0.3-0.3-0.5-0.5-0.8C9.6,278,9.6,277.6,10.1,277.3z M88.3,269.1c0,0.1,0.1,0.4,0.2,0.5s0.4,0.1,0.5,0c0.5-0.6,0.9-1.2,0.9-2.3
	C88.9,267.7,88.5,268.3,88.3,269.1z M112.4,265.3c0-0.3-0.1-0.7-0.5-0.7s-0.7,0.2-0.7,0.6c0,0.2,0,0.5,0,0.7c0,1.3,0.1,2.6,0.1,3.9
	c0,0.5,0,1.1,0.1,1.6c0.2,1.4-0.2,2.5-1.1,3.5c-0.5,0.5-0.9,1.1-1.4,1.6c-0.2,0.2-0.4,0.4-0.6,0.6c-0.8,0.7-1.8,0.7-2.7,0
	c-0.2-0.1-0.3-0.2-0.5-0.4c-1-1.2-2.4-1.3-3.8-1.3c-0.4,0-0.9,0-1.3,0.1c-1.6,0.3-3.1-0.2-4.7-0.2c-1.4,0-2.8-0.3-4.2-0.8
	c-0.5-0.2-1-0.4-1.7-0.7c-0.1,0.5-0.4,0.9-0.3,1.2c0.2,0.6,0.6,1.1,1,1.5c0.4,0.3,0.9,0.5,1.4,0.6c1.2,0.2,2.3,0.4,3.5,0.5
	c0.6,0.1,1.3,0,1.9,0c1.1-0.1,2.1-0.3,3.2-0.4c0.6,0,1.2,0.1,1.8,0.2c0.2,0,0.4,0.3,0.5,0.4c0.3,0.3,0.6,0.7,0.8,1
	c0.4,0.6,1,0.8,1.6,0.8c0.9-0.1,1.9-0.2,2.8-0.5c0.5-0.1,1-0.5,1.3-0.9c0.8-0.9,1.5-1.8,2.3-2.7c0.8-0.9,1.3-2,1.3-3.2
	c0-2.2-0.1-4.3-0.2-6.5C112.5,265.6,112.5,265.4,112.4,265.3z M140,14.2c0.6-0.7,0.9-2.3,0.8-4c-0.4,0-0.7,0-1.1,0
	C139.7,11.8,139.8,13.8,140,14.2z M46.7,274.3c-0.3,0.2-0.5,0.5-0.2,0.8c0.1,0.1,0.5,0,0.7-0.1c0.3-0.2,0.4-0.5,0.6-0.8
	c-0.1-0.1-0.1-0.2-0.2-0.3C47.3,274,47,274.1,46.7,274.3z M51.5,275.1c0,0.1,0.3,0.1,0.4,0.1c0.5-0.2,0.9-0.6,1.1-1.3
	c-0.7,0.1-1,0.5-1.4,0.7C51.4,274.6,51.5,274.9,51.5,275.1z M63.1,268.9c0.4-0.6,0.6-1.3,0.8-2.1c-0.9,0.4-1.2,0.9-1.5,2.5
	C62.7,269.1,63,269,63.1,268.9z M53.8,273c0.7-0.2,1.6,0,2.2-1c-1.3,0.1-2.3,0.4-3.5,0.6C52.9,273.2,53.4,273,53.8,273z M65.6,265.4
	c-0.8,1.4-1.3,2.9-1.6,4.5C65.1,269.2,65.9,266.9,65.6,265.4z M51,264.8c0.9-0.4,1.7-0.9,2.6-1.3c0.6-0.3,1.2-0.5,1.7-0.7
	c0.1-0.1,0.3-0.1,0.4-0.2c1-0.8,2.1-1.5,3-2.4c1.9-1.9,4.2-2.8,6.9-3c0.6,0,0.6-0.1,1.1-0.9c-1.8-0.6-3.5-0.6-5.2,0.1
	c-1,0.4-2,0.9-3,1.4c-0.5,0.3-1,0.7-1.4,1c-1.1,0.9-2.2,1.9-3.4,2.8c-0.3,0.2-0.7,0.3-1.1,0.5c-1.4,0.6-2.6,1.7-3.4,3
	C49.8,265.3,50.4,265.1,51,264.8z M55.9,44.3c0,0.6,0.1,1.3,0,1.9c-0.1,1.2,0.1,2.4,0.6,3.6c0.1,0.2,0.2,0.4,0.2,0.7
	c0.1,1.1,0.7,1.9,1.3,2.7c0.7,1,1.7,1.3,2.8,1.5c0.9,0.2,1.6-0.3,1.9-1.1c0.4-0.9,0.7-1.7,1.1-2.6c0.1-0.4,0.1-0.8,0.2-1.3
	c-0.9,0.1-1.2,0.6-1.5,1.2c-0.3,0.5-0.6,1-1,1.5c-0.8-0.7-1.4-1.4-1.6-2.4c-0.2-1.2-0.7-2.3-1-3.5c-0.1-0.3-0.2-0.6-0.2-0.9
	c-0.1-1.2-0.2-2.4-0.2-3.5s0.1-2.2,0.1-3.3c0.1-1-0.1-2,0.2-3s0.6-2,0.9-2.9c0.3-1,0.6-2,0.9-2.9c0.4-1.3,1-2.4,2-3.3
	c0.2-0.2,0.4-0.4,0.6-0.6c0.6,0.1,0.8,0.6,1.1,1s0.5,0.9,0.9,1.4c0.1-0.3,0.2-0.4,0.3-0.6c0.3-1.2-0.9-3.2-2.1-3.5
	c-0.6-0.1-1.2-0.1-1.7,0.3c-0.4,0.4-0.8,0.7-1,1.1c-1.5,2.5-3,5-3.9,7.8c-0.6,1.9-1,3.9-1,5.9c0,0.7,0,1.4,0,2.1
	C55.7,42.6,55.8,43.4,55.9,44.3z M41.2,275.6c0.2-0.2,0.4-0.4,0.5-0.6c0-0.1-0.2-0.3-0.4-0.5c-0.2,0.3-0.5,0.5-0.5,0.8
	C40.8,275.3,41.1,275.5,41.2,275.6z M43.7,274.8c-0.1,0.1,0,0.3,0,0.5c0.2,0,0.5,0,0.6-0.1c0.2-0.2,0.3-0.5,0.4-0.9
	C44.1,274.2,43.9,274.5,43.7,274.8z M23.6,277.7c0.1-0.9-0.3-1.8-0.5-2.7c-0.1-0.2-0.3-0.4-0.6-0.8c-0.7,1.2-0.5,2.1-0.1,3
	C22.6,277.7,22.8,277.7,23.6,277.7z M71.1,11.4c0,0.9-0.1,1.8-0.2,2.7c-0.2,1.5-0.4,3.1-0.6,4.6c-0.1,0.5-0.2,1-0.5,1.4
	c-0.6,1.1-0.8,2.2-0.9,3.4c-0.1,1.4-0.8,2.5-1.6,3.5c-0.3,0.4-0.7,0.8-0.9,1.2c-0.7,1.4-0.2,3,1.2,3.7c0.5-0.6,0.6-1.4,0.6-2.2
	c0-0.8,0.3-1.5,0.8-2.1c1-1.1,1.5-2.5,1.6-4c0.1-1.4,0.4-2.7,1.1-3.9c0.6-1.2,0.9-2.5,1.2-3.8c0.5-1.7,0.7-3.5,0.8-5.2
	c-0.9,0-1.8,0-2.7-0.1C71.1,10.9,71.1,11.1,71.1,11.4z M49.2,274.5c0.8,0.2,1.1,0,1.4-1.3C50,273.7,49.5,273.9,49.2,274.5z
	 M54.4,265.5c0,2.9,0.7,4.1,2.3,4.4C56.8,269.2,55.9,267.5,54.4,265.5z M149.2,16.3c0.9,1.2,2.1,2.1,3.4,2.7
	c0.1-0.1,0.1-0.1,0.2-0.2c-1.5-1.6-3.1-3.2-4.7-4.9C147.9,15,148.7,15.6,149.2,16.3z M71.1,10.6c0.9,0,1.8,0.1,2.7,0.1 M148,38.9
	c0.1-0.1,0.3-0.1,0.4-0.2c0.5-0.6,1-1.2,1.5-1.8c0.1-0.1,0.2-0.4,0.2-0.5c0.3-0.9,0.5-1.7,0.7-2.6c0.3-1.1,0.3-2.2-0.1-3.3
	c-0.2-0.5-0.3-1.1-0.4-1.6c-0.3-1-0.8-1.7-1.6-2.4c-0.3,0.6-0.2,1.1-0.1,1.7c0.2,0.9,0.5,1.8,0.6,2.6c0.4,2.4-0.1,4.6-1.1,6.8
	C147.9,38.1,147.9,38.1,148,38.9z M161.7,33.5c1.8-1.3,1.9-3.7,0.3-4.9c-0.4,0.9,0.3,1.7,0.2,2.5C162.1,31.9,161.9,32.6,161.7,33.5z
	 M159.2,38.2c0.4-0.5,0.8-1.1,0.5-2.1c-0.8,1.1-1.5,2.1-2.3,3.1C158.3,39.2,158.8,38.7,159.2,38.2z M152.6,34.5
	c-0.7,0.6-0.7,1.6-1.1,2.3c-0.4,0.8-0.8,1.5-1.3,2.5C152.2,38.3,153.1,36.2,152.6,34.5z M154.3,34.2c-0.2,0.4-0.4,0.9-0.5,1.3
	c-0.2,1.5-0.9,2.7-1.8,3.9c-0.1,0.2-0.2,0.4-0.5,0.8c1.4,0,1.9-1,2.5-1.7c1.2-1.3,1.2-3,1-4.8C154.7,33.9,154.4,34,154.3,34.2z
	 M148.3,17.6c0.1,0.9,0.8,1.2,1.6,1.7C149.6,18.3,148.9,18,148.3,17.6z M225.7,211.4c0.6,1.1,1.3,2.2,1.9,3.3
	c1.5,2.7,2.4,5.5,2.2,8.6c-0.1,1.6,0.1,3.2,0.1,4.9c0,0.9,0.1,1.9-0.1,2.8c-0.2,1.1,0.2,2.1,1.2,2.8c0.3,0.2,0.7,0.4,0.8,0.8
	c0.3,0.7,0.8,0.9,1.5,0.8c0.2,0,0.4,0,0.6,0c0.1,0.2,0.2,0.4,0.2,0.6c0,1.3,0.8,2.1,1.8,2.7c0.4,0.3,1,0.5,1.5,0.5
	c2.1,0.2,4-0.5,5.8-1.4c1.1-0.5,2.1-1.1,3.1-1.8c0.9-0.6,1.9-0.9,2.9-1.4c0.4-0.2,0.7-0.3,1-0.5c0.2-0.1,0.2-0.4,0.4-0.7
	c-0.5,0-0.8,0-1,0.1c-2.3,0.6-4.5,1.4-6.6,2.6c-1.3,0.7-2.6,1.2-4.1,1.2c-0.6,0-1.2,0.1-1.8,0.3c-0.5,0.1-0.8-0.1-0.9-0.5
	c-0.1-0.4-0.3-0.7-0.4-1.1c-0.2-1,0.3-1.9,1.2-2.3c0.3-0.1,0.6-0.2,0.9-0.3c0.5-0.3,1.1-0.5,1.5-0.9c1-1.2,2.3-1.8,3.7-2.3
	c0.2-0.1,0.4-0.2,0.7-0.2c0.3-0.1,0.5-0.4,0.4-0.6c-0.1-0.2-0.4-0.3-0.6-0.3c-1.3,0.4-2.7,0.4-3.8,1.1c-0.8,0.5-1.8,0.8-2.4,1.6
	c-0.3,0.4-0.9,0.4-1.4,0.6c-0.1,0-0.3,0-0.3,0c-0.6-0.5-1.5-0.8-1.8-1.6c-0.8-2.1-1.5-4.3-1.3-6.6c0-0.1,0-0.3,0-0.4
	c0.5-1.1,0.1-2.2-0.1-3.2c-0.7-3.8-2.3-7.3-4.3-10.6c-2.8-4.6-5.4-9.3-8.2-13.9c-1-1.6-2.2-3.1-3.3-4.6c-2-2.8-4-5.5-6-8.3
	c-1.4-2-2.8-3.9-4.3-5.8c-2.4-3.3-4.9-6.7-7.3-10c-2.3-3.1-4.2-6.3-6.1-9.6c-3.5-6.1-6.9-12.1-10.6-18.1
	c-4.5-7.3-8.4-14.9-12.4-22.5c-0.8-1.6-1.7-3.1-2.5-4.7c-0.9-1.8-1.7-3.7-2.7-5.4c-1.2-2.1-2.7-4.1-3.9-6.2c-1.7-2.9-3.9-5.4-5.9-8
	c-0.8-1.1-1.5-2.1-2.3-3.2c-1.4-2-2.8-4-4.2-6.1c-0.7-1.1-1.3-2.3-1.8-3.5c-1.3-3.1-2.5-6.2-3.6-9.4c-0.5-1.3-0.8-2.7-0.8-4.2
	c0-1.1-0.3-2.1-0.5-3.2c-0.1-0.3-0.3-0.6-0.5-0.9c-1-1.3-1.4-2.8-1.7-4.4c-0.1-0.7,0.1-1.5,0.3-2.2c0.8-2.6,1.4-5.3,1.3-8
	c0,0,0-0.1,0.1-0.2c0.3,0,0.7,0.1,1.1,0.1c2.6,0.4,4.9-0.2,6.7-2.2c0.5-0.5,0.5-0.5,1.3-0.4c0.2,0.4-0.1,0.7-0.3,1.1
	c-0.2,0.3-0.3,0.7-0.6,1.2c0.4-0.1,0.6-0.1,0.7-0.2c0.3-0.3,0.7-0.6,0.9-1.1c0.5-1.2,1.4-1.3,2.5-0.9c0,0.9-0.9,1.4-0.9,2.4
	c0.6,0,0.9-0.4,1.2-0.8c0.3-0.4,0.6-0.8,0.8-1.3c0.4-0.9,1-1.3,2-1.1c-0.2,1.2-1.5,2-1.4,3.6c0.5-0.5,0.9-0.7,1.2-1.1
	c0.6-0.9,1.3-1.7,1.8-2.7c0.4-0.8,1-1.2,1.9-1.4c0.2,1.4-1,2.3-0.9,3.6c1.8-1.4,2.5-3.2,2.4-5.6c1.3,0.5,1.8,1.4,2.1,2.4
	c0.7,2.1,0.5,4.2,0,6.3c-0.1,0.2-0.2,0.4-0.2,0.7c-0.1,0.4,0.1,0.7,0.5,0.8c1.6,0.7,2.8,2.7,2.7,4.4c-0.1,0.8-0.4,1.5-1.1,2
	c-0.4,0.3-0.8,0.6-1.2,0.9c0.2,0.6,0.6,0.9,1,0.9c0.9,0.1,1.1,0.7,1.3,1.4v0.1c0.3,0.8,0.6,1.7,0.9,2.5c1,0.5,1.9,1.2,3.1,1.5
	c1.2,0.3,2.4,0.7,3.6,1.1c1.7,0.6,2.6,2,3.5,3.4c0.1,0.2,0.1,0.5,0.1,0.8c0,0.6,0,1.3,0,1.9c0,0.9,0,0.9,1.1,0.9
	c0.1,0.4,0.3,0.7,0.3,1.1c0.2,2.3,0.8,4.4,2,6.4c1.3,2.1,2.4,4.3,3.7,6.5c1.2,2.1,2.4,4.3,3.7,6.3c1.9,2.9,3.3,6,4.9,9.1
	c0.6,1.2,1.5,2.3,2.1,3.6c2.2,4.4,4.7,8.7,6.6,13.2c1,2.5,2.4,4.9,3.4,7.4c1.4,3.6,3.1,7,4.7,10.5c1.9,4.4,3.8,8.7,5.7,13.1
	c1,2.4,1.9,4.8,2.9,7.3c0.6,1.5,1,3,1.7,4.4c1.2,2.6,2.1,5.4,2.9,8.1c0.6,1.7,1.3,3.4,2,5.1c0.6,1.5,1.3,3.1,1.8,4.6
	c0.9,2.8,2.2,5.4,3.5,8c1.3,2.7,2.6,5.5,3.9,8.2c1.2,2.4,2.4,4.9,4,7.1c1.7,2.3,3.2,4.7,4.8,7c1,1.4,2.1,2.8,3.6,3.9
	c0.3,0.2,0.6,0.5,0.7,0.8c0.6,1.1,1.5,1.9,2.4,2.7c1.3,1.1,2.5,2.2,3.8,3.4c0.1,0.1,0.2,0.2,0.4,0.3c1.9,1.1,3.1,2.8,4.2,4.6
	c0.3,0.6,0.5,1.1,0.5,1.8c0,0.3,0,0.6,0.1,0.8c0.1,0.4,0.5,0.8,0.1,1.2c-0.5,0.7-0.8,1.6-1.7,1.9c-1.3,0.5-2.6,0.8-3.9,0.4
	c-0.3-0.1-0.5,0-0.9,0c-0.1,0.2-0.3,0.4-0.3,0.7c-0.3,1.3,0.2,2.3,1.5,2.2c1.9-0.1,3.8-0.7,5.2-2.1c1.2-1.2,1.9-2.7,2.6-4.2
	c0.2-0.5,0.2-1,0-1.5c-0.1-0.4-0.2-0.8-0.3-1.4c0.6,0,1,0,1.4,0.1c1.1,0.1,2.1,0.2,3.2,0.5c1.4,0.4,2.7,0.8,3.8,1.7
	c0.8,0.7,1.8,1.1,2.8,1.4c0.2,0.1,0.5,0,0.8,0c-0.1-0.3-0.2-0.6-0.3-0.8c-1.4-1.9-3.3-3.1-5.4-3.9c-2-0.7-4.1-1-6.2-1.1
	c-0.8,0-1.2-0.3-1.6-1c-0.9-1.8-2.4-3-3.9-4.2c-2.9-2.3-6-4.4-8.1-7.7c-0.9-1.5-2.3-2.6-3.4-4c-0.9-1.2-2-2.2-2.4-3.7
	c-0.1-0.2-0.2-0.4-0.4-0.6c-1.7-2.1-3.1-4.3-4.2-6.7c-1-2.1-2.1-4.1-3.1-6.2c-1.4-2.8-2.8-5.7-4-8.6c-0.9-2-1.6-4.1-2.4-6.2
	c-0.4-1-0.9-1.9-1.2-2.8c-0.7-1.9-1.3-3.9-2-5.8c-0.7-1.9-1.4-3.8-2.1-5.6c-0.9-2.4-1.7-4.8-2.7-7.2c-1.6-3.8-3.2-7.5-4.8-11.2
	c-1-2.4-2-4.9-3.1-7.3c-0.4-1-0.9-1.9-1.3-2.9c-1.2-2.7-2.3-5.4-3.5-8.2c-0.6-1.4-1.3-2.8-1.9-4.2c-0.8-1.8-1.6-3.6-2.5-5.4
	c-1.3-2.5-2.6-5.1-3.9-7.6c-0.9-1.8-1.8-3.5-2.7-5.3c-0.5-1-1.1-2-1.7-3c-1.2-2.1-2.3-4.2-3.5-6.3c-2.3-3.8-4.6-7.5-6.9-11.3
	c-0.9-1.5-1.8-3-2.6-4.5c-0.3-0.5-0.5-1-0.7-1.5c-0.2-0.9-0.5-1.7-1-2.5c-0.1-0.2-0.2-0.5-0.2-0.8c0-0.5,0-1,0-1.5
	c0.1-2.5-1.2-4.2-3.3-5.4c-1.5-0.8-3.1-1.2-4.8-1.5c-0.3-0.1-0.6-0.1-0.9-0.2c-1.1-0.2-1.9-0.6-2-2c-0.1-0.7-0.5-1.4-0.8-2.1
	c-0.2-0.4-0.2-0.7,0-1.1c0.9-1.8,0.5-3.5-0.2-5.1c-0.2-0.6-0.7-1-1.2-1.2c-0.2-0.1-0.5-0.2-0.8-0.3c-0.5-0.2-0.6-0.5-0.4-0.9
	c0.7-1.7,0.6-3.5,0.5-5.3c-0.2-2.1-1.3-3.7-3.3-4.7c0.2-1.3,0.5-2.3,1.8-3.1c0.7-0.4,1.2-1.3,1.6-2c1.2-2.2,1.2-4.5,0.2-6.8
	c-0.7-1.8-1.7-3.4-2.8-4.9c-0.6-0.9-1.5-1.6-2.4-2.3c-1-0.8-1.9-1.9-3.1-2.5c-0.2-0.1-0.3-0.4-0.5-0.7c-1-2.1-2-4.2-2.8-6.4
	c-0.1-0.3-0.2-0.6-0.3-0.9c-1,0-2,0-3-0.1c0,0.3,0.1,0.6,0.1,0.9c0.3,1.4,0.3,2.8,1.2,4c1.4,0.1,2.1,1.1,2.5,2.2
	c0.5,1.2,1.2,2.3,2.1,3.2c0.9,0.8,1.9,1.4,2.9,2.1c0.2,0.2,0.5,0.3,0.6,0.5c1.5,2.2,3,4.3,4,6.7c0.5,1.1,0.7,2.2,0.2,3.3
	c-0.3,0.6-0.5,1.3-0.8,2c-0.2,0.4-0.5,0.8-0.9,1.4c-0.2-0.5-0.4-0.8-0.5-1.2c-0.1,0-0.3,0-0.3,0.1c-0.2,0.4-0.5,0.7-0.6,1.1
	c-0.5,1.3-1,2.6-1.6,3.9c-0.3,0.7-0.7,1.5-1.6,1.5c-1.4,0.9-3,1-4.5,1.1c-0.9,0.1-1.7,0.1-2.6,0c-0.4,0-0.8-0.2-1.2-0.4
	c-0.4-0.1-0.8-0.3-1.3-0.5c0,1-0.5,1.4-1.3,1.6c-0.3,0.1-0.6,0.3-0.9,0.5c-2.1,1-4.2,1.1-6.3-0.2c-0.6-0.4-1.3-0.7-1.9-0.8
	c-1.3-0.2-2.4-0.6-3.6-1.1c-0.2-0.1-0.5-0.1-0.7-0.1c-0.3,1.2,0.2,1.9,1.1,2.3c0.7,0.3,1.3,0.6,2.1,0.9c1.4,0.4,2.5,1.4,3.7,2.1
	c-0.3,1.2-0.5,2.3-1,3.4c-0.9,2-1.9,4.1-2.3,6.3c-0.1,0.6-0.2,1.3-0.2,1.9c0.1,1.1,0.5,1.9,1.5,2.6c0.9,0.6,1.4,1.5,1.5,2.8
	c0.1,2.8,0,5.5,1.1,8.2c0.2,0.6,0.5,1.1,1.1,1.5c0.7,0.5,0.9,1.3,1,2c0.4,2.4,1.3,4.6,2.1,6.9c0.7,2,2.1,3.7,3.3,5.4
	c0.3,0.5,0.7,0.9,1.1,1.4c2.2,3.6,4.9,6.9,7.4,10.3c0.7,1,1.3,2,1.9,3c1,1.5,2,2.9,2.9,4.3c0.7,1.1,1.2,2.3,1.8,3.5
	c0.9,1.7,1.8,3.4,2.7,5.2c1.5,2.9,3,5.8,4.5,8.6c1.7,3.2,3.4,6.5,5.3,9.7c3.3,5.7,6.7,11.3,10,17c1.9,3.2,3.7,6.4,5.5,9.7
	c1.5,2.8,3.2,5.4,5.1,8c1.5,2,2.8,4.1,4.3,6.1c1.3,1.8,2.7,3.5,4,5.3c2.1,2.9,4.2,5.9,6.3,8.8c1.9,2.7,3.9,5.4,5.9,8
	c0.4,0.6,0.8,1.3,1.2,1.9c1.2,2,2.4,4,3.6,6C223.2,207,224.5,209.2,225.7,211.4z M151,10.3c1,0,2,0,3,0.1 M139.7,10.2
	c0.4,0,0.7,0,1.1,0 M87.9,10.8c1,0,2.1,0,3.1,0 M131.9,10.2c0.8,0,1.5,0,2.3,0 M139.3,40.5c0,0.8,0.5,1.2,1.1,1.4
	C140.1,41.5,139.7,41,139.3,40.5z M141.5,14.2c-0.4,0.2-0.5,0.5-0.5,0.9c-0.1,1.3-0.4,2.6,0.1,3.9C141.5,17.4,141.5,15.8,141.5,14.2
	z M147.4,34.5c-0.3,0.8-0.5,1.5-0.8,2.5C147.3,36.2,147.7,35.5,147.4,34.5z M137,41.7c-0.7-0.8-1.1-1.6-1.1-2.7
	C135.5,40.2,135.8,40.9,137,41.7z M138.8,42c-0.4-0.4-0.7-0.8-1-1.2s-0.6-0.8-0.9-1.1C137.2,40.8,137.9,41.4,138.8,42z M154,40.4
	c-0.3,0.4-0.7,0.7-1.1,1.1c0,0,0,0.1-0.1,0.3c0.3,0,0.5,0.1,0.7,0c1-0.3,1.8-0.9,2.3-1.7c2.2-3.4,3.2-7,2.6-11
	c-0.1-0.9-0.2-1.7-0.8-2.4c-0.2-0.3-0.5-0.5-0.7-0.7c-0.7,0.5-0.6,1.2-0.5,1.8c1.3,4.2,0.2,8-1.7,11.7
	C154.5,39.8,154.2,40.1,154,40.4z"/>
</svg>
