<svg viewBox="0 0 402 291" xmlns="http://www.w3.org/2000/svg" role="presentation">
<title>Speed</title>
<g id="Fills1">
	<path style="fill:#EF3B2B;" d="M69.5,127.4c-0.2-4-1.5-5.8,3.3-6c4.8-0.2,17.2-2.8,21.5-2.5c4.3,0.3,33.8-4.5,38.7-7.3
		c4.8-2.8,31-14.7,35.7-18.8c4.7-4.2,27.2-16.2,30.8-18.7c3.7-2.5,20.5-18,22.3-19.2c1.8-1.2,13.8-12.7,14.5-13.5
		c0.7-0.8,4.5-6,5.3-7s-3-1.2-4.5-2.2c-1.5-1-4-3.3-1-5.5s14-5.4,15.8-6.5c1.7-1,7.7-0.4,7.6,1.3c-0.2,1.7-2.5,9-2.8,11.8
		c-0.3,2.8-2.3,10.5-3.7,9.2c-1.3-1.3-2.3-4.3-3.7-3.5c-1.3,0.8-26.3,27.7-29,29.5c-2.7,1.8-25.7,21.8-30.8,24.7
		c-5.2,2.8-20.7,11.5-22.5,12.5c-0.5,1.3,3,0,3.7-0.2s36.3-11.8,43.2-15.8c6.8-4,28.7-10,45.3-23c16.7-13,23.5-16.5,30-21.2
		S300.4,33,300.4,33c-3-2.4-6.9-5.4-6.9-5.4c4-2.3,17.7-5.6,20.2-5.5c2.5,0.2,2.5,9.8,2.5,13.3s0.6,11-1.5,9.7
		c-4.8-3.5-7-5.7-8.2-4.7c-1.2,1-24.8,25-29.7,27.5c-4.8,2.5-41.7,25.5-46.7,26.8c-5,1.3-23.9,9.4-23.9,9.4
		c2.1,0.5,43.1-6.9,47.4-8.2c4.3-1.3,32.2-11.8,39.3-13.8s14-2.8,14.3-3.5c-1-4.3-3.8-9.7,1.6-9.2s20.4-0.7,21.3,1.5
		c2.2,5.3-11.5,18.8-13.7,20c-2.2,1.2-5.2-2.8-6-4.3s-2.8,0.7-5.8,1.8c-3,1.2-74.3,22.3-84.5,24.2s-35.8,7.5-35.8,7.5
		c7.3,0.5,50.8-0.5,55.8-0.8c5-0.3,57.2,0.3,62.2,0.2c5-0.2,13.7-1.2,13.7-1.2c-1.4-10.5-0.6-10.1,0.1-9.2c1.8,1,7,1.9,12.5,5
		c6.1,3.5,11.5,7.5,12,9.4c1,3.7-20.7,15.2-22.5,15.2c-1.5-3.3-0.7-8.4-2.2-8.6c-5.7-0.1-40.3,2.6-52.5,0.8s-53,3-55.3,3.2
		c-2.3,0.2-31.5-3.5-40.3-1.8c-8.8,1.7-44.5-0.8-50-1c-5.5-0.2-20.9,2-26.8,2.3c-5.9,0.4-21.2,0.2-21.2,0.2
		C68.9,131.6,69.5,127.4,69.5,127.4z"/>
</g>
<g id="Fills2">
	<path style="fill:#EF3B2B;" d="M69.5,127.4c0.3-2.8-2-5.2,3.3-6c5.3-0.8,52.7-4.2,62-9.5c9.3-5.3,46.7-28,51.7-31.7
		c5-3.7,17-9.3,22.3-14c5.3-4.7,28-25,30.3-27.7s2.5-4.2,2.5-4.2c-3.5-2.8-6.8-2.2-5.5-5.2s6.7-5,12.3-7.7c5.7-2.7,10.7-1.3,11,0
		c0.3,1.3-3.3,19.7-4.3,20.7c-1.3,1-4.7-5.3-5.8-3.2c-1.8,3.2-31.5,32.5-34.5,34.8c-3,2.3-18.3,15.3-24,18.3
		c-5.7,3-22.7,13.7-22.7,13.7c3.7,0.7,14.7-3.3,19-6c4.3-2.7,41.7-15.3,41.7-15.3s26.7-13,33-17.7c6.3-4.7,25.3-20,27.3-21.3
		S300.4,33,300.4,33c-5.2-2.4-5.9-4.4-5.9-4.4c3.7-3.3,18.3-6,20.3-6.3s1.7,22-0.2,22.8c-1.8,0.8-6.5-4.5-6.5-4.5
		c-2.3,0.3-6.7,6-8.3,7.7c-1.7,1.7-25,21.3-28.3,23.7c-3.3,2.3-26.3,15.7-30.7,17.3c-4.3,1.7-34.6,14.9-34.6,14.9
		c0.9,1.8,29.6-5.2,35.6-6.5s36-9.3,45-13.3s20.5-5.7,20.5-5.7c-1.2-5-2.8-9-0.2-9c2.7,0,23,1.3,23,1.3s-1.3,5.7-3.7,8.3
		c-2.3,2.7-9.3,15.3-12.7,12.7c-3.3-2.7-4.3-6.7-5.7-6c-3.7,1.3-44.7,15-50.3,16.7c-5.7,1.7-40.3,9.3-47,11
		c-6.7,1.7-25.7,7.7-26.5,6.5c4.5,2.2,25.2,0.5,30.2,0.2c5-0.3,51.7-0.3,63.3-0.3c11.7,0,35-1.3,36.7-2c1.7-5,0.3-7.3,2.3-7.3
		s24.7,11,23.8,12.8c-0.8,1.8-19.8,13.2-20.8,13.8c-1.7-1.3-4-6-4-6c-7,0.3-71.3,0.7-78,0.3c-6.7-0.3-32.3,0.7-40.7,1.3
		c-8.3,0.7-30.3-0.3-36.3-0.3s-38.3-2.3-43-1.5c-4.7,0.8-16.3,2.5-26.8,2.3c-10.5-0.2-21.2,0.2-21.2,0.2
		C69.1,130.2,69.5,127.4,69.5,127.4z"/>
</g>
<g id="Fills3">
	<path style="fill:#EF3B2B;" d="M91.1,118.7c6.5,0,34.6-2.7,43.7-6.8c9.1-4.2,42.8-24.4,46.3-26.7s20.2-15.2,25-18.2
		c4.8-3,22-19.2,25-21.5s10.5-11.1,10.5-11.1c-2.5-0.9-7.8-4.2-4.2-6.7s13.5-8.5,16-8.8s5.9,0.7,6.1,2.6s-3.3,19.2-4.3,20.7
		c-1.5,2-4.4-4.1-5.8-3.2c-1.4,0.9-18.2,21.4-20.4,22.9s-29.5,24.5-31.8,25.5S168,105.7,167,105.7c-1.1,0,2.2,1.8,3.7,1s52-19,54-20
		s36.7-19.2,38.2-20.8s25.8-20.5,27.5-21.7s10-11.2,10-11.2c-2.2-2-6.2-6-4.8-6.5s18-4.4,18-4.4s3.2,1.2,2.5,10.7s0.5,12.4-1.5,12.3
		c-2.5-1.1-8.2-4.7-8.2-4.7c-2.1,2.6-27.1,24.3-28.8,26.3S248.4,87,245.6,88s-38.4,16.3-39.4,16.1c4.9,2.4,44.7-7.6,50.4-9.6
		c5.8-2,52.8-15.8,52-16c-1.5-5-5.5-8.3-1.5-8.9s20.2,0.2,21,0.4s2.8,3.2,1.5,5s-15,18-15,18c-2.2-1.8-1.8-6.8-4.2-6.4
		c-3.1,0.4-42.3,14.2-44.1,14.7s-39.7,8.5-41.2,9.2s-40.8,9.6-40.8,9.6c4.1,1.7,66.3-0.3,69.1-0.3c2.7,0,62.7-1.5,62.7-1.5
		c-0.2-5.7-4.2-8.5,1.6-7.7s11.8,4.2,15.2,6.2s7.8,3.5,6,6.5s-18.8,14.6-20,14.6c-2.9-3.8-2.7-6.1-3.1-6.6c-8.4-1-67.4,2-72.4,1.5
		s-35-0.8-40,0s-47.8,0-49.8,0s-34.7-2.6-35.8-1.7c-1.2,0.9-48,2.5-48,2.5s-1.9-9.1-1.4-10.6s17.2-4.2,19.2-4S91.1,118.7,91.1,118.7
		z"/>
</g>
<g id="Lines">
	<g>
		<path style="fill:#002955;" d="M135.9,163.4c-1.4-2.3-1.4-4.7-4.3-5.7c-1.6-0.6-3.3-0.8-4.9-0.8c-2,0-4.1,0.6-5.7,1.8
			c-2.5,2.2-4.3,5.1-5.3,8.2c-0.6,2.2-0.6,4.3,0,6.7c1.2,4.3,2.7,8,5.3,11.5c3.7,5.7,7.2,11.7,10.2,17.8c3.5,7.6,4.5,16.2,3.3,24.7
			v0.4c-2.2,15.1-11.5,30.9-27.6,30.9c-7,0-13.5-1.4-12.9-5.9c0.2-0.6,0.4-1.2,0.6-1.6c0.6-0.8,1.4-1.2,2.2-1.2
			c1.8,0.2,3.5,0.6,5.1,1.4c2.2,1.2,4.5,1.6,7,1.8c3.9,0,7.6-2,11-6.9c3.5-4.9,6.1-10.6,7.2-16.6c0.2-1,0.2-1.8,0.2-2.7
			c0.2-5.5-0.2-11.2-1.2-16.6c-1.4-4.9-3.3-10-6.1-14.1c-2-2.9-3.7-5.9-5.5-9c-1.8-2.9-3.5-6.1-4.7-9.4c-1-2.9-1.2-6.3-0.8-9.4
			c0.8-4.5,2.9-8.8,6.3-11.7c3.5-3.3,8.2-5.3,13.1-5.5c3.1-0.2,6.3,0.8,8.6,2.7c1.4,1.8,2.2,4.3,2.2,6.7c-0.4,2-1.2,3.3-2,3.3
			C136.9,164.4,136.3,164,135.9,163.4z"/>
		<path style="fill:#002955;" d="M140.4,257.6c-2.3,0-2.5-1.2-2.3-3.1l0.2-1c3.1-16.2,5.5-32.9,8.4-48.9c2.3-12.9,4.3-25.6,6.5-38.6
			l0.8-4.7c0.2-1.6,0.6-3.1,1-4.7c0.2-2,2-3.5,4.1-3.3c1.4-0.2,3.1-0.2,4.5-0.2c2.5-0.2,5.1,0.4,7.4,1.6c3.9,2.3,6.7,6.3,7.4,10.6
			c0.4,2.7,0.6,5.7,0.6,8.4c0,3.1-0.2,6.3-0.8,9.4c-1,5.9-2.7,11.4-5.1,16.6c-2.7,5.9-6.9,11-11.5,15.1c-3.1,2.5-5.9,4.9-9.4,7.4
			c-2.3,1.6-3.9,4.3-4.3,7v0.6l-0.8,4.3c-1,5.7-2,11.4-2.7,17.2c-0.2,1-0.2,2-0.4,2.9c0,1.2-0.6,2-1.4,2.7
			C142,257.6,141.2,257.6,140.4,257.6z M150.8,214.3c2.2-0.4,4.3-1.4,5.9-2.9c5.9-4.5,10.2-10.8,12.5-17.8c1.6-4.9,3.1-10,3.9-15.1
			c0.4-2,0.6-4.3,0.6-6.3c0-7-5.1-12.7-11.9-13.7c-1.4,0-2,1-2.3,2.9l-2,12.7c-1.6,10.8-3.5,21.7-5.3,32.9L150.8,214.3z"/>
		<path style="fill:#002955;" d="M197.5,159.1c-0.2,0.6-0.6,1.4-0.6,2c-0.2,1-0.2,1.8-0.2,2.5c-1.2,6.9-2.5,13.7-3.9,20.6l-0.2,1.4
			c-0.4,2-0.4,3.9-0.8,5.9l-0.2,1.2c-0.4,1.4-0.8,2.7-1,4.3c-0.2,1-0.2,1.8-0.2,2.7c1.4-0.2,2.5-0.2,3.9-0.2h3.9
			c1.4,0,6.3,0.2,5.9,2.3c-0.2,0.6-0.4,1.2-0.8,1.4c-1.2,1.4-2.9,1.8-4.5,1.4c-2,0-4.3-0.2-7.2-0.2c-1.2,0-2,0-2,0.2l-0.6,3.3
			c-0.8,5.5-1.2,10.6-1.8,16.1c-0.8,4.7-1.4,9.6-2,13.9c-0.4,2.5-1.2,5.1-1.4,7.8c-0.2,1.4-0.4,3.1-0.2,4.5c0,0.2,0.4,0.2,1.2,0.2
			c2.9,0,10.4-0.8,11.4-0.8c1.4,0,2.5,0.2,4.3,0.2c1.2,0,2.2-0.4,3.7-0.4c1.2,0,2.2,1,2.2,2v0.2c-0.2,0.8-0.6,1.4-1.2,1.8
			c-2.3,2-6.9,2.2-10.2,2.3c-3.1,0.2-6.5,0.2-14.5,0.2h-0.6c-3.3,0-4.1-1.4-3.7-4.7c1.4-9,2.7-18.2,3.9-26.8c0.6-3.9,1.6-8,2.2-12.1
			c1.2-7.2,2-14.3,2.7-21.3c0.2-2.7,0.8-5.7,1.2-8.6c1-5.9,2-11.7,2.7-17.8l0.6-3.1c0.6-3.3,1.2-7.4,1.8-7.6c3.9-1,7.8-1.4,11.9-1.4
			c4.9,0,10,0.6,14.9,1.4c0.4,0,0.8,0.2,1.2,0.2c2.3,0.4,3.3,1.8,3.1,3.1c-0.2,1.4-1.4,1.6-4.3,1.6c-3.3,0-6.3-0.4-9.6-0.6
			c-0.6,0-1.4-0.2-2-0.2c-2.5,0-4.7,0.4-7.2,0.6C198.7,159.1,197.9,159.1,197.5,159.1z"/>
		<path style="fill:#002955;" d="M235.9,159.1c-0.2,0.6-0.6,1.4-0.6,2c-0.2,1-0.2,1.8-0.2,2.5c-1.2,6.9-2.5,13.7-3.9,20.6l-0.2,1.4
			c-0.4,2-0.4,3.9-0.8,5.9l-0.2,1.2c-0.4,1.4-0.8,2.7-1,4.3c-0.2,1-0.2,1.8-0.2,2.7c1.4-0.2,2.5-0.2,3.9-0.2h3.9
			c1.4,0,6.3,0.2,5.9,2.3c-0.2,0.6-0.4,1.2-0.8,1.4c-1.2,1.4-2.9,1.8-4.5,1.4c-2,0-4.3-0.2-7.2-0.2c-1.2,0-2,0-2,0.2l-0.6,3.3
			c-0.8,5.5-1.2,10.6-1.8,16.1c-0.8,4.7-1.4,9.6-2,13.9c-0.4,2.5-1.2,5.1-1.4,7.8c-0.2,1.4-0.4,3.1-0.2,4.5c0,0.2,0.4,0.2,1.2,0.2
			c2.9,0,10.4-0.8,11.4-0.8c1.4,0,2.5,0.2,4.3,0.2c1.2,0,2.2-0.4,3.7-0.4c1.2,0,2.2,1,2.2,2v0.2c-0.2,0.8-0.6,1.4-1.2,1.8
			c-2.3,2-6.9,2.2-10.2,2.3c-3.1,0.2-6.5,0.2-14.5,0.2h-0.6c-3.3,0-4.1-1.4-3.7-4.7c1.4-9,2.7-18.2,3.9-26.8c0.6-3.9,1.6-8,2.2-12.1
			c1.2-7.2,2-14.3,2.7-21.3c0.2-2.7,0.8-5.7,1.2-8.6c1-5.9,2-11.7,2.7-17.8l0.6-3.1c0.6-3.3,1.2-7.4,1.8-7.6c3.9-1,7.8-1.4,11.9-1.4
			c4.9,0,10,0.6,14.9,1.4c0.4,0,0.8,0.2,1.2,0.2c2.3,0.4,3.3,1.8,3.1,3.1c-0.2,1.4-1.4,1.6-4.3,1.6c-3.3,0-6.3-0.4-9.6-0.6
			c-0.6,0-1.4-0.2-2-0.2c-2.5,0-4.7,0.4-7.2,0.6C237.3,159.1,236.7,159.1,235.9,159.1z"/>
		<path style="fill:#002955;" d="M261.2,203.5c2.9-15.1,4.3-30,7.6-44.8c0-0.8,0.2-1.4,0.6-2.2c0.6-2.2,1.4-2.9,3.5-3.1
			c0.8-0.2,1.6-0.2,2.3-0.2c8.6,0,16.6,4.5,20.8,12.3c4.3,9,5.7,19.6,5.5,30c0,3.1-0.2,6.1-0.6,9c-0.2,2-0.4,3.9-0.8,5.9
			c-0.4,2.3-0.8,4.5-1.4,7c-2.9,12.1-10,24.5-20.8,31.9c-2.9,2-6.1,3.9-9.4,5.1c-2.9,1.2-6.1,2-9,2.7c-0.8,0.2-1.4,0.4-2.2,0.4
			c-2.2,0-2.9-1.4-2.9-4.5c0.2-4.3,0.6-8.8,1.4-13.1L261.2,203.5z M262,250.9c0.8,0,1.4-0.2,2-0.4c3.1-1.4,6.3-3.1,9.4-4.9
			c10.8-5.9,16.2-16.4,18.8-27.4c0.8-3.1,1.4-6.3,1.8-9.4c2-13.3,1-27-3.3-39.7c-1.8-5.7-6.5-9-12.7-9.6c-0.4-0.2-1-0.2-1.4-0.2
			c-1.8,0-2.2,0.8-2.7,3.3c-2,10-4.3,19.8-6.7,34.5c-1.6,11.2-2.5,22.5-4.3,33.5c-0.6,3.5-1,7.2-2.2,16.8c-0.2,1.6-0.2,2.7,0.4,3.3
			C261.4,250.9,261.8,250.9,262,250.9z"/>
	</g>
	<g>
		<g>
			<path style="fill:#002955;" d="M339.8,126.4c-1.4-2.2-3.6-4-5.9-5.2c-7.3-3.9-14.4-7.8-21.4-12.5c0.1,0.1-0.6-0.4-0.6-0.3
				c-0.2,2.8,1.5,7.2,0.8,9.8c-1.2,4.1-13.2,2.3-16.8,2.5c-13.4,0.7-26.5-0.1-39.9-0.1c-26,0-52.1,1.2-78.1-0.5c1,0.9,2,1.8,3,2.7
				c11.7-1.6,23.2-3.5,34.7-6c11.4-2.5,23.4-3.6,34.4-7.4c10.8-3.7,22-6.5,32.8-10.4c4.9-1.8,9.8-3.9,14.7-5.8
				c4.5-1.8,9.1-5.2,13.8-6.2c-1-0.9-2.1-1.8-3.1-2.6c1.7,2.7,4,5.4,6.8,7.2c4.8,3,9-4.7,11.2-8.2c2.2-3.5,7-7.9,3.3-11.6
				c-3.2-3.2-7.5-3-11.8-3c-2.8,0-6,1.2-8.8,0.9c-2.7-0.3-3.9-0.8-5.3,2.3c-1.3,2.7-0.1,2.2,0.5,4.2c0.3,1.2,0.7,0.8-0.1,1.8
				c-1,1.1-4.3,1.9-5.7,2.4c-7.4,3-15.3,4.3-22.7,7.2c-7,2.7-13.6,6.3-21.1,7.3c-9.3,1.2-18.1,4.5-27.4,6
				c-8.6,1.4-17.5,3.7-26.2,3.9c1,0.9,2.1,1.8,3.1,2.7c5.2-2.4,10.6-4.3,15.9-6.5c5.3-2.1,10.3-4.6,15.5-6.9
				c10.3-4.5,20.3-10.6,29.2-17.5c4.4-3.4,8.9-6.5,13.5-9.6c4-2.8,8.2-5.1,11.7-8.5c4.1-4.1,7.4-8.8,11.6-12.7
				c1.3-1.2,3.3-3.9,4.9-4.3c0.8-0.2,3.3,0.6,4.3,1c-1-0.9-2-1.8-3-2.6c1.3,2.5,4,4.2,6,6.1c0.1,0.1,2.1,1.6,2.1,1.6
				c-0.1-3.1-0.5-6.2-0.6-9.4c-0.1-3.1,0.7-6.1,0.9-9.1c0.2-2.7-0.4-4.2-2.5-5.9c-2.8-2.3-5.9-1.2-9.2-0.7c-5.2,0.8-9.8,0.8-12.1,6
				c-0.2,0.4,1.6,1.8,1.8,1.9c1.9,1.5,3.6,3.2,5.6,4.7c-0.7-0.7-1.5-1.5-2.2-2.2c-8.7,7.6-16.7,16.2-26.4,22.7
				c-5.8,3.9-11.8,7.7-17.4,12c-4.9,3.7-9.3,7.3-14.7,10.2c-12.5,6.7-25.4,11.9-38.7,16.9c-6.3,2.3-12.7,5-19.1,6.9
				c-6.8,2-14,3.2-20.9,4.6c1,0.9,2.1,1.8,3.1,2.7c15.8-10.5,33.7-18.1,47.5-31.3c7.1-6.7,14.2-13.5,21.5-20
				c3.5-3.1,6.9-6.3,10.2-9.7c1.6-1.7,3.3-3.3,4.9-4.9c0.7-0.8,2.4-3.7,3.7-3.5c-1-0.9-2-1.8-3-2.6c0.7,1.4,1,3.1,1.6,4.5
				c0.2,0.4,2.6,3,3.1,2.6c3.8-2.6,3.8-5.6,4-10c0.1-2.1,0.3-3.8,1-5.7c0.6-1.6,1.5-2.7,0.6-4.4c-1.5-3.2-5.8-4.9-9.1-4
				c-1.6,0.4-2.6,1.5-4.1,2.2c-1.7,0.9-3.6,1.4-5.3,2c-2.4,0.9-7.7,2.6-7,6.2c0.6,3.7,5.5,3.5,8.1,4.1c-1-0.8-1.9-1.6-2.9-2.5
				c1.5,1.9-3.9,5.9-5.1,7.1c-3,3.1-5.9,6.4-8.9,9.5c-5.4,5.5-11.9,10.4-17.8,15.4c-6.7,5.7-13.5,10.8-21.2,15.1
				c-7.7,4.3-14.7,10-22.3,14.5c-15.2,8.9-31.5,16.6-49,19.7c-9.2,1.6-18.7,3.7-28,4c-3.9,0.1-7.2,0.3-11.1,1
				c-1.9,0.3-4.2,0.4-5.9,1.2c-1.1,0.5-2,1.4-3.1,2c0,0,0,0.1,0,0.1c0.6,2.7,1.3,5.4,1.9,8.1c0.2,0.8,2.3,2.5,3,2.6
				c6.4,1.3,13.1,1,19.7,1c8.6,0,17.3-0.4,25.9-0.8c17.2-0.7,34.4-0.8,51.6-0.4c8.5,0.2,16.8,0.6,25.3,1.1c8.3,0.5,16.6-0.1,25-0.1
				c16.6,0,33-1,49.6-0.2c16.1,0.8,32.4,1.7,48.2-1.4c-0.9-0.7-1.9-1.5-2.8-2.2c0.7,0.8,2.1,4.9,2.1,5.9c0,1.5-1.5,3.5-2.1,4.8
				c-0.2,0.4,2.7,2.9,3.1,2.7c6.2-2.1,11.1-4.4,16.4-8.4c2.5-1.9,7.9-4.2,7.4-7.9c-0.2-1-3.1-2.3-3.1-2.6c0.5,3.7-6.3,6.9-8.7,8.7
				c-4.8,3.6-9.4,5.5-15,7.4c1,0.9,2.1,1.8,3.1,2.7c1-2.1,2.4-3.8,1.9-5.9c-0.5-2.2-1.6-4.9-3.3-6.5c-0.6-0.6-1.3-1.4-2.1-1.6
				c-1.5-0.4-4.3,0.6-5.9,0.8c-2.4,0.3-4.6,0.9-7.1,0.9c-17.9,0.4-35.9-1.1-53.8-0.9c-19.1,0.2-38.6,2-57.7,0.7
				c-19-1.3-38.3-2-57.3-1.1c-10.7,0.5-21.5,0.5-32.2,1c-10.1,0.4-21.2,1.2-31.1-0.8c1,0.9,2,1.8,3,2.6c-0.4-1.8-0.9-3.6-1.3-5.5
				c-0.6-2.7-0.3-3.3,2.5-4.6c3.7-1.7,9.9-2.2,14-2.2c4.3,0,8.5-0.4,12.8-1c10-1.3,20.2-2.7,29.8-5.6c9.3-2.7,18.2-6.8,26.9-11.3
				c8.9-4.6,17.5-9.7,25.6-15.4c7.6-5.4,15.7-9.6,23-15.4c7.1-5.7,14.1-11.7,20.9-17.7c3.6-3.2,6.7-7,10-10.5
				c2.2-2.3,5.6-4.7,7.2-7.5c0,0,0-0.1,0-0.1c-0.7-1.1-1.6-2.3-2.7-3.1c-1.2-0.9-5.4-1.3-4.7-0.6c0.5,0.5,0.9,1,1.4,1.6
				c0.1-3.8,3.2-5.1,6.4-6.3c1.8-0.7,3.6-1.2,5.3-2c1.7-0.8,2.9-2,4.7-2.5c0.5-0.1,3.1-0.5,3.4-0.2c0.4,0.5-0.7,2.3-0.9,2.7
				c-0.8,1.8-1.1,3-1.3,5.2c-0.3,4.7,0.1,8.1-4,10.9c1,0.9,2.1,1.8,3.1,2.6c-1-2.2-1.1-4.3-3-6c-2.2-2-2.6-0.9-4.4,1.1
				c-7.9,9.1-17.4,16.7-26.1,25c-8.7,8.3-17.2,16.9-27.6,23.1c-10.5,6.2-21.3,12.3-31.5,19c0,0,2.5,2.9,3.1,2.7
				c7-1.4,14.1-2.6,20.9-4.6c6.1-1.8,12.2-4.3,18.2-6.6c13.5-5,26.8-10.4,39.6-17.2c5.5-2.9,9.9-6.5,14.7-10.2
				c5.3-4.1,11-7.8,16.6-11.5c10-6.7,18.2-15.5,27.1-23.2c0.2-0.2-2-2.1-2.2-2.2c-1.6-1.2-3.2-2.8-4.8-4.1c0.6,0.6,1.2,1.3,1.8,1.9
				c1.5-3.3,3.1-4.4,6.6-5.2c3.4-0.7,10-2.6,13.1-1.2c-1-0.8-1.9-1.6-2.9-2.5c2.1,2.6-0.1,8.4-0.2,11.3c-0.1,3.6,0.5,7.4,0.6,11
				c0.7,0.5,1.4,1,2.1,1.6c-1.9-1.8-3.9-4.6-6.2-6c-1.1-0.7-1.2-0.4-2.7-0.9c-2.6-0.9-2-1.4-4.1,0.6c-4.7,4.4-8.9,9.1-13.2,13.9
				c-4.3,4.7-9.6,7.8-14.8,11.4c-5.6,3.9-10.9,8.3-16.5,12c-5.5,3.7-11.4,8-17.2,11c-12.6,6.4-26.2,10.5-39,16.5
				c0,0,2.4,2.8,3.1,2.7c8.7-0.2,17.6-2.5,26.2-3.9c9.8-1.7,19.3-4.6,29.1-6.2c8.8-1.4,16.8-6.6,25.4-9c4.6-1.3,9.2-2.4,13.6-4
				c2.9-1.1,7.5-2.2,9.8-4.2c0,0,0-0.1,0-0.1c-0.4-1.2-1.5-1.7-1.8-3c-0.3-1.4,0.6-3.6,1.8-4.5c1.2-0.9,2.2-0.2,3.6-0.1
				c2.1,0.1,4.2-0.6,6.2-0.8c3-0.3,9.2-0.8,11.8,1c-0.8-0.8-1.7-1.6-2.5-2.4c1.9,3.3-3.5,9-5.2,11.7c-1.2,1.8-2.3,3.4-3.9,4.9
				c-2.3,2.2-4,5-7,0.1c-0.4-0.6-2.3-2.8-3.1-2.6c-4.5,0.9-8.8,4.2-13.1,5.9c-4.9,1.9-9.7,4-14.6,5.8c-11,4.1-22.5,6.9-33.6,10.7
				c-10.7,3.7-22.4,4.9-33.5,7.2c-11.8,2.5-23.6,4.6-35.6,6.2c0.5-0.1,2.1,2.7,3,2.7c22,1.5,44,0.8,66,0.6
				c11.5-0.1,22.9,0.6,34.3,0.7c11.5,0,23.1-1.2,34.6-1.1c0,0,0.1,0,0.1,0c0-2.1,0-4.3-0.3-6.3c-0.1-1.1-0.6-1.3-0.5-2.6
				c0.2-3.4,2.1-1.3,4,0c3.1,2.1,6.3,4,9.6,5.8c1.4,0.8,2.8,1.6,4.2,2.3c0.8,0.4,3.7,1.5,4.1,2.1C337.4,124.9,340,126.8,339.8,126.4
				z"/>
		</g>
	</g>
</g>
</svg>
