<svg id="Layer_1" data-name="Layer 1" xmlns="http://www.w3.org/2000/svg" viewBox="0 0 218.34 38.22"><defs><style>.cls-1{fill:#fff;fill-rule:evenodd;}</style></defs><title>rs_logo_horiz_white</title><path class="cls-1" d="M393.43,983.76a29.11,29.11,0,0,0-4.58,2c-0.1.06-2,1-1.78,0.14,0.15-.49,1.19-0.8,1.57-1.06,1-.69,3-1.9,4.25-1.86a7.93,7.93,0,0,0,2.24-.64c0.68-.21,1.24.11,1.93-0.09a23.8,23.8,0,0,1,4.46-.64c1.43-.41,2.77-0.81,4.2-1.24s2.5-1.56,3.74-2.3a7.94,7.94,0,0,0,3.11-3.93,15.32,15.32,0,0,0,.93-2.64,15.7,15.7,0,0,0,.48-1.65c0.6-.94.36-2.44,0.34-3.48a11.43,11.43,0,0,0-.57-3.67,10.84,10.84,0,0,0-.68-2.16c-0.43-.69-1-1.27-1.41-1.95a30.63,30.63,0,0,0-3.91-3.74,8.17,8.17,0,0,0-3.8-2.55,19.19,19.19,0,0,0-2.26-.94,13.8,13.8,0,0,1-2.23-.63,8.59,8.59,0,0,0-3.75-1.26,8.1,8.1,0,0,1-1.72-.38c0.44-.92,3.09-0.21,3.75.05a14.67,14.67,0,0,1,2.12.91,20.58,20.58,0,0,0,2.38.73,39.55,39.55,0,0,1,4,1.81,42.54,42.54,0,0,1,3.65,3c1.37,1.14,2.32,2.59,3.53,3.78,0.95,0.94,1.1,2.61,1.49,3.82a37.44,37.44,0,0,1,.47,4c0,1-.27,2-0.25,3.08-1.19,2.39-1.29,5.12-3.36,7.06a2.41,2.41,0,0,1-1,1.09,5,5,0,0,0-1.24.65,11.13,11.13,0,0,1-2.74,1.75c-0.81.41-2.42,1.29-3.3,1.11-0.66-.14-1.46.46-2.12,0.56a3.09,3.09,0,0,1-.92.05c-0.44,0-1.06.19-1.5,0.28-0.75.16-1.5,0.12-2.26,0.29a8.54,8.54,0,0,0-3.3.59m-5.92-1.06a20.42,20.42,0,0,1,3.74-1.41,18.41,18.41,0,0,1,2.58-.69c0.62-.35,1.19-0.07,1.82-0.25a9.53,9.53,0,0,1,3.29-.61,21.17,21.17,0,0,0,3.88-.74,16,16,0,0,0,3.81-1.34c0.59-.31,1.26-0.82,1.83-1.19a7,7,0,0,0,2-1.51,10.25,10.25,0,0,0,1.78-7.1,16,16,0,0,0-2.77-8.22,6.14,6.14,0,0,0-1.21-1.8c-0.44-.71-1.33-1.06-1.86-1.74a8.56,8.56,0,0,0-2.44-1.59,10.51,10.51,0,0,0-2.46-1.07,4.88,4.88,0,0,1-1.63-.62,12.91,12.91,0,0,0-2.65-.84,36.36,36.36,0,0,0-4.26-1.25,31.91,31.91,0,0,0-4.6-.68c-0.9-.14-1.84,0-2.72-0.18a5.5,5.5,0,0,0-2.24,0c0.07,0.58,2.83.72,3.36,0.67a8.07,8.07,0,0,1,2.22.4c0.78,0.21,1.66,0,2.42.29,0.6,0.22,1.21.2,1.81,0.37,0.94,0.17,1.75.7,2.7,0.87a38.29,38.29,0,0,1,4.55,1.58,15.53,15.53,0,0,1,7.45,4.56,19.15,19.15,0,0,1,2.33,4.71c0.6,1.09,1.42,3.2,1,4.46a10.31,10.31,0,0,1-.38,4.05c0.15,1.15-1.51,2.94-2.45,3.41-1.51.75-2.89,2-4.59,2.27a15.76,15.76,0,0,1-3.91.95c-1.68.39-3.37,0.64-5.06,0.89a33.18,33.18,0,0,0-5.25,1.46c-1.56.59-3.49,0.89-4.73,2.13a10,10,0,0,1-1.72,1.12c-0.72.46-.11,1.44,0.47,0.87a10,10,0,0,1,3.84-2.26m-4.22-.9a8.16,8.16,0,0,1,1.86-1.11,1.4,1.4,0,0,0,.73-0.38,13.8,13.8,0,0,0,1.92-.73,32.74,32.74,0,0,1,3.33-1.31c1.32-.09,2.53-0.67,3.85-0.84,0.6,0,1.15-.16,1.75-0.16,0.7-.21,1.51-0.2,2.26-0.42,2.4-.69,5.38-0.71,7.27-2.51a16.12,16.12,0,0,0,2.21-3.17,3.82,3.82,0,0,0,.32-2,16,16,0,0,0,0-2.08,8.2,8.2,0,0,0-.8-4,9.5,9.5,0,0,0-1.06-1.94,21.28,21.28,0,0,0-1.8-2c-0.87-1.11-2.24-1.49-3.34-2.09-1.36-.44-2.69-1.2-4-1.68a76.24,76.24,0,0,0-9.73-2.8c-1.39-.46-3-0.29-4.44-0.51-0.56-.09-1.11-0.09-1.65-0.19-0.75-.14-1.58.11-2.33,0-2.92.79-6.68,0.57-8.87,3a8.68,8.68,0,0,0-2.36,4.23,3.82,3.82,0,0,1-.36.74c-0.24.38,0.07,1-.3,1.29a1.39,1.39,0,0,1-.55.59c-0.55.23-1,.52-1.58,0.8-3.29,1.7-6.1,3.74-6.89,7.56a10.44,10.44,0,0,0-.16,1.4,11,11,0,0,1,.31,1.56,6,6,0,0,0,1,1.58c0.53,0.83,1,1.65,1.59,2.43a11,11,0,0,0,4,3c0.29,0.24.6,0.43,0.9,0.65s0.35,0,.76.1c0.22,0,1.71.92,1.83,0.41,0.09-.36-0.91-0.61-1.13-0.65-0.66-.23-1-1-1.7-1.14a6.14,6.14,0,0,1-2.87-2c-0.31-.43-0.71-0.75-1-1.17a5.63,5.63,0,0,1-.85-1.39c-0.43-.88-1.39-1.55-1.65-2.56-0.36-2.53.63-4.61,2.25-6.54,0.68-.37,1.18-1.1,1.91-1.5a11.92,11.92,0,0,1,2-1c1.35-.8,2.9-0.93,2.91-2.7,0.13-.64.6-1.13,0.71-1.81a3.9,3.9,0,0,1,.9-1.53c0.49-.49.65-1.14,1.21-1.59a8,8,0,0,1,1.69-1.23c1.23-.88,3.08-0.84,4.48-1.16a20.67,20.67,0,0,1,4.77-.59c1.48,0.48,3.06.23,4.53,0.62,0.59,0.15,1.27,0,1.84.2a1.9,1.9,0,0,0,.89.44,4.21,4.21,0,0,1,1.36.27c1.26,0.35,2.51.78,3.79,1.1a19.22,19.22,0,0,0,2.18.8,7.65,7.65,0,0,1,2.12.72c1.15,0.84,2.78,1,4,1.76a5,5,0,0,1,1.58,1.62,10.62,10.62,0,0,1,1.91,1.88,25,25,0,0,1,1.38,4c0.21,0.53-.23,1,0,1.53a6.24,6.24,0,0,1-2.47,6,6.35,6.35,0,0,1-2.44,1.37,7.46,7.46,0,0,0-2.85.71c-1.74.79-4,.54-5.79,0.94a17.51,17.51,0,0,0-4.57,1.25,11.55,11.55,0,0,0-2.73,1,6.85,6.85,0,0,0-2.22,1,17.56,17.56,0,0,1-2.8,1.46,15.26,15.26,0,0,1-3,1.51,11.1,11.1,0,0,1-2,.45c-1.42,0,.15.58,0.75,0.58,2,0,3.55-1.52,5.35-2.06m26.21,1.28c0.61-.26,1.08-0.94,1.73-1.17a3.71,3.71,0,0,0,1.31-1.13c0.73-1.34,2.09-2.25,2.67-3.71a5.3,5.3,0,0,1,.81-1.53,8,8,0,0,0,1.05-1.86,18.84,18.84,0,0,0,.6-3.27c0-1.19.36-2.36,0.34-3.58a8.36,8.36,0,0,1-.07-1.45c0.06-.64-0.3-1.35-0.2-1.93a4.37,4.37,0,0,0-.91-2.28,5.4,5.4,0,0,0-.51-1.55,40.8,40.8,0,0,0-2.69-4.39,15.81,15.81,0,0,0-3.21-2.79,2.93,2.93,0,0,0-1.73-.93c-0.85.5,0.55,1,.91,1.4,0.92,1.14,2.45,1.78,3.38,2.93,0.35,0.63.73,1.25,1.12,1.85,0.24,0.38.57,0.63,0.79,1a3,3,0,0,0,.37.94c0.81,0.6.69,2.12,1.26,2.92,0.67,1.65.29,3.28,0.45,5-0.22,1-.09,2.14-0.37,3.17a11.42,11.42,0,0,1-1.43,4.23c-1.93,3.19-4,6.55-7.68,7.89-1.05.38-2.14,0.65-3.16,1.08s-2.3,0-3.4.48a21.71,21.71,0,0,1-2.51.55,14.84,14.84,0,0,1-2.44.53c-0.79-.06-1.71.58-2.53,0.67-0.22,0-.71.47-0.28,0.61a4,4,0,0,0,1.38-.21,24.46,24.46,0,0,1,5.72-1.11,41.12,41.12,0,0,0,4.1-.46c0.82-.26,1.58-0.55,2.4-0.87a3.14,3.14,0,0,0,1.14-.37,6.34,6.34,0,0,1,1.56-.72m8.68-4.5c0.51-1.38,1.46-2.6,1.83-4a3.8,3.8,0,0,1,.26-1.48,14.27,14.27,0,0,1,.23-1.64,13.74,13.74,0,0,0,.12-1.84,8,8,0,0,0,0-3.15c-0.29-1.12.14-2.54-.47-3.66-0.4-.73-0.26-1.68-0.68-2.41a17.22,17.22,0,0,0-.8-2.18,15.2,15.2,0,0,0-2.19-3.86c-0.32-.34-1.36-0.24-0.91.22a13,13,0,0,1,1.58,2.4c1.49,2.31,1.77,4.93,2.42,7.54,0.58,2.31.22,5.28-.09,7.57a19,19,0,0,1-3.33,7.75c-0.4.54-1,1-1.44,1.49a4.74,4.74,0,0,1-1.63,1.73,17,17,0,0,0-1.83,1.07,14.43,14.43,0,0,0-2.14,1.26c-0.14.83,2.86-.39,3.21-0.71,0.53-.48,1.18-0.78,1.74-1.26a9.66,9.66,0,0,0,2-2,19.85,19.85,0,0,0,2.13-2.81m-40.08,2.34a14,14,0,0,1-5.06.34c-0.88,0-1.74-.71-2.61-0.86A6.39,6.39,0,0,1,368,979c-2.45-1.54-5.67-3.75-5.67-7.08-0.71-1.81.68-3.06,1.49-4.43a1.67,1.67,0,0,1,1-.88,8.8,8.8,0,0,1,1.2-1.13,7.22,7.22,0,0,1,2.28-1.13c0.62-.26,2.64-0.72,2.44-1.51a4.74,4.74,0,0,1,.09-2.88c0.27-1.69,2.63-3.66,4.24-4.11a19.51,19.51,0,0,1,3.79-.84c1.3-.13,2.76.31,4,0.08,1.67-.29,3.45.74,5.12,0.61a6.87,6.87,0,0,1,2.16.38c0.8,0.25,1.65.27,2.44,0.54,1.58,0.43,3,1.25,4.55,1.67a16.55,16.55,0,0,1,3.86,1.6,12.65,12.65,0,0,1,2.51,1.6c0.67,0.39.88,1.31,1.48,1.71a1.1,1.1,0,0,1,.57,1.33,5.65,5.65,0,0,0,.54,1.74c1,2.62-.5,5.15-2.69,6.55a9.68,9.68,0,0,1-4.95,1.05,18.49,18.49,0,0,1-3.84.76A19.62,19.62,0,0,0,386,977.4c-1.39.65-2.88,1.28-4.26,2-1.18.63-2.44,1-3.64,1.54m-1.42-.44c1.88-.27,3.41-1.49,5.2-2a43.29,43.29,0,0,0,4.3-2.14,33.23,33.23,0,0,1,4.47-1.73c1.24-.4,2.53-0.5,3.75-0.89a42.24,42.24,0,0,0,7.77-1.33,4.92,4.92,0,0,0,3.38-5.49c-0.43-.87-0.29-2-0.58-2.85a6.79,6.79,0,0,0-2.06-2.06,12.68,12.68,0,0,0-1.71-1.17c-0.55-.28-1.07-0.42-1.61-0.65a10.93,10.93,0,0,0-3-1.23,19.13,19.13,0,0,0-7.06-2.19c-1.22-.32-2.55-0.18-3.73-0.52a12,12,0,0,0-3-.64c-2.21.14-4.41-.3-6.59,0.37a8.93,8.93,0,0,0-3.5,2.13c-0.63.63-1.57,2.07-1.31,3,0.11,0.42-.12,1,0,1.43s0.56,0.72.59,0.94c-0.51.88-2.16,1.11-3,1.5-1,.5-2.18.72-3,1.63-0.46.37-1.63,1.14-1.6,1.8-0.22.82-1.87,1.3-1.44,2.41a5,5,0,0,1-.06,1,9.11,9.11,0,0,0,.48,1.84,8.74,8.74,0,0,0,3.59,4.23c1,0.46,1.85,1.53,2.88,1.74a23,23,0,0,0,2.86.75,9.48,9.48,0,0,0,4.07.11m-14.68-1c-0.52-.47-0.87-0.9-1.34-1.41a4.71,4.71,0,0,0-1.1-1.23,3.3,3.3,0,0,1-1.29-1.91,5.52,5.52,0,0,0-1.31-1.74c-0.54-.47-0.65-2.46-0.48-3.12a13,13,0,0,1,1.8-3.5c0.46-.61,1.14-1,1.55-1.65a4.94,4.94,0,0,1,1.77-1.66,13.33,13.33,0,0,0,1.79-1.24c0.42-.32,1.35-0.41,1.63-0.86,0.2-.64.39-1.23,0.56-1.86a7.19,7.19,0,0,1,.89-2.11c0.22-.54.88-0.67,0.95-1.31s-1,.22-1.09.39a28.3,28.3,0,0,0-1.8,3.56,4.67,4.67,0,0,1-1.65,1.31,9.78,9.78,0,0,0-2.06,1.35,38.55,38.55,0,0,0-3.12,3.54,8.92,8.92,0,0,0-1,1.91c-0.25.44-.91,1-0.75,1.62a5.2,5.2,0,0,1-.14,1.8,7.79,7.79,0,0,0,.39,2c0.38,1,1.41,1.78,1.79,2.9a26.15,26.15,0,0,0,2.68,3.35,3.94,3.94,0,0,0,1.09,1.29c0.53,0.09.71-1.11,0.28-1.38m-3.85.35a10.18,10.18,0,0,0-1.12-1.12,1.49,1.49,0,0,1-.32-1,1.53,1.53,0,0,0-.54-0.79c-1-1-1.06-2.24-1.81-3.35a6.73,6.73,0,0,1-.37-3.43,2.72,2.72,0,0,1,.13-2,14.31,14.31,0,0,0,.71-1.51c0.33-1.29,1.42-2.29,1.92-3.49a8,8,0,0,1,1.73-1.62c0.69-.54,1.48-1,2.11-1.59s1.57-.57,2.2-1a2.78,2.78,0,0,0,.58-1.37,3.45,3.45,0,0,0,.57-1.1c-0.4-.82-1.17.35-1.36,0.7A2.65,2.65,0,0,1,361,958.6a12.19,12.19,0,0,1-1.5.92c-1.06.92-2.72,1.88-3.38,3.12-1,1.06-1.43,2.68-2.19,4-0.21,1.26-1.07,2.21-.82,3.57a14.37,14.37,0,0,0,2.1,7.25,23,23,0,0,0,1.81,3c0.07,0.13.78,1,.88,0.8,0.26-.65.58-0.74,0.21-1.35m-17.34,4.64a5.47,5.47,0,0,0-1.36-2.63c-0.22-.27-0.27-0.55-0.51-0.85a4.33,4.33,0,0,1-.67-1.13,1.93,1.93,0,0,1,0-1.09,2.71,2.71,0,0,0-.29-0.88,3,3,0,0,1-.42-1.6c0-.55-0.39-1.18-0.42-1.8-0.12-.46-0.14-0.85-0.25-1.28a23.83,23.83,0,0,1,.64-7.23,12.93,12.93,0,0,0,.45-1.92c0.15-.74.52-1.46,0.62-2.2a18.29,18.29,0,0,1,1.44-4,0.46,0.46,0,0,0-.67-0.59,8.42,8.42,0,0,0-1,2.17,23.33,23.33,0,0,0-1.59,5.55c-0.28,1.2-.91,2.89-0.62,4.12a6.72,6.72,0,0,1-.24,2.29,4.68,4.68,0,0,0,.17,1.68c0.25,1,.11,2.19.38,3.27a15,15,0,0,0,1.1,4.07c0.64,1.08,1.11,2.2,1.78,3.2,0.22,0.32.65,1.9,1.22,1.77,0.77-.18.33-0.6,0.19-0.95m3.15,0.08a6.57,6.57,0,0,0-1.7-2.77c-1-1-1.21-2.35-1.7-3.61a9.3,9.3,0,0,1-.81-2.85,19.55,19.55,0,0,1-.33-3.34c0.18-1.35-.05-2.73.25-4.09a21.77,21.77,0,0,0,.89-4.74,5.79,5.79,0,0,1,1.05-2.93c0.39-.41.67-1.12,1.08-1.46,0.16-.13,1.36-1.52.31-1.49-2.35,2.09-3.18,5.07-3.66,8.07a26.58,26.58,0,0,0-.51,8.78c0.13,0.87.1,1.75,0.27,2.61,0.36,1.09.47,2.3,0.88,3.31,0.5,1.24,1.72,2,2.26,3.27a5.46,5.46,0,0,0,.81,1.53c0.46,0.34,1.24.72,0.9-.28m10.91-4.25c-0.36-.9-0.84-1.52-1.28-2.41,0-1-1.14-1.65-1.34-2.61,0-.94-1.14-1.85-1-2.89a6.14,6.14,0,0,0-.27-1.54,3.54,3.54,0,0,1,.22-2.16,4.87,4.87,0,0,1,.26-1.26c0.18-.64.3-1.33,0.44-2,0.23-1.07,1.14-2,1.59-3,0.52-1.15,1.76-2.08,2.49-3.08a6.37,6.37,0,0,1,1.56-1.1,6.4,6.4,0,0,0,1.49-1c0.16-.58-0.92-0.12-1,0a15.86,15.86,0,0,1-1.7,1.19c-0.91.34-1.65,1.58-2.26,2.32a10.67,10.67,0,0,0-2.41,3.78,15.17,15.17,0,0,0-1.43,7.2,16,16,0,0,0,.94,3.14,13.89,13.89,0,0,1,1,2,4.53,4.53,0,0,1,.87,1.76,6.3,6.3,0,0,0,.76,1.16c0.11,0.36.29,0.78,0.4,1.16a0.93,0.93,0,0,0,.71.7c1,0.21.07-1.23,0-1.36m-17.59,3.21a16.34,16.34,0,0,0-1-1.45,10.81,10.81,0,0,1-.54-1.56c-0.45-1.05-.26-2.34-0.79-3.33-0.27-.89,0-1.81-0.23-2.7a8.67,8.67,0,0,1,.05-3.55,12.65,12.65,0,0,0-.06-2.31c0.05-1.06.53-2.41,0.32-3.45a6.33,6.33,0,0,1,.46-3.09c0.17-1.33,1.06-2.4,1.42-3.6a1,1,0,0,0-.28-1c-0.56-.23-0.63.74-0.8,1.09-0.56,1.67-1.43,3.11-1.69,4.92-0.19,1.31-.06,2.71-0.29,4s0.15,2.85-.11,4.24a11.37,11.37,0,0,0,0,3.58c0.26,1.33.29,2.78,0.69,4.09a25.34,25.34,0,0,0,1.62,4c0.36,0.41.29,1.18,0.78,1.36,0.73,0.26.64-.85,0.45-1.22m12.53-.59a5.36,5.36,0,0,0-.87-1.9,5.38,5.38,0,0,1-1-2c0-.73-0.81-1.34-0.93-2.09a7.17,7.17,0,0,1-.84-2c-0.06-.75-0.43-1.54-0.55-2.31a15.16,15.16,0,0,1-.35-2.28,11,11,0,0,1,.42-4.76,1.39,1.39,0,0,1,.09-0.65c-0.09-1.19,1-3,1.64-3.9a37.52,37.52,0,0,0,2.85-3.3c-0.55-.74-2.71,2.3-3.12,2.61a5,5,0,0,0-1.2,2.13,9.78,9.78,0,0,0-.92,2.28c0,0.71-.44,1.39-0.43,2.11,0,1.09-.26,2.09-0.15,3.21,0.1,1,.28,1.91.34,2.87,0.15,0.64,1.08,2.13.78,2.75a6.44,6.44,0,0,0,1,2.37,8.82,8.82,0,0,1,.56,1.32,8.83,8.83,0,0,0,.71,1.31,22.45,22.45,0,0,0,1.2,2.49,1.68,1.68,0,0,0,.55.94c0.81,0.23.22-1,.17-1.16m2.08-.93a7.16,7.16,0,0,1-1-1.28,13.06,13.06,0,0,0-1.09-2.19,24.1,24.1,0,0,1-1.73-3.67c-0.63-1-.33-2.46-0.43-3.55a11.24,11.24,0,0,1,.27-4c0.06-1.58,1.4-3,2.17-4.25,0.67-1.7,1.91-2.8,3-4.24a1.62,1.62,0,0,0,.68-0.79c0.07-.31-0.15-0.75-0.5-0.45a22.62,22.62,0,0,0-1.91,2.15c-0.42.79-1,1.43-1.39,2.22-0.55,1-1.35,1.81-1.93,2.75a12.24,12.24,0,0,0-1.25,4.73c-0.12.86,0.32,1.74,0.12,2.6a6.34,6.34,0,0,0,.26,2.7,11.92,11.92,0,0,1,1,2.3,31.73,31.73,0,0,1,1.36,2.87c0.19,0.29.3,0.65,0.49,0.91a5.44,5.44,0,0,0,.73,1.34,1.54,1.54,0,0,0,.77.61c0.47,0.07.58-.51,0.38-0.79m-4.75,1.75a41.86,41.86,0,0,1-2.4-4,10.22,10.22,0,0,1-.91-2,8.66,8.66,0,0,1-.63-2.18c-0.65-1.44-.64-3.21-0.93-4.75,0-.77,0-1.55.14-2.31s0.34-1.62.41-2.43a8.34,8.34,0,0,1,.58-2.08c0.56-.79.89-1.8,1.39-2.65,0.39-.65.84-1.27,1.24-1.9s1-.87.51-1.59c-0.35-.52-1,1-1.19,1.18-0.46.82-1,1.58-1.47,2.4-1.3,1.75-1.33,3.52-2.08,5.47,0.06,0.69-.28,1.36-0.28,2.06,0,1.15,0,2.26.14,3.41a17.21,17.21,0,0,0,1,4.27,11.46,11.46,0,0,0,.7,2.24,2,2,0,0,0,.42,1c0.44,0.47.52,1.07,1,1.51,0.41,0.82,1,1.45,1.38,2.29,0.23,1.29,1.74.66,1,0m-13.63.19a10.21,10.21,0,0,0-1-2.69,7.75,7.75,0,0,1-.64-3.43,3.38,3.38,0,0,0-.19-1c-0.12-.47,0-0.91-0.14-1.39a9,9,0,0,1,0-3.32,11.17,11.17,0,0,1,.09-3.44c0.08-1-.14-2.13,0-3.18,0.15-1.4.58-2.7,0.81-4.07,0.15-.44,1.15-2.82.16-2.78-0.92.69-.7,2.47-1.08,3.43a3.89,3.89,0,0,0-.47,1.66,2.41,2.41,0,0,1-.29,1c-0.07.33,0.11,0.74,0,1.11-0.15.89,0.25,1.81-.1,2.67a9.28,9.28,0,0,0,.13,1.63,14,14,0,0,1-.18,2.05,17.5,17.5,0,0,0,0,3.58c0.1,1.2.55,2.34,0.59,3.51,0.14,0.6.11,1.22,0.26,1.82a8.06,8.06,0,0,1,.58,1.89,2,2,0,0,0,.56,1.11c0.35,0.51,1.19.42,0.78-.26m45.88-6.49c-2.07,1.1-5.12,1.73-7.29.75a15.13,15.13,0,0,1-3.27-1.73c-1.46-.95-1.8-2.13-2.76-3.43a2.64,2.64,0,0,1-.5-2.79,2.37,2.37,0,0,1,1.11-1.19,4.09,4.09,0,0,1,1.16-.76,10.18,10.18,0,0,0,1.73-.82c0.67-.25,1.26-0.53,1.88-0.82a5.51,5.51,0,0,1,2.21-.52,2.67,2.67,0,0,1,1.37-.35c0.27-.08,2.09-0.57,1.71-0.77-0.58-.31-1.16-0.68-1.75-0.95-1.26-.57-1.34-1.7-1.38-3A11.84,11.84,0,0,1,374,960a6.31,6.31,0,0,0,.55-0.63,3.06,3.06,0,0,1,2.06-1c1.12,0,2.36-.36,3.48-0.11,2.71,0.62,5.57-.16,8.25.59,1.29,0.6,2.83.48,4.2,0.67a21.19,21.19,0,0,1,4.13,1.29,12.74,12.74,0,0,1,4,1.9,3.59,3.59,0,0,1,1.19.88,7.86,7.86,0,0,0,.82,1,5.71,5.71,0,0,1,.68,1.46,8.73,8.73,0,0,0,.15,1.3c0.25,0.67-1.11,2.59-1.69,2.89a7.85,7.85,0,0,1-3.25,1.07c-1.21,0-2.38.57-3.6,0.61-0.62.21-1.23,0.06-1.82,0.21a5.81,5.81,0,0,1-1.91.5,9.64,9.64,0,0,0-4,1.13,17.09,17.09,0,0,0-4,1.86c-1.17.77-2.6,1.1-3.81,1.82m12-5.25c0.05-.14,0-0.21-0.17-0.22-0.17.21,0,.3,0.17,0.22m-12.91-13.74c-0.06.06-.08,0.1,0,0.11s0-.09,0-0.11m-0.56.11s-0.09.06,0,.1,0.14-.08,0-0.1m-0.69,18.91c1.53-.48,2.85-1.48,4.34-2,1.28-.48,2.46-1.42,3.78-1.79a19,19,0,0,1,4.13-1.52,21.06,21.06,0,0,0,3.74-.76,28.28,28.28,0,0,0,7.11-1.43,3.36,3.36,0,0,0,1-5.86,23.17,23.17,0,0,0-8.07-3.42,17.22,17.22,0,0,0-4-.72,26.1,26.1,0,0,0-3.61-.7c-0.4,0-.87.25-1.25,0.18a2.17,2.17,0,0,0-.83-0.16,5,5,0,0,1-1.7-.12,6.5,6.5,0,0,0-2-.1c-0.77,0-1.52,0-2.31,0-1.2,0-2.94.77-3.15,2.1-0.44,1.61.81,2.27,2.06,3a7.43,7.43,0,0,0,2.34.35,3.24,3.24,0,0,0,1.16.22,2.12,2.12,0,0,1,.52-0.15c0.81,0.19.09,0.8-.26,0.86-0.64.21-1.38,0.17-2.06,0.35a10,10,0,0,1-2.82.55,8.06,8.06,0,0,0-2,.56,30.84,30.84,0,0,0-4.19,1.65c-0.74.3-2.92,1.34-3,2.27a5.27,5.27,0,0,0,1.52,3.94,9.31,9.31,0,0,0,9.55,2.72m45-2c1.1-4.76,1.9-9.33.49-14.09a15.49,15.49,0,0,0-1-2.89,0.47,0.47,0,0,0-.84-0.07,4.22,4.22,0,0,0,.52,1.2,14,14,0,0,1,1.43,6.13,39.11,39.11,0,0,1-.37,5.53c-0.49,2-.55,4.8-1.84,6.51-0.54.9-1.16,1.81-1.67,2.72-0.17.25-1.18,1.09-1.09,1.34,0.26,0.68.78,0,1.09-.16,0.88-.6,1.38-2.16,2-3a13.89,13.89,0,0,0,1.33-3.22m-92.32-15.25c-0.35-.91-0.66.12-0.72,0.41a13.2,13.2,0,0,1-.89,2.26c0,0.72-.23,1.48-0.17,2.19a15.33,15.33,0,0,1-.07,3,12.84,12.84,0,0,0-.06,3.34,16.82,16.82,0,0,0,.14,2.25c-0.06,1,.3,2.06.32,3.1s0.09,2.11.09,3.15a5.29,5.29,0,0,0,.23,1.9,4,4,0,0,1,.3,1c0.25,0.61.75,0.22,0.71-.29a12.25,12.25,0,0,0-.33-2.79,0.9,0.9,0,0,1-.08-1,10.36,10.36,0,0,0-.13-1.33c0.32-1.59-.45-3.15-0.38-4.86-0.26-1.09.23-2.27,0-3.38a16.18,16.18,0,0,1,0-2.47,9.35,9.35,0,0,1,.34-3.8c0.38-.81,1-1.91.68-2.78M379.13,974c-0.71.53-1.91,1.73-2.92,1.48s-2.22.14-3.16-.21c-1.29-.49-5.22-1.38-3.93-3.54a1.5,1.5,0,0,1,.7-1,4.32,4.32,0,0,0,1.22-.64c0.43-.18.79-0.59,1.21-0.74a18.4,18.4,0,0,1,1.84-.49c1-.33,2.1-0.4,3.08-0.78a11.9,11.9,0,0,1,3.93-.61,16.79,16.79,0,0,0,2.26-.25,12,12,0,0,0,2.16-.25c0.76-.14,3.95-0.27,2.35-1.68a9.72,9.72,0,0,0-4.3-2.21c-1.42-.36-2.86-1.29-4.34-1.29-0.52,0-1.47.19-1.85-.24-0.52-.59,1.36-0.44,1.42-0.43,1.17,0.3,2.58.07,3.82,0.24a41.58,41.58,0,0,1,9.08,2,47.78,47.78,0,0,1,5,1.42c1.22,0.78,2.81,1,3.89,2,1.47,1.36-1.07,1.6-1.85,1.85s-1.28,0-2,.27c-0.66,0-1.25.31-1.88,0.3a17.77,17.77,0,0,0-4.89.68,8.27,8.27,0,0,1-1.4.12,10.57,10.57,0,0,1-1.77.36,22,22,0,0,0-4.1,1.28,37,37,0,0,0-3.57,2.35m-0.67-.33a8.88,8.88,0,0,0,1.83-1.22,5.17,5.17,0,0,1,1.81-1.22,13.84,13.84,0,0,1,5.06-1.47,22.83,22.83,0,0,1,3.69-.66c0.73,0,1.46-.29,2.18-0.28a10.42,10.42,0,0,1,1.72-.25,2.54,2.54,0,0,1,1.2-.18,4.65,4.65,0,0,1,2.07-.44,2.1,2.1,0,0,0,1.22-.09c0.8-.45,1.23-0.91.14-1.4a32.83,32.83,0,0,1-3.07-1.32c-0.75-.42-1.74-0.34-2.45-0.8-0.91-.59-2.35-0.44-3.35-0.85s-2.19-.49-3.17-1c-0.78-.24-1.6-0.15-2.35-0.42a6.39,6.39,0,0,0-2.9-.14,2.78,2.78,0,0,0,1.11.37,6.34,6.34,0,0,1,2.13.68c1.18,0.67,2.65,1,3.35,2.22a1.15,1.15,0,0,1,.44,1.21,2.74,2.74,0,0,1-1,1.07,7.47,7.47,0,0,1-3.44.54c-1.3.27-2.79-.06-4,0.32a14.87,14.87,0,0,1-2.57.49,23,23,0,0,1-2.66.64,9,9,0,0,0-2.09.52c-0.44.29-3.65,2.23-3.32,2.94,1.69,2.12,6.51,2.85,8.46.75m-52.24-10.47a5.27,5.27,0,0,0-.52,1.52,15,15,0,0,0-.44,2.57c-0.29,1.26.36,2.69,0,3.93a4.48,4.48,0,0,0-.11,2.11,6.53,6.53,0,0,1,.21,2.34,6.23,6.23,0,0,0,.62,3.19c0.68,0.89.62-.45,0.49-0.91-0.18-.65,0-1.25-0.11-1.88a41.17,41.17,0,0,1-.36-4.5,34.08,34.08,0,0,1,0-4.22,14.67,14.67,0,0,1,.53-2.49c0.18-.47.64-1.69-0.34-1.66m100.55,4.39a13.23,13.23,0,0,0-1.5-4.69c-0.21-.41-0.29-1.31-0.92-1.13-0.35.24,0.44,1.57,0.51,1.92,0.18,0.66.44,1.28,0.67,1.91,0,0.49.62,1.34,0.48,1.79a7.7,7.7,0,0,0,0,1.48,28.32,28.32,0,0,0-.62,2.91c-0.6,1.32-.5,3-1.23,4.26-0.49.54-.92,1.19-1.35,1.77a3.6,3.6,0,0,0-.69.91,0.44,0.44,0,0,0,.8.06c0.41-.7,1.12-1.14,1.56-1.82a14.21,14.21,0,0,0,1.43-3.27,16.13,16.13,0,0,0,.83-6.11m-102.29,7.34a10.49,10.49,0,0,1-.44-2,7.23,7.23,0,0,1-.22-2.31,3.39,3.39,0,0,0,.31-1.37,1.48,1.48,0,0,1,0-1.16c0.11-.49-0.49-0.6-0.63-0.13s-0.27.76-.35,1.13c0.13,1.29-.45,2.84-0.09,4.13,0.09,0.33.28,0.58,0.36,0.87a7.63,7.63,0,0,0,.13,1.47c0.48,1.1,1.39.17,0.88-.59m-91.72-19.2c0,0.08.2,0.13,0.2,0.13,5.85,1.38,7.55,2.31,8.2,2.66,2.69,1.47-.31,1.72-3.29,2.13-2.6.36-17.28,2.22-12,5a17.63,17.63,0,0,0,3.11,1.25c2.23,0.67,3.13.19,3.72-.19,8.56-5.45,16.56-5.24,18.62-5.67s-0.44-1.92-6.94-3.61a56.6,56.6,0,0,0-11.39-1.7c-0.19,0-.2,0-0.2.05m32,10.8a0.18,0.18,0,0,0,.17.24h2.26a0.41,0.41,0,0,0,.37-0.26l1-3.38h1.81l1.11,2.91a1.09,1.09,0,0,0,1.08.74h1.83a0.19,0.19,0,0,0,.18-0.25l-1.48-3.87,0.1,0c2.12-.66,3.11-1.76,3.3-3.66a2.28,2.28,0,0,0-.51-1.86c-0.64-.7-1.85-1-3.71-1h-3c-1.11,0-1.4.29-1.56,0.8Zm6.87-8.42a2.46,2.46,0,0,1,1.83.45,1,1,0,0,1,.21.77c-0.17,1.74-1.33,1.74-2.67,1.74h-1.75l0.92-3h1.47Zm20,8.8c4.38,0,5.54-1.35,6.63-5.17l0.55-2a2.76,2.76,0,0,0-.38-2.49,4.14,4.14,0,0,0-3.34-1.39h-0.16c-3.81,0-5.54,1.35-6.63,5.17l-0.55,2a2.77,2.77,0,0,0,.38,2.49,4.14,4.14,0,0,0,3.34,1.4h0.16Zm2.68-8.72h0c1,0,1.56.39,1.64,1.11a2.63,2.63,0,0,1-.09.73l-0.49,1.76c-0.55,1.93-1.51,2.8-3.11,2.83-1,0-1.56-.39-1.64-1.11a2.46,2.46,0,0,1,.08-0.73l0.49-1.76c0.55-1.93,1.51-2.8,3.11-2.83h0Zm6.09,8.57a0.41,0.41,0,0,0,.36-0.26l1.33-4.28a0.39,0.39,0,0,1,.33.21l1.88,3.66a1.24,1.24,0,0,0,1.1.67h2a0.18,0.18,0,0,0,.16-0.25l-2.38-4.65a0.28,0.28,0,0,1,.06-0.33l5.71-5.26a0.13,0.13,0,0,0-.09-0.22h-2.31a1.48,1.48,0,0,0-1,.43l-4.51,4.22a0.66,0.66,0,0,1-.45.18l1.41-4.58a0.19,0.19,0,0,0-.18-0.25h-2.26a0.36,0.36,0,0,0-.34.25l-3.17,10.24a0.18,0.18,0,0,0,.17.23h2.27Zm17.25-8.62a2.1,2.1,0,0,0,2.17-1.83,0.23,0.23,0,0,0-.22-0.27h-3.51c-3.11,0-5.09.56-5.39,3.33a2,2,0,0,0,1.48,2.08l1.88,0.68a1.15,1.15,0,0,1,.92,1.12c-0.09,1-.78,1.44-2,1.44h-2.33a2.07,2.07,0,0,0-2.14,1.81,0.25,0.25,0,0,0,.25.28h3.55c3.14,0,5.3-.61,5.66-3.58a2.11,2.11,0,0,0-1.51-2.34l-1.9-.69c-0.64-.26-1-0.47-0.92-0.88,0.09-1,.9-1.14,1.76-1.14h2.3m-37.29,8.77c4.38,0,5.54-1.35,6.63-5.17l0.55-2a2.76,2.76,0,0,0-.38-2.49,4.14,4.14,0,0,0-3.34-1.39h-0.16c-3.81,0-5.54,1.35-6.63,5.17l-0.55,2a2.76,2.76,0,0,0,.38,2.49,4.14,4.14,0,0,0,3.34,1.4h0.16Zm2.67-8.72h0c1,0,1.56.39,1.64,1.11a2.64,2.64,0,0,1-.08.73l-0.49,1.76c-0.55,1.93-1.51,2.8-3.11,2.83-1,0-1.55-.39-1.64-1.11a2.5,2.5,0,0,1,.09-0.73l0.49-1.76c0.55-1.93,1.51-2.8,3.11-2.83h0ZM258.47,956c-1.11,0-1.4.29-1.56,0.8l-2.76,8.91a0.87,0.87,0,0,0,.12.83,2.55,2.55,0,0,0,1.37.18h2.49c3.08,0,6,0,6.32-3.48a2,2,0,0,0-.93-1.91l-0.16-.09,0.17-.07c1.51-.61,2.11-1.31,2.24-2.6a1.93,1.93,0,0,0-.47-1.54,4.5,4.5,0,0,0-3.36-1h-3.48Zm-1.59,8.65,0.77-2.47h2a1.87,1.87,0,0,1,1.39.37,1,1,0,0,1,.24.81c-0.11,1.38-1.36,1.29-2.4,1.29h-2Zm2.43-6.58h1.41c1.2,0,1.81,0,2.08.34a0.78,0.78,0,0,1,.16.64c-0.13,1.09-1,1.24-2.31,1.24h-2Zm-41.49,16.16c0.23-1.79-1.12-2.57-3.2-2.57-0.69,0-1.93,0-2.57.12a0.44,0.44,0,0,0-.45.32l-3.1,10.1c-0.06.2,0,.29,0.16,0.29h0.78a0.36,0.36,0,0,0,.36-0.29L211.1,978c0.36,0,1.11,0,1.58,0h0.45l1.25,4.3c0,0.19.09,0.19,0.26,0.19h1a0.16,0.16,0,0,0,.18-0.14,0.27,0.27,0,0,0,0-.13l-1.3-4.43a3.86,3.86,0,0,0,3.17-2.92l0-.1A3.65,3.65,0,0,0,217.82,974.26Zm-1.31.06a3.07,3.07,0,0,1-.11.48l0,0.1c-0.41,1.5-1.72,2-3.35,2-0.65,0-1.22,0-1.58,0l1.21-4c0.35,0,1.15,0,1.61,0C215.93,972.88,216.67,973.18,216.52,974.32ZM227,971.8a0.33,0.33,0,0,0-.35.27l-2,6.55c-0.58,1.86-1.46,2.87-3.25,2.87-1.41,0-1.89-.64-1.74-1.83a6.07,6.07,0,0,1,.25-1l2-6.55a0.18,0.18,0,0,0-.19-0.27H221a0.35,0.35,0,0,0-.35.27l-2,6.55a6,6,0,0,0-.24,1.05c-0.26,2,.8,2.94,2.7,2.94,2.47,0,4-1.15,4.93-4l2-6.55c0.07-.22,0-0.27-0.19-0.27H227Zm6.89,8.64a0.16,0.16,0,0,1-.06.12,0.15,0.15,0,0,1,0-.12l-1.91-8.36c0-.22-0.09-0.29-0.5-0.29H230.7a0.51,0.51,0,0,0-.54.4L227,982.34c0,0.13,0,.17.12,0.17H228a0.4,0.4,0,0,0,.34-0.27l2.59-8.43a0,0,0,0,1,0,0l0,0,1.92,8.47c0,0.14.09,0.23,0.39,0.23h0.84a0.49,0.49,0,0,0,.55-0.42l3.09-10V972a0.18,0.18,0,0,0-.19-0.22h-0.76a0.33,0.33,0,0,0-.34.27ZM246,971.69c-2,0-3.8.72-4.07,2.73a2.62,2.62,0,0,0,1.24,2.53l1.14,0.85c0.92,0.69,1.25,1,1.16,1.73-0.18,1.37-1.22,1.91-2.77,1.91-0.66,0-1.71,0-2.36-.09a0.26,0.26,0,0,0-.36.23l-0.18.58c-0.05.17,0,.23,0.2,0.26a17,17,0,0,0,2.43.2c2.31,0,4.16-1.05,4.43-3.09,0.14-1.05-.24-1.82-1.46-2.71l-1.08-.79c-0.87-.63-1.16-1-1.06-1.67,0.17-1.27,1.42-1.47,2.59-1.47,0.84,0,1.84,0,2.47.09a0.26,0.26,0,0,0,.35-0.23l0.18-.62c0.05-.17,0-0.22-0.17-0.24A22.08,22.08,0,0,0,246,971.69Zm5.48,0.1a0.33,0.33,0,0,0-.34.27l-3.12,10.16c0,0.14,0,.29.16,0.29H249a0.33,0.33,0,0,0,.36-0.29l3.12-10.16c0.05-.19,0-0.27-0.18-0.27h-0.79Zm6.77-.1c-1.93,0-4.13.82-5.25,4.5l-0.59,1.93a6.43,6.43,0,0,0-.24,1.1c-0.32,2.41,1.07,3.39,2.6,3.39a17.51,17.51,0,0,0,2.93-.22,0.48,0.48,0,0,0,.36-0.32l1.5-4.85v0a0.2,0.2,0,0,0-.2-0.25h-0.78a0.38,0.38,0,0,0-.34.29L257,981.36c-0.35,0-1,.09-1.84.09-1.11,0-1.87-.56-1.66-2.18a7.56,7.56,0,0,1,.26-1.14l0.59-1.93c0.79-2.63,2.3-3.32,3.58-3.32s1.89,0,2.71.1c0.16,0,.25,0,0.28-0.14l0.22-.72c0-.14,0-0.2-0.17-0.22A15.56,15.56,0,0,0,258.28,971.69Zm8.85,8.75a0.16,0.16,0,0,1-.06.12,0.15,0.15,0,0,1,0-.12l-1.91-8.36c0-.22-0.09-0.29-0.5-0.29h-0.71a0.51,0.51,0,0,0-.54.4l-3.12,10.14c0,0.13,0,.17.12,0.17h0.84a0.4,0.4,0,0,0,.34-0.27l2.59-8.43a0,0,0,0,1,0,0l0,0,1.92,8.47c0,0.14.09,0.23,0.39,0.23h0.84a0.49,0.49,0,0,0,.55-0.42l3.09-10V972a0.18,0.18,0,0,0-.19-0.22H270a0.33,0.33,0,0,0-.34.27Zm10.85,1.8v-0.06l0.22-9.41a1,1,0,0,0-1.13-1.08,2,2,0,0,0-1.8,1.1l-5.56,9.39a0.31,0.31,0,0,0,0,.14,0.15,0.15,0,0,0,.18.19h0.88a0.36,0.36,0,0,0,.33-0.22L273,979h3.74l-0.07,3.32a0.18,0.18,0,0,0,.17.22h0.87A0.27,0.27,0,0,0,278,982.24Zm-1.17-4.4h-3.19l2.77-4.75a0.43,0.43,0,0,1,.37-0.26,0.2,0.2,0,0,1,.2.26Zm7.93-4.92h2.81a0.3,0.3,0,0,0,.35-0.23l0.2-.63c0.07-.2,0-0.26-0.2-0.26H281a0.35,0.35,0,0,0-.37.26l-0.2.63c-0.05.19,0.06,0.23,0.21,0.23h2.81l-2.85,9.31a0.19,0.19,0,0,0,.16.29h0.79a0.4,0.4,0,0,0,.36-0.29Zm11.07-1.13a0.33,0.33,0,0,0-.35.27l-2,6.55c-0.58,1.86-1.46,2.87-3.25,2.87-1.41,0-1.89-.64-1.74-1.83a6.07,6.07,0,0,1,.25-1l2-6.55a0.18,0.18,0,0,0-.19-0.27h-0.78a0.35,0.35,0,0,0-.35.27l-2,6.55a6,6,0,0,0-.24,1.05c-0.26,2,.8,2.94,2.7,2.94,2.47,0,4-1.15,4.93-4l2-6.55c0.07-.22,0-0.27-0.19-0.27h-0.78Zm9.66,2.47c0.23-1.79-1.12-2.57-3.2-2.57-0.69,0-1.93,0-2.57.12a0.44,0.44,0,0,0-.45.32l-3.1,10.1c-0.05.2,0,.29,0.16,0.29h0.78a0.36,0.36,0,0,0,.36-0.29l1.29-4.24c0.36,0,1.11,0,1.58,0h0.45l1.25,4.3c0,0.19.09,0.19,0.26,0.19h1a0.16,0.16,0,0,0,.18-0.14,0.27,0.27,0,0,0,0-.13l-1.3-4.43a3.86,3.86,0,0,0,3.17-2.92l0-.1A3.66,3.66,0,0,0,305.48,974.26Zm-1.31.06a3.07,3.07,0,0,1-.11.48l0,0.1c-0.41,1.5-1.72,2-3.35,2-0.65,0-1.22,0-1.58,0l1.21-4c0.35,0,1.15,0,1.61,0C303.58,972.88,304.32,973.18,304.17,974.32Zm7.55-1.44h2.79a0.19,0.19,0,0,0,.21-0.17l0.22-.68c0-.14,0-0.19-0.09-0.2a17.64,17.64,0,0,0-2.78-.13c-2,0-3.25.56-3.9,2.68l-1.69,5.56a3.26,3.26,0,0,0-.14.61c-0.18,1.4.74,2.08,2.38,2.08,0.85,0,2.42-.06,2.84-0.1a0.23,0.23,0,0,0,.2-0.2l0.22-.71c0-.14,0-0.17-0.15-0.17h-2.74c-1.21,0-1.54-.26-1.45-0.91a3.56,3.56,0,0,1,.15-0.59l0.74-2.42h4.43a0.36,0.36,0,0,0,.38-0.29l0.16-.55c0.06-.22,0-0.29-0.19-0.29h-4.43l0.61-2C309.8,973.28,310.19,972.88,311.72,972.88Z" transform="translate(-208.49 -948.64)"/></svg>