<?xml version="1.0" encoding="utf-8"?>
<!-- Generator: Adobe Illustrator 19.2.1, SVG Export Plug-In . SVG Version: 6.00 Build 0)  -->
<svg version="1.1" id="Layer_1" xmlns="http://www.w3.org/2000/svg" xmlns:xlink="http://www.w3.org/1999/xlink" x="0px" y="0px"
	 viewBox="0 0 214.8 40" style="enable-background:new 0 0 214.8 40;" xml:space="preserve">
<style type="text/css">
	.st0{clip-path:url(#SVGID_2_);enable-background:new    ;}
	.st1{clip-path:url(#SVGID_4_);}
	.st2{clip-path:url(#SVGID_6_);}
	.st3{clip-path:url(#SVGID_10_);enable-background:new    ;}
	.st4{clip-path:url(#SVGID_12_);}
	.st5{clip-path:url(#SVGID_14_);}
	.st6{clip-path:url(#SVGID_18_);enable-background:new    ;}
	.st7{clip-path:url(#SVGID_20_);}
	.st8{clip-path:url(#SVGID_22_);}
	.st9{clip-path:url(#SVGID_26_);enable-background:new    ;}
	.st10{clip-path:url(#SVGID_28_);}
	.st11{clip-path:url(#SVGID_30_);}
	.st12{fill:#00A1F9;}
</style>
<g>
	<defs>
		<rect id="SVGID_1_" x="-609.2" y="-859" width="1440" height="1759"/>
	</defs>
	<clipPath id="SVGID_2_">
		<use xlink:href="#SVGID_1_"  style="overflow:visible;"/>
	</clipPath>
</g>
<g>
	<defs>
		<rect id="SVGID_17_" x="-609.2" y="-859" width="1440" height="1759"/>
	</defs>
	<clipPath id="SVGID_4_">
		<use xlink:href="#SVGID_17_"  style="overflow:visible;"/>
	</clipPath>
</g>
<g>
	<path class="st12" d="M38.8,4.3l-0.2,9.3c0,0.6-0.1,1.3-0.1,1.9c0,0.2,0,0.5,0,0.7c0,0.2,0,0.3-0.1,0.5c-0.1,0.4-0.4,0.6-0.8,0.6
		c-0.4,0-0.7-0.2-0.8-0.6c-0.1-0.4-0.1-0.8-0.1-1.2c0-3.5,0.1-7.1,0.3-10.6l0.1-1.2c-0.2,0-0.5,0-0.7,0h-0.7c-0.4,0-0.7,0-1.1-0.2
		c-0.3-0.1-0.5-0.3-0.5-0.7V2.6c0-0.4,0.2-0.6,0.6-0.7c0.1,0,0.2,0,0.4,0c0.6,0,1.2,0,1.7,0c2.4,0,4.8-0.1,7.2-0.1h0.7
		c0.4,0,0.9,0,1.3,0.1c0.2,0,0.3,0,0.4,0.1c0.4,0.1,0.6,0.4,0.6,0.7c0,0.4-0.2,0.7-0.6,0.8c-0.3,0.1-0.5,0.1-0.8,0.1
		c-2,0-4.1,0-6.1,0h-0.9L38.8,4.3z M42.2,10.4c1,0,2-0.1,3-0.2L45.2,8l0.1-2.7c0-0.6,0.3-0.9,0.8-0.9c0,0,0.1,0,0.2,0
		c0.4,0.1,0.6,0.3,0.6,0.6c0,0.2,0,0.4,0,0.5v0.5c0,1.5-0.1,2.9-0.1,4.4c0,0.7,0,1.5,0,2.3c0,1.1,0,2.3,0,3.4c0,0.1,0,0.1,0,0.2v0.1
		c0,0.4-0.3,0.7-0.7,0.7h-0.1c-0.4,0-0.6-0.2-0.7-0.6c0-0.2,0-0.4-0.1-0.6c0-0.5,0-1,0-1.5c0-0.6,0-1.2,0-1.8V12c-0.3,0-0.6,0-0.8,0
		c-0.9,0-1.8,0.1-2.6,0.1c-0.1,0.1-0.1,0.2-0.1,0.3v0.2v3.6c0,0.1,0,0.3-0.1,0.4c0,0.4-0.3,0.7-0.7,0.7h-0.1c-0.4,0-0.6-0.2-0.8-0.6
		c0-0.2,0-0.3,0-0.5c0.2-3.5,0-7.1,0.2-10.6c0-0.3,0.1-0.5,0.2-0.8c0.1-0.3,0.3-0.4,0.6-0.4h0.1c0.4,0,0.6,0.2,0.6,0.6
		c0,0.1,0,0.2,0,0.3v0.6v4c-0.1,0.2-0.1,0.4-0.1,0.6H42.2z M49.9,6.6c0,0.6,0,1.1,0,1.7c0,0,0.1,0.1,0.3,0.1c0.2,0,0.4,0,0.6,0
		c0.1,0,0.1,0,0.2,0c0.3,0,0.6,0.1,0.7,0.4c0,0.2,0.1,0.3,0.1,0.5c0,0.2,0,0.4-0.1,0.6c-0.1,0.2-0.4,0.2-0.6,0.2
		c-0.4,0-0.7,0-1.1,0.1v5.4l1.6,0.1c0.1,0,0.2,0,0.2,0h0.2c0.2,0,0.4,0.2,0.4,0.4c0,0.1,0,0.2,0,0.2c0,0.4-0.2,0.7-0.7,0.8
		c-0.5,0.1-1,0.1-1.5,0.1c-0.4,0-0.8,0-1.2,0c-0.4,0-0.7-0.3-0.7-0.7c0-0.1,0-0.2,0-0.4c0-3-0.1-5.8-0.1-8.8c0-0.8,0-1.6,0-2.5
		c0-0.7,0.1-1.3,0.1-2c0-0.6,0.3-0.9,0.9-1c0.5-0.1,1.1-0.1,1.6-0.1c0.4,0,0.7,0,1.1,0c0.4,0,0.6,0.3,0.6,0.7v0.1
		c0,0.4-0.2,0.6-0.6,0.7c-0.2,0-0.4,0-0.6,0.1c-0.4,0-0.8,0-1.3,0.1C49.9,4.6,49.9,5.6,49.9,6.6z"/>
	<path class="st12" d="M55.4,14l-0.2,2.3c0,0.2-0.1,0.5-0.2,0.7c-0.2,0.2-0.4,0.4-0.6,0.4c0,0-0.1,0-0.1,0c-0.3-0.1-0.5-0.3-0.5-0.6
		c0-0.1,0-0.2,0-0.4v-0.1c0.1-0.5,0.1-1.1,0.1-1.6c0-1,0-2,0-3V6.4c0-0.9,0.1-1.9,0.1-2.8V3.2c0-0.2,0-0.4,0.1-0.6
		c0.1-0.4,0.4-0.7,0.9-0.7c0.3,0,0.6-0.1,0.8-0.1c0.4,0,0.9,0.1,1.3,0.2c0.8,0.3,1.3,0.9,1.5,1.7c0.2,0.7,0.3,1.5,0.3,2.2
		c0,0.5-0.1,1.1-0.2,1.7c-0.1,0.6-0.4,1.1-0.9,1.4c-0.4,0.3-0.8,0.6-1.3,0.8c0,0,0,0.1,0,0.1c0,0.1,0.1,0.2,0.1,0.3
		c0.4,1.1,0.7,2.2,0.9,3.3l0.1,0.4c0.1,0.3,0.2,0.7,0.3,1c0.4,1,1.1,1.4,2.1,1.4c0.1,0,0.2,0,0.4,0c0.1,0,0.3,0,0.4,0
		c0.1,0,0.2,0,0.4,0c0.2,0.1,0.3,0.2,0.3,0.4c0,0.3-0.2,0.6-0.5,0.7c-0.4,0.2-0.8,0.3-1.3,0.3c-0.4,0-0.7-0.1-1.1-0.2
		c-0.9-0.2-1.6-0.8-2-1.7c-0.3-0.7-0.5-1.6-0.6-2.4c0-0.2-0.1-0.3-0.2-0.5L55.4,14z M55.3,8.2c0.1,0,0.2,0,0.3,0
		c0.9,0,1.5-0.9,1.5-1.6V6.4c0-0.2,0-0.4,0-0.6c0-0.6-0.1-1.1-0.2-1.7c-0.1-0.5-0.5-0.8-1-0.8c-0.2,0-0.5,0.1-0.7,0.2
		c0,0.9,0,1.9,0,2.8c0,0.6,0,1.2,0,1.7C55.2,8.2,55.3,8.2,55.3,8.2z M61.3,5.5c0,0.2,0,0.4,0,0.5c0,0.6,0,1.2,0,1.8
		c0.2,0,0.4,0,0.5,0c0.1,0,0.2,0,0.3,0c0.2,0,0.5,0.1,0.5,0.4c0,0.1,0,0.2,0,0.4c0,0.2,0,0.4-0.2,0.6c-0.2,0.2-0.4,0.2-0.7,0.3
		c-0.2,0-0.3,0-0.5,0v4.5C61.7,14,62,14,62.4,14c0.5,0,0.7,0.2,0.7,0.5v0.1c0,0.3-0.2,0.6-0.6,0.7c-0.2,0-0.4,0.1-0.6,0.1h-0.1
		c-0.4,0-0.8,0-1.3,0c-0.6,0-0.8-0.2-0.9-0.8v-0.2c0-2.6-0.1-5-0.1-7.5c0-0.8,0-1.6,0-2.4c0-0.5,0-1.1,0.1-1.7
		c0-0.5,0.2-0.7,0.8-0.9c0.4-0.1,0.8-0.2,1.2-0.2c0.2,0,0.4,0,0.7,0c0.6,0.1,0.9,0.4,0.9,0.9v0.1c0,0.4-0.2,0.6-0.6,0.7
		c-0.2,0-0.3,0-0.5,0c-0.3,0-0.5,0-0.8-0.1V5.5z"/>
	<path class="st12" d="M70.1,9.4c0,1.1,0,2.2,0,3.2c0,1.3,0,2.6,0.1,3.8v0.4c0,0.2-0.1,0.4-0.3,0.4c-0.2,0.1-0.5,0.1-0.8,0.1
		c-0.3,0-0.6-0.3-0.6-0.7c0-0.5-0.1-1.1-0.1-1.6c-0.1-2-0.1-3.9-0.1-5.9V6.9c0-1.4,0.1-2.8,0.1-4.1c0-0.6,0.3-0.9,0.9-0.9h0
		C69.8,1.8,70,2,70,2.4v0.2c0,2.1,0.1,4.1,0.1,6.1V9.4z"/>
	<path class="st12" d="M72.9,17.4c-0.5-0.1-0.8-0.4-1.1-0.7c-0.1-0.2-0.2-0.4-0.2-0.6c0-0.2,0-0.3,0.1-0.4c0.1-0.2,0.4-0.4,0.7-0.4
		c0.1,0,0.1,0,0.2,0c0.5,0.1,1.2,0.4,1.8,0.4c0.4,0,0.7-0.1,0.9-0.4c0.5-0.5,0.7-1.5,0.8-2.2c0-0.2,0-0.3,0-0.5c0-0.2,0-0.5-0.1-0.7
		C76,11.3,75.4,10.7,75,10c-0.5-0.7-1-1.4-1.6-2.1c-0.7-0.7-1.1-1.8-1.1-2.9c0-1.1,0.4-2.2,1.3-2.9c0.6-0.4,1.2-0.6,1.8-0.6
		c0.3,0,0.5,0,0.8,0.1c0.5,0.1,0.9,0.6,1.2,1c0.1,0.1,0.1,0.2,0.1,0.4c0,0.4-0.1,0.7-0.4,0.9c-0.1,0.1-0.3,0.2-0.4,0.2
		c-0.1,0-0.3,0-0.4-0.1C76.1,4,76,3.9,75.8,3.7c-0.2-0.2-0.3-0.2-0.5-0.2c-0.4,0-0.7,0.6-0.8,1.1c0,0.1,0,0.2,0,0.3
		c0,0.8,0.5,1.6,0.9,2.3c0.6,1,1.3,2,1.8,3.1c0.3,0.6,0.5,1.3,0.6,1.9c0,0.3,0.1,0.6,0.1,0.9c0,0.4,0,0.8-0.1,1.2
		c-0.1,0.6-0.4,1.3-0.7,1.8c-0.6,1-1.7,1.4-2.9,1.4C73.8,17.6,73.3,17.5,72.9,17.4z"/>
	<path class="st12" d="M83.1,8.4c0-1.1,0.1-2.4,0.5-3.7C83.7,4,84,3.5,84.4,2.9c0.6-0.8,1.4-1.2,2.3-1.2c0.7,0,1.4,0.3,2,0.9
		c0.9,1,1.5,2.2,1.8,3.5c0.2,0.9,0.3,1.8,0.3,2.7c0,0.7,0,1.5-0.1,2.2c-0.1,1.3-0.4,2.6-0.9,3.8c-0.3,0.6-0.6,1.2-1,1.7
		c-0.1,0.1-0.2,0.2-0.4,0.4c-0.6,0.5-1.1,0.7-1.6,0.7c-0.6,0-1.3-0.4-1.8-1.1c-0.8-1.2-1.3-2.6-1.6-4c-0.2-1-0.3-2-0.3-3.2V8.4z
		 M87.2,15.2c1.3-1.9,1.9-3.9,1.9-5.9c0-1.4-0.3-2.9-1-4.4c-0.2-0.4-0.4-0.7-0.7-1c-0.2-0.2-0.4-0.3-0.6-0.3c-0.2,0-0.4,0.1-0.7,0.4
		c-0.2,0.2-0.4,0.5-0.5,0.8c-0.2,0.5-0.4,1-0.5,1.5c-0.2,1-0.2,2-0.2,3c0,0.9,0.1,1.8,0.2,2.6c0.1,1,0.4,1.9,0.8,2.8
		c0.2,0.4,0.5,0.7,0.9,0.9C86.8,15.6,87.2,15.4,87.2,15.2z"/>
	<path class="st12" d="M95,11.5c-0.3-1-0.6-2.1-0.9-3.2c0-0.1-0.1-0.2-0.2-0.3c0,0.6-0.1,1.2-0.1,1.8c0,2.1-0.1,4.2-0.2,6.3
		c0,0.3,0,0.7-0.1,1c-0.1,0.2-0.3,0.2-0.6,0.2c-0.1,0-0.3,0-0.4-0.1c-0.4-0.1-0.4-0.5-0.4-0.9c0-0.6,0-1.2,0-1.8v-1.1
		c0-0.9,0-1.7,0-2.6c0-0.7,0-1.4,0-2.1c0-1.1,0-2.1,0-3.2L92.3,4V3.8c0-0.2,0-0.5,0-0.7s0-0.5,0.1-0.7c0.1-0.2,0.2-0.2,0.4-0.2
		c0.1,0,0.2,0,0.2,0c0.2,0,0.4,0.1,0.6,0.3c0.2,0.2,0.3,0.5,0.4,0.7c0.3,0.7,0.5,1.5,0.7,2.3c0.6,1.8,1.3,4,1.9,5.9
		c0.2,0.7,0.6,1.7,0.9,2.4c0-0.2,0-0.3,0-0.5c0-0.8,0.1-1.7,0.1-2.3c0-0.8,0-1.6,0-2.4c0-1.4,0-2.8,0.1-4.1c0-0.5,0.1-1,0.1-1.5V2.9
		c0-0.3,0-0.7,0.2-1c0.1-0.2,0.4-0.2,0.6-0.2c0.1,0,0.3,0,0.4,0c0.4,0.1,0.4,0.4,0.5,0.8v0.2c0,0.4,0,0.9,0,1.2
		c-0.1,1.3-0.1,2.6-0.1,4c0,0.9,0,1.8,0.1,2.7c0,0.9,0.1,1.9,0.1,2.9c0,0.4,0,0.8,0,1.2c0,0.5,0,0.9-0.1,1.4c-0.2,0.7-0.3,1-1.1,1.1
		c-0.1,0-0.3,0-0.5,0c-0.1,0-0.2,0-0.3,0c-0.3-0.1-0.5-0.5-0.7-0.8c0,0,0,0,0,0C96.2,14.8,95.5,13.2,95,11.5z"/>
	<path class="st12" d="M102.4,15.6c0.5,0,2.7-0.3,3-0.4h0.1c0.5,0,0.5,0.3,0.5,0.7c0,0,0,0.1,0,0.2c0,0.1,0,0.2,0,0.4
		c-0.1,0.7-0.2,0.6-1.1,0.7c-0.4,0-0.9,0-1.3,0h-0.9c-0.4,0-0.8,0-1.3,0c-0.6,0-0.5-0.4-0.6-0.9c-0.1-1-0.1-2-0.1-2.9
		c0-1.7,0-3.4,0-5c0-1.1-0.1-2.2-0.1-3.3V3.9V2.4c0-0.4,0.2-0.6,0.6-0.6c0.1,0,0.2,0,0.4,0c0.4,0.1,0.6,0.3,0.6,0.7v0.3v0.6
		c0,1.8-0.1,3.7-0.1,5.5v4.6c0,0.6,0,1.3,0.1,2C102.3,15.5,102.4,15.5,102.4,15.6C102.4,15.6,102.4,15.6,102.4,15.6z"/>
	<path class="st12" d="M109.2,5.8c0.3-1.1,0.5-1.9,0.7-3c0-0.2,0.1-0.4,0.2-0.5c0.1-0.4,0.3-0.5,0.6-0.5h0.1c0.5,0,0.7,0.1,0.7,0.5
		c0,0.2,0,0.4-0.1,0.6c-0.2,0.8-0.4,1.7-0.6,2.6c-0.5,2.3-0.9,4.6-1.2,6.9c-0.1,1.3-0.2,2.6-0.4,3.8c0,0.3,0,0.8-0.3,1
		c-0.1,0.1-0.5,0.2-0.8,0.2c-0.2,0-0.4,0-0.5-0.1c-0.5-0.2-0.8-0.5-0.8-0.9c0-0.1,0-0.2,0-0.2c0.2-1,0.2-2,0.5-2.9
		c0.3-1,0.2-2,0.5-2.9c0-0.2,0-0.3,0-0.4c0-0.4-0.1-0.7-0.4-1.1c-1.2-1.8-2.1-3.7-3.1-5.6c-0.1-0.2-0.2-0.3-0.2-0.5
		c0-0.2,0.1-0.4,0.4-0.5c0.3-0.2,0.6-0.4,0.8-0.4c0.3,0,0.6,0.2,0.9,0.9c0.5,1.4,1.2,2.6,1.9,3.9c0.1,0.1,0.2,0.5,0.4,0.8
		C108.9,6.8,109.1,6.1,109.2,5.8z"/>
	<path class="st12" d="M116.6,7.4c0.2-1.2,0.5-2.4,1.1-3.4c0.3-0.5,0.7-1,1.1-1.4c0.5-0.4,1.1-0.7,1.7-0.7c0.4,0,0.7,0.1,1.1,0.3
		c1.1,0.8,1.7,2.3,1.8,3.6c0,0.4,0,0.8,0,1.1c0,0.9-0.1,1.9-0.2,2.8c-0.1,0.9-0.3,1.8-0.6,2.7c-0.2,0.7-0.6,1.5-1.3,2
		c-0.5,0.4-1,0.5-1.5,0.5c-1.4,0-2.6-1.3-3.1-2.8c-0.3-0.9-0.4-1.7-0.4-2.6C116.4,8.8,116.5,8.1,116.6,7.4z M130.8,15.7
		c0.2,0.1,0.3,0.3,0.3,0.6c0,0.2-0.2,0.4-0.4,0.4c-0.2,0.1-0.5,0.1-0.7,0.1c-1.3,0.1-2.7,0.1-4,0.2c-0.1,0-0.2,0-0.2,0l-7.6,0.4
		c-0.1,0-0.1,0-0.2,0c-0.2,0-0.4,0-0.5-0.1c-0.2-0.1-0.4-0.3-0.4-0.6c0-0.2,0.1-0.3,0.3-0.4c0.2-0.1,0.4-0.2,0.7-0.2l2.2-0.2
		c1.4-0.1,2.8-0.2,4.2-0.2c0,0,0,0,5.5-0.3C130.3,15.5,130.6,15.5,130.8,15.7z M121.8,7.8c0-1.1-0.2-2.3-0.5-3.1
		c-0.2-0.5-0.4-0.7-0.9-0.7c-0.7,0-1.3,0.3-1.6,1c-0.6,1.3-0.9,2.7-0.9,4.1c0,0.9,0.1,1.7,0.3,2.6c0.1,0.4,0.3,0.9,0.6,1.2
		c0.3,0.4,0.6,0.5,0.9,0.5c0.3,0,0.7-0.2,0.9-0.5c0.3-0.3,0.5-0.7,0.6-1.1c0.2-1.3,0.5-2.6,0.5-3.9V7.8z M126.1,10.2v2.9
		c0,0.3,0,0.6-0.1,0.9c-0.1,0.5-0.5,0.7-1,0.7c-0.1,0-0.2,0-0.2,0c-0.2-0.1-0.3-0.2-0.4-0.4c0-0.2-0.1-0.3-0.1-0.5
		c-0.1-1.6-0.1-3.2-0.2-4.8c0-1.3,0-2.5,0-3.8c0-0.9,0-1.8-0.1-2.8c0-0.3,0-0.6,0.4-0.7c0.1,0,0.2-0.1,0.3-0.1
		c0.2,0,0.4,0.1,0.6,0.3c0.3,0.2,0.4,0.5,0.5,0.8l1.1,3c0.4,1.1,0.8,2.1,1.3,3.1c0.3,0.6,0.6,1.1,0.9,1.7c0-0.4,0.1-0.8,0.1-1.2
		c0-0.1,0-0.2,0-0.4c-0.1-0.7-0.1-1.6-0.1-2.4c0-0.3,0-0.7,0-1c0-0.8,0-1.6,0.1-2.4c0-0.6,0-1.3,0.7-1.4c0,0,0.1,0,0.2,0
		c0.4,0,0.6,0.2,0.7,0.6c0,0.2,0.1,0.4,0.1,0.6c0,0.3,0,0.7,0,1c0,0.3,0,0.6,0,0.9c0,0.3,0,0.6,0,0.9c0,1.3,0,2.5,0.1,3.8l0.1,2.1
		c0,0.8,0.1,1.5,0.1,2.3v0.2c0,0.5-0.2,0.7-0.6,0.7c-0.2,0-0.5-0.1-0.7-0.3c-0.8-0.5-1.3-1.6-1.7-2.5l-1.8-3.9
		c0-0.1-0.1-0.2-0.3-0.4L126.1,10.2z"/>
	<path class="st12" d="M134.4,15.6c0,0.2,0.1,0.3,0.3,0.3c0.4,0,1-0.3,1.4-0.3c0.5,0,0.7,0.3,0.7,0.6c0,0.1,0,0.3-0.1,0.5
		c-0.1,0.2-0.2,0.2-0.4,0.3c-0.2,0.1-0.5,0.1-0.8,0.1c-0.6,0-1.2,0-1.9,0c-0.7,0-1-0.3-1-1c0-0.4,0-0.7,0-1.1
		c-0.1-2.4-0.1-4.9-0.1-7.3c0-0.6,0-1.2,0-1.8c0-0.6,0-1.2,0.1-1.8l0.1-1.3c0.1-0.5,0.3-0.8,0.8-0.9c0.6-0.1,1.1-0.2,1.7-0.2
		c0.3,0,0.7,0,1,0c0.5,0,0.6,0.3,0.6,0.7c0,0.4-0.2,0.7-0.6,0.7c-0.4,0-0.8,0-1.2,0.1c-0.2,0-0.4,0-0.6,0.1c0,1.2,0,2.4,0,3.6
		c0,0.7,0,1.5,0,2.2l1,0.1c0.7,0,0.9,0.2,0.9,0.7c0,0.1,0,0.3,0,0.4c-0.1,0.3-0.2,0.5-0.5,0.5c-0.5,0-0.9,0.1-1.4,0.1V15.6z"/>
	<path class="st12" d="M146.9,6.7c0.3-1.4,0.8-2.8,1.2-4.2c0-0.2,0.1-0.4,0.2-0.6c0.2-0.2,0.4-0.4,0.7-0.4c0.1,0,0.2,0,0.3,0.1
		c0.3,0.1,0.5,0.4,0.5,0.7c0,0.1,0,0.2,0,0.2c-0.1,0.6-0.3,1.3-0.5,1.9c-0.7,2.4-1.2,4.9-1.6,7.3c-0.2,1.3-0.2,2.5-0.3,3.9V16
		c0,0.2,0,0.4-0.1,0.6c-0.2,0.6-0.5,0.8-1,0.8c-0.1,0-0.2,0-0.3,0c-0.4-0.1-0.7-0.4-0.7-0.9c0-0.1,0-0.2,0-0.2c0.2-1,0.3-2,0.5-3
		c0.2-0.9,0.3-1.7,0.3-2.6c0-0.6-0.2-1.1-0.5-1.5c-0.4-0.4-0.7-0.8-1-1.3c-0.5-0.7-0.9-1.5-1.2-2.4c-0.1-0.4-0.3-0.8-0.4-1.2
		c-0.2-0.4-0.4-0.6-0.7-0.8c-0.3-0.1-0.4-0.3-0.4-0.6V2.7c0-0.4,0.3-0.7,0.7-0.7c0.1,0,0.2,0,0.3,0c0.5,0,0.9,0.3,1.2,0.7
		c0.2,0.3,0.3,0.6,0.4,0.9c0.3,0.7,0.6,1.4,0.9,2c0.3,0.6,0.6,1.2,1.1,1.7c0.1,0.1,0.1,0.2,0.3,0.2C146.8,7.2,146.9,7,146.9,6.7z"/>
	<path class="st12" d="M150.8,8.4c0-1.1,0.1-2.4,0.5-3.7c0.2-0.6,0.4-1.2,0.8-1.8c0.6-0.8,1.4-1.2,2.3-1.2c0.7,0,1.4,0.3,2,0.9
		c0.9,1,1.5,2.2,1.8,3.5c0.2,0.9,0.3,1.8,0.3,2.7c0,0.7,0,1.5-0.1,2.2c-0.1,1.3-0.4,2.6-0.9,3.8c-0.3,0.6-0.6,1.2-1,1.7
		c-0.1,0.1-0.2,0.2-0.4,0.4c-0.5,0.5-1.1,0.7-1.6,0.7c-0.6,0-1.3-0.4-1.8-1.1c-0.8-1.2-1.3-2.6-1.6-4c-0.2-1-0.3-2-0.3-3.2V8.4z
		 M154.9,15.2c1.3-1.9,1.9-3.9,1.9-5.9c0-1.4-0.3-2.9-1-4.4c-0.2-0.4-0.4-0.7-0.7-1c-0.2-0.2-0.4-0.3-0.6-0.3
		c-0.2,0-0.4,0.1-0.7,0.4c-0.2,0.2-0.4,0.5-0.6,0.8c-0.2,0.5-0.4,1-0.5,1.5c-0.2,1-0.2,2-0.2,3c0,0.9,0.1,1.8,0.2,2.6
		c0.1,1,0.4,1.9,0.8,2.8c0.2,0.4,0.5,0.7,0.9,0.9C154.5,15.6,154.9,15.4,154.9,15.2z"/>
	<path class="st12" d="M159.9,6.6c0-0.7,0.1-1.5,0.1-2.2V4.2c0-0.8,0-2.5,1-2.5h0.1c0.4,0,0.7,0.1,0.9,0.5c0.1,0.1,0.1,0.2,0.1,0.3
		c0,0.1,0,0.2,0,0.3v0.6c0,0.5,0,0.9-0.1,1.4c0,1.9-0.2,3.8-0.2,5.6c0,0.4,0,0.8,0,1.3c0,0.8-0.1,1.8,0.2,2.6
		c0.3,0.7,0.8,1.3,1.7,1.3h0.1c1.5,0,1.7-1.1,1.7-2.4c0-0.4,0-0.9,0-1.3v-0.7c0-1-0.2-2.5-0.2-3.4V7.3c0-1.1-0.1-2.1-0.1-3.1V4
		c0-0.3,0-0.7,0-1c0-0.5,0-0.9,0.2-1.1c0.3-0.2,0.7-0.3,1-0.3c0.4,0,0.8,0.5,0.8,0.8c0,0.4,0.1,0.9,0.1,1.4v0.7
		c0,1.1-0.1,2.3-0.1,3.4v0.5c0,1,0.1,2.1,0.1,3.1v0.3c0,1.7,0,3.9-1.3,5c-0.5,0.4-1.1,0.6-1.7,0.7c-0.2,0-0.4,0-0.6,0
		c-0.8,0-1.6-0.2-2.2-0.6c-0.8-0.5-1-1.4-1.2-2.2c-0.4-1.5-0.4-3-0.4-4.6c0-0.5,0-1.1,0-1.6L159.9,6.6z"/>
	<path class="st12" d="M177.6,10.7c0.5,0.1,0.9,0.3,1,0.7v0.1c0,0.4-0.4,0.8-0.8,1c-0.4,0.1-0.8,0.2-1.1,0.2h-1.7
		c-0.3,0-0.6,0.1-0.9,0.1c-0.5,0-1.1,0-1.7,0h-1.9c-0.5,0-1-0.1-1.3-0.5c-0.2-0.2-0.3-0.4-0.3-0.6c0-0.4,0.4-0.7,0.9-0.9
		c0.3-0.1,0.7-0.1,1-0.1h3c0,0,0,0,3,0C177,10.6,177.3,10.6,177.6,10.7z"/>
	<path class="st12" d="M8.6,33.5c-0.5,0-1,0-1.5,0c-0.3,0-0.6,0-0.8,0c-0.1,0.9,0,1.8-0.3,2.7c-0.2,0.5-0.8,1.2-1.4,1.2
		c-0.2,0-0.5-0.1-0.6-0.5c-0.1-0.2-0.1-0.4-0.1-0.6c0-0.9,0.3-2.5,0.5-3.6C5,29.8,5,29.2,5.3,27.4c0.2-1.5,0.7-2.5,0.9-4
		c0-0.4,0.3-1.2,0.5-1.4c0.2-0.2,0.4-0.4,0.5-0.4c0.1,0,0.2,0,0.2,0.1C7.7,22,7.9,22.6,8,23c0,0,0,0,0,0.1c1.1,3.3,1.7,6.2,2.7,9.5
		c0.4,1,0.8,2,1.1,3c0.1,0.3,0.2,0.6,0.2,0.9c0,0.4-0.2,0.8-0.7,0.8c-0.1,0-0.1,0-0.2,0c-1.6,0-1.7-2.9-2-3.9
		C9,33.5,8.8,33.5,8.6,33.5z M7,31.5c0.3,0,0.6,0,0.9,0h0.2c0.4,0,0.5,0,0.5-0.2c0-0.2-0.1-0.4-0.2-0.7c-0.3-1.3-0.7-2.5-0.9-3.7
		c-0.1-0.3-0.3-1-0.4-1.3c-0.6,2-0.5,3.7-0.8,5.9C6.6,31.5,6.8,31.5,7,31.5z"/>
	<path class="st12" d="M16,31.5c-0.3-1-0.6-2.1-0.9-3.2c0-0.1-0.1-0.2-0.2-0.3c0,0.6-0.1,1.2-0.1,1.8c0,2.1-0.1,4.2-0.2,6.3
		c0,0.3,0,0.7-0.1,1c-0.1,0.2-0.3,0.2-0.6,0.2c-0.1,0-0.3,0-0.4-0.1c-0.4-0.1-0.4-0.5-0.4-0.9c0-0.6,0-1.2,0-1.8v-1.1
		c0-0.9,0-1.7,0-2.6c0-0.7,0-1.4,0-2.1c0-1.1,0-2.1,0-3.2l0.1-1.8v-0.2c0-0.2,0-0.5,0-0.7c0-0.3,0-0.5,0.1-0.7
		c0.1-0.2,0.2-0.2,0.4-0.2c0.1,0,0.2,0,0.2,0c0.2,0,0.4,0.1,0.6,0.3c0.2,0.2,0.3,0.5,0.4,0.7c0.3,0.7,0.5,1.5,0.7,2.3
		c0.6,1.8,1.3,4,1.9,5.9c0.2,0.7,0.6,1.7,0.9,2.4c0-0.2,0-0.3,0-0.5c0-0.8,0.1-1.7,0.1-2.3c0-0.8,0-1.6,0-2.4c0-1.4,0-2.8,0.1-4.1
		c0-0.5,0.1-1,0.1-1.5v-0.1c0-0.3,0-0.7,0.2-1c0.1-0.2,0.4-0.2,0.6-0.2c0.1,0,0.3,0,0.4,0c0.4,0.1,0.4,0.4,0.5,0.8v0.2
		c0,0.4,0,0.9,0,1.2c-0.1,1.3-0.1,2.6-0.1,4c0,0.9,0,1.8,0.1,2.7c0,0.9,0.1,1.9,0.1,2.9c0,0.4,0,0.8,0,1.2c0,0.5,0,0.9-0.1,1.4
		c-0.2,0.7-0.3,1-1.1,1.1c-0.1,0-0.3,0-0.5,0c-0.1,0-0.2,0-0.3,0c-0.3-0.1-0.5-0.5-0.7-0.8c0,0,0,0,0,0C17.1,34.8,16.5,33.2,16,31.5
		z"/>
	<path class="st12" d="M21.7,29.4c0-0.3,0.1-0.6,0.1-0.9v-1c0.1-1.2,0.2-2.4,0.2-3.7c0-0.6,0-1.5,0.5-1.9c0.1-0.1,0.3-0.2,0.5-0.2
		c0.2,0,0.4,0,0.5,0.1c2,1,3.2,2.5,3.7,4.7c0.3,1.3,0.5,2.7,0.5,4.1c0,0.7-0.1,1.4-0.2,2.1c-0.2,0.8-0.4,1.6-0.8,2.2
		c-0.7,1.1-2.1,2-3.4,2.3c-0.2,0-0.4,0.1-0.6,0.1c-0.7,0-1.3-0.3-1.3-1.1c0-0.2,0-0.4,0-0.6c0-0.2,0-0.4,0-0.7
		C21.5,33,21.6,31.2,21.7,29.4z M23.9,25c0,1-0.1,2-0.2,3c-0.1,1.3-0.2,2.7-0.3,4c0,0.6-0.1,1.3-0.1,1.9v0.4c0,0.4,0,0.9-0.1,1.5
		c0.5-0.2,0.9-0.4,1.3-0.7c1.3-1.3,1.7-3.1,1.7-4.9v-0.5c0-0.9,0-1.8-0.4-2.6c-0.4-1-1-1.6-1.5-2.5c-0.1-0.1-0.2-0.3-0.4-0.4
		C23.9,24.5,23.9,24.7,23.9,25z"/>
	<path class="st12" d="M37.5,25.8c0.3-1.1,0.5-1.9,0.7-3c0-0.2,0.1-0.4,0.2-0.5c0.1-0.4,0.3-0.5,0.6-0.5h0.1c0.5,0,0.7,0.1,0.7,0.5
		c0,0.2,0,0.4-0.1,0.6c-0.2,0.8-0.4,1.7-0.6,2.6c-0.5,2.3-0.9,4.6-1.2,6.9c-0.1,1.3-0.2,2.6-0.4,3.8c0,0.3,0,0.8-0.3,1
		c-0.1,0.1-0.5,0.2-0.8,0.2c-0.2,0-0.4,0-0.5-0.1c-0.5-0.2-0.8-0.5-0.8-0.9c0-0.1,0-0.2,0-0.2c0.2-1,0.2-2,0.5-2.9
		c0.3-1,0.2-2,0.5-2.9c0-0.2,0-0.3,0-0.4c0-0.4-0.1-0.7-0.4-1.1c-1.2-1.8-2.1-3.7-3.1-5.6c-0.1-0.2-0.2-0.3-0.2-0.5
		c0-0.2,0.1-0.4,0.4-0.5c0.3-0.2,0.6-0.4,0.8-0.4c0.3,0,0.6,0.2,0.9,0.9c0.5,1.4,1.2,2.6,1.9,3.9c0.1,0.1,0.2,0.5,0.4,0.8
		C37.2,26.8,37.4,26.1,37.5,25.8z"/>
	<path class="st12" d="M40.5,28.4c0-1.1,0.1-2.4,0.5-3.7c0.2-0.6,0.4-1.2,0.8-1.8c0.6-0.8,1.4-1.2,2.3-1.2c0.7,0,1.4,0.3,2,0.9
		c0.9,1,1.5,2.2,1.8,3.5c0.2,0.9,0.3,1.8,0.3,2.7c0,0.7,0,1.5-0.1,2.2c-0.1,1.3-0.4,2.6-0.9,3.8c-0.3,0.6-0.6,1.2-1,1.7
		c-0.1,0.1-0.2,0.2-0.4,0.4c-0.6,0.5-1.1,0.7-1.6,0.7c-0.6,0-1.3-0.4-1.8-1.1c-0.8-1.2-1.3-2.6-1.6-4c-0.2-1-0.3-2-0.3-3.2V28.4z
		 M44.6,35.2c1.3-1.9,1.9-3.9,1.9-5.9c0-1.4-0.3-2.9-1-4.4c-0.2-0.4-0.4-0.7-0.7-1c-0.2-0.2-0.4-0.3-0.6-0.3c-0.2,0-0.4,0.1-0.7,0.4
		c-0.2,0.2-0.4,0.5-0.5,0.8c-0.2,0.5-0.4,1-0.5,1.5c-0.2,1-0.2,2-0.2,3c0,0.9,0.1,1.8,0.2,2.6c0.1,1,0.4,1.9,0.8,2.8
		c0.2,0.4,0.5,0.7,0.9,0.9C44.3,35.6,44.6,35.4,44.6,35.2z"/>
	<path class="st12" d="M49.7,26.6c0-0.7,0.1-1.5,0.1-2.2v-0.2c0-0.8,0-2.5,1-2.5h0.1c0.4,0,0.7,0.1,0.9,0.5c0.1,0.1,0.1,0.2,0.1,0.3
		c0,0.1,0,0.2,0,0.3v0.6c0,0.5,0,0.9-0.1,1.4c0,1.9-0.2,3.8-0.2,5.6c0,0.4,0,0.8,0,1.3c0,0.8-0.1,1.8,0.2,2.6
		c0.3,0.7,0.8,1.3,1.7,1.3h0.1c1.5,0,1.7-1.1,1.7-2.4c0-0.4,0-0.9,0-1.3v-0.7c0-1-0.2-2.5-0.2-3.4v-0.7c0-1.1-0.1-2.1-0.1-3.1V24
		c0-0.3,0-0.7,0-1c0-0.5,0-0.9,0.2-1.1c0.3-0.2,0.7-0.3,1-0.3c0.4,0,0.8,0.5,0.8,0.8c0,0.4,0.1,0.9,0.1,1.4v0.7
		c0,1.1-0.1,2.3-0.1,3.4v0.5c0,1,0.1,2.1,0.1,3.1v0.3c0,1.7,0,3.9-1.3,5c-0.5,0.4-1.1,0.6-1.7,0.7c-0.2,0-0.4,0-0.6,0
		c-0.8,0-1.6-0.2-2.2-0.6c-0.8-0.5-1-1.4-1.2-2.2c-0.4-1.5-0.4-3-0.4-4.6c0-0.5,0-1.1,0-1.6L49.7,26.6z"/>
	<path class="st12" d="M62,29.9c0.6,1.2,0.5,2.3,0.5,3.7c0,0.7,0.1,1.4,0.6,1.8c0.4,0.2,0.7,0.2,1.1,0.4c0.2,0.1,0.4,0.4,0.4,0.6
		c0,0.2-0.1,0.4-0.4,0.6c-0.2,0.1-0.5,0.2-0.8,0.2c-0.4,0-0.7-0.1-1-0.2c-1-0.5-1.3-2-1.4-3.1c0,0,0-0.1,0-0.2c0-0.2,0-0.4,0-0.6
		c0-0.5-0.1-1.1-0.1-1.6c0-0.5-0.1-0.5-0.3-0.9c-0.1-0.2-0.2-0.8-0.5-0.8c0,0-0.1,0.7-0.1,0.9c0,0.9-0.1,1.7-0.1,2.4
		c0,1.3,0,2.1,0,3.6c0,0.5-0.6,0.5-0.9,0.5c0,0-0.1,0-0.2,0c-0.4,0-0.5-0.4-0.5-0.8c0-0.2,0-0.3,0-0.5c0,0,0-0.1,0-0.1
		c0.2-2.1,0.2-4.2,0.3-6.3c0.1-1.7,0.2-3.5,0.2-5.2c0-0.5,0-0.9,0-1.4v-0.2c0-0.8,0.1-0.9,0.8-0.9H60c0.2,0,0.3,0,0.5,0
		c0.5,0,0.9,0.1,1.4,0.3c1.2,0.6,1.7,2,1.7,3.3c0,0.4,0,0.8-0.1,1.2c-0.1,0.5-0.2,1-0.5,1.4c-0.3,0.5-0.9,0.7-1.3,1.1
		C61.8,29.4,61.9,29.6,62,29.9z M60.1,25.5c0,0.8,0,1.7,0.1,2c0,0,0,0,0.1,0c0.2,0,0.8-0.1,0.8-0.1c0.2-0.1,0.4-0.3,0.5-0.5
		c0.2-0.4,0.4-1.1,0.4-1.8c0-0.9-0.5-1.8-1.5-1.8c-0.1,0-0.2,0-0.3,0C60.1,23.8,60.1,24.7,60.1,25.5z"/>
	<path class="st12" d="M68.8,26.6c0-0.7,0.1-1.5,0.1-2.2v-0.2c0-0.8,0-2.5,1-2.5H70c0.4,0,0.7,0.1,0.9,0.5c0.1,0.1,0.1,0.2,0.1,0.3
		c0,0.1,0,0.2,0,0.3v0.6c0,0.5,0,0.9-0.1,1.4c0,1.9-0.2,3.8-0.2,5.6c0,0.4,0,0.8,0,1.3c0,0.8-0.1,1.8,0.2,2.6
		c0.3,0.7,0.8,1.3,1.7,1.3h0.1c1.5,0,1.7-1.1,1.7-2.4c0-0.4,0-0.9,0-1.3v-0.7c0-1-0.2-2.5-0.2-3.4v-0.7c0-1.1-0.1-2.1-0.1-3.1V24
		c0-0.3,0-0.7,0-1c0-0.5,0-0.9,0.2-1.1c0.3-0.2,0.7-0.3,1-0.3c0.4,0,0.8,0.5,0.8,0.8c0,0.4,0.1,0.9,0.1,1.4v0.7
		c0,1.1-0.1,2.3-0.1,3.4v0.5c0,1,0.1,2.1,0.1,3.1v0.3c0,1.7,0,3.9-1.3,5c-0.5,0.4-1.1,0.6-1.7,0.7c-0.2,0-0.4,0-0.6,0
		c-0.8,0-1.6-0.2-2.2-0.6c-0.8-0.5-1-1.4-1.2-2.2c-0.4-1.5-0.4-3-0.4-4.6c0-0.5,0-1.1,0-1.6L68.8,26.6z"/>
	<path class="st12" d="M80.6,31.5c-0.3-1-0.6-2.1-0.9-3.2c0-0.1-0.1-0.2-0.2-0.3c0,0.6-0.1,1.2-0.1,1.8c0,2.1-0.1,4.2-0.2,6.3
		c0,0.3,0,0.7-0.1,1c-0.1,0.2-0.3,0.2-0.6,0.2c-0.1,0-0.3,0-0.4-0.1c-0.4-0.1-0.4-0.5-0.4-0.9c0-0.6,0-1.2,0-1.8v-1.1
		c0-0.9,0-1.7,0-2.6c0-0.7,0-1.4,0-2.1c0-1.1,0-2.1,0-3.2l0.1-1.8v-0.2c0-0.2,0-0.5,0-0.7c0-0.3,0-0.5,0.1-0.7
		c0.1-0.2,0.2-0.2,0.4-0.2c0.1,0,0.2,0,0.2,0c0.2,0,0.4,0.1,0.6,0.3c0.2,0.2,0.3,0.5,0.4,0.7c0.3,0.7,0.5,1.5,0.7,2.3
		c0.6,1.8,1.3,4,1.9,5.9c0.2,0.7,0.6,1.7,0.9,2.4c0-0.2,0-0.3,0-0.5c0-0.8,0.1-1.7,0.1-2.3c0-0.8,0-1.6,0-2.4c0-1.4,0-2.8,0.1-4.1
		c0-0.5,0.1-1,0.1-1.5v-0.1c0-0.3,0-0.7,0.2-1c0.1-0.2,0.4-0.2,0.6-0.2c0.1,0,0.3,0,0.4,0c0.4,0.1,0.4,0.4,0.5,0.8v0.2
		c0,0.4,0,0.9,0,1.2c-0.1,1.3-0.1,2.6-0.1,4c0,0.9,0,1.8,0.1,2.7c0,0.9,0.1,1.9,0.1,2.9c0,0.4,0,0.8,0,1.2c0,0.5,0,0.9-0.1,1.4
		c-0.2,0.7-0.3,1-1.1,1.1c-0.1,0-0.3,0-0.5,0c-0.1,0-0.2,0-0.3,0c-0.3-0.1-0.5-0.5-0.7-0.8c0,0,0,0,0,0
		C81.8,34.8,81.1,33.2,80.6,31.5z"/>
	<path class="st12" d="M88.2,29.4c0,1.1,0,2.2,0,3.2c0,1.3,0,2.6,0.1,3.8v0.4c0,0.2-0.1,0.4-0.3,0.4c-0.2,0.1-0.5,0.1-0.8,0.1
		c-0.3,0-0.6-0.3-0.6-0.7c0-0.5-0.1-1.1-0.1-1.6c-0.1-2-0.1-3.9-0.1-5.9v-2.4c0-1.4,0.1-2.8,0.1-4.1c0-0.6,0.3-0.9,0.9-0.9h0
		c0.3,0,0.6,0.2,0.6,0.6v0.2c0,2.1,0.1,4.1,0.1,6.1V29.4z"/>
	<path class="st12" d="M94.1,37.1c-0.2,0-0.3,0-0.4,0c-0.1,0-0.3,0-0.4,0c-0.5-0.1-1.1-0.3-1.5-0.7c-1-0.8-1.5-2-1.7-3.2
		c-0.2-1.1-0.3-1.7-0.3-2.8c0-1.5,0.2-3,0.6-4.4c0.5-1.9,1.2-3.9,3.4-4.4c0.1,0,0.3,0,0.4,0c0.8,0,1.6,0.6,2,1.3
		c0.6,1,0.9,2.2,1,3.3c0.1,0.9,0.1,1.9,0.1,2.8s0,1.9-0.1,2.8c-0.1,1.2-0.2,2-0.7,3.2c0,0.1,0,0.2,0,0.2c0,0.2,0.1,0.3,0.2,0.4
		c0.1,0.1,0.2,0.1,0.2,0.1c0.4,0,0.3-0.4,0.7-0.4c0.2,0,0.4,0.1,0.6,0.3c0.2,0.2,0.2,0.4,0.2,0.6c0,0.6-0.9,1.4-1.5,1.4
		c-0.4,0-0.8-0.1-1.2-0.4c-0.2-0.2-0.4-0.2-0.5-0.4C94.9,36.9,94.2,37.1,94.1,37.1z M94,34.7c-0.2-0.2-0.4-0.2-0.5-0.4
		c-0.2-0.2-0.3-0.5-0.3-0.8c0-0.1,0-0.2,0.1-0.3c0.2-0.4,0.6-0.5,0.9-0.5c0.3,0,0.6,0.2,0.9,0.2c0.1-0.6,0.1-0.8,0.1-1.5
		c0-0.6,0-1.3,0-1.9c0-1.3,0-2.6-0.2-4c0-0.4,0-1.5-0.4-1.8c-0.1-0.1-0.3-0.1-0.5-0.1c-0.3,0-0.5,0.1-0.7,0.3
		c-0.3,0.2-0.5,0.4-0.6,0.7c-0.9,1.5-1.2,3.2-1.2,4.9c0,0.7,0,1.4,0.1,2.1c0,0.1,0,0.1,0,0.2c0.1,1.3,0.3,2.7,1.5,3.3
		c0.2,0.1,0.7,0.2,1,0.2c0.2,0,0.3,0,0.3-0.1c0,0,0,0,0-0.1C94.2,35.1,94.2,34.8,94,34.7z"/>
	<path class="st12" d="M99,26.6c0-0.7,0.1-1.5,0.1-2.2v-0.2c0-0.8,0-2.5,1-2.5h0.1c0.4,0,0.7,0.1,0.9,0.5c0.1,0.1,0.1,0.2,0.1,0.3
		c0,0.1,0,0.2,0,0.3v0.6c0,0.5,0,0.9-0.1,1.4c0,1.9-0.2,3.8-0.2,5.6c0,0.4,0,0.8,0,1.3c0,0.8-0.1,1.8,0.2,2.6
		c0.3,0.7,0.8,1.3,1.7,1.3h0.1c1.5,0,1.7-1.1,1.7-2.4c0-0.4,0-0.9,0-1.3v-0.7c0-1-0.2-2.5-0.2-3.4v-0.7c0-1.1-0.1-2.1-0.1-3.1V24
		c0-0.3,0-0.7,0-1c0-0.5,0-0.9,0.2-1.1c0.3-0.2,0.7-0.3,1-0.3c0.4,0,0.8,0.5,0.8,0.8c0,0.4,0.1,0.9,0.1,1.4v0.7
		c0,1.1-0.1,2.3-0.1,3.4v0.5c0,1,0.1,2.1,0.1,3.1v0.3c0,1.7,0,3.9-1.3,5c-0.5,0.4-1.1,0.6-1.7,0.7c-0.2,0-0.4,0-0.6,0
		c-0.8,0-1.6-0.2-2.2-0.6c-0.8-0.5-1-1.4-1.2-2.2c-0.4-1.5-0.4-3-0.4-4.6c0-0.5,0-1.1,0-1.6L99,26.6z"/>
	<path class="st12" d="M109.7,35.6c0,0.2,0.1,0.3,0.3,0.3c0.4,0,1-0.3,1.4-0.3c0.5,0,0.7,0.3,0.7,0.6c0,0.1,0,0.3-0.1,0.5
		s-0.2,0.2-0.4,0.3c-0.2,0.1-0.5,0.1-0.8,0.1c-0.6,0-1.2,0-1.9,0c-0.7,0-1-0.3-1-1c0-0.4,0-0.7,0-1.1c-0.1-2.4-0.1-4.9-0.1-7.3
		c0-0.6,0-1.2,0-1.8s0-1.2,0.1-1.8l0.1-1.3c0.1-0.5,0.3-0.8,0.8-0.9c0.6-0.1,1.1-0.2,1.7-0.2c0.3,0,0.7,0,1,0c0.5,0,0.6,0.3,0.6,0.7
		c0,0.4-0.2,0.7-0.6,0.7c-0.4,0-0.8,0-1.2,0.1c-0.2,0-0.4,0-0.6,0.1c0,1.2,0,2.4,0,3.6c0,0.7,0,1.5,0,2.2l1,0.1
		c0.7,0,0.9,0.2,0.9,0.7c0,0.1,0,0.3,0,0.4c-0.1,0.3-0.2,0.5-0.5,0.5c-0.5,0-0.9,0.1-1.4,0.1V35.6z"/>
	<path class="st12" d="M119.5,32.1c0,0.1,0,0.2,0,0.2c0,1,0,2,0,2.9c0,0.4,0,0.9-0.1,1.3c-0.1,0.4-0.3,0.7-0.7,0.9
		c-0.1,0-0.1,0-0.2,0c-0.3,0-0.5-0.2-0.6-0.6v-0.4c0-0.4,0-0.8,0-1.2V34c0-2.9,0-5.9,0-8.8v-0.6c0,0-0.1,0-0.2,0c-0.1,0-0.2,0-0.2,0
		c-0.4,0-0.7-0.4-0.7-0.7v-0.2c0.1-0.2,0.2-0.4,0.3-0.5c1-0.9,2.2-1.5,3.5-1.5c0.4,0,0.7,0.1,1,0.4c0.5,0.4,0.8,0.9,1,1.5
		c0.2,0.7,0.3,1.5,0.3,2.3c0,0.6,0,1.2-0.2,1.8c-0.1,0.5-0.4,0.9-0.8,1.3c-0.4,0.4-0.9,0.7-1.4,0.9l0.3,0.7c0.5,1.6,1.1,3.8,1.1,4.6
		c0,0.4,0.1,0.9,0.2,1.3c0,0.2,0.1,0.3,0.1,0.4c0,0,0,0,0,0.1c0.2,0.3,0.4,0.7,0.7,0.9c0.1,0,0.1,0,0.2,0c0.3,0,0.6-0.2,0.9-0.2
		c0.1,0,0.1,0,0.2,0c0.3,0.1,0.4,0.3,0.4,0.6c0,0.1,0,0.2-0.1,0.3l-0.1,0.2c-0.3,0.3-0.6,0.4-1,0.4c-0.5,0-1-0.2-1.4-0.5
		c-0.8-0.5-1.3-1.3-1.5-2.2l-0.1-0.7c-0.1-1-0.4-2.6-0.7-3.6c0-0.1-0.1-0.3-0.2-0.4C119.5,31.9,119.5,32,119.5,32.1z M119.4,26.9
		c0,0.5,0,1.1,0.1,1.6c0,0,0,0.1,0.1,0.1c0.4,0,1.8-1.1,1.9-1.7c0-0.3,0-0.6,0-0.9c0-0.6-0.1-1.2-0.2-1.8c-0.1-0.7-0.6-1-1.1-1
		c-0.2,0-0.5,0.1-0.7,0.2C119.5,24.6,119.4,25.8,119.4,26.9z"/>
	<path class="st12" d="M124.5,26.6c0-0.7,0.1-1.5,0.1-2.2v-0.2c0-0.8,0-2.5,1-2.5h0.1c0.4,0,0.7,0.1,0.9,0.5
		c0.1,0.1,0.1,0.2,0.1,0.3c0,0.1,0,0.2,0,0.3v0.6c0,0.5,0,0.9-0.1,1.4c0,1.9-0.2,3.8-0.2,5.6c0,0.4,0,0.8,0,1.3
		c0,0.8-0.1,1.8,0.2,2.6c0.3,0.7,0.8,1.3,1.7,1.3h0.1c1.5,0,1.7-1.1,1.7-2.4c0-0.4,0-0.9,0-1.3v-0.7c0-1-0.2-2.5-0.2-3.4v-0.7
		c0-1.1-0.1-2.1-0.1-3.1V24c0-0.3,0-0.7,0-1c0-0.5,0-0.9,0.2-1.1c0.3-0.2,0.7-0.3,1-0.3c0.4,0,0.8,0.5,0.8,0.8
		c0,0.4,0.1,0.9,0.1,1.4v0.7c0,1.1-0.1,2.3-0.1,3.4v0.5c0,1,0.1,2.1,0.1,3.1v0.3c0,1.7,0,3.9-1.3,5c-0.5,0.4-1.1,0.6-1.7,0.7
		c-0.2,0-0.4,0-0.6,0c-0.8,0-1.6-0.2-2.2-0.6c-0.8-0.5-1-1.4-1.2-2.2c-0.4-1.5-0.4-3-0.4-4.6c0-0.5,0-1.1,0-1.6L124.5,26.6z"/>
	<path class="st12" d="M136.2,31.5c-0.3-1-0.6-2.1-0.9-3.2c0-0.1-0.1-0.2-0.2-0.3c0,0.6-0.1,1.2-0.1,1.8c0,2.1-0.1,4.2-0.2,6.3
		c0,0.3,0,0.7-0.1,1c-0.1,0.2-0.3,0.2-0.6,0.2c-0.1,0-0.3,0-0.4-0.1c-0.4-0.1-0.4-0.5-0.4-0.9c0-0.6,0-1.2,0-1.8v-1.1
		c0-0.9,0-1.7,0-2.6c0-0.7,0-1.4,0-2.1c0-1.1,0-2.1,0-3.2l0.1-1.8v-0.2c0-0.2,0-0.5,0-0.7c0-0.3,0-0.5,0.1-0.7
		c0.1-0.2,0.2-0.2,0.4-0.2c0.1,0,0.2,0,0.2,0c0.2,0,0.4,0.1,0.6,0.3c0.2,0.2,0.3,0.5,0.4,0.7c0.3,0.7,0.5,1.5,0.7,2.3
		c0.6,1.8,1.3,4,1.9,5.9c0.2,0.7,0.6,1.7,0.9,2.4c0-0.2,0-0.3,0-0.5c0-0.8,0.1-1.7,0.1-2.3c0-0.8,0-1.6,0-2.4c0-1.4,0-2.8,0.1-4.1
		c0-0.5,0.1-1,0.1-1.5v-0.1c0-0.3,0-0.7,0.2-1c0.1-0.2,0.4-0.2,0.6-0.2c0.1,0,0.3,0,0.4,0c0.4,0.1,0.4,0.4,0.5,0.8v0.2
		c0,0.4,0,0.9,0,1.2c-0.1,1.3-0.1,2.6-0.1,4c0,0.9,0,1.8,0.1,2.7c0,0.9,0.1,1.9,0.1,2.9c0,0.4,0,0.8,0,1.2c0,0.5,0,0.9-0.1,1.4
		c-0.2,0.7-0.3,1-1.1,1.1c-0.1,0-0.3,0-0.5,0c-0.1,0-0.2,0-0.3,0c-0.3-0.1-0.5-0.5-0.7-0.8c0,0,0,0,0,0
		C137.4,34.8,136.8,33.2,136.2,31.5z"/>
	<path class="st12" d="M144.8,31.5c-0.3-1-0.6-2.1-0.9-3.2c0-0.1-0.1-0.2-0.2-0.3c0,0.6-0.1,1.2-0.1,1.8c0,2.1-0.1,4.2-0.2,6.3
		c0,0.3,0,0.7-0.1,1c-0.1,0.2-0.3,0.2-0.6,0.2c-0.1,0-0.3,0-0.4-0.1c-0.4-0.1-0.4-0.5-0.4-0.9c0-0.6,0-1.2,0-1.8v-1.1
		c0-0.9,0-1.7,0-2.6c0-0.7,0-1.4,0-2.1c0-1.1,0-2.1,0-3.2l0.1-1.8v-0.2c0-0.2,0-0.5,0-0.7c0-0.3,0-0.5,0.1-0.7
		c0.1-0.2,0.2-0.2,0.4-0.2c0.1,0,0.2,0,0.2,0c0.2,0,0.4,0.1,0.6,0.3c0.2,0.2,0.3,0.5,0.4,0.7c0.3,0.7,0.5,1.5,0.7,2.3
		c0.6,1.8,1.3,4,1.9,5.9c0.2,0.7,0.6,1.7,0.9,2.4c0-0.2,0-0.3,0-0.5c0-0.8,0.1-1.7,0.1-2.3c0-0.8,0-1.6,0-2.4c0-1.4,0-2.8,0.1-4.1
		c0-0.5,0.1-1,0.1-1.5v-0.1c0-0.3,0-0.7,0.2-1c0.1-0.2,0.4-0.2,0.6-0.2c0.1,0,0.3,0,0.4,0c0.4,0.1,0.4,0.4,0.5,0.8v0.2
		c0,0.4,0,0.9,0,1.2c-0.1,1.3-0.1,2.6-0.1,4c0,0.9,0,1.8,0.1,2.7c0,0.9,0.1,1.9,0.1,2.9c0,0.4,0,0.8,0,1.2c0,0.5,0,0.9-0.1,1.4
		c-0.2,0.7-0.3,1-1.1,1.1c-0.1,0-0.3,0-0.5,0c-0.1,0-0.2,0-0.3,0c-0.3-0.1-0.5-0.5-0.7-0.8c0,0,0,0,0,0
		C146,34.8,145.4,33.2,144.8,31.5z"/>
	<path class="st12" d="M152.3,28.7c0,1.4,0.1,2.9,0.1,4.3c0,0.4,0,0.7,0,1.1c-0.1,0.5-0.3,0.7-0.7,0.7h-0.1c-0.4,0-0.5-0.2-0.6-0.6
		c-0.1-0.5-0.1-1-0.1-1.5v-1c0-1.6-0.1-3.2-0.1-4.8c0-0.4,0-0.8,0-1.2v-0.6c0-0.2,0-0.4,0-0.7v-1.8c0-0.6,0.3-0.8,0.9-0.8
		c0.4,0,0.6,0.1,0.6,0.6c0,0.5,0.1,0.9,0.1,1.4c0,0.2,0,0.3,0,0.4c0,0.4,0,0.7,0,1c0,0.7,0,1.5,0,2.2v0.7V28.7z M154.7,27.7v0.2
		c0,2.1,0.1,4.2,0.1,6.2v1c0,0.2,0,0.4,0,0.6c-0.1,0.9-0.4,1.4-1.5,1.7c-0.2,0-0.4,0.1-0.5,0.1c-0.4,0-0.8-0.1-1.1-0.3
		c-0.3-0.2-0.5-0.4-0.5-0.8c0-0.4,0.2-0.6,0.6-0.7c0.1,0,0.2,0,0.4,0c0.2,0,0.3,0,0.5,0.1c0.1,0.1,0.2,0.1,0.3,0.1
		c0.1,0,0.2-0.1,0.3-0.3c0.2-0.4,0.2-0.8,0.2-1.2v-0.5c0-1.9-0.1-3.8-0.2-5.7c0-1.6,0-3.2,0-4.8c0-0.2,0-0.4,0.1-0.6
		c0.1-0.4,0.4-0.5,0.6-0.5c0.2,0,0.3,0.1,0.5,0.2c0.3,0.2,0.4,0.5,0.5,0.8c0.2,0.5,0.4,1,0.5,1.6c0.4,1.5,1,2.9,1.5,4.3
		c0.5,1.3,1,2.6,1.4,3.9c0,0.1,0.1,0.3,0.2,0.4v-2.1c-0.1-2.7-0.2-5.3-0.2-8c0-0.4,0-0.7,0.1-1c0.1-0.4,0.3-0.5,0.7-0.5
		c0.4,0,0.6,0.2,0.7,0.5c0,0.1,0,0.2,0,0.3v0.2c0,0.9,0,1.8,0,2.7c0,2,0,4,0.1,5.9c0,1.4,0.2,2.7,0.2,4.1v0.3c0,0.2,0,0.4-0.1,0.6
		c-0.1,0.4-0.4,0.6-0.6,0.6c-0.2,0-0.3,0-0.5-0.2c-0.2-0.1-0.3-0.3-0.5-0.5c-0.7-0.8-1.2-1.7-1.5-2.7c-0.7-1.9-1.4-3.9-2.1-5.7
		c0-0.2-0.1-0.3-0.2-0.5C154.7,27.5,154.7,27.5,154.7,27.7z"/>
	<path class="st12" d="M167.8,23.8c0,0.6-0.4,0.7-0.8,0.7h-0.2c-0.2,0-0.2-0.1-0.3-0.3c-0.1-0.2-0.2-0.4-0.3-0.6
		c-0.2-0.3-0.4-0.4-0.6-0.4c-0.6,0-1.2,1.3-1.4,1.8c-0.4,1.2-0.7,2.6-0.7,3.9c0,0.5,0,1,0.1,1.5c0.1,0.7,0.2,1.3,0.3,1.9
		c0.2,0.8,0.5,1.8,1.1,2.5c0.2,0.3,0.5,0.4,0.8,0.4c0.3,0,0.7-0.2,0.9-0.6c0.2-0.4,0.3-1,0.3-1.5c0-0.1,0.1-1.4,0.1-1.4h-0.5
		c-0.5,0-0.7-0.2-0.8-0.7V31c0-0.4,0.2-0.7,0.6-0.8c0.3-0.1,0.7-0.1,1-0.1c0.3,0,0.5,0,0.8,0.1c0.6,0.1,0.7,0.6,0.7,1.3
		c0,0.6-0.2,1.4-0.2,1.7c0,0,0,0.1,0,0.1c-0.1,0.3-0.2,0.6-0.2,0.9c-0.2,1-0.9,3.5-2.3,3.5c-0.1,0-0.2,0-0.2,0
		c-1.1-0.2-2-1.2-2.6-2.1c-0.6-0.9-1-2-1.3-3c-0.1-0.5-0.2-1.1-0.2-1.6c0-0.3,0-0.7,0-1c0-0.3,0-0.5,0-0.8c0.1-1.2,0.1-2.4,0.4-3.6
		c0.2-1.1,0.7-2.4,1.7-3.1c0.4-0.3,1.1-0.6,1.7-0.6c0.1,0,0.2,0,0.3,0C166.9,21.8,167.8,22.7,167.8,23.8z"/>
	<path class="st12" d="M175.7,37.4c-0.5-0.1-0.8-0.4-1.1-0.7c-0.1-0.2-0.2-0.4-0.2-0.5c0-0.2,0-0.3,0.1-0.4c0.1-0.2,0.4-0.4,0.7-0.4
		c0.1,0,0.1,0,0.2,0c0.5,0.1,1.2,0.4,1.8,0.4c0.4,0,0.7-0.1,0.9-0.4c0.5-0.5,0.7-1.5,0.8-2.2c0-0.2,0-0.3,0-0.5c0-0.2,0-0.5-0.1-0.7
		c-0.2-0.8-0.7-1.4-1.2-2.1c-0.5-0.7-1-1.4-1.7-2.1c-0.7-0.7-1.1-1.8-1.1-2.9c0-1.1,0.4-2.2,1.3-2.9c0.6-0.4,1.2-0.6,1.8-0.6
		c0.3,0,0.5,0,0.8,0.1c0.5,0.1,0.9,0.5,1.2,1c0.1,0.1,0.1,0.2,0.1,0.4c0,0.4-0.1,0.7-0.4,0.9c-0.1,0.1-0.3,0.2-0.4,0.2
		c-0.1,0-0.3,0-0.4-0.1c-0.2-0.1-0.3-0.2-0.5-0.4c-0.2-0.2-0.3-0.2-0.5-0.2c-0.4,0-0.7,0.6-0.8,1.1c0,0.1,0,0.2,0,0.3
		c0,0.8,0.5,1.6,0.9,2.3c0.6,1,1.3,2,1.8,3.1c0.3,0.6,0.5,1.3,0.6,1.9c0,0.3,0.1,0.6,0.1,0.9c0,0.4,0,0.8-0.1,1.2
		c-0.1,0.6-0.4,1.3-0.7,1.8c-0.6,1-1.7,1.4-2.9,1.4C176.5,37.6,176.1,37.5,175.7,37.4z"/>
	<path class="st12" d="M184.1,23.8c-0.5,0-1,0-1.5,0h-0.3c-0.5,0-0.9-0.5-0.9-1c0-0.2,0-0.3,0.1-0.4c0.2-0.3,0.4-0.4,0.7-0.4
		c0.9-0.1,1.7-0.1,2.6-0.1h3.4c0.3,0,0.7,0,0.9,0.3c0,0.1,0,0.3,0,0.4c0,0.2,0,0.5-0.1,0.6c-0.1,0.3-0.4,0.4-0.7,0.4h-0.8
		c-0.4,0-0.8,0-1.1,0c-0.1,0-0.1,0-0.2,0c0,0.4-0.1,0.9-0.1,1.4c-0.1,1.5,0,3.1-0.1,4.6c-0.1,2,0,4.1-0.1,6.2V36
		c0,0.6,0,1.3-0.8,1.3c-0.8,0-1.1,0-1.1-0.7c0-0.2,0-0.5,0-0.7c0-0.4,0-0.8,0.1-1.2c0-1.4,0.2-2.4,0.2-3.6v-0.4c0-1.7-0.1-3.3-0.1-5
		v-0.6c0-0.4,0.1-0.7,0.1-1.2V23.8z"/>
	<path class="st12" d="M194.5,25.8c0.3-1.1,0.5-1.9,0.7-3c0-0.2,0.1-0.4,0.2-0.5c0.1-0.4,0.3-0.5,0.6-0.5h0.1c0.5,0,0.7,0.1,0.7,0.5
		c0,0.2,0,0.4-0.1,0.6c-0.2,0.8-0.4,1.7-0.6,2.6c-0.5,2.3-0.9,4.6-1.2,6.9c-0.1,1.3-0.2,2.6-0.4,3.8c0,0.3,0,0.8-0.3,1
		c-0.1,0.1-0.5,0.2-0.8,0.2c-0.2,0-0.4,0-0.5-0.1c-0.5-0.2-0.8-0.5-0.8-0.9c0-0.1,0-0.2,0-0.2c0.2-1,0.2-2,0.5-2.9
		c0.3-1,0.2-2,0.5-2.9c0-0.2,0-0.3,0-0.4c0-0.4-0.1-0.7-0.4-1.1c-1.2-1.8-2.1-3.7-3.1-5.6c-0.1-0.2-0.2-0.3-0.2-0.5
		c0-0.2,0.1-0.4,0.4-0.5c0.3-0.2,0.6-0.4,0.8-0.4c0.3,0,0.6,0.2,0.9,0.9c0.5,1.4,1.2,2.6,1.9,3.9c0.1,0.1,0.2,0.5,0.4,0.8
		C194.1,26.8,194.4,26.1,194.5,25.8z"/>
	<path class="st12" d="M199.5,35.6c0.5,0,2.7-0.3,3-0.4h0.1c0.5,0,0.5,0.3,0.5,0.7c0,0,0,0.1,0,0.2c0,0.1,0,0.2,0,0.4
		c-0.1,0.7-0.2,0.6-1.1,0.7c-0.4,0-0.9,0-1.3,0h-0.9c-0.4,0-0.8,0-1.3,0c-0.6,0-0.5-0.4-0.5-0.9c-0.1-1-0.1-2-0.1-2.9
		c0-1.7,0-3.4,0-5c0-1.1-0.1-2.2-0.1-3.3v-1.1v-1.5c0-0.4,0.2-0.6,0.6-0.6c0.1,0,0.2,0,0.4,0c0.4,0.1,0.6,0.3,0.6,0.7v0.3v0.6
		c0,1.8-0.1,3.7-0.1,5.5v4.6c0,0.6,0,1.3,0.1,2C199.4,35.5,199.4,35.5,199.5,35.6C199.4,35.6,199.4,35.6,199.5,35.6z"/>
	<path class="st12" d="M206,35.6c0,0.2,0.1,0.3,0.3,0.3c0.4,0,1-0.3,1.4-0.3c0.5,0,0.7,0.3,0.7,0.6c0,0.1,0,0.3-0.1,0.5
		S208.2,37,208,37c-0.2,0.1-0.5,0.1-0.8,0.1c-0.6,0-1.2,0-1.9,0c-0.7,0-1-0.3-1-1c0-0.4,0-0.7,0-1.1c-0.1-2.4-0.1-4.9-0.1-7.3
		c0-0.6,0-1.2,0-1.8s0-1.2,0.1-1.8l0.1-1.3c0.1-0.5,0.3-0.8,0.8-0.9c0.6-0.1,1.1-0.2,1.7-0.2c0.3,0,0.7,0,1,0c0.5,0,0.6,0.3,0.6,0.7
		c0,0.4-0.2,0.7-0.6,0.7c-0.4,0-0.8,0-1.2,0.1c-0.2,0-0.4,0-0.6,0.1c0,1.2,0,2.4,0,3.6c0,0.7,0,1.5,0,2.2l1,0.1
		c0.7,0,0.9,0.2,0.9,0.7c0,0.1,0,0.3,0,0.4c-0.1,0.3-0.2,0.5-0.5,0.5c-0.5,0-0.9,0.1-1.4,0.1V35.6z"/>
</g>
</svg>
