<svg id="Layer_1" data-name="Layer 1" xmlns="http://www.w3.org/2000/svg" viewBox="0 0 96.17 61.36"><defs><style>.cls-1,.cls-2{fill:#f48120;}.cls-2{fill-rule:evenodd;}</style></defs><title>runsig_icon_stacked_connect</title><path class="cls-1" d="M134.46,56.94a6.1,6.1,0,0,1,0,1.7,1,1,0,0,1-.88,1h-0.16C132.88,59.53,133,58,133,57.56a10.86,10.86,0,0,0-.29-1.28,2,2,0,0,0-1.79-1.82h-0.23c-1.44.19-2.62,2.05-3.34,3.25l-0.17.31a24.33,24.33,0,0,0-2.7,7.47c-0.16.7-.29,1.43-0.4,2.09a21.07,21.07,0,0,0-.32,6.12A8.74,8.74,0,0,0,125,77.35a2.75,2.75,0,0,0,2.16,1.28,1.81,1.81,0,0,0,1.21-.46,13.42,13.42,0,0,0,3.59-4.73c0.2-.46.62-1.35,1.13-1.35a0.71,0.71,0,0,1,.44.15,0.84,0.84,0,0,1,.15.74c-0.23,1.32-1.37,2.28-2,3.64-0.85,1.32-2.14,3.1-3.64,3.64a5.74,5.74,0,0,1-1.81.35,2.84,2.84,0,0,1-2.16-1,8,8,0,0,1-1.8-4,16.28,16.28,0,0,1-.36-3.76c0.09-1.16.09-2.32,0.26-3.49l0.2-1.16A29.82,29.82,0,0,1,124,61.28l0.14-.39a23,23,0,0,1,2.41-5.11c1-1.55,3-3.17,4.69-3.17a2.27,2.27,0,0,1,1.64.66,6.27,6.27,0,0,1,1.49,3.1,5.36,5.36,0,0,0,.09.58" transform="translate(-121.91 -19.32)"/><path class="cls-1" d="M149.36,67.74c0,0.46-.1,1-0.19,1.55-0.68,3.91-2.68,9.1-6.46,10.88a5.23,5.23,0,0,1-2,.47,3.56,3.56,0,0,1-1.25-.23,6,6,0,0,1-3.08-4.07,17.83,17.83,0,0,1-1.08-4.8,27.17,27.17,0,0,1,.42-5.34c0.2-1.12.48-2.28,0.79-3.41A23.84,23.84,0,0,1,140,55.9a7.35,7.35,0,0,1,5.59-3.21h0.27c1.7,0.12,2.42,1.12,3,2.48s0.61,3,.79,4.65a32.06,32.06,0,0,1-.23,7.59Zm-2.28-11.81a3.86,3.86,0,0,0-.58-1.12,1.43,1.43,0,0,0-1.26-.62c-1.48,0-3.44,1.82-4.32,2.87a16.18,16.18,0,0,0-3.47,7.86,36.31,36.31,0,0,0-.41,5.5,13.87,13.87,0,0,0,.81,5.65,5.08,5.08,0,0,0,1.5,2.13,2.79,2.79,0,0,0,1.73.62,3.28,3.28,0,0,0,2.09-.77,7.29,7.29,0,0,0,2.48-3.25,44.64,44.64,0,0,0,2.27-7.9,19.21,19.21,0,0,0-.83-11" transform="translate(-121.91 -19.32)"/><path class="cls-1" d="M155.17,56.28a0.8,0.8,0,0,0-.33.54,23.26,23.26,0,0,0-.82,2.71c-0.13.5-.21,1-0.29,1.47l-0.45,2.6c-0.34,1.74-.76,3.45-1.06,5.19l-0.11.62c-0.1.58-.16,1.16-0.26,1.7-0.39,2.25-.94,4.49-1.53,6.78-0.19.66-.84,2.79-1.46,2.79a0.54,0.54,0,0,1-.45-0.31,1,1,0,0,1,0-.62c0.12-.7.67-1.63,0.8-2.13a22.93,22.93,0,0,0,.74-3.14c0.24-1.4.45-2.79,0.69-4.18l0.18-1c0.6-3.45,1.48-6.93,2.16-10.42l0.16-.93c0.32-1.82,1-5.38,2.54-5.38,0.94,0,1.19,2.36,1.44,3.14a32.75,32.75,0,0,1,.71,4.69,59.22,59.22,0,0,0,2.3,10.07L161,73.36A10.92,10.92,0,0,0,162,76a0.21,0.21,0,0,0,.18.12,0.57,0.57,0,0,0,.26-0.39c0.09-.54.22-1,0.3-1.51,0.29-1.67.7-3.37,1-5s0.74-3.37,1-5.07c0.18-1,.32-2.05.49-3.06l0.14-.77c0.27-1.36.31-1.09,0.58-2.44a12.31,12.31,0,0,0,.33-1.2l0-.19c0-.15,0-0.31,0-0.5a4,4,0,0,1,.19-0.62c0.21-.54.62-1.36,1.17-1.36,0.08,0,.11,0,0.23,0a0.84,0.84,0,0,1,.25,1c-0.09.5-.29,1-0.35,1.32-0.51,2.28-.73,3.06-1.21,5.38-0.7,3.37-1.28,6.7-1.91,10.07-0.22,1.24-.43,2.44-0.72,3.72a6.51,6.51,0,0,1-1.11,3,0.66,0.66,0,0,1-.42.15,2.24,2.24,0,0,1-1-.62A9.05,9.05,0,0,1,160,75.33a48.33,48.33,0,0,1-2.73-8.52c-0.38-1.67-.62-3.37-0.9-5.11-0.14-.77-0.18-1.67-0.34-2.52a7.16,7.16,0,0,0-.49-2.13,1.86,1.86,0,0,0-.41-0.77" transform="translate(-121.91 -19.32)"/><path class="cls-1" d="M171,60.46c-1,4.61-1.68,9.22-2.56,13.83-0.18,1-.44,2.09-0.66,3.14L167.45,79c0,0.27-.06.54-0.1,0.81a1.42,1.42,0,0,1-.11.39,1,1,0,0,1-.86.47,0.26,0.26,0,0,1-.32-0.19,1.5,1.5,0,0,1,0-.74c0.06-.35.16-0.7,0.22-1l1.13-6.51c0.13-.77.31-1.59,0.46-2.4,0.85-4.88,1.77-9.72,2.81-14.6a2.79,2.79,0,0,1,.7-1.59,0.7,0.7,0,0,1,.28,0c0.66,0,1,1.09,1.1,1.55,0.19,1.39.37,2.83,0.47,4.26a58.86,58.86,0,0,0,2.36,12.47c0.45,1.47.85,3,1.28,4.49a1.53,1.53,0,0,0,.57,1,4.84,4.84,0,0,0,.24-1.12c0.45-2.59.88-5.27,1.33-7.9l0.34-2c0.67-3.64,1.4-7.36,2.16-11a5.77,5.77,0,0,1,.31-1.08,3,3,0,0,0,.14-0.58,1.22,1.22,0,0,1,.51-0.93,1.07,1.07,0,0,1,.32-0.08,0.89,0.89,0,0,1,.55.19,0.81,0.81,0,0,1,.14.77l0,0.23c-1.27,5.27-2.28,10.61-3.23,15.88l-0.15.85c-0.4,2.32-.68,4.61-1,6.93l-0.09.5a3.12,3.12,0,0,1-.36,1.16,1,1,0,0,1-.78.66,0.86,0.86,0,0,1-.57-0.31,3.28,3.28,0,0,1-.74-1.12,39.67,39.67,0,0,1-3.28-9.84c-0.56-2.63-.86-5.34-1.25-8.05a16,16,0,0,0-.36-2.21,15.66,15.66,0,0,0-.58,2.21" transform="translate(-121.91 -19.32)"/><path class="cls-1" d="M187.16,54.66c-0.14.58-.25,1.2-0.35,1.78a20.29,20.29,0,0,0-.29,2.13c0,0.46-.06.77-0.11,1.08s-0.17.77-.17,0.74a4.78,4.78,0,0,0-.22.81,1.62,1.62,0,0,0-.1.39,1,1,0,0,0,0,.35l-0.14.81c-0.06.54-.08,0.7-0.13,1a0.54,0.54,0,0,0,.49.12,6.65,6.65,0,0,0,.74,0c0.51,0,1-.08,1.81-0.08a0.8,0.8,0,0,1,.73.27,0.47,0.47,0,0,1,.06.35,1.1,1.1,0,0,1-.6.77,2.41,2.41,0,0,1-.52.08c-0.23,0-.42,0-0.66,0a2.8,2.8,0,0,1-.58,0c-0.19,0-.34,0-0.54,0s-0.36,0-.51,0a2.78,2.78,0,0,1-.56.08c-0.16.7-.37,1.9-0.57,3.06-0.15.85-.28,1.63-0.33,2.13a10.15,10.15,0,0,1-.15,1.09c-0.09.5-.17,1-0.29,1.43-0.13.73-.18,1.47-0.3,2.17l-0.08.46c-0.13.74-.31,1.55-0.45,2.32l-0.1.58c0.4,0,.82,0,1.29,0s0.9,0,1.33,0l2.4-.12c0.23,0,.59,0,0.94,0a0.91,0.91,0,0,1,.85.27,0.51,0.51,0,0,1,.08.43,0.77,0.77,0,0,1-.37.54,1.36,1.36,0,0,1-.94.27l-2.29.16h-2c-0.55,0-1.06,0-1.6,0-0.31,0-.59,0-0.9,0-0.08,0-.16,0-0.24,0a0.54,0.54,0,0,1-.33-0.11,0.56,0.56,0,0,1,0-.47c0-.23.13-0.5,0.16-0.7l0.25-1.43c0.52-3,1.25-6.55,1.81-9.76,0.24-1.35.42-2.63,0.58-3.8,0.28-2.28.31-3.37,0.63-5.19,0.08-.43.19-0.85,0.28-1.35,0.21-1,.5-2,0.7-2.91a1.21,1.21,0,0,1,1-1,11.72,11.72,0,0,1,2.63-.31c0.39,0,.82,0,1.32,0s1,0.35.89,0.7-0.45.54-1.23,0.58a2.12,2.12,0,0,1-.48,0c-0.43,0-.73-0.08-1.23-0.08a4.23,4.23,0,0,1-.73.16,2.38,2.38,0,0,0-.81.15" transform="translate(-121.91 -19.32)"/><path class="cls-1" d="M203.34,56.71c-0.94,0-1.37-1.74-2-2.05a0.92,0.92,0,0,0-.45-0.12,3.5,3.5,0,0,0-2,1.32,12.63,12.63,0,0,0-1.89,3,46.69,46.69,0,0,0-1.93,4.8,21.06,21.06,0,0,0-.49,2.17,25.62,25.62,0,0,0-.32,4.53c0,0.62,0,1.28,0,1.9a13.69,13.69,0,0,0,.72,3.91,4.11,4.11,0,0,0,1.6,2.25,1.55,1.55,0,0,0,.71.19,1.75,1.75,0,0,0,.86-0.23c1.9-.85,2.29-3.52,3-5.07,0.14-.39.54-1.32,1-1.32s0.72,0.54.59,1.32A15.82,15.82,0,0,1,201.38,77,11.73,11.73,0,0,1,200,79.32a3,3,0,0,1-2.22,1.32,3.4,3.4,0,0,1-.63,0c-3,0-4.15-3.49-4.57-6a18.19,18.19,0,0,1-.17-3.06,34.78,34.78,0,0,1,.5-4.88c0.16-.89.36-1.82,0.59-2.71a21.52,21.52,0,0,1,.57-2.17c0.31-.89.62-1.78,1-2.63a13.77,13.77,0,0,1,2-3.6,12.17,12.17,0,0,1,2.82-2.75,2.22,2.22,0,0,1,1.15-.31,3.45,3.45,0,0,1,2.72,2.05c0,0.08.1,0.12,0.08,0.19l0,0a2.58,2.58,0,0,1,.25,1.28,0.66,0.66,0,0,1-.45.54,0.7,0.7,0,0,1-.28,0" transform="translate(-121.91 -19.32)"/><path class="cls-1" d="M207.8,54.42c-0.39,0-.79,0-1.18.08-0.12,0-.32,0-0.63,0-0.63,0-1.27-.08-1.2-0.5a1,1,0,0,1,.32-0.47,1.33,1.33,0,0,1,1.12-.39H207c0.31,0,.59,0,0.9,0,0.86,0,1.66.08,2.56,0.08a6.56,6.56,0,0,0,.86,0c1.61-.08,3-0.23,4.64-0.23,0.27,0,.67,0,1,0a1,1,0,0,1,1,.31,0.55,0.55,0,0,1,.09.39c-0.16.93-3.78,0.89-4.18,0.93a3.58,3.58,0,0,0-1.07.12,0.64,0.64,0,0,0-.75.7c0,0.27-.11.43-0.15,0.62-0.39,2.25-.8,4.84-1.27,7.51s-1,5.34-1.35,7.55l-1.19,6.82a1.8,1.8,0,0,0-.12.47l-0.09.54a2.05,2.05,0,0,1-.62,1.32,0.85,0.85,0,0,1-.3.16c-0.31,0-.42-0.5-0.42-0.93a21.18,21.18,0,0,1,.35-3.14c0.26-1.51.6-3,.85-4.42,0.52-3,1.28-7.59,1.8-10.57,0.28-1.63.57-3.25,0.9-4.92l0.15-.85a4.59,4.59,0,0,0,.09-1c-1,0-1.93-.12-2.9-0.12" transform="translate(-121.91 -19.32)"/><path class="cls-2" d="M208,22.91c-0.43-.29-3.56-1.48-3.77-1.56-0.41-.22-2-0.86-2.36-1.1-0.5-.36-2-1.4-2.31-0.68a10.26,10.26,0,0,0-.22,3,0.49,0.49,0,0,1-.58.14,10.19,10.19,0,0,1-1.51-.05c-0.26,0-6.91-.29-7.26-0.22s-3.26.06-5.2,0a40.11,40.11,0,0,0-4.43.08,20.52,20.52,0,0,0-3.79.67,5.72,5.72,0,0,0-1.81,1.11c-0.12.1-.79,0.67-0.88,0.79-1.21,1.36-2.08,2.12-3.13,3.4-0.29.36-1.67,2.16-2,2.2-0.89-.84-1.64-1.9-2.49-2.71a26.45,26.45,0,0,0-3.52-2.74,13.52,13.52,0,0,0-4-2.16,23.4,23.4,0,0,0-5.09-.68c-2.83-.07-5.44-0.32-8.11-0.34L140.73,22c0.42,0-1.45,0-1.86,0-1.65.06-4-.19-5.2-0.15-0.92,0-1.69-.14-2.2.35a5.22,5.22,0,0,0,.28,1,12,12,0,0,0,.37,1.18,0.59,0.59,0,0,0,.54.33,38.85,38.85,0,0,0,3.95,0c1.08-.07,17.46.38,18.82,0.49a10.43,10.43,0,0,1,3.91,1,9.18,9.18,0,0,1,.92.61c0.56,0.4,1.15.75,1.69,1.17s1.09,1,1.64,1.45a13.63,13.63,0,0,1,2.63,2.63,3,3,0,0,1,.62,1,6.66,6.66,0,0,1-1.11,1.78,20.68,20.68,0,0,1-3,3.71,9,9,0,0,1-4.29,2.8c-1.91.38-7.4,0.29-8,.4l-1,0c-0.71.09-5.74,0-6.37,0.07a11.05,11.05,0,0,1-1.61.06h-2.9c-2,0-3.95,0-5.91.11-0.23,0-.47,0-0.7.07-0.57.09-.51,0.62-0.57,1.08,0,0.28-.07.56-0.07,0.83a1.88,1.88,0,0,0,.06.55c2.56,0.33,8.75-.13,10.91-0.2,0.72,0,4.71.16,5.4,0s10-.19,10.66-0.15c3.57-.4,5.13-2.08,7-4.38l0.79-.8L167,37.88A11,11,0,0,1,169,35.53c0.58-.24.78-0.06,3.15,3.22,0.43,0.41.81,1,1.24,1.43l0.66,0.9a10.19,10.19,0,0,0,5.26,3.25,24.43,24.43,0,0,0,5.18.19c1.05,0,2.1.11,3,0,1.15-.11,9.29-0.45,9.84-0.31,0.18,0,1,0,1.13,0s0.11,3.31.72,3.77,1.37-.26,1.73-0.49,1-.74,1.46-1c1-.64,4.1-1.84,4.19-2.79a0.83,0.83,0,0,0-.11-0.53,6.43,6.43,0,0,0-1.67-1.25c-0.66-.42-1.21-0.73-1.9-1.09a15,15,0,0,1-1.75-1.14,14.89,14.89,0,0,0-2-1.29c-0.62-.29-0.57,1.43-0.58,1.69,0,0.42,0,.84,0,1.25a0.4,0.4,0,0,1-.07.28,2,2,0,0,1-.7,0c-1.22-.06-2.45,0-3.67,0-1.86-.05-6.28.19-7.77,0.34-0.94,0-2-.08-2.93-0.09a13.27,13.27,0,0,1-2.53-.13,8.32,8.32,0,0,1-3.69-1.82,18.29,18.29,0,0,1-1.9-1.95c-0.34-.3-1.58-1.93-2-2.4a12.12,12.12,0,0,1-1.31-1.52,3,3,0,0,1-.57-0.68,2.15,2.15,0,0,1,.76-2c1.75-1.91,5.14-5.1,5.62-5.54a3.5,3.5,0,0,1,1.36-.6c0.39-.05,2.16-0.2,2.6-0.2s3.83,0,4.83,0H189c1.3,0,4.85-.11,5.21-0.09a43,43,0,0,0,5.22.07,8.06,8.06,0,0,1,0,1.71c0,0.63-.15,1.69.49,1.87a4,4,0,0,0,2-.71c0.12-.13,2.12-1.17,2.71-1.48,0.27-.07,2.12-0.91,2.71-1.15a3.86,3.86,0,0,0,1-.6,1.08,1.08,0,0,0-.35-1.79M195.51,42.76c0.05-.1.09,0,0.14,0s-0.18.14-.14,0m-7.83-2.46a0.1,0.1,0,0,1,.08.09,0.07,0.07,0,0,1-.05.06,0.11,0.11,0,0,1-.1,0,0.17,0.17,0,0,1,0-.09,0.19,0.19,0,0,1,.07,0" transform="translate(-121.91 -19.32)"/></svg>