<svg id="Layer_1" data-name="Layer 1" xmlns="http://www.w3.org/2000/svg" viewBox="0 0 92.63 66.74"><defs><style>.cls-1,.cls-2{fill:#00b39d;}.cls-2{fill-rule:evenodd;}</style></defs><title>runsig_icon_stacked_energize</title><path class="cls-1" d="M10.18,55.47C10,56,9.9,56.64,9.78,57.2a18.48,18.48,0,0,0-.34,2.08c-0.05.45-.07,0.76-0.13,1.06s-0.19.76-.19,0.72a4.13,4.13,0,0,0-.24.8,1.53,1.53,0,0,0-.12.38,1,1,0,0,0,0,.34l-0.16.79c-0.07.53-.1,0.68-0.15,0.94a0.58,0.58,0,0,0,.5.11,6.76,6.76,0,0,0,.75,0c0.52,0,1.06-.08,1.86-0.08a0.82,0.82,0,0,1,.75.26,0.44,0.44,0,0,1,.05.34,1.12,1.12,0,0,1-.64.75,2.63,2.63,0,0,1-.54.07c-0.24,0-.43,0-0.68,0a3,3,0,0,1-.59,0c-0.2,0-.35,0-0.55,0s-0.37,0-.53,0a3,3,0,0,1-.58.07c-0.18.68-.42,1.85-0.65,3-0.17.83-.32,1.59-0.38,2.08A9.48,9.48,0,0,1,7,71.93c-0.1.49-.19,0.94-0.32,1.4-0.15.72-.21,1.44-0.35,2.12l-0.09.45c-0.15.72-.35,1.51-0.5,2.26l-0.12.57c0.41,0,.85,0,1.33,0s0.92,0,1.37,0l2.47-.11c0.24,0,.61,0,1,0a1,1,0,0,1,.87.26,0.47,0.47,0,0,1,.08.42,0.78,0.78,0,0,1-.39.53,1.48,1.48,0,0,1-1,.26L9,80.13H6.92c-0.57,0-1.09,0-1.65,0-0.32,0-.61,0-0.93,0-0.08,0-.17,0-0.25,0a0.56,0.56,0,0,1-.34-0.11,0.52,0.52,0,0,1,0-.45c0-.22.14-0.49,0.18-0.68l0.29-1.4c0.6-2.95,1.42-6.38,2.06-9.52,0.27-1.32.48-2.57,0.67-3.7,0.33-2.23.39-3.28,0.75-5.06C7.75,58.9,7.88,58.49,8,58c0.24-1,.55-1.93.78-2.83a1.24,1.24,0,0,1,1.07-.94,12.73,12.73,0,0,1,2.71-.3c0.4,0,.84,0,1.35,0s1,0.34.91,0.68-0.47.53-1.28,0.57a2.31,2.31,0,0,1-.49,0c-0.44,0-.75-0.08-1.27-0.08a4.81,4.81,0,0,1-.75.15,2.58,2.58,0,0,0-.83.15" transform="translate(-3.69 -16.63)"/><path class="cls-1" d="M21.88,57.05a0.8,0.8,0,0,0-.35.53,22.5,22.5,0,0,0-.9,2.64c-0.14.49-.23,0.94-0.33,1.44l-0.51,2.53c-0.39,1.7-.84,3.36-1.19,5.06l-0.12.6c-0.11.57-.19,1.13-0.3,1.66-0.45,2.19-1.05,4.38-1.71,6.61-0.21.64-.91,2.72-1.56,2.72a0.55,0.55,0,0,1-.46-0.3,1,1,0,0,1,0-.61c0.14-.68.72-1.59,0.86-2.08a21.32,21.32,0,0,0,.82-3.06c0.28-1.36.51-2.72,0.79-4.08l0.2-1c0.69-3.36,1.66-6.76,2.43-10.16l0.18-.91c0.36-1.77,1.11-5.25,2.71-5.25,1,0,1.18,2.3,1.42,3.06a30.24,30.24,0,0,1,.63,4.57,54.45,54.45,0,0,0,2.17,9.82l0.9,2.83a10,10,0,0,0,1,2.57,0.21,0.21,0,0,0,.18.11A0.59,0.59,0,0,0,29,76c0.11-.53.25-1,0.34-1.47,0.33-1.62.79-3.29,1.12-4.91s0.83-3.29,1.17-4.95c0.21-1,.37-2,0.57-3l0.15-.75c0.31-1.32.34-1.06,0.65-2.38a11.63,11.63,0,0,0,.36-1.17l0-.19c0-.15,0-0.3.06-0.49a4.33,4.33,0,0,1,.2-0.6,1.91,1.91,0,0,1,1.23-1.32c0.08,0,.11,0,0.23,0a0.78,0.78,0,0,1,.24,1c-0.1.49-.32,1-0.38,1.28-0.57,2.23-.81,3-1.35,5.25-0.79,3.28-1.45,6.53-2.16,9.82-0.25,1.21-.48,2.38-0.82,3.63a6.25,6.25,0,0,1-1.2,2.94,0.7,0.7,0,0,1-.43.15,2.3,2.3,0,0,1-1-.6,8.51,8.51,0,0,1-1.47-2.64,44.44,44.44,0,0,1-2.64-8.31c-0.35-1.62-.57-3.28-0.83-5-0.13-.76-0.15-1.62-0.3-2.45a6.6,6.6,0,0,0-.46-2.08,1.72,1.72,0,0,0-.41-0.76" transform="translate(-3.69 -16.63)"/><path class="cls-1" d="M51.07,82.62a0.65,0.65,0,0,1-.32.38,1.8,1.8,0,0,1-1.12.38,1.69,1.69,0,0,1-.76-0.19c-2.2-1-1.86-8.38-2.06-10.35,0-.57-0.12-1.17-0.21-1.74l-0.1-.68a3.65,3.65,0,0,0-.17-0.91,2.67,2.67,0,0,0-.28-0.42c-0.11.34-.24,1-0.33,1.4,0,0.19,0,.3,0,0.42a2.67,2.67,0,0,1-.09.26c-0.14.68-.28,1.36-0.45,2-0.22,1.1-.5,2.27-0.74,3.44a26.43,26.43,0,0,1-.66,2.64,1.2,1.2,0,0,1-.91.94,0.41,0.41,0,0,1-.21,0,0.39,0.39,0,0,1-.43-0.45l0.05-.26a15.6,15.6,0,0,0,.64-2.34c0.12-.57.19-1.13,0.3-1.66s0.19-1.13.29-1.62c0.32-1.55.64-3.13,1-4.72H40.73c-0.12,0-1.2,0-1.92,0a2.59,2.59,0,0,0-.69,0,0.37,0.37,0,0,0-.09.23l0.05,0.34L36.6,77.11a12.15,12.15,0,0,0-.21,1.21c0,0.34.08,0.42,0.39,0.45s1,0,1.39,0,1.28,0,1.92,0h0.6c0.2,0,.23.07,0.2,0.19s-0.09.23-.11,0.34a0.58,0.58,0,0,1-.56.57,4.76,4.76,0,0,1-1,.12c-1.09,0-2.58.07-3.71,0.07-0.88,0-1.12-.19-0.94-1.09,0.38-2.08,1-5.55,1.76-9.82a2.19,2.19,0,0,1-.59,0,0.46,0.46,0,0,1-.17-0.53,2.6,2.6,0,0,1,.23-0.53,0.81,0.81,0,0,1,.87-0.53c0.22-1.1.42-2.27,0.66-3.44,0.42-2,.86-4.23,1.43-6.42l0.69-2.61a1.2,1.2,0,0,1,1-.9A17.24,17.24,0,0,1,43.6,54c0.52,0,1,0,1.52,0h0.2c0.4,0,.7.11,0.59,0.64s-0.58.49-1.15,0.53l-3.7.23c-0.56,2.15-1.25,5.36-1.84,8.23-0.29,1.44-.53,2.8-0.75,3.89a16.41,16.41,0,0,0,3.61.19h2.21a1.69,1.69,0,0,0,.47,0l1.68-8.23c0-.23.18-0.68,0.19-0.72l0-.23c0.15-.72.34-1.47,0.51-2.3l0.1-.49a1.9,1.9,0,0,1,1.78-1.85,7.59,7.59,0,0,1,1,0c1.24,0,2.77.15,3.42,1.51a3.4,3.4,0,0,1,.32,1.4,17.21,17.21,0,0,1-.43,4.27l-0.15.71a13.2,13.2,0,0,1-2.33,4.76,5.56,5.56,0,0,1-2.71,1.89,1,1,0,0,0-.48.19,1.31,1.31,0,0,0,0,.23L47.8,69a18,18,0,0,1,.58,4.83c0,1.55.36,4,.7,7.21A1.14,1.14,0,0,0,50.4,82.2h0.32a0.29,0.29,0,0,1,.35.26s0,0.11,0,.15m0-18.84,0.22-.49A12.73,12.73,0,0,0,52,61a18.32,18.32,0,0,0,.35-3.66,1.85,1.85,0,0,0-2-2,2.49,2.49,0,0,0-.53,0,3.84,3.84,0,0,0-1.21.42c-0.16.79-.33,1.62-0.53,2.42-0.06.3-.58,2.64-1,4.91a22.44,22.44,0,0,0-.71,4.45c0.24,0,.86-0.07.9-0.07,1.71-.34,3.11-2.27,3.84-3.7" transform="translate(-3.69 -16.63)"/><path class="cls-1" d="M65.55,57.62l-0.26-.53a9.92,9.92,0,0,1-.36-1,1.11,1.11,0,0,0-1.25-.94,5.35,5.35,0,0,0-2.82,1.62,16.54,16.54,0,0,0-2.11,2.87,16.71,16.71,0,0,0-2.38,6.19c-0.19.91-.32,1.78-0.46,2.64-0.1,1.09-.37,2.23-0.41,3.4,0,1.66.19,4,1.08,5.32C57.09,77.9,57.91,79,59,79a1.68,1.68,0,0,0,1.13-.45A6,6,0,0,0,61,77.41c1.4-2.15,2.11-6,2.91-8.38,0,0,0,0-.15,0-0.4,0-1.44.19-2.32,0.19-0.72,0-1.26-.11-1.13-0.76s1.89-1,3.38-1c1.16,0,2.19.26,2.12,1l0,0.15a9.12,9.12,0,0,1-.6,1.59c-0.69,1.81-1.74,5.21-2.58,7a9.17,9.17,0,0,1-1.59,2.49,2.78,2.78,0,0,1-2.08,1.17,3.62,3.62,0,0,1-1.26-.3c-1.95-.87-3.34-3.66-3.48-5.74A18.25,18.25,0,0,1,54,71.21c0.13-1.25.33-2.42,0.58-3.62a41.94,41.94,0,0,1,1.26-4.79,18,18,0,0,1,1.23-2.87,15.6,15.6,0,0,1,2.8-3.74,8.51,8.51,0,0,1,3.32-2.53,3.19,3.19,0,0,1,1-.19,1.89,1.89,0,0,1,1.27.45,3.91,3.91,0,0,1,1.08,3l-0.07.34a1,1,0,0,1-.63.53,0.3,0.3,0,0,1-.29-0.15" transform="translate(-3.69 -16.63)"/><path class="cls-1" d="M68.19,78.92a7,7,0,0,1-.26.87,0.91,0.91,0,0,1-.77.64,0.8,0.8,0,0,1-.75-0.83,7,7,0,0,1,.14-1.28c0.08-.42.22-0.87,0.31-1.32l0.08-.38A2,2,0,0,1,67,76.12c0.09-.45.26-0.91,0.36-1.4l0.09-.41c0.21-2,.58-4,1-6.08,0.53-2.61,1.13-5.17,1.66-7.78L70.4,59a20.75,20.75,0,0,0,.34-2.64,5,5,0,0,1,.08-1.17,1.88,1.88,0,0,1,.58-1.09,1.26,1.26,0,0,1,.37-0.23,1.67,1.67,0,0,1,.55-0.11,0.64,0.64,0,0,1,.68.79c-0.16,1.4-.37,2.79-0.65,4.19-0.41,2-.94,4-1.47,6-0.06.27-.14,0.49-0.19,0.76-0.21.83-.42,1.66-0.58,2.45-0.48,2.34-.75,4.64-1.2,7.06-0.26,1.28-.49,2.61-0.71,3.89" transform="translate(-3.69 -16.63)"/><path class="cls-1" d="M76.82,54.07c0.52,0,1,.08,1.63.08a3.19,3.19,0,0,0,.57,0h1.44a10.35,10.35,0,0,1,1.1-.08c0.8,0,1.53,0,2.25,0A10.79,10.79,0,0,1,85,54c1.31,0.08,1.79.45,1.6,1.4a6.38,6.38,0,0,1-.45,1.25,83.41,83.41,0,0,1-5.29,9.25c-0.7,1.06-1.4,2.15-2.22,3.21-1.66,2.26-4.07,6.61-5.69,9a1.12,1.12,0,0,0-.19.34c0,0.23.06,0.3,0.29,0.34s0.74-.11,1.1-0.11c0.52,0,1.12,0,1.67.07,1.22,0.11,2.43-.11,3.63-0.11a6.29,6.29,0,0,1,1.26-.07,2.4,2.4,0,0,1,.57.15,0.35,0.35,0,0,1,.16.41,1.45,1.45,0,0,1-1,.68c-1.3.49-2.65,0.22-4,.3-1.54.07-3.1,0.26-4.69,0.42a0.44,0.44,0,0,1-.32,0,0.77,0.77,0,0,1-.74-1.1A1.9,1.9,0,0,1,71,78.92c2-3.25,4.82-8.31,7-11.4A94.61,94.61,0,0,0,84.36,57a1.19,1.19,0,0,1,.13-0.26,3.84,3.84,0,0,0,.38-0.87c0.09-.45-0.26-0.49-1-0.49s-1.52,0-2.28,0-1.8.19-2.73,0.23c-0.69,0-1.42.08-2.1,0.08a6.62,6.62,0,0,1-.87,0c-0.47,0-1.12-.23-1-0.68A1.14,1.14,0,0,1,75,54.64a1.67,1.67,0,0,1,1.56-.57h0.24Z" transform="translate(-3.69 -16.63)"/><path class="cls-1" d="M91.69,55.47c-0.15.57-.28,1.17-0.39,1.74a18.42,18.42,0,0,0-.34,2.08c-0.05.45-.07,0.76-0.14,1.06s-0.19.76-.18,0.72a4.31,4.31,0,0,0-.24.8,1.47,1.47,0,0,0-.12.38,1,1,0,0,0,0,.34l-0.16.79C90,63.89,90,64,89.93,64.3a0.58,0.58,0,0,0,.5.11,6.72,6.72,0,0,0,.75,0c0.52,0,1.06-.08,1.86-0.08a0.83,0.83,0,0,1,.75.26,0.46,0.46,0,0,1,.05.34,1.11,1.11,0,0,1-.64.75,2.65,2.65,0,0,1-.54.07c-0.24,0-.43,0-0.67,0a3,3,0,0,1-.59,0c-0.2,0-.35,0-0.55,0s-0.37,0-.53,0a3,3,0,0,1-.58.07c-0.18.68-.42,1.85-0.65,3-0.17.83-.32,1.59-0.38,2.08a9.48,9.48,0,0,1-.18,1.06c-0.1.49-.19,0.94-0.32,1.4-0.15.72-.21,1.44-0.35,2.12l-0.09.45c-0.15.72-.35,1.51-0.5,2.26l-0.12.57c0.41,0,.85,0,1.33,0s0.92,0,1.37,0l2.47-.11c0.24,0,.61,0,1,0a1,1,0,0,1,.87.26,0.47,0.47,0,0,1,.08.42,0.77,0.77,0,0,1-.39.53,1.47,1.47,0,0,1-1,.26l-2.36.15H88.43c-0.57,0-1.09,0-1.65,0-0.32,0-.61,0-0.93,0-0.08,0-.17,0-0.25,0a0.55,0.55,0,0,1-.34-0.11,0.52,0.52,0,0,1,0-.45c0-.22.14-0.49,0.18-0.68l0.29-1.4c0.6-2.95,1.42-6.38,2.06-9.52,0.27-1.32.48-2.57,0.68-3.7,0.33-2.23.39-3.28,0.75-5.06,0.08-.41.21-0.83,0.31-1.32,0.24-1,.55-1.93.78-2.83a1.24,1.24,0,0,1,1.08-.94,12.7,12.7,0,0,1,2.71-.3c0.4,0,.84,0,1.36,0s1,0.34.9,0.68-0.47.53-1.28,0.57a2.29,2.29,0,0,1-.49,0c-0.44,0-.75-0.08-1.27-0.08a4.72,4.72,0,0,1-.75.15,2.6,2.6,0,0,0-.83.15" transform="translate(-3.69 -16.63)"/><path class="cls-2" d="M11.32,38a1.47,1.47,0,0,0,.15.19l0.12,0v0c0.16,0,1.41.11,1.61,0.17h0.6a4,4,0,0,0,1,0h8.72a15.49,15.49,0,0,0,3.1-.09,1,1,0,0,0,.3-0.1A1,1,0,0,0,27.11,38a4.07,4.07,0,0,0,.6-2.26,33.45,33.45,0,0,1,.69-5.1,6.19,6.19,0,0,1,1-1.73,3.37,3.37,0,0,1,1.13-1.19,2.38,2.38,0,0,1,1.17-.28v0h0.07v0h0v0h0a3.82,3.82,0,0,1,1,.92,4.43,4.43,0,0,1,1,1.76,7.37,7.37,0,0,1,.14,2.3c0,2-.11,4.1-0.06,6,0.06,2.28-.06,4.42,0,6.53,0.08,1.62.17,2.73,1.37,3.82s3.08,1.55,4.31.53a5.58,5.58,0,0,0,1.19-1.23C42,46.14,42,43.91,42,41.62V37.68s0-.27,0-0.41l0-.43h0c0-5.47-.32-10.9,2.12-16a1.75,1.75,0,0,1,2.49-.93,1.9,1.9,0,0,1,.47,1.33c0,0.56,0,1.13,0,1.69s0,1.38,0,2.08c0.05,2.25.38,4.46,0.42,6.74q0.09,5.25.19,10.51c0,1.66-.19,4.12,1,5.45,0.17,0.18.41,0.62,0.59,0.79l0.38,0.34a2.33,2.33,0,0,0,1.4.73,7.18,7.18,0,0,0,2.39-.2,5.3,5.3,0,0,0,1.72-1A4.39,4.39,0,0,0,56,47.89a3.53,3.53,0,0,0,.61-1,15.2,15.2,0,0,0,1.09-4.6l0.11-3s0-1.45.1-2.56a10,10,0,0,1,.1-1.12c0.21-.73.19-3.28,2.43-2.51a2.49,2.49,0,0,1,1,1.46,23,23,0,0,1,.29,4c0,1.11,0,2.17,0,3.72,0,0.17,0,1,0,1.11l0,0.41s0,0.38,0,.43a4,4,0,0,0,.8,2.06,2.35,2.35,0,0,0,1.45,1c0.92,0.18,2.76.36,3.51-.29a3.46,3.46,0,0,0,.79-1A9.76,9.76,0,0,0,69.29,42a30.79,30.79,0,0,1,.38-3.95A0.57,0.57,0,0,1,70,37.53a13.44,13.44,0,0,1,1.55-.23c1.29-.06,5.11-0.07,5.11-0.07h1.76c0.2,0,.73,0,0.86,0,0.54,0.1.64,0.22,0.64,0.61,0,0.1.08,1.6,0.07,1.65h0l0,1v0A1.41,1.41,0,0,0,80,41a0.14,0.14,0,0,1,.1,0,2.71,2.71,0,0,0,1-.49c0.42-.2.88-0.32,1.31-0.5,1.45-.59,2.62-1.72,4-2.36A11.62,11.62,0,0,0,87.85,37c2.6-1.61-1.64-2.58-2.71-3.08a12,12,0,0,1-1.85-1.15c-0.76-.54-2.35-2.26-3.3-1.71l0,0.15h0v0.17h0v0.12h0v0.19h0v0.07h0l0.27,2.67,0,0.17v0.23l0,0.12L80.1,35h0l0,0s-2.28,0-2.46.1l-0.24,0-2.36.1-3.23,0c-1.11,0-2.5-.21-3.4.56-1.11,1-.88,2.71-0.91,4a11.11,11.11,0,0,1-.74,4.47,1.59,1.59,0,0,1-.55.72,1.38,1.38,0,0,1-2-.72,8.19,8.19,0,0,1-.33-2.29c0-1-.06-2,0-3.07a15.89,15.89,0,0,0-.5-5.92,3.14,3.14,0,0,0-1.56-1.89,3.63,3.63,0,0,0-1.45-.51,3.2,3.2,0,0,0-1.69.27,4,4,0,0,0-2.2,2.13,6.32,6.32,0,0,0-.71,2.8c0,0.5-.09,2.26-0.1,2.76,0,1.63-.12,2.17-0.24,3.66-0.16,1.86-.69,5.63-3.5,4.53a3.26,3.26,0,0,1-1.87-2.46,8.69,8.69,0,0,1-.09-1.89c0.1-3.7.53-7.56,0.18-11.25a40.86,40.86,0,0,1-.28-8.53,10.65,10.65,0,0,0-.29-3.44,2.72,2.72,0,0,0-1.53-2.18,4.29,4.29,0,0,0-3.91.06,4,4,0,0,0-1.2.74,7.74,7.74,0,0,0-1.28,2.07,14.88,14.88,0,0,0-.68,2.55c0,1.8-1,3.58-1,5.4h0l-0.09,2.19s0,1.65,0,1.76l0,0.14,0,4.67s0,1.08-.07,1.23v0.17h0v3.67s0,0.76,0,1.08c0,0.56-.1,1-0.1,1.54,0,1.83-1,2.83-1.52,2.83-1.37,0-1.15-1.26-1.3-2.11a16.08,16.08,0,0,1-.18-2.29c0-1.47-.09-2.94-0.16-4.4a50.23,50.23,0,0,1-.07-5A21,21,0,0,0,36,29.12c-0.36-2.45-1.67-3.75-4.21-3.88a5.78,5.78,0,0,0-3.66,1.26A4,4,0,0,0,27,28.33c-1,2.31-1,5-1.46,7.49a1.15,1.15,0,0,1-.23.61,1.17,1.17,0,0,1-.79.28q-3,.26-6.06.23-1.55,0-3.1-.1a10.21,10.21,0,0,1-1.51-.11,1.4,1.4,0,0,0-1-.2,5.73,5.73,0,0,0-1.54,1.37V38Z" transform="translate(-3.69 -16.63)"/></svg>