<svg id="Layer_1" data-name="Layer 1" xmlns="http://www.w3.org/2000/svg" viewBox="0 0 90.74 59.73"><defs><style>.cls-1,.cls-2{fill:#00bce7;}.cls-2{fill-rule:evenodd;}</style></defs><title>runsig_icon_stacked_cushion</title><path class="cls-1" d="M138.23,173.25a5.71,5.71,0,0,1,0,1.71,1,1,0,0,1-.95,1h-0.17c-0.59-.12-0.41-1.63-0.48-2.1a10.2,10.2,0,0,0-.28-1.28,2,2,0,0,0-1.86-1.83h-0.25c-1.52.19-2.81,2.06-3.59,3.26l-0.19.31a24.07,24.07,0,0,0-3,7.5c-0.18.7-.33,1.44-0.47,2.1a20.12,20.12,0,0,0-.47,6.14,8.3,8.3,0,0,0,1.28,3.65A2.87,2.87,0,0,0,130,195a2,2,0,0,0,1.29-.47,14,14,0,0,0,3.9-4.74c0.22-.47.69-1.36,1.23-1.36a0.78,0.78,0,0,1,.46.15,0.81,0.81,0,0,1,.14.74c-0.27,1.32-1.5,2.29-2.15,3.65-0.93,1.32-2.32,3.11-3.92,3.65a6.43,6.43,0,0,1-1.93.35,3,3,0,0,1-2.27-1,7.7,7.7,0,0,1-1.83-4,15.46,15.46,0,0,1-.31-3.77c0.11-1.17.15-2.33,0.34-3.5l0.24-1.17a29.17,29.17,0,0,1,1.83-5.94l0.16-.39a23.05,23.05,0,0,1,2.65-5.13c1.14-1.55,3.21-3.18,5-3.18a2.43,2.43,0,0,1,1.72.66,6,6,0,0,1,1.51,3.11,5.11,5.11,0,0,0,.09.58" transform="translate(-124.63 -140.14)"/><path class="cls-1" d="M142.57,182.69c-0.39,2.1-.75,4.27-1,6.41,0,0.08,0,.16,0,0.23-0.19,1.75-.44,4,0.61,5.32a2.39,2.39,0,0,0,2,.89,4,4,0,0,0,2.66-1.09,9.8,9.8,0,0,0,2.77-5.52c0.34-1.67.76-3.3,1.09-5l0.17-.82c0.35-1.71,1.06-5.4,1.37-7.11,0.21-1.24.38-2.49,0.64-3.77a16.1,16.1,0,0,1,.9-3,1.52,1.52,0,0,1,.94-1,0.57,0.57,0,0,1,.34.15,1.78,1.78,0,0,1,0,1.4c-0.12.58-.28,1.16-0.34,1.47s-0.13.85-.22,1.28c-0.17.86-.39,1.71-0.56,2.56-0.51,2.49-1.41,6.91-1.87,9.4a60.76,60.76,0,0,1-1.84,6.37c-0.09.23-.14,0.47-0.22,0.7a14.74,14.74,0,0,1-2.07,3.69,3.19,3.19,0,0,1-1.14.93,5.24,5.24,0,0,1-2.49.66,4.77,4.77,0,0,1-3.62-1.86c-1-1.24-.84-3.14-0.72-4.78,0-.12,0-0.19,0-0.31a114.44,114.44,0,0,1,1.88-11.66c0.38-1.86.88-3.69,1.29-5.52l0.15-.74a4,4,0,0,1,.56-1.52,1.11,1.11,0,0,1,.71-0.47c0.45,0,.62.82,0.52,1.32l-0.06.27c-0.2,1-.6,1.94-0.81,3-0.13.62-.29,1.24-0.42,1.87-0.29,1.4-1,4.74-1.22,6.18" transform="translate(-124.63 -140.14)"/><path class="cls-1" d="M167.71,170.69a6.23,6.23,0,0,0-2.35-.43,3.73,3.73,0,0,0-1.41.23,4.51,4.51,0,0,0-1.83,1.9,3.54,3.54,0,0,0-.31.89,2.44,2.44,0,0,0,0,.78,8.36,8.36,0,0,0,.74,3.27c0.74,1.63.93,4.12,1.42,5.79a9.79,9.79,0,0,1,.1,4.59,15.69,15.69,0,0,1-.55,1.86c-1,2.6-3.57,6.37-6.88,6.84a6.75,6.75,0,0,1-.92,0c-2.19,0-5.67-.7-5.4-2.06a1.25,1.25,0,0,1,.28-0.54,0.56,0.56,0,0,1,.49-0.19,3.49,3.49,0,0,1,1.49.58,5.18,5.18,0,0,0,2.8.82,4.29,4.29,0,0,0,3.05-1.2,10.63,10.63,0,0,0,3.14-4.66l0.24-1.2a15.71,15.71,0,0,0,.39-3.11,16.12,16.12,0,0,0-.54-4.66c-0.32-.85-0.69-1.67-1-2.52a9,9,0,0,1-.77-2.68,6.25,6.25,0,0,1,.1-1.52,5.46,5.46,0,0,1,2.61-3.69,7.17,7.17,0,0,1,3.53-.93,5.33,5.33,0,0,1,1.37.16c0.68,0.12,2.71,1.67,2.49,2.76a1.12,1.12,0,0,1-.77.74,0.33,0.33,0,0,1-.22.08,0.13,0.13,0,0,1-.12,0c-0.58-.19-0.67-1.59-1.19-1.86m7.69,26.07c-0.83,0-.71-0.58-0.6-1.13l0.06-.27c0.38-2.29.41-4.43,0.86-6.87l0.07-.35a17.19,17.19,0,0,0-2-.12c-2.06,0-4.18.27-6.2,0.27h-0.37l-1.29,6.33a7.77,7.77,0,0,0-.24,1,6.67,6.67,0,0,1-.23.93,0.89,0.89,0,0,1-.84.46h-0.21a0.64,0.64,0,0,1-.49-0.82l0.16-.78c0.94-4.23.88-3.3,1.73-7.5,0.62-3,1.26-7.38,2-10.92,0.17-.82.37-1.63,0.52-2.33,0,0,.18-0.27.24-0.39a0.72,0.72,0,0,1,.59-0.47,0.88,0.88,0,0,1,.67.35,3.19,3.19,0,0,1-.07.54,5.17,5.17,0,0,1-.18.7l-0.23,1.13c-0.57,2.8-1.16,6.72-1.61,9.13l-0.1.51a3.46,3.46,0,0,0-.09.62c2.68,0,5.6-.16,8.37-0.39a0.52,0.52,0,0,0,.3-0.47c0-.23.06-0.51,0.09-0.66,0.35-1.94,1.19-6.45,1.93-10.06,0.35-1.71.69-3.19,0.92-4.12l0.1-.47a1.82,1.82,0,0,1,.44-0.93,1.24,1.24,0,0,1,.66-0.19,1.39,1.39,0,0,1,.4.08,0.46,0.46,0,0,1,.25.62,3.65,3.65,0,0,1-.09.66c-0.39,1.9-1.22,5.79-1.93,9.28-0.48,2.33-.92,4.51-1.09,5.75-0.52,3.34-.21,2.88-0.91,6.29l-0.69,3.38c0,0.2,0,.39-0.08.58a0.66,0.66,0,0,1-.62.62H175.4Z" transform="translate(-124.63 -140.14)"/><path class="cls-1" d="M182.34,182.69c0.34-1.67.73-3.38,1.2-5.09l1.83-7a5.28,5.28,0,0,1,.55-1.67,0.36,0.36,0,0,1,.3-0.23h0.45a0.53,0.53,0,0,1,.48.7L187,170c-0.73,3.58-1.78,7.11-2.59,10.69-0.27,1.13-.5,2.25-0.72,3.34l-0.67,3.3c-0.54,2.64-1.12,5.28-1.7,7.93a2.52,2.52,0,0,1-.35.89,1.15,1.15,0,0,1-1.13.66h-0.25c-0.53,0-.54-0.39-0.54-0.78l0-.08,0.24-1,2.41-9.79Zm15.51,3.46a29,29,0,0,1-1.37,4.7c-0.65,1.59-1.25,3.5-2.85,4.66a4.83,4.83,0,0,1-2.84,1,4,4,0,0,1-3.27-1.55c-1.94-2.6-2.32-6.22-2.09-9.6a21.58,21.58,0,0,1,.41-3.22l0.15-.74c0.24-1.21.57-2.41,0.94-3.61a16.39,16.39,0,0,1,.63-1.86s0.06-.12.07-0.15a18.57,18.57,0,0,1,.87-1.83,20.28,20.28,0,0,1,1.21-1.9,9.06,9.06,0,0,1,2.26-2.18,4.15,4.15,0,0,1,2-.66,2.41,2.41,0,0,1,.88.15,4.77,4.77,0,0,1,2.34,2.87,16.83,16.83,0,0,1,1,4.2,32.6,32.6,0,0,1,.06,7c-0.11.93-.26,1.86-0.44,2.76m4.88-9.6c-1.15,4.62-1.16,4.7-2.11,9.36l-0.88,4.31a21.81,21.81,0,0,1-1.28,4.66,8.73,8.73,0,0,1-7.35,4.9,11.27,11.27,0,0,1-1.13.08,7.22,7.22,0,0,1-2-.27,7.12,7.12,0,0,1-2-.85,0.61,0.61,0,0,1-.35-0.7,1.45,1.45,0,0,1,1.05-1.13,1,1,0,0,1,.43.12,7.09,7.09,0,0,0,3.53.89h0.25a6,6,0,0,0,4-1,9.43,9.43,0,0,0,3-4.16,23.4,23.4,0,0,0,.62-2.64c0.47-2.33,1-5.36,1.21-6.33l0.5-2.45c1-4.9,1.15-5.25,2.4-10.14a2.33,2.33,0,0,1,.78-1.59,1,1,0,0,1,.31-0.08c0.7,0,1,1.13,1.13,1.55,0.16,1.44.32,2.88,0.4,4.31A55.18,55.18,0,0,0,207.33,188c0.48,1.48.71,3.81,1.14,5.32a1.38,1.38,0,0,0,.62,1l0.06-.31,0.16-.78c0.68-3.34,1.49-7.5,2.16-10.8,0.8-3.73.84-3.3,1.67-7a5.09,5.09,0,0,1,.34-1,0.58,0.58,0,0,0,.08-0.19l0.09-.47a1.43,1.43,0,0,1,.56-0.93,1.38,1.38,0,0,1,.39-0.08,0.86,0.86,0,0,1,.54.19,0.6,0.6,0,0,1,.2.66c0,0.12-.09.23-0.11,0.35-1.46,5.36-1.74,6.53-2.87,11.89L212.13,187c-0.49,2.41-1,5.29-1.42,7.58,0,0.16,0,.35-0.06.51a4.49,4.49,0,0,1-.44,1.17,1,1,0,0,1-.79.62,1,1,0,0,1-.65-0.27,3.44,3.44,0,0,1-.75-1.17c-1.45-2.8-2.26-6.53-3-9.79l-0.18-.93c-0.53-2.68-.8-5.4-1.14-8.2a10.82,10.82,0,0,0-.34-2.18,9.29,9.29,0,0,0-.67,2.25m-5.93,6a13,13,0,0,0,.13-2.25,23.38,23.38,0,0,0-.7-5.28,11.78,11.78,0,0,0-.93-2.72l-0.06-.12a2,2,0,0,0-1.52-1.44c-0.95,0-1.77,1-2.31,1.63a17.5,17.5,0,0,0-3.44,7.19,23.07,23.07,0,0,0-.8,2.72l-0.07.35a19.81,19.81,0,0,0,0,3.88,21.09,21.09,0,0,0,.47,3.77,9.25,9.25,0,0,0,.63,2,4.84,4.84,0,0,0,1.47,1.9,2.45,2.45,0,0,0,1.46.54,2.83,2.83,0,0,0,2-1,8.61,8.61,0,0,0,2.29-4.16c0.31-1.12.63-2.29,0.86-3.42l0.19-.93c0.16-.81.28-1.59,0.41-2.41a0.38,0.38,0,0,0,0-.27" transform="translate(-124.63 -140.14)"/><path class="cls-2" d="M131,159.87c0.08,0.67,3.06.49,3.19,0.57a0.78,0.78,0,0,0,.44.11c4-.16,4.56,0,6.73-0.1,0.49,0,10.59-.19,10.92-0.39,0.76-.48.35-1,0.45-2,0-.16,0-1.89,0-2.4s0-.92,0-1.37c0-.82,0-2.55,0-2.55h0c0-.68.19-1.48,0.28-2.16a7.3,7.3,0,0,1,.71-2.68,7.61,7.61,0,0,1,.92-1.25c0.26-.31.53-0.62,0.82-0.91a8.35,8.35,0,0,1,5-2.37,6.26,6.26,0,0,1,2.79.13,9.06,9.06,0,0,1,3.51,2.91,21.11,21.11,0,0,1,2.95,4,5.11,5.11,0,0,0,.82,1l0.1,0a1,1,0,0,0,.88-0.43,15.79,15.79,0,0,1,1.46-1.31c1.35-1.11,2.92-2.26,4.78-1.88a3.69,3.69,0,0,1,1.52.8,9.85,9.85,0,0,1,2.86,3.71,7.14,7.14,0,0,0,.36.66,1.73,1.73,0,0,0,.77,1,1.28,1.28,0,0,0,.85,0c0.19-.08,1.46-0.77,2.12-1.14a5.32,5.32,0,0,1,2.55-1,7.64,7.64,0,0,1,1.27.11,7.14,7.14,0,0,1,2.13,1.8,8.54,8.54,0,0,1,.78,1.87c0.26,1.53.29,4.21,0.39,4.71a1.34,1.34,0,0,0,1.35,1.22c1,0.12,2.24-.27,3.28-0.23,0.69,0,1.38-.17,2.06-0.16a0.55,0.55,0,0,1,.65.24,0.91,0.91,0,0,1,.09.37c0.05,0.53.12,1.72,0.1,1.82-0.06.56,0.25,1.26,0.69,1,0.93-.66,6.37-3.5,6.9-3.89a0.92,0.92,0,0,0,.41-1.08,1,1,0,0,0-.31-0.32,7.15,7.15,0,0,0-1.83-1,9.89,9.89,0,0,1-1.29-.71,10.77,10.77,0,0,0-2.39-1.4c-0.62-.26-2.3-1.08-2.41-0.9a8.23,8.23,0,0,0,.25,2l0,0.29a1.25,1.25,0,0,1-.67.94,11.65,11.65,0,0,1-2.16.27,19.42,19.42,0,0,1-2.46.1,6,6,0,0,1-.1-0.75c0-.8-0.33-1.51-0.32-2.31a4.24,4.24,0,0,0-.38-1.75,6.53,6.53,0,0,0-1.15-2.24,5.12,5.12,0,0,0-1-1,5.49,5.49,0,0,0-1.25-.7,5.78,5.78,0,0,0-3-.3,27.85,27.85,0,0,0-3.63,1.4l-0.74.3a3.53,3.53,0,0,1-.2-0.49,13.13,13.13,0,0,0-1-1.81,5.76,5.76,0,0,0-.64-0.76c-0.19-.21-0.42-0.42-0.63-0.61a6.9,6.9,0,0,0-5.39-1.94,8.38,8.38,0,0,0-2.76.94,7.94,7.94,0,0,0-.83.48,11.32,11.32,0,0,1-1.57,1.29c-0.18-.13-1.17-1.9-1.49-2.32s-1.09-1.48-1.36-1.72c-2.28-2-4.58-3.61-7.61-3.28-0.55.06-1.1,0.16-1.64,0.26a16.74,16.74,0,0,0-2.92,1.09,12.13,12.13,0,0,0-3.59,3.13c0,0.08-.14.13-0.19,0.21a15.93,15.93,0,0,0-2.2,6.74,21.3,21.3,0,0,0-.07,2.89,12.73,12.73,0,0,1,0,1.65,6.5,6.5,0,0,1-.2.83,1.94,1.94,0,0,1-.83.85l-2.14.26c-0.59.07-14.47,0.32-14.47,0.32l-0.21,0a4.28,4.28,0,0,0-1,.12l-0.12.1v0a0.29,0.29,0,0,0,0,.33Z" transform="translate(-124.63 -140.14)"/></svg>