<svg viewBox="0 0 400 200" xmlns="http://www.w3.org/2000/svg" role="image">
<title>Marathon</title>
<g id="Fills1">
	<path style="fill:#ABC0DE;" d="M275.8,132c1-0.1,2-0.2,3.1-0.3c0.5,0,0.9,0,1.4,0c0.8,0,1.7,0.1,2.5,0.1c1.8,0,3.6,0.1,5.4,0
		c2.2,0,4.3-0.2,6.5-0.2c2.6-0.1,5.2-0.1,7.8-0.1c2.6,0,5.1,0,7.7,0c1.3,0,2.5-0.1,3.7-0.2c1.4-0.1,1.7,1.5,2.4,2.8
		c0.1,0.3,0.1,0.6,0.2,0.9c0,1.5,0.1,3.1,0.1,4.6c0,1.1,0,2.1,0,3.2c0,1-0.1,2-0.1,2.9c0,0.1,0,0.2-0.1,0.3c-0.9,1-1.7,2.2-3.4,2.3
		c-4.2,0.3-8.3,0.4-12.5-0.1c-2.2-0.2-4.3-0.3-6.5-0.5c-2.6-0.2-5.2-0.2-7.7-0.4c-1.8-0.2-3.6,0-5.4,0.1c-3.4,0.1-6.8,0.2-10.2,0.4
		c-1.7,0.1-3.4,0.1-5.1,0.2c-1.1,0-2.1-0.1-3.2-0.1c-2.6,0-5.2-0.1-7.8-0.1c-0.2,0-0.5,0-0.7,0c-0.2,0-0.4-0.2-0.4-0.3
		c0.2-0.7-0.5-1.1-0.7-1.7c-0.1-0.2-0.2-0.5-0.2-0.7c-0.1-1.5-0.2-3-0.2-4.5c0-1.1,0-2.1,0-3.2c0-0.7,0.2-1.1,0.8-1.4
		c0.3-0.2,0.6-0.5,0.8-0.8c0.4-0.5,0.8-1.2,1.3-1.7c1.3-1.3,2.6-2.5,3.8-3.8c1.5-1.5,3-3,4.4-4.6c2-2.1,4-4.3,6-6.5
		c1.3-1.4,2.6-2.9,3.9-4.3c2-2.2,4.1-4.3,6.1-6.5c1.2-1.3,2.4-2.7,3.7-4c2.5-2.5,5-5,7.4-7.6c1.9-2,3.8-3.9,5.6-6
		c2.1-2.4,3.4-5.2,4.4-8.2c0.1-0.2,0.1-0.5,0.2-0.7c0.5-1.3,0.5-2.7,0.2-4c-0.3-1.4,0.6-3.5,0.1-4.7c-0.2-0.5-0.5-0.9-0.9-1.2
		c-2.3-1.9-4.8-3.3-7.8-4c-1.7-0.4-3.5-0.6-5.2-0.6c-1.2-0.1-2.2,0.4-3.3,0.9c-2.5,1-6,3-8.1,4.5c-1.5,1.1-2.9,2.3-4.4,3.5
		c-0.9,0.8-1.9,1.6-2.7,2.4c-0.8,0.8-1.5,1.6-2.3,2.4c-0.5,0.6-1.2,0.2-1.7,0.7c-0.3,0.3-0.7,0.4-1.1,0.2c-1.3-0.5-2.3-0.6-3.4-1.6
		c-1.2-1-2.4-2-3.6-2.9c-1-0.8-1.7-1.4-1.6-2.7c0-0.2,0-0.4,0.1-0.5c0.7-1.1,1.1-2.5,2.1-3.5c0.7-0.7,1.3-1.6,2-2.3
		c1.1-1,2.2-1.9,3.4-2.8c1.6-1.3,3.3-2.5,5-3.8c1.3-1,2.7-1.9,4.1-2.8c0.6-0.4,1.3-0.6,2-0.9c1.4-0.6,2.6-1.3,4.1-1.6
		c1.6-0.3,4.2-1,5.8-1.4c0.2,0,0.3-0.1,0.5-0.2c0.6-0.1,1.2-0.4,1.8-0.4c2.3,0.1,4.6-0.1,6.8,0.3c2.5,0.4,4.9,1,7.2,2
		c2.8,1.1,5.5,2.4,8,4.2c0.5,0.3,0.9,0.7,1.3,1.1c1,1.2,0.9,2.8,2,3.9c1.3,1.3,1.9,3,2.5,4.6c0.5,1.4,0.6,2.8,1,4.2
		c0.3,1,0.2,2,0.1,3.1c-0.1,0.8-0.1,1.7,0,2.5c0.2,1.7,0.1,3.3-0.1,5c-0.1,0.5-0.3,0.9-0.4,1.4c-0.7,2.5-1.5,4.9-2.7,7.1
		c-0.9,1.7-1.9,3.4-3,5c-2.4,3.3-5.2,6.3-8.2,9.1c-1.2,1.1-2.3,2.4-3.5,3.7c-1.1,1.2-2.2,2.3-3.2,3.5c-1.4,1.4-2.7,2.9-4.1,4.3
		c-0.8,0.8-1.7,1.6-2.5,2.5c-0.8,0.8-1.5,1.7-2.3,2.5c-0.3,0.4-0.6,0.7-1,1c-2,1.9-4,3.8-6,5.7c-0.7,0.7-1.4,0.4-2.1,1.1
		c-0.1,0.1-0.2,0.3-0.3,0.4C275.7,131.8,275.8,131.9,275.8,132z"/>
	<path style="fill:#ABC0DE;" d="M109.7,131.3c0.5,0,0.9,0.1,1.3,0c1.5-0.3,3.1-0.3,4.6-0.2c2.5,0.1,5,0.1,7.5,0.1
		c3.2,0,6.3-0.2,9.5-0.3c3.5-0.1,7,0,10.5-0.1c1.2,0,2.5,0,3.7-0.2c1.6-0.2,2.3,1,2.5,2.1c0.2,1,0.2,2.1,0.2,3.2c0,1.9,0,3.9,0,5.8
		c0,0.8-0.3,1.5-0.1,2.3c0,0.1,0,0.3,0,0.3c-0.9,1-1.5,2.2-3.1,2.3c-4.1,0.4-8.2,0.4-12.2-0.1c-2.1-0.2-4.3-0.3-6.4-0.5
		c-2.5-0.2-5-0.2-7.5-0.4c-1.7-0.2-3.5,0-5.2,0.1c-3.3,0.1-6.5,0.2-9.8,0.4c-1.7,0.1-3.3,0.1-5,0.2c-1,0-2-0.1-3-0.1
		c-2.6,0-5.1-0.1-7.7-0.1c-0.8,0-0.8,0-1.1-0.8c0-0.1,0-0.2-0.1-0.2c-1.1-1.3-0.9-2.9-1-4.4c-0.1-1.7,0-3.4,0-5.1
		c0-0.6,0.2-1,0.8-1.3c0.3-0.2,0.6-0.4,0.8-0.7c0.6-1.1,1.4-2,2.3-2.8c1.8-1.9,3.6-3.7,5.4-5.5c1.6-1.7,3.1-3.4,4.7-5.2
		c1.9-2.1,3.8-4.2,5.6-6.4c2-2.3,4.1-4.6,6.2-6.9c2-2.2,3.9-4.3,5.9-6.4c1.9-2,3.8-4,5.7-6c1.8-1.9,3.6-3.8,5.3-5.8
		c2-2.4,3.4-5.3,4.3-8.3c0.1-0.2,0.1-0.5,0.2-0.7c0.5-1.3,0.5-2.7,0.2-4c-0.2-1.1-0.4-2.3-0.8-3.4c-0.4-1-0.9-1.7-1.7-2.4
		c-2.1-1.6-4.4-2.8-6.9-3.5c-1.7-0.4-3.3-0.5-5-0.6c-1.1-0.1-2.2,0.4-3.2,0.9c-2.4,1-4.7,2.3-6.8,3.8c-1.5,1-2.8,2.3-4.2,3.4
		c-0.9,0.8-1.8,1.6-2.7,2.4c-0.7,0.7-1.3,1.5-2,2.2c-0.6,0.6-1.1,1.3-1.7,1.9c-0.3,0.4-0.8,0.4-1.2,0.3c-1.5-0.5-2.8-1.2-4-2.3
		c-0.9-0.8-1.8-1.6-2.8-2.3c-0.6-0.5-1.2-1.1-1.4-1.8c-0.3-0.8-0.4-1.6,0-2.5c0.8-1.7,1.9-3,3-4.5c1.1-1.5,2.5-2.6,4-3.7
		c1.7-1.3,3.3-2.6,5-3.8c1.3-0.9,2.6-1.8,3.9-2.7c0.7-0.4,1.4-0.7,2.2-1.1c1.3-0.6,2.6-1.3,4.1-1.6c1.5-0.3,3-0.6,4.5-1.1
		c2.6-0.9,5.2-0.6,7.9-0.3c4.5,0.4,8.6,2,12.5,4.2c1.1,0.6,2.2,1.3,3.3,2c0.6,0.4,1,0.9,1.5,1.4c0.2,0.2,0.4,0.5,0.7,0.7
		c0.5,0.6,1.1,1.2,1.6,1.8c0.8,1,1.6,2,2.1,3.2c0.8,1.7,1,3.4,1.5,5.2c0.1,0.5,0.3,1.1,0.3,1.6c0.1,0.6,0.2,1.3,0.1,1.8
		c-0.2,1.1-0.1,2.2,0,3.3c0.1,1.7,0.1,3.3-0.1,5c-0.1,0.5-0.3,0.9-0.4,1.4c-0.6,2.5-1.5,4.8-2.6,7.1c-1.1,2.2-2.3,4.4-3.9,6.3
		c-2.2,2.7-4.4,5.4-7,7.8c-1.2,1.1-2.2,2.4-3.3,3.6c-1,1.1-2.1,2.3-3.1,3.4c-1.4,1.5-2.7,3-4.1,4.4c-0.8,0.8-1.6,1.6-2.3,2.4
		c-0.8,0.9-1.5,1.8-2.3,2.7c-0.3,0.3-0.6,0.7-0.9,1c-1.9,1.9-3.9,3.7-5.8,5.6c-0.7,0.7-1.4,1.5-2.1,2.2
		C109.9,130.9,109.9,131.1,109.7,131.3z"/>
	<path style="fill:#ABC0DE;" d="M243.9,137.2c-0.1,1-0.2,2-0.3,2.9c-0.1,1-0.8,1.6-1.3,2.4c-0.8,1.4-2.1,2.1-3.4,2.8
		c-1.8,1-3.7,1.3-5.7,0.4c-1.5-0.6-2.8-1.4-3.9-2.5c-0.7-0.6-1.3-1.3-1.8-2c-0.3-0.4-0.5-0.9-0.6-1.3c-0.2-0.6-0.3-1.3-0.4-1.9
		c-0.4-1.8-0.1-3.6,0.7-5.3c0.2-0.5,0.6-1,1-1.3c0.8-0.7,1.6-1.4,2.4-2c1.3-1,2.7-1.4,4.4-1.3c1.9,0,3.5,0.6,5,1.6
		c0.7,0.5,1.4,1.2,1.9,1.9c0.8,1.1,1.6,2.3,1.8,3.7C243.7,135.9,243.8,136.6,243.9,137.2z"/>
	<path style="fill:#ABC0DE;" d="M225.8,110.1c-0.2-1.1-0.3-2.1-0.8-3.1c-0.2-0.5-0.4-1-0.5-1.6c-0.3-1.5-0.9-2.8-1.8-4
		c-1-1.4-1.9-2.9-3-4.2c-1.4-1.8-2.9-3.5-4.7-4.9c-2.2-1.7-4.7-2.7-7-4.1c-0.1,0-0.1-0.1-0.2-0.1c-1.6-0.5-3.2-1.3-4.9-1.7
		c-2-0.4-3.9-1-6-1c-1.2,0-2.3,0-3.5,0c-2.5-0.1-5,0.4-7.4,1.1c-1.4,0.4-2.8,0.8-4.1,1.3c-1.5,0.6-2.9,1.2-4.3,1.9
		c-1.9,1-3.5,2.5-5.1,4.1c-0.2,0.3-0.5,0.5-0.8,0.8c-0.1-0.1-0.2-0.1-0.2-0.2c0.1-0.4,0.2-0.9,0.4-1.3c0.8-1.8,1.6-3.6,2.5-5.4
		c1.8-3.7,4.3-6.7,7.2-9.6c2.2-2.2,4.7-4.2,7.3-6c1.2-0.8,2.3-1.7,3.5-2.5c0.3-0.2,0.6-0.4,0.9-0.6c1.4-0.8,2.8-1.6,4.2-2.4
		c1.5-0.9,3.1-1.7,4.7-2.3c1.6-0.6,3.2-1.4,4.8-2.1c0.7-0.3,1.4-0.8,2.1-0.8c1.4-0.1,2.6-0.7,3.9-0.9c0.4,0,0.9-0.2,1.3-0.2
		c0.8-0.1,0.9-0.1,1.1-0.8c0.1-0.3,0.1-0.7,0.1-1c-0.1-1.8-0.3-3.6-0.4-5.4c-0.1-1.2-0.4-1.4-1.5-1.4c-0.3,0-0.5,0.1-0.8,0.1
		c-0.8,0.1-1.6,0.2-2.4,0.2c-1.9-0.2-3.7,0.1-5.6,0.4c-0.5,0.1-0.9,0.3-1.4,0.4c-1.4,0.4-2.8,0.6-4.2,1.1c-2.7,0.9-5.4,1.8-8.1,2.7
		c-3.3,1.2-6.6,2.6-9.5,4.6c-1.6,1.1-3.1,2.4-4.7,3.7c-2.3,2-4.4,4.2-6.3,6.6c-2.2,3-4.2,6.1-5.8,9.5c-1.9,4.2-4,8.3-5.3,12.7
		c-1,3.4-1.5,6.9-2,10.4c-0.3,1.8-0.2,3.6-0.3,5.4c0,3.1,0.2,6.2,1,9.3c0.2,0.8,0.5,1.7,0.8,2.5c0.5,1.5,1,3,1.5,4.5
		c0.2,0.6,0.4,1.2,0.7,1.7c0.8,1.6,1.6,3.1,2.5,4.7c1.4,2.3,3,4.4,5,6.3c0.7,0.6,1.3,1.3,2,1.9c1,0.8,1.9,1.8,3,2.5
		c1.5,0.9,3,1.7,4.6,2.5c0.4,0.2,0.7,0.4,1.1,0.5c2,0.7,4,1.3,6.1,1.5c2,0.3,3.9,0.5,5.9,0.3c2.3-0.2,4.5-0.5,6.8-1
		c2-0.4,4-1.1,5.8-1.9c0.5-0.2,0.9-0.4,1.4-0.6c0.6-0.3,1.2-0.5,1.8-0.8c0.5-0.2,0.9-0.5,1.4-0.7c2.2-0.9,4-2.3,5.7-3.9
		c1.4-1.3,2.6-2.9,3.9-4.3c2.2-2.4,3.6-5.2,4.9-8.1c0.7-1.5,1.1-3.2,1.5-4.8C225.9,117.7,226.5,113.9,225.8,110.1z M215,115.5
		c-0.1,2.5-1,4.7-1.8,7c-0.7,2.1-2,3.8-3.3,5.4c-1.2,1.5-2.4,3-3.8,4.3c-1.9,1.9-4.3,3.2-6.9,3.8c-0.9,0.2-1.8,0.5-2.8,0.7
		c-1,0.1-2,0.2-3,0.1c-1.8-0.1-3.5-0.1-5.3-0.4c-2.2-0.3-4.4-0.8-6.4-1.7c-0.4-0.2-0.8-0.4-1.1-0.7c-1.4-1.3-2.8-2.5-4-4.1
		c-0.9-1.2-1.7-2.5-2.5-3.8c-1.4-2.5-2.3-5.2-3.1-7.9c0-0.1,0-0.2,0-0.2c-0.8-1.7-0.4-3.5-0.2-5.3c0.4-2.9,1.9-5.3,3.6-7.6
		c1.7-2.3,3.7-4.3,6-5.9c1.6-1.2,3.4-2.2,5.4-2.8c1-0.3,2-0.6,3-1c1.3-0.4,2.6-0.7,4-0.5c0.3,0,0.6,0,1,0C197,95,200,96,203,97.5
		c1.7,0.9,3.4,1.9,5,3c1.2,0.9,2.3,1.9,3.2,3.2c0.5,0.7,1,1.4,1.5,2c0.8,1.1,1.2,2.3,1.5,3.5c0.2,0.6,0.5,1.2,0.7,1.7
		c0.2,0.5,0.4,1,0.4,1.5C215.2,113.5,215,114.5,215,115.5z"/>
	<path style="fill:#FCBA25;" d="M438,104.5c-16.1-3.2-33.8-10.7-49.6-15.1s-29.4-6.1-45.6-3.9c3.4,2.3,6.2,3.2,9.6,5.5
		c-5.3,1.7-9.6,4.1-14.5,6.6c4.2,1.4,7.3,4.2,11.5,5.5c-4.5,1.6-8.2,2.7-12.4,4.9c3.6,1.9,6.5,4.7,10.2,6.6
		c-3.6,2.6-6.3,3.8-9.9,6.4c12.3-0.3,24.5,0.5,36.5,3.5c16,4,29.7,14.2,45.8,17.7c19.5,4.3,40.1-0.8,59.5,3.6
		c10.6,2.4,17.6,4.4,27.2,9.5c-1.3-5-0.8-6.6-3.6-10.9c-1.3-2-2.9-4-3.4-6.3c-1.5-6.1,4.9-12.1,2.6-17.9c-2.2-5.5-12-6.8-17-8.1
		C469.5,108.4,453.5,107.6,438,104.5z"/>
	<g>
		<path style="fill:#FCBA25;" d="M-85.5,117.4c10-5.7,38.2-20.3,48.7-24.8c12.9-5.5,26.5-9.1,40.8-8.4c5.6,0.3,12.3-0.8,17.8-0.3
			c6.4,0.6,12.8,2.1,19.2,2.5c7.2,0.4,13.2,0.8,20.4,0.8c3.7,0,7.5,0,11.2,0.3c0.7,0,1.4,1,2.1,1.5c-0.6,0.6-1.1,1.4-1.8,1.8
			c-4,2.2-8.1,4.2-13.3,6.9c4,1.3,6.9,2.2,9.8,3.2c1.1,0.3,2.2,0.6,3.1,1.1c0.8,0.4,1.4,1.2,2.1,1.8c-0.9,0.5-1.8,1.2-2.7,1.6
			c-3.9,1.6-6.6,2.6-11.2,4.4c7.2,2.9,12.4,6.1,18.8,8.8c-0.1,0.4-0.1,0.8-0.2,1.1c-3.8,1.2-7.6,2.4-11.4,3.5
			c-9.3,2.8-18.9,2.4-28.4,1.5c-7.6-0.7-15.2-2-22.8-2.9c-9.2-1.2-17.5,2.2-26,4.9c-4,1.3-8.2,2.5-11.9,4.4c-6.5,3.4-12.7,7.2-19,11
			c-6.7,4.1-13.4,8.3-20.1,12.4c-0.8,0.5-15.5,12.9-16.7,12.4c1-0.7-1-18,2.5-35.2C-72.9,124.2-85.9,117.7-85.5,117.4z"/>
	</g>
	<path style="fill:#FCBA25;" d="M13.8,24.8c3.3-3.1,7.3-8.5,8.3-6.3C23.2,20.7,41,39.7,41,39.7s-13.4,10.9-14.7,8.7
		c-1.3-2.2-13.2-18-13.2-19.3S13.8,24.8,13.8,24.8"/>
	<path style="fill:#FCBA25;" d="M123.2-2.1c-2.3,5-12.5,16.2-16.7,15.8s-3.9,9-0.7,9.4c3.2,0.5,14.7,0,18.8-6.8S130,3.3,130,3.3
		L123.2-2.1"/>
	<path style="fill:#FCBA25;" d="M268.7,6.2c5.3-4.4,9.6-6.7,9.6-6.7s19.3,13.7,16.7,17.2c-2.6,3.5-6.6,9.2-8.8,8.3
		C284,24.2,268.7,6.2,268.7,6.2z"/>
	<path style="fill:#FCBA25;" d="M329,13c4.2-3.4,9.3-5.9,9.3-5.9h19c0,0,4.2,10.6,2.1,10.6c-2.1,0-21.7,6.8-23,8.4
		c-1.3,1.7-4.2,0.6-5.5-0.2C329.7,25,329,13,329,13z"/>
	<path style="fill:#FCBA25;" d="M366.9,172.2c6.2-1.4,22.1,7.9,22.1,7.9l-3.1,11.9l-23-7.8L366.9,172.2z"/>
	<path style="fill:#FCBA25;" d="M150.4,193.3c1.9-0.5,26.6-2.8,26.6-2.8s-1,12.4-2.4,12.9c-1.4,0.5-18.6,3.3-21,2.9
		C151.3,205.8,150.4,193.3,150.4,193.3z"/>
	<polyline style="fill:#FCBA25;" points="26,163.2 50.8,171.8 41.7,184.6 19.8,173.2 26,163.2 	"/>
</g>
<g id="Fills2">
	<path style="fill:#ABC0DE;" d="M276.8,131.7c1-0.1,2-0.2,3.1-0.3c0.5,0,0.9,0,1.4,0c0.8,0,1.7,0.1,2.5,0.1c1.8,0,3.6,0.1,5.4,0
		c2.2,0,4.3-0.2,6.5-0.2c2.6-0.1,5.2-0.1,7.8-0.1c2.6,0,5.1,0,7.7,0c1.3,0,2.5-0.1,3.7-0.2c1.4-0.1,1.7,0.5,2.4,1.8
		c0.1,0.3,0.1,0.6,0.2,0.9c0,1.5,0.1,3.1,0.1,4.6c0,1.1-0.1,3.4-0.1,4.4c0,1-0.1,2-0.1,2.9c0,0.1,0,0.2-0.1,0.3
		c-0.9,1,0.5,1.6-1.2,1.7c-4.2,0.3-8.3,0.4-12.5-0.1c-2.2-0.2-4.3-0.3-6.5-0.5c-2.6-0.2-5.2-0.2-7.7-0.4c-1.8-0.2-3.6,0-5.4,0.1
		c-3.4,0.1-6.8,0.2-10.2,0.4c-1.7,0.1-3.4,0.1-5.1,0.2c-1.1,0-2.1-0.1-3.2-0.1c-2.6,0-7.8,0.2-10.4,0.1c-0.2,0-0.5,0-0.7,0
		c-0.2,0-0.4-0.2-0.4-0.3c0.2-0.7-0.5-1.1-0.7-1.7c-0.1-0.2-0.2-0.5-0.2-0.7c-0.1-1.5,0.4-3.9,0.3-5.4c0-1.1,0-2.1,0-3.2
		c0-0.7,0.2-1.1,0.8-1.4c0.3-0.2,0.6-0.5,0.8-0.8c0.4-0.5,0.8-1.2,1.3-1.7c1.3-1.3,2.6-2.5,3.8-3.8c1.5-1.5,3-3,4.4-4.6
		c2-2.1,4-4.3,6-6.5c1.3-1.4,2.6-2.9,3.9-4.3c2-2.2,4.1-4.3,6.1-6.5c1.2-1.3,2.4-2.7,3.7-4c2.5-2.5,5-5,7.4-7.6c1.9-2,3.8-3.9,5.6-6
		c2.1-2.4,3.4-5.2,4.4-8.2c0.1-0.2,0.1-0.5,0.2-0.7c0.5-1.3,0.5-2.7,0.2-4c-0.3-1.4-0.5-2.7-1.1-4c-0.2-0.5-0.5-0.9-0.9-1.2
		c-2.3-1.9-4.8-3.3-7.8-4c-1.7-0.4-3.5-0.6-5.2-0.6c-1.2-0.1-2.2,0.4-3.3,0.9c-2.5,1-4.8,2.3-7,3.8c-1.5,1.1-2.9,2.3-4.4,3.5
		c-0.9,0.8-1.9,1.6-2.7,2.4c-0.8,0.8-1.5,1.6-2.3,2.4c-0.5,0.6-1,1.1-1.6,1.7c-0.3,0.3-0.7,0.4-1.1,0.2c-1.3-0.5-1.8-0.2-3-1.1
		c-1.2-1-2.4-2-3.6-2.9c-1-0.8-2.8-0.7-2.8-2c0-0.2-0.3-2-0.2-2.1c0.7-1.1,1-2,2-3c0.7-0.7,1.1-1.7,1.9-2.4c1.1-1,2.2-1.9,3.4-2.8
		c1.6-1.3,4.5-3.4,6.2-4.6c1.3-1,2.7-1.9,4.1-2.8c0.6-0.4,1.3-0.6,2-0.9c1.4-0.6,2.6-1.3,4.1-1.6c1.6-0.3,3.1-0.7,4.7-1.1
		c0.2,0,0.3-0.1,0.5-0.2c0.6-0.1,1.2-0.4,1.8-0.4c2.3,0.1,4.6-0.1,6.8,0.3c2.5,0.4,4.9,1,7.2,2c2.8,1.1,5.5,2.4,8,4.2
		c0.5,0.3,0.9,0.7,1.3,1.1c1,1.2,2,2.5,3.1,3.6c1.3,1.3,1.2,3.3,1.8,5c0.5,1.4,0.6,2.8,1,4.2c0.3,1,0.2,2,0.1,3.1
		c-0.1,0.8-0.1,1.7,0,2.5c0.2,1.7,0.1,3.3-0.1,5c-0.1,0.5-0.3,0.9-0.4,1.4c-0.7,2.5-0.8,4.5-2,6.7c-0.9,1.7-1.9,3.4-3,5
		c-2.4,3.3-5.2,6.3-8.2,9.1c-1.2,1.1-2.3,2.4-3.5,3.7c-1.1,1.2-2.2,2.3-3.2,3.5c-1.4,1.4-2.7,2.9-4.1,4.3c-0.8,0.8-1.7,1.6-2.5,2.5
		c-0.8,0.8-1.5,1.7-2.3,2.5c-0.3,0.4-0.6,0.7-1,1c-2,1.9-4,3.8-6,5.7c-0.7,0.7-1.4,1.4-2.1,2.1c-0.1,0.1-0.2,0.3-0.3,0.4
		C276.8,131.6,276.8,131.6,276.8,131.7z"/>
	<path style="fill:#ABC0DE;" d="M111.9,130.6c0.5,0,0.9,0.1,1.3,0c1.5-0.3,3.1-0.3,4.6-0.2c2.5,0.1,5,0.1,7.5,0.1
		c3.2,0,6.3-0.2,9.5-0.3c3.5-0.1,7,0,10.5-0.1c1.2,0,2.5,0,3.7-0.2c1.6-0.2,2.3,1,2.5,2.1c0.2,1,0.2,2.1,0.2,3.2c0,1.9,0,3.9,0,5.8
		c0,0.8-0.3,1.5-0.1,2.3c0,0.1,0,0.3,0,0.3c-0.9,1-1.5,2.2-3.1,2.3c-4.1,0.4-8.2,0.4-12.2-0.1c-2.1-0.2-4.3-0.3-6.4-0.5
		c-2.5-0.2-5-0.2-7.5-0.4c-1.7-0.2-3.5,0-5.2,0.1c-3.3,0.1-6.5,0.2-9.8,0.4c-1.7,0.1-3.3,0.1-5,0.2c-1,0-2-0.1-3-0.1
		c-2.6,0-5.1-0.1-7.7-0.1c-0.8,0-0.8,0-1.1-0.8c0-0.1,0-0.2-0.1-0.2c-1.1-1.3-0.9-2.9-1-4.4c-0.1-1.7,0-3.4,0-5.1
		c0-0.6,0.2-1,0.8-1.3c0.3-0.2,0.6-0.4,0.8-0.7c0.6-1.1,1.4-2,2.3-2.8c1.8-1.9,3.6-3.7,5.4-5.5c1.6-1.7,3.1-3.4,4.7-5.2
		c1.9-2.1,3.8-4.2,5.6-6.4c2-2.3,4.1-4.6,6.2-6.9c2-2.2,3.9-4.3,5.9-6.4c1.9-2,3.8-4,5.7-6c1.8-1.9,3.6-3.8,5.3-5.8
		c2-2.4,3.4-5.3,4.3-8.3c0.1-0.2,0.1-0.5,0.2-0.7c0.5-1.3,0.5-2.7,0.2-4c-0.2-1.1-0.4-2.3-0.8-3.4c-0.4-1-0.9-1.7-1.7-2.4
		c-2.1-1.6-4.4-2.8-6.9-3.5c-1.7-0.4-3.3-0.5-5-0.6c-1.1-0.1-2.2,0.4-3.2,0.9c-2.4,1-4.7,2.3-6.8,3.8c-1.5,1-2.8,2.3-4.2,3.4
		c-0.9,0.8-1.8,1.6-2.7,2.4c-0.7,0.7-1.3,1.5-2,2.2c-0.6,0.6-1.1,1.3-1.7,1.9c-0.3,0.4-0.8,0.4-1.2,0.3c-1.5-0.5-2.8-1.2-4-2.3
		c-0.9-0.8-1.8-1.6-2.8-2.3c-0.6-0.5-1.2-1.1-1.4-1.8c-0.3-0.8-0.4-1.6,0-2.5c0.8-1.7,1.9-3,3-4.5c1.1-1.5,2.5-2.6,4-3.7
		c1.7-1.3,3.3-2.6,5-3.8c1.3-0.9,2.6-1.8,3.9-2.7c0.7-0.4,1.4-0.7,2.2-1.1c1.3-0.6,2.6-1.3,4.1-1.6c1.5-0.3,3-0.6,4.5-1.1
		c2.6-0.9,5.2-0.6,7.9-0.3c4.5,0.4,8.6,2,12.5,4.2c1.1,0.6,2.2,1.3,3.3,2c0.6,0.4,1,0.9,1.5,1.4c0.2,0.2,0.4,0.5,0.7,0.7
		c0.5,0.6,1.1,1.2,1.6,1.8c0.8,1,1.6,2,2.1,3.2c0.8,1.7,1,3.4,1.5,5.2c0.1,0.5,0.3,1.1,0.3,1.6c0.1,0.6,0.2,1.3,0.1,1.8
		c-0.2,1.1-0.1,2.2,0,3.3c0.1,1.7,0.1,3.3-0.1,5c-0.1,0.5-0.3,0.9-0.4,1.4c-0.6,2.5-1.5,4.8-2.6,7.1c-1.1,2.2-2.3,4.4-3.9,6.3
		c-2.2,2.7-4.4,5.4-7,7.8c-1.2,1.1-2.2,2.4-3.3,3.6c-1,1.1-2.1,2.3-3.1,3.4c-1.4,1.5-2.7,3-4.1,4.4c-0.8,0.8-1.6,1.6-2.3,2.4
		c-0.8,0.9-1.5,1.8-2.3,2.7c-0.3,0.3-0.6,0.7-0.9,1c-1.9,1.9-3.9,3.7-5.8,5.6c-0.7,0.7-1.4,1.5-2.1,2.2
		C112.2,130.2,112.1,130.3,111.9,130.6z"/>
	<path style="fill:#ABC0DE;" d="M245.5,136.2c-0.1,1.1-0.3,2.1-0.4,3.1c-0.1,1-0.9,1.7-1.4,2.5c-0.9,1.5-2.2,2.3-3.7,3.1
		c-2,1.1-4,1.4-6.2,0.5c-1.6-0.6-3-1.5-4.3-2.7c-0.7-0.7-1.4-1.4-2-2.2c-0.3-0.4-0.5-0.9-0.6-1.4c-0.2-0.7-0.3-1.4-0.5-2.1
		c-0.4-2-0.1-3.9,0.7-5.8c0.2-0.5,0.6-1,1.1-1.4c0.8-0.8,1.7-1.5,2.6-2.2c1.4-1.1,3-1.5,4.7-1.4c2,0,3.8,0.6,5.4,1.8
		c0.8,0.6,1.5,1.3,2.1,2c0.9,1.2,1.7,2.5,2,4C245.3,134.8,245.4,135.5,245.5,136.2z"/>
	<path style="fill:#ABC0DE;" d="M226.7,109.2c-0.2-1.1-0.3-2.1-0.8-3.1c-0.2-0.5-0.4-1-0.5-1.6c-0.3-1.5-0.9-2.8-1.8-4
		c-1-1.4-1.9-2.9-3-4.2c-1.4-1.8-2.9-3.5-4.7-4.9c-2.2-1.7-4.7-2.7-7-4.1c-0.1,0-0.1-0.1-0.2-0.1c-1.6-0.5-3.2-1.3-4.9-1.7
		c-2-0.4-3.9-1-6-1c-1.2,0-2.3,0-3.5,0c-2.5-0.1-5,0.4-7.4,1.1c-1.4,0.4-2.8,0.8-4.1,1.3c-1.5,0.6-2.9,1.2-4.3,1.9
		c-1.9,1-3.5,2.5-5.1,4.1c-0.2,0.3-0.5,0.5-0.8,0.8c-0.1-0.1-0.2-0.1-0.2-0.2c0.1-0.4,0.2-0.9,0.4-1.3c0.8-1.8,1.6-3.6,2.5-5.4
		c1.8-3.7,4.3-6.7,7.2-9.6c2.2-2.2,4.7-4.2,7.3-6c1.2-0.8,2.3-1.7,3.5-2.5c0.3-0.2,0.6-0.4,0.9-0.6c1.4-0.8,2.8-1.6,4.2-2.4
		c1.5-0.9,3.1-1.7,4.7-2.3c1.6-0.6,3.2-1.4,4.8-2.1c0.7-0.3,1.4-0.8,2.1-0.8c1.4-0.1,2.6-0.7,3.9-0.9c0.4,0,0.9-0.2,1.3-0.2
		c0.8-0.1,0.9-0.1,1.1-0.8c0.1-0.3,0.1-0.7,0.1-1c-0.1-1.8-0.3-3.6-0.4-5.4c-0.1-1.2-0.4-1.4-1.5-1.4c-0.3,0-0.5,0.1-0.8,0.1
		c-0.8,0.1-1.6,0.2-2.4,0.2c-1.9-0.2-3.7,0.1-5.6,0.4c-0.5,0.1-0.9,0.3-1.4,0.4c-1.4,0.4-2.8,0.6-4.2,1.1c-2.7,0.9-5.4,1.8-8.1,2.7
		c-3.3,1.2-6.6,2.6-9.5,4.6c-1.6,1.1-3.1,2.4-4.7,3.7c-2.3,2-4.4,4.2-6.3,6.6c-2.2,3-4.2,6.1-5.8,9.5c-1.9,4.2-4,8.3-5.3,12.7
		c-1,3.4-1.5,6.9-2,10.4c-0.3,1.8-0.2,3.6-0.3,5.4c0,3.1,0.2,6.2,1,9.3c0.2,0.8,0.5,1.7,0.8,2.5c0.5,1.5,1,3,1.5,4.5
		c0.2,0.6,0.4,1.2,0.7,1.7c0.8,1.6,1.6,3.1,2.5,4.7c1.4,2.3,3,4.4,5,6.3c0.7,0.6,1.3,1.3,2,1.9c1,0.8,1.9,1.8,3,2.5
		c1.5,0.9,3,1.7,4.6,2.5c0.4,0.2,0.7,0.4,1.1,0.5c2,0.7,4,1.3,6.1,1.5c2,0.3,3.9,0.5,5.9,0.3c2.3-0.2,4.5-0.5,6.8-1
		c2-0.4,4-1.1,5.8-1.9c0.5-0.2,0.9-0.4,1.4-0.6c0.6-0.3,1.2-0.5,1.8-0.8c0.5-0.2,0.9-0.5,1.4-0.7c2.2-0.9,4-2.3,5.7-3.9
		c1.4-1.3,2.6-2.9,3.9-4.3c2.2-2.4,3.6-5.2,4.9-8.1c0.7-1.5,1.1-3.2,1.5-4.8C226.8,116.8,227.4,113,226.7,109.2z M215.9,114.6
		c-0.1,2.5-1,4.7-1.8,7c-0.7,2.1-2,3.8-3.3,5.4c-1.2,1.5-2.4,3-3.8,4.3c-1.9,1.9-4.3,3.2-6.9,3.8c-0.9,0.2-1.8,0.5-2.8,0.7
		c-1,0.1-2,0.2-3,0.1c-1.8-0.1-3.5-0.1-5.3-0.4c-2.2-0.3-4.4-0.8-6.4-1.7c-0.4-0.2-0.8-0.4-1.1-0.7c-1.4-1.3-2.8-2.5-4-4.1
		c-0.9-1.2-1.7-2.5-2.5-3.8c-1.4-2.5-2.3-5.2-3.1-7.9c0-0.1,0-0.2,0-0.2c-0.8-1.7-0.4-3.5-0.2-5.3c0.4-2.9,1.9-5.3,3.6-7.6
		c1.7-2.3,3.7-4.3,6-5.9c1.6-1.2,3.4-2.2,5.4-2.8c1-0.3,2-0.6,3-1c1.3-0.4,2.6-0.7,4-0.5c0.3,0,0.6,0,1,0c3.2-0.2,6.2,0.9,9.1,2.4
		c1.7,0.9,3.4,1.9,5,3c1.2,0.9,2.3,1.9,3.2,3.2c0.5,0.7,1,1.4,1.5,2c0.8,1.1,1.2,2.3,1.5,3.5c0.2,0.6,0.5,1.2,0.7,1.7
		c0.2,0.5,0.4,1,0.4,1.5C216.1,112.6,215.9,113.6,215.9,114.6z"/>
	<path style="fill:#FCBA25;" d="M439.9,102.6c-16.1-3.2-31.6-8.9-47.4-13.3s-32.5-8.1-48.7-5.8c3.4,2.3,5.5,4.5,8.9,6.8
		c-5.3,1.7-9,4.5-13.9,7c4.2,1.4,8.4,2.7,12.6,4.1c-4.5,1.6-9.2,3.8-13.4,6c3.6,1.9,6.3,5.2,9.9,7.1c-3.6,2.6-5.9,4.5-9.5,7.1
		c12.3-0.3,24.9-1.6,36.8,1.4c16,4,32,15.6,48.2,19.2c19.5,4.3,38.9-0.4,58.3,4c10.6,2.4,16.5,4.4,26.1,9.5c-1.3-5-0.1-8.8-3-13.1
		c-1.3-2-2.9-4-3.4-6.3c-1.5-6.1,2.4-15.1,0-20.9c-2.2-5.5-8.8-4.9-13.8-6.2C472,105.3,455.4,105.7,439.9,102.6z"/>
	<g>
		<path style="fill:#FCBA25;" d="M-80.9,116.3c10.1-5.5,36.1-21.8,46.7-26.2c13-5.3,26.7-8.6,41-7.7c5.5,0.4,11.1,0.3,16.7,0.9
			c6.4,0.7,12.7,2.3,19.1,2.8c7.1,0.5,12.4,0.2,19.6,0.3c3.7,0.1,7.5,0.2,11.2,0.5c0.7,0.1,3.3-0.9,4-0.4c-0.6,0.6-1.8,1.8-2.5,2.2
			c-4.1,2.1-7.6,5.6-12.7,8.2c3.9,1.3,10.7,2.3,13.6,3.3c1,0.4-1.7,0.6-0.7,1.2c0.8,0.4,1.4,1.2,2.1,1.8c-0.9,0.5-1.8,1.1-2.8,1.5
			c-4,1.5-7.5,2.9-12.1,4.7c7.1,3,12.1,4.8,18.5,7.5c-0.1,0.4-0.1,0.8-0.2,1.1c-3.8,1.1-6.6,3.4-10.5,4.4c-9.4,2.6-18.9,2-28.4,1
			c-7.6-0.9-15.2-2.2-22.7-3.3c-9.2-1.3-17.6,1.9-26,4.4c-4.1,1.2-8.2,2.4-12,4.2c-6.6,3.3-12.9,7-19.2,10.7
			c-6.8,3.9-13.5,8.1-20.3,12c-0.8,0.5-15,13.5-16.2,13c1.1-0.7-1.4-18.9,2.4-36C-70.9,121-81.4,116.5-80.9,116.3z"/>
	</g>
	<path style="fill:#FCBA25;" d="M17.3,20.8c3.8-2.5,8.5-2.8,9.2-0.4c0.7,2.4,13.5,18.5,13.5,18.5s-13.6,9.8-14.5,7.4
		c-0.9-2.4-9.8-20-9.6-21.3C16.1,23.6,17.3,20.8,17.3,20.8"/>
	<path style="fill:#FCBA25;" d="M124.9-2.6c-3.1,4.8-13.6,14.5-17.9,13.4c-4.3-1-4.8,10-1.5,11c3.2,1,13.9,2,19.2-4.4
		s8.3-13.7,8.3-13.7L124.9-2.6"/>
	<path style="fill:#FCBA25;" d="M270.4,4.5c5.3-4.4,9.6-6.7,9.6-6.7s19.3,13.7,16.7,17.2c-2.6,3.5-8.3,9.7-10.5,8.8
		C284,22.9,270.4,4.5,270.4,4.5z"/>
	<path style="fill:#FCBA25;" d="M331.4,9.4c4.6-2.8,9.9-4.7,9.9-4.7L360.2,7c0,0,2.9,11,0.8,10.7c-2.1-0.3-24,4.7-25.4,6.2
		c-1.5,1.5-3.5,1.2-4.6,0.2C329.8,23.2,331.4,9.4,331.4,9.4z"/>
	<path style="fill:#FCBA25;" d="M369,173.7c6-2.1,21.2,2.8,21.2,2.8l-5.7,14l-20.4-5L369,173.7z"/>
	<path style="fill:#FCBA25;" d="M154.6,194.2c1.9-0.5,24.4-5.6,24.4-5.6s-1,12.4-2.4,12.9c-1.4,0.5-18.6,3.3-21,2.9
		C153.3,203.9,154.6,194.2,154.6,194.2z"/>
	<polyline style="fill:#FCBA25;" points="27.9,161.3 52.7,169.9 43.6,182.7 21.7,171.3 27.9,161.3 	"/>
</g>
<g id="Fills3">
	<path style="fill:#ABC0DE;" d="M275.8,131.1c1-0.1,2-0.2,3.1-0.3c0.5,0,0.9,0,1.4,0c0.8,0,1.7,0.1,2.5,0.1c1.8,0,3.6,0.1,5.4,0
		c2.2,0,4.3-0.2,6.5-0.2c2.6-0.1,5.2-0.1,7.8-0.1c2.6,0,5.1,0,7.7,0c1.3,0,2.5-0.1,3.7-0.2c1.4-0.1,1.7,0.5,2.4,1.8
		c0.1,0.3,0.1,0.6,0.2,0.9c0,1.5,0.1,3.1,0.1,4.6c0,1.1,0,2.1,0,3.2c0,1-0.1,2-0.1,2.9c0,0.1,0,0.2-0.1,0.3c-0.9,1-1.7,2.2-3.4,2.3
		c-4.2,0.3-8.3,0.4-12.5-0.1c-2.2-0.2-4.3-0.3-6.5-0.5c-2.6-0.2-5.2-0.2-7.7-0.4c-1.8-0.2-3.6,0-5.4,0.1c-3.4,0.1-6.8,0.2-10.2,0.4
		c-1.7,0.1-3.4,0.1-5.1,0.2c-1.1,0-2.1-0.1-3.2-0.1c-2.6,0-5.2-0.1-7.8-0.1c-0.2,0,0.2-0.2-0.7,0c-0.2,0-0.4-0.2-0.4-0.3
		c0.2-0.7-0.5-1.1-0.7-1.7c-0.1-0.2-0.2-0.5-0.2-0.7c-0.1-1.5-0.2-3-0.2-4.5c0-1.1,0-2.1,0-3.2c0-0.7,0.2-1.1,0.8-1.4
		c0.3-0.2,0.6-0.5,0.8-0.8c0.4-0.5,0.8-1.2,1.3-1.7c1.3-1.3,2.7-2.2,4-3.4c1.5-1.5,3-3,4.4-4.6c2-2.1,4-4.3,6-6.5
		c1.3-1.4,2.6-2.9,3.9-4.3c2-2.2,4.1-4.3,6.1-6.5c1.2-1.3,2.4-2.7,3.7-4c2.5-2.5,5-5,7.4-7.6c1.9-2,3.8-3.9,5.6-6
		c2.1-2.4,3.3-5.6,4.2-8.6c0.1-0.2,0.1-0.5,0.2-0.7c0.5-1.3,0.5-2.7,0.2-4c-0.3-1.4-0.5-2.7-1.1-4c-0.2-0.5-0.5-0.9-0.9-1.2
		c-2.3-1.9-4.8-3.3-7.8-4c-1.7-0.4-3.5-0.6-5.2-0.6c-1.2-0.1-2.2,0.4-3.3,0.9c-2.5,1-4.8,2.3-7,3.8c-1.5,1.1-2.9,2.3-4.4,3.5
		c-0.9,0.8-1.9,1.6-2.7,2.4c-0.8,0.8-1.5,1.6-2.3,2.4c-0.5,0.6-1,1.1-1.6,1.7c-0.3,0.3-0.7,0.4-1.1,0.2c-1.3-0.5-2.7-1-3.8-1.9
		c-1.2-1-2.4-2-3.6-2.9c-1-0.8-1.4-2-1.4-3.3c0-0.2,0-0.4,0.1-0.5c0.7-1.1,1.1-2.5,2.1-3.5c0.7-0.7,1.3-1.6,2-2.3
		c1.1-1,2.2-1.9,3.4-2.8c1.6-1.3,3.3-2.5,5-3.8c1.3-1,2.7-1.9,4.1-2.8c0.6-0.4,1.3-0.6,2-0.9c1.4-0.6,2.6-1.3,4.1-1.6
		c1.6-0.3,3.1-0.7,4.7-1.1c0.2,0,0.3-0.1,0.5-0.2c0.6-0.1,1.2-0.4,1.8-0.4c2.3,0.1,4.6-0.1,6.8,0.3c2.5,0.4,4.9,1,7.2,2
		c2.8,1.1,5.5,2.4,8,4.2c0.5,0.3,0.9,0.7,1.3,1.1c1,1.2,2,2.5,3.1,3.6c1.3,1.3,1.9,3,2.5,4.6c0.5,1.4,0.6,2.8,1,4.2
		c0.3,1,0.2,2,0.1,3.1c-0.1,0.8-0.1,1.7,0,2.5c0.2,1.7,0.1,3.3-0.1,5c-0.1,0.5-0.3,0.9-0.4,1.4c-0.7,2.5-1.5,4.9-2.7,7.1
		c-0.9,1.7-1.9,3.4-3,5c-2.4,3.3-5.2,6.3-8.2,9.1c-1.2,1.1-2.3,2.4-3.5,3.7c-1.1,1.2-2.2,2.3-3.2,3.5c-1.4,1.4-2.7,2.9-4.1,4.3
		c-0.8,0.8-1.7,1.6-2.5,2.5c-0.8,0.8-1.5,1.7-2.3,2.5c-0.3,0.4-0.6,0.7-1,1c-2,1.9-4,3.8-6,5.7c-0.7,0.7-1.4,1.4-2.1,2.1
		c-0.1,0.1-0.2,0.3-0.3,0.4C275.7,130.9,275.8,131,275.8,131.1z"/>
	<path style="fill:#ABC0DE;" d="M109.4,131.7c0.5,0,0.9,0.1,1.3,0c1.5-0.3,3.1-0.3,4.6-0.2c2.5,0.1,5,0.1,7.5,0.1
		c3.2,0,6.3-0.2,9.5-0.3c3.5-0.1,7,0,10.5-0.1c1.2,0,2.5,0,3.7-0.2c1.6-0.2,2.3,1,2.5,2.1c0.2,1,0.2,2.1,0.2,3.2c0,1.9,0,3.9,0,5.8
		c0,0.8-0.3,1.5-0.1,2.3c0,0.1,0,0.3,0,0.3c-0.9,1-1.5,2.2-3.1,2.3c-4.1,0.4-8.2,0.4-12.2-0.1c-2.1-0.2-4.3-0.3-6.4-0.5
		c-2.5-0.2-5-0.2-7.5-0.4c-1.7-0.2-3.5,0-5.2,0.1c-3.3,0.1-6.5,0.2-9.8,0.4c-1.7,0.1-3.3,0.1-5,0.2c-1,0-2-0.1-3-0.1
		c-2.6,0-5.1-0.1-7.7-0.1c-0.8,0-0.8,0-1.1-0.8c0-0.1,0-0.2-0.1-0.2c-1.1-1.3-0.9-2.9-1-4.4c-0.1-1.7,0-3.4,0-5.1
		c0-0.6,0.2-1,0.8-1.3c0.3-0.2,0.6-0.4,0.8-0.7c0.6-1.1,1.4-2,2.3-2.8c1.8-1.9,3.6-3.7,5.4-5.5c1.6-1.7,3.1-3.4,4.7-5.2
		c1.9-2.1,3.8-4.2,5.6-6.4c2-2.3,4.1-4.6,6.2-6.9c2-2.2,3.9-4.3,5.9-6.4c1.9-2,3.8-4,5.7-6c1.8-1.9,3.6-3.8,5.3-5.8
		c2-2.4,3.4-5.3,4.3-8.3c0.1-0.2,0.1-0.5,0.2-0.7c0.5-1.3,0.5-2.7,0.2-4c-0.2-1.1-0.4-2.3-0.8-3.4c-0.4-1-0.9-1.7-1.7-2.4
		c-2.1-1.6-4.4-2.8-6.9-3.5c-1.7-0.4-3.3-0.5-5-0.6c-1.1-0.1-2.2,0.4-3.2,0.9c-2.4,1-4.7,2.3-6.8,3.8c-1.5,1-2.8,2.3-4.2,3.4
		c-0.9,0.8-1.8,1.6-2.7,2.4c-0.7,0.7-1.3,1.5-2,2.2c-0.6,0.6-1.1,1.3-1.7,1.9c-0.3,0.4-0.8,0.4-1.2,0.3c-1.5-0.5-2.8-1.2-4-2.3
		c-0.9-0.8-1.8-1.6-2.8-2.3c-0.6-0.5-1.2-1.1-1.4-1.8c-0.3-0.8-0.4-1.6,0-2.5c0.8-1.7,1.9-3,3-4.5c1.1-1.5,2.5-2.6,4-3.7
		c1.7-1.3,3.3-2.6,5-3.8c1.3-0.9,2.6-1.8,3.9-2.7c0.7-0.4,1.4-0.7,2.2-1.1c1.3-0.6,2.6-1.3,4.1-1.6c1.5-0.3,3-0.6,4.5-1.1
		c2.6-0.9,5.2-0.6,7.9-0.3c4.5,0.4,8.6,2,12.5,4.2c1.1,0.6,2.2,1.3,3.3,2c0.6,0.4,1,0.9,1.5,1.4c0.2,0.2,0.4,0.5,0.7,0.7
		c0.5,0.6,1.1,1.2,1.6,1.8c0.8,1,1.6,2,2.1,3.2c0.8,1.7,1,3.4,1.5,5.2c0.1,0.5,0.3,1.1,0.3,1.6c0.1,0.6,0.2,1.3,0.1,1.8
		c-0.2,1.1-0.1,2.2,0,3.3c0.1,1.7,0.1,3.3-0.1,5c-0.1,0.5-0.3,0.9-0.4,1.4c-0.6,2.5-1.5,4.8-2.6,7.1c-1.1,2.2-2.3,4.4-3.9,6.3
		c-2.2,2.7-4.4,5.4-7,7.8c-1.2,1.1-2.2,2.4-3.3,3.6c-1,1.1-2.1,2.3-3.1,3.4c-1.4,1.5-2.7,3-4.1,4.4c-0.8,0.8-1.6,1.6-2.3,2.4
		c-0.8,0.9-1.5,1.8-2.3,2.7c-0.3,0.3-0.6,0.7-0.9,1c-1.9,1.9-3.9,3.7-5.8,5.6c-0.7,0.7-1.4,1.5-2.1,2.2
		C109.7,131.3,109.6,131.4,109.4,131.7z"/>
	<path style="fill:#ABC0DE;" d="M242.4,137.4c-0.1,1-0.2,2-0.4,3c-0.1,1-0.9,1.6-1.3,2.4c-0.8,1.4-2.1,2.2-3.5,2.9
		c-1.9,1-3.7,1.3-5.9,0.5c-1.5-0.6-2.8-1.5-4-2.5c-0.7-0.6-1.3-1.3-1.9-2.1c-0.3-0.4-0.5-0.9-0.6-1.4c-0.2-0.6-0.3-1.3-0.4-2
		c-0.4-1.9-0.1-3.7,0.7-5.4c0.2-0.5,0.6-1,1-1.4c0.8-0.7,1.6-1.4,2.5-2.1c1.3-1,2.8-1.4,4.5-1.4c1.9,0,3.6,0.6,5.1,1.7
		c0.7,0.5,1.4,1.2,2,1.9c0.8,1.1,1.6,2.4,1.9,3.8C242.2,136,242.3,136.7,242.4,137.4z"/>
	<path style="fill:#ABC0DE;" d="M225.5,110.3c-0.2-1.1-0.3-2.1-0.8-3.1c-0.2-0.5-0.4-1-0.5-1.6c-0.3-1.5-0.9-2.8-1.8-4
		c-1-1.4-1.9-2.9-3-4.2c-1.1-1.4-2.5-3.2-4.7-4.9c-2.2-1.7-4.8-1.9-7.1-3.3c-0.1,0-0.1-0.1-0.2-0.1c-1.6-0.5-3.2-1.3-4.9-1.7
		c-2-0.4-3.9-1-6-1c-1.2,0-2.3,0-3.5,0c-2.5-0.1-5,0.4-7.4,1.1c-1.4,0.4-2.8,0.8-4.1,1.3c-1.5,0.6-2.9,1.2-4.3,1.9
		c-1.9,1-3.5,1.7-5,3.3c-0.2,0.3-0.5,0.5-0.8,0.8c-0.1-0.1-0.2-0.1-0.2-0.2c0.1-0.4,0.2-0.9,0.4-1.3c0.8-1.8,1.6-3.6,2.5-5.4
		c1.8-3.7,4.3-6.7,7.2-9.6c2.2-2.2,4.7-4.2,7.3-6c1.2-0.8,2.3-1.7,3.5-2.5c0.3-0.2,0.6-0.4,0.9-0.6c1.4-0.8,2.8-1.6,4.2-2.4
		c1.5-0.9,3.1-1.7,4.7-2.3c1.6-0.6,3.2-1.4,4.8-2.1c0.7-0.3,1.4-0.8,2.1-0.8c1.4-0.1,2.6-0.7,3.9-0.9c0.4,0,0.9-0.2,1.3-0.2
		c0.8-0.1,0.9-0.1,1.1-0.8c0.1-0.3,0.1-0.7,0.1-1c-0.1-1.8-0.3-3.6-0.4-5.4c-0.1-1.2-0.4-1.4-1.5-1.4c-0.3,0-0.5,0.1-0.8,0.1
		c-0.8,0.1-1.6,0.2-2.4,0.2c-1.9-0.2-3.7,0.1-5.6,0.4c-0.5,0.1-0.9,0.3-1.4,0.4c-1.4,0.4-2.8,0.6-4.2,1.1c-2.7,0.9-5.4,1.8-8.1,2.7
		c-3.3,1.2-6.6,2.6-9.5,4.6c-1.6,1.1-3.1,2.4-4.7,3.7c-2.3,2-4.4,4.2-6.3,6.6c-2.2,3-4.2,6.1-5.8,9.5c-1.9,4.2-4,8.3-5.3,12.7
		c-1,3.4-1.5,6.9-2,10.4c-0.3,1.8-0.2,3.6-0.3,5.4c0,3.1,0.2,6.2,1,9.3c0.2,0.8,0.5,1.7,0.8,2.5c0.5,1.5,1,3,1.5,4.5
		c0.2,0.6,0.4,1.2,0.7,1.7c0.8,1.6,1.6,3.1,2.5,4.7c1.4,2.3,3,4.4,5,6.3c0.7,0.6,1.3,1.3,2,1.9c1,0.8,1.9,1.8,3,2.5
		c1.5,0.9,3,1.7,4.6,2.5c0.4,0.2,0.7,0.4,1.1,0.5c2,0.7,4,1.3,6.1,1.5c2,0.3,3.9,0.5,5.9,0.3c2.3-0.2,4.5-0.5,6.8-1
		c2-0.4,4-1.1,5.8-1.9c0.5-0.2,0.9-0.4,1.4-0.6c0.6-0.3,1.2-0.5,1.8-0.8c0.5-0.2,0.9-0.5,1.4-0.7c2.2-0.9,4-2.3,5.7-3.9
		c1.4-1.3,2.6-2.9,3.9-4.3c2.2-2.4,3.6-5.2,4.9-8.1c0.7-1.5,1.1-3.2,1.5-4.8C225.6,117.9,226.2,114.2,225.5,110.3z M214.7,115.8
		c-0.1,2.5-1,4.7-1.8,7c-0.7,2.1-2,3.8-3.3,5.4c-1.2,1.5-2.4,3-3.8,4.3c-1.9,1.9-4.3,3.2-6.9,3.8c-0.9,0.2-1.8,0.5-2.8,0.7
		c-1,0.1-2,0.2-3,0.1c-1.8-0.1-3.5-0.1-5.3-0.4c-2.2-0.3-4.4-0.8-6.4-1.7c-0.4-0.2-0.8-0.4-1.1-0.7c-1.4-1.3-2.8-2.5-4-4.1
		c-0.9-1.2-1.7-2.5-2.5-3.8c-1.4-2.5-2.3-5.2-3.1-7.9c0-0.1,0-0.2,0-0.2c-0.8-1.7-0.4-3.5-0.2-5.3c0.4-2.9,1.9-5.3,3.6-7.6
		c1.7-2.3,3.7-4.3,6-5.9c1.6-1.2,3.4-2.2,5.4-2.8c1-0.3,2-0.6,3-1c1.3-0.4,2.6-0.7,4-0.5c0.3,0,0.6,0,1,0c3.2-0.2,6.2,0.9,9.1,2.4
		c1.7,0.9,3.4,1.9,5,3c1.2,0.9,2.3,1.9,3.2,3.2c0.5,0.7,1,1.4,1.5,2c0.8,1.1,1.2,2.3,1.5,3.5c0.2,0.6,0.5,1.2,0.7,1.7
		c0.2,0.5,0.4,1,0.4,1.5C214.9,113.8,214.7,114.8,214.7,115.8z"/>
	<path style="fill:#FCBA25;" d="M438,103.6c-16.1-3.2-31.6-8.9-47.4-13.3c-15.8-4.4-32.4-7.5-48.6-5.2c3.4,2.3,7.3,2.9,10.7,5.2
		c-5.3,1.7-10.9,5.5-15.8,8c4.2,1.4,8.4,2.7,12.6,4.1c-4.5,1.6-8.8,3.6-13.1,5.8c3.6,1.9,7.2,3.8,10.8,5.7
		c-3.6,2.6-7.2,5.3-10.8,7.9c12.3-0.3,24.9-0.6,36.8,2.4c16,4,30.3,13.8,46.4,17.4c19.5,4.3,40.1-0.8,59.5,3.6
		c10.6,2.4,20.3,7.6,29.9,12.8c-1.3-5-3.5-9.8-6.3-14.1c-1.3-2-2.9-4-3.4-6.3c-1.5-6.1,4.9-12.1,2.6-17.9c-2.2-5.5-12-6.8-17-8.1
		C469.5,107.5,453.5,106.7,438,103.6z"/>
	<g>
		<path style="fill:#FCBA25;" d="M-82.5,112.9c10-5.7,35.2-17.6,45.7-22.2c12.9-5.5,26.5-9.1,40.8-8.4c5.6,0.3,11.1,0.1,16.7,0.6
			c6.4,0.6,12.8,2.1,19.2,2.5c7.2,0.4,14.4,0,21.5,0c3.7,0,7.5,0,11.2,0.3c0.7,0,1.4,1,2.1,1.5c-0.6,0.6-1.1,1.4-1.8,1.8
			c-4,2.2-7.8,5.3-12.9,8c4,1.3,6.6,1.1,9.5,2.1c1.1,0.3,2.2,0.6,3.1,1.1c0.8,0.4,1.4,1.2,2.1,1.8c-0.9,0.5-1.8,1.2-2.7,1.6
			c-3.9,1.6-8.6,4.3-13.1,6.1c7.2,2.9,14.3,4.4,20.8,7c-0.1,0.4-0.1,0.8-0.2,1.1c-3.8,1.2-7.3,3.1-11.1,4.2
			c-9.3,2.8-19.1,1.7-28.6,0.8c-7.6-0.7-15.2-2-22.8-2.9c-9.2-1.2-17.5,2.2-26,4.9c-4,1.3-8.2,2.5-11.9,4.4c-6.5,3.4-12.7,7.2-19,11
			c-6.7,4.1-13.4,8.3-20.1,12.4c-0.8,0.5-14.7,13.7-16,13.3c1-0.7-1.7-18.9,1.7-36C-70.7,111.3-91.9,118.3-82.5,112.9z"/>
	</g>
	<path style="fill:#FCBA25;" d="M13.8,23c3.3-3.1,8.9-6.8,10-4.6c1.1,2.3,17.4,20.3,17.4,20.3s-13.5,10.1-14.8,7.9
		c-1.3-2.2-13.2-18-13.2-19.3C13.1,26,13.8,23,13.8,23"/>
	<path style="fill:#FCBA25;" d="M122.8-4c-2.4,5.2-13.2,17-17.6,16.6c-4.4-0.4-2.6,10.3,0.7,10.7c3.3,0.5,11.3-1.6,17.8-6.9
		c6.2-5.1,10.9-9.8,6.2-14.8L122.8-4"/>
	<path style="fill:#FCBA25;" d="M270.2,5.5c5.3-4.4,8-7.7,8-7.7S297.6,11.5,295,15c-2.6,3.5-9.5,10.9-10.5,8.8
		C283.8,22.5,272,5,270.2,5.5z"/>
	<path style="fill:#FCBA25;" d="M329,11.3c4.2-3.4,9.3-5.9,9.3-5.9h19c0,0,4.2,10.6,2.1,10.6c-2.1,0-23.2,7.6-24.5,9.3
		c-1.3,1.7-1.7,1.3-3,0.4C330.7,24.8,329,11.3,329,11.3z"/>
	<path style="fill:#FCBA25;" d="M367.5,173.3c6.2-1.4,22.8,4.5,22.8,4.5l-4.8,14.5l-23.1-7.3L367.5,173.3z"/>
	<path style="fill:#FCBA25;" d="M151.4,192.7c19.1-5.5,27.1-4.4,25.7-4c0,0-1,12.4-2.4,12.9c-1.4,0.5-18.6,3.3-21,2.9
		S151.4,192.7,151.4,192.7z"/>
	<polyline style="fill:#FCBA25;" points="26,161.3 50.8,169.9 41.7,182.7 19.8,171.3 26,161.3 	"/>
</g>
<g id="Lines">
	<path style="fill:#162B54;" d="M274.8,131.5c1.1-0.1,2.1-0.2,3.2-0.3c0.5,0,1,0,1.5,0c0.9,0,1.7,0.1,2.6,0.1c1.9,0,3.7,0.1,5.6,0
		c2.2,0,4.5-0.2,6.7-0.2c2.7-0.1,5.4-0.1,8.1-0.1c2.7,0,5.3,0,8,0c1.3,0,2.6-0.1,3.9-0.2c1.4-0.1,1.8,0.6,2.4,1.9
		c0.1,0.3,0.1,0.6,0.2,0.9c0,1.6,0.1,3.2,0.1,4.8c0,1.1,0,2.2,0,3.3c0,1-0.1,2-0.1,3c0,0.1,0,0.3-0.1,0.3c-1,1.1-1.7,2.3-3.5,2.4
		c-4.3,0.3-8.6,0.4-12.9-0.1c-2.2-0.2-4.5-0.3-6.7-0.5c-2.7-0.2-5.3-0.2-8-0.5c-1.9-0.2-3.7,0-5.6,0.1c-3.5,0.1-7,0.2-10.5,0.4
		c-1.7,0.1-3.5,0.1-5.2,0.2c-1.1,0-2.2-0.1-3.3-0.1c-2.7,0-5.4-0.1-8.1-0.1c-0.2,0-0.5,0-0.7,0c-0.2,0-0.4-0.2-0.4-0.3
		c0.2-0.8-0.6-1.1-0.7-1.8c-0.1-0.3-0.2-0.5-0.2-0.7c-0.1-1.6-0.2-3.1-0.2-4.7c0-1.1,0-2.2,0-3.3c0-0.7,0.2-1.1,0.8-1.5
		c0.3-0.2,0.6-0.6,0.9-0.9c0.4-0.6,0.8-1.2,1.3-1.7c1.3-1.3,2.7-2.6,4-3.9c1.5-1.6,3.1-3.2,4.6-4.8c2.1-2.2,4.1-4.5,6.2-6.7
		c1.4-1.5,2.7-3,4.1-4.5c2.1-2.3,4.2-4.5,6.3-6.7c1.3-1.4,2.5-2.8,3.8-4.1c2.5-2.6,5.1-5.2,7.7-7.8c2-2,3.9-4,5.8-6.2
		c2.1-2.5,3.6-5.4,4.5-8.5c0.1-0.3,0.1-0.5,0.2-0.8c0.5-1.4,0.5-2.8,0.3-4.2c-0.3-1.4-0.6-2.8-1.1-4.2c-0.2-0.5-0.5-0.9-0.9-1.3
		c-2.4-2-5-3.4-8-4.2c-1.8-0.4-3.6-0.6-5.4-0.7c-1.2-0.1-2.3,0.5-3.4,0.9c-2.6,1-5,2.4-7.2,3.9c-1.6,1.1-3,2.4-4.5,3.6
		c-1,0.8-1.9,1.6-2.8,2.5c-0.8,0.8-1.6,1.7-2.3,2.5c-0.5,0.6-1.1,1.2-1.6,1.8c-0.3,0.3-0.7,0.4-1.2,0.2c-1.4-0.5-2.8-1-3.9-2
		c-1.2-1-2.5-2-3.7-3c-1.1-0.9-1.5-2-1.4-3.4c0-0.2,0-0.4,0.1-0.5c0.8-1.2,1.2-2.5,2.2-3.6c0.7-0.7,1.3-1.7,2.1-2.4
		c1.1-1,2.3-2,3.5-2.9c1.7-1.3,3.4-2.6,5.2-3.9c1.4-1,2.8-2,4.3-2.9c0.6-0.4,1.4-0.6,2.1-0.9c1.4-0.6,2.7-1.4,4.2-1.7
		c1.6-0.3,3.2-0.8,4.8-1.1c0.2,0,0.4-0.1,0.5-0.2c0.6-0.2,1.3-0.4,1.9-0.4c2.4,0.1,4.7-0.1,7.1,0.3c2.6,0.4,5.1,1.1,7.5,2
		c2.9,1.1,5.7,2.5,8.3,4.3c0.5,0.3,1,0.7,1.4,1.2c1.1,1.2,2,2.6,3.2,3.7c1.3,1.4,2,3.1,2.5,4.8c0.5,1.4,0.6,2.9,1,4.3
		c0.3,1.1,0.2,2.1,0.1,3.2c-0.1,0.9-0.1,1.7,0,2.6c0.2,1.7,0.1,3.4-0.1,5.1c-0.1,0.5-0.3,0.9-0.4,1.4c-0.7,2.5-1.5,5-2.8,7.4
		c-0.9,1.8-1.9,3.5-3.1,5.2c-2.5,3.4-5.3,6.5-8.5,9.4c-1.3,1.2-2.4,2.5-3.6,3.8c-1.1,1.2-2.2,2.4-3.3,3.6c-1.4,1.5-2.8,3-4.2,4.5
		c-0.8,0.9-1.7,1.7-2.6,2.6c-0.8,0.9-1.6,1.8-2.4,2.6c-0.3,0.4-0.7,0.7-1,1.1c-2.1,2-4.2,3.9-6.2,5.8c-0.7,0.7-1.4,1.5-2.1,2.2
		c-0.1,0.1-0.2,0.3-0.3,0.4C274.8,131.3,274.8,131.4,274.8,131.5z M262.9,76.3c0.2-0.3,0.4-0.5,0.6-0.7c0.9-1.1,1.7-2.1,2.6-3.2
		c0.2-0.2,0.4-0.5,0.6-0.7c1.1-1,2.1-2,3.2-2.9c1.5-1.3,3-2.6,4.6-3.7c1.5-1,3.1-1.8,4.6-2.7c0.7-0.4,1.4-0.7,2.1-0.8
		c1.8-0.3,3.6-0.5,5.4-0.7c0.2,0,0.4,0,0.6,0c3.5,0.1,6.8,0.9,9.9,2.3c0.3,0.1,0.6,0.3,0.9,0.5c0.7,0.5,1.3,1,2,1.6
		c0.6,0.5,1.2,1.1,1.5,2c0.3,1,0.8,2.1,1.1,3.1c0.1,0.3,0.2,0.7,0.2,1c0.4,1.9,0.1,3.9-0.1,5.8c-0.1,0.7,0,1.5-0.2,2.1
		c-0.6,1.9-1,3.8-2,5.6c-0.1,0.2-0.2,0.3-0.2,0.5c-0.3,1.4-1.1,2.5-2,3.6c-0.9,1.1-1.9,2.1-2.8,3.1c-1.8,1.9-3.5,3.8-5.3,5.6
		c-2.2,2.3-4.5,4.5-6.7,6.8c-1.1,1.1-2.1,2.4-3.2,3.5c-1.2,1.3-2.5,2.6-3.7,3.9c-2.3,2.5-4.6,5.1-6.9,7.6c-1.7,1.8-3.4,3.6-5,5.4
		c-0.8,0.9-1.7,1.9-2.6,2.7c-1.7,1.6-3.3,3.2-5,4.8c-1.1,1-2.2,2-3.3,2.9c0,0-0.1,0-0.1,0.1c-0.6,0.5-0.9,1.1-0.9,1.9
		c0,2.5,0.3,5,0.6,7.5c1.4-0.1,2.8-0.3,4.2-0.4c2.8-0.1,5.7-0.1,8.5-0.2c0.8,0,1.7,0,2.5-0.1c2.6-0.1,5.2-0.4,7.9-0.4
		c5.4-0.1,10.7-0.1,16.1-0.1c4.4,0,8.8,0.4,13.2,0.8c2.6,0.3,5.2,0.1,7.8-0.1c0.7-0.1,0.8-0.2,0.8-1c0-0.7-0.1-1.4-0.1-2.2
		c0-1.7,0.1-3.5,0-5.2c0-0.7-0.1-1.4-0.2-2.2c-0.2-0.8-0.3-0.8-1.1-0.7c-0.6,0.1-1.1,0.3-1.7,0.3c-3.6,0.1-7.2,0.2-10.7,0.3
		c-2.2,0-4.3-0.1-6.5-0.1c-0.5,0-1,0-1.5,0c-2.2,0-4.3,0-6.5,0c-1.2,0-2.4-0.1-3.7-0.1c-1.4,0-2.7-0.1-4.1-0.1c-0.9,0-1.7,0-2.6,0
		c-1.5,0.1-3,0.2-4.5,0.3c-0.7,0-1.3-0.1-1.8-0.4c0-0.6,0.3-0.8,0.7-1c0.2-0.1,0.3-0.4,0.3-0.5c-0.4-0.8,0.1-1.3,0.5-1.7
		c1.7-1.8,3.3-3.7,5.1-5.4c2.8-2.8,5.8-5.3,8.4-8.2c1.3-1.5,2.7-2.8,4.1-4.3c0.4-0.4,0.8-0.9,1.2-1.3c1.2-1.2,2.5-2.3,3.7-3.5
		c0.4-0.4,0.7-0.8,1.1-1.2c1.6-1.7,3.1-3.5,4.8-5.2c1.8-1.7,3.6-3.5,5.1-5.5c1.4-1.6,2.6-3.4,3.8-5.1c2-2.9,3.4-6.1,4.3-9.5
		c0.2-0.7,0.4-1.3,0.5-2c0.1-2.4,0.2-4.8-0.1-7.2c-0.1-0.7-0.2-1.4-0.4-2.1c-0.4-1.2-0.6-2.5-1.3-3.6c-0.6-0.9-1.1-1.8-1.7-2.7
		c-1.3-2-3-3.5-5-4.8c-1.9-1.3-4-2.3-6.1-3.3c-1.2-0.6-2.4-1.1-3.6-1.3c-3-0.6-6-0.9-9-0.7c-1.4,0-2.8,0.1-4.1,0.4
		c-2.2,0.5-4.3,1.1-6.5,1.8c-3.1,1-6,2.5-8.6,4.4c-2.1,1.6-4.2,3.1-6.2,4.7c-1.1,0.8-2,1.9-2.9,2.9c-1.1,1.2-2.2,2.6-3.3,3.9
		c1.4,0.1,2.5,0.9,3.6,1.7c1.1,0.8,2.2,1.7,3.3,2.5C261.9,75.7,262.4,76,262.9,76.3z"/>
	<path style="fill:#162B54;" d="M110.6,132.3c0.5,0,1,0.1,1.4,0c1.6-0.3,3.2-0.3,4.8-0.2c2.6,0.1,5.2,0.1,7.8,0.1
		c3.3,0,6.5-0.2,9.8-0.3c3.6-0.1,7.2,0,10.8-0.1c1.3,0,2.6,0,3.9-0.2c1.6-0.2,2.3,1,2.5,2.2c0.2,1.1,0.2,2.2,0.3,3.3c0,2,0,4,0,6
		c0,0.8-0.3,1.6-0.1,2.4c0,0.1,0,0.3,0,0.3c-0.9,1-1.5,2.3-3.2,2.4c-4.2,0.4-8.4,0.4-12.7-0.1c-2.2-0.2-4.4-0.4-6.6-0.5
		c-2.6-0.2-5.2-0.2-7.8-0.5c-1.8-0.2-3.6,0-5.4,0.1c-3.4,0.1-6.8,0.2-10.2,0.4c-1.7,0.1-3.4,0.1-5.1,0.2c-1,0-2.1-0.1-3.1-0.1
		c-2.7-0.1-5.3-0.1-8-0.1c-0.9,0-0.9,0-1.1-0.9c0-0.1,0-0.2-0.1-0.2c-1.2-1.3-0.9-3-1-4.6c-0.1-1.7,0-3.5,0-5.3
		c0-0.6,0.2-1.1,0.8-1.4c0.3-0.2,0.6-0.5,0.8-0.8c0.6-1.2,1.5-2,2.3-2.9c1.8-1.9,3.8-3.8,5.6-5.7c1.6-1.7,3.2-3.5,4.8-5.3
		c2-2.2,3.9-4.4,5.8-6.6c2.1-2.4,4.2-4.8,6.4-7.2c2-2.2,4.1-4.4,6.1-6.6c2-2.1,4-4.1,5.9-6.2c1.8-2,3.7-3.9,5.5-6
		c2.1-2.5,3.5-5.4,4.4-8.6c0.1-0.3,0.1-0.5,0.2-0.8c0.5-1.4,0.5-2.8,0.2-4.2c-0.2-1.2-0.4-2.4-0.9-3.5c-0.4-1-0.9-1.8-1.8-2.4
		c-2.2-1.7-4.5-2.9-7.2-3.6c-1.7-0.4-3.5-0.6-5.2-0.7c-1.2-0.1-2.2,0.4-3.3,0.9c-2.5,1-4.9,2.4-7.1,3.9c-1.5,1.1-2.9,2.3-4.3,3.5
		c-1,0.8-1.9,1.6-2.8,2.5c-0.7,0.7-1.4,1.5-2.1,2.3c-0.6,0.6-1.2,1.3-1.7,2c-0.4,0.4-0.8,0.4-1.2,0.3c-1.5-0.5-2.9-1.2-4.1-2.3
		c-0.9-0.9-1.9-1.7-2.9-2.4c-0.7-0.5-1.2-1.1-1.5-1.8c-0.3-0.8-0.4-1.7,0-2.6c0.8-1.7,1.9-3.2,3.1-4.6c1.2-1.5,2.6-2.7,4.1-3.9
		c1.7-1.3,3.4-2.7,5.1-4c1.3-1,2.7-1.9,4-2.8c0.7-0.4,1.5-0.8,2.2-1.1c1.4-0.6,2.7-1.4,4.2-1.7c1.5-0.3,3.1-0.6,4.6-1.1
		c2.7-1,5.4-0.6,8.1-0.3c4.6,0.4,8.9,2,12.9,4.3c1.2,0.7,2.3,1.3,3.4,2.1c0.6,0.4,1,1,1.5,1.5c0.2,0.2,0.4,0.5,0.7,0.8
		c0.5,0.6,1.1,1.2,1.6,1.9c0.8,1,1.6,2.1,2.2,3.3c0.8,1.7,1.1,3.6,1.5,5.4c0.1,0.6,0.3,1.1,0.3,1.7c0.1,0.6,0.2,1.3,0.1,1.9
		c-0.2,1.1-0.1,2.3,0,3.4c0.2,1.7,0.1,3.4-0.1,5.1c-0.1,0.5-0.3,0.9-0.4,1.4c-0.7,2.5-1.6,5-2.7,7.4c-1.1,2.3-2.4,4.5-4,6.5
		c-2.3,2.8-4.6,5.6-7.2,8.1c-1.2,1.1-2.3,2.5-3.4,3.7c-1.1,1.2-2.1,2.4-3.2,3.6c-1.4,1.5-2.8,3.1-4.3,4.6c-0.8,0.8-1.6,1.6-2.4,2.5
		c-0.8,0.9-1.6,1.8-2.4,2.7c-0.3,0.3-0.6,0.7-0.9,1c-2,1.9-4,3.8-6,5.8c-0.8,0.7-1.5,1.5-2.2,2.3C110.8,131.8,110.7,132,110.6,132.3
		z M90.1,145.7c1.3-0.1,2.6-0.3,3.9-0.4c2.6-0.1,5.2-0.1,7.9-0.2c2.9-0.1,5.7-0.2,8.6-0.3c2.6-0.1,5.2-0.2,7.8-0.2
		c3.1,0,6.2,0,9.3,0c3.4,0,6.8,0.1,10.1,0.5c3.6,0.4,7.2,0.7,10.8,0.2c1-0.1,1.1-0.2,1.1-1.2c0-0.7-0.1-1.4-0.1-2.2
		c0-1.7,0.1-3.4,0-5.1c0-0.7-0.1-1.4-0.2-2c-0.2-0.8-0.3-0.8-1.1-0.7c-1.1,0.2-2.3,0.4-3.4,0.4c-3.3,0.1-6.5,0.1-9.8,0.1
		c-3.7,0-7.3,0.1-11,0c-1.8,0-3.5-0.1-5.3-0.2c-1.5,0-2.9-0.1-4.4-0.1c-0.8,0-1.6,0-2.4,0c-1.4,0.1-2.9,0.2-4.3,0.3
		c-0.4,0-0.9-0.1-1.3-0.2c-0.5-0.1-0.5-0.5-0.2-0.9c0.2-0.2,0.4-0.3,0.5-0.4c0.1-0.2,0.3-0.4,0.2-0.6c-0.3-0.6,0-1,0.3-1.3
		c0.4-0.5,0.8-1,1.2-1.5c3-3,5.9-6,8.9-9c0.7-0.8,1.5-1.5,2.2-2.3c1.7-1.8,3.4-3.7,5.1-5.5c0.3-0.4,0.6-0.8,1-1.1
		c1.2-1.2,2.4-2.3,3.6-3.5c0.4-0.4,0.7-0.8,1.1-1.2c1.5-1.7,3-3.5,4.6-5.2c1.8-1.7,3.5-3.5,5-5.4c1.3-1.7,2.5-3.4,3.7-5.2
		c2-3,3.4-6.2,4.2-9.7c0.2-0.8,0.4-1.6,0.5-2.5c0.1-2.2,0.1-4.3-0.1-6.5c-0.1-0.7-0.2-1.4-0.4-2.1c-0.4-1.2-0.7-2.5-1.2-3.7
		c-0.4-1-1.1-1.9-1.7-2.8c-1.3-2-2.9-3.5-4.8-4.8c-1.8-1.2-3.8-2.2-5.8-3.2c-1.1-0.6-2.4-1.1-3.6-1.4c-3.3-0.6-6.6-0.9-10-0.7
		c-1.3,0.1-2.6,0.3-3.9,0.7c-1.1,0.4-2.2,0.8-3.3,1c-1.4,0.3-2.8,0.8-4.1,1.4c-1.4,0.7-2.8,1.3-4,2.1c-2.2,1.5-4.2,3.1-6.3,4.7
		c-1.4,1.1-2.9,2.2-4,3.5c-1.3,1.5-2.5,3-3.7,4.5c1.3,0.4,2.7,1.1,3.6,1.8c1.1,0.9,2.2,1.7,3.3,2.5c0.4,0.3,0.8,0.5,1.2,0.7
		c0.2-0.2,0.4-0.4,0.5-0.6c0.8-1.1,1.7-2.1,2.5-3.2c0.2-0.3,0.4-0.5,0.7-0.8c0.9-0.9,1.9-1.7,2.9-2.6c1.8-1.7,3.8-3.3,5.9-4.7
		c0.4-0.3,0.8-0.6,1.2-0.8c1.5-0.8,2.8-1.8,4.5-2c1.8-0.3,3.6-0.4,5.4-0.6c0,0,0.1,0,0.1,0c3.3,0.1,6.5,0.9,9.5,2.2
		c0.3,0.2,0.7,0.3,1,0.6c0.6,0.5,1.2,1,1.8,1.4c0.8,0.7,1.5,1.5,1.7,2.6c0.1,0.6,0.3,1.2,0.6,1.7c0.5,1,0.6,2.1,0.8,3.2
		c0.2,1.4-0.1,2.8-0.2,4.2c0,0.9-0.1,1.8-0.3,2.6c-0.5,1.8-0.9,3.7-1.9,5.3c-0.1,0.2-0.2,0.3-0.2,0.5c-0.2,1.3-1,2.4-1.8,3.4
		c-1.5,1.8-3.1,3.6-4.7,5.3c-2.5,2.7-5.1,5.3-7.6,7.9c-2.5,2.6-4.8,5.3-7.3,7.9c-0.1,0.1-0.2,0.2-0.2,0.3c-2.2,2.5-4.4,5.1-6.6,7.6
		c-2.1,2.4-4.2,4.7-6.3,7c-0.9,1-1.7,2-2.6,2.9c-2.7,2.7-5.2,5.4-8.2,7.8c-0.6,0.5-0.9,1.1-0.9,1.9
		C89.5,140.8,89.8,143.2,90.1,145.7z"/>
	<path style="fill:#162B54;" d="M170.2,95.1c0.3-0.3,0.5-0.5,0.8-0.8c1.6-1.6,3.2-3.1,5.2-4.2c1.4-0.8,2.9-1.4,4.5-2
		c1.4-0.5,2.8-1,4.2-1.4c2.5-0.7,5-1.2,7.6-1.2c1.2,0,2.4,0,3.6,0c2.1,0.1,4.1,0.6,6.2,1.1c1.8,0.4,3.4,1.2,5.1,1.8
		c0.1,0,0.1,0,0.2,0.1c2.4,1.5,5,2.5,7.3,4.3c1.9,1.5,3.5,3.2,4.9,5.1c1.1,1.4,2,2.9,3.1,4.4c0.9,1.3,1.5,2.7,1.8,4.2
		c0.1,0.6,0.3,1.1,0.5,1.6c0.5,1,0.6,2.1,0.8,3.2c0.7,4,0.1,7.9-0.8,11.7c-0.4,1.7-0.9,3.4-1.6,5c-1.3,3-2.8,5.9-5,8.4
		c-1.4,1.5-2.6,3.1-4,4.5c-1.8,1.7-3.7,3-5.9,4c-0.5,0.2-0.9,0.5-1.4,0.7c-0.6,0.3-1.3,0.5-1.9,0.8c-0.5,0.2-1,0.4-1.4,0.7
		c-1.9,0.9-3.9,1.6-6,2c-2.3,0.5-4.6,0.8-7,1c-2.1,0.2-4.1-0.1-6.1-0.3c-2.2-0.3-4.2-0.9-6.3-1.6c-0.4-0.1-0.8-0.3-1.1-0.5
		c-1.6-0.8-3.2-1.6-4.7-2.6c-1.1-0.7-2.1-1.7-3.1-2.5c-0.7-0.6-1.4-1.3-2.1-1.9c-2-2-3.7-4.1-5.1-6.5c-0.9-1.6-1.8-3.2-2.6-4.8
		c-0.3-0.6-0.5-1.2-0.8-1.8c-0.5-1.5-1.1-3.1-1.6-4.6c-0.3-0.9-0.6-1.7-0.8-2.6c-0.8-3.2-1.1-6.4-1.1-9.6c0-1.9,0-3.7,0.3-5.6
		c0.6-3.6,1.1-7.2,2.1-10.7c1.3-4.6,3.4-8.9,5.4-13.2c1.6-3.5,3.6-6.8,6-9.8c1.9-2.5,4.1-4.8,6.5-6.9c1.6-1.3,3.1-2.7,4.8-3.8
		c3-2.1,6.3-3.6,9.8-4.8c2.8-1,5.6-1.9,8.4-2.8c1.4-0.4,2.9-0.7,4.3-1.1c0.5-0.1,0.9-0.3,1.4-0.4c1.9-0.3,3.8-0.6,5.8-0.4
		c0.8,0.1,1.7-0.1,2.5-0.2c0.3,0,0.5-0.1,0.8-0.1c1.2,0,1.5,0.2,1.6,1.4c0.2,1.9,0.3,3.7,0.5,5.6c0,0.3,0,0.7-0.1,1
		c-0.2,0.8-0.3,0.8-1.1,0.9c-0.5,0-0.9,0.2-1.3,0.2c-1.4,0.1-2.7,0.8-4.1,0.9c-0.8,0.1-1.5,0.5-2.2,0.8c-1.6,0.7-3.3,1.5-4.9,2.1
		c-1.7,0.7-3.3,1.5-4.9,2.4c-1.4,0.8-2.9,1.6-4.4,2.5c-0.3,0.2-0.6,0.4-0.9,0.6c-1.2,0.9-2.4,1.8-3.6,2.6c-2.7,1.9-5.3,3.9-7.6,6.2
		c-2.9,2.9-5.6,6.1-7.4,9.9c-0.9,1.8-1.7,3.7-2.5,5.6c-0.2,0.4-0.3,0.9-0.4,1.4C170,95,170.1,95.1,170.2,95.1z M213.1,52.4
		c-0.6,0.2-1.1,0.3-1.7,0.4c-1.3,0.3-2.7,0.5-4,0.7c-0.9,0.2-1.9,0.3-2.8,0.5c-2.4,0.6-4.8,1.1-7.2,1.8c-2.3,0.6-4.5,1.5-6.6,2.6
		c-0.8,0.4-1.7,0.8-2.6,1.2c-1.1,0.5-2.2,1-3.3,1.6c-0.9,0.5-1.7,1.1-2.6,1.7c-1.1,0.8-2.3,1.6-3.3,2.5c-1.3,1.2-2.5,2.5-3.7,3.7
		c-2.1,2.1-4.2,4.3-5.7,6.9c-1.5,2.5-2.9,5-4.2,7.6c-1.2,2.5-2.4,5.1-3.4,7.7c-1,2.6-1.8,5.2-2.6,7.9c-1,3.6-1.4,7.3-1.7,11
		c-0.1,2,0,4,0.4,5.9c0.4,1.7,0.8,3.3,1.5,4.9c1.2,3,2,6.2,3.7,9.1c0.9,1.5,1.7,3.2,2.8,4.6c1.6,2.1,3.3,4.3,5.4,6
		c0.9,0.8,1.7,1.8,2.7,2.4c1.3,0.9,2.8,1.6,4.2,2.3c3.4,1.6,7.1,2.1,10.9,2.1c1.6,0,3.1-0.1,4.6-0.4c2.7-0.5,5.4-1,7.9-2
		c1.5-0.6,3.2-1.1,4.6-1.9c3.1-1.7,5.7-4.2,8-6.9c0.8-0.9,1.4-1.9,2.2-2.8c0.7-0.8,1.3-1.7,1.9-2.5c0.8-1.2,1.3-2.5,2-3.7
		c0.9-1.7,1.4-3.6,2-5.4c0.6-2,0.7-4,1.1-6c0.2-1.1,0.4-2.1,0.1-3.2c-0.3-1.6-0.5-3.3-1-4.9c-0.8-2.6-2-4.9-3.7-7
		c-1.4-1.8-2.9-3.4-4.4-5.1c-0.1-0.1-0.2-0.2-0.3-0.3c-2.8-2.3-5.9-4.1-9.1-5.5c-3.2-1.4-6.5-2.2-9.9-2.5c-1.7-0.1-3.5-0.1-5.2,0.1
		c-2.1,0.2-4.1,0.9-6.1,1.5c-1.1,0.4-2.3,0.8-3.4,1.3c-1.8,0.8-3.6,1.5-5.1,2.7c-1.1,0.9-2.2,1.8-3.2,2.7c-2.1,2-4.5,3.6-6.5,5.8
		c-0.1,0.1-0.2,0.1-0.3,0.1c-0.4-0.3-0.4-0.7-0.4-1.1c0.1-0.6,0.1-1.1,0.3-1.7c0.1-0.5,0.3-1,0.4-1.5c0.4-1.4,0.7-2.9,1.1-4.3
		c1.2-3.8,3.3-7.2,5.3-10.7c1.1-1.9,2.7-3.5,4.2-5.1c1.9-2,3.9-3.8,6.1-5.5c1.2-1,2.4-1.9,3.7-2.9c1.4-1,2.7-1.9,4.2-2.8
		c1.5-0.9,3.1-1.9,4.7-2.7c1.7-0.8,3.5-1.6,5.2-2.3c2.4-1,4.9-1.7,7.4-2.2c1.8-0.4,3.7-0.7,5.5-0.6c0.2,0,0.3-0.1,0.5-0.1
		C213.5,56.2,213.3,54.3,213.1,52.4z"/>
	<path style="fill:#162B54;" d="M244.4,137c-0.1,1.1-0.3,2.1-0.4,3.1c-0.1,1.1-0.9,1.7-1.4,2.6c-0.9,1.5-2.2,2.3-3.7,3.1
		c-2,1.1-4,1.4-6.2,0.5c-1.6-0.6-3-1.5-4.3-2.7c-0.7-0.7-1.4-1.4-2-2.2c-0.3-0.4-0.5-0.9-0.6-1.4c-0.2-0.7-0.3-1.4-0.5-2.1
		c-0.4-2-0.1-3.9,0.7-5.8c0.2-0.5,0.6-1,1.1-1.4c0.8-0.8,1.7-1.5,2.6-2.2c1.4-1.1,3-1.5,4.8-1.4c2,0,3.8,0.6,5.4,1.8
		c0.8,0.6,1.5,1.3,2.1,2.1c0.9,1.2,1.7,2.5,2,4.1C244.2,135.6,244.3,136.3,244.4,137z M234.9,129.6c-0.2,0-0.5,0-0.7,0
		c-2.6,0-4.4,1.4-6,3.2c-0.1,0.1-0.1,0.2-0.2,0.3c-0.6,1.2-0.9,2.5-0.6,3.9c0.2,1.2,0.4,2.4,1.3,3.3c1.1,1.1,2.2,2.1,3.8,2.3
		c0.1,0,0.3,0.1,0.4,0.1c1.2,0.6,2.4,0.5,3.8,0.3c1.6-0.3,2.6-1.1,3.3-2.5c0.4-0.8,0.9-1.7,1.1-2.6c0.5-2.2-0.5-4.1-1.4-5.9
		C238.8,130.1,236.9,129.5,234.9,129.6z"/>
	<path style="fill:#162B54;" d="M192.2,141.3c-4.1,0-7.7-0.7-11.2-2.1c-0.7-0.3-1.4-0.7-2.1-1.1c-0.8-0.5-1.7-1-2.5-1.6
		c-1.4-0.9-2.5-2.1-3.5-3.4c-2.9-3.5-4.7-7.4-5.7-11.8c-0.1-0.7-0.3-1.3-0.5-2c-0.4-1.7-0.4-3.4,0-5.1c0.2-1,0.4-2.1,0.6-3.1
		c0.1-0.4,0.2-0.9,0.4-1.3c1.2-2.6,2.6-5.1,4.8-7.2c1.1-1,2-2.2,3.1-3.2c1.8-1.6,3.8-3,6.1-4c2-0.9,4.1-1.5,6.3-1.9
		c2.4-0.4,4.8-0.7,7.1-0.2c2.9,0.5,5.7,1.3,8.3,2.7c1.6,0.8,3.1,1.7,4.6,2.7c1.9,1.2,3.6,2.6,5.1,4.4c0.8,0.9,1.3,2,1.8,3.2
		c0.8,2.1,1.7,4.2,2.3,6.3c0.3,1.2,0.4,2.3,0.2,3.5c-0.2,1.2-0.3,2.5-0.5,3.7c-0.1,1.4-0.5,2.7-1,3.9c-0.8,2.2-1.6,4.5-3.1,6.3
		c-1.7,2-3.3,4.2-5.3,5.9c-2.3,2-5,3.5-8,4.2c-1.4,0.3-2.8,0.7-4.2,0.9C194.1,141.3,193,141.2,192.2,141.3z M192.9,95.7
		c-0.5,0-0.8,0-1.1,0c-1.4-0.2-2.8,0.1-4.1,0.5c-1,0.4-2.1,0.7-3.1,1c-2.1,0.6-3.8,1.6-5.5,2.9c-2.4,1.7-4.4,3.8-6.2,6.1
		c-1.8,2.4-3.2,4.9-3.7,7.9c-0.3,1.8-0.7,3.7,0.2,5.5c0,0.1,0,0.1,0.1,0.2c0.8,2.8,1.7,5.6,3.2,8.1c0.8,1.4,1.6,2.7,2.5,3.9
		c1.2,1.6,2.7,2.9,4.2,4.2c0.3,0.3,0.7,0.5,1.2,0.7c2.1,0.9,4.4,1.4,6.6,1.7c1.8,0.3,3.6,0.3,5.5,0.4c1,0,2.1,0,3.1-0.1
		c1-0.1,1.9-0.5,2.9-0.7c2.8-0.6,5.2-2,7.2-4c1.4-1.4,2.7-2.9,3.9-4.5c1.4-1.7,2.7-3.5,3.4-5.6c0.8-2.4,1.8-4.7,1.8-7.3
		c0-1,0.2-2,0.2-3.1c0-0.5-0.2-1-0.4-1.5c-0.2-0.6-0.5-1.2-0.7-1.8c-0.3-1.3-0.8-2.5-1.6-3.6c-0.5-0.7-1.1-1.4-1.6-2.1
		c-0.9-1.3-2-2.4-3.3-3.3c-1.6-1.2-3.4-2.2-5.2-3.1C199.3,96.7,196.2,95.6,192.9,95.7z"/>
	<g>
		<path style="fill:#162C54;" d="M25.8,43.2c0.9,1.6,1.2,3,3.2,2.8c1.5-0.1,3.1-1.4,4.5-1.9c2.5-0.9,5-1.4,7.6-1.6
			c1.4-0.1,1.5-1.8,0.3-2.3c-4.8-2-6.7-6.8-9.5-10.7c-2-2.9-4.5-4.1-7-6.3c-1.5-1.3-1.9-4.5-4.4-4.5c-2.7,0-6.2,2.9-7.8,4.9
			c0,0,0,0.1-0.1,0.2c-0.8,0-1.6,0.8-1.1,1.8c1.7,3.3,3.7,6.4,6.2,9.1C20.3,37.5,23.8,39.8,25.8,43.2z M14.1,25.4
			c0.1-0.1,0.2-0.1,0.3-0.2c1-1.3,2.5-2.7,4.1-3.3c2.1-0.7,2.2,0.3,3.3,1.5c2,2.2,4.8,3.3,6.9,5.6c3.4,3.8,5.2,8.6,9,11.6
			c-2.1,0.4-4.1,0.9-6.1,1.7c-1.3,0.5-2.2,1.4-3.3,0.7c-0.5-0.3-1.4-2.5-1.9-3.1c-1.8-2.3-4.1-4-6.2-6
			C17.8,31.4,15.8,28.5,14.1,25.4z"/>
		<path style="fill:#162C54;" d="M285.5,3.5c-1.4-2-4.4-7.8-7.4-7.9c-1,0-1.3,0.3-1.8,1.1c-0.7,1.1-1,2.6-1.6,3.7
			c-0.7,1.1-1.6,2.1-2.2,3.3c-1.2,2.4-0.8,4.8,1.6,5.9c0,0,0,0,0.1,0c-0.4,0.4-0.4,1.2,0.1,1.6c4.4,3.7,6.1,9.7,11.3,12.6
			c0.6,0.3,1.1,0.2,1.5-0.3c2.7-3.1,5.9-5.4,9.6-7c0.8-0.3,0.8-1.4,0.2-1.9C292.4,11.6,288.7,7.9,285.5,3.5z M286.1,21.6
			c-4.5-3-6.4-8.6-10.5-12.1c-0.1-0.1-0.2-0.1-0.3-0.2c0.4-0.5,0.3-1.4-0.4-1.8c-2.2-1,1.7-6,2.3-7.1c0.1-0.2,1-2.8,0.7-2.6
			c1.1-0.5,5.4,6.3,6,7.1c2.9,4.1,6.4,7.5,10.3,10.5C291.1,17,288.4,19,286.1,21.6z"/>
		<path style="fill:#162C54;" d="M51.5,167.9c-4-0.3-7.8-1-11.6-2.2c-2-0.7-4-1.5-5.9-2.5c-1-0.5-2.3-1.5-3.4-1.8
			c-4.2-0.8-7,7.7-8.2,10.6c-0.6,1.4,1.4,2.5,2,1.2c1.1-2.5,2.3-5.7,4.1-7.8c1.7-2,2.3-1.2,4.3-0.2c1.2,0.6,2.4,1.2,3.7,1.7
			c4.2,1.7,8.5,2.6,12.9,3.1c-2.2,3.2-4.5,6.4-6.7,9.6c-4.2-2.3-8.6-4.4-13.1-6.2c-1.4-0.6-2,1.7-0.6,2.3c4.6,1.9,9.1,4.1,13.4,6.5
			c0.6,0.3,1.2,0.1,1.6-0.4c2.8-4,5.7-8.1,8.5-12.1C53,168.9,52.3,168,51.5,167.9z"/>
		<path style="fill:#162C54;" d="M391.4,176.3c-3.9,0.4-7.9,0.4-11.8-0.2c-2.1-0.3-4.2-0.8-6.3-1.4c-1.1-0.3-2.5-1.1-3.7-1.2
			c-4.3-0.1-5.6,8.7-6.3,11.8c-0.4,1.4,1.8,2.3,2.2,0.8c0.7-2.6,1.3-6,2.8-8.4c1.4-2.2,2.1-1.6,4.2-0.9c1.3,0.4,2.6,0.7,3.9,1
			c4.4,1,8.8,1.2,13.3,0.9c-1.7,3.5-3.4,7.1-5,10.6c-4.6-1.6-9.2-2.9-13.9-3.9c-1.5-0.3-1.7,2-0.2,2.3c4.9,1.1,9.6,2.5,14.3,4.1
			c0.6,0.2,1.2-0.1,1.5-0.7c2.1-4.5,4.2-8.9,6.3-13.4C393.1,177,392.2,176.2,391.4,176.3z"/>
		<path style="fill:#162C54;" d="M174.2,189.7c-3.2-0.4-6.8,1.5-10.2,1.4c-3.5-0.1-6.8,1.3-10.3,1.2c-0.6,0-1.3,0.5-1.3,1.1
			c-0.2,4.1-0.5,8.2-1.1,12.2c-0.2,1.6,2.2,1.7,2.4,0.2c0.5-3.7,0.8-7.4,1-11.1c1.3-0.1,2.5-0.3,3.8-0.6c2.6-0.6,4.9-0.4,7.5-0.5
			c1.6-0.1,3.2-0.5,4.7-0.9c3.6-0.9,2.1,1.4,1.2,3.9c-0.5,1.5-0.7,3.1-1.1,4.6c-0.3,1.2,0.4,1-0.5,1.5c-0.8,0.5-3.6,0.3-4.6,0.3
			c-3.2,0.1-6.3-0.7-9.2,1.1c-1.3,0.8-0.3,3,1.1,2.2c2.8-1.7,6.6-0.7,9.7-0.9c1.6-0.1,4.7,0.2,5.8-1.3c0.3-0.4,0.2-0.8,0.3-1.2
			c0.5-2,0.4-4,1.1-6.1c0.7-2.1,1.6-4.3,0.7-6.5C175,189.9,174.6,189.7,174.2,189.7z"/>
		<path style="fill:#162C54;" d="M123.2-8.9c-0.7-0.9-2.2-0.1-1.9,0.9c1,4.4,0.8,9.1-2,12.8c-2.9,3.9-6.5,4.1-10.9,4.2
			c-5.6,0.2-4.2,9.8-4,13.4c0.1,1.4,2.3,1.6,2.2,0.1c0-0.3,0-0.6,0-0.9c0.3,0.7,1.3,1.1,1.9,0.3c2.6-3.5,9.1-1.6,12.9-3.3
			c2.9-1.3,5.2-3.5,6.5-6.4c1.4-3.2,2-7.9,1.5-11.4C128.8-2.8,125.4-6.1,123.2-8.9z M122.3,15.7c-4.8,3.2-11.8,0.1-15.5,5
			c-0.1,0.1-0.1,0.2-0.1,0.3c-0.1-1.7-0.1-3.4,0-5.2c0.1-1.5,0-2.5,1.2-3.6c1.3-1.2,1.2-0.8,2.8-0.8c2.7,0,5.3-0.8,7.4-2.3
			c4.4-3.1,6.2-8.2,6-13.3c1.7,2.3,3.1,4.6,3.2,7.6C127.4,7.9,126.3,13,122.3,15.7z"/>
		<path style="fill:#162C54;" d="M357.1,3.7c-0.2-0.9-1.4-1.4-2.1-0.7c-3.3,3.1-7.1,4-11.5,3.1c-2.6-0.5-3.5-0.4-5.5,1.5
			c-2.3,2.1-5.8,4.7-7.4,7.4c-0.6,1-0.6,1.4-0.6,2.6c0,2.6-0.1,4.5-1,6.9c-0.6,1.5,1.8,2.4,2.4,0.8c1.3-3.2,0.6-7.3,2.5-10.2
			c1.8-2.8,6.1-6.8,9.4-6.5c4.6,0.3,8.3,0.2,11.9-2.4c0.7,2.9,1.9,5.6,3.6,8c-2.1,0.4-3.9,1.2-5.9,2.2c-2,1-3.7,1.8-5.9,2
			c-1.1,0.1-2.1,0-3.2,0.1c-4.9,0.7-9,3.7-11.5,7.9c-0.8,1.4,1.2,2.9,2.1,1.4c1.5-2.6,3.6-4.6,6.3-5.9c2.7-1.3,5.1-0.9,8-1.1
			c1.4-0.1,2.4-0.5,3.6-1.2c3.1-1.7,5.3-3.1,8.9-3.4c1-0.1,1.3-1.4,0.7-2.1C359.3,11.2,357.8,7.7,357.1,3.7z"/>
	</g>
	<g>
		<path style="fill:#162C54;" d="M72,101c-4.2-0.9-8.3-1.8-12.5-2.6c-0.7-0.1-1.4,0-2.1-0.2c-0.5-0.2-0.9-0.6-1.4-1
			c0.4-0.4,0.8-1,1.3-1.3c4.9-2.5,9.8-5,14.6-8.1c-3.5,0-6.9-0.2-10.4,0.2c-11.5,1.2-22.9,0.1-34.3-0.8c-11.1-0.9-22.5-2.3-33.4-0.8
			c-10.9,1.5-21.7,5.4-31.9,9.8c-9.6,4.1-18.3,10.3-28.2,15c0.8-1.2,1.4-2.9,2.5-3.6c10-5.7,19.8-12.1,30.3-16.6
			c12.9-5.5,26.5-9.1,40.8-8.4c5.6,0.3,11.1,0.1,16.7,0.6c6.4,0.6,12.8,2.1,19.2,2.5c7.2,0.4,14.4,0,21.5,0c3.7,0,7.5,0,11.2,0.3
			c0.7,0,1.4,1,2.1,1.5c-0.6,0.6-1.1,1.4-1.8,1.8c-4,2.2-8.1,4.2-13.3,6.9c4,1.3,6.9,2.2,9.8,3.2c1.1,0.3,2.2,0.6,3.1,1.1
			c0.8,0.4,1.4,1.2,2.1,1.8c-0.9,0.5-1.8,1.2-2.7,1.6c-3.9,1.6-7.9,3.2-12.5,5c7.2,2.9,13.7,5.6,20.1,8.2c-0.1,0.4-0.1,0.8-0.2,1.1
			c-3.8,1.2-7.6,2.4-11.4,3.5c-9.3,2.8-18.9,2.4-28.4,1.5c-7.6-0.7-15.2-2-22.8-2.9c-9.2-1.2-17.5,2.2-26,4.9
			c-4,1.3-8.2,2.5-11.9,4.4c-6.5,3.4-12.7,7.2-19,11c-6.7,4.1-13.4,8.3-20.1,12.4c-0.8,0.5-1.8,0.5-3.1,0c1.7-1.2,3.4-2.4,5.1-3.6
			c7-4.7,13.8-9.9,21.2-14.1c7.7-4.3,15.8-8.1,24-11.4c6.1-2.4,12.6-4.5,19.1-5.3c6.5-0.8,13.2-0.6,19.7,0.3
			c11.3,1.5,22.5,3.4,33.9,2.1c4.8-0.5,9.4-1.8,14.2-2.8c0-0.4,0.1-0.9,0.1-1.3c-2.9-1.1-5.8-2.2-8.8-3.1c-4.7-1.5-9.6-2.7-14.3-4.2
			c-0.8-0.2-1.4-1.2-1.7-1.6c6.4-1.7,12.8-3.4,19.2-5.1C71.9,102.2,72,101.6,72,101z"/>
		<path style="fill:#162C54;" d="M2.7,99.5c-6.4,3.9-13.9,8.5-21.7,13.3C-11.9,106.7-4.7,101.5,2.7,99.5z"/>
	</g>
	<path style="fill:#162C54;" d="M345.4,86.6c2.5,1.9,4.6,3.5,6.6,5.2c0.6,0.5,0.9,1.4,1.4,2.1c-0.8,0.3-1.7,0.7-2.5,1
		c-3,1-6,2-9,3.7c1.2,0.4,2.5,0.7,3.6,1.2c1.3,0.6,2.7,1.2,3.9,2c0.5,0.3,0.8,1.2,0.7,1.7c-0.1,0.4-0.9,0.8-1.4,1
		c-3.1,1.5-6.3,2.9-10,4.7c2.8,1.1,4.8,1.9,6.7,2.7c0.8,0.4,1.6,1,2.2,1.8c0.4,0.5,0.9,1.5,0.7,2.1c-0.2,0.5-1.1,0.9-1.8,1.2
		c-2.8,1-5.6,1.9-8.4,3c-0.3,0.1-0.5,0.6-1,1.4c2-0.1,3.6-0.2,5.1-0.2c6.6,0.1,13.3,0.2,19.9,0.5c14.9,0.6,27.6,7.8,41,13.1
		c7.1,2.8,15,3.8,22.7,4.9c9.3,1.4,18.7,1.9,28.1,2.9c5.1,0.6,10.3,1,15.2,2.3c9.1,2.4,18.1,5.3,27.1,8c2.4,0.7,4.8,1.2,7.2,1.9
		c0.5,0.1,1,0.6,1.4,0.9c-0.5,0.3-1,1-1.5,0.9c-2.5-0.4-5-0.9-7.4-1.6c-15.7-4.7-31.1-10.3-47.7-10.9c-6.6-0.3-13.2-1.2-19.8-2
		c-6.3-0.8-12.7-1.2-18.8-2.9c-6.7-1.9-12.9-5.3-19.5-7.6c-7.4-2.6-14.8-5.5-22.5-7c-7.2-1.4-14.7-1.4-22.1-1.5
		c-3.6,0-7.2,1.2-10.8,1.8c-0.5,0.1-1.4-0.2-1.5-0.5c-0.2-0.6-0.3-1.5,0.1-2.1c2.4-3.8,5.9-6,10.2-7c0.4-0.1,0.8-0.2,1.8-0.4
		c-3.7-3.5-8.3-2.6-12.6-4.4c4.4-2.5,8.8-5.1,13.9-8c-4.1-0.9-7.7-1.6-11.3-2.4c-0.1-0.4-0.2-0.7-0.4-1.1c4.4-2,8.9-4.1,14.5-6.6
		c-3.7-1.7-6.8-3-9.8-4.5c-0.7-0.3-1.4-0.9-2.1-1.3c0.7-0.5,1.3-1.1,2-1.4c9-3,18.4-3.3,27.8-3.3c8.9,0,17,3,25.1,6.3
		c10.5,4.2,20.9,8.6,31.7,11.8c8,2.3,18.3,4,26.6,5.3c0.6,0.1,1.2,0.1,2,0.2c-0.1,0.5-0.2,0.9-0.3,1.2c-0.1,0.4-0.3,0.7-0.7,1.7
		c-6.5-1-15.1-3-21.7-4.5c-6.3-1.5-12.6-3.5-18.7-5.7c-4.5-1.6-8.7-4-13.1-5.6c-7.4-2.6-14.7-5.7-22.3-7.2
		c-9.5-1.9-19.3-1.5-28.8,0.7C346.8,85.9,346.5,86.1,345.4,86.6z"/>
	<path style="fill:#162C54;" d="M373.7,96c5.2-0.5,9.2,2.8,12.6,5.1c2.8,1.9,8,5.6,10.6,7.9c-0.2,0.2-3.5-2.1-3.8-1.9
		C386.9,103.5,380.7,100,373.7,96z"/>
	<path style="fill:#162C54;" d="M398.5,115.6c-6.9-4.2-13.9-8.5-20.9-12.7c0.2-0.3-1.2-0.3-1-0.6
		C380.1,102.9,398.9,114.5,398.5,115.6z"/>
	<path style="fill:#162C54;" d="M382.4,112.3c5.6,0.9,13.1,4.3,11.7,6.7C391,117.1,385.3,114.2,382.4,112.3z"/>
</g>
</svg>
